<?xml version="1.0" encoding="UTF-8"?>
<svg id="Layer_1" xmlns="http://www.w3.org/2000/svg" version="1.1" viewBox="0 0 300 250">
  <!-- Generator: Adobe Illustrator 30.2.1, SVG Export Plug-In . SVG Version: 2.1.1 Build 1)  -->
  <defs>
    <style>
      .st0, .st1 {
        fill: #055ca8;
      }

      .st2 {
        fill: #45b549;
      }

      .st1 {
        fill-rule: evenodd;
      }

      .st3 {
        fill: #ffd008;
      }
    </style>
  </defs>
  <path class="st2" d="M52.3,163.1c-1.1,0-2.9-.9-2.9-.9,0,0,1.5-1.1,2-1.1,1.1-.9,2.4-2,3.3-2.9h-6.4c-1.5,1.5-3.3,2.9-4.8,4v4c2.4,0,7.2,0,6.8,4,0,2.4-2,3.5-4.4,4-2.4,0-5.3-1.5-6.8-3.3l-1.1,5.7h-.4c4,3.3,10.8,3.5,14.9.9h0c2.4-1.5,3.5-4.4,3.5-7.2s0-3.3-1.5-4.4c-.9-1.1-2-1.5-2.9-2"/>
  <path class="st2" d="M55.2,157.4c1.1-1.5,1.1-3.3,1.1-4.8h-16.5v1.1l-1.1,4h16"/>
  <path class="st1" d="M83.7,143.8c-8.3,0-14.9-5.9-14.9-13.2v-25h11.2v26.1c0,3.3,2.9,5.9,6.4,5.9s6.4-2.9,6.4-5.9v-26.1h5.3v25c0,7.2-6.4,13.2-14.9,13.2M51.9,128.4l-6.8-2c-4.4-1.5-7.2-5.7-7.2-10.5s4.8-10.8,10.8-10.8h13.6v4.8h-9.7c-2,0-3.5,1.5-3.5,3.5s.9,2.9,2.4,3.3l6.8,2.4c4.4,1.5,6.8,5.9,6.8,11.2s-5.3,12.5-12.1,12.5h-14v-5.7h12.5c2,0,4-2,4-4.4s-1.1-3.5-3.3-4M115.8,128.4l-6.8-2c-4.4-1.5-7.7-5.7-7.7-10.5s4.8-10.8,10.8-10.8h13.6v4.8h-9.7c-2,0-3.5,1.5-3.5,3.5s.9,2.9,2.4,3.3l6.8,2.4c4.8,1.5,7.2,5.9,7.2,11.2s-5.7,12.5-12.5,12.5h-14.5v-5.7h12.5c2,0,4-2,4-4.4s-1.1-3.5-2.9-4"/>
  <path class="st1" d="M218.5,146.6h4.8v30.5c0-3.3-2.4-21.7-2-27.7l-2.9-2.9M182.5,114.1h0l-5.3-5.3c-6.8,0-28.5-2.4-35.8-3.5v39.5c34.9,3.5,53.6,4.4,74,3.5h0l-33.8-34.2h.9ZM182.9,102.7h39.5v-38.2h-39.5v38.2ZM152.4,105.1c2.4,0,25.7,2.4,27,2.4l36.2,37.1h46.8v-39.5h-110.2.4-.2ZM218.5,150.1s-20.9,1.5-39.1,0c0,21.7,2.9,32.9,3.3,35.3h39.1c-2-11.2-3.3-29.9-3.5-34.9"/>
  <path class="st3" d="M72.7,166.4c-2-3.5-5.9-4.4-9.2-6.4l-4.4-2.4h13.6l1.1-5.3h-14.5l-2,10.8,10.5,5.7c1.1.9,2,2.4,2,3.5s0,2.9-.9,4c1.5-.9,3.3-2,4-3.5.9-2,.9-4.8-.4-6.4"/>
  <path class="st3" d="M67.5,169.4l-10.1,4.8v.9c.9,1.1,1.5,2.4,2.4,3.5h1.1c2.4,0,5.9-.9,7.2-3.5.9-2,0-4.8-1.1-5.9"/>
  <path class="st0" d="M118.6,164.6v-12.1h5.3v23.7h-3.5c-1.1,0-1.5-1.1-2.4-2s-1.1-1.5-2-2.4c-1.1-1.5-2.4-3.3-4-4.8-.9-.9-1.5-2-2.4-2.9h-.4v11.6h-5.3v-23.7h0c2,0,3.5,0,4.8,1.1,3.5,3.3,6.8,8.1,9.7,11.2h.4"/>
  <path class="st0" d="M152.9,164.6c0,7.2-5.7,13-13,13s-13-5.7-13-13,5.7-13,13-13,13,5.7,13,13M139.2,157.4c-3.3,0-4.4,2.9-4.8,5.7,0,4.8,1.1,9.2,6.8,8.3,4.4,0,4.4-5.9,4.4-9.2s-2.9-5.7-6.4-5.3"/>
  <path class="st0" d="M101.7,176.7h-6.8c0-.9-1.1-3.5-1.5-4h-9.7l-1.5,4h-6.4l9.2-23.3c.9-1.1,2.9-1.1,4-1.1s2.4,0,2.9,1.5l9.2,22.8h.9-.2ZM91.2,167.5l-2.9-7.7-3.3,7.7h6.1Z"/>
  <path class="st0" d="M170.4,159.1c-2.4-.9-4.8-1.5-7.2-1.5s-3.3,2.4-.9,3.5c4,2,8.8,1.5,9.2,7.7.9,10.1-12.1,11.2-17.3,5.3v-5.3h1.1s.9.9,1.1.9c2.4,1.1,4.8,2,7.7,1.5,1.5,0,1.1-2,0-2.9-3.3-2.4-9.2-2.4-10.1-8.1-1.1-9.2,9.7-10.8,15.6-6.8v5.7h.9Z"/>
</svg>