<?xml version="1.0" encoding="UTF-8"?>
<svg id="Layer_1" xmlns="http://www.w3.org/2000/svg" version="1.1" viewBox="0 0 300 250">
  <!-- Generator: Adobe Illustrator 30.2.1, SVG Export Plug-In . SVG Version: 2.1.1 Build 1)  -->
  <defs>
    <style>
      .st0 {
        fill: none;
      }
    </style>
  </defs>
  <g id="Layer_1-2">
    <rect class="st0" x="18.3" y="17.9" width="263.1" height="250.6"/>
    <g>
      <path d="M121.9,110.4h-22.6c-.7,0-1.1,0-1.1,1.1v42.8c0,.7,0,1.1,1.1,1.1h3.4c.7,0,1.1,0,1.1-1.1v-19.5h12.6c.7,0,1.1,0,1.1-1.1v-2.7c0-.7,0-1.1-1.1-1.1h-12.6v-15.4h18.7c.7,0,1.1,0,1.1-1.1v-2.7c0-.7,0-1.1-1.1-1.1"/>
      <path d="M128.8,110.4h-3.4c-.7,0-1.1,0-1.1,1.1v42.8c0,.7,0,1.1,1.1,1.1h3.4c.7,0,1.1,0,1.1-1.1v-42.8c0-.7,0-1.1-1.1-1.1"/>
      <path d="M156.5,122.8v19.1c0,2.7-.7,4.6-2.3,5.8s-4.2,2.3-6.5,2.3-5-.7-6.2-2.3-2.3-3.5-2.3-5.8v-19.1c0-2.7.7-4.6,2.3-6.2,1.2-1.6,3.9-2.3,6.2-2.3s5.3.7,6.5,2.3,2.3,3.5,2.3,6.2M155.1,111.7c-1.9-1.1-5-1.6-7.6-1.6s-5.3.7-7.3,1.6c-1.9,1.1-3.5,2.7-4.6,4.6s-1.6,4.2-1.6,6.9v18.7c0,2.7.7,5,1.6,6.5,1.1,1.9,2.7,3.5,4.6,4.6,1.9,1.1,4.6,1.6,7.3,1.6s5.7-.7,7.6-1.6,3.5-2.7,4.6-4.6,1.6-4.2,1.6-6.5v-18.7c0-2.7-.7-5-1.6-6.9s-2.7-3.5-4.6-4.6"/>
      <path d="M178.5,110.1c-3.9,0-7.3,1.2-9.5,3.4s-3.5,5.3-3.5,8.8v19.8c0,3.5,1.2,6.9,3.5,9.2,2.3,2.3,6.5,3.4,10.6,3.4s6.9-1.2,9.2-3.4c2.3-2.3,3.5-5.3,3.5-8.8h0c0-1.1,0-1.2-1.1-1.2h-3.4c-.7,0-1.1,0-1.1.7v1.1c0,2.3-.7,4.2-2.3,5.7-1.2,1.2-3.4,2.3-5.8,2.3s-5.7-.7-6.9-2.3-2.3-3.4-2.3-5.7v-20.3c0-2.3.7-4.2,2.3-5.7,1.2-1.2,3.5-2.3,6.2-2.3s5.3.7,6.5,2.3c1.2,1.2,2.3,3.4,2.3,5.7v1.1c0,.5.4.7,1.1.7h3.4c.7,0,1.1-.4,1.1-1.1v-.7c0-3.5-1.2-6.5-3.5-8.8s-6.2-3.4-10.3-3.4"/>
      <path d="M218.6,122.5c0,2.3-.7,4.6-1.9,6.2-1.2,1.2-3,2.3-5,2.3h-10.3v-16.1h10.3c1.9,0,3.5.7,5,2.3,1.2,1.2,1.9,3.4,1.9,5.8M215.6,134.3h0c2.3-.7,4.2-1.9,5.7-3.9,1.2-1.9,1.9-5,1.9-8s-.4-4.6-1.2-6.2-2.3-3.4-3.9-4.2-3.5-1.6-5.8-1.6h-14.9c-.7,0-1.1,0-1.1,1.1v42.8c0,.7,0,1.1,1.1,1.1h3.4c.7,0,1.1,0,1.1-1.1v-19.1h9.5l8,19.5c0,.4.4.7,1.1.7h3.4c.5,0,.7-.2.7-.7h0c0-.4-8-19.8-8-19.8h0l-.4-.4-.5-.2Z"/>
      <path d="M253.8,110.4h-3.4c-.7,0-1.1,0-1.1,1.1v30.9c0,2.7-.7,4.6-2.3,6.2-1.2,1.6-3.9,2.3-6.5,2.3s-5-.7-6.5-2.3c-1.2-1.6-2.3-3.5-2.3-6.2v-30.9c0-.7,0-1.1-1.1-1.1h-3.4c-.7,0-1.1,0-1.1,1.1v30.6c0,2.7.7,5,1.6,6.9s2.7,3.5,4.6,4.6c1.9,1.1,5,1.6,7.3,1.6s5.7-.7,7.3-1.6,3.5-2.7,4.6-4.6,1.6-4.2,1.6-6.9v-30.6c0-.7,0-1.1-1.1-1.1"/>
      <path d="M281.4,114v-3c0-.7,0-1.1-1.1-1.1h-23c-.7,0-1.1,0-1.1,1.1v2.7c0,.7,0,1.1,1.1,1.1h18.4l-19.1,35.2v4.2c0,.7,0,1.1,1.1,1.1h23c.7,0,1.1,0,1.1-1.1v-2.7c0-.7,0-1.1-1.1-1.1h-18.4l19.1-35.5v-1.1"/>
      <path d="M84,151.5h-12.6l-2.7-2.7h-32l-2.7,2.7h-12.2v-1.1l1.6-1.6v-32.5l-1.1-1.1v-1.6h3v-13.1l1.1-1.1v-2.7l-.4-.4s-.7-.7-.7-1.1c0-.7-.7-1.2-.7-1.9,0-2.3,1.9-4.2,4.2-4.2s4.2,1.9,4.2,4.2,0,1.6-1.1,2.7h-.4v2.7l1.1,1.1v11.1h7.6l1.9-1.9v-8.5h6.9v-2.3h6.9v2.3h6.9v8.1l1.9,1.9h7.6v-11.1l1.1-1.1v-2.7l-.4-.4s-.4-.7-.7-.7c-.4-.7-.7-1.2-.7-1.9,0-2.3,1.9-4.2,4.2-4.2s4.2,1.9,4.2,4.2,0,1.6-.7,2.7h-.4v2.7l1.1,1.1v13.1h3.4v1.9l-1.1,1.1v32.5l1.9,1.9v.7h0l-1.1,1.1h.4ZM87,148.8h0v-.4l-1.2-1.2v-30.6l1.1-1.1v-4.6s-.7-.7-1.1-.7h-1.9v-11.8c0-.4,0-.7-.7-1.1h0c.7-1.2,1.2-2.7,1.2-3.9,0-3.4-2.3-6.2-5.3-7.3h0l-.7-3.5c0-1.1-1.1-1.2-1.6-1.2s-1.2.4-1.6,1.2l-.7,3.5h0c-3.4,1.1-5.7,3.9-5.7,7.6s.4,3,1.1,3.9h0s-.7.7-.7,1.1v9.5h-2.7v-5.8l1.1-1.1v-3c0-.7-.7-1.2-1.2-1.2h-4.2l-.7,1.1h-1.1v-1.1c.4-.4,0-.7,0-1.1,0,0-.7-.7-1.1-.7h-12.6c-.4,0-.7,0-1.1.4,0,0-.4.7,0,1.2v1.1h-1.1l-.7-1.1h-4.2c-.7,0-1.2.7-1.2,1.2v3l1.1,1.1v5.8h-2.7v-9.5c0-.4,0-.7-.7-1.1h0c.7-1.2,1.2-2.7,1.2-3.9,0-3.4-2.3-6.2-5.3-7.3h0l-.7-3.5c0-1.1-1.1-1.2-1.6-1.2s-1.6.7-1.6,1.2l-.7,3.5h0c-3.4,1.1-5.7,3.9-5.7,7.6s.4,3,1.1,3.9h0c-.4,0-.7.7-.7,1.1v11.8h-1.9c-.4,0-.7,0-1.1.7v4.6l1.1,1.1v30.6l-1.2,1.2s-.4.7-.4,1.1v4.2c0,.7.7,1.2,1.2,1.2h15.7l2.7-2.7h29.4l2.7,2.7h15.7c.7,0,1.2-.7,1.2-1.2v-5"/>
    </g>
  </g>
</svg>