<?xml version="1.0" encoding="UTF-8"?>
<svg id="Layer_1" xmlns="http://www.w3.org/2000/svg" version="1.1" viewBox="0 0 300 250">
  <!-- Generator: Adobe Illustrator 30.2.1, SVG Export Plug-In . SVG Version: 2.1.1 Build 1)  -->
  <defs>
    <style>
      .st0 {
        fill: none;
      }

      .st1 {
        fill: #ffb000;
      }

      .st1, .st2, .st3, .st4 {
        fill-rule: evenodd;
      }

      .st2 {
        fill: #1a69f9;
      }

      .st3 {
        fill: #f06;
      }

      .st4 {
        fill: #609;
      }
    </style>
  </defs>
  <g id="Layer_1-2">
    <rect class="st0" x="24.6" y="-22" width="242.1" height="360.6"/>
    <g id="Camada_1">
      <g>
        <g>
          <path class="st4" d="M54.9,92.2l12.6,12.6c3.6,3.6,8.6,5.4,13.3,5.4s9.7-1.8,13.3-5.4l12.6-12.6-7.6-7.6-12.6,12.6c-1.4,1.4-3.6,2.5-5.8,2.5s-4.3-.7-5.8-2.5l-12.6-12.6-7.6,7.6h0Z"/>
          <path class="st1" d="M111.4,98l-12.6,12.6c-3.6,3.6-5.4,8.6-5.4,13.3s1.8,9.7,5.4,13.3l12.6,12.6,7.6-7.6-12.6-12.6c-1.4-1.4-2.5-3.6-2.5-5.8s.7-4.3,2.5-5.8l12.6-12.6-7.6-7.6h0Z"/>
          <path class="st2" d="M106.8,157.8l-12.6-12.6c-3.6-3.6-8.6-5.4-13.3-5.4s-9.7,1.8-13.3,5.4l-12.6,12.6,7.6,7.6,12.6-12.6c1.4-1.4,3.6-2.5,5.8-2.5s4.3.7,5.8,2.5l12.6,12.6,7.6-7.6h0Z"/>
          <path class="st3" d="M48.8,150.2l12.6-12.6c3.6-3.6,5.4-8.6,5.4-13.3s-1.8-9.7-5.4-13.3l-12.6-12.6-7.6,7.6,12.6,12.6c1.4,1.4,2.5,3.6,2.5,5.8s-.7,4.3-2.5,5.8l-12.6,12.6,7.6,7.6h0Z"/>
          <path class="st3" d="M37.2,132.9c5,0,9-4,9-9s-4-9-9-9-9,4-9,9,4,9,9,9"/>
          <path class="st4" d="M71.8,80.3c0,5,4,9,9,9s9-4,9-9-4-9-9-9-9,4-9,9"/>
          <path class="st1" d="M124.4,114.9c-5,0-9,4-9,9s4,9,9,9,9-4,9-9-4-9-9-9"/>
          <path class="st2" d="M89.8,167.5c0-5-4-9-9-9s-9,4-9,9,4,9,9,9,9-4,9-9"/>
        </g>
        <g>
          <g>
            <path d="M156.1,105.9c-1.4,0-2.5,0-3.6-.7s-2.2-1.1-2.9-2.2-1.4-2.2-1.8-3.2-.7-2.9-.7-4.7,0-3.2.7-4.7,1.1-2.5,2.2-3.2,1.8-1.4,2.9-2.2c1.1-.4,2.5-.7,3.6-.7h2.2c.7,0,1.1,0,1.8.4.4,0,.7,0,1.1.4,0,0,.7,0,.7.4l-.7,1.8c-.4,0-1.1-.7-1.8-.7s-1.8-.4-2.9-.4-2.5,0-3.2.7c-1.1.4-1.8,1.1-2.5,1.8s-1.1,1.8-1.4,2.9c0,1.1-.4,2.2-.4,3.6s0,2.5.4,3.6.7,2.2,1.4,2.9,1.4,1.4,2.2,1.8,1.8.7,3.2.7h3.2c.7,0,1.4-.4,2.2-.7l.7,1.8h-.7q-.7,0-1.1.4h-4l-.7.4Z"/>
            <path d="M179.9,105.6c-.4-1.1-.7-1.8-1.1-2.9,0-1.1-.7-1.8-1.1-2.9h-10.1c0,.7-.7,1.8-1.1,2.9,0,1.1-.7,1.8-1.1,2.9h-2.2c.7-2.2,1.4-4,2.2-6.1s1.4-3.6,2.2-5.4c.7-1.8,1.4-3.2,1.8-4.7s1.4-2.9,2.2-4.7h1.8c.7,1.4,1.4,2.9,2.2,4.7.7,1.4,1.4,3.2,1.8,4.7.7,1.8,1.4,3.2,2.2,5.4.7,1.8,1.4,4,2.2,6.1h-2.5.7ZM173,87.2c-.7,1.8-1.4,3.6-2.2,5-.7,1.8-1.4,3.6-2.2,5.8h8.6c-.7-2.2-1.4-4-2.2-5.8-.7-1.8-1.4-3.6-2.2-5h0Z"/>
            <path d="M194.3,102.3c0-.4-.4-1.1-.7-1.8,0-.7-.7-1.8-1.1-2.5-.4-1.1-1.1-1.8-1.4-2.9s-1.1-1.8-1.4-2.9c-.4-.7-.7-1.8-1.1-2.2,0-.7-.7-1.1-.7-1.4,0,2.5-.4,5-.7,7.9,0,2.9,0,5.8-.4,9h-1.8c0-3.6,0-7.2.7-10.8,0-3.2.4-6.8.7-9.7h1.8c.7,1.1,1.1,2.2,1.8,3.2.7,1.4,1.4,2.5,2.2,4,.7,1.4,1.4,2.9,1.8,4s1.1,2.5,1.8,3.6c.4-1.1,1.1-2.2,1.8-3.6s1.1-2.9,1.8-4c.7-1.4,1.4-2.9,2.2-4,.7-1.4,1.4-2.5,1.8-3.2h1.8c0,3.2.7,6.5.7,9.7s.4,6.8.7,10.8h-2.2c0-3.2,0-6.1-.4-9s0-5.4-.7-7.9c0,0-.4.7-.7,1.4,0,.7-.7,1.4-1.1,2.2s-.7,1.8-1.4,2.9-1.1,2.2-1.4,2.9-.7,1.8-1.1,2.5c0,.7-.7,1.4-.7,1.8h-2.5Z"/>
            <path d="M215.9,84.7c2.9,0,5,.4,6.5,1.8s2.2,2.5,2.2,4.7,0,2.2-.7,2.9c-.4.7-1.1,1.4-1.8,1.8s-1.8.7-2.9,1.1h-6.5v7.9h-2.2v-20.2c.7,0,1.4-.4,2.5-.4h2.5l.4.4ZM215.9,86.5h-3.2v9h5.4c.7,0,1.8,0,2.2-.7s1.1-.7,1.4-1.4c0-.7.4-1.4.4-2.2s0-1.8-.7-2.2-.7-1.1-1.4-1.4-1.4-.7-2.2-.7h-2.5l.7-.4Z"/>
            <path d="M235.7,105.9c-1.4,0-2.5,0-3.6-.7s-1.8-1.1-2.2-1.8c-.7-.7-1.1-1.4-1.4-2.5s-.4-2.2-.4-3.2v-13h2.2v12.6c0,1.1,0,2.2.4,2.9,0,.7.7,1.4,1.1,2.2s1.1,1.1,1.8,1.1h4.3c.7,0,1.1-.7,1.8-1.1s.7-1.1,1.1-2.2.4-1.8.4-2.9v-12.6h2.2v13c0,1.1,0,2.2-.4,3.2,0,1.1-.7,1.8-1.4,2.5s-1.4,1.4-2.2,1.8-2.2.7-3.6.7h0Z"/>
            <path d="M252.7,104.1c1.8,0,2.9,0,3.6-.7.7-.7,1.4-1.4,1.4-2.9s0-1.4-.4-1.8-.7-1.1-1.1-1.1-1.1-.7-1.8-.7-1.1-.4-1.8-.7c-.7,0-1.8-.7-2.2-1.1s-1.1-.7-1.8-1.1c-.4-.4-.7-1.1-1.1-1.4s0-1.1,0-2.2c0-1.8.7-3.2,1.8-4s2.9-1.4,4.7-1.4h3.2c.4,0,.7,0,1.1.4s.7.4,1.1.4l-.7,1.8c-.7-.4-1.1-.7-2.2-1.1-.7,0-1.8-.4-2.5-.4h-1.8c-.7,0-1.1.4-1.4.7-.4,0-.7.7-1.1,1.1v3.2c0,.7.7.7,1.1,1.1s1.1.7,1.4.7c.7,0,1.1.7,1.8.7s1.4.7,2.2,1.1c.7,0,1.4.7,1.8,1.1.7.4,1.1,1.1,1.1,1.8s.4,1.4.4,2.5c0,1.8-.7,3.2-1.8,4.3s-2.9,1.4-5.4,1.4-1.4,0-2.2,0h-1.8c-.7,0-1.1,0-1.4-.4,0,0-.7,0-.7-.4l.7-1.8s.4,0,.7.4.7,0,1.1.4h4Z"/>
          </g>
          <g>
            <path d="M148.9,113.1c.7,1.8,1.1,3.2,1.8,5s1.1,3.2,1.8,4.7c.7,1.4,1.1,2.9,1.8,4.3s1.1,2.9,1.8,4.3c.7-1.4,1.1-2.9,1.8-4.3s1.1-2.9,1.8-4.3,1.1-2.9,1.8-4.7,1.1-3.2,1.8-5h2.2c-.7,2.5-1.8,4.7-2.5,6.8s-1.4,3.6-2.2,5.4c-.7,1.4-1.1,2.9-1.8,4.3s-1.1,2.5-1.8,4h-1.8c-.7-1.4-1.1-2.9-1.8-4s-1.1-2.9-1.8-4.3-1.4-3.2-2.2-5.4-1.4-4.3-2.5-6.8h2.2-.4Z"/>
            <path d="M167.6,113.1h2.2v20.5h-2.2v-20.5Z"/>
            <path d="M188.5,119.2c0,1.4-.4,2.9-1.1,3.6s-1.8,1.4-3.2,1.8c0,.4.7,1.1,1.1,1.8s1.1,1.4,1.4,2.2,1.1,1.8,1.4,2.5c.7.7,1.1,1.8,1.4,2.5h-2.2c-.4-.7-.7-1.4-1.4-2.5-.4-.7-1.1-1.4-1.4-2.2s-1.1-1.4-1.4-2.2-.7-1.1-1.1-1.8h-5v8.3h-2.2v-20.2c.7,0,1.4,0,2.5-.4h2.5c2.9,0,5,.7,6.5,1.8s2.2,2.5,2.2,4.7h0ZM180.2,114.9h-3.2v8.6h5.4c.7,0,1.4,0,2.2-.7s1.1-.7,1.4-1.4c0-.7.7-1.4.7-2.5s0-1.8-.7-2.2c0-.7-.7-1.1-1.4-1.4-.7,0-1.1-.7-1.8-.7h-2.2l-.4.4Z"/>
            <path d="M206.2,113.1v1.8h-6.5v18.7h-2.2v-18.7h-6.5v-1.8s15.1,0,15.1,0Z"/>
            <path d="M216.6,134c-1.4,0-2.5,0-3.6-.7-1.1-.4-1.8-1.1-2.2-1.8-.7-.7-1.1-1.4-1.4-2.5s-.4-2.2-.4-3.2v-13h2.2v12.6c0,1.1,0,2.2.4,2.9s.7,1.4,1.1,2.2,1.1,1.1,1.8,1.1h4.3c.7,0,1.1-.7,1.8-1.1s.7-1.1,1.1-2.2.4-1.8.4-2.9v-12.6h2.2v13c0,1.1,0,2.2-.4,3.2,0,1.1-.7,1.8-1.4,2.5s-1.4,1.4-2.2,1.8-2.2.7-3.6.7h0Z"/>
            <path d="M243.3,133.7c-.4-1.1-.7-1.8-1.1-2.9s-.7-1.8-1.1-2.9h-10.1c0,.7-.7,1.8-1.1,2.9,0,1.1-.7,1.8-1.1,2.9h-2.2c.7-2.2,1.4-4,2.2-6.1s1.4-3.6,2.2-5.4c.7-1.8,1.4-3.2,1.8-4.7.7-1.4,1.4-2.9,2.2-4.7h1.8c.7,1.4,1.4,2.9,2.2,4.7.7,1.4,1.4,3.2,1.8,4.7s1.4,3.2,2.2,5.4,1.4,4,2.2,6.1h-2.5.7ZM236.1,115.6c-.7,1.8-1.4,3.6-2.2,5-.7,1.8-1.4,3.6-2.2,5.8h8.6c-.7-2.2-1.4-4-2.2-5.8-.7-1.8-1.4-3.6-2.2-5h0Z"/>
            <path d="M260.2,131.8v1.8h-11.5v-20.5h2.2v18.7h9.7-.4Z"/>
          </g>
          <path d="M146.7,143v19.5h3.2v-8.6h9v-2.9h-9v-5.4h10.1v-2.9h-13.3v.4ZM163,143v19.5h3.2v-19.5h-3.2ZM178.8,142.7c-5.8,0-9.4,4-9.4,10.4s3.6,10.4,9.4,10.4,9.4-4,9.4-10.4-3.6-10.4-9.4-10.4ZM178.8,145.5c3.6,0,6.1,2.9,6.1,7.6s-2.5,7.6-6.1,7.6-6.1-2.9-6.1-7.6,2.5-7.6,6.1-7.6ZM208.3,149.1c0-4-3.2-6.5-7.9-6.5s-9.4,4-9.4,10.4,3.6,10.4,9,10.4,8.3-3.2,8.3-7.6h-3.2c0,2.9-2.5,4.7-5,4.7h0c-3.6,0-5.8-2.9-5.8-7.6s2.2-7.2,5.8-7.2,4.7,1.4,5,3.6h3.2v-.4ZM211.6,143v19.5h3.2v-7.9h5c2.5,0,2.9,1.1,3.2,3.2v2.5c0,.7,0,1.8.7,2.5h3.6v-.7c-.7-.4-.7-1.1-.7-2.2v-2.9c0-2.2-.7-3.2-2.5-4,1.8-.7,2.9-2.5,2.9-4.7s-1.8-5.4-4.7-5.4h-10.8ZM214.8,145.9h4.7c2.5,0,3.6.7,3.6,2.9s-1.1,2.9-4,2.9h-4.7v-6.1h0l.4.4ZM230,143v12.2c0,5,2.5,7.9,7.9,7.9s7.9-2.9,7.9-7.9v-12.2h-3.2v12.2c0,3.2-1.4,5-4.3,5s-4.3-1.8-4.3-5v-12.2h-4ZM248.7,143v2.9h10.8l-11.5,14v2.9h15.1v-2.9h-11.2l11.2-13.7v-2.9h-14.4v-.4Z"/>
        </g>
      </g>
    </g>
  </g>
</svg>