<?xml version="1.0" encoding="UTF-8"?>
<svg id="Layer_1" xmlns="http://www.w3.org/2000/svg" version="1.1" viewBox="0 0 550 250">
  <!-- Generator: Adobe Illustrator 30.2.1, SVG Export Plug-In . SVG Version: 2.1.1 Build 1)  -->
  <defs>
    <style>
      .st0 {
        fill: #ffcf00;
      }

      .st1 {
        fill: #1d1c1a;
      }

      .st2 {
        fill: #3d3d3d;
      }

      .st3 {
        fill: #00cf00;
      }

      .st4 {
        fill: #173dff;
      }

      .st5 {
        fill: #ec2024;
      }
    </style>
  </defs>
  <g>
    <path class="st1" d="M268.7,172.8c1.3,0,2.5.4,3.3,1.3s1.3,1.9,1.3,3.3-.4,2.5-1.3,3.3-1.9,1.3-3.3,1.3h-3.7v-9.2h3.7ZM268.7,180.5c1,0,1.5,0,2.1-1s1-1.3,1-2.5,0-1.7-1-2.5c-.6-.6-1.3-1-2.1-1h-2.1v6.3h2.1v.6Z"/>
    <path class="st1" d="M284,180.7c-1,1-2.1,1.5-3.5,1.5s-2.7-.4-3.5-1.5c-1-1-1.5-2.1-1.5-3.5s.4-2.7,1.5-3.5c1-1,2.1-1.5,3.5-1.5s2.7.4,3.5,1.5c1,1,1.5,2.1,1.5,3.5s-.4,2.7-1.5,3.5M278.1,179.9c.6.6,1.5,1,2.5,1s1.7,0,2.5-1,1-1.5,1-2.5,0-1.7-1-2.5c-.6-.6-1.5-1-2.5-1s-1.7,0-2.5,1-1,1.5-1,2.5,0,1.7,1,2.5"/>
  </g>
  <g>
    <polygon class="st1" points="295.2 180.5 298.8 180.5 298.8 182 293.6 182 293.6 172.8 295.2 172.8 295.2 180.5"/>
    <path class="st1" d="M308.1,182l-.6-1.9h-3.8l-.6,1.9h-1.7l3.5-9.2h1.9l3.5,9.2h-2.1ZM303.8,178.7h3.1l-1.5-4.2-1.5,4.2Z"/>
    <path class="st1" d="M316,172.8c1.3,0,2.5.4,3.3,1.3s1.3,1.9,1.3,3.3-.4,2.5-1.3,3.3c-1,1-1.9,1.3-3.3,1.3h-3.7v-9.2h3.7ZM316,180.5c1,0,1.5,0,2.1-1s1-1.3,1-2.5,0-1.7-1-2.5c-.6-.6-1.3-1-2.1-1h-2.1v6.3h2.1v.6Z"/>
    <path class="st1" d="M331.1,180.7c-1,1-2.1,1.5-3.5,1.5s-2.7-.4-3.5-1.5c-1-1-1.5-2.1-1.5-3.5s.4-2.7,1.5-3.5c1-1,2.1-1.5,3.5-1.5s2.7.4,3.5,1.5c1,1,1.5,2.1,1.5,3.5s-.4,2.7-1.5,3.5M325.6,179.9c.6.6,1.5,1,2.5,1s1.7,0,2.5-1,1-1.5,1-2.5,0-1.7-1-2.5c-.6-.6-1.5-1-2.5-1s-1.7,0-2.5,1-1,1.5-1,2.5,0,1.7,1,2.5"/>
  </g>
  <g>
    <path class="st1" d="M344.6,172.8c1.3,0,2.5.4,3.3,1.3s1.3,1.9,1.3,3.3-.4,2.5-1.3,3.3c-1,1-1.9,1.3-3.3,1.3h-3.7v-9.2h3.7ZM344.6,180.5c1,0,1.5,0,2.1-1s1-1.3,1-2.5,0-1.7-1-2.5c-.6-.6-1.3-1-2.1-1h-2.1v6.3h2.1v.6Z"/>
    <path class="st1" d="M359.6,180.7c-1,1-2.1,1.5-3.5,1.5s-2.7-.4-3.5-1.5c-1-1-1.5-2.1-1.5-3.5s.4-2.7,1.5-3.5c1-1,2.1-1.5,3.5-1.5s2.7.4,3.5,1.5c1,1,1.5,2.1,1.5,3.5s-.4,2.7-1.5,3.5M354,179.9c.6.6,1.5,1,2.5,1s1.7,0,2.5-1,1-1.5,1-2.5,0-1.7-1-2.5c-.6-.6-1.5-1-2.5-1s-1.7,0-2.5,1-1,1.5-1,2.5,0,1.7,1,2.5"/>
  </g>
  <g>
    <path class="st1" d="M372.7,172.8c1,0,1.5,0,2.1,1s1,1.3,1,2.1,0,1.5-1,2.1-1.3,1-2.1,1h-1.9v3.3h-1.5v-9.2h3.5v-.2ZM372.7,177.4c.4,0,1,0,1.2-.4,0,0,.4-.6.4-1.2s0-1-.4-1.2c0,0-.6-.4-1.2-.4h-1.9v3.3h1.9v-.2Z"/>
    <path class="st1" d="M386.5,180.7c-1,1-2.1,1.5-3.5,1.5s-2.7-.4-3.5-1.5c-1-1-1.5-2.1-1.5-3.5s.4-2.7,1.5-3.5c1-1,2.1-1.5,3.5-1.5s2.7.4,3.5,1.5c1,1,1.5,2.1,1.5,3.5s-.4,2.7-1.5,3.5M380.7,179.9c.6.6,1.5,1,2.5,1s1.7,0,2.5-1,1-1.5,1-2.5,0-1.7-1-2.5c-.6-.6-1.5-1-2.5-1s-1.7,0-2.5,1-1,1.5-1,2.5,0,1.7,1,2.5"/>
    <polygon class="st1" points="393 182 389.8 172.8 391.5 172.8 393.6 180.1 396.3 172.8 397.9 172.8 394.6 182 393 182"/>
    <path class="st1" d="M407.8,180.7c-1,1-2.1,1.5-3.5,1.5s-2.7-.4-3.5-1.5c-1-1-1.5-2.1-1.5-3.5s.4-2.7,1.5-3.5c1-1,2.1-1.5,3.5-1.5s2.7.4,3.5,1.5c1,1,1.5,2.1,1.5,3.5s-.4,2.7-1.5,3.5M402.5,179.9c.6.6,1.5,1,2.5,1s1.7,0,2.5-1,1-1.5,1-2.5,0-1.7-1-2.5c-.6-.6-1.5-1-2.5-1s-1.7,0-2.5,1-1,1.5-1,2.5,0,1.7,1,2.5"/>
  </g>
  <g>
    <path class="st1" d="M423,177.2c.4,0,.6.4,1,1,0,.4.4,1,.4,1.3,0,1,0,1.3-1,1.9-.6.4-1.3,1-1.9,1h-4.2v-9.2h3.7c1,0,1.5,0,1.9.6.4.4,1,1.2,1,1.9s0,1.5-1,1.9M421.3,174.3h-2.1v2.5h2.1c.4,0,.6,0,1-.4,0,0,.4-.4.4-1s0-.6-.4-1c0,0-.4-.4-1-.4M421.5,180.5c.4,0,.6,0,1-.4,0,0,.4-.6.4-1s0-.6-.4-1c0,0-.6-.4-1-.4h-2.5v2.7s2.5,0,2.5,0Z"/>
    <path class="st1" d="M432.6,182l-1.9-3.5h-1.7v3.5h-1.5v-9.2h3.7c1,0,1.5,0,2.1,1s1,1.3,1,2.1,0,1.2-.4,1.7c-.4.4-1,1-1.3,1.2l2.1,3.7h-1.9v-.4h0ZM428.6,174.3v3.1h2.1c.4,0,.6,0,1.2-.4s.4-.6.4-1.2,0-1-.4-1.2c0,0-.6-.4-1.2-.4,0,0-2.1,0-2.1,0Z"/>
    <path class="st1" d="M443,182l-.6-1.9h-3.8l-.6,1.9h-1.7l3.5-9.2h1.9l3.5,9.2h-2.1ZM439.2,178.7h3.1l-1.5-4.2-1.5,4.2h0Z"/>
    <path class="st1" d="M450.5,182.2c-1,0-1.7,0-2.5-.6-.6-.4-1.2-1-1.3-1.7l1.3-1c.4,1.2,1.2,1.5,2.5,1.5s1.2,0,1.3-.4c0,0,.4-.4.4-1s0-.6-.4-1c0,0-1-.4-1.7-.6-.4,0-1,0-1.2-.4,0,0-.6,0-1-.4,0,0-.4-.4-.6-1v-1.2c0-1,0-1.5,1-1.9.6-.4,1.3-.6,2.1-.6s1.3,0,1.9.6c.6.4,1.2,1,1.3,1.5l-1.3.6c-.4-1-1.2-1.3-1.9-1.3h-1.2s-.4.4-.4,1,0,.6.4,1c0,0,1,.4,1.5.6h1.5c.2,0,.4,0,.6.4l.4.4s0,.4.4.6v1c0,1,0,1.5-1,1.9-.6.4-1.5.6-2.5.6"/>
    <rect class="st1" x="456.7" y="172.8" width="1.5" height="9.2"/>
    <polygon class="st1" points="463.4 180.5 466.9 180.5 466.9 182 461.9 182 461.9 172.8 463.4 172.8 463.4 180.5"/>
    <polygon class="st1" points="471.5 180.5 475.3 180.5 475.3 182 469.9 182 469.9 172.8 475.3 172.8 475.3 174.3 471.5 174.3 471.5 176.6 475.1 176.6 475.1 178.2 471.5 178.2 471.5 180.5"/>
    <rect class="st1" x="478.4" y="172.8" width="1.5" height="9.2"/>
    <path class="st1" d="M489,182l-1.9-3.5h-1.7v3.5h-1.5v-9.2h3.7c1,0,1.5,0,2.1,1s1,1.3,1,2.1,0,1.2-.4,1.7c-.4.4-1,1-1.3,1.2l2.1,3.7h-1.9v-.4h0ZM485.3,174.3v3.1h2.1c.4,0,.6,0,1.2-.4s.4-.6.4-1.2,0-1-.4-1.2c0,0-.6-.4-1.2-.4,0,0-2.1,0-2.1,0Z"/>
    <path class="st1" d="M501.3,180.7c-1,1-2.1,1.5-3.5,1.5s-2.7-.4-3.5-1.5c-1-1-1.5-2.1-1.5-3.5s.4-2.7,1.5-3.5c1-1,2.1-1.5,3.5-1.5s2.7.4,3.5,1.5c1,1,1.5,2.1,1.5,3.5s-.4,2.7-1.5,3.5M495.5,179.9c.6.6,1.5,1,2.5,1s1.7,0,2.5-1c.6-.6,1-1.5,1-2.5s0-1.7-1-2.5c-.6-.6-1.5-1-2.5-1s-1.7,0-2.5,1c-.6.6-1,1.5-1,2.5s0,1.7,1,2.5"/>
  </g>
  <g>
    <path class="st1" d="M321.5,73.2v1c0,3.8-2.7,6.2-6,6.2s-6.3-2.9-6.3-6.3,2.9-6.3,6.3-6.3,4.4,1.2,5.4,3.1l-2.9,1.7c-.6-1.2-1.5-1.5-2.7-1.5-1.7,0-3.1,1.3-3.1,3.3s1.3,3.3,3.3,3.3,2.1-.6,2.5-1.5h-3.3v-2.7h6.7-.2.2Z"/>
    <path class="st1" d="M325.6,74.1c0-3.7,2.9-6.3,6.3-6.3s6.3,2.9,6.3,6.3-2.9,6.3-6.3,6.3-6.3-2.9-6.3-6.3M335,74.1c0-1.7-1.3-3.1-2.9-3.1s-3.1,1.3-3.1,3.1,1.3,3.1,3.1,3.1,2.9-1.3,2.9-3.1"/>
    <polygon class="st1" points="354 68 349.2 80.5 346.1 80.5 341.3 68 344.8 68 347.3 75.7 350.4 68 354 68"/>
    <polygon class="st1" points="361.1 70.9 361.1 72.8 364.6 72.8 364.6 75.3 361.1 75.3 361.1 77.4 366.5 77.4 366.5 80.5 357.9 80.5 357.9 68 366.5 68 366.5 70.9 361.1 70.9"/>
    <path class="st1" d="M375.7,76.1h-1.3v4.4h-3.3v-12.3h6c2.5,0,4.4,1.7,4.4,4.2s-1,2.9-2.1,3.7l2.9,4.8h-3.7l-2.5-4.4h-.4v-.4h0ZM374.4,73.2h2.5c1,0,1.3-.6,1.3-1.2s-.4-1.2-1.3-1.2h-2.5v2.5h0v-.2Z"/>
    <polygon class="st1" points="396.9 68 396.9 80.5 394.2 80.5 389.4 73.8 389.4 80.5 386.1 80.5 386.1 68 388.8 68 393.6 74.5 393.6 68 396.9 68"/>
    <path class="st1" d="M401.3,74.1c0-3.7,2.9-6.3,6.3-6.3s6.3,2.9,6.3,6.3-2.9,6.3-6.3,6.3-6.3-2.9-6.3-6.3M410.5,74.1c0-1.7-1.3-3.1-2.9-3.1s-3.1,1.3-3.1,3.1,1.3,3.1,3.1,3.1,2.9-1.3,2.9-3.1"/>
  </g>
  <g>
    <path class="st1" d="M441.1,74.1c0,3.5-2.9,6.2-6.3,6.2h-5v-12.3h5c3.7,0,6.3,2.7,6.3,6.2M437.8,74.1c0-1.7-1.3-3.1-3.3-3.1h-1.5v6h1.5c1.9,0,3.3-1.2,3.3-3.1"/>
    <path class="st1" d="M444.2,74.1c0-3.7,2.9-6.3,6.3-6.3s6.3,2.9,6.3,6.3-2.9,6.3-6.3,6.3-6.3-2.9-6.3-6.3M453.6,74.1c0-1.7-1.3-3.1-2.9-3.1s-3.1,1.3-3.1,3.1,1.3,3.1,3.1,3.1,2.9-1.3,2.9-3.1"/>
  </g>
  <g>
    <path class="st4" d="M392.5,158.4c0-13.1-10.6-23.6-23.6-23.6s-23.6,10.6-23.6,23.6h47.3Z"/>
    <polygon class="st0" points="325.9 132.8 300.6 93.8 300.6 132.8 325.9 132.8"/>
    <rect class="st0" x="251.9" y="119.7" width="22.3" height="38.6"/>
    <rect class="st0" x="470.9" y="93.8" width="22.3" height="42.9"/>
    <rect class="st4" x="493.2" y="136.8" width="22.3" height="21.7"/>
    <polygon class="st3" points="330.4 158.4 336.1 148.6 325.9 132.8 300.6 132.8 300.6 158.4 330.4 158.4"/>
    <rect class="st3" x="444.8" y="93.8" width="22.3" height="64.4"/>
    <path class="st4" d="M279.2,93.8h-5.2v26h5.2c6.9,0,12.9-6,12.9-12.9s-6-12.9-12.9-12.9"/>
    <rect class="st4" x="416.9" y="93.8" width="24" height="23.5"/>
    <path class="st0" d="M424.4,117.4h-7.3v41.1h7.3c11.3,0,20.6-9.2,20.6-20.6s-9.2-20.6-20.6-20.6"/>
    <path class="st3" d="M410.3,93.8c-7.9,0-14.4,6.3-14.4,14.4s6.3,14.4,14.4,14.4h6.5v-28.8s-6.5,0-6.5,0Z"/>
    <path class="st5" d="M281.3,119.7h-7.3v38.6h7.3c10.8,0,19.2-8.5,19.2-19.2s-8.5-19.2-19.2-19.2"/>
    <path class="st4" d="M325.9,93.8h-25.4l25.4,38.8c10.8,0,19.4-8.7,19.4-19.4s-8.7-19.4-19.4-19.4"/>
    <rect class="st3" x="251.9" y="93.8" width="22.3" height="26"/>
    <polygon class="st5" points="395.9 122.6 395.9 139.7 407.1 158.4 416.9 158.4 416.9 122.6 395.9 122.6"/>
    <polygon class="st2" points="395.9 139.7 395.9 158.4 407.1 158.4 395.9 139.7"/>
    <rect class="st2" x="470.9" y="136.8" width="22.3" height="21.7"/>
    <polygon class="st2" points="330.4 158.4 342.5 158.4 336.1 148.6 330.4 158.4"/>
    <path class="st0" d="M395.9,158.4v-18.6l-27.3-45.8-32.5,54.6,6.3,9.8h2.7c0-13.1,10.6-23.6,23.6-23.6s23.6,10.6,23.6,23.6h3.7-.2Z"/>
  </g>
  <g>
    <polygon class="st1" points="45.1 118.6 45.1 109.5 41.4 116.3 40.3 116.3 36.4 109.5 36.4 118.6 34.5 118.6 34.5 105.5 36.6 105.5 41 113.6 45.1 105.5 47.4 105.5 47.4 118.6 45.1 118.6"/>
    <rect class="st1" x="53.9" y="105.5" width="2.1" height="12.9"/>
    <polygon class="st1" points="64.7 109.5 64.7 118.6 62.6 118.6 62.6 105.5 64.1 105.5 71.6 115.1 71.6 105.7 73.5 105.7 73.5 118.6 71.8 118.6 64.7 109.5"/>
    <rect class="st1" x="80.1" y="105.5" width="2.1" height="12.9"/>
    <path class="st1" d="M96.6,108.8s-1-.6-1.5-1c-.6,0-1.3-.4-2.1-.4s-1.5,0-1.9.4c-.4,0-.6.6-.6,1.3s0,.4,0,.4v.4h3.1c.6,0,1.2,0,1.5.4.4,0,1,0,1.2.4.4,0,.6.4,1,.6s.4.6.6,1v2.7c0,.4-.4,1-.6,1.2,0,0-.6.4-1.2.6-.4,0-1,.4-1.3.4h-1.5c-1.2,0-1.9,0-2.9-.4-1,0-1.7-.6-2.7-1.3l1-1.7c.4.4,1.2,1,1.9,1.2,1,.4,1.7.6,2.7.6s1.5,0,1.9-.4c.4,0,.6-.6.6-1.3v-.6s0-.4-.4-.4c0,0-.4,0-.4-.4h-2.7c-.6,0-1.3-.4-1.7-.6-.4,0-1-.4-1.2-.6-.4,0-.6-.6-.6-1v-1.3c0-.4,0-1.3.4-1.7,0-.4.6-1,1.2-1.3.4,0,1-.6,1.5-.6h1.9c1.5,0,3.1.4,4.4,1.5l-1,1.7v.4h-.6Z"/>
    <polygon class="st1" points="112.9 107.6 108.7 107.6 108.7 118.6 106.6 118.6 106.6 107.6 102.2 107.6 102.2 105.7 112.9 105.7 112.9 107.6"/>
    <path class="st1" d="M127.2,116.6v1.7h-8.7v-12.9h8.7v1.7h-6.5v3.7h6v1.7h-6v3.8h6.7-.2v.2ZM123.5,104.1l-1.3-.4,1.2-1.9h1.9l-1.7,2.5v-.2Z"/>
    <path class="st1" d="M132.9,118.6v-12.9h5.8c.6,0,1.2,0,1.5.4.4,0,1,.6,1.3,1.2s.6,1,1,1.3v1.5c0,1,0,1.7-.6,2.5-.4.6-1.2,1.3-1.9,1.5l3.1,5h-2.5l-2.9-4.6h-3.1v4.6h-2.1.4v-.6ZM135,112.4h3.7c.6,0,1.2,0,1.3-.6.4-.4.6-1.2.6-1.7s0-1.3-.6-1.7c-.4-.4-1-.6-1.5-.6h-3.5v5h0v-.4Z"/>
    <rect class="st1" x="148.5" y="105.5" width="2.1" height="12.9"/>
    <path class="st1" d="M156.6,112.4c0-1,0-1.7.4-2.7,0-1,.6-1.5,1.3-2.1s1.3-1.2,1.9-1.5c1-.4,1.5-.6,2.7-.6s1.7,0,2.7.6c1,.4,1.5,1,1.9,1.5s1,1.3,1.3,2.1c0,1,.4,1.5.4,2.5s0,1.7-.4,2.7c0,1-.6,1.5-1.3,2.1s-1.3,1.2-1.9,1.5c-1,.4-1.5.6-2.7.6s-1.5,0-2.1-.4c-.6,0-1.3-.6-1.7-1.2s-1-1-1.3-1.5-.6-1.2-1-1.7v-1.9M162.7,116.8c.6,0,1.3,0,1.7-.4.6,0,1.2-.6,1.3-1.2.4-.4.6-1,1-1.5v-3.5c0-.6-.4-1.2-1-1.5s-1-1-1.3-1.2c-.4,0-1.2-.4-1.7-.4s-1.3,0-1.7.4c-.4,0-1.2.6-1.3,1.2-.4.4-.6,1-1,1.5v1.7c0,.6,0,1.5.4,2.5.4.6,1,1.3,1.5,1.7s1.3.6,2.1.6"/>
    <path class="st1" d="M182.5,118.6v-12.9h4.6c1.2,0,1.9,0,2.9.4s1.5,1,1.9,1.3c.4.6,1,1.3,1.2,2.1s.4,1.7.4,2.7c0,1.9-.6,3.5-1.7,4.8s-2.7,1.7-4.6,1.7h-4.6v-.2ZM187.3,107.6h-2.7v9.2h2.7c1,0,1.7,0,2.5-.6.6-.4,1.2-1.2,1.5-1.7s.4-1.5.4-2.5-.4-2.7-1.2-3.5c-1-1-1.7-1.3-3.1-1.3"/>
    <path class="st1" d="M202.7,105.5h1.9l5,12.9h-2.1l-1.3-3.5h-5l-1.3,3.5h-2.1l5.2-12.9h-.2ZM205.8,113.6l-2.1-5.8-2.1,5.8h4.4-.2Z"/>
    <path class="st1" d="M143.7,135.5h-.6s-.6,0-1-.4h-1.7c-.6,0-1.2,0-1.2.6s0,0,0,0h2.5c.4,0,1.2,0,1.3.4.4,0,.6.4,1.2.6s.6.4,1,.6c0,0,.4.6.4,1.2v3.1c0,.4-.4,1-1,1.2,0,0-.6.6-1.2,1-.4,0-1,.4-1.3.4h-1.5c-1,0-1.9,0-3.1-.4-1.2,0-1.9-.6-2.9-1.2l1.5-3.3h0l.6.4s.6,0,1,.4c0,0,.6,0,1.2.4h1.3c.6,0,1.2,0,1.2-.6s0,0,0-.4h-2.9c-1.2-.4-1.9-1-2.7-1.5-.4-.6-1-1.3-1-2.1s0-1.3.4-1.9c0-.6.6-1.2,1.2-1.3.4-.4,1-.6,1.5-1h1.9c1.3,0,3.1.4,5,1.5l-1.5,3.1v.6-1.3l.4.2Z"/>
    <path class="st1" d="M153.3,131.2h4.2l4.2,12.9h-3.7l-1-2.7h-3.5l-1,2.7h-3.7l4.2-12.9h.2-.2ZM156.6,139.3l-1.2-4.6-1.3,4.6h2.5Z"/>
    <path class="st1" d="M171.2,144.5c-1,0-1.5,0-2.1-.4-.6,0-1.3-.6-1.7-1-.4-.4-1-1-1.2-1.5s-.4-1.2-.6-1.7v-8.5h3.7v7.9c0,.4,0,.6.4,1.2,0,0,.4.6.6.6h2.1s.6-.4.6-.6,0-.6.4-1.2v-7.9h3.7v6.5c0,1,0,1.7-.4,2.7,0,1-.6,1.5-1.2,1.9-.4.6-1.2,1.2-1.9,1.3-1,.4-1.7.4-2.7.4M172.3,130.7l-2.1-.6,1-2.7h3.1l-1.7,3.3h-.2Z"/>
    <path class="st1" d="M182.9,144.1v-12.9h5c1.2,0,1.9,0,2.9.4s1.5,1,2.1,1.3c.4.6,1,1.3,1.3,2.1,0,1,.4,1.7.4,2.7,0,1.9-.6,3.5-1.7,4.8-1.3,1.3-2.9,1.7-4.8,1.7h-5.2v-.2ZM187.9,134.3h-1.5v6.5h1.5c1,0,1.7,0,2.1-1,.4-.6,1-1.5,1-2.5s0-1.7-1-2.5c-.4-.6-1.3-1-2.1-1"/>
    <polygon class="st1" points="208.7 141.2 208.7 144.1 199.4 144.1 199.4 131.2 208.7 131.2 208.7 134.3 203.1 134.3 203.1 136.4 207.7 136.4 207.7 139.1 203.1 139.1 203.1 141.2 208.7 141.2"/>
  </g>
</svg>