<?xml version="1.0" encoding="UTF-8"?>
<svg id="Layer_1" xmlns="http://www.w3.org/2000/svg" version="1.1" viewBox="0 0 672 230">
  <!-- Generator: Adobe Illustrator 29.6.1, SVG Export Plug-In . SVG Version: 2.1.1 Build 9)  -->
  <defs>
    <style>
      .st0 {
        fill: #ebb41a;
      }
    </style>
  </defs>
  <g>
    <path class="st0" d="M32.9,13.7c0,.7-.6,1.2-1.2,1.2h0c-.7,0-1.2-.6-1.2-1.2h0c0-.7.6-1.2,1.2-1.2h0c.7,0,1.2.6,1.2,1.2Z"/>
    <path class="st0" d="M34.1,36.4c0,1.4-1.1,2.5-2.5,2.5h0c-1.4,0-2.5-1.1-2.5-2.5h0c0-1.4,1.1-2.5,2.5-2.5h0c1.4,0,2.5,1.1,2.5,2.5Z"/>
    <path class="st0" d="M32.9,59.2c0,.7-.6,1.2-1.2,1.2h0c-.7,0-1.2-.6-1.2-1.2h0c0-.7.6-1.2,1.2-1.2h0c.7,0,1.2.6,1.2,1.2Z"/>
    <path class="st0" d="M54.3-9.1c0,.7-.6,1.2-1.2,1.2h0c-.7,0-1.2-.6-1.2-1.2h0c0-.7.6-1.2,1.2-1.2h0c.7,0,1.2.6,1.2,1.2Z"/>
    <path class="st0" d="M54.3,13.7c0,.7-.6,1.2-1.2,1.2h0c-.7,0-1.2-.6-1.2-1.2h0c0-.7.6-1.2,1.2-1.2h0c.7,0,1.2.6,1.2,1.2Z"/>
    <path class="st0" d="M54.3,36.4c0,.7-.6,1.2-1.2,1.2h0c-.7,0-1.2-.6-1.2-1.2h0c0-.7.6-1.2,1.2-1.2h0c.7,0,1.2.6,1.2,1.2Z"/>
    <path class="st0" d="M54.3,59.2c0,.7-.6,1.2-1.2,1.2h0c-.7,0-1.2-.6-1.2-1.2h0c0-.7.6-1.2,1.2-1.2h0c.7,0,1.2.6,1.2,1.2Z"/>
    <path class="st0" d="M79.3-9.1c0,2.7-2.2,5-5,5h0c-2.7,0-5-2.2-5-5h0c0-2.7,2.2-5,5-5h0c2.7,0,5,2.2,5,5Z"/>
    <path class="st0" d="M78.7,13.7c0,2.4-1.9,4.3-4.3,4.3h0c-2.4,0-4.3-1.9-4.3-4.3h0c0-2.4,1.9-4.3,4.3-4.3h0c2.4,0,4.3,1.9,4.3,4.3Z"/>
    <path class="st0" d="M75.6,36.4c0,.7-.6,1.2-1.2,1.2h0c-.7,0-1.2-.6-1.2-1.2h0c0-.7.6-1.2,1.2-1.2h0c.7,0,1.2.6,1.2,1.2Z"/>
    <path class="st0" d="M75.6,59.2c0,.7-.6,1.2-1.2,1.2h0c-.7,0-1.2-.6-1.2-1.2h0c0-.7.6-1.2,1.2-1.2h0c.7,0,1.2.6,1.2,1.2Z"/>
    <path class="st0" d="M97-31.8c0,.7-.6,1.2-1.2,1.2h0c-.7,0-1.2-.6-1.2-1.2h0c0-.7.6-1.2,1.2-1.2h0c.7,0,1.2.6,1.2,1.2Z"/>
    <path class="st0" d="M99.2-9.1c0,1.9-1.5,3.4-3.4,3.4h0c-1.9,0-3.4-1.5-3.4-3.4h0c0-1.9,1.5-3.4,3.4-3.4h0c1.9,0,3.4,1.5,3.4,3.4Z"/>
    <path class="st0" d="M97,13.7c0,.7-.6,1.2-1.2,1.2h0c-.7,0-1.2-.6-1.2-1.2h0c0-.7.6-1.2,1.2-1.2h0c.7,0,1.2.6,1.2,1.2Z"/>
    <path class="st0" d="M97,36.4c0,.7-.6,1.2-1.2,1.2h0c-.7,0-1.2-.6-1.2-1.2h0c0-.7.6-1.2,1.2-1.2h0c.7,0,1.2.6,1.2,1.2Z"/>
    <path class="st0" d="M97.6,59.2c0,1-.8,1.9-1.9,1.9h0c-1,0-1.9-.8-1.9-1.9h0c0-1,.8-1.9,1.9-1.9h0c1,0,1.9.8,1.9,1.9Z"/>
    <path class="st0" d="M97,81.9c0,.7-.6,1.2-1.2,1.2h0c-.7,0-1.2-.6-1.2-1.2h0c0-.7.6-1.2,1.2-1.2h0c.7,0,1.2.6,1.2,1.2Z"/>
    <path class="st0" d="M118.3-9.1c0,.7-.6,1.2-1.2,1.2h0c-.7,0-1.2-.6-1.2-1.2h0c0-.7.6-1.2,1.2-1.2h0c.7,0,1.2.6,1.2,1.2Z"/>
    <path class="st0" d="M118.3,13.7c0,.7-.6,1.2-1.2,1.2h0c-.7,0-1.2-.6-1.2-1.2h0c0-.7.6-1.2,1.2-1.2h0c.7,0,1.2.6,1.2,1.2Z"/>
    <path class="st0" d="M119.6,36.4c0,1.4-1.1,2.5-2.5,2.5h0c-1.4,0-2.5-1.1-2.5-2.5h0c0-1.4,1.1-2.5,2.5-2.5h0c1.4,0,2.5,1.1,2.5,2.5Z"/>
    <path class="st0" d="M118.3,59.2c0,.7-.6,1.2-1.2,1.2h0c-.7,0-1.2-.6-1.2-1.2h0c0-.7.6-1.2,1.2-1.2h0c.7,0,1.2.6,1.2,1.2Z"/>
    <path class="st0" d="M118.3,81.9c0,.7-.6,1.2-1.2,1.2h0c-.7,0-1.2-.6-1.2-1.2h0c0-.7.6-1.2,1.2-1.2h0c.7,0,1.2.6,1.2,1.2Z"/>
    <path class="st0" d="M139.7-31.8c0,.7-.6,1.2-1.2,1.2h0c-.7,0-1.2-.6-1.2-1.2h0c0-.7.6-1.2,1.2-1.2h0c.7,0,1.2.6,1.2,1.2Z"/>
    <path class="st0" d="M139.7-9.1c0,.7-.6,1.2-1.2,1.2h0c-.7,0-1.2-.6-1.2-1.2h0c0-.7.6-1.2,1.2-1.2h0c.7,0,1.2.6,1.2,1.2Z"/>
    <path class="st0" d="M139.7,13.7c0,.7-.6,1.2-1.2,1.2h0c-.7,0-1.2-.6-1.2-1.2h0c0-.7.6-1.2,1.2-1.2h0c.7,0,1.2.6,1.2,1.2Z"/>
    <path class="st0" d="M139.7,36.4c0,.7-.6,1.2-1.2,1.2h0c-.7,0-1.2-.6-1.2-1.2h0c0-.7.6-1.2,1.2-1.2h0c.7,0,1.2.6,1.2,1.2Z"/>
    <path class="st0" d="M139.7,59.2c0,.7-.6,1.2-1.2,1.2h0c-.7,0-1.2-.6-1.2-1.2h0c0-.7.6-1.2,1.2-1.2h0c.7,0,1.2.6,1.2,1.2Z"/>
    <path class="st0" d="M139.7,81.9c0,.7-.6,1.2-1.2,1.2h0c-.7,0-1.2-.6-1.2-1.2h0c0-.7.6-1.2,1.2-1.2h0c.7,0,1.2.6,1.2,1.2Z"/>
    <path class="st0" d="M161.1-31.8c0,.7-.6,1.2-1.2,1.2h0c-.7,0-1.2-.6-1.2-1.2h0c0-.7.6-1.2,1.2-1.2h0c.7,0,1.2.6,1.2,1.2Z"/>
    <path class="st0" d="M162.9-9.1c0,1.7-1.4,3.1-3.1,3.1h0c-1.7,0-3.1-1.4-3.1-3.1h0c0-1.7,1.4-3.1,3.1-3.1h0c1.7,0,3.1,1.4,3.1,3.1Z"/>
    <path class="st0" d="M161.1,13.7c0,.7-.6,1.2-1.2,1.2h0c-.7,0-1.2-.6-1.2-1.2h0c0-.7.6-1.2,1.2-1.2h0c.7,0,1.2.6,1.2,1.2Z"/>
    <path class="st0" d="M161.7,36.4c0,1-.8,1.9-1.9,1.9h0c-1,0-1.9-.8-1.9-1.9h0c0-1,.8-1.9,1.9-1.9h0c1,0,1.9.8,1.9,1.9Z"/>
    <path class="st0" d="M161.1,59.2c0,.7-.6,1.2-1.2,1.2h0c-.7,0-1.2-.6-1.2-1.2h0c0-.7.6-1.2,1.2-1.2h0c.7,0,1.2.6,1.2,1.2Z"/>
    <path class="st0" d="M161.1,81.9c0,.7-.6,1.2-1.2,1.2h0c-.7,0-1.2-.6-1.2-1.2h0c0-.7.6-1.2,1.2-1.2h0c.7,0,1.2.6,1.2,1.2Z"/>
    <path class="st0" d="M182.4-9.1c0,.7-.6,1.2-1.2,1.2h0c-.7,0-1.2-.6-1.2-1.2h0c0-.7.6-1.2,1.2-1.2h0c.7,0,1.2.6,1.2,1.2Z"/>
    <path class="st0" d="M182.4,13.7c0,.7-.6,1.2-1.2,1.2h0c-.7,0-1.2-.6-1.2-1.2h0c0-.7.6-1.2,1.2-1.2h0c.7,0,1.2.6,1.2,1.2Z"/>
    <path class="st0" d="M183.4,36.4c0,1.2-1,2.2-2.2,2.2h0c-1.2,0-2.2-1-2.2-2.2h0c0-1.2,1-2.2,2.2-2.2h0c1.2,0,2.2,1,2.2,2.2Z"/>
    <path class="st0" d="M182.4,59.2c0,.7-.6,1.2-1.2,1.2h0c-.7,0-1.2-.6-1.2-1.2h0c0-.7.6-1.2,1.2-1.2h0c.7,0,1.2.6,1.2,1.2Z"/>
    <path class="st0" d="M203.8-31.8c0,.7-.6,1.2-1.2,1.2h0c-.7,0-1.2-.6-1.2-1.2h0c0-.7.6-1.2,1.2-1.2h0c.7,0,1.2.6,1.2,1.2Z"/>
    <path class="st0" d="M203.8-9.1c0,.7-.6,1.2-1.2,1.2h0c-.7,0-1.2-.6-1.2-1.2h0c0-.7.6-1.2,1.2-1.2h0c.7,0,1.2.6,1.2,1.2Z"/>
    <path class="st0" d="M203.8,13.7c0,.7-.6,1.2-1.2,1.2h0c-.7,0-1.2-.6-1.2-1.2h0c0-.7.6-1.2,1.2-1.2h0c.7,0,1.2.6,1.2,1.2Z"/>
    <path class="st0" d="M225.2-9.1c0,.7-.6,1.2-1.2,1.2h0c-.7,0-1.2-.6-1.2-1.2h0c0-.7.6-1.2,1.2-1.2h0c.7,0,1.2.6,1.2,1.2Z"/>
    <path class="st0" d="M-9.8,13.7c0,.7-.6,1.2-1.2,1.2h0c-.7,0-1.2-.6-1.2-1.2h0c0-.7.6-1.2,1.2-1.2h0c.7,0,1.2.6,1.2,1.2Z"/>
    <path class="st0" d="M-9.8,36.4c0,.7-.6,1.2-1.2,1.2h0c-.7,0-1.2-.6-1.2-1.2h0c0-.7.6-1.2,1.2-1.2h0c.7,0,1.2.6,1.2,1.2Z"/>
    <path class="st0" d="M-9.8,59.2c0,.7-.6,1.2-1.2,1.2h0c-.7,0-1.2-.6-1.2-1.2h0c0-.7.6-1.2,1.2-1.2h0c.7,0,1.2.6,1.2,1.2Z"/>
    <path class="st0" d="M-9.8,81.9c0,.7-.6,1.2-1.2,1.2h0c-.7,0-1.2-.6-1.2-1.2h0c0-.7.6-1.2,1.2-1.2h0c.7,0,1.2.6,1.2,1.2Z"/>
    <path class="st0" d="M12.5,13.7c0,1.2-1,2.2-2.2,2.2h0c-1.2,0-2.2-1-2.2-2.2h0c0-1.2,1-2.2,2.2-2.2h0c1.2,0,2.2,1,2.2,2.2Z"/>
    <path class="st0" d="M12.5,36.4c0,1.2-1,2.2-2.2,2.2h0c-1.2,0-2.2-1-2.2-2.2h0c0-1.2,1-2.2,2.2-2.2h0c1.2,0,2.2,1,2.2,2.2Z"/>
    <path class="st0" d="M11.5,59.2c0,.7-.6,1.2-1.2,1.2h0c-.7,0-1.2-.6-1.2-1.2h0c0-.7.6-1.2,1.2-1.2h0c.7,0,1.2.6,1.2,1.2Z"/>
    <path class="st0" d="M11.5,81.9c0,.7-.6,1.2-1.2,1.2h0c-.7,0-1.2-.6-1.2-1.2h0c0-.7.6-1.2,1.2-1.2h0c.7,0,1.2.6,1.2,1.2Z"/>
  </g>
  <g>
    <path class="st0" d="M388.1,36.5c0-.7.6-1.2,1.2-1.2h0c.7,0,1.2.6,1.2,1.2h0c0,.7-.6,1.2-1.2,1.2h0c-.7,0-1.2-.6-1.2-1.2Z"/>
    <path class="st0" d="M386.9,13.8c0-1.4,1.1-2.5,2.5-2.5h0c1.4,0,2.5,1.1,2.5,2.5h0c0,1.4-1.1,2.5-2.5,2.5h0c-1.4,0-2.5-1.1-2.5-2.5Z"/>
    <path class="st0" d="M388.1-9c0-.7.6-1.2,1.2-1.2h0c.7,0,1.2.6,1.2,1.2h0c0,.7-.6,1.2-1.2,1.2h0c-.7,0-1.2-.6-1.2-1.2Z"/>
    <path class="st0" d="M366.8,59.3c0-.7.6-1.2,1.2-1.2h0c.7,0,1.2.6,1.2,1.2h0c0,.7-.6,1.2-1.2,1.2h0c-.7,0-1.2-.6-1.2-1.2Z"/>
    <path class="st0" d="M366.8,36.5c0-.7.6-1.2,1.2-1.2h0c.7,0,1.2.6,1.2,1.2h0c0,.7-.6,1.2-1.2,1.2h0c-.7,0-1.2-.6-1.2-1.2Z"/>
    <path class="st0" d="M366.8,13.8c0-.7.6-1.2,1.2-1.2h0c.7,0,1.2.6,1.2,1.2h0c0,.7-.6,1.2-1.2,1.2h0c-.7,0-1.2-.6-1.2-1.2Z"/>
    <path class="st0" d="M366.8-9c0-.7.6-1.2,1.2-1.2h0c.7,0,1.2.6,1.2,1.2h0c0,.7-.6,1.2-1.2,1.2h0c-.7,0-1.2-.6-1.2-1.2Z"/>
    <path class="st0" d="M341.7,59.3c0-2.7,2.2-5,5-5h0c2.7,0,5,2.2,5,5h0c0,2.7-2.2,5-5,5h0c-2.7,0-5-2.2-5-5Z"/>
    <path class="st0" d="M342.3,36.5c0-2.4,1.9-4.3,4.3-4.3h0c2.4,0,4.3,1.9,4.3,4.3h0c0,2.4-1.9,4.3-4.3,4.3h0c-2.4,0-4.3-1.9-4.3-4.3Z"/>
    <path class="st0" d="M345.4,13.8c0-.7.6-1.2,1.2-1.2h0c.7,0,1.2.6,1.2,1.2h0c0,.7-.6,1.2-1.2,1.2h0c-.7,0-1.2-.6-1.2-1.2Z"/>
    <path class="st0" d="M345.4-9c0-.7.6-1.2,1.2-1.2h0c.7,0,1.2.6,1.2,1.2h0c0,.7-.6,1.2-1.2,1.2h0c-.7,0-1.2-.6-1.2-1.2Z"/>
    <path class="st0" d="M324,82c0-.7.6-1.2,1.2-1.2h0c.7,0,1.2.6,1.2,1.2h0c0,.7-.6,1.2-1.2,1.2h0c-.7,0-1.2-.6-1.2-1.2Z"/>
    <path class="st0" d="M321.9,59.3c0-1.9,1.5-3.4,3.4-3.4h0c1.9,0,3.4,1.5,3.4,3.4h0c0,1.9-1.5,3.4-3.4,3.4h0c-1.9,0-3.4-1.5-3.4-3.4Z"/>
    <path class="st0" d="M324,36.5c0-.7.6-1.2,1.2-1.2h0c.7,0,1.2.6,1.2,1.2h0c0,.7-.6,1.2-1.2,1.2h0c-.7,0-1.2-.6-1.2-1.2Z"/>
    <path class="st0" d="M324,13.8c0-.7.6-1.2,1.2-1.2h0c.7,0,1.2.6,1.2,1.2h0c0,.7-.6,1.2-1.2,1.2h0c-.7,0-1.2-.6-1.2-1.2Z"/>
    <path class="st0" d="M323.4-9c0-1,.8-1.9,1.9-1.9h0c1,0,1.9.8,1.9,1.9h0c0,1-.8,1.9-1.9,1.9h0c-1,0-1.9-.8-1.9-1.9Z"/>
    <path class="st0" d="M324-31.7c0-.7.6-1.2,1.2-1.2h0c.7,0,1.2.6,1.2,1.2h0c0,.7-.6,1.2-1.2,1.2h0c-.7,0-1.2-.6-1.2-1.2Z"/>
    <path class="st0" d="M302.7,59.3c0-.7.6-1.2,1.2-1.2h0c.7,0,1.2.6,1.2,1.2h0c0,.7-.6,1.2-1.2,1.2h0c-.7,0-1.2-.6-1.2-1.2Z"/>
    <path class="st0" d="M302.7,36.5c0-.7.6-1.2,1.2-1.2h0c.7,0,1.2.6,1.2,1.2h0c0,.7-.6,1.2-1.2,1.2h0c-.7,0-1.2-.6-1.2-1.2Z"/>
    <path class="st0" d="M301.4,13.8c0-1.4,1.1-2.5,2.5-2.5h0c1.4,0,2.5,1.1,2.5,2.5h0c0,1.4-1.1,2.5-2.5,2.5h0c-1.4,0-2.5-1.1-2.5-2.5Z"/>
    <path class="st0" d="M302.7-9c0-.7.6-1.2,1.2-1.2h0c.7,0,1.2.6,1.2,1.2h0c0,.7-.6,1.2-1.2,1.2h0c-.7,0-1.2-.6-1.2-1.2Z"/>
    <path class="st0" d="M302.7-31.7c0-.7.6-1.2,1.2-1.2h0c.7,0,1.2.6,1.2,1.2h0c0,.7-.6,1.2-1.2,1.2h0c-.7,0-1.2-.6-1.2-1.2Z"/>
    <path class="st0" d="M281.3,82c0-.7.6-1.2,1.2-1.2h0c.7,0,1.2.6,1.2,1.2h0c0,.7-.6,1.2-1.2,1.2h0c-.7,0-1.2-.6-1.2-1.2Z"/>
    <path class="st0" d="M281.3,59.3c0-.7.6-1.2,1.2-1.2h0c.7,0,1.2.6,1.2,1.2h0c0,.7-.6,1.2-1.2,1.2h0c-.7,0-1.2-.6-1.2-1.2Z"/>
    <path class="st0" d="M281.3,36.5c0-.7.6-1.2,1.2-1.2h0c.7,0,1.2.6,1.2,1.2h0c0,.7-.6,1.2-1.2,1.2h0c-.7,0-1.2-.6-1.2-1.2Z"/>
    <path class="st0" d="M281.3,13.8c0-.7.6-1.2,1.2-1.2h0c.7,0,1.2.6,1.2,1.2h0c0,.7-.6,1.2-1.2,1.2h0c-.7,0-1.2-.6-1.2-1.2Z"/>
    <path class="st0" d="M281.3-9c0-.7.6-1.2,1.2-1.2h0c.7,0,1.2.6,1.2,1.2h0c0,.7-.6,1.2-1.2,1.2h0c-.7,0-1.2-.6-1.2-1.2Z"/>
    <path class="st0" d="M281.3-31.7c0-.7.6-1.2,1.2-1.2h0c.7,0,1.2.6,1.2,1.2h0c0,.7-.6,1.2-1.2,1.2h0c-.7,0-1.2-.6-1.2-1.2Z"/>
    <path class="st0" d="M259.9,82c0-.7.6-1.2,1.2-1.2h0c.7,0,1.2.6,1.2,1.2h0c0,.7-.6,1.2-1.2,1.2h0c-.7,0-1.2-.6-1.2-1.2Z"/>
    <path class="st0" d="M258.1,59.3c0-1.7,1.4-3.1,3.1-3.1h0c1.7,0,3.1,1.4,3.1,3.1h0c0,1.7-1.4,3.1-3.1,3.1h0c-1.7,0-3.1-1.4-3.1-3.1Z"/>
    <path class="st0" d="M259.9,36.5c0-.7.6-1.2,1.2-1.2h0c.7,0,1.2.6,1.2,1.2h0c0,.7-.6,1.2-1.2,1.2h0c-.7,0-1.2-.6-1.2-1.2Z"/>
    <path class="st0" d="M259.3,13.8c0-1,.8-1.9,1.9-1.9h0c1,0,1.9.8,1.9,1.9h0c0,1-.8,1.9-1.9,1.9h0c-1,0-1.9-.8-1.9-1.9Z"/>
    <path class="st0" d="M259.9-9c0-.7.6-1.2,1.2-1.2h0c.7,0,1.2.6,1.2,1.2h0c0,.7-.6,1.2-1.2,1.2h0c-.7,0-1.2-.6-1.2-1.2Z"/>
    <path class="st0" d="M259.9-31.7c0-.7.6-1.2,1.2-1.2h0c.7,0,1.2.6,1.2,1.2h0c0,.7-.6,1.2-1.2,1.2h0c-.7,0-1.2-.6-1.2-1.2Z"/>
    <path class="st0" d="M238.6,59.3c0-.7.6-1.2,1.2-1.2h0c.7,0,1.2.6,1.2,1.2h0c0,.7-.6,1.2-1.2,1.2h0c-.7,0-1.2-.6-1.2-1.2Z"/>
    <path class="st0" d="M238.6,36.5c0-.7.6-1.2,1.2-1.2h0c.7,0,1.2.6,1.2,1.2h0c0,.7-.6,1.2-1.2,1.2h0c-.7,0-1.2-.6-1.2-1.2Z"/>
    <path class="st0" d="M237.6,13.8c0-1.2,1-2.2,2.2-2.2h0c1.2,0,2.2,1,2.2,2.2h0c0,1.2-1,2.2-2.2,2.2h0c-1.2,0-2.2-1-2.2-2.2Z"/>
    <path class="st0" d="M238.6-9c0-.7.6-1.2,1.2-1.2h0c.7,0,1.2.6,1.2,1.2h0c0,.7-.6,1.2-1.2,1.2h0c-.7,0-1.2-.6-1.2-1.2Z"/>
    <path class="st0" d="M217.2,82c0-.7.6-1.2,1.2-1.2h0c.7,0,1.2.6,1.2,1.2h0c0,.7-.6,1.2-1.2,1.2h0c-.7,0-1.2-.6-1.2-1.2Z"/>
    <path class="st0" d="M217.2,59.3c0-.7.6-1.2,1.2-1.2h0c.7,0,1.2.6,1.2,1.2h0c0,.7-.6,1.2-1.2,1.2h0c-.7,0-1.2-.6-1.2-1.2Z"/>
    <path class="st0" d="M217.2,36.5c0-.7.6-1.2,1.2-1.2h0c.7,0,1.2.6,1.2,1.2h0c0,.7-.6,1.2-1.2,1.2h0c-.7,0-1.2-.6-1.2-1.2Z"/>
    <path class="st0" d="M195.9,59.3c0-.7.6-1.2,1.2-1.2h0c.7,0,1.2.6,1.2,1.2h0c0,.7-.6,1.2-1.2,1.2h0c-.7,0-1.2-.6-1.2-1.2Z"/>
    <path class="st0" d="M430.8,36.5c0-.7.6-1.2,1.2-1.2h0c.7,0,1.2.6,1.2,1.2h0c0,.7-.6,1.2-1.2,1.2h0c-.7,0-1.2-.6-1.2-1.2Z"/>
    <path class="st0" d="M430.8,13.8c0-.7.6-1.2,1.2-1.2h0c.7,0,1.2.6,1.2,1.2h0c0,.7-.6,1.2-1.2,1.2h0c-.7,0-1.2-.6-1.2-1.2Z"/>
    <path class="st0" d="M430.8-9c0-.7.6-1.2,1.2-1.2h0c.7,0,1.2.6,1.2,1.2h0c0,.7-.6,1.2-1.2,1.2h0c-.7,0-1.2-.6-1.2-1.2Z"/>
    <path class="st0" d="M430.8-31.7c0-.7.6-1.2,1.2-1.2h0c.7,0,1.2.6,1.2,1.2h0c0,.7-.6,1.2-1.2,1.2h0c-.7,0-1.2-.6-1.2-1.2Z"/>
    <path class="st0" d="M408.5,36.5c0-1.2,1-2.2,2.2-2.2h0c1.2,0,2.2,1,2.2,2.2h0c0,1.2-1,2.2-2.2,2.2h0c-1.2,0-2.2-1-2.2-2.2Z"/>
    <path class="st0" d="M408.5,13.8c0-1.2,1-2.2,2.2-2.2h0c1.2,0,2.2,1,2.2,2.2h0c0,1.2-1,2.2-2.2,2.2h0c-1.2,0-2.2-1-2.2-2.2Z"/>
    <path class="st0" d="M409.5-9c0-.7.6-1.2,1.2-1.2h0c.7,0,1.2.6,1.2,1.2h0c0,.7-.6,1.2-1.2,1.2h0c-.7,0-1.2-.6-1.2-1.2Z"/>
    <path class="st0" d="M409.5-31.7c0-.7.6-1.2,1.2-1.2h0c.7,0,1.2.6,1.2,1.2h0c0,.7-.6,1.2-1.2,1.2h0c-.7,0-1.2-.6-1.2-1.2Z"/>
  </g>
  <g>
    <path class="st0" d="M548.2,29.6c0-.7.6-1.3,1.3-1.3h0c.7,0,1.3.6,1.3,1.3h0c0,.7-.6,1.3-1.3,1.3h0c-.7,0-1.3-.6-1.3-1.3Z"/>
    <path class="st0" d="M546.9,6.5c0-1.4,1.1-2.5,2.5-2.5h0c1.4,0,2.5,1.1,2.5,2.5h0c0,1.4-1.1,2.5-2.5,2.5h0c-1.4,0-2.5-1.1-2.5-2.5Z"/>
    <path class="st0" d="M548.2-16.6c0-.7.6-1.3,1.3-1.3h0c.7,0,1.3.6,1.3,1.3h0c0,.7-.6,1.3-1.3,1.3h0c-.7,0-1.3-.6-1.3-1.3Z"/>
    <path class="st0" d="M526.5,52.6c0-.7.6-1.3,1.3-1.3h0c.7,0,1.3.6,1.3,1.3h0c0,.7-.6,1.3-1.3,1.3h0c-.7,0-1.3-.6-1.3-1.3Z"/>
    <path class="st0" d="M526.5,29.6c0-.7.6-1.3,1.3-1.3h0c.7,0,1.3.6,1.3,1.3h0c0,.7-.6,1.3-1.3,1.3h0c-.7,0-1.3-.6-1.3-1.3Z"/>
    <path class="st0" d="M526.5,6.5c0-.7.6-1.3,1.3-1.3h0c.7,0,1.3.6,1.3,1.3h0c0,.7-.6,1.3-1.3,1.3h0c-.7,0-1.3-.6-1.3-1.3Z"/>
    <path class="st0" d="M526.5-16.6c0-.7.6-1.3,1.3-1.3h0c.7,0,1.3.6,1.3,1.3h0c0,.7-.6,1.3-1.3,1.3h0c-.7,0-1.3-.6-1.3-1.3Z"/>
    <path class="st0" d="M501,52.6c0-2.8,2.3-5,5-5h0c2.8,0,5,2.2,5,5h0c0,2.8-2.3,5-5,5h0c-2.8,0-5-2.3-5-5Z"/>
    <path class="st0" d="M501.7,29.6c0-2.4,2-4.4,4.4-4.4h0c2.4,0,4.4,2,4.4,4.4h0c0,2.4-2,4.4-4.4,4.4h0c-2.4,0-4.4-2-4.4-4.4Z"/>
    <path class="st0" d="M504.8,6.5c0-.7.6-1.3,1.3-1.3h0c.7,0,1.3.6,1.3,1.3h0c0,.7-.6,1.3-1.3,1.3h0c-.7,0-1.3-.6-1.3-1.3Z"/>
    <path class="st0" d="M504.8-16.6c0-.7.6-1.3,1.3-1.3h0c.7,0,1.3.6,1.3,1.3h0c0,.7-.6,1.3-1.3,1.3h0c-.7,0-1.3-.6-1.3-1.3Z"/>
    <path class="st0" d="M483.2,75.7c0-.7.6-1.3,1.3-1.3h0c.7,0,1.3.6,1.3,1.3h0c0,.7-.6,1.3-1.3,1.3h0c-.7,0-1.3-.6-1.3-1.3Z"/>
    <path class="st0" d="M481,52.6c0-1.9,1.6-3.5,3.5-3.5h0c1.9,0,3.5,1.6,3.5,3.5h0c0,1.9-1.6,3.5-3.5,3.5h0c-1.9,0-3.5-1.6-3.5-3.5Z"/>
    <path class="st0" d="M483.2,29.6c0-.7.6-1.3,1.3-1.3h0c.7,0,1.3.6,1.3,1.3h0c0,.7-.6,1.3-1.3,1.3h0c-.7,0-1.3-.6-1.3-1.3Z"/>
    <path class="st0" d="M483.2,6.5c0-.7.6-1.3,1.3-1.3h0c.7,0,1.3.6,1.3,1.3h0c0,.7-.6,1.3-1.3,1.3h0c-.7,0-1.3-.6-1.3-1.3Z"/>
    <path class="st0" d="M482.5-16.6c0-1,.8-1.9,1.9-1.9h0c1,0,1.9.8,1.9,1.9h0c0,1-.8,1.9-1.9,1.9h0c-1,0-1.9-.9-1.9-1.9Z"/>
    <path class="st0" d="M483.2-39.6c0-.7.6-1.3,1.3-1.3h0c.7,0,1.3.6,1.3,1.3h0c0,.7-.6,1.3-1.3,1.3h0c-.7,0-1.3-.6-1.3-1.3Z"/>
    <path class="st0" d="M461.5,52.6c0-.7.6-1.3,1.3-1.3h0c.7,0,1.3.6,1.3,1.3h0c0,.7-.6,1.3-1.3,1.3h0c-.7,0-1.3-.6-1.3-1.3Z"/>
    <path class="st0" d="M461.5,29.6c0-.7.6-1.3,1.3-1.3h0c.7,0,1.3.6,1.3,1.3h0c0,.7-.6,1.3-1.3,1.3h0c-.7,0-1.3-.6-1.3-1.3Z"/>
    <path class="st0" d="M460.2,6.5c0-1.4,1.1-2.5,2.5-2.5h0c1.4,0,2.5,1.1,2.5,2.5h0c0,1.4-1.1,2.5-2.5,2.5h0c-1.4,0-2.5-1.1-2.5-2.5Z"/>
    <path class="st0" d="M461.5-16.6c0-.7.6-1.3,1.3-1.3h0c.7,0,1.3.6,1.3,1.3h0c0,.7-.6,1.3-1.3,1.3h0c-.7,0-1.3-.6-1.3-1.3Z"/>
    <path class="st0" d="M461.5-39.6c0-.7.6-1.3,1.3-1.3h0c.7,0,1.3.6,1.3,1.3h0c0,.7-.6,1.3-1.3,1.3h0c-.7,0-1.3-.6-1.3-1.3Z"/>
    <path class="st0" d="M591.5,29.6c0-.7.6-1.3,1.3-1.3h0c.7,0,1.3.6,1.3,1.3h0c0,.7-.6,1.3-1.3,1.3h0c-.7,0-1.3-.6-1.3-1.3Z"/>
    <path class="st0" d="M591.5,6.5c0-.7.6-1.3,1.3-1.3h0c.7,0,1.3.6,1.3,1.3h0c0,.7-.6,1.3-1.3,1.3h0c-.7,0-1.3-.6-1.3-1.3Z"/>
    <path class="st0" d="M591.5-16.6c0-.7.6-1.3,1.3-1.3h0c.7,0,1.3.6,1.3,1.3h0c0,.7-.6,1.3-1.3,1.3h0c-.7,0-1.3-.6-1.3-1.3Z"/>
    <path class="st0" d="M591.5-39.6c0-.7.6-1.3,1.3-1.3h0c.7,0,1.3.6,1.3,1.3h0c0,.7-.6,1.3-1.3,1.3h0c-.7,0-1.3-.6-1.3-1.3Z"/>
    <path class="st0" d="M568.9,29.6c0-1.2,1-2.2,2.2-2.2h0c1.2,0,2.2,1,2.2,2.2h0c0,1.2-1,2.2-2.2,2.2h0c-1.2,0-2.2-1-2.2-2.2Z"/>
    <path class="st0" d="M568.9,6.5c0-1.2,1-2.2,2.2-2.2h0c1.2,0,2.2,1,2.2,2.2h0c0,1.2-1,2.2-2.2,2.2h0c-1.2,0-2.2-1-2.2-2.2Z"/>
    <path class="st0" d="M569.8-16.6c0-.7.6-1.3,1.3-1.3h0c.7,0,1.3.6,1.3,1.3h0c0,.7-.6,1.3-1.3,1.3h0c-.7,0-1.3-.6-1.3-1.3Z"/>
    <path class="st0" d="M569.8-39.6c0-.7.6-1.3,1.3-1.3h0c.7,0,1.3.6,1.3,1.3h0c0,.7-.6,1.3-1.3,1.3h0c-.7,0-1.3-.6-1.3-1.3Z"/>
  </g>
</svg>