<?xml version="1.0" encoding="UTF-8"?>
<svg id="Layer_1" xmlns="http://www.w3.org/2000/svg" xmlns:xlink="http://www.w3.org/1999/xlink" version="1.1" viewBox="0 0 672 230">
  <!-- Generator: Adobe Illustrator 29.6.1, SVG Export Plug-In . SVG Version: 2.1.1 Build 9)  -->
  <defs>
    <style>
      .st0 {
        fill: none;
      }

      .st1 {
        fill: #c8645e;
      }

      .st1, .st2, .st3 {
        fill-rule: evenodd;
      }

      .st2 {
        fill: #97d6bc;
      }

      .st3 {
        fill: #995999;
      }

      .st4 {
        clip-path: url(#clippath);
      }
    </style>
    <clipPath id="clippath">
      <rect class="st0" width="672" height="230"/>
    </clipPath>
  </defs>
  <g class="st4">
    <g>
      <path class="st1" d="M-616.2-263.2c21.5,50.3,107.6,107.3,229.4,165.1,60.9,29.2,130.8,59.5,205.9,86.9C-105.6,15.6-25.2,39.5,57.1,43.3c82.2,6.7,158.4-10.5,225.6-39.9,67.3-29.7,125.7-71.6,172.6-121.7,93.7-99.8,140.8-234.1,119.4-387.2-10.7-74.5-37.6-139.8-77.1-183.5-39.4-44.4-91.4-67-152.3-72.1-60.9-5.3-130.8,7.1-205.9,29-75.2,22.3-155.7,54.2-237.9,96.6-82.2,41.4-158.4,89.9-225.6,132.9-67.3,43.4-125.7,81.3-172.6,110.3-46.8,29.5-82,50.1-102.9,67.9-20.8,18.2-27.2,33.5-16.5,61.1h0Z"/>
      <path class="st2" d="M757.7,64c111.8.8,208.9-43.5,269.3-92.5,61-50.5,85.3-105.7,67.1-162.4-19.5-56.8-64.6-109.3-122.6-147.9-58.5-38.5-129.9-63-213.7-62.8-83.8-.2-155.2,24.3-213.7,62.8-58,38.5-103.2,91-122.6,147.9-18.2,56.7,6,111.9,67.1,162.4,60.4,49,157.5,93.3,269.3,92.5h-.2Z"/>
      <path class="st3" d="M926.1-130.5c.5-25.9-31.3-33.8-86.7-42.6-54.3-7.9-132.1-16.7-198.7-24.8-67.5-7.1-106.3-1.6-117.9,31.5-12.2,31.1,2.8,89.6,30.5,142.1,28.6,53.9,63.3,82.8,95.4,91.1,32.9,8.6,63.1-3.5,101-22.9,37.2-20.3,78.1-49.4,113.2-82,34.5-32.2,63.3-67.9,63.1-92.3h.1Z"/>
    </g>
  </g>
</svg>