<?xml version="1.0" encoding="UTF-8"?>
<svg id="Layer_1" xmlns="http://www.w3.org/2000/svg" version="1.1" viewBox="0 0 672 230">
  <!-- Generator: Adobe Illustrator 29.6.1, SVG Export Plug-In . SVG Version: 2.1.1 Build 9)  -->
  <defs>
    <style>
      .st0 {
        fill: #ac599c;
      }
    </style>
  </defs>
  <g>
    <path class="st0" d="M-75.2-1.8c0,1.1-.9,1.9-1.9,1.9h0c-1.1,0-1.9-.8-1.9-1.9h0c0-1,.8-1.9,1.9-1.9h0c1,0,1.9.9,1.9,1.9Z"/>
    <path class="st0" d="M-73.3,32.9c0,2.1-1.7,3.8-3.8,3.8h0c-2.1,0-3.8-1.7-3.8-3.8h0c0-2.1,1.7-3.8,3.8-3.8h0c2.1,0,3.8,1.7,3.8,3.8Z"/>
    <path class="st0" d="M-75.2,67.6c0,1.1-.9,1.9-1.9,1.9h0c-1.1,0-1.9-.8-1.9-1.9h0c0-1,.8-1.9,1.9-1.9h0c1,0,1.9.9,1.9,1.9Z"/>
    <path class="st0" d="M-42.5-36.5c0,1-.8,1.9-1.9,1.9h0c-1,0-1.9-.8-1.9-1.9h0c0-1.1.8-1.9,1.9-1.9h0c1.1,0,1.9.8,1.9,1.9Z"/>
    <path class="st0" d="M-42.5-1.8c0,1.1-.8,1.9-1.9,1.9h0c-1,0-1.9-.8-1.9-1.9h0c0-1,.8-1.9,1.9-1.9h0c1.1,0,1.9.9,1.9,1.9Z"/>
    <path class="st0" d="M-42.5,32.9c0,1-.8,1.9-1.9,1.9h0c-1,0-1.9-.9-1.9-1.9h0c0-1.1.8-1.9,1.9-1.9h0c1.1,0,1.9.8,1.9,1.9Z"/>
    <path class="st0" d="M-42.5,67.6c0,1.1-.8,1.9-1.9,1.9h0c-1,0-1.9-.8-1.9-1.9h0c0-1,.8-1.9,1.9-1.9h0c1.1,0,1.9.9,1.9,1.9Z"/>
    <path class="st0" d="M-4.2-36.5c0,4.2-3.4,7.6-7.6,7.6h0c-4.2,0-7.6-3.4-7.6-7.6h0c0-4.2,3.4-7.6,7.6-7.6h0c4.2,0,7.6,3.4,7.6,7.6Z"/>
    <path class="st0" d="M-5.2-1.8c0,3.7-3,6.6-6.6,6.6h0c-3.7,0-6.6-3-6.6-6.6h0c0-3.7,3-6.6,6.6-6.6h0c3.7,0,6.6,3,6.6,6.6Z"/>
    <path class="st0" d="M-9.9,32.9c0,1-.9,1.9-1.9,1.9h0c-1.1,0-1.9-.9-1.9-1.9h0c0-1.1.8-1.9,1.9-1.9h0c1,0,1.9.8,1.9,1.9Z"/>
    <path class="st0" d="M-9.9,67.6c0,1.1-.9,1.9-1.9,1.9h0c-1.1,0-1.9-.8-1.9-1.9h0c0-1,.8-1.9,1.9-1.9h0c1,0,1.9.9,1.9,1.9Z"/>
    <path class="st0" d="M22.7-71.3c0,1.1-.9,1.9-1.9,1.9h0c-1,0-1.9-.8-1.9-1.9h0c0-1,.8-1.9,1.9-1.9h0c1.1,0,1.9.9,1.9,1.9Z"/>
    <path class="st0" d="M26-36.5c0,2.9-2.3,5.2-5.2,5.2h0c-2.9,0-5.2-2.3-5.2-5.2h0c0-2.9,2.3-5.2,5.2-5.2h0c2.9,0,5.2,2.3,5.2,5.2Z"/>
    <path class="st0" d="M22.7-1.8c0,1.1-.9,1.9-1.9,1.9h0c-1.1,0-1.9-.8-1.9-1.9h0c0-1,.8-1.9,1.9-1.9h0c1,0,1.9.9,1.9,1.9Z"/>
    <path class="st0" d="M22.7,32.9c0,1-.9,1.9-1.9,1.9h0c-1.1,0-1.9-.9-1.9-1.9h0c0-1.1.8-1.9,1.9-1.9h0c1,0,1.9.8,1.9,1.9Z"/>
    <path class="st0" d="M23.7,67.6c0,1.6-1.3,2.8-2.8,2.8h0c-1.6,0-2.8-1.3-2.8-2.8h0c0-1.6,1.3-2.8,2.8-2.8h0c1.6,0,2.8,1.3,2.8,2.8Z"/>
    <path class="st0" d="M22.7,102.4c0,1-.9,1.9-1.9,1.9h0c-1.1,0-1.9-.9-1.9-1.9h0c0-1.1.8-1.9,1.9-1.9h0c1,0,1.9.8,1.9,1.9Z"/>
    <path class="st0" d="M55.3-36.5c0,1-.8,1.9-1.9,1.9h0c-1,0-1.9-.9-1.9-1.9h0c0-1.1.8-1.9,1.9-1.9h0c1.1,0,1.9.8,1.9,1.9Z"/>
    <path class="st0" d="M55.3-1.8c0,1.1-.8,1.9-1.9,1.9h0c-1,0-1.9-.8-1.9-1.9h0c0-1,.8-1.9,1.9-1.9h0c1.1,0,1.9.9,1.9,1.9Z"/>
    <path class="st0" d="M57.2,32.9c0,2.1-1.7,3.8-3.8,3.8h0c-2.1,0-3.8-1.7-3.8-3.8h0c0-2.1,1.7-3.8,3.8-3.8h0c2.1,0,3.8,1.7,3.8,3.8Z"/>
    <path class="st0" d="M55.3,67.6c0,1.1-.8,1.9-1.9,1.9h0c-1,0-1.9-.8-1.9-1.9h0c0-1,.8-1.9,1.9-1.9h0c1.1,0,1.9.9,1.9,1.9Z"/>
    <path class="st0" d="M55.3,102.4c0,1-.8,1.9-1.9,1.9h0c-1,0-1.9-.9-1.9-1.9h0c0-1.1.8-1.9,1.9-1.9h0c1.1,0,1.9.8,1.9,1.9Z"/>
    <path class="st0" d="M88-71.3c0,1.1-.9,1.9-1.9,1.9h0c-1.1,0-1.9-.8-1.9-1.9h0c0-1,.8-1.9,1.9-1.9h0c1,0,1.9.9,1.9,1.9Z"/>
    <path class="st0" d="M88-36.5c0,1-.9,1.9-1.9,1.9h0c-1,0-1.9-.9-1.9-1.9h0c0-1.1.8-1.9,1.9-1.9h0c1.1,0,1.9.8,1.9,1.9Z"/>
    <path class="st0" d="M88-1.8c0,1.1-.9,1.9-1.9,1.9h0c-1.1,0-1.9-.8-1.9-1.9h0c0-1,.8-1.9,1.9-1.9h0c1,0,1.9.9,1.9,1.9Z"/>
    <path class="st0" d="M88,32.9c0,1-.9,1.9-1.9,1.9h0c-1,0-1.9-.9-1.9-1.9h0c0-1.1.8-1.9,1.9-1.9h0c1.1,0,1.9.9,1.9,1.9Z"/>
    <path class="st0" d="M88,67.6c0,1.1-.9,1.9-1.9,1.9h0c-1,0-1.9-.8-1.9-1.9h0c0-1,.8-1.9,1.9-1.9h0c1.1,0,1.9.9,1.9,1.9Z"/>
    <path class="st0" d="M88,102.4c0,1-.9,1.9-1.9,1.9h0c-1,0-1.9-.9-1.9-1.9h0c0-1.1.8-1.9,1.9-1.9h0c1.1,0,1.9.8,1.9,1.9Z"/>
    <path class="st0" d="M120.6-71.3c0,1.1-.9,1.9-1.9,1.9h0c-1,0-1.9-.8-1.9-1.9h0c0-1,.8-1.9,1.9-1.9h0c1.1,0,1.9.9,1.9,1.9Z"/>
    <path class="st0" d="M123.5-36.6c0,2.6-2.1,4.7-4.7,4.7h0c-2.6,0-4.7-2.1-4.7-4.7h0c0-2.6,2.1-4.7,4.7-4.7h0c2.6,0,4.7,2.1,4.7,4.7Z"/>
    <path class="st0" d="M120.6-1.8c0,1.1-.9,1.9-1.9,1.9h0c-1.1,0-1.9-.8-1.9-1.9h0c0-1,.8-1.9,1.9-1.9h0c1,0,1.9.9,1.9,1.9Z"/>
    <path class="st0" d="M121.6,32.9c0,1.6-1.3,2.8-2.8,2.8h0c-1.6,0-2.8-1.3-2.8-2.8h0c0-1.6,1.3-2.8,2.8-2.8h0c1.6,0,2.8,1.3,2.8,2.8Z"/>
    <path class="st0" d="M120.6,67.6c0,1.1-.8,1.9-1.9,1.9h0c-1.1,0-1.9-.8-1.9-1.9h0c0-1,.8-1.9,1.9-1.9h0c1,0,1.9.9,1.9,1.9Z"/>
    <path class="st0" d="M120.6,102.4c0,1-.8,1.9-1.9,1.9h0c-1.1,0-1.9-.9-1.9-1.9h0c0-1.1.8-1.9,1.9-1.9h0c1,0,1.9.8,1.9,1.9Z"/>
    <path class="st0" d="M153.2-36.5c0,1-.9,1.9-1.9,1.9h0c-1.1,0-1.9-.9-1.9-1.9h0c0-1.1.9-1.9,1.9-1.9h0c1,0,1.9.8,1.9,1.9Z"/>
    <path class="st0" d="M153.2-1.8c0,1.1-.9,1.9-1.9,1.9h0c-1.1,0-1.9-.8-1.9-1.9h0c0-1,.8-1.9,1.9-1.9h0c1,0,1.9.9,1.9,1.9Z"/>
    <path class="st0" d="M154.7,32.9c0,1.8-1.5,3.3-3.3,3.3h0c-1.8,0-3.3-1.5-3.3-3.3h0c0-1.8,1.5-3.3,3.3-3.3h0c1.8,0,3.3,1.5,3.3,3.3Z"/>
    <path class="st0" d="M153.2,67.6c0,1.1-.9,1.9-1.9,1.9h0c-1,0-1.9-.8-1.9-1.9h0c0-1,.8-1.9,1.9-1.9h0c1.1,0,1.9.9,1.9,1.9Z"/>
    <path class="st0" d="M185.9-71.3c0,1.1-.8,1.9-1.9,1.9h0c-1.1,0-1.9-.8-1.9-1.9h0c0-1,.9-1.9,1.9-1.9h0c1,0,1.9.9,1.9,1.9Z"/>
    <path class="st0" d="M185.9-36.5c0,1-.9,1.9-1.9,1.9h0c-1.1,0-1.9-.9-1.9-1.9h0c0-1.1.9-1.9,1.9-1.9h0c1,0,1.9.8,1.9,1.9Z"/>
    <path class="st0" d="M185.9-1.8c0,1.1-.8,1.9-1.9,1.9h0c-1,0-1.9-.8-1.9-1.9h0c0-1,.9-1.9,1.9-1.9h0c1.1,0,1.9.9,1.9,1.9Z"/>
    <path class="st0" d="M218.5-36.5c0,1-.8,1.9-1.9,1.9h0c-1.1,0-1.9-.9-1.9-1.9h0c0-1.1.8-1.9,1.9-1.9h0c1,0,1.9.8,1.9,1.9Z"/>
    <path class="st0" d="M-140.4-1.8c0,1.1-.8,1.9-1.9,1.9h0c-1.1,0-1.9-.8-1.9-1.9h0c0-1,.8-1.9,1.9-1.9h0c1,0,1.9.9,1.9,1.9Z"/>
    <path class="st0" d="M-140.4,32.9c0,1-.8,1.9-1.9,1.9h0c-1.1,0-1.9-.8-1.9-1.9h0c0-1.1.8-1.9,1.9-1.9h0c1,0,1.9.8,1.9,1.9Z"/>
    <path class="st0" d="M-140.4,67.6c0,1.1-.8,1.9-1.9,1.9h0c-1.1,0-1.9-.8-1.9-1.9h0c0-1,.8-1.9,1.9-1.9h0c1,0,1.9.9,1.9,1.9Z"/>
    <path class="st0" d="M-140.4,102.4c0,1-.8,1.9-1.9,1.9h0c-1.1,0-1.9-.9-1.9-1.9h0c0-1.1.8-1.9,1.9-1.9h0c1,0,1.9.8,1.9,1.9Z"/>
    <path class="st0" d="M-106.4-1.8c0,1.8-1.5,3.3-3.3,3.3h0c-1.8,0-3.3-1.5-3.3-3.3h0c0-1.8,1.5-3.3,3.3-3.3h0c1.8,0,3.3,1.5,3.3,3.3Z"/>
    <path class="st0" d="M-106.4,32.9c0,1.8-1.5,3.3-3.3,3.3h0c-1.8,0-3.3-1.5-3.3-3.3h0c0-1.8,1.5-3.3,3.3-3.3h0c1.8,0,3.3,1.5,3.3,3.3Z"/>
    <path class="st0" d="M-107.8,67.6c0,1.1-.9,1.9-1.9,1.9h0c-1,0-1.9-.8-1.9-1.9h0c0-1,.8-1.9,1.9-1.9h0c1.1,0,1.9.9,1.9,1.9Z"/>
    <path class="st0" d="M-107.8,102.4c0,1-.9,1.9-1.9,1.9h0c-1,0-1.9-.9-1.9-1.9h0c0-1.1.8-1.9,1.9-1.9h0c1.1,0,1.9.8,1.9,1.9Z"/>
  </g>
  <g>
    <path class="st0" d="M698,22.2c0-1.1.9-1.9,1.9-1.9h0c1.1,0,1.9.8,1.9,1.9h0c0,1-.8,1.9-1.9,1.9h0c-1,0-1.9-.9-1.9-1.9Z"/>
    <path class="st0" d="M696.1-12.5c0-2.1,1.7-3.8,3.8-3.8h0c2.1,0,3.8,1.7,3.8,3.8h0c0,2.1-1.7,3.8-3.8,3.8h0c-2.1,0-3.8-1.7-3.8-3.8Z"/>
    <path class="st0" d="M698-47.3c0-1.1.9-1.9,1.9-1.9h0c1.1,0,1.9.8,1.9,1.9h0c0,1-.8,1.9-1.9,1.9h0c-1,0-1.9-.9-1.9-1.9Z"/>
    <path class="st0" d="M665.4,56.9c0-1,.8-1.9,1.9-1.9h0c1,0,1.9.8,1.9,1.9h0c0,1.1-.8,1.9-1.9,1.9h0c-1.1,0-1.9-.8-1.9-1.9Z"/>
    <path class="st0" d="M665.4,22.2c0-1.1.8-1.9,1.9-1.9h0c1,0,1.9.8,1.9,1.9h0c0,1-.8,1.9-1.9,1.9h0c-1.1,0-1.9-.9-1.9-1.9Z"/>
    <path class="st0" d="M665.4-12.5c0-1,.8-1.9,1.9-1.9h0c1,0,1.9.9,1.9,1.9h0c0,1.1-.8,1.9-1.9,1.9h0c-1.1,0-1.9-.8-1.9-1.9Z"/>
    <path class="st0" d="M665.4-47.3c0-1.1.8-1.9,1.9-1.9h0c1,0,1.9.8,1.9,1.9h0c0,1-.8,1.9-1.9,1.9h0c-1.1,0-1.9-.9-1.9-1.9Z"/>
    <path class="st0" d="M627,56.9c0-4.2,3.4-7.6,7.6-7.6h0c4.2,0,7.6,3.4,7.6,7.6h0c0,4.2-3.4,7.6-7.6,7.6h0c-4.2,0-7.6-3.4-7.6-7.6Z"/>
    <path class="st0" d="M628,22.2c0-3.7,3-6.6,6.6-6.6h0c3.7,0,6.6,3,6.6,6.6h0c0,3.7-3,6.6-6.6,6.6h0c-3.7,0-6.6-3-6.6-6.6Z"/>
    <path class="st0" d="M632.7-12.5c0-1,.9-1.9,1.9-1.9h0c1.1,0,1.9.9,1.9,1.9h0c0,1.1-.8,1.9-1.9,1.9h0c-1,0-1.9-.8-1.9-1.9Z"/>
    <path class="st0" d="M632.7-47.3c0-1.1.9-1.9,1.9-1.9h0c1.1,0,1.9.8,1.9,1.9h0c0,1-.8,1.9-1.9,1.9h0c-1,0-1.9-.9-1.9-1.9Z"/>
    <path class="st0" d="M600.1,91.6c0-1.1.9-1.9,1.9-1.9h0c1,0,1.9.8,1.9,1.9h0c0,1-.8,1.9-1.9,1.9h0c-1.1,0-1.9-.9-1.9-1.9Z"/>
    <path class="st0" d="M596.8,56.9c0-2.9,2.3-5.2,5.2-5.2h0c2.9,0,5.2,2.3,5.2,5.2h0c0,2.9-2.3,5.2-5.2,5.2h0c-2.9,0-5.2-2.3-5.2-5.2Z"/>
    <path class="st0" d="M600.1,22.2c0-1.1.9-1.9,1.9-1.9h0c1.1,0,1.9.8,1.9,1.9h0c0,1-.8,1.9-1.9,1.9h0c-1,0-1.9-.9-1.9-1.9Z"/>
    <path class="st0" d="M600.1-12.5c0-1,.9-1.9,1.9-1.9h0c1.1,0,1.9.9,1.9,1.9h0c0,1.1-.8,1.9-1.9,1.9h0c-1,0-1.9-.8-1.9-1.9Z"/>
    <path class="st0" d="M599.2-47.3c0-1.6,1.3-2.8,2.8-2.8h0c1.6,0,2.8,1.3,2.8,2.8h0c0,1.6-1.3,2.8-2.8,2.8h0c-1.6,0-2.8-1.3-2.8-2.8Z"/>
    <path class="st0" d="M600.1-82c0-1,.9-1.9,1.9-1.9h0c1.1,0,1.9.9,1.9,1.9h0c0,1.1-.8,1.9-1.9,1.9h0c-1,0-1.9-.8-1.9-1.9Z"/>
    <path class="st0" d="M567.5,56.9c0-1,.8-1.9,1.9-1.9h0c1,0,1.9.9,1.9,1.9h0c0,1.1-.8,1.9-1.9,1.9h0c-1.1,0-1.9-.8-1.9-1.9Z"/>
    <path class="st0" d="M567.5,22.2c0-1.1.8-1.9,1.9-1.9h0c1,0,1.9.8,1.9,1.9h0c0,1-.8,1.9-1.9,1.9h0c-1.1,0-1.9-.9-1.9-1.9Z"/>
    <path class="st0" d="M565.6-12.5c0-2.1,1.7-3.8,3.8-3.8h0c2.1,0,3.8,1.7,3.8,3.8h0c0,2.1-1.7,3.8-3.8,3.8h0c-2.1,0-3.8-1.7-3.8-3.8Z"/>
    <path class="st0" d="M567.5-47.3c0-1.1.8-1.9,1.9-1.9h0c1,0,1.9.8,1.9,1.9h0c0,1-.8,1.9-1.9,1.9h0c-1.1,0-1.9-.9-1.9-1.9Z"/>
    <path class="st0" d="M567.5-82c0-1,.8-1.9,1.9-1.9h0c1,0,1.9.9,1.9,1.9h0c0,1.1-.8,1.9-1.9,1.9h0c-1.1,0-1.9-.8-1.9-1.9Z"/>
    <path class="st0" d="M763.3,22.2c0-1.1.8-1.9,1.9-1.9h0c1.1,0,1.9.8,1.9,1.9h0c0,1-.8,1.9-1.9,1.9h0c-1,0-1.9-.9-1.9-1.9Z"/>
    <path class="st0" d="M763.3-12.5c0-1,.8-1.9,1.9-1.9h0c1.1,0,1.9.8,1.9,1.9h0c0,1.1-.8,1.9-1.9,1.9h0c-1,0-1.9-.8-1.9-1.9Z"/>
    <path class="st0" d="M763.3-47.3c0-1.1.8-1.9,1.9-1.9h0c1.1,0,1.9.8,1.9,1.9h0c0,1-.8,1.9-1.9,1.9h0c-1,0-1.9-.9-1.9-1.9Z"/>
    <path class="st0" d="M763.3-82c0-1,.8-1.9,1.9-1.9h0c1.1,0,1.9.9,1.9,1.9h0c0,1.1-.8,1.9-1.9,1.9h0c-1,0-1.9-.8-1.9-1.9Z"/>
    <path class="st0" d="M729.2,22.2c0-1.8,1.5-3.3,3.3-3.3h0c1.8,0,3.3,1.5,3.3,3.3h0c0,1.8-1.5,3.3-3.3,3.3h0c-1.8,0-3.3-1.5-3.3-3.3Z"/>
    <path class="st0" d="M729.2-12.5c0-1.8,1.5-3.3,3.3-3.3h0c1.8,0,3.3,1.5,3.3,3.3h0c0,1.8-1.5,3.3-3.3,3.3h0c-1.8,0-3.3-1.5-3.3-3.3Z"/>
    <path class="st0" d="M730.6-47.3c0-1.1.9-1.9,1.9-1.9h0c1,0,1.9.8,1.9,1.9h0c0,1-.8,1.9-1.9,1.9h0c-1.1,0-1.9-.9-1.9-1.9Z"/>
    <path class="st0" d="M730.6-82c0-1,.9-1.9,1.9-1.9h0c1,0,1.9.9,1.9,1.9h0c0,1.1-.8,1.9-1.9,1.9h0c-1.1,0-1.9-.8-1.9-1.9Z"/>
  </g>
</svg>