<?xml version="1.0" encoding="UTF-8"?>
<svg id="Layer_1" xmlns="http://www.w3.org/2000/svg" version="1.1" viewBox="0 0 50 50">
  <!-- Generator: Adobe Illustrator 29.6.1, SVG Export Plug-In . SVG Version: 2.1.1 Build 9)  -->
  <defs>
    <style>
      .st0 {
        fill: #fff;
      }

      .st1 {
        display: none;
      }
    </style>
  </defs>
  <path class="st0" d="M34.9,41.2v1.9c0,.8-.3,1.5-.8,2-.5.5-1.2.8-2,.8H5.5c-.8,0-1.5-.3-2-.8-.5-.5-.8-1.2-.8-2V6.9c0-.8.3-1.5.8-2,.5-.5,1.2-.8,2-.8h18.5c.2,0,.4.1.6.3l9.9,9.9c.2.2.3.3.3.6v6.8l8,4.6c.6.3.9.9,1.1,1.4.2.6,0,1.2-.2,1.8,0,0,0,.1,0,.2-.3.5-.9.9-1.4,1.1-.6.2-1.2,0-1.8-.2h0s-.4.6-.4.6l8.7,5c.6.4,1.1,1,1.3,1.7.2.7.1,1.4-.2,2.1h0c-.4.8-1,1.2-1.7,1.4-.7.2-1.5.1-2.1-.3l-8.6-5-.4.7h0c.6.3,1,.9,1.1,1.5s0,1.3-.2,1.8-.9,1-1.5,1.1c-.4.1-.9.1-1.3,0h0ZM8.1,27.6c-.4,0-.8-.3-.8-.8s.3-.8.8-.8h18.5c.4,0,.8.3.8.8s-.3.8-.8.8H8.1ZM8.1,32.2c-.4,0-.8-.3-.8-.8s.3-.8.8-.8h14.5c.4,0,.8.3.8.8s-.3.8-.8.8h-14.5ZM8.1,36.8c-.4,0-.8-.3-.8-.8s.3-.8.8-.8h14.5c.4,0,.8.3.8.8s-.3.8-.8.8h-14.5ZM8.1,41.3c-.4,0-.8-.3-.8-.8s.3-.8.8-.8h18.5c.4,0,.8.3.8.8s-.3.8-.8.8H8.1ZM39.2,32.5l-1.3,2.3,8.6,5c.3.2.7.2,1,.1.3,0,.6-.3.8-.6h0c.2-.3.2-.7.1-1,0-.3-.3-.6-.6-.8l-8.6-5h0ZM38.2,31.1h0s0,0,0,0l.7-1.3c-2.5-1.4-4.9-2.8-7.4-4.3l-3.6,6.2,7.4,4.3.7-1.3h0s2-3.6,2-3.6h0s0,0,0,0ZM30.4,24.6c-.3-.3-.4-.6-.5-1-.2-.6,0-1.2.2-1.8,0,0,0,0,0-.1.3-.5.9-.9,1.4-1.1.6-.2,1.2,0,1.8.2v-5.2h-7.2c-.8,0-1.4-.3-1.9-.8-.5-.5-.8-1.2-.8-1.9v-7.2H5.5c-.3,0-.7.1-.9.4-.2.2-.4.5-.4.9v36.2c0,.3.1.7.4.9.2.2.5.4.9.4h26.6c.3,0,.7-.1.9-.4.2-.2.4-.5.4-.9v-2.7l-8.4-4.8c-.6-.3-1-.9-1.1-1.5-.2-.6,0-1.3.2-1.8h0c.3-.6.9-1,1.5-1.1.4,0,.7-.1,1.1,0l3.7-6.4h0ZM40.3,28.8s0,0,.1,0c0,0,0,0,.1,0l.6.3c.2.1.5.1.7,0,.2,0,.4-.2.5-.4h0c.1-.3.1-.5,0-.7,0-.2-.2-.4-.4-.5h0c0,0-9.3-5.4-9.3-5.4-.2-.1-.5-.1-.7,0-.2,0-.4.2-.5.4h0c-.1.3-.1.5,0,.7,0,.2.2.4.4.5h0s0,0,0,0h0c2.8,1.6,5.7,3.4,8.5,5h0ZM36,38.1l-9.4-5.4c-.2-.1-.5-.1-.7,0-.2,0-.4.2-.5.4h0c-.1.3-.1.5,0,.7,0,.2.2.4.4.6l9.4,5.4c.2.1.5.1.7,0,.2,0,.4-.2.6-.4.1-.2.2-.5,0-.7,0-.2-.2-.4-.4-.6h0ZM10.6,16.6c-.3-.3-.3-.8,0-1.1.3-.3.8-.3,1.1,0l.9.9,2.8-2.8c.3-.3.8-.3,1.1,0,.3.3.3.8,0,1.1l-3.3,3.3c-.3.3-.8.3-1.1,0l-1.4-1.4h0ZM13.2,23.4c-1.7-.7-3.3-1.9-4.5-3.6-1.2-1.7-2-4.1-1.9-7.4,0-.4.3-.7.7-.7,1.1,0,2.1-.4,3.1-.9h0c.9-.6,1.7-1.3,2.3-2.2.2-.3.7-.4,1.1-.2,0,0,.2.1.2.2.6.9,1.4,1.6,2.3,2.2.9.5,2,.9,3.1.9.4,0,.7.4.7.8,0,3.3-.7,5.6-1.9,7.4-1.2,1.8-2.8,2.9-4.5,3.6-.2,0-.4,0-.6,0h0ZM9.9,18.9c.9,1.4,2.2,2.3,3.6,2.9,1.3-.6,2.6-1.6,3.6-2.9,1-1.4,1.6-3.3,1.6-5.9-1.1-.2-2.1-.5-3-1.1-.8-.5-1.6-1.1-2.2-1.8-.6.7-1.4,1.3-2.2,1.8h0c-.9.6-1.9.9-3,1.1,0,2.6.7,4.5,1.6,5.9h0ZM32.2,14.1l-7.4-7.4v6.1c0,.3.1.6.4.9.2.2.5.4.9.4h6.1,0Z"/>
  <g class="st1">
    <path class="st0" d="M19.3,22.6v-8.8c0-3.2,2.6-5.7,5.7-5.7,3.2,0,5.7,2.6,5.7,5.7v1.7c0,1.4,1.1,2.5,2.5,2.5h1.8c1.4,0,2.5-1.1,2.5-2.5v-1.9c0-6.9-5.6-12.5-12.5-12.5-6.9,0-12.5,5.6-12.5,12.5v9h-1.2c-2.9,0-5.2,2.3-5.2,5.2v17.5c0,2,1.6,3.6,3.6,3.6h30.7c2,0,3.6-1.6,3.6-3.6v-17.5c0-2.9-2.3-5.2-5.2-5.2h-19.4ZM17.8,13.8v8.8h-3.7v-9c0-6,4.9-11,11-11,6,0,11,4.9,11,11v1.9c0,.5-.4,1-1,1h-1.8c-.5,0-1-.4-1-1v-1.7c0-4-3.3-7.2-7.2-7.2-4,0-7.2,3.3-7.2,7.2ZM38.7,24.1c2,0,3.7,1.7,3.7,3.7v17.5c0,1.1-.9,2.1-2.1,2.1H9.6c-1.1,0-2.1-.9-2.1-2.1v-17.5c0-2,1.7-3.7,3.7-3.7h27.4Z"/>
    <path class="st0" d="M29.1,31.8c-.4-1.5-1.6-2.7-3.1-3.1-1.3-.3-2.6,0-3.6.8-1,.8-1.6,2-1.6,3.3,0,1.3.6,2.6,1.7,3.4l-1.1,4.3c-.1.6,0,1.2.4,1.7.4.5.9.7,1.5.7h3.5c.6,0,1.2-.3,1.5-.7.4-.5.5-1.1.4-1.7l-1.1-4.3c1.3-1,2-2.7,1.6-4.4ZM26.3,35.1l-.5.3,1.3,5.4c0,.2,0,.3,0,.4,0,0-.2.2-.3.2h-3.5c-.2,0-.3-.1-.3-.2,0,0-.1-.2,0-.4l1.3-5.4-.5-.3c-.9-.5-1.4-1.4-1.4-2.4,0-.8.4-1.6,1-2.1.5-.4,1.1-.6,1.7-.6s.4,0,.7,0c1,.2,1.7,1,2,2,.3,1.2-.2,2.4-1.3,3Z"/>
  </g>
</svg>