<?xml version="1.0" encoding="UTF-8"?>
<svg id="Layer_1" xmlns="http://www.w3.org/2000/svg" version="1.1" viewBox="0 0 50 50">
  <!-- Generator: Adobe Illustrator 29.6.1, SVG Export Plug-In . SVG Version: 2.1.1 Build 9)  -->
  <defs>
    <style>
      .st0 {
        fill: #fff;
      }
    </style>
  </defs>
  <path class="st0" d="M48.3,5.2c0-1.9-1.6-3.5-3.5-3.5H5.2c-1.9,0-3.5,1.6-3.5,3.5v39.7c0,1.9,1.6,3.5,3.5,3.5h39.7c1.9,0,3.5-1.6,3.5-3.5v-19.8s0,0,0,0,0,0,0,0V5.2ZM3.5,5.2c0-.9.7-1.6,1.6-1.6h18.9v8.1c0,.3.2.7.5.8.3.2.7.1,1,0,.9-.6,2-1,2.9-1,1.3,0,2.3,1,2.3,2.3s-1,2.3-2.3,2.3-2-.4-2.9-1c-.3-.2-.7-.2-1,0-.3.2-.5.5-.5.8v8.1h-6.6c.3-.8.5-1.7.5-2.4,0-2.3-1.9-4.2-4.2-4.2s-4.2,1.9-4.2,4.2.2,1.6.5,2.4H3.5V5.2ZM24.1,46.5H5.2c-.9,0-1.6-.7-1.6-1.6v-18.9h8.1c.3,0,.7-.2.8-.5.2-.3.1-.7,0-1-.6-.9-1-2-1-2.9,0-1.3,1-2.3,2.3-2.3s2.3,1,2.3,2.3-.4,2-1,2.9c-.2.3-.2.7,0,1,.2.3.5.5.8.5h8.1v6.6c-.8-.3-1.7-.5-2.4-.5-2.3,0-4.2,1.9-4.2,4.2s1.9,4.2,4.2,4.2,1.6-.2,2.4-.5v6.6ZM46.5,44.8c0,.9-.7,1.6-1.6,1.6h-18.9v-8.1c0-.3-.2-.7-.5-.8-.3-.2-.7-.1-1,0-.9.6-2,1-2.9,1-1.3,0-2.3-1-2.3-2.3s1-2.3,2.3-2.3,2,.4,2.9,1c.3.2.7.2,1,0,.3-.2.5-.5.5-.8v-8.1h6.6c-.3.8-.5,1.7-.5,2.4,0,2.3,1.9,4.2,4.2,4.2s4.2-1.9,4.2-4.2-.2-1.6-.5-2.4h6.6v18.9ZM46.5,24.1h-8.1c-.3,0-.7.2-.8.5-.2.3-.1.7,0,1,.6.9,1,2,1,2.9,0,1.3-1,2.3-2.3,2.3s-2.3-1-2.3-2.3.4-2,1-2.9c.2-.3.2-.7,0-1-.2-.3-.5-.5-.8-.5h-8.1v-6.6c.8.3,1.7.5,2.4.5,2.3,0,4.2-1.9,4.2-4.2s-1.9-4.2-4.2-4.2-1.6.2-2.4.5V3.5h18.9c.9,0,1.6.7,1.6,1.6v18.9Z"/>
</svg>