<?xml version="1.0" encoding="UTF-8"?>
<svg id="Layer_1" xmlns="http://www.w3.org/2000/svg" version="1.1" viewBox="0 0 146.9 102.5">
  <!-- Generator: Adobe Illustrator 29.6.1, SVG Export Plug-In . SVG Version: 2.1.1 Build 9)  -->
  <defs>
    <style>
      .st0 {
        fill: #e7756f;
      }
    </style>
  </defs>
  <path class="st0" d="M69.5,0v21.1c-12.9,0-23.2,2.5-30.7,7.4-7.6,4.9-12.3,12.3-14.2,22.2,4.6-3.8,9.7-5.7,15.4-5.7s10.2,1,14.5,2.8c4.4,1.9,7.8,4.8,10.2,8.5,2.5,3.8,3.7,8.9,3.7,15.4s-3.1,16.5-9.4,22.2c-6.3,5.7-14,8.5-23.1,8.5s-13.5-2.1-18.8-6.3c-5.3-4.2-9.5-9.5-12.5-15.9-3-6.5-4.6-12.9-4.6-19.4,0-14.4,3-26.1,9.1-35,6.1-8.9,14.4-15.5,25.1-19.6C44.8,2.1,56.6,0,69.5,0ZM146.9,0v21.1c-12.9,0-23.2,2.5-30.7,7.4-7.6,4.9-12.3,12.3-14.2,22.2,4.6-3.8,9.7-5.7,15.4-5.7s10.2,1,14.5,2.8c4.4,1.9,7.8,4.8,10.2,8.5,2.5,3.8,3.7,8.9,3.7,15.4s-3.1,16.5-9.4,22.2c-6.3,5.7-14,8.5-23.1,8.5s-13.5-2.1-18.8-6.3c-5.3-4.2-9.5-9.5-12.5-15.9-3-6.5-4.6-12.9-4.6-19.4,0-14.4,3-26.1,9.1-35,6.1-8.9,14.4-15.5,25.1-19.6,10.6-4.2,22.4-6.3,35.3-6.3Z"/>
</svg>