<svg width="147" height="103" viewBox="0 0 147 103" fill="none" xmlns="http://www.w3.org/2000/svg">
<g clip-path="url(#clip0_2_2)">
<path d="M69.5 -9.76548e-05V21.0999C56.6 21.0999 46.3 23.5999 38.8 28.4999C31.2 33.3999 26.5 40.7999 24.6 50.6999C29.2 46.8999 34.3 44.9999 40 44.9999C45.7 44.9999 50.2 45.9999 54.5 47.7999C58.9 49.6999 62.3 52.5999 64.7 56.2999C67.2 60.0999 68.4 65.1999 68.4 71.6999C68.4 78.1999 65.3 88.1999 59 93.8999C52.7 99.5999 45 102.4 35.9 102.4C26.8 102.4 22.4 100.3 17.1 96.0999C11.8 91.8999 7.6 86.5999 4.6 80.1999C1.6 73.6999 0 67.2999 0 60.7999C0 46.3999 3 34.6999 9.1 25.7999C15.2 16.8999 23.5 10.2999 34.2 6.1999C44.8 2.0999 56.6 -9.76548e-05 69.5 -9.76548e-05ZM146.9 -9.76548e-05V21.0999C134 21.0999 123.7 23.5999 116.2 28.4999C108.6 33.3999 103.9 40.7999 102 50.6999C106.6 46.8999 111.7 44.9999 117.4 44.9999C123.1 44.9999 127.6 45.9999 131.9 47.7999C136.3 49.6999 139.7 52.5999 142.1 56.2999C144.6 60.0999 145.8 65.1999 145.8 71.6999C145.8 78.1999 142.7 88.1999 136.4 93.8999C130.1 99.5999 122.4 102.4 113.3 102.4C104.2 102.4 99.8 100.3 94.5 96.0999C89.2 91.8999 85 86.5999 82 80.1999C79 73.6999 77.4 67.2999 77.4 60.7999C77.4 46.3999 80.4 34.6999 86.5 25.7999C92.6 16.8999 100.9 10.2999 111.6 6.1999C122.2 1.9999 134 -0.100098 146.9 -0.100098V-9.76548e-05Z" fill="#AC599C"/>
</g>
<defs>
<clipPath id="clip0_2_2">
<rect width="146.9" height="102.5" fill="white"/>
</clipPath>
</defs>
</svg>
