<?xml version="1.0" encoding="UTF-8"?>
<svg id="Layer_1" xmlns="http://www.w3.org/2000/svg" version="1.1" viewBox="0 0 720 720">
  <!-- Generator: Adobe Illustrator 29.7.1, SVG Export Plug-In . SVG Version: 2.1.1 Build 8)  -->
  <defs>
    <style>
      .st0 {
        fill: none;
      }

      .st1 {
        fill: #cc628e;
      }

      .st2 {
        fill: #ffc431;
      }

      .st3 {
        fill: #293553;
        stroke: #293553;
        stroke-linecap: round;
        stroke-linejoin: round;
        stroke-width: 4px;
      }

      .st4 {
        fill: #06a27a;
      }

      .st5 {
        fill: #f8f3f1;
      }

      .st6 {
        fill: #73d6bb;
      }

      .st7 {
        fill: #9a5a9a;
      }

      .st8 {
        fill: #827f7e;
      }
    </style>
  </defs>
  <rect class="st0" width="720" height="720"/>
  <g>
    <path class="st4" d="M772.3-264.3c0,1.1-.9,1.9-1.9,1.9h0c-1.1,0-1.9-.8-1.9-1.9h0c0-1,.8-1.9,1.9-1.9h0c1,0,1.9.9,1.9,1.9Z"/>
    <path class="st4" d="M774.2-229.6c0,2.1-1.7,3.8-3.8,3.8h0c-2.1,0-3.8-1.7-3.8-3.8h0c0-2.1,1.7-3.8,3.8-3.8h0c2.1,0,3.8,1.7,3.8,3.8Z"/>
    <path class="st4" d="M772.3-194.9c0,1.1-.9,1.9-1.9,1.9h0c-1.1,0-1.9-.8-1.9-1.9h0c0-1,.8-1.9,1.9-1.9h0c1,0,1.9.9,1.9,1.9Z"/>
    <path class="st4" d="M804.9-299.1c0,1-.8,1.9-1.9,1.9h0c-1,0-1.9-.8-1.9-1.9h0c0-1.1.8-1.9,1.9-1.9h0c1.1,0,1.9.8,1.9,1.9Z"/>
    <path class="st4" d="M804.9-264.3c0,1.1-.8,1.9-1.9,1.9h0c-1,0-1.9-.8-1.9-1.9h0c0-1,.8-1.9,1.9-1.9h0c1.1,0,1.9.9,1.9,1.9Z"/>
    <path class="st4" d="M804.9-229.6c0,1-.8,1.9-1.9,1.9h0c-1,0-1.9-.9-1.9-1.9h0c0-1.1.8-1.9,1.9-1.9h0c1.1,0,1.9.8,1.9,1.9Z"/>
    <path class="st4" d="M804.9-194.9c0,1.1-.8,1.9-1.9,1.9h0c-1,0-1.9-.8-1.9-1.9h0c0-1,.8-1.9,1.9-1.9h0c1.1,0,1.9.9,1.9,1.9Z"/>
    <path class="st4" d="M843.3-299.1c0,4.2-3.4,7.6-7.6,7.6h0c-4.2,0-7.6-3.4-7.6-7.6h0c0-4.2,3.4-7.6,7.6-7.6h0c4.2,0,7.6,3.4,7.6,7.6Z"/>
    <path class="st4" d="M842.3-264.3c0,3.7-3,6.6-6.6,6.6h0c-3.7,0-6.6-3-6.6-6.6h0c0-3.7,3-6.6,6.6-6.6h0c3.7,0,6.6,3,6.6,6.6Z"/>
    <path class="st4" d="M837.6-229.6c0,1-.9,1.9-1.9,1.9h0c-1.1,0-1.9-.9-1.9-1.9h0c0-1.1.8-1.9,1.9-1.9h0c1,0,1.9.8,1.9,1.9Z"/>
    <path class="st4" d="M837.6-194.9c0,1.1-.9,1.9-1.9,1.9h0c-1.1,0-1.9-.8-1.9-1.9h0c0-1,.8-1.9,1.9-1.9h0c1,0,1.9.9,1.9,1.9Z"/>
    <path class="st4" d="M870.2-333.8c0,1.1-.9,1.9-1.9,1.9h0c-1,0-1.9-.8-1.9-1.9h0c0-1,.8-1.9,1.9-1.9h0c1.1,0,1.9.9,1.9,1.9Z"/>
    <path class="st4" d="M873.5-299.1c0,2.9-2.3,5.2-5.2,5.2h0c-2.9,0-5.2-2.3-5.2-5.2h0c0-2.9,2.3-5.2,5.2-5.2h0c2.9,0,5.2,2.3,5.2,5.2Z"/>
    <path class="st4" d="M870.2-264.3c0,1.1-.9,1.9-1.9,1.9h0c-1.1,0-1.9-.8-1.9-1.9h0c0-1,.8-1.9,1.9-1.9h0c1,0,1.9.9,1.9,1.9Z"/>
    <path class="st4" d="M870.2-229.6c0,1-.9,1.9-1.9,1.9h0c-1.1,0-1.9-.9-1.9-1.9h0c0-1.1.8-1.9,1.9-1.9h0c1,0,1.9.8,1.9,1.9Z"/>
    <path class="st4" d="M871.2-194.9c0,1.6-1.3,2.8-2.8,2.8h0c-1.6,0-2.8-1.3-2.8-2.8h0c0-1.6,1.3-2.8,2.8-2.8h0c1.6,0,2.8,1.3,2.8,2.8Z"/>
    <path class="st4" d="M870.2-160.1c0,1-.9,1.9-1.9,1.9h0c-1.1,0-1.9-.9-1.9-1.9h0c0-1.1.8-1.9,1.9-1.9h0c1,0,1.9.8,1.9,1.9Z"/>
    <path class="st4" d="M902.8-299.1c0,1-.8,1.9-1.9,1.9h0c-1,0-1.9-.9-1.9-1.9h0c0-1.1.8-1.9,1.9-1.9h0c1.1,0,1.9.8,1.9,1.9Z"/>
    <path class="st4" d="M902.8-264.3c0,1.1-.8,1.9-1.9,1.9h0c-1,0-1.9-.8-1.9-1.9h0c0-1,.8-1.9,1.9-1.9h0c1.1,0,1.9.9,1.9,1.9Z"/>
    <path class="st4" d="M904.7-229.6c0,2.1-1.7,3.8-3.8,3.8h0c-2.1,0-3.8-1.7-3.8-3.8h0c0-2.1,1.7-3.8,3.8-3.8h0c2.1,0,3.8,1.7,3.8,3.8Z"/>
    <path class="st4" d="M902.8-194.9c0,1.1-.8,1.9-1.9,1.9h0c-1,0-1.9-.8-1.9-1.9h0c0-1,.8-1.9,1.9-1.9h0c1.1,0,1.9.9,1.9,1.9Z"/>
    <path class="st4" d="M902.8-160.1c0,1-.8,1.9-1.9,1.9h0c-1,0-1.9-.9-1.9-1.9h0c0-1.1.8-1.9,1.9-1.9h0c1.1,0,1.9.8,1.9,1.9Z"/>
    <path class="st4" d="M935.5-333.8c0,1.1-.9,1.9-1.9,1.9h0c-1.1,0-1.9-.8-1.9-1.9h0c0-1,.8-1.9,1.9-1.9h0c1,0,1.9.9,1.9,1.9Z"/>
    <path class="st4" d="M935.5-299.1c0,1-.9,1.9-1.9,1.9h0c-1,0-1.9-.9-1.9-1.9h0c0-1.1.8-1.9,1.9-1.9h0c1.1,0,1.9.8,1.9,1.9Z"/>
    <path class="st4" d="M935.5-264.3c0,1.1-.9,1.9-1.9,1.9h0c-1.1,0-1.9-.8-1.9-1.9h0c0-1,.8-1.9,1.9-1.9h0c1,0,1.9.9,1.9,1.9Z"/>
    <path class="st4" d="M935.5-229.6c0,1-.9,1.9-1.9,1.9h0c-1,0-1.9-.9-1.9-1.9h0c0-1.1.8-1.9,1.9-1.9h0c1.1,0,1.9.9,1.9,1.9Z"/>
    <path class="st4" d="M935.5-194.9c0,1.1-.9,1.9-1.9,1.9h0c-1,0-1.9-.8-1.9-1.9h0c0-1,.8-1.9,1.9-1.9h0c1.1,0,1.9.9,1.9,1.9Z"/>
    <path class="st4" d="M935.5-160.1c0,1-.9,1.9-1.9,1.9h0c-1,0-1.9-.9-1.9-1.9h0c0-1.1.8-1.9,1.9-1.9h0c1.1,0,1.9.8,1.9,1.9Z"/>
    <path class="st4" d="M968.1-333.8c0,1.1-.9,1.9-1.9,1.9h0c-1,0-1.9-.8-1.9-1.9h0c0-1,.8-1.9,1.9-1.9h0c1.1,0,1.9.9,1.9,1.9Z"/>
    <path class="st4" d="M970.9-299.1c0,2.6-2.1,4.7-4.7,4.7h0c-2.6,0-4.7-2.1-4.7-4.7h0c0-2.6,2.1-4.7,4.7-4.7h0c2.6,0,4.7,2.1,4.7,4.7Z"/>
    <path class="st4" d="M968.1-264.3c0,1.1-.9,1.9-1.9,1.9h0c-1.1,0-1.9-.8-1.9-1.9h0c0-1,.8-1.9,1.9-1.9h0c1,0,1.9.9,1.9,1.9Z"/>
    <path class="st4" d="M969-229.6c0,1.6-1.3,2.8-2.8,2.8h0c-1.6,0-2.8-1.3-2.8-2.8h0c0-1.6,1.3-2.8,2.8-2.8h0c1.6,0,2.8,1.3,2.8,2.8Z"/>
    <path class="st4" d="M968.1-194.9c0,1.1-.8,1.9-1.9,1.9h0c-1.1,0-1.9-.8-1.9-1.9h0c0-1,.8-1.9,1.9-1.9h0c1,0,1.9.9,1.9,1.9Z"/>
    <path class="st4" d="M968.1-160.1c0,1-.8,1.9-1.9,1.9h0c-1.1,0-1.9-.9-1.9-1.9h0c0-1.1.8-1.9,1.9-1.9h0c1,0,1.9.8,1.9,1.9Z"/>
    <path class="st4" d="M1000.7-299.1c0,1-.9,1.9-1.9,1.9h0c-1.1,0-1.9-.9-1.9-1.9h0c0-1.1.9-1.9,1.9-1.9h0c1,0,1.9.8,1.9,1.9Z"/>
    <path class="st4" d="M1000.7-264.3c0,1.1-.9,1.9-1.9,1.9h0c-1.1,0-1.9-.8-1.9-1.9h0c0-1,.8-1.9,1.9-1.9h0c1,0,1.9.9,1.9,1.9Z"/>
    <path class="st4" d="M1002.2-229.6c0,1.8-1.5,3.3-3.3,3.3h0c-1.8,0-3.3-1.5-3.3-3.3h0c0-1.8,1.5-3.3,3.3-3.3h0c1.8,0,3.3,1.5,3.3,3.3Z"/>
    <path class="st4" d="M1000.7-194.9c0,1.1-.9,1.9-1.9,1.9h0c-1,0-1.9-.8-1.9-1.9h0c0-1,.8-1.9,1.9-1.9h0c1.1,0,1.9.9,1.9,1.9Z"/>
    <path class="st4" d="M1033.4-333.8c0,1.1-.8,1.9-1.9,1.9h0c-1.1,0-1.9-.8-1.9-1.9h0c0-1,.9-1.9,1.9-1.9h0c1,0,1.9.9,1.9,1.9Z"/>
    <path class="st4" d="M1033.4-299.1c0,1-.9,1.9-1.9,1.9h0c-1.1,0-1.9-.9-1.9-1.9h0c0-1.1.9-1.9,1.9-1.9h0c1,0,1.9.8,1.9,1.9Z"/>
    <path class="st4" d="M1033.4-264.3c0,1.1-.8,1.9-1.9,1.9h0c-1,0-1.9-.8-1.9-1.9h0c0-1,.9-1.9,1.9-1.9h0c1.1,0,1.9.9,1.9,1.9Z"/>
    <path class="st4" d="M1066-299.1c0,1-.8,1.9-1.9,1.9h0c-1.1,0-1.9-.9-1.9-1.9h0c0-1.1.8-1.9,1.9-1.9h0c1,0,1.9.8,1.9,1.9Z"/>
    <path class="st4" d="M707.1-264.3c0,1.1-.8,1.9-1.9,1.9h0c-1.1,0-1.9-.8-1.9-1.9h0c0-1,.8-1.9,1.9-1.9h0c1,0,1.9.9,1.9,1.9Z"/>
    <path class="st4" d="M707.1-229.6c0,1-.8,1.9-1.9,1.9h0c-1.1,0-1.9-.8-1.9-1.9h0c0-1.1.8-1.9,1.9-1.9h0c1,0,1.9.8,1.9,1.9Z"/>
    <path class="st4" d="M707.1-194.9c0,1.1-.8,1.9-1.9,1.9h0c-1.1,0-1.9-.8-1.9-1.9h0c0-1,.8-1.9,1.9-1.9h0c1,0,1.9.9,1.9,1.9Z"/>
    <path class="st4" d="M707.1-160.1c0,1-.8,1.9-1.9,1.9h0c-1.1,0-1.9-.9-1.9-1.9h0c0-1.1.8-1.9,1.9-1.9h0c1,0,1.9.8,1.9,1.9Z"/>
    <path class="st4" d="M741.1-264.3c0,1.8-1.5,3.3-3.3,3.3h0c-1.8,0-3.3-1.5-3.3-3.3h0c0-1.8,1.5-3.3,3.3-3.3h0c1.8,0,3.3,1.5,3.3,3.3Z"/>
    <path class="st4" d="M741.1-229.6c0,1.8-1.5,3.3-3.3,3.3h0c-1.8,0-3.3-1.5-3.3-3.3h0c0-1.8,1.5-3.3,3.3-3.3h0c1.8,0,3.3,1.5,3.3,3.3Z"/>
    <path class="st4" d="M739.7-194.9c0,1.1-.9,1.9-1.9,1.9h0c-1,0-1.9-.8-1.9-1.9h0c0-1,.8-1.9,1.9-1.9h0c1.1,0,1.9.9,1.9,1.9Z"/>
    <path class="st4" d="M739.7-160.1c0,1-.9,1.9-1.9,1.9h0c-1,0-1.9-.9-1.9-1.9h0c0-1.1.8-1.9,1.9-1.9h0c1.1,0,1.9.8,1.9,1.9Z"/>
  </g>
  <g>
    <path class="st4" d="M817.5-348.3c0-1.1.9-1.9,1.9-1.9h0c1.1,0,1.9.8,1.9,1.9h0c0,1-.8,1.9-1.9,1.9h0c-1,0-1.9-.9-1.9-1.9Z"/>
    <path class="st4" d="M815.6-383.1c0-2.1,1.7-3.8,3.8-3.8h0c2.1,0,3.8,1.7,3.8,3.8h0c0,2.1-1.7,3.8-3.8,3.8h0c-2.1,0-3.8-1.7-3.8-3.8Z"/>
    <path class="st4" d="M817.5-417.8c0-1.1.9-1.9,1.9-1.9h0c1.1,0,1.9.8,1.9,1.9h0c0,1-.8,1.9-1.9,1.9h0c-1,0-1.9-.9-1.9-1.9Z"/>
    <path class="st4" d="M784.8-313.6c0-1,.8-1.9,1.9-1.9h0c1,0,1.9.8,1.9,1.9h0c0,1.1-.8,1.9-1.9,1.9h0c-1.1,0-1.9-.8-1.9-1.9Z"/>
    <path class="st4" d="M784.8-348.3c0-1.1.8-1.9,1.9-1.9h0c1,0,1.9.8,1.9,1.9h0c0,1-.8,1.9-1.9,1.9h0c-1.1,0-1.9-.9-1.9-1.9Z"/>
    <path class="st4" d="M784.8-383.1c0-1,.8-1.9,1.9-1.9h0c1,0,1.9.9,1.9,1.9h0c0,1.1-.8,1.9-1.9,1.9h0c-1.1,0-1.9-.8-1.9-1.9Z"/>
    <path class="st4" d="M784.8-417.8c0-1.1.8-1.9,1.9-1.9h0c1,0,1.9.8,1.9,1.9h0c0,1-.8,1.9-1.9,1.9h0c-1.1,0-1.9-.9-1.9-1.9Z"/>
    <path class="st4" d="M746.5-313.6c0-4.2,3.4-7.6,7.6-7.6h0c4.2,0,7.6,3.4,7.6,7.6h0c0,4.2-3.4,7.6-7.6,7.6h0c-4.2,0-7.6-3.4-7.6-7.6h0Z"/>
    <path class="st4" d="M747.5-348.3c0-3.7,3-6.6,6.6-6.6h0c3.7,0,6.6,3,6.6,6.6h0c0,3.7-3,6.6-6.6,6.6h0c-3.7,0-6.6-3-6.6-6.6Z"/>
    <path class="st4" d="M752.2-383.1c0-1,.9-1.9,1.9-1.9h0c1.1,0,1.9.9,1.9,1.9h0c0,1.1-.8,1.9-1.9,1.9h0c-1,0-1.9-.8-1.9-1.9Z"/>
    <path class="st4" d="M752.2-417.8c0-1.1.9-1.9,1.9-1.9h0c1.1,0,1.9.8,1.9,1.9h0c0,1-.8,1.9-1.9,1.9h0c-1,0-1.9-.9-1.9-1.9Z"/>
    <path class="st4" d="M719.6-278.9c0-1.1.9-1.9,1.9-1.9h0c1,0,1.9.8,1.9,1.9h0c0,1-.8,1.9-1.9,1.9h0c-1.1,0-1.9-.9-1.9-1.9Z"/>
    <path class="st4" d="M716.3-313.6c0-2.9,2.3-5.2,5.2-5.2h0c2.9,0,5.2,2.3,5.2,5.2h0c0,2.9-2.3,5.2-5.2,5.2h0c-2.9,0-5.2-2.3-5.2-5.2Z"/>
    <path class="st4" d="M719.6-348.3c0-1.1.9-1.9,1.9-1.9h0c1.1,0,1.9.8,1.9,1.9h0c0,1-.8,1.9-1.9,1.9h0c-1,0-1.9-.9-1.9-1.9Z"/>
    <path class="st4" d="M719.6-383.1c0-1,.9-1.9,1.9-1.9h0c1.1,0,1.9.9,1.9,1.9h0c0,1.1-.8,1.9-1.9,1.9h0c-1,0-1.9-.8-1.9-1.9Z"/>
    <path class="st4" d="M718.6-417.8c0-1.6,1.3-2.8,2.8-2.8h0c1.6,0,2.8,1.3,2.8,2.8h0c0,1.6-1.3,2.8-2.8,2.8h0c-1.6,0-2.8-1.3-2.8-2.8Z"/>
    <path class="st4" d="M719.6-452.5c0-1,.9-1.9,1.9-1.9h0c1.1,0,1.9.9,1.9,1.9h0c0,1.1-.8,1.9-1.9,1.9h0c-1,0-1.9-.8-1.9-1.9Z"/>
    <path class="st4" d="M687-313.6c0-1,.8-1.9,1.9-1.9h0c1,0,1.9.9,1.9,1.9h0c0,1.1-.8,1.9-1.9,1.9h0c-1.1,0-1.9-.8-1.9-1.9Z"/>
    <path class="st4" d="M687-348.3c0-1.1.8-1.9,1.9-1.9h0c1,0,1.9.8,1.9,1.9h0c0,1-.8,1.9-1.9,1.9h0c-1.1,0-1.9-.9-1.9-1.9Z"/>
    <path class="st4" d="M685.1-383.1c0-2.1,1.7-3.8,3.8-3.8h0c2.1,0,3.8,1.7,3.8,3.8h0c0,2.1-1.7,3.8-3.8,3.8h0c-2.1,0-3.8-1.7-3.8-3.8Z"/>
    <path class="st4" d="M687-417.8c0-1.1.8-1.9,1.9-1.9h0c1,0,1.9.8,1.9,1.9h0c0,1-.8,1.9-1.9,1.9h0c-1.1,0-1.9-.9-1.9-1.9Z"/>
    <path class="st4" d="M687-452.5c0-1,.8-1.9,1.9-1.9h0c1,0,1.9.9,1.9,1.9h0c0,1.1-.8,1.9-1.9,1.9h0c-1.1,0-1.9-.8-1.9-1.9Z"/>
    <path class="st4" d="M654.3-278.9c0-1.1.9-1.9,1.9-1.9h0c1.1,0,1.9.8,1.9,1.9h0c0,1-.8,1.9-1.9,1.9h0c-1,0-1.9-.9-1.9-1.9Z"/>
    <path class="st4" d="M654.3-313.6c0-1,.9-1.9,1.9-1.9h0c1,0,1.9.9,1.9,1.9h0c0,1.1-.8,1.9-1.9,1.9h0c-1.1,0-1.9-.8-1.9-1.9Z"/>
    <path class="st4" d="M654.3-348.3c0-1.1.9-1.9,1.9-1.9h0c1.1,0,1.9.8,1.9,1.9h0c0,1-.8,1.9-1.9,1.9h0c-1,0-1.9-.9-1.9-1.9Z"/>
    <path class="st4" d="M654.3-383.1c0-1,.9-1.9,1.9-1.9h0c1,0,1.9.9,1.9,1.9h0c0,1.1-.8,1.9-1.9,1.9h0c-1.1,0-1.9-.9-1.9-1.9Z"/>
    <path class="st4" d="M654.3-417.8c0-1.1.9-1.9,1.9-1.9h0c1,0,1.9.8,1.9,1.9h0c0,1-.8,1.9-1.9,1.9h0c-1.1,0-1.9-.9-1.9-1.9Z"/>
    <path class="st4" d="M654.3-452.5c0-1,.9-1.9,1.9-1.9h0c1,0,1.9.9,1.9,1.9h0c0,1.1-.8,1.9-1.9,1.9h0c-1.1,0-1.9-.8-1.9-1.9Z"/>
    <path class="st4" d="M621.7-278.9c0-1.1.9-1.9,1.9-1.9h0c1,0,1.9.8,1.9,1.9h0c0,1-.8,1.9-1.9,1.9h0c-1.1,0-1.9-.9-1.9-1.9Z"/>
    <path class="st4" d="M618.8-313.6c0-2.6,2.1-4.7,4.7-4.7h0c2.6,0,4.7,2.1,4.7,4.7h0c0,2.6-2.1,4.7-4.7,4.7h0c-2.6,0-4.7-2.1-4.7-4.7Z"/>
    <path class="st4" d="M621.7-348.3c0-1.1.9-1.9,1.9-1.9h0c1.1,0,1.9.8,1.9,1.9h0c0,1-.8,1.9-1.9,1.9h0c-1,0-1.9-.9-1.9-1.9Z"/>
    <path class="st4" d="M620.7-383.1c0-1.6,1.3-2.8,2.8-2.8h0c1.6,0,2.8,1.3,2.8,2.8h0c0,1.6-1.3,2.8-2.8,2.8h0c-1.6,0-2.8-1.3-2.8-2.8Z"/>
    <path class="st4" d="M621.7-417.8c0-1.1.8-1.9,1.9-1.9h0c1.1,0,1.9.8,1.9,1.9h0c0,1-.8,1.9-1.9,1.9h0c-1,0-1.9-.9-1.9-1.9Z"/>
    <path class="st4" d="M621.7-452.5c0-1,.8-1.9,1.9-1.9h0c1.1,0,1.9.9,1.9,1.9h0c0,1.1-.8,1.9-1.9,1.9h0c-1,0-1.9-.8-1.9-1.9Z"/>
    <path class="st4" d="M589.1-313.6c0-1,.9-1.9,1.9-1.9h0c1.1,0,1.9.9,1.9,1.9h0c0,1.1-.9,1.9-1.9,1.9h0c-1,0-1.9-.8-1.9-1.9Z"/>
    <path class="st4" d="M589.1-348.3c0-1.1.9-1.9,1.9-1.9h0c1.1,0,1.9.8,1.9,1.9h0c0,1-.8,1.9-1.9,1.9h0c-1,0-1.9-.9-1.9-1.9Z"/>
    <path class="st4" d="M587.6-383.1c0-1.8,1.5-3.3,3.3-3.3h0c1.8,0,3.3,1.5,3.3,3.3h0c0,1.8-1.5,3.3-3.3,3.3h0c-1.8,0-3.3-1.5-3.3-3.3Z"/>
    <path class="st4" d="M589.1-417.8c0-1.1.9-1.9,1.9-1.9h0c1,0,1.9.8,1.9,1.9h0c0,1-.8,1.9-1.9,1.9h0c-1.1,0-1.9-.9-1.9-1.9Z"/>
    <path class="st4" d="M556.4-278.9c0-1.1.8-1.9,1.9-1.9h0c1.1,0,1.9.8,1.9,1.9h0c0,1-.9,1.9-1.9,1.9h0c-1,0-1.9-.9-1.9-1.9Z"/>
    <path class="st4" d="M556.4-313.6c0-1,.9-1.9,1.9-1.9h0c1.1,0,1.9.9,1.9,1.9h0c0,1.1-.9,1.9-1.9,1.9h0c-1,0-1.9-.8-1.9-1.9Z"/>
    <path class="st4" d="M556.4-348.3c0-1.1.8-1.9,1.9-1.9h0c1,0,1.9.8,1.9,1.9h0c0,1-.9,1.9-1.9,1.9h0c-1.1,0-1.9-.9-1.9-1.9Z"/>
    <path class="st4" d="M523.8-313.6c0-1,.8-1.9,1.9-1.9h0c1.1,0,1.9.9,1.9,1.9h0c0,1.1-.8,1.9-1.9,1.9h0c-1,0-1.9-.8-1.9-1.9Z"/>
    <path class="st4" d="M882.7-348.3c0-1.1.8-1.9,1.9-1.9h0c1.1,0,1.9.8,1.9,1.9h0c0,1-.8,1.9-1.9,1.9h0c-1,0-1.9-.9-1.9-1.9Z"/>
    <path class="st4" d="M882.7-383.1c0-1,.8-1.9,1.9-1.9h0c1.1,0,1.9.8,1.9,1.9h0c0,1.1-.8,1.9-1.9,1.9h0c-1,0-1.9-.8-1.9-1.9Z"/>
    <path class="st4" d="M882.7-417.8c0-1.1.8-1.9,1.9-1.9h0c1.1,0,1.9.8,1.9,1.9h0c0,1-.8,1.9-1.9,1.9h0c-1,0-1.9-.9-1.9-1.9Z"/>
    <path class="st4" d="M882.7-452.5c0-1,.8-1.9,1.9-1.9h0c1.1,0,1.9.9,1.9,1.9h0c0,1.1-.8,1.9-1.9,1.9h0c-1,0-1.9-.8-1.9-1.9Z"/>
    <path class="st4" d="M848.7-348.3c0-1.8,1.5-3.3,3.3-3.3h0c1.8,0,3.3,1.5,3.3,3.3h0c0,1.8-1.5,3.3-3.3,3.3h0c-1.8,0-3.3-1.5-3.3-3.3Z"/>
    <path class="st4" d="M848.7-383.1c0-1.8,1.5-3.3,3.3-3.3h0c1.8,0,3.3,1.5,3.3,3.3h0c0,1.8-1.5,3.3-3.3,3.3h0c-1.8,0-3.3-1.5-3.3-3.3Z"/>
    <path class="st4" d="M850.1-417.8c0-1.1.9-1.9,1.9-1.9h0c1,0,1.9.8,1.9,1.9h0c0,1-.8,1.9-1.9,1.9h0c-1.1,0-1.9-.9-1.9-1.9Z"/>
    <path class="st4" d="M850.1-452.5c0-1,.9-1.9,1.9-1.9h0c1,0,1.9.9,1.9,1.9h0c0,1.1-.8,1.9-1.9,1.9h0c-1.1,0-1.9-.8-1.9-1.9Z"/>
  </g>
  <g>
    <path class="st4" d="M1275.8-301.4c0-1.1.9-1.9,1.9-1.9h0c1.1,0,1.9.8,1.9,1.9h0c0,1-.8,1.9-1.9,1.9h0c-1,0-1.9-.9-1.9-1.9Z"/>
    <path class="st4" d="M1273.9-336.2c0-2.1,1.7-3.8,3.8-3.8h0c2.1,0,3.8,1.7,3.8,3.8h0c0,2.1-1.7,3.8-3.8,3.8h0c-2.1,0-3.8-1.7-3.8-3.8Z"/>
    <path class="st4" d="M1275.8-370.9c0-1.1.9-1.9,1.9-1.9h0c1.1,0,1.9.8,1.9,1.9h0c0,1-.8,1.9-1.9,1.9h0c-1,0-1.9-.9-1.9-1.9Z"/>
    <path class="st4" d="M1243.2-266.7c0-1,.8-1.9,1.9-1.9h0c1,0,1.9.8,1.9,1.9h0c0,1.1-.8,1.9-1.9,1.9h0c-1.1,0-1.9-.8-1.9-1.9Z"/>
    <path class="st4" d="M1243.2-301.4c0-1.1.8-1.9,1.9-1.9h0c1,0,1.9.8,1.9,1.9h0c0,1-.8,1.9-1.9,1.9h0c-1.1,0-1.9-.9-1.9-1.9Z"/>
    <path class="st4" d="M1243.2-336.2c0-1,.8-1.9,1.9-1.9h0c1,0,1.9.9,1.9,1.9h0c0,1.1-.8,1.9-1.9,1.9h0c-1.1,0-1.9-.8-1.9-1.9Z"/>
    <path class="st4" d="M1243.2-370.9c0-1.1.8-1.9,1.9-1.9h0c1,0,1.9.8,1.9,1.9h0c0,1-.8,1.9-1.9,1.9h0c-1.1,0-1.9-.9-1.9-1.9Z"/>
    <path class="st4" d="M1204.9-266.7c0-4.2,3.4-7.6,7.6-7.6h0c4.2,0,7.6,3.4,7.6,7.6h0c0,4.2-3.4,7.6-7.6,7.6h0c-4.2,0-7.6-3.4-7.6-7.6Z"/>
    <path class="st4" d="M1205.8-301.4c0-3.7,3-6.6,6.6-6.6h0c3.7,0,6.6,3,6.6,6.6h0c0,3.7-3,6.6-6.6,6.6h0c-3.7,0-6.6-3-6.6-6.6Z"/>
    <path class="st4" d="M1210.6-336.2c0-1,.9-1.9,1.9-1.9h0c1.1,0,1.9.9,1.9,1.9h0c0,1.1-.8,1.9-1.9,1.9h0c-1,0-1.9-.8-1.9-1.9Z"/>
    <path class="st4" d="M1210.6-370.9c0-1.1.9-1.9,1.9-1.9h0c1.1,0,1.9.8,1.9,1.9h0c0,1-.8,1.9-1.9,1.9h0c-1,0-1.9-.9-1.9-1.9Z"/>
    <path class="st4" d="M1177.9-232c0-1.1.9-1.9,1.9-1.9h0c1,0,1.9.8,1.9,1.9h0c0,1-.8,1.9-1.9,1.9h0c-1.1,0-1.9-.9-1.9-1.9Z"/>
    <path class="st4" d="M1174.6-266.7c0-2.9,2.3-5.2,5.2-5.2h0c2.9,0,5.2,2.3,5.2,5.2h0c0,2.9-2.3,5.2-5.2,5.2h0c-2.9,0-5.2-2.3-5.2-5.2Z"/>
    <path class="st4" d="M1177.9-301.4c0-1.1.9-1.9,1.9-1.9h0c1.1,0,1.9.8,1.9,1.9h0c0,1-.8,1.9-1.9,1.9h0c-1,0-1.9-.9-1.9-1.9Z"/>
    <path class="st4" d="M1177.9-336.2c0-1,.9-1.9,1.9-1.9h0c1.1,0,1.9.9,1.9,1.9h0c0,1.1-.8,1.9-1.9,1.9h0c-1,0-1.9-.8-1.9-1.9Z"/>
    <path class="st4" d="M1177.1-370.9c0-1.6,1.3-2.8,2.8-2.8h0c1.6,0,2.8,1.3,2.8,2.8h0c0,1.6-1.3,2.8-2.8,2.8h0c-1.6,0-2.8-1.3-2.8-2.8Z"/>
    <path class="st4" d="M1177.9-405.6c0-1,.9-1.9,1.9-1.9h0c1.1,0,1.9.9,1.9,1.9h0c0,1.1-.8,1.9-1.9,1.9h0c-1,0-1.9-.8-1.9-1.9Z"/>
    <path class="st4" d="M1145.3-266.7c0-1,.8-1.9,1.9-1.9h0c1,0,1.9.9,1.9,1.9h0c0,1.1-.8,1.9-1.9,1.9h0c-1.1,0-1.9-.8-1.9-1.9Z"/>
    <path class="st4" d="M1145.3-301.4c0-1.1.8-1.9,1.9-1.9h0c1,0,1.9.8,1.9,1.9h0c0,1-.8,1.9-1.9,1.9h0c-1.1,0-1.9-.9-1.9-1.9Z"/>
    <path class="st4" d="M1143.4-336.2c0-2.1,1.7-3.8,3.8-3.8h0c2.1,0,3.8,1.7,3.8,3.8h0c0,2.1-1.7,3.8-3.8,3.8h0c-2.1,0-3.8-1.7-3.8-3.8Z"/>
    <path class="st4" d="M1145.3-370.9c0-1.1.8-1.9,1.9-1.9h0c1,0,1.9.8,1.9,1.9h0c0,1-.8,1.9-1.9,1.9h0c-1.1,0-1.9-.9-1.9-1.9Z"/>
    <path class="st4" d="M1145.3-405.6c0-1,.8-1.9,1.9-1.9h0c1,0,1.9.9,1.9,1.9h0c0,1.1-.8,1.9-1.9,1.9h0c-1.1,0-1.9-.8-1.9-1.9Z"/>
    <path class="st4" d="M1112.7-232c0-1.1.9-1.9,1.9-1.9h0c1.1,0,1.9.8,1.9,1.9h0c0,1-.8,1.9-1.9,1.9h0c-1,0-1.9-.9-1.9-1.9Z"/>
    <path class="st4" d="M1112.7-266.7c0-1,.9-1.9,1.9-1.9h0c1,0,1.9.9,1.9,1.9h0c0,1.1-.8,1.9-1.9,1.9h0c-1.1,0-1.9-.8-1.9-1.9Z"/>
    <path class="st4" d="M1112.7-301.4c0-1.1.9-1.9,1.9-1.9h0c1.1,0,1.9.8,1.9,1.9h0c0,1-.8,1.9-1.9,1.9h0c-1,0-1.9-.9-1.9-1.9Z"/>
    <path class="st4" d="M1112.7-336.2c0-1,.9-1.9,1.9-1.9h0c1,0,1.9.9,1.9,1.9h0c0,1.1-.8,1.9-1.9,1.9h0c-1.1,0-1.9-.9-1.9-1.9Z"/>
    <path class="st4" d="M1112.7-370.9c0-1.1.9-1.9,1.9-1.9h0c1,0,1.9.8,1.9,1.9h0c0,1-.8,1.9-1.9,1.9h0c-1.1,0-1.9-.9-1.9-1.9Z"/>
    <path class="st4" d="M1112.7-405.6c0-1,.9-1.9,1.9-1.9h0c1,0,1.9.9,1.9,1.9h0c0,1.1-.8,1.9-1.9,1.9h0c-1.1,0-1.9-.8-1.9-1.9Z"/>
    <path class="st4" d="M1080-232c0-1.1.9-1.9,1.9-1.9h0c1,0,1.9.8,1.9,1.9h0c0,1-.8,1.9-1.9,1.9h0c-1.1,0-1.9-.9-1.9-1.9Z"/>
    <path class="st4" d="M1077.2-266.7c0-2.6,2.1-4.7,4.7-4.7h0c2.6,0,4.7,2.1,4.7,4.7h0c0,2.6-2.1,4.7-4.7,4.7h0c-2.6,0-4.7-2.1-4.7-4.7Z"/>
    <path class="st4" d="M1080-301.4c0-1.1.9-1.9,1.9-1.9h0c1.1,0,1.9.8,1.9,1.9h0c0,1-.8,1.9-1.9,1.9h0c-1,0-1.9-.9-1.9-1.9Z"/>
    <path class="st4" d="M1079.1-336.2c0-1.6,1.3-2.8,2.8-2.8h0c1.6,0,2.8,1.3,2.8,2.8h0c0,1.6-1.3,2.8-2.8,2.8h0c-1.6,0-2.8-1.3-2.8-2.8Z"/>
    <path class="st4" d="M1080.1-370.9c0-1.1.8-1.9,1.9-1.9h0c1.1,0,1.9.8,1.9,1.9h0c0,1-.8,1.9-1.9,1.9h0c-1,0-1.9-.9-1.9-1.9Z"/>
    <path class="st4" d="M1080.1-405.6c0-1,.8-1.9,1.9-1.9h0c1.1,0,1.9.9,1.9,1.9h0c0,1.1-.8,1.9-1.9,1.9h0c-1,0-1.9-.8-1.9-1.9Z"/>
    <path class="st4" d="M1047.4-266.7c0-1,.9-1.9,1.9-1.9h0c1.1,0,1.9.9,1.9,1.9h0c0,1.1-.9,1.9-1.9,1.9h0c-1,0-1.9-.8-1.9-1.9Z"/>
    <path class="st4" d="M1047.4-301.4c0-1.1.9-1.9,1.9-1.9h0c1.1,0,1.9.8,1.9,1.9h0c0,1-.8,1.9-1.9,1.9h0c-1,0-1.9-.9-1.9-1.9Z"/>
    <path class="st4" d="M1046-336.2c0-1.8,1.5-3.3,3.3-3.3h0c1.8,0,3.3,1.5,3.3,3.3h0c0,1.8-1.5,3.3-3.3,3.3h0c-1.8,0-3.3-1.5-3.3-3.3Z"/>
    <path class="st4" d="M1047.4-370.9c0-1.1.9-1.9,1.9-1.9h0c1,0,1.9.8,1.9,1.9h0c0,1-.8,1.9-1.9,1.9h0c-1.1,0-1.9-.9-1.9-1.9Z"/>
    <path class="st4" d="M1014.8-232c0-1.1.8-1.9,1.9-1.9h0c1.1,0,1.9.8,1.9,1.9h0c0,1-.9,1.9-1.9,1.9h0c-1,0-1.9-.9-1.9-1.9Z"/>
    <path class="st4" d="M1014.8-266.7c0-1,.9-1.9,1.9-1.9h0c1.1,0,1.9.9,1.9,1.9h0c0,1.1-.9,1.9-1.9,1.9h0c-1,0-1.9-.8-1.9-1.9Z"/>
    <path class="st4" d="M1014.8-301.4c0-1.1.8-1.9,1.9-1.9h0c1,0,1.9.8,1.9,1.9h0c0,1-.9,1.9-1.9,1.9h0c-1.1,0-1.9-.9-1.9-1.9Z"/>
    <path class="st4" d="M982.2-266.7c0-1,.8-1.9,1.9-1.9h0c1.1,0,1.9.9,1.9,1.9h0c0,1.1-.8,1.9-1.9,1.9h0c-1,0-1.9-.8-1.9-1.9Z"/>
    <path class="st4" d="M1341.1-301.4c0-1.1.8-1.9,1.9-1.9h0c1.1,0,1.9.8,1.9,1.9h0c0,1-.8,1.9-1.9,1.9h0c-1,0-1.9-.9-1.9-1.9Z"/>
    <path class="st4" d="M1341.1-336.2c0-1,.8-1.9,1.9-1.9h0c1.1,0,1.9.8,1.9,1.9h0c0,1.1-.8,1.9-1.9,1.9h0c-1,0-1.9-.8-1.9-1.9Z"/>
    <path class="st4" d="M1341.1-370.9c0-1.1.8-1.9,1.9-1.9h0c1.1,0,1.9.8,1.9,1.9h0c0,1-.8,1.9-1.9,1.9h0c-1,0-1.9-.9-1.9-1.9Z"/>
    <path class="st4" d="M1341.1-405.6c0-1,.8-1.9,1.9-1.9h0c1.1,0,1.9.9,1.9,1.9h0c0,1.1-.8,1.9-1.9,1.9h0c-1,0-1.9-.8-1.9-1.9Z"/>
    <path class="st4" d="M1307.1-301.4c0-1.8,1.5-3.3,3.3-3.3h0c1.8,0,3.3,1.5,3.3,3.3h0c0,1.8-1.5,3.3-3.3,3.3h0c-1.8,0-3.3-1.5-3.3-3.3Z"/>
    <path class="st4" d="M1307.1-336.2c0-1.8,1.5-3.3,3.3-3.3h0c1.8,0,3.3,1.5,3.3,3.3h0c0,1.8-1.5,3.3-3.3,3.3h0c-1.8,0-3.3-1.5-3.3-3.3Z"/>
    <path class="st4" d="M1308.6-370.9c0-1.1.9-1.9,1.9-1.9h0c1,0,1.9.8,1.9,1.9h0c0,1-.8,1.9-1.9,1.9h0c-1.1,0-1.9-.9-1.9-1.9Z"/>
    <path class="st4" d="M1308.6-405.6c0-1,.9-1.9,1.9-1.9h0c1,0,1.9.9,1.9,1.9h0c0,1.1-.8,1.9-1.9,1.9h0c-1.1,0-1.9-.8-1.9-1.9Z"/>
  </g>
  <g>
    <g>
      <path class="st5" d="M672.4,320.6L152.9,459.8c-7.2,1.9-14.6-2.3-16.5-9.5l-4.3-16c-1.9-7.2,2.3-14.6,9.5-16.5l519.5-139.2c7.2-1.9,14.6,2.3,16.5,9.5l4.3,16c1.9,7.2-2.3,14.6-9.5,16.5h0Z"/>
      <path class="st5" d="M438.7,578v-223.6c0-18.6-15.1-33.7-33.7-33.7s-33.7,15.1-33.7,33.7v223.6h67.4Z"/>
      <path class="st8" d="M512.5,578h-214.9c-20.9,0-37.8,16.9-37.8,37.8v32.8c0,7,5.6,12.6,12.6,12.6h265.4c7,0,12.6-5.6,12.6-12.6v-32.8c0-20.9-16.9-37.8-37.8-37.8h0Z"/>
      <circle class="st8" cx="405" cy="372.4" r="15.9"/>
      <g>
        <g>
          <circle class="st1" cx="552.6" cy="166" r="107.2"/>
          <circle class="st7" cx="552.6" cy="166" r="80.4"/>
          <path class="st3" d="M594.3,176.8h-83.4c-5.9,0-10.8-4.8-10.8-10.8s4.8-10.8,10.8-10.8h83.4c5.9,0,10.8,4.8,10.8,10.8s-4.8,10.8-10.8,10.8Z"/>
        </g>
        <g>
          <circle class="st6" cx="179.4" cy="266" r="107.2"/>
          <circle class="st4" cx="179.4" cy="266" r="80.4"/>
          <g>
            <path class="st3" d="M221.1,276.8h-83.4c-5.9,0-10.8-4.8-10.8-10.8s4.8-10.8,10.8-10.8h83.4c5.9,0,10.8,4.8,10.8,10.8s-4.8,10.8-10.8,10.8Z"/>
            <path class="st3" d="M179.4,318.5c-5.9,0-10.8-4.8-10.8-10.8v-83.4c0-5.9,4.8-10.8,10.8-10.8s10.8,4.8,10.8,10.8v83.4c0,5.9-4.8,10.8-10.8,10.8Z"/>
          </g>
        </g>
        <path class="st5" d="M296.8,301.4l-201.4,54c-2.9.8-4.6,3.7-3.8,6.6l10.3,38.6c3.8,14.4,18.6,22.9,33,19l159.8-42.8c14.4-3.8,22.9-18.6,19-33l-10.3-38.6c-.8-2.9-3.7-4.6-6.6-3.8h0Z"/>
        <path class="st5" d="M670,201.5l-201.4,54c-2.9.8-4.6,3.7-3.8,6.6l10.3,38.6c3.8,14.4,18.6,22.9,33,19l159.8-42.8c14.4-3.8,22.9-18.6,19-33l-10.3-38.6c-.8-2.9-3.7-4.6-6.6-3.8h0Z"/>
      </g>
    </g>
    <g>
      <g>
        <path class="st2" d="M312.9,234.4c-3.4.9-3.4,5.7,0,6.7,21.3,5.7,38,22.4,43.7,43.7.9,3.4,5.7,3.4,6.7,0,5.7-21.3,22.4-38,43.7-43.7,3.4-.9,3.4-5.7,0-6.7-21.3-5.7-38-22.4-43.7-43.7-.9-3.4-5.7-3.4-6.7,0-5.7,21.3-22.4,38-43.7,43.7h0Z"/>
        <path class="st3" d="M359.9,292.7c-4.1,0-7.5-2.6-8.5-6.5-5.2-19.4-20.5-34.7-39.9-39.9-3.9-1.1-6.5-4.5-6.5-8.5s2.6-7.5,6.5-8.5c19.4-5.2,34.7-20.5,39.9-39.9,1.1-3.9,4.5-6.5,8.5-6.5s7.5,2.6,8.5,6.5c5.2,19.4,20.5,34.7,39.9,39.9,3.9,1.1,6.5,4.5,6.5,8.5s-2.6,7.5-6.5,8.5c-19.4,5.2-34.7,20.5-39.9,39.9-1.1,3.9-4.5,6.5-8.5,6.5h0ZM320.1,237.7c18.4,6.8,33,21.4,39.8,39.8,6.8-18.4,21.4-33,39.8-39.8-18.4-6.8-33-21.4-39.8-39.8-6.8,18.4-21.4,33-39.8,39.8ZM312.9,234.4h0,0Z"/>
      </g>
      <g>
        <path class="st2" d="M258,138.5c-2.5.7-2.5,4.2,0,4.8,15.4,4.2,27.5,16.2,31.6,31.6.7,2.5,4.2,2.5,4.8,0,4.2-15.4,16.2-27.5,31.6-31.6,2.5-.7,2.5-4.2,0-4.8-15.4-4.2-27.5-16.2-31.6-31.6-.7-2.5-4.2-2.5-4.8,0-4.2,15.4-16.2,27.5-31.6,31.6Z"/>
        <path class="st3" d="M292,182.2c-3.6,0-6.7-2.3-7.6-5.8-3.6-13.5-14.3-24.2-27.8-27.8-3.5-.9-5.8-4-5.8-7.6s2.3-6.7,5.8-7.6c13.5-3.6,24.2-14.3,27.8-27.8.9-3.5,4-5.8,7.6-5.8s6.7,2.3,7.6,5.8c3.6,13.5,14.3,24.2,27.8,27.8,3.5.9,5.8,4,5.8,7.6s-2.3,6.7-5.8,7.6c-13.5,3.6-24.2,14.3-27.8,27.8-.9,3.5-4,5.8-7.6,5.8ZM267.1,140.9c11,5,19.9,13.9,24.9,24.9,5-11,13.9-19.9,24.9-24.9-11-5-19.9-13.9-24.9-24.9-5,11-13.9,19.9-24.9,24.9ZM258,138.5h0,0Z"/>
      </g>
      <g>
        <path class="st2" d="M20.6,143.1c-3.3.9-3.3,5.5,0,6.4,20.5,5.5,36.6,21.6,42.1,42.1.9,3.3,5.5,3.3,6.4,0,5.5-20.5,21.6-36.6,42.1-42.1,3.3-.9,3.3-5.5,0-6.4-20.5-5.5-36.6-21.6-42.1-42.1-.9-3.3-5.5-3.3-6.4,0-5.5,20.5-21.6,36.6-42.1,42.1Z"/>
        <path class="st3" d="M65.9,199.4c-4,0-7.4-2.6-8.4-6.4-5-18.6-19.7-33.3-38.3-38.3-3.9-1-6.4-4.4-6.4-8.4s2.6-7.4,6.4-8.4h0c18.6-5,33.3-19.7,38.3-38.3,1-3.9,4.4-6.4,8.4-6.4s7.4,2.6,8.4,6.4c5,18.6,19.7,33.3,38.3,38.3,3.9,1,6.4,4.4,6.4,8.4s-2.6,7.4-6.4,8.4c-18.6,5-33.3,19.7-38.3,38.3-1,3.9-4.4,6.4-8.4,6.4ZM28.2,146.3c17.3,6.6,31.2,20.4,37.7,37.7,6.6-17.3,20.4-31.2,37.7-37.7-17.3-6.6-31.2-20.4-37.7-37.7-6.6,17.3-20.4,31.1-37.7,37.7ZM22,148.3s0,0,0,0Z"/>
      </g>
    </g>
    <path class="st3" d="M537.7,666.6h-265.4c-9.9,0-18-8.1-18-18v-32.8c0-23.8,19.4-43.2,43.2-43.2h68.4v-164.4s-211.7,56.7-211.7,56.7c-4.9,1.3-9.9.6-14.3-1.9-4.4-2.5-7.5-6.6-8.8-11.4l-4.3-16c-.9-3.3-.9-6.6,0-9.8-5.3-.2-10.4-1.6-15.1-4.3-7.5-4.3-12.8-11.3-15-19.6l-10.3-38.6c-1.5-5.7,1.9-11.6,7.6-13.2l8.2-2.2c-15.3-14.3-26.1-32.4-31.6-52.9-7.8-29.1-3.8-59.4,11.3-85.5s39.3-44.7,68.4-52.5c29.1-7.8,59.4-3.8,85.5,11.3,26.1,15,44.7,39.3,52.5,68.4,5.5,20.5,5.1,41.6-.9,61.6l8.2-2.2c2.8-.7,5.7-.4,8.2,1.1,2.5,1.4,4.3,3.8,5,6.5l10.3,38.6c2.1,8,1.1,16.1-2.4,22.9l49.5-13.3c1.2-20.5,18.2-36.7,39-36.7s25.4,6.6,32.6,17.6l45.8-12.3c-6.4-4.2-11.4-10.7-13.5-18.7l-10.3-38.6c-.7-2.8-.4-5.7,1.1-8.2s3.8-4.3,6.5-5l8.2-2.2c-15.3-14.3-26.1-32.4-31.6-52.9-16.1-60,19.7-121.9,79.6-137.9,60-16.1,121.9,19.7,137.9,79.6,5.5,20.5,5.1,41.6-.9,61.6l8.2-2.2c2.8-.7,5.7-.4,8.2,1.1,2.5,1.4,4.3,3.8,5,6.5l10.3,38.6c2.2,8.3,1.1,17-3.2,24.5-2.7,4.7-6.5,8.5-10.9,11.3,2.3,2.3,4,5.2,4.9,8.5l4.3,16c1.3,4.9.6,9.9-1.9,14.3-2.5,4.4-6.6,7.5-11.4,8.8l-229.7,61.5v185.3h68.4c23.8,0,43.2,19.4,43.2,43.2v32.8c0,9.9-8.1,18-18,18h0ZM297.6,583.4c-17.9,0-32.5,14.6-32.5,32.5v32.8c0,4,3.2,7.2,7.2,7.2h265.4c4,0,7.2-3.2,7.2-7.2v-32.8c0-17.9-14.6-32.5-32.5-32.5h-73.8c-1.4,0-2.8-.6-3.8-1.6s-1.6-2.4-1.6-3.8v-194.8c0-2.4,1.6-4.6,4-5.2l233.7-62.6c2.1-.6,3.8-1.9,4.9-3.8s1.4-4,.8-6.1l-4.3-16c-.6-2.1-1.9-3.8-3.8-4.9-1.9-1.1-4-1.4-6.1-.8h0c-2.9.8-5.8-.9-6.6-3.8-.8-2.9.9-5.8,3.8-6.6l6.7-1.8c5.6-1.5,10.2-5.1,13.1-10,2.9-5,3.6-10.8,2.2-16.3l-10.3-38.6-18.1,4.8c-2,.5-4.1-.1-5.4-1.6s-1.7-3.7-1-5.6c8.4-20.7,9.8-43,4-64.6-14.5-54.3-70.5-86.6-124.8-72-54.2,14.5-86.6,70.5-72,124.7,5.8,21.6,18.2,40.3,35.8,54,1.6,1.3,2.4,3.3,2,5.3-.4,2-1.9,3.6-3.9,4.1l-18.1,4.8,10.3,38.6c3.1,11.5,14.9,18.3,26.3,15.2h0c2.9-.8,5.8.9,6.6,3.8.8,2.9-.9,5.8-3.8,6.6l-73,19.6c-2.5.7-5-.5-6.2-2.8-4.9-9.6-14.5-15.5-25.2-15.5-15.6,0-28.3,12.7-28.3,28.3v1.8c0,2.4-1.6,4.6-4,5.2l-76.6,20.5s0,0,0,0c-2.9.8-5.8-.9-6.6-3.8-.8-2.9.9-5.8,3.8-6.6h0c11.4-3.1,18.2-14.9,15.2-26.4l-10.3-38.6-18.1,4.8c-2,.5-4.1-.1-5.4-1.6s-1.7-3.7-1-5.6c8.4-20.7,9.8-43,4-64.6-7-26.3-23.9-48.2-47.5-61.8-23.6-13.6-51-17.2-77.3-10.2-26.3,7-48.2,23.9-61.9,47.5-13.6,23.6-17.2,51-10.2,77.3,5.8,21.6,18.2,40.3,35.8,54,1.6,1.3,2.4,3.3,2,5.3-.4,2-1.9,3.6-3.9,4.1l-18.1,4.8,10.3,38.6c1.5,5.6,5.1,10.2,10,13.1,5,2.9,10.8,3.6,16.3,2.2l6.7-1.8c2.9-.8,5.8.9,6.6,3.8s-.9,5.8-3.8,6.6c-2.1.6-3.8,1.9-4.9,3.8s-1.4,4-.8,6.1l4.3,16c.6,2.1,1.9,3.8,3.8,4.9,1.9,1.1,4,1.4,6.1.8l218.5-58.5c1.6-.4,3.3,0,4.7.9,1.3,1,2.1,2.6,2.1,4.3v176.8c0,3-2.4,5.4-5.4,5.4h-73.7Z"/>
  </g>
</svg>