<?xml version="1.0" encoding="UTF-8"?>
<svg id="Layer_1" xmlns="http://www.w3.org/2000/svg" version="1.1" viewBox="0 0 720 720">
  <!-- Generator: Adobe Illustrator 29.7.1, SVG Export Plug-In . SVG Version: 2.1.1 Build 8)  -->
  <defs>
    <style>
      .st0 {
        fill: #ffd873;
      }

      .st1 {
        fill: #ffc431;
      }

      .st2 {
        fill: #293553;
      }

      .st3 {
        fill: #fff;
      }

      .st4 {
        fill: #06a27a;
      }

      .st5 {
        fill: #f8f3f1;
      }

      .st6 {
        fill: #73d6bb;
      }
    </style>
  </defs>
  <rect class="st3" width="720" height="720"/>
  <g>
    <path class="st4" d="M128.4,559c0,1.1-.9,1.9-1.9,1.9h0c-1.1,0-1.9-.8-1.9-1.9h0c0-1,.8-1.9,1.9-1.9h0c1,0,1.9.9,1.9,1.9Z"/>
    <path class="st4" d="M130.3,593.7c0,2.1-1.7,3.8-3.8,3.8h0c-2.1,0-3.8-1.7-3.8-3.8h0c0-2.1,1.7-3.8,3.8-3.8h0c2.1,0,3.8,1.7,3.8,3.8Z"/>
    <path class="st4" d="M128.4,628.4c0,1.1-.9,1.9-1.9,1.9h0c-1.1,0-1.9-.8-1.9-1.9h0c0-1,.8-1.9,1.9-1.9h0c1,0,1.9.9,1.9,1.9Z"/>
    <path class="st4" d="M161,524.2c0,1-.8,1.9-1.9,1.9h0c-1,0-1.9-.8-1.9-1.9h0c0-1.1.8-1.9,1.9-1.9h0c1.1,0,1.9.8,1.9,1.9Z"/>
    <path class="st4" d="M161,559c0,1.1-.8,1.9-1.9,1.9h0c-1,0-1.9-.8-1.9-1.9h0c0-1,.8-1.9,1.9-1.9h0c1.1,0,1.9.9,1.9,1.9Z"/>
    <path class="st4" d="M161,593.7c0,1-.8,1.9-1.9,1.9h0c-1,0-1.9-.9-1.9-1.9h0c0-1.1.8-1.9,1.9-1.9h0c1.1,0,1.9.8,1.9,1.9Z"/>
    <path class="st4" d="M161,628.4c0,1.1-.8,1.9-1.9,1.9h0c-1,0-1.9-.8-1.9-1.9h0c0-1,.8-1.9,1.9-1.9h0c1.1,0,1.9.9,1.9,1.9Z"/>
    <path class="st4" d="M199.4,524.2c0,4.2-3.4,7.6-7.6,7.6h0c-4.2,0-7.6-3.4-7.6-7.6h0c0-4.2,3.4-7.6,7.6-7.6h0c4.2,0,7.6,3.4,7.6,7.6Z"/>
    <path class="st4" d="M198.4,559c0,3.7-3,6.6-6.6,6.6h0c-3.7,0-6.6-3-6.6-6.6h0c0-3.7,3-6.6,6.6-6.6h0c3.7,0,6.6,3,6.6,6.6Z"/>
    <path class="st4" d="M193.7,593.7c0,1-.9,1.9-1.9,1.9h0c-1.1,0-1.9-.9-1.9-1.9h0c0-1.1.8-1.9,1.9-1.9h0c1,0,1.9.8,1.9,1.9Z"/>
    <path class="st4" d="M193.7,628.4c0,1.1-.9,1.9-1.9,1.9h0c-1.1,0-1.9-.8-1.9-1.9h0c0-1,.8-1.9,1.9-1.9h0c1,0,1.9.9,1.9,1.9Z"/>
    <path class="st4" d="M226.3,489.5c0,1.1-.9,1.9-1.9,1.9h0c-1,0-1.9-.8-1.9-1.9h0c0-1,.8-1.9,1.9-1.9h0c1.1,0,1.9.9,1.9,1.9Z"/>
    <path class="st4" d="M229.6,524.2c0,2.9-2.3,5.2-5.2,5.2h0c-2.9,0-5.2-2.3-5.2-5.2h0c0-2.9,2.3-5.2,5.2-5.2h0c2.9,0,5.2,2.3,5.2,5.2Z"/>
    <path class="st4" d="M226.3,559c0,1.1-.9,1.9-1.9,1.9h0c-1.1,0-1.9-.8-1.9-1.9h0c0-1,.8-1.9,1.9-1.9h0c1,0,1.9.9,1.9,1.9Z"/>
    <path class="st4" d="M226.3,593.7c0,1-.9,1.9-1.9,1.9h0c-1.1,0-1.9-.9-1.9-1.9h0c0-1.1.8-1.9,1.9-1.9h0c1,0,1.9.8,1.9,1.9Z"/>
    <path class="st4" d="M227.3,628.4c0,1.6-1.3,2.8-2.8,2.8h0c-1.6,0-2.8-1.3-2.8-2.8h0c0-1.6,1.3-2.8,2.8-2.8h0c1.6,0,2.8,1.3,2.8,2.8Z"/>
    <path class="st4" d="M226.3,663.2c0,1-.9,1.9-1.9,1.9h0c-1.1,0-1.9-.9-1.9-1.9h0c0-1.1.8-1.9,1.9-1.9h0c1,0,1.9.8,1.9,1.9Z"/>
    <path class="st4" d="M258.9,524.2c0,1-.8,1.9-1.9,1.9h0c-1,0-1.9-.9-1.9-1.9h0c0-1.1.8-1.9,1.9-1.9h0c1.1,0,1.9.8,1.9,1.9Z"/>
    <path class="st4" d="M258.9,559c0,1.1-.8,1.9-1.9,1.9h0c-1,0-1.9-.8-1.9-1.9h0c0-1,.8-1.9,1.9-1.9h0c1.1,0,1.9.9,1.9,1.9Z"/>
    <path class="st4" d="M260.8,593.7c0,2.1-1.7,3.8-3.8,3.8h0c-2.1,0-3.8-1.7-3.8-3.8h0c0-2.1,1.7-3.8,3.8-3.8h0c2.1,0,3.8,1.7,3.8,3.8Z"/>
    <path class="st4" d="M258.9,628.4c0,1.1-.8,1.9-1.9,1.9h0c-1,0-1.9-.8-1.9-1.9h0c0-1,.8-1.9,1.9-1.9h0c1.1,0,1.9.9,1.9,1.9Z"/>
    <path class="st4" d="M258.9,663.2c0,1-.8,1.9-1.9,1.9h0c-1,0-1.9-.9-1.9-1.9h0c0-1.1.8-1.9,1.9-1.9h0c1.1,0,1.9.8,1.9,1.9Z"/>
    <path class="st4" d="M291.6,489.5c0,1.1-.9,1.9-1.9,1.9h0c-1.1,0-1.9-.8-1.9-1.9h0c0-1,.8-1.9,1.9-1.9h0c1,0,1.9.9,1.9,1.9Z"/>
    <path class="st4" d="M291.6,524.2c0,1-.9,1.9-1.9,1.9h0c-1,0-1.9-.9-1.9-1.9h0c0-1.1.8-1.9,1.9-1.9h0c1.1,0,1.9.8,1.9,1.9Z"/>
    <path class="st4" d="M291.6,559c0,1.1-.9,1.9-1.9,1.9h0c-1.1,0-1.9-.8-1.9-1.9h0c0-1,.8-1.9,1.9-1.9h0c1,0,1.9.9,1.9,1.9Z"/>
    <path class="st4" d="M291.6,593.7c0,1-.9,1.9-1.9,1.9h0c-1,0-1.9-.9-1.9-1.9h0c0-1.1.8-1.9,1.9-1.9h0c1.1,0,1.9.9,1.9,1.9Z"/>
    <path class="st4" d="M291.6,628.4c0,1.1-.9,1.9-1.9,1.9h0c-1,0-1.9-.8-1.9-1.9h0c0-1,.8-1.9,1.9-1.9h0c1.1,0,1.9.9,1.9,1.9Z"/>
    <path class="st4" d="M291.6,663.2c0,1-.9,1.9-1.9,1.9h0c-1,0-1.9-.9-1.9-1.9h0c0-1.1.8-1.9,1.9-1.9h0c1.1,0,1.9.8,1.9,1.9Z"/>
    <path class="st4" d="M324.2,489.5c0,1.1-.9,1.9-1.9,1.9h0c-1,0-1.9-.8-1.9-1.9h0c0-1,.8-1.9,1.9-1.9h0c1.1,0,1.9.9,1.9,1.9Z"/>
    <path class="st4" d="M327,524.2c0,2.6-2.1,4.7-4.7,4.7h0c-2.6,0-4.7-2.1-4.7-4.7h0c0-2.6,2.1-4.7,4.7-4.7h0c2.6,0,4.7,2.1,4.7,4.7Z"/>
    <path class="st4" d="M324.2,559c0,1.1-.9,1.9-1.9,1.9h0c-1.1,0-1.9-.8-1.9-1.9h0c0-1,.8-1.9,1.9-1.9h0c1,0,1.9.9,1.9,1.9Z"/>
    <path class="st4" d="M325.1,593.7c0,1.6-1.3,2.8-2.8,2.8h0c-1.6,0-2.8-1.3-2.8-2.8h0c0-1.6,1.3-2.8,2.8-2.8h0c1.6,0,2.8,1.3,2.8,2.8Z"/>
    <path class="st4" d="M324.2,628.4c0,1.1-.8,1.9-1.9,1.9h0c-1.1,0-1.9-.8-1.9-1.9h0c0-1,.8-1.9,1.9-1.9h0c1,0,1.9.9,1.9,1.9Z"/>
    <path class="st4" d="M324.2,663.2c0,1-.8,1.9-1.9,1.9h0c-1.1,0-1.9-.9-1.9-1.9h0c0-1.1.8-1.9,1.9-1.9h0c1,0,1.9.8,1.9,1.9Z"/>
    <path class="st4" d="M356.8,524.2c0,1-.9,1.9-1.9,1.9h0c-1.1,0-1.9-.9-1.9-1.9h0c0-1.1.9-1.9,1.9-1.9h0c1,0,1.9.8,1.9,1.9Z"/>
    <path class="st4" d="M356.8,559c0,1.1-.9,1.9-1.9,1.9h0c-1.1,0-1.9-.8-1.9-1.9h0c0-1,.8-1.9,1.9-1.9h0c1,0,1.9.9,1.9,1.9Z"/>
    <path class="st4" d="M358.3,593.7c0,1.8-1.5,3.3-3.3,3.3h0c-1.8,0-3.3-1.5-3.3-3.3h0c0-1.8,1.5-3.3,3.3-3.3h0c1.8,0,3.3,1.5,3.3,3.3Z"/>
    <path class="st4" d="M356.8,628.4c0,1.1-.9,1.9-1.9,1.9h0c-1,0-1.9-.8-1.9-1.9h0c0-1,.8-1.9,1.9-1.9h0c1.1,0,1.9.9,1.9,1.9Z"/>
    <path class="st4" d="M389.5,489.5c0,1.1-.8,1.9-1.9,1.9h0c-1.1,0-1.9-.8-1.9-1.9h0c0-1,.9-1.9,1.9-1.9h0c1,0,1.9.9,1.9,1.9Z"/>
    <path class="st4" d="M389.5,524.2c0,1-.9,1.9-1.9,1.9h0c-1.1,0-1.9-.9-1.9-1.9h0c0-1.1.9-1.9,1.9-1.9h0c1,0,1.9.8,1.9,1.9Z"/>
    <path class="st4" d="M389.5,559c0,1.1-.8,1.9-1.9,1.9h0c-1,0-1.9-.8-1.9-1.9h0c0-1,.9-1.9,1.9-1.9h0c1.1,0,1.9.9,1.9,1.9Z"/>
    <path class="st4" d="M422.1,524.2c0,1-.8,1.9-1.9,1.9h0c-1.1,0-1.9-.9-1.9-1.9h0c0-1.1.8-1.9,1.9-1.9h0c1,0,1.9.8,1.9,1.9Z"/>
    <path class="st4" d="M63.2,559c0,1.1-.8,1.9-1.9,1.9h0c-1.1,0-1.9-.8-1.9-1.9h0c0-1,.8-1.9,1.9-1.9h0c1,0,1.9.9,1.9,1.9Z"/>
    <path class="st4" d="M63.2,593.7c0,1-.8,1.9-1.9,1.9h0c-1.1,0-1.9-.8-1.9-1.9h0c0-1.1.8-1.9,1.9-1.9h0c1,0,1.9.8,1.9,1.9Z"/>
    <path class="st4" d="M63.2,628.4c0,1.1-.8,1.9-1.9,1.9h0c-1.1,0-1.9-.8-1.9-1.9h0c0-1,.8-1.9,1.9-1.9h0c1,0,1.9.9,1.9,1.9Z"/>
    <path class="st4" d="M63.2,663.2c0,1-.8,1.9-1.9,1.9h0c-1.1,0-1.9-.9-1.9-1.9h0c0-1.1.8-1.9,1.9-1.9h0c1,0,1.9.8,1.9,1.9Z"/>
    <path class="st4" d="M97.2,559c0,1.8-1.5,3.3-3.3,3.3h0c-1.8,0-3.3-1.5-3.3-3.3h0c0-1.8,1.5-3.3,3.3-3.3h0c1.8,0,3.3,1.5,3.3,3.3Z"/>
    <path class="st4" d="M97.2,593.7c0,1.8-1.5,3.3-3.3,3.3h0c-1.8,0-3.3-1.5-3.3-3.3h0c0-1.8,1.5-3.3,3.3-3.3h0c1.8,0,3.3,1.5,3.3,3.3Z"/>
    <path class="st4" d="M95.8,628.4c0,1.1-.9,1.9-1.9,1.9h0c-1,0-1.9-.8-1.9-1.9h0c0-1,.8-1.9,1.9-1.9h0c1.1,0,1.9.9,1.9,1.9Z"/>
    <path class="st4" d="M95.8,663.2c0,1-.9,1.9-1.9,1.9h0c-1,0-1.9-.9-1.9-1.9h0c0-1.1.8-1.9,1.9-1.9h0c1.1,0,1.9.8,1.9,1.9Z"/>
  </g>
  <g>
    <path class="st4" d="M173.6,475c0-1.1.9-1.9,1.9-1.9h0c1.1,0,1.9.8,1.9,1.9h0c0,1-.8,1.9-1.9,1.9h0c-1,0-1.9-.9-1.9-1.9Z"/>
    <path class="st4" d="M171.7,440.2c0-2.1,1.7-3.8,3.8-3.8h0c2.1,0,3.8,1.7,3.8,3.8h0c0,2.1-1.7,3.8-3.8,3.8h0c-2.1,0-3.8-1.7-3.8-3.8Z"/>
    <path class="st4" d="M173.6,405.5c0-1.1.9-1.9,1.9-1.9h0c1.1,0,1.9.8,1.9,1.9h0c0,1-.8,1.9-1.9,1.9h0c-1,0-1.9-.9-1.9-1.9Z"/>
    <path class="st4" d="M140.9,509.7c0-1,.8-1.9,1.9-1.9h0c1,0,1.9.8,1.9,1.9h0c0,1.1-.8,1.9-1.9,1.9h0c-1.1,0-1.9-.8-1.9-1.9Z"/>
    <path class="st4" d="M140.9,475c0-1.1.8-1.9,1.9-1.9h0c1,0,1.9.8,1.9,1.9h0c0,1-.8,1.9-1.9,1.9h0c-1.1,0-1.9-.9-1.9-1.9Z"/>
    <path class="st4" d="M140.9,440.2c0-1,.8-1.9,1.9-1.9h0c1,0,1.9.9,1.9,1.9h0c0,1.1-.8,1.9-1.9,1.9h0c-1.1,0-1.9-.8-1.9-1.9Z"/>
    <path class="st4" d="M140.9,405.5c0-1.1.8-1.9,1.9-1.9h0c1,0,1.9.8,1.9,1.9h0c0,1-.8,1.9-1.9,1.9h0c-1.1,0-1.9-.9-1.9-1.9Z"/>
    <path class="st4" d="M102.6,509.7c0-4.2,3.4-7.6,7.6-7.6h0c4.2,0,7.6,3.4,7.6,7.6h0c0,4.2-3.4,7.6-7.6,7.6h0c-4.2,0-7.6-3.4-7.6-7.6h0Z"/>
    <path class="st4" d="M103.6,475c0-3.7,3-6.6,6.6-6.6h0c3.7,0,6.6,3,6.6,6.6h0c0,3.7-3,6.6-6.6,6.6h0c-3.7,0-6.6-3-6.6-6.6Z"/>
    <path class="st4" d="M108.3,440.2c0-1,.9-1.9,1.9-1.9h0c1.1,0,1.9.9,1.9,1.9h0c0,1.1-.8,1.9-1.9,1.9h0c-1,0-1.9-.8-1.9-1.9Z"/>
    <path class="st4" d="M108.3,405.5c0-1.1.9-1.9,1.9-1.9h0c1.1,0,1.9.8,1.9,1.9h0c0,1-.8,1.9-1.9,1.9h0c-1,0-1.9-.9-1.9-1.9Z"/>
    <path class="st4" d="M75.7,544.4c0-1.1.9-1.9,1.9-1.9h0c1,0,1.9.8,1.9,1.9h0c0,1-.8,1.9-1.9,1.9h0c-1.1,0-1.9-.9-1.9-1.9Z"/>
    <path class="st4" d="M72.4,509.7c0-2.9,2.3-5.2,5.2-5.2h0c2.9,0,5.2,2.3,5.2,5.2h0c0,2.9-2.3,5.2-5.2,5.2h0c-2.9,0-5.2-2.3-5.2-5.2Z"/>
    <path class="st4" d="M75.7,475c0-1.1.9-1.9,1.9-1.9h0c1.1,0,1.9.8,1.9,1.9h0c0,1-.8,1.9-1.9,1.9h0c-1,0-1.9-.9-1.9-1.9Z"/>
    <path class="st4" d="M75.7,440.2c0-1,.9-1.9,1.9-1.9h0c1.1,0,1.9.9,1.9,1.9h0c0,1.1-.8,1.9-1.9,1.9h0c-1,0-1.9-.8-1.9-1.9Z"/>
    <path class="st4" d="M74.7,405.5c0-1.6,1.3-2.8,2.8-2.8h0c1.6,0,2.8,1.3,2.8,2.8h0c0,1.6-1.3,2.8-2.8,2.8h0c-1.6,0-2.8-1.3-2.8-2.8Z"/>
    <path class="st4" d="M75.7,370.8c0-1,.9-1.9,1.9-1.9h0c1.1,0,1.9.9,1.9,1.9h0c0,1.1-.8,1.9-1.9,1.9h0c-1,0-1.9-.8-1.9-1.9Z"/>
    <path class="st4" d="M43.1,509.7c0-1,.8-1.9,1.9-1.9h0c1,0,1.9.9,1.9,1.9h0c0,1.1-.8,1.9-1.9,1.9h0c-1.1,0-1.9-.8-1.9-1.9Z"/>
    <path class="st4" d="M43.1,475c0-1.1.8-1.9,1.9-1.9h0c1,0,1.9.8,1.9,1.9h0c0,1-.8,1.9-1.9,1.9h0c-1.1,0-1.9-.9-1.9-1.9Z"/>
    <path class="st4" d="M41.2,440.2c0-2.1,1.7-3.8,3.8-3.8h0c2.1,0,3.8,1.7,3.8,3.8h0c0,2.1-1.7,3.8-3.8,3.8h0c-2.1,0-3.8-1.7-3.8-3.8Z"/>
    <path class="st4" d="M43.1,405.5c0-1.1.8-1.9,1.9-1.9h0c1,0,1.9.8,1.9,1.9h0c0,1-.8,1.9-1.9,1.9h0c-1.1,0-1.9-.9-1.9-1.9Z"/>
    <path class="st4" d="M43.1,370.8c0-1,.8-1.9,1.9-1.9h0c1,0,1.9.9,1.9,1.9h0c0,1.1-.8,1.9-1.9,1.9h0c-1.1,0-1.9-.8-1.9-1.9Z"/>
    <path class="st4" d="M10.4,544.4c0-1.1.9-1.9,1.9-1.9h0c1.1,0,1.9.8,1.9,1.9h0c0,1-.8,1.9-1.9,1.9h0c-1,0-1.9-.9-1.9-1.9Z"/>
    <path class="st4" d="M10.4,509.7c0-1,.9-1.9,1.9-1.9h0c1,0,1.9.9,1.9,1.9h0c0,1.1-.8,1.9-1.9,1.9h0c-1.1,0-1.9-.8-1.9-1.9Z"/>
    <path class="st4" d="M10.4,475c0-1.1.9-1.9,1.9-1.9h0c1.1,0,1.9.8,1.9,1.9h0c0,1-.8,1.9-1.9,1.9h0c-1,0-1.9-.9-1.9-1.9Z"/>
    <path class="st4" d="M10.4,440.2c0-1,.9-1.9,1.9-1.9h0c1,0,1.9.9,1.9,1.9h0c0,1.1-.8,1.9-1.9,1.9h0c-1.1,0-1.9-.9-1.9-1.9Z"/>
    <path class="st4" d="M10.4,405.5c0-1.1.9-1.9,1.9-1.9h0c1,0,1.9.8,1.9,1.9h0c0,1-.8,1.9-1.9,1.9h0c-1.1,0-1.9-.9-1.9-1.9Z"/>
    <path class="st4" d="M10.4,370.8c0-1,.9-1.9,1.9-1.9h0c1,0,1.9.9,1.9,1.9h0c0,1.1-.8,1.9-1.9,1.9h0c-1.1,0-1.9-.8-1.9-1.9Z"/>
    <path class="st4" d="M-22.2,544.4c0-1.1.9-1.9,1.9-1.9h0c1,0,1.9.8,1.9,1.9h0c0,1-.8,1.9-1.9,1.9h0c-1.1,0-1.9-.9-1.9-1.9Z"/>
    <path class="st4" d="M-25.1,509.7c0-2.6,2.1-4.7,4.7-4.7h0c2.6,0,4.7,2.1,4.7,4.7h0c0,2.6-2.1,4.7-4.7,4.7h0c-2.6,0-4.7-2.1-4.7-4.7Z"/>
    <path class="st4" d="M-22.2,475c0-1.1.9-1.9,1.9-1.9h0c1.1,0,1.9.8,1.9,1.9h0c0,1-.8,1.9-1.9,1.9h0c-1,0-1.9-.9-1.9-1.9Z"/>
    <path class="st4" d="M-23.2,440.2c0-1.6,1.3-2.8,2.8-2.8h0c1.6,0,2.8,1.3,2.8,2.8h0c0,1.6-1.3,2.8-2.8,2.8h0c-1.6,0-2.8-1.3-2.8-2.8Z"/>
    <path class="st4" d="M-22.2,405.5c0-1.1.8-1.9,1.9-1.9h0c1.1,0,1.9.8,1.9,1.9h0c0,1-.8,1.9-1.9,1.9h0c-1,0-1.9-.9-1.9-1.9Z"/>
    <path class="st4" d="M-22.2,370.8c0-1,.8-1.9,1.9-1.9h0c1.1,0,1.9.9,1.9,1.9h0c0,1.1-.8,1.9-1.9,1.9h0c-1,0-1.9-.8-1.9-1.9Z"/>
    <path class="st4" d="M-54.8,509.7c0-1,.9-1.9,1.9-1.9h0c1.1,0,1.9.9,1.9,1.9h0c0,1.1-.9,1.9-1.9,1.9h0c-1,0-1.9-.8-1.9-1.9Z"/>
    <path class="st4" d="M-54.8,475c0-1.1.9-1.9,1.9-1.9h0c1.1,0,1.9.8,1.9,1.9h0c0,1-.8,1.9-1.9,1.9h0c-1,0-1.9-.9-1.9-1.9Z"/>
    <path class="st4" d="M-56.3,440.2c0-1.8,1.5-3.3,3.3-3.3h0c1.8,0,3.3,1.5,3.3,3.3h0c0,1.8-1.5,3.3-3.3,3.3h0c-1.8,0-3.3-1.5-3.3-3.3Z"/>
    <path class="st4" d="M-54.8,405.5c0-1.1.9-1.9,1.9-1.9h0c1,0,1.9.8,1.9,1.9h0c0,1-.8,1.9-1.9,1.9h0c-1.1,0-1.9-.9-1.9-1.9Z"/>
    <path class="st4" d="M-87.5,544.4c0-1.1.8-1.9,1.9-1.9h0c1.1,0,1.9.8,1.9,1.9h0c0,1-.9,1.9-1.9,1.9h0c-1,0-1.9-.9-1.9-1.9Z"/>
    <path class="st4" d="M-87.5,509.7c0-1,.9-1.9,1.9-1.9h0c1.1,0,1.9.9,1.9,1.9h0c0,1.1-.9,1.9-1.9,1.9h0c-1,0-1.9-.8-1.9-1.9Z"/>
    <path class="st4" d="M-87.5,475c0-1.1.8-1.9,1.9-1.9h0c1,0,1.9.8,1.9,1.9h0c0,1-.9,1.9-1.9,1.9h0c-1.1,0-1.9-.9-1.9-1.9Z"/>
    <path class="st4" d="M-120.1,509.7c0-1,.8-1.9,1.9-1.9h0c1.1,0,1.9.9,1.9,1.9h0c0,1.1-.8,1.9-1.9,1.9h0c-1,0-1.9-.8-1.9-1.9Z"/>
    <path class="st4" d="M238.8,475c0-1.1.8-1.9,1.9-1.9h0c1.1,0,1.9.8,1.9,1.9h0c0,1-.8,1.9-1.9,1.9h0c-1,0-1.9-.9-1.9-1.9Z"/>
    <path class="st4" d="M238.8,440.2c0-1,.8-1.9,1.9-1.9h0c1.1,0,1.9.8,1.9,1.9h0c0,1.1-.8,1.9-1.9,1.9h0c-1,0-1.9-.8-1.9-1.9Z"/>
    <path class="st4" d="M238.8,405.5c0-1.1.8-1.9,1.9-1.9h0c1.1,0,1.9.8,1.9,1.9h0c0,1-.8,1.9-1.9,1.9h0c-1,0-1.9-.9-1.9-1.9Z"/>
    <path class="st4" d="M238.8,370.8c0-1,.8-1.9,1.9-1.9h0c1.1,0,1.9.9,1.9,1.9h0c0,1.1-.8,1.9-1.9,1.9h0c-1,0-1.9-.8-1.9-1.9Z"/>
    <path class="st4" d="M204.8,475c0-1.8,1.5-3.3,3.3-3.3h0c1.8,0,3.3,1.5,3.3,3.3h0c0,1.8-1.5,3.3-3.3,3.3h0c-1.8,0-3.3-1.5-3.3-3.3Z"/>
    <path class="st4" d="M204.8,440.2c0-1.8,1.5-3.3,3.3-3.3h0c1.8,0,3.3,1.5,3.3,3.3h0c0,1.8-1.5,3.3-3.3,3.3h0c-1.8,0-3.3-1.5-3.3-3.3Z"/>
    <path class="st4" d="M206.2,405.5c0-1.1.9-1.9,1.9-1.9h0c1,0,1.9.8,1.9,1.9h0c0,1-.8,1.9-1.9,1.9h0c-1.1,0-1.9-.9-1.9-1.9Z"/>
    <path class="st4" d="M206.2,370.8c0-1,.9-1.9,1.9-1.9h0c1,0,1.9.9,1.9,1.9h0c0,1.1-.8,1.9-1.9,1.9h0c-1.1,0-1.9-.8-1.9-1.9Z"/>
  </g>
  <g>
    <path class="st4" d="M631.9,521.9c0-1.1.9-1.9,1.9-1.9h0c1.1,0,1.9.8,1.9,1.9h0c0,1-.8,1.9-1.9,1.9h0c-1,0-1.9-.9-1.9-1.9Z"/>
    <path class="st4" d="M630,487.1c0-2.1,1.7-3.8,3.8-3.8h0c2.1,0,3.8,1.7,3.8,3.8h0c0,2.1-1.7,3.8-3.8,3.8h0c-2.1,0-3.8-1.7-3.8-3.8Z"/>
    <path class="st4" d="M631.9,452.4c0-1.1.9-1.9,1.9-1.9h0c1.1,0,1.9.8,1.9,1.9h0c0,1-.8,1.9-1.9,1.9h0c-1,0-1.9-.9-1.9-1.9Z"/>
    <path class="st4" d="M599.3,556.6c0-1,.8-1.9,1.9-1.9h0c1,0,1.9.8,1.9,1.9h0c0,1.1-.8,1.9-1.9,1.9h0c-1.1,0-1.9-.8-1.9-1.9Z"/>
    <path class="st4" d="M599.3,521.9c0-1.1.8-1.9,1.9-1.9h0c1,0,1.9.8,1.9,1.9h0c0,1-.8,1.9-1.9,1.9h0c-1.1,0-1.9-.9-1.9-1.9Z"/>
    <path class="st4" d="M599.3,487.1c0-1,.8-1.9,1.9-1.9h0c1,0,1.9.9,1.9,1.9h0c0,1.1-.8,1.9-1.9,1.9h0c-1.1,0-1.9-.8-1.9-1.9Z"/>
    <path class="st4" d="M599.3,452.4c0-1.1.8-1.9,1.9-1.9h0c1,0,1.9.8,1.9,1.9h0c0,1-.8,1.9-1.9,1.9h0c-1.1,0-1.9-.9-1.9-1.9Z"/>
    <path class="st4" d="M561,556.6c0-4.2,3.4-7.6,7.6-7.6h0c4.2,0,7.6,3.4,7.6,7.6h0c0,4.2-3.4,7.6-7.6,7.6h0c-4.2,0-7.6-3.4-7.6-7.6Z"/>
    <path class="st4" d="M561.9,521.9c0-3.7,3-6.6,6.6-6.6h0c3.7,0,6.6,3,6.6,6.6h0c0,3.7-3,6.6-6.6,6.6h0c-3.7,0-6.6-3-6.6-6.6Z"/>
    <path class="st4" d="M566.7,487.1c0-1,.9-1.9,1.9-1.9h0c1.1,0,1.9.9,1.9,1.9h0c0,1.1-.8,1.9-1.9,1.9h0c-1,0-1.9-.8-1.9-1.9Z"/>
    <path class="st4" d="M566.7,452.4c0-1.1.9-1.9,1.9-1.9h0c1.1,0,1.9.8,1.9,1.9h0c0,1-.8,1.9-1.9,1.9h0c-1,0-1.9-.9-1.9-1.9Z"/>
    <path class="st4" d="M534,591.3c0-1.1.9-1.9,1.9-1.9h0c1,0,1.9.8,1.9,1.9h0c0,1-.8,1.9-1.9,1.9h0c-1.1,0-1.9-.9-1.9-1.9Z"/>
    <path class="st4" d="M530.7,556.6c0-2.9,2.3-5.2,5.2-5.2h0c2.9,0,5.2,2.3,5.2,5.2h0c0,2.9-2.3,5.2-5.2,5.2h0c-2.9,0-5.2-2.3-5.2-5.2Z"/>
    <path class="st4" d="M534,521.9c0-1.1.9-1.9,1.9-1.9h0c1.1,0,1.9.8,1.9,1.9h0c0,1-.8,1.9-1.9,1.9h0c-1,0-1.9-.9-1.9-1.9Z"/>
    <path class="st4" d="M534,487.1c0-1,.9-1.9,1.9-1.9h0c1.1,0,1.9.9,1.9,1.9h0c0,1.1-.8,1.9-1.9,1.9h0c-1,0-1.9-.8-1.9-1.9Z"/>
    <path class="st4" d="M533.2,452.4c0-1.6,1.3-2.8,2.8-2.8h0c1.6,0,2.8,1.3,2.8,2.8h0c0,1.6-1.3,2.8-2.8,2.8h0c-1.6,0-2.8-1.3-2.8-2.8Z"/>
    <path class="st4" d="M534,417.7c0-1,.9-1.9,1.9-1.9h0c1.1,0,1.9.9,1.9,1.9h0c0,1.1-.8,1.9-1.9,1.9h0c-1,0-1.9-.8-1.9-1.9Z"/>
    <path class="st4" d="M501.4,556.6c0-1,.8-1.9,1.9-1.9h0c1,0,1.9.9,1.9,1.9h0c0,1.1-.8,1.9-1.9,1.9h0c-1.1,0-1.9-.8-1.9-1.9Z"/>
    <path class="st4" d="M501.4,521.9c0-1.1.8-1.9,1.9-1.9h0c1,0,1.9.8,1.9,1.9h0c0,1-.8,1.9-1.9,1.9h0c-1.1,0-1.9-.9-1.9-1.9Z"/>
    <path class="st4" d="M499.5,487.1c0-2.1,1.7-3.8,3.8-3.8h0c2.1,0,3.8,1.7,3.8,3.8h0c0,2.1-1.7,3.8-3.8,3.8h0c-2.1,0-3.8-1.7-3.8-3.8Z"/>
    <path class="st4" d="M501.4,452.4c0-1.1.8-1.9,1.9-1.9h0c1,0,1.9.8,1.9,1.9h0c0,1-.8,1.9-1.9,1.9h0c-1.1,0-1.9-.9-1.9-1.9Z"/>
    <path class="st4" d="M501.4,417.7c0-1,.8-1.9,1.9-1.9h0c1,0,1.9.9,1.9,1.9h0c0,1.1-.8,1.9-1.9,1.9h0c-1.1,0-1.9-.8-1.9-1.9Z"/>
    <path class="st4" d="M468.8,591.3c0-1.1.9-1.9,1.9-1.9h0c1.1,0,1.9.8,1.9,1.9h0c0,1-.8,1.9-1.9,1.9h0c-1,0-1.9-.9-1.9-1.9Z"/>
    <path class="st4" d="M468.8,556.6c0-1,.9-1.9,1.9-1.9h0c1,0,1.9.9,1.9,1.9h0c0,1.1-.8,1.9-1.9,1.9h0c-1.1,0-1.9-.8-1.9-1.9Z"/>
    <path class="st4" d="M468.8,521.9c0-1.1.9-1.9,1.9-1.9h0c1.1,0,1.9.8,1.9,1.9h0c0,1-.8,1.9-1.9,1.9h0c-1,0-1.9-.9-1.9-1.9Z"/>
    <path class="st4" d="M468.8,487.1c0-1,.9-1.9,1.9-1.9h0c1,0,1.9.9,1.9,1.9h0c0,1.1-.8,1.9-1.9,1.9h0c-1.1,0-1.9-.9-1.9-1.9Z"/>
    <path class="st4" d="M468.8,452.4c0-1.1.9-1.9,1.9-1.9h0c1,0,1.9.8,1.9,1.9h0c0,1-.8,1.9-1.9,1.9h0c-1.1,0-1.9-.9-1.9-1.9Z"/>
    <path class="st4" d="M468.8,417.7c0-1,.9-1.9,1.9-1.9h0c1,0,1.9.9,1.9,1.9h0c0,1.1-.8,1.9-1.9,1.9h0c-1.1,0-1.9-.8-1.9-1.9Z"/>
    <path class="st4" d="M436.1,591.3c0-1.1.9-1.9,1.9-1.9h0c1,0,1.9.8,1.9,1.9h0c0,1-.8,1.9-1.9,1.9h0c-1.1,0-1.9-.9-1.9-1.9Z"/>
    <path class="st4" d="M433.3,556.6c0-2.6,2.1-4.7,4.7-4.7h0c2.6,0,4.7,2.1,4.7,4.7h0c0,2.6-2.1,4.7-4.7,4.7h0c-2.6,0-4.7-2.1-4.7-4.7Z"/>
    <path class="st4" d="M436.1,521.9c0-1.1.9-1.9,1.9-1.9h0c1.1,0,1.9.8,1.9,1.9h0c0,1-.8,1.9-1.9,1.9h0c-1,0-1.9-.9-1.9-1.9Z"/>
    <path class="st4" d="M435.2,487.1c0-1.6,1.3-2.8,2.8-2.8h0c1.6,0,2.8,1.3,2.8,2.8h0c0,1.6-1.3,2.8-2.8,2.8h0c-1.6,0-2.8-1.3-2.8-2.8Z"/>
    <path class="st4" d="M436.2,452.4c0-1.1.8-1.9,1.9-1.9h0c1.1,0,1.9.8,1.9,1.9h0c0,1-.8,1.9-1.9,1.9h0c-1,0-1.9-.9-1.9-1.9Z"/>
    <path class="st4" d="M436.2,417.7c0-1,.8-1.9,1.9-1.9h0c1.1,0,1.9.9,1.9,1.9h0c0,1.1-.8,1.9-1.9,1.9h0c-1,0-1.9-.8-1.9-1.9Z"/>
    <path class="st4" d="M403.5,556.6c0-1,.9-1.9,1.9-1.9h0c1.1,0,1.9.9,1.9,1.9h0c0,1.1-.9,1.9-1.9,1.9h0c-1,0-1.9-.8-1.9-1.9Z"/>
    <path class="st4" d="M403.5,521.9c0-1.1.9-1.9,1.9-1.9h0c1.1,0,1.9.8,1.9,1.9h0c0,1-.8,1.9-1.9,1.9h0c-1,0-1.9-.9-1.9-1.9Z"/>
    <path class="st4" d="M402.1,487.1c0-1.8,1.5-3.3,3.3-3.3h0c1.8,0,3.3,1.5,3.3,3.3h0c0,1.8-1.5,3.3-3.3,3.3h0c-1.8,0-3.3-1.5-3.3-3.3Z"/>
    <path class="st4" d="M403.5,452.4c0-1.1.9-1.9,1.9-1.9h0c1,0,1.9.8,1.9,1.9h0c0,1-.8,1.9-1.9,1.9h0c-1.1,0-1.9-.9-1.9-1.9Z"/>
    <path class="st4" d="M370.9,591.3c0-1.1.8-1.9,1.9-1.9h0c1.1,0,1.9.8,1.9,1.9h0c0,1-.9,1.9-1.9,1.9h0c-1,0-1.9-.9-1.9-1.9Z"/>
    <path class="st4" d="M370.9,556.6c0-1,.9-1.9,1.9-1.9h0c1.1,0,1.9.9,1.9,1.9h0c0,1.1-.9,1.9-1.9,1.9h0c-1,0-1.9-.8-1.9-1.9Z"/>
    <path class="st4" d="M370.9,521.9c0-1.1.8-1.9,1.9-1.9h0c1,0,1.9.8,1.9,1.9h0c0,1-.9,1.9-1.9,1.9h0c-1.1,0-1.9-.9-1.9-1.9Z"/>
    <path class="st4" d="M338.3,556.6c0-1,.8-1.9,1.9-1.9h0c1.1,0,1.9.9,1.9,1.9h0c0,1.1-.8,1.9-1.9,1.9h0c-1,0-1.9-.8-1.9-1.9Z"/>
    <path class="st4" d="M697.2,521.9c0-1.1.8-1.9,1.9-1.9h0c1.1,0,1.9.8,1.9,1.9h0c0,1-.8,1.9-1.9,1.9h0c-1,0-1.9-.9-1.9-1.9Z"/>
    <path class="st4" d="M697.2,487.1c0-1,.8-1.9,1.9-1.9h0c1.1,0,1.9.8,1.9,1.9h0c0,1.1-.8,1.9-1.9,1.9h0c-1,0-1.9-.8-1.9-1.9Z"/>
    <path class="st4" d="M697.2,452.4c0-1.1.8-1.9,1.9-1.9h0c1.1,0,1.9.8,1.9,1.9h0c0,1-.8,1.9-1.9,1.9h0c-1,0-1.9-.9-1.9-1.9Z"/>
    <path class="st4" d="M697.2,417.7c0-1,.8-1.9,1.9-1.9h0c1.1,0,1.9.9,1.9,1.9h0c0,1.1-.8,1.9-1.9,1.9h0c-1,0-1.9-.8-1.9-1.9Z"/>
    <path class="st4" d="M663.2,521.9c0-1.8,1.5-3.3,3.3-3.3h0c1.8,0,3.3,1.5,3.3,3.3h0c0,1.8-1.5,3.3-3.3,3.3h0c-1.8,0-3.3-1.5-3.3-3.3Z"/>
    <path class="st4" d="M663.2,487.1c0-1.8,1.5-3.3,3.3-3.3h0c1.8,0,3.3,1.5,3.3,3.3h0c0,1.8-1.5,3.3-3.3,3.3h0c-1.8,0-3.3-1.5-3.3-3.3Z"/>
    <path class="st4" d="M664.7,452.4c0-1.1.9-1.9,1.9-1.9h0c1,0,1.9.8,1.9,1.9h0c0,1-.8,1.9-1.9,1.9h0c-1.1,0-1.9-.9-1.9-1.9Z"/>
    <path class="st4" d="M664.7,417.7c0-1,.9-1.9,1.9-1.9h0c1,0,1.9.9,1.9,1.9h0c0,1.1-.8,1.9-1.9,1.9h0c-1.1,0-1.9-.8-1.9-1.9Z"/>
  </g>
  <g>
    <path class="st5" d="M528.4,331.1c0,101.6-82.4,184-184,184s-184-82.4-184-184,.2-10.7.7-16c8.8-101.2,98.1-176.1,199.3-167.3,95.1,8.3,168,87.9,168,183.3Z"/>
    <path class="st4" d="M528.4,331.1c0,63.9-33.1,123.1-87.4,156.6l-40.6-44.6v-64h-32l-32-48,32-24h40l24-32-16-40,50-41.7c39.4,34.9,62,85,62,137.7Z"/>
    <rect class="st6" x="408.4" y="523.1" width="64" height="80"/>
    <rect class="st6" x="472.4" y="459.1" width="64" height="144"/>
    <rect class="st6" x="536.4" y="379.1" width="64" height="224"/>
    <path class="st4" d="M417.4,162.1l-57,57v48l-48,32-32-32h-40v-32l-37-22.2c52.3-62.3,139.3-82.9,214-50.8Z"/>
    <path class="st4" d="M320.4,387.1l-32,24v95.3c-76.3-24.4-128-95.3-128-175.3,0-5.4.2-10.7.7-16h47.3l24,32h64l24,40Z"/>
    <path class="st1" d="M216.4,395.1c0-8.8-17.9-16-40-16s-40,7.2-40,16v200c0,8.8,17.9,16,40,16s40-7.2,40-16v-200Z"/>
    <ellipse class="st0" cx="176.4" cy="395.1" rx="40" ry="16"/>
    <path class="st1" d="M296.4,475.1c0-8.8-17.9-16-40-16s-40,7.2-40,16v120c0,8.8,17.9,16,40,16s40-7.2,40-16v-120Z"/>
    <ellipse class="st0" cx="256.4" cy="475.1" rx="40" ry="16"/>
    <path class="st1" d="M376.4,515.1c0-8.8-17.9-16-40-16s-40,7.2-40,16v80c0,8.8,17.9,16,40,16s40-7.2,40-16v-80Z"/>
    <ellipse class="st0" cx="336.4" cy="515.1" rx="40" ry="16"/>
    <path class="st2" d="M600.4,371.1h-64c-4.4,0-8,3.6-8,8v72h-56c-4.4,0-8,3.6-8,8v56h-56c-4.4,0-8,3.6-8,8v72h-16v-80c0-4.5-2.2-12.9-16.7-18.7-8.5-3.4-19.6-5.3-31.3-5.3s-22.8,1.9-31.3,5.3c-.3.1-.5.2-.7.3v-21.6c0-4.5-2.2-12.9-16.7-18.7-8.5-3.4-19.6-5.3-31.3-5.3s-22.8,1.9-31.3,5.3c-.3.1-.5.2-.7.3v-61.6c0-4.5-2.2-12.9-16.7-18.7-8.5-3.4-19.6-5.3-31.3-5.3s-22.8,1.9-31.3,5.3c-14.6,5.8-16.7,14.2-16.7,18.7v200c0,4.5,2.2,12.9,16.7,18.7,8.5,3.4,19.6,5.3,31.3,5.3s22.8-1.9,31.3-5.3c3.1-1.2,6-2.8,8.7-4.7,2.7,2,5.6,3.5,8.7,4.7,8.5,3.4,19.6,5.3,31.3,5.3s22.8-1.9,31.3-5.3c3.1-1.2,6-2.8,8.7-4.7,2.7,2,5.6,3.5,8.7,4.7,8.5,3.4,19.6,5.3,31.3,5.3s22.8-1.9,31.3-5.3c2-.8,3.9-1.7,5.7-2.7h227.1c4.4,0,8-3.6,8-8v-224c0-4.4-3.6-8-8-8ZM144.4,533.5c.2.1.5.2.7.3,8.5,3.4,19.6,5.3,31.3,5.3s22.8-1.9,31.3-5.3c.3-.1.5-.2.7-.3v21.3c-1.4,2.5-12.5,8.3-32,8.3s-30.6-5.8-32-8.3v-21.3ZM144.4,493.5c.2.1.5.2.7.3,8.5,3.4,19.6,5.3,31.3,5.3s22.8-1.9,31.3-5.3c.3-.1.5-.2.7-.3v21.3c-1.4,2.5-12.5,8.3-32,8.3s-30.6-5.8-32-8.3v-21.3ZM144.4,453.5c.2.1.5.2.7.3,8.5,3.4,19.6,5.3,31.3,5.3s22.8-1.9,31.3-5.3c.3-.1.5-.2.7-.3v21.3c-1.4,2.5-12.5,8.3-32,8.3s-30.6-5.8-32-8.3v-21.3ZM144.4,413.5c.2.1.5.2.7.3,8.5,3.4,19.6,5.3,31.3,5.3s22.8-1.9,31.3-5.3c.3-.1.5-.2.7-.3v21.3c-1.4,2.5-12.5,8.3-32,8.3s-30.6-5.8-32-8.3v-21.3ZM256.4,523.1c-19.5,0-30.6-5.8-32-8.3v-21.3c.2.1.5.2.7.3,8.5,3.4,19.6,5.3,31.3,5.3s22.8-1.9,31.3-5.3c.3-.1.5-.2.7-.3v21.3c-1.4,2.5-12.5,8.3-32,8.3ZM224.4,533.5c.2.1.5.2.7.3,8.5,3.4,19.6,5.3,31.3,5.3s22.8-1.9,31.3-5.3c.3-.1.5-.2.7-.3v21.3c-1.4,2.5-12.5,8.3-32,8.3s-30.6-5.8-32-8.3v-21.3ZM304.4,533.5c.2.1.5.2.7.3,8.5,3.4,19.6,5.3,31.3,5.3s22.8-1.9,31.3-5.3c.3-.1.5-.2.7-.3v21.3c-1.4,2.5-12.5,8.3-32,8.3s-30.6-5.8-32-8.3v-21.3ZM336.4,507.1c18.8,0,29.8,5.4,31.8,8-2.1,2.6-13,8-31.8,8s-29.7-5.4-31.8-8c2-2.6,13-8,31.8-8ZM256.4,467.1c18.8,0,29.8,5.4,31.8,8-2.1,2.6-13,8-31.8,8s-29.7-5.4-31.8-8c2.1-2.6,13-8,31.8-8ZM176.4,387.1c18.8,0,29.8,5.4,31.8,8-2.1,2.6-13,8-31.8,8s-29.7-5.4-31.8-8c2-2.6,13-8,31.8-8ZM176.4,603.1c-19.5,0-30.6-5.8-32-8.3v-21.3c.2.1.5.2.7.3,8.5,3.4,19.6,5.3,31.3,5.3s22.8-1.9,31.3-5.3c.3-.1.5-.2.7-.3v21.3c-1.4,2.5-12.5,8.3-32,8.3ZM256.4,603.1c-19.5,0-30.6-5.8-32-8.3v-21.3c.2.1.5.2.7.3,8.5,3.4,19.6,5.3,31.3,5.3s22.8-1.9,31.3-5.3c.3-.1.5-.2.7-.3v21.3c-1.4,2.5-12.5,8.3-32,8.3ZM336.4,603.1c-19.5,0-30.6-5.8-32-8.3v-21.3c.2.1.5.2.7.3,8.5,3.4,19.6,5.3,31.3,5.3s22.8-1.9,31.3-5.3c.3-.1.5-.2.7-.3v21.3c-1.4,2.5-12.5,8.3-32,8.3ZM416.4,531.1h48v64h-48v-64ZM480.4,467.1h48v128h-48v-128ZM544.4,595.1v-208h48v208h-48Z"/>
    <rect class="st2" x="336.4" y="459.1" width="16" height="16"/>
    <path class="st2" d="M368.4,459.1v16h40c2.1,0,4.2-.8,5.7-2.3l162.3-162.3v12.7h16v-32c0-4.4-3.6-8-8-8h-32v16h12.7l-160,160h-36.7Z"/>
    <path class="st2" d="M474.5,189.9c-35.4-32.7-81.9-50.9-130.1-50.8-105.9,0-192,86.1-192,192,0,8.4.5,16.7,1.6,25l15.9-2.1c-1-7.6-1.5-15.3-1.5-23,0-2.7,0-5.3.2-8h35.8l21.6,28.8c1.5,2,3.9,3.2,6.4,3.2h59.5l18,29.9-26.2,19.7c-2,1.5-3.2,3.9-3.2,6.4v24h16v-20l28.8-21.6c3.3-2.5,4.2-7,2.1-10.5l-24-40c-1.4-2.4-4-3.9-6.9-3.9h-60l-21.6-28.8c-1.5-2-3.9-3.2-6.4-3.2h-38.4c4.2-30.5,16.4-59.4,35.3-83.7l27.1,16.2v27.5c0,4.4,3.6,8,8,8h36.7l29.7,29.7c2.7,2.7,6.9,3.1,10.1,1l48-32c2.2-1.5,3.6-4,3.6-6.7v-44.7l50.7-50.7c12.4,5.8,24.1,13.1,34.9,21.7l-42.7,35.6c-2.7,2.2-3.6,5.9-2.3,9.1l14.3,35.8-18.9,25.2h-36c-1.7,0-3.4.6-4.8,1.6l-32,24c-3.4,2.5-4.2,7.3-1.9,10.8l32,48c1.5,2.2,4,3.6,6.7,3.6h24v48h16v-56c0-4.4-3.6-8-8-8h-27.7l-25.4-38.1,23.8-17.9h37.3c2.5,0,4.9-1.2,6.4-3.2l24-32c1.7-2.2,2.1-5.2,1-7.8l-13.8-34.6,40.2-33.5c30.9,29.5,49.9,69.2,53.6,111.8l15.9-1.4c-4.1-47.7-25.9-92.1-61.2-124.5ZM354.8,213.4c-1.5,1.5-2.3,3.5-2.3,5.7v43.7l-39,26-27.4-27.4c-1.5-1.5-3.5-2.3-5.7-2.3h-32v-24c0-2.8-1.5-5.4-3.9-6.9l-28.7-17.2c47.7-51.2,121.2-69.2,187.2-45.9l-48.3,48.3Z"/>
  </g>
</svg>