<?xml version="1.0" encoding="UTF-8"?>
<svg id="Layer_1" xmlns="http://www.w3.org/2000/svg" xmlns:xlink="http://www.w3.org/1999/xlink" version="1.1" viewBox="0 0 720 720">
  <!-- Generator: Adobe Illustrator 29.7.1, SVG Export Plug-In . SVG Version: 2.1.1 Build 8)  -->
  <defs>
    <style>
      .st0 {
        fill: none;
      }

      .st1 {
        fill: #23f1a8;
      }

      .st2 {
        fill: #f89f8e;
      }

      .st3 {
        fill: #fdb0a0;
      }

      .st4 {
        fill: #fcc16d;
      }

      .st5 {
        fill: #293553;
      }

      .st6 {
        fill: #fff;
      }

      .st7 {
        fill: #06a27a;
      }

      .st8 {
        fill: #ffcec0;
      }

      .st9 {
        fill: #f8f3f1;
      }

      .st10 {
        fill: #c86f5c;
      }

      .st11 {
        fill: #73d6bb;
      }

      .st12 {
        fill: #64b9fc;
      }

      .st13 {
        fill: #9a5a9a;
      }

      .st14 {
        clip-path: url(#clippath);
      }
    </style>
    <clipPath id="clippath">
      <rect class="st0" x="130.7" y="146.6" width="480.4" height="480.4"/>
    </clipPath>
  </defs>
  <rect class="st6" width="720" height="720"/>
  <g>
    <path class="st7" d="M128.4,559c0,1.1-.9,1.9-1.9,1.9h0c-1.1,0-1.9-.8-1.9-1.9h0c0-1,.8-1.9,1.9-1.9h0c1,0,1.9.9,1.9,1.9Z"/>
    <path class="st7" d="M130.3,593.7c0,2.1-1.7,3.8-3.8,3.8h0c-2.1,0-3.8-1.7-3.8-3.8h0c0-2.1,1.7-3.8,3.8-3.8h0c2.1,0,3.8,1.7,3.8,3.8Z"/>
    <path class="st7" d="M128.4,628.4c0,1.1-.9,1.9-1.9,1.9h0c-1.1,0-1.9-.8-1.9-1.9h0c0-1,.8-1.9,1.9-1.9h0c1,0,1.9.9,1.9,1.9Z"/>
    <path class="st7" d="M161,524.2c0,1-.8,1.9-1.9,1.9h0c-1,0-1.9-.8-1.9-1.9h0c0-1.1.8-1.9,1.9-1.9h0c1.1,0,1.9.8,1.9,1.9Z"/>
    <path class="st7" d="M161,559c0,1.1-.8,1.9-1.9,1.9h0c-1,0-1.9-.8-1.9-1.9h0c0-1,.8-1.9,1.9-1.9h0c1.1,0,1.9.9,1.9,1.9Z"/>
    <path class="st7" d="M161,593.7c0,1-.8,1.9-1.9,1.9h0c-1,0-1.9-.9-1.9-1.9h0c0-1.1.8-1.9,1.9-1.9h0c1.1,0,1.9.8,1.9,1.9Z"/>
    <path class="st7" d="M161,628.4c0,1.1-.8,1.9-1.9,1.9h0c-1,0-1.9-.8-1.9-1.9h0c0-1,.8-1.9,1.9-1.9h0c1.1,0,1.9.9,1.9,1.9Z"/>
    <path class="st7" d="M199.4,524.2c0,4.2-3.4,7.6-7.6,7.6h0c-4.2,0-7.6-3.4-7.6-7.6h0c0-4.2,3.4-7.6,7.6-7.6h0c4.2,0,7.6,3.4,7.6,7.6Z"/>
    <path class="st7" d="M198.4,559c0,3.7-3,6.6-6.6,6.6h0c-3.7,0-6.6-3-6.6-6.6h0c0-3.7,3-6.6,6.6-6.6h0c3.7,0,6.6,3,6.6,6.6Z"/>
    <path class="st7" d="M193.7,593.7c0,1-.9,1.9-1.9,1.9h0c-1.1,0-1.9-.9-1.9-1.9h0c0-1.1.8-1.9,1.9-1.9h0c1,0,1.9.8,1.9,1.9Z"/>
    <path class="st7" d="M193.7,628.4c0,1.1-.9,1.9-1.9,1.9h0c-1.1,0-1.9-.8-1.9-1.9h0c0-1,.8-1.9,1.9-1.9h0c1,0,1.9.9,1.9,1.9Z"/>
    <path class="st7" d="M226.3,489.5c0,1.1-.9,1.9-1.9,1.9h0c-1,0-1.9-.8-1.9-1.9h0c0-1,.8-1.9,1.9-1.9h0c1.1,0,1.9.9,1.9,1.9Z"/>
    <path class="st7" d="M229.6,524.2c0,2.9-2.3,5.2-5.2,5.2h0c-2.9,0-5.2-2.3-5.2-5.2h0c0-2.9,2.3-5.2,5.2-5.2h0c2.9,0,5.2,2.3,5.2,5.2Z"/>
    <path class="st7" d="M226.3,559c0,1.1-.9,1.9-1.9,1.9h0c-1.1,0-1.9-.8-1.9-1.9h0c0-1,.8-1.9,1.9-1.9h0c1,0,1.9.9,1.9,1.9Z"/>
    <path class="st7" d="M226.3,593.7c0,1-.9,1.9-1.9,1.9h0c-1.1,0-1.9-.9-1.9-1.9h0c0-1.1.8-1.9,1.9-1.9h0c1,0,1.9.8,1.9,1.9Z"/>
    <path class="st7" d="M227.3,628.4c0,1.6-1.3,2.8-2.8,2.8h0c-1.6,0-2.8-1.3-2.8-2.8h0c0-1.6,1.3-2.8,2.8-2.8h0c1.6,0,2.8,1.3,2.8,2.8Z"/>
    <path class="st7" d="M226.3,663.2c0,1-.9,1.9-1.9,1.9h0c-1.1,0-1.9-.9-1.9-1.9h0c0-1.1.8-1.9,1.9-1.9h0c1,0,1.9.8,1.9,1.9Z"/>
    <path class="st7" d="M258.9,524.2c0,1-.8,1.9-1.9,1.9h0c-1,0-1.9-.9-1.9-1.9h0c0-1.1.8-1.9,1.9-1.9h0c1.1,0,1.9.8,1.9,1.9Z"/>
    <path class="st7" d="M258.9,559c0,1.1-.8,1.9-1.9,1.9h0c-1,0-1.9-.8-1.9-1.9h0c0-1,.8-1.9,1.9-1.9h0c1.1,0,1.9.9,1.9,1.9Z"/>
    <path class="st7" d="M260.8,593.7c0,2.1-1.7,3.8-3.8,3.8h0c-2.1,0-3.8-1.7-3.8-3.8h0c0-2.1,1.7-3.8,3.8-3.8h0c2.1,0,3.8,1.7,3.8,3.8Z"/>
    <path class="st7" d="M258.9,628.4c0,1.1-.8,1.9-1.9,1.9h0c-1,0-1.9-.8-1.9-1.9h0c0-1,.8-1.9,1.9-1.9h0c1.1,0,1.9.9,1.9,1.9Z"/>
    <path class="st7" d="M258.9,663.2c0,1-.8,1.9-1.9,1.9h0c-1,0-1.9-.9-1.9-1.9h0c0-1.1.8-1.9,1.9-1.9h0c1.1,0,1.9.8,1.9,1.9Z"/>
    <path class="st7" d="M291.6,489.5c0,1.1-.9,1.9-1.9,1.9h0c-1.1,0-1.9-.8-1.9-1.9h0c0-1,.8-1.9,1.9-1.9h0c1,0,1.9.9,1.9,1.9Z"/>
    <path class="st7" d="M291.6,524.2c0,1-.9,1.9-1.9,1.9h0c-1,0-1.9-.9-1.9-1.9h0c0-1.1.8-1.9,1.9-1.9h0c1.1,0,1.9.8,1.9,1.9Z"/>
    <path class="st7" d="M291.6,559c0,1.1-.9,1.9-1.9,1.9h0c-1.1,0-1.9-.8-1.9-1.9h0c0-1,.8-1.9,1.9-1.9h0c1,0,1.9.9,1.9,1.9Z"/>
    <path class="st7" d="M291.6,593.7c0,1-.9,1.9-1.9,1.9h0c-1,0-1.9-.9-1.9-1.9h0c0-1.1.8-1.9,1.9-1.9h0c1.1,0,1.9.9,1.9,1.9Z"/>
    <path class="st7" d="M291.6,628.4c0,1.1-.9,1.9-1.9,1.9h0c-1,0-1.9-.8-1.9-1.9h0c0-1,.8-1.9,1.9-1.9h0c1.1,0,1.9.9,1.9,1.9Z"/>
    <path class="st7" d="M291.6,663.2c0,1-.9,1.9-1.9,1.9h0c-1,0-1.9-.9-1.9-1.9h0c0-1.1.8-1.9,1.9-1.9h0c1.1,0,1.9.8,1.9,1.9Z"/>
    <path class="st7" d="M324.2,489.5c0,1.1-.9,1.9-1.9,1.9h0c-1,0-1.9-.8-1.9-1.9h0c0-1,.8-1.9,1.9-1.9h0c1.1,0,1.9.9,1.9,1.9Z"/>
    <path class="st7" d="M327,524.2c0,2.6-2.1,4.7-4.7,4.7h0c-2.6,0-4.7-2.1-4.7-4.7h0c0-2.6,2.1-4.7,4.7-4.7h0c2.6,0,4.7,2.1,4.7,4.7Z"/>
    <path class="st7" d="M324.2,559c0,1.1-.9,1.9-1.9,1.9h0c-1.1,0-1.9-.8-1.9-1.9h0c0-1,.8-1.9,1.9-1.9h0c1,0,1.9.9,1.9,1.9Z"/>
    <path class="st7" d="M325.1,593.7c0,1.6-1.3,2.8-2.8,2.8h0c-1.6,0-2.8-1.3-2.8-2.8h0c0-1.6,1.3-2.8,2.8-2.8h0c1.6,0,2.8,1.3,2.8,2.8Z"/>
    <path class="st7" d="M324.2,628.4c0,1.1-.8,1.9-1.9,1.9h0c-1.1,0-1.9-.8-1.9-1.9h0c0-1,.8-1.9,1.9-1.9h0c1,0,1.9.9,1.9,1.9Z"/>
    <path class="st7" d="M324.2,663.2c0,1-.8,1.9-1.9,1.9h0c-1.1,0-1.9-.9-1.9-1.9h0c0-1.1.8-1.9,1.9-1.9h0c1,0,1.9.8,1.9,1.9Z"/>
    <path class="st7" d="M356.8,524.2c0,1-.9,1.9-1.9,1.9h0c-1.1,0-1.9-.9-1.9-1.9h0c0-1.1.9-1.9,1.9-1.9h0c1,0,1.9.8,1.9,1.9Z"/>
    <path class="st7" d="M356.8,559c0,1.1-.9,1.9-1.9,1.9h0c-1.1,0-1.9-.8-1.9-1.9h0c0-1,.8-1.9,1.9-1.9h0c1,0,1.9.9,1.9,1.9Z"/>
    <path class="st7" d="M358.3,593.7c0,1.8-1.5,3.3-3.3,3.3h0c-1.8,0-3.3-1.5-3.3-3.3h0c0-1.8,1.5-3.3,3.3-3.3h0c1.8,0,3.3,1.5,3.3,3.3Z"/>
    <path class="st7" d="M356.8,628.4c0,1.1-.9,1.9-1.9,1.9h0c-1,0-1.9-.8-1.9-1.9h0c0-1,.8-1.9,1.9-1.9h0c1.1,0,1.9.9,1.9,1.9Z"/>
    <path class="st7" d="M389.5,489.5c0,1.1-.8,1.9-1.9,1.9h0c-1.1,0-1.9-.8-1.9-1.9h0c0-1,.9-1.9,1.9-1.9h0c1,0,1.9.9,1.9,1.9Z"/>
    <path class="st7" d="M389.5,524.2c0,1-.9,1.9-1.9,1.9h0c-1.1,0-1.9-.9-1.9-1.9h0c0-1.1.9-1.9,1.9-1.9h0c1,0,1.9.8,1.9,1.9Z"/>
    <path class="st7" d="M389.5,559c0,1.1-.8,1.9-1.9,1.9h0c-1,0-1.9-.8-1.9-1.9h0c0-1,.9-1.9,1.9-1.9h0c1.1,0,1.9.9,1.9,1.9Z"/>
    <path class="st7" d="M422.1,524.2c0,1-.8,1.9-1.9,1.9h0c-1.1,0-1.9-.9-1.9-1.9h0c0-1.1.8-1.9,1.9-1.9h0c1,0,1.9.8,1.9,1.9Z"/>
    <path class="st7" d="M63.2,559c0,1.1-.8,1.9-1.9,1.9h0c-1.1,0-1.9-.8-1.9-1.9h0c0-1,.8-1.9,1.9-1.9h0c1,0,1.9.9,1.9,1.9Z"/>
    <path class="st7" d="M63.2,593.7c0,1-.8,1.9-1.9,1.9h0c-1.1,0-1.9-.8-1.9-1.9h0c0-1.1.8-1.9,1.9-1.9h0c1,0,1.9.8,1.9,1.9Z"/>
    <path class="st7" d="M63.2,628.4c0,1.1-.8,1.9-1.9,1.9h0c-1.1,0-1.9-.8-1.9-1.9h0c0-1,.8-1.9,1.9-1.9h0c1,0,1.9.9,1.9,1.9Z"/>
    <path class="st7" d="M63.2,663.2c0,1-.8,1.9-1.9,1.9h0c-1.1,0-1.9-.9-1.9-1.9h0c0-1.1.8-1.9,1.9-1.9h0c1,0,1.9.8,1.9,1.9Z"/>
    <path class="st7" d="M97.2,559c0,1.8-1.5,3.3-3.3,3.3h0c-1.8,0-3.3-1.5-3.3-3.3h0c0-1.8,1.5-3.3,3.3-3.3h0c1.8,0,3.3,1.5,3.3,3.3Z"/>
    <path class="st7" d="M97.2,593.7c0,1.8-1.5,3.3-3.3,3.3h0c-1.8,0-3.3-1.5-3.3-3.3h0c0-1.8,1.5-3.3,3.3-3.3h0c1.8,0,3.3,1.5,3.3,3.3Z"/>
    <path class="st7" d="M95.8,628.4c0,1.1-.9,1.9-1.9,1.9h0c-1,0-1.9-.8-1.9-1.9h0c0-1,.8-1.9,1.9-1.9h0c1.1,0,1.9.9,1.9,1.9Z"/>
    <path class="st7" d="M95.8,663.2c0,1-.9,1.9-1.9,1.9h0c-1,0-1.9-.9-1.9-1.9h0c0-1.1.8-1.9,1.9-1.9h0c1.1,0,1.9.8,1.9,1.9Z"/>
  </g>
  <g>
    <path class="st7" d="M173.6,475c0-1.1.9-1.9,1.9-1.9h0c1.1,0,1.9.8,1.9,1.9h0c0,1-.8,1.9-1.9,1.9h0c-1,0-1.9-.9-1.9-1.9Z"/>
    <path class="st7" d="M171.7,440.2c0-2.1,1.7-3.8,3.8-3.8h0c2.1,0,3.8,1.7,3.8,3.8h0c0,2.1-1.7,3.8-3.8,3.8h0c-2.1,0-3.8-1.7-3.8-3.8Z"/>
    <path class="st7" d="M173.6,405.5c0-1.1.9-1.9,1.9-1.9h0c1.1,0,1.9.8,1.9,1.9h0c0,1-.8,1.9-1.9,1.9h0c-1,0-1.9-.9-1.9-1.9Z"/>
    <path class="st7" d="M140.9,509.7c0-1,.8-1.9,1.9-1.9h0c1,0,1.9.8,1.9,1.9h0c0,1.1-.8,1.9-1.9,1.9h0c-1.1,0-1.9-.8-1.9-1.9Z"/>
    <path class="st7" d="M140.9,475c0-1.1.8-1.9,1.9-1.9h0c1,0,1.9.8,1.9,1.9h0c0,1-.8,1.9-1.9,1.9h0c-1.1,0-1.9-.9-1.9-1.9Z"/>
    <path class="st7" d="M140.9,440.2c0-1,.8-1.9,1.9-1.9h0c1,0,1.9.9,1.9,1.9h0c0,1.1-.8,1.9-1.9,1.9h0c-1.1,0-1.9-.8-1.9-1.9Z"/>
    <path class="st7" d="M140.9,405.5c0-1.1.8-1.9,1.9-1.9h0c1,0,1.9.8,1.9,1.9h0c0,1-.8,1.9-1.9,1.9h0c-1.1,0-1.9-.9-1.9-1.9Z"/>
    <path class="st7" d="M102.6,509.7c0-4.2,3.4-7.6,7.6-7.6h0c4.2,0,7.6,3.4,7.6,7.6h0c0,4.2-3.4,7.6-7.6,7.6h0c-4.2,0-7.6-3.4-7.6-7.6h0Z"/>
    <path class="st7" d="M103.6,475c0-3.7,3-6.6,6.6-6.6h0c3.7,0,6.6,3,6.6,6.6h0c0,3.7-3,6.6-6.6,6.6h0c-3.7,0-6.6-3-6.6-6.6Z"/>
    <path class="st7" d="M108.3,440.2c0-1,.9-1.9,1.9-1.9h0c1.1,0,1.9.9,1.9,1.9h0c0,1.1-.8,1.9-1.9,1.9h0c-1,0-1.9-.8-1.9-1.9Z"/>
    <path class="st7" d="M108.3,405.5c0-1.1.9-1.9,1.9-1.9h0c1.1,0,1.9.8,1.9,1.9h0c0,1-.8,1.9-1.9,1.9h0c-1,0-1.9-.9-1.9-1.9Z"/>
    <path class="st7" d="M75.7,544.4c0-1.1.9-1.9,1.9-1.9h0c1,0,1.9.8,1.9,1.9h0c0,1-.8,1.9-1.9,1.9h0c-1.1,0-1.9-.9-1.9-1.9Z"/>
    <path class="st7" d="M72.4,509.7c0-2.9,2.3-5.2,5.2-5.2h0c2.9,0,5.2,2.3,5.2,5.2h0c0,2.9-2.3,5.2-5.2,5.2h0c-2.9,0-5.2-2.3-5.2-5.2Z"/>
    <path class="st7" d="M75.7,475c0-1.1.9-1.9,1.9-1.9h0c1.1,0,1.9.8,1.9,1.9h0c0,1-.8,1.9-1.9,1.9h0c-1,0-1.9-.9-1.9-1.9Z"/>
    <path class="st7" d="M75.7,440.2c0-1,.9-1.9,1.9-1.9h0c1.1,0,1.9.9,1.9,1.9h0c0,1.1-.8,1.9-1.9,1.9h0c-1,0-1.9-.8-1.9-1.9Z"/>
    <path class="st7" d="M74.7,405.5c0-1.6,1.3-2.8,2.8-2.8h0c1.6,0,2.8,1.3,2.8,2.8h0c0,1.6-1.3,2.8-2.8,2.8h0c-1.6,0-2.8-1.3-2.8-2.8Z"/>
    <path class="st7" d="M75.7,370.8c0-1,.9-1.9,1.9-1.9h0c1.1,0,1.9.9,1.9,1.9h0c0,1.1-.8,1.9-1.9,1.9h0c-1,0-1.9-.8-1.9-1.9Z"/>
    <path class="st7" d="M43.1,509.7c0-1,.8-1.9,1.9-1.9h0c1,0,1.9.9,1.9,1.9h0c0,1.1-.8,1.9-1.9,1.9h0c-1.1,0-1.9-.8-1.9-1.9Z"/>
    <path class="st7" d="M43.1,475c0-1.1.8-1.9,1.9-1.9h0c1,0,1.9.8,1.9,1.9h0c0,1-.8,1.9-1.9,1.9h0c-1.1,0-1.9-.9-1.9-1.9Z"/>
    <path class="st7" d="M41.2,440.2c0-2.1,1.7-3.8,3.8-3.8h0c2.1,0,3.8,1.7,3.8,3.8h0c0,2.1-1.7,3.8-3.8,3.8h0c-2.1,0-3.8-1.7-3.8-3.8Z"/>
    <path class="st7" d="M43.1,405.5c0-1.1.8-1.9,1.9-1.9h0c1,0,1.9.8,1.9,1.9h0c0,1-.8,1.9-1.9,1.9h0c-1.1,0-1.9-.9-1.9-1.9Z"/>
    <path class="st7" d="M43.1,370.8c0-1,.8-1.9,1.9-1.9h0c1,0,1.9.9,1.9,1.9h0c0,1.1-.8,1.9-1.9,1.9h0c-1.1,0-1.9-.8-1.9-1.9Z"/>
    <path class="st7" d="M10.4,544.4c0-1.1.9-1.9,1.9-1.9h0c1.1,0,1.9.8,1.9,1.9h0c0,1-.8,1.9-1.9,1.9h0c-1,0-1.9-.9-1.9-1.9Z"/>
    <path class="st7" d="M10.4,509.7c0-1,.9-1.9,1.9-1.9h0c1,0,1.9.9,1.9,1.9h0c0,1.1-.8,1.9-1.9,1.9h0c-1.1,0-1.9-.8-1.9-1.9Z"/>
    <path class="st7" d="M10.4,475c0-1.1.9-1.9,1.9-1.9h0c1.1,0,1.9.8,1.9,1.9h0c0,1-.8,1.9-1.9,1.9h0c-1,0-1.9-.9-1.9-1.9Z"/>
    <path class="st7" d="M10.4,440.2c0-1,.9-1.9,1.9-1.9h0c1,0,1.9.9,1.9,1.9h0c0,1.1-.8,1.9-1.9,1.9h0c-1.1,0-1.9-.9-1.9-1.9Z"/>
    <path class="st7" d="M10.4,405.5c0-1.1.9-1.9,1.9-1.9h0c1,0,1.9.8,1.9,1.9h0c0,1-.8,1.9-1.9,1.9h0c-1.1,0-1.9-.9-1.9-1.9Z"/>
    <path class="st7" d="M10.4,370.8c0-1,.9-1.9,1.9-1.9h0c1,0,1.9.9,1.9,1.9h0c0,1.1-.8,1.9-1.9,1.9h0c-1.1,0-1.9-.8-1.9-1.9Z"/>
    <path class="st7" d="M-22.2,544.4c0-1.1.9-1.9,1.9-1.9h0c1,0,1.9.8,1.9,1.9h0c0,1-.8,1.9-1.9,1.9h0c-1.1,0-1.9-.9-1.9-1.9Z"/>
    <path class="st7" d="M-25.1,509.7c0-2.6,2.1-4.7,4.7-4.7h0c2.6,0,4.7,2.1,4.7,4.7h0c0,2.6-2.1,4.7-4.7,4.7h0c-2.6,0-4.7-2.1-4.7-4.7Z"/>
    <path class="st7" d="M-22.2,475c0-1.1.9-1.9,1.9-1.9h0c1.1,0,1.9.8,1.9,1.9h0c0,1-.8,1.9-1.9,1.9h0c-1,0-1.9-.9-1.9-1.9Z"/>
    <path class="st7" d="M-23.2,440.2c0-1.6,1.3-2.8,2.8-2.8h0c1.6,0,2.8,1.3,2.8,2.8h0c0,1.6-1.3,2.8-2.8,2.8h0c-1.6,0-2.8-1.3-2.8-2.8Z"/>
    <path class="st7" d="M-22.2,405.5c0-1.1.8-1.9,1.9-1.9h0c1.1,0,1.9.8,1.9,1.9h0c0,1-.8,1.9-1.9,1.9h0c-1,0-1.9-.9-1.9-1.9Z"/>
    <path class="st7" d="M-22.2,370.8c0-1,.8-1.9,1.9-1.9h0c1.1,0,1.9.9,1.9,1.9h0c0,1.1-.8,1.9-1.9,1.9h0c-1,0-1.9-.8-1.9-1.9Z"/>
    <path class="st7" d="M-54.8,509.7c0-1,.9-1.9,1.9-1.9h0c1.1,0,1.9.9,1.9,1.9h0c0,1.1-.9,1.9-1.9,1.9h0c-1,0-1.9-.8-1.9-1.9Z"/>
    <path class="st7" d="M-54.8,475c0-1.1.9-1.9,1.9-1.9h0c1.1,0,1.9.8,1.9,1.9h0c0,1-.8,1.9-1.9,1.9h0c-1,0-1.9-.9-1.9-1.9Z"/>
    <path class="st7" d="M-56.3,440.2c0-1.8,1.5-3.3,3.3-3.3h0c1.8,0,3.3,1.5,3.3,3.3h0c0,1.8-1.5,3.3-3.3,3.3h0c-1.8,0-3.3-1.5-3.3-3.3Z"/>
    <path class="st7" d="M-54.8,405.5c0-1.1.9-1.9,1.9-1.9h0c1,0,1.9.8,1.9,1.9h0c0,1-.8,1.9-1.9,1.9h0c-1.1,0-1.9-.9-1.9-1.9Z"/>
    <path class="st7" d="M-87.5,544.4c0-1.1.8-1.9,1.9-1.9h0c1.1,0,1.9.8,1.9,1.9h0c0,1-.9,1.9-1.9,1.9h0c-1,0-1.9-.9-1.9-1.9Z"/>
    <path class="st7" d="M-87.5,509.7c0-1,.9-1.9,1.9-1.9h0c1.1,0,1.9.9,1.9,1.9h0c0,1.1-.9,1.9-1.9,1.9h0c-1,0-1.9-.8-1.9-1.9Z"/>
    <path class="st7" d="M-87.5,475c0-1.1.8-1.9,1.9-1.9h0c1,0,1.9.8,1.9,1.9h0c0,1-.9,1.9-1.9,1.9h0c-1.1,0-1.9-.9-1.9-1.9Z"/>
    <path class="st7" d="M-120.1,509.7c0-1,.8-1.9,1.9-1.9h0c1.1,0,1.9.9,1.9,1.9h0c0,1.1-.8,1.9-1.9,1.9h0c-1,0-1.9-.8-1.9-1.9Z"/>
    <path class="st7" d="M238.8,475c0-1.1.8-1.9,1.9-1.9h0c1.1,0,1.9.8,1.9,1.9h0c0,1-.8,1.9-1.9,1.9h0c-1,0-1.9-.9-1.9-1.9Z"/>
    <path class="st7" d="M238.8,440.2c0-1,.8-1.9,1.9-1.9h0c1.1,0,1.9.8,1.9,1.9h0c0,1.1-.8,1.9-1.9,1.9h0c-1,0-1.9-.8-1.9-1.9Z"/>
    <path class="st7" d="M238.8,405.5c0-1.1.8-1.9,1.9-1.9h0c1.1,0,1.9.8,1.9,1.9h0c0,1-.8,1.9-1.9,1.9h0c-1,0-1.9-.9-1.9-1.9Z"/>
    <path class="st7" d="M238.8,370.8c0-1,.8-1.9,1.9-1.9h0c1.1,0,1.9.9,1.9,1.9h0c0,1.1-.8,1.9-1.9,1.9h0c-1,0-1.9-.8-1.9-1.9Z"/>
    <path class="st7" d="M204.8,475c0-1.8,1.5-3.3,3.3-3.3h0c1.8,0,3.3,1.5,3.3,3.3h0c0,1.8-1.5,3.3-3.3,3.3h0c-1.8,0-3.3-1.5-3.3-3.3Z"/>
    <path class="st7" d="M204.8,440.2c0-1.8,1.5-3.3,3.3-3.3h0c1.8,0,3.3,1.5,3.3,3.3h0c0,1.8-1.5,3.3-3.3,3.3h0c-1.8,0-3.3-1.5-3.3-3.3Z"/>
    <path class="st7" d="M206.2,405.5c0-1.1.9-1.9,1.9-1.9h0c1,0,1.9.8,1.9,1.9h0c0,1-.8,1.9-1.9,1.9h0c-1.1,0-1.9-.9-1.9-1.9Z"/>
    <path class="st7" d="M206.2,370.8c0-1,.9-1.9,1.9-1.9h0c1,0,1.9.9,1.9,1.9h0c0,1.1-.8,1.9-1.9,1.9h0c-1.1,0-1.9-.8-1.9-1.9Z"/>
  </g>
  <g>
    <path class="st7" d="M631.9,521.9c0-1.1.9-1.9,1.9-1.9h0c1.1,0,1.9.8,1.9,1.9h0c0,1-.8,1.9-1.9,1.9h0c-1,0-1.9-.9-1.9-1.9Z"/>
    <path class="st7" d="M630,487.1c0-2.1,1.7-3.8,3.8-3.8h0c2.1,0,3.8,1.7,3.8,3.8h0c0,2.1-1.7,3.8-3.8,3.8h0c-2.1,0-3.8-1.7-3.8-3.8Z"/>
    <path class="st7" d="M631.9,452.4c0-1.1.9-1.9,1.9-1.9h0c1.1,0,1.9.8,1.9,1.9h0c0,1-.8,1.9-1.9,1.9h0c-1,0-1.9-.9-1.9-1.9Z"/>
    <path class="st7" d="M599.3,556.6c0-1,.8-1.9,1.9-1.9h0c1,0,1.9.8,1.9,1.9h0c0,1.1-.8,1.9-1.9,1.9h0c-1.1,0-1.9-.8-1.9-1.9Z"/>
    <path class="st7" d="M599.3,521.9c0-1.1.8-1.9,1.9-1.9h0c1,0,1.9.8,1.9,1.9h0c0,1-.8,1.9-1.9,1.9h0c-1.1,0-1.9-.9-1.9-1.9Z"/>
    <path class="st7" d="M599.3,487.1c0-1,.8-1.9,1.9-1.9h0c1,0,1.9.9,1.9,1.9h0c0,1.1-.8,1.9-1.9,1.9h0c-1.1,0-1.9-.8-1.9-1.9Z"/>
    <path class="st7" d="M599.3,452.4c0-1.1.8-1.9,1.9-1.9h0c1,0,1.9.8,1.9,1.9h0c0,1-.8,1.9-1.9,1.9h0c-1.1,0-1.9-.9-1.9-1.9Z"/>
    <path class="st7" d="M561,556.6c0-4.2,3.4-7.6,7.6-7.6h0c4.2,0,7.6,3.4,7.6,7.6h0c0,4.2-3.4,7.6-7.6,7.6h0c-4.2,0-7.6-3.4-7.6-7.6Z"/>
    <path class="st7" d="M561.9,521.9c0-3.7,3-6.6,6.6-6.6h0c3.7,0,6.6,3,6.6,6.6h0c0,3.7-3,6.6-6.6,6.6h0c-3.7,0-6.6-3-6.6-6.6Z"/>
    <path class="st7" d="M566.7,487.1c0-1,.9-1.9,1.9-1.9h0c1.1,0,1.9.9,1.9,1.9h0c0,1.1-.8,1.9-1.9,1.9h0c-1,0-1.9-.8-1.9-1.9Z"/>
    <path class="st7" d="M566.7,452.4c0-1.1.9-1.9,1.9-1.9h0c1.1,0,1.9.8,1.9,1.9h0c0,1-.8,1.9-1.9,1.9h0c-1,0-1.9-.9-1.9-1.9Z"/>
    <path class="st7" d="M534,591.3c0-1.1.9-1.9,1.9-1.9h0c1,0,1.9.8,1.9,1.9h0c0,1-.8,1.9-1.9,1.9h0c-1.1,0-1.9-.9-1.9-1.9Z"/>
    <path class="st7" d="M530.7,556.6c0-2.9,2.3-5.2,5.2-5.2h0c2.9,0,5.2,2.3,5.2,5.2h0c0,2.9-2.3,5.2-5.2,5.2h0c-2.9,0-5.2-2.3-5.2-5.2Z"/>
    <path class="st7" d="M534,521.9c0-1.1.9-1.9,1.9-1.9h0c1.1,0,1.9.8,1.9,1.9h0c0,1-.8,1.9-1.9,1.9h0c-1,0-1.9-.9-1.9-1.9Z"/>
    <path class="st7" d="M534,487.1c0-1,.9-1.9,1.9-1.9h0c1.1,0,1.9.9,1.9,1.9h0c0,1.1-.8,1.9-1.9,1.9h0c-1,0-1.9-.8-1.9-1.9Z"/>
    <path class="st7" d="M533.2,452.4c0-1.6,1.3-2.8,2.8-2.8h0c1.6,0,2.8,1.3,2.8,2.8h0c0,1.6-1.3,2.8-2.8,2.8h0c-1.6,0-2.8-1.3-2.8-2.8Z"/>
    <path class="st7" d="M534,417.7c0-1,.9-1.9,1.9-1.9h0c1.1,0,1.9.9,1.9,1.9h0c0,1.1-.8,1.9-1.9,1.9h0c-1,0-1.9-.8-1.9-1.9Z"/>
    <path class="st7" d="M501.4,556.6c0-1,.8-1.9,1.9-1.9h0c1,0,1.9.9,1.9,1.9h0c0,1.1-.8,1.9-1.9,1.9h0c-1.1,0-1.9-.8-1.9-1.9Z"/>
    <path class="st7" d="M501.4,521.9c0-1.1.8-1.9,1.9-1.9h0c1,0,1.9.8,1.9,1.9h0c0,1-.8,1.9-1.9,1.9h0c-1.1,0-1.9-.9-1.9-1.9Z"/>
    <path class="st7" d="M499.5,487.1c0-2.1,1.7-3.8,3.8-3.8h0c2.1,0,3.8,1.7,3.8,3.8h0c0,2.1-1.7,3.8-3.8,3.8h0c-2.1,0-3.8-1.7-3.8-3.8Z"/>
    <path class="st7" d="M501.4,452.4c0-1.1.8-1.9,1.9-1.9h0c1,0,1.9.8,1.9,1.9h0c0,1-.8,1.9-1.9,1.9h0c-1.1,0-1.9-.9-1.9-1.9Z"/>
    <path class="st7" d="M501.4,417.7c0-1,.8-1.9,1.9-1.9h0c1,0,1.9.9,1.9,1.9h0c0,1.1-.8,1.9-1.9,1.9h0c-1.1,0-1.9-.8-1.9-1.9Z"/>
    <path class="st7" d="M468.8,591.3c0-1.1.9-1.9,1.9-1.9h0c1.1,0,1.9.8,1.9,1.9h0c0,1-.8,1.9-1.9,1.9h0c-1,0-1.9-.9-1.9-1.9Z"/>
    <path class="st7" d="M468.8,556.6c0-1,.9-1.9,1.9-1.9h0c1,0,1.9.9,1.9,1.9h0c0,1.1-.8,1.9-1.9,1.9h0c-1.1,0-1.9-.8-1.9-1.9Z"/>
    <path class="st7" d="M468.8,521.9c0-1.1.9-1.9,1.9-1.9h0c1.1,0,1.9.8,1.9,1.9h0c0,1-.8,1.9-1.9,1.9h0c-1,0-1.9-.9-1.9-1.9Z"/>
    <path class="st7" d="M468.8,487.1c0-1,.9-1.9,1.9-1.9h0c1,0,1.9.9,1.9,1.9h0c0,1.1-.8,1.9-1.9,1.9h0c-1.1,0-1.9-.9-1.9-1.9Z"/>
    <path class="st7" d="M468.8,452.4c0-1.1.9-1.9,1.9-1.9h0c1,0,1.9.8,1.9,1.9h0c0,1-.8,1.9-1.9,1.9h0c-1.1,0-1.9-.9-1.9-1.9Z"/>
    <path class="st7" d="M468.8,417.7c0-1,.9-1.9,1.9-1.9h0c1,0,1.9.9,1.9,1.9h0c0,1.1-.8,1.9-1.9,1.9h0c-1.1,0-1.9-.8-1.9-1.9Z"/>
    <path class="st7" d="M436.1,591.3c0-1.1.9-1.9,1.9-1.9h0c1,0,1.9.8,1.9,1.9h0c0,1-.8,1.9-1.9,1.9h0c-1.1,0-1.9-.9-1.9-1.9Z"/>
    <path class="st7" d="M433.3,556.6c0-2.6,2.1-4.7,4.7-4.7h0c2.6,0,4.7,2.1,4.7,4.7h0c0,2.6-2.1,4.7-4.7,4.7h0c-2.6,0-4.7-2.1-4.7-4.7Z"/>
    <path class="st7" d="M436.1,521.9c0-1.1.9-1.9,1.9-1.9h0c1.1,0,1.9.8,1.9,1.9h0c0,1-.8,1.9-1.9,1.9h0c-1,0-1.9-.9-1.9-1.9Z"/>
    <path class="st7" d="M435.2,487.1c0-1.6,1.3-2.8,2.8-2.8h0c1.6,0,2.8,1.3,2.8,2.8h0c0,1.6-1.3,2.8-2.8,2.8h0c-1.6,0-2.8-1.3-2.8-2.8Z"/>
    <path class="st7" d="M436.2,452.4c0-1.1.8-1.9,1.9-1.9h0c1.1,0,1.9.8,1.9,1.9h0c0,1-.8,1.9-1.9,1.9h0c-1,0-1.9-.9-1.9-1.9Z"/>
    <path class="st7" d="M436.2,417.7c0-1,.8-1.9,1.9-1.9h0c1.1,0,1.9.9,1.9,1.9h0c0,1.1-.8,1.9-1.9,1.9h0c-1,0-1.9-.8-1.9-1.9Z"/>
    <path class="st7" d="M403.5,556.6c0-1,.9-1.9,1.9-1.9h0c1.1,0,1.9.9,1.9,1.9h0c0,1.1-.9,1.9-1.9,1.9h0c-1,0-1.9-.8-1.9-1.9Z"/>
    <path class="st7" d="M403.5,521.9c0-1.1.9-1.9,1.9-1.9h0c1.1,0,1.9.8,1.9,1.9h0c0,1-.8,1.9-1.9,1.9h0c-1,0-1.9-.9-1.9-1.9Z"/>
    <path class="st7" d="M402.1,487.1c0-1.8,1.5-3.3,3.3-3.3h0c1.8,0,3.3,1.5,3.3,3.3h0c0,1.8-1.5,3.3-3.3,3.3h0c-1.8,0-3.3-1.5-3.3-3.3Z"/>
    <path class="st7" d="M403.5,452.4c0-1.1.9-1.9,1.9-1.9h0c1,0,1.9.8,1.9,1.9h0c0,1-.8,1.9-1.9,1.9h0c-1.1,0-1.9-.9-1.9-1.9Z"/>
    <path class="st7" d="M370.9,591.3c0-1.1.8-1.9,1.9-1.9h0c1.1,0,1.9.8,1.9,1.9h0c0,1-.9,1.9-1.9,1.9h0c-1,0-1.9-.9-1.9-1.9Z"/>
    <path class="st7" d="M370.9,556.6c0-1,.9-1.9,1.9-1.9h0c1.1,0,1.9.9,1.9,1.9h0c0,1.1-.9,1.9-1.9,1.9h0c-1,0-1.9-.8-1.9-1.9Z"/>
    <path class="st7" d="M370.9,521.9c0-1.1.8-1.9,1.9-1.9h0c1,0,1.9.8,1.9,1.9h0c0,1-.9,1.9-1.9,1.9h0c-1.1,0-1.9-.9-1.9-1.9Z"/>
    <path class="st7" d="M338.3,556.6c0-1,.8-1.9,1.9-1.9h0c1.1,0,1.9.9,1.9,1.9h0c0,1.1-.8,1.9-1.9,1.9h0c-1,0-1.9-.8-1.9-1.9Z"/>
    <path class="st7" d="M697.2,521.9c0-1.1.8-1.9,1.9-1.9h0c1.1,0,1.9.8,1.9,1.9h0c0,1-.8,1.9-1.9,1.9h0c-1,0-1.9-.9-1.9-1.9Z"/>
    <path class="st7" d="M697.2,487.1c0-1,.8-1.9,1.9-1.9h0c1.1,0,1.9.8,1.9,1.9h0c0,1.1-.8,1.9-1.9,1.9h0c-1,0-1.9-.8-1.9-1.9Z"/>
    <path class="st7" d="M697.2,452.4c0-1.1.8-1.9,1.9-1.9h0c1.1,0,1.9.8,1.9,1.9h0c0,1-.8,1.9-1.9,1.9h0c-1,0-1.9-.9-1.9-1.9Z"/>
    <path class="st7" d="M697.2,417.7c0-1,.8-1.9,1.9-1.9h0c1.1,0,1.9.9,1.9,1.9h0c0,1.1-.8,1.9-1.9,1.9h0c-1,0-1.9-.8-1.9-1.9Z"/>
    <path class="st7" d="M663.2,521.9c0-1.8,1.5-3.3,3.3-3.3h0c1.8,0,3.3,1.5,3.3,3.3h0c0,1.8-1.5,3.3-3.3,3.3h0c-1.8,0-3.3-1.5-3.3-3.3Z"/>
    <path class="st7" d="M663.2,487.1c0-1.8,1.5-3.3,3.3-3.3h0c1.8,0,3.3,1.5,3.3,3.3h0c0,1.8-1.5,3.3-3.3,3.3h0c-1.8,0-3.3-1.5-3.3-3.3Z"/>
    <path class="st7" d="M664.7,452.4c0-1.1.9-1.9,1.9-1.9h0c1,0,1.9.8,1.9,1.9h0c0,1-.8,1.9-1.9,1.9h0c-1.1,0-1.9-.9-1.9-1.9Z"/>
    <path class="st7" d="M664.7,417.7c0-1,.9-1.9,1.9-1.9h0c1,0,1.9.9,1.9,1.9h0c0,1.1-.8,1.9-1.9,1.9h0c-1.1,0-1.9-.8-1.9-1.9Z"/>
  </g>
  <g id="g5442">
    <g id="g5444">
      <g class="st14">
        <g id="g5446">
          <g id="g5452">
            <path id="path5454" class="st8" d="M317,178c0,13.5-10.9,24.4-24.4,24.4s-24.4-10.9-24.4-24.4,10.9-24.4,24.4-24.4,24.4,10.9,24.4,24.4"/>
          </g>
          <g id="g5456">
            <path id="path5458" class="st3" d="M282.1,156c3.2-1.5,6.7-2.4,10.5-2.4,13.5,0,24.4,10.9,24.4,24.4"/>
            <path id="path54581" data-name="path5458" class="st3" d="M317,178c0,13.5-10.9,24.4-24.4,24.4s-7.3-.8-10.5-2.4"/>
          </g>
          <g id="g5460">
            <path id="path5462" class="st12" d="M332.3,262l-3.4-37.7c-1.1-12.4-11.5-21.9-23.9-21.9h-24.7c-12.5,0-22.8,9.5-23.9,21.9l-3.4,37.7c-.3,2.8,2,5.2,4.8,5.2h11.4v52.4c0,5.3,4.3,9.6,9.6,9.6h27.6c5.3,0,9.6-4.3,9.6-9.6v-52.4h11.4c2.8,0,5-2.4,4.8-5.2"/>
          </g>
          <g id="g5468">
            <g id="path5470">
              <path class="st5" d="M292.6,212.4c-19,0-34.4-15.4-34.4-34.4s15.4-34.4,34.4-34.4,34.4,15.4,34.4,34.4-15.4,34.4-34.4,34.4ZM292.6,163.6c-7.9,0-14.4,6.5-14.4,14.4s6.5,14.4,14.4,14.4,14.4-6.5,14.4-14.4-6.5-14.4-14.4-14.4Z"/>
            </g>
          </g>
          <g id="g5472">
            <g id="path5474">
              <path class="st5" d="M306.4,339.2h-27.6c-10.8,0-19.6-8.8-19.6-19.6v-42.4h-1.4c-4.1,0-8.1-1.8-10.9-4.8-2.8-3.1-4.2-7.2-3.8-11.3l3.4-37.7c1.6-17.7,16.2-31,33.9-31h24.7c17.8,0,32.3,13.3,33.9,31l3.4,37.7c.4,4.1-1,8.2-3.8,11.3-2.8,3.1-6.8,4.8-10.9,4.8h-1.4v42.4c0,10.8-8.8,19.6-19.6,19.6ZM279.2,319.2h26.9v-52c0-5.5,4.5-10,10-10h5.7l-2.9-32c-.6-7.3-6.7-12.8-14-12.8h-24.7c-7.3,0-13.3,5.5-14,12.8l-2.8,32h5.7c5.5,0,10,4.5,10,10v52ZM322.3,262.8h0s0,0,0,0Z"/>
            </g>
          </g>
          <g id="g5476">
            <path id="path5478" class="st3" d="M396.3,178c0,13.5-10.9,24.4-24.4,24.4s-24.4-10.9-24.4-24.4,10.9-24.4,24.4-24.4,24.4,10.9,24.4,24.4"/>
          </g>
          <g id="g5480">
            <path id="path5482" class="st2" d="M361.4,156c3.2-1.5,6.7-2.4,10.5-2.4,13.5,0,24.4,10.9,24.4,24.4"/>
            <path id="path54821" data-name="path5482" class="st2" d="M396.3,178c0,13.5-10.9,24.4-24.4,24.4s-7.3-.8-10.5-2.4"/>
          </g>
          <g id="g5484">
            <path id="path5486" class="st4" d="M411.6,262l-3.4-37.7c-1.1-12.4-11.5-21.9-23.9-21.9h-24.7c-12.5,0-22.8,9.5-23.9,21.9l-3.4,37.7c-.3,2.8,2,5.2,4.8,5.2h11.4v52.4c0,5.3,4.3,9.6,9.6,9.6h27.6c5.3,0,9.6-4.3,9.6-9.6v-52.4h11.4c2.8,0,5-2.4,4.8-5.2"/>
          </g>
          <g id="g5492">
            <g id="path5494">
              <path class="st5" d="M371.9,212.4c-19,0-34.4-15.4-34.4-34.4s15.4-34.4,34.4-34.4,34.4,15.4,34.4,34.4-15.4,34.4-34.4,34.4ZM371.9,163.6c-7.9,0-14.4,6.5-14.4,14.4s6.5,14.4,14.4,14.4,14.4-6.5,14.4-14.4-6.5-14.4-14.4-14.4Z"/>
            </g>
          </g>
          <g id="g5496">
            <g id="path5498">
              <path class="st5" d="M385.7,339.2h-27.6c-10.8,0-19.6-8.8-19.6-19.6v-42.4h-1.4c-4.1,0-8.1-1.8-10.9-4.8-2.8-3.1-4.2-7.2-3.8-11.3l3.4-37.7c1.6-17.7,16.2-31,33.9-31h24.7c17.8,0,32.3,13.3,33.9,31l3.4,37.7c.4,4.1-1,8.2-3.8,11.3-2.8,3.1-6.8,4.8-10.9,4.8h-1.4v42.4c0,10.8-8.8,19.6-19.6,19.6ZM358.5,319.2h26.9v-52c0-5.5,4.5-10,10-10h5.7l-2.9-32c-.6-7.3-6.7-12.8-14-12.8h-24.7c-7.3,0-13.3,5.5-14,12.8l-2.8,32h5.7c5.5,0,10,4.5,10,10v52ZM401.6,262.8h0,0Z"/>
            </g>
          </g>
          <g id="g5500">
            <path id="path5502" class="st10" d="M475.6,178c0,13.5-10.9,24.4-24.4,24.4s-24.4-10.9-24.4-24.4,10.9-24.4,24.4-24.4,24.4,10.9,24.4,24.4"/>
          </g>
          <g id="g5508">
            <path id="path5510" class="st13" d="M490.9,262l-3.4-37.7c-1.1-12.4-11.5-21.9-23.9-21.9h-24.7c-12.5,0-22.8,9.5-23.9,21.9l-3.4,37.7c-.3,2.8,2,5.2,4.8,5.2h11.4v52.4c0,5.3,4.3,9.6,9.6,9.6h27.6c5.3,0,9.6-4.3,9.6-9.6v-52.4h11.4c2.8,0,5-2.4,4.8-5.2"/>
          </g>
          <g id="g5512">
            <path id="path5514" class="st13" d="M486.1,267.2h-11.4v52.4c0,5.3-4.3,9.6-9.6,9.6h-24.4c5.3,0,9.6-4.3,9.6-9.6v-43.2c0-5.1,4.1-9.2,9.2-9.2h2.2c2.8,0,5-2.4,4.8-5.2l-3.3-37.7c-1.1-12.4-11.5-21.9-24-21.9h24.4c12.5,0,22.8,9.5,24,21.9l3.3,37.7c.3,2.8-2,5.2-4.8,5.2"/>
          </g>
          <g id="g5516">
            <g id="path5518">
              <path class="st5" d="M451.2,212.4c-19,0-34.4-15.4-34.4-34.4s15.4-34.4,34.4-34.4,34.4,15.4,34.4,34.4-15.4,34.4-34.4,34.4ZM451.2,163.6c-7.9,0-14.4,6.5-14.4,14.4s6.5,14.4,14.4,14.4,14.4-6.5,14.4-14.4-6.5-14.4-14.4-14.4Z"/>
            </g>
          </g>
          <g id="g5520">
            <g id="path5522">
              <path class="st5" d="M465,339.2h-27.6c-10.8,0-19.6-8.8-19.6-19.6v-42.4h-1.4c-4.1,0-8.1-1.8-10.9-4.8-2.8-3.1-4.2-7.2-3.8-11.3l3.4-37.7c1.6-17.7,16.2-31,33.9-31h24.7c17.8,0,32.3,13.3,33.9,31l3.4,37.7c.4,4.1-1,8.2-3.8,11.3-2.8,3.1-6.8,4.8-10.9,4.8h-1.4v42.4c0,10.8-8.8,19.6-19.6,19.6ZM437.8,319.2h26.9v-52c0-5.5,4.5-10,10-10h5.7l-2.9-32c-.6-7.3-6.7-12.8-14-12.8h-24.7c-7.3,0-13.3,5.5-14,12.8l-2.8,32h5.7c5.5,0,10,4.5,10,10v52ZM480.9,262.8h0,0Z"/>
            </g>
          </g>
          <g id="g5524">
            <path id="path5526" class="st8" d="M277.4,247.6c0,13.5-10.9,24.4-24.4,24.4s-24.4-10.9-24.4-24.4,10.9-24.4,24.4-24.4,24.4,10.9,24.4,24.4"/>
          </g>
          <g id="g5532">
            <path id="path5534" class="st4" d="M292.6,331.6l-3.4-37.7c-1.1-12.4-11.5-21.9-23.9-21.9h-24.7c-12.5,0-22.8,9.5-23.9,21.9l-3.4,37.7c-.3,2.8,2,5.2,4.8,5.2h11.4v48.7c0,5.3,4.3,9.6,9.6,9.6h27.6c5.3,0,9.6-4.3,9.6-9.6v-48.7h11.4c2.8,0,5-2.4,4.8-5.2"/>
          </g>
          <g id="g5540">
            <g id="path5542">
              <path class="st5" d="M253,405.1c-5.5,0-10-4.5-10-10v-58.8c0-5.5,4.5-10,10-10s10,4.5,10,10v58.8c0,5.5-4.5,10-10,10Z"/>
            </g>
          </g>
          <g id="g5544">
            <g id="path5546">
              <path class="st5" d="M253,282c-19,0-34.4-15.4-34.4-34.4s15.4-34.4,34.4-34.4,34.4,15.4,34.4,34.4-15.4,34.4-34.4,34.4ZM253,233.2c-7.9,0-14.4,6.5-14.4,14.4s6.5,14.4,14.4,14.4,14.4-6.5,14.4-14.4-6.5-14.4-14.4-14.4Z"/>
            </g>
          </g>
          <g id="g5548">
            <g id="path5550">
              <path class="st5" d="M266.8,405.1h-27.6c-10.8,0-19.6-8.8-19.6-19.6v-38.7h-1.4c-4.1,0-8.1-1.8-10.9-4.8s-4.2-7.2-3.8-11.3l3.4-37.7c1.6-17.7,16.2-31,33.9-31h24.7c17.8,0,32.3,13.3,33.9,31l3.4,37.7c.4,4.1-1,8.3-3.8,11.3-2.8,3.1-6.8,4.8-10.9,4.8h-1.4v38.7c0,10.8-8.8,19.6-19.6,19.6ZM239.6,385.1h26.9v-48.3c0-5.5,4.5-10,10-10h5.7l-2.9-32c-.6-7.3-6.7-12.8-14-12.8h-24.7c-7.3,0-13.3,5.5-14,12.8l-2.8,32h5.7c5.5,0,10,4.5,10,10v48.3ZM282.6,332.5h0s0,0,0,0Z"/>
            </g>
          </g>
          <g id="g5552">
            <path id="path5554" class="st10" d="M356.7,247.6c0,13.5-10.9,24.4-24.4,24.4s-24.4-10.9-24.4-24.4,10.9-24.4,24.4-24.4,24.4,10.9,24.4,24.4"/>
          </g>
          <g id="g5560">
            <path id="path5562" class="st13" d="M371.9,331.6l-3.4-37.7c-1.1-12.4-11.5-21.9-23.9-21.9h-24.7c-12.5,0-22.8,9.5-23.9,21.9l-3.4,37.7c-.3,2.8,2,5.2,4.8,5.2h11.4v48.7c0,5.3,4.3,9.6,9.6,9.6h27.6c5.3,0,9.6-4.3,9.6-9.6v-48.7h11.4c2.8,0,5-2.4,4.8-5.2"/>
          </g>
          <g id="g5568">
            <g id="path5570">
              <path class="st5" d="M332.3,405.1c-5.5,0-10-4.5-10-10v-58.8c0-5.5,4.5-10,10-10s10,4.5,10,10v58.8c0,5.5-4.5,10-10,10Z"/>
            </g>
          </g>
          <g id="g5572">
            <g id="path5574">
              <path class="st5" d="M332.3,282c-19,0-34.4-15.4-34.4-34.4s15.4-34.4,34.4-34.4,34.4,15.4,34.4,34.4-15.4,34.4-34.4,34.4ZM332.3,233.2c-7.9,0-14.4,6.5-14.4,14.4s6.5,14.4,14.4,14.4,14.4-6.5,14.4-14.4-6.5-14.4-14.4-14.4Z"/>
            </g>
          </g>
          <g id="g5576">
            <g id="path5578">
              <path class="st5" d="M346.1,405.1h-27.6c-10.8,0-19.6-8.8-19.6-19.6v-38.7h-1.4c-4.1,0-8.1-1.8-10.9-4.8s-4.2-7.2-3.8-11.3l3.4-37.7c1.6-17.7,16.2-31,33.9-31h24.7c17.8,0,32.3,13.3,33.9,31l3.4,37.7h0c.4,4.1-1,8.3-3.8,11.3-2.8,3.1-6.8,4.8-10.9,4.8h-1.4v38.7c0,10.8-8.8,19.6-19.6,19.6ZM318.9,385.1h26.9v-48.3c0-5.5,4.5-10,10-10h5.7l-2.9-32c-.6-7.3-6.7-12.8-14-12.8h-24.7c-7.3,0-13.3,5.5-14,12.8l-2.8,32h5.7c5.5,0,10,4.5,10,10v48.3Z"/>
            </g>
          </g>
          <g id="g5580">
            <path id="path5582" class="st3" d="M436,247.6c0,13.5-10.9,24.4-24.4,24.4s-24.4-10.9-24.4-24.4,10.9-24.4,24.4-24.4,24.4,10.9,24.4,24.4"/>
          </g>
          <g id="g5588">
            <path id="path5590" class="st12" d="M451.2,331.6l-3.4-37.7c-1.1-12.4-11.5-21.9-23.9-21.9h-24.7c-12.5,0-22.8,9.5-23.9,21.9l-3.4,37.7c-.3,2.8,2,5.2,4.8,5.2h11.4v48.7c0,5.3,4.3,9.6,9.6,9.6h27.6c5.3,0,9.6-4.3,9.6-9.6v-48.7h11.4c2.8,0,5-2.4,4.8-5.2"/>
          </g>
          <g id="g5596">
            <g id="path5598">
              <path class="st5" d="M411.6,405.1c-5.5,0-10-4.5-10-10v-58.8c0-5.5,4.5-10,10-10s10,4.5,10,10v58.8c0,5.5-4.5,10-10,10Z"/>
            </g>
          </g>
          <g id="g5600">
            <g id="path5602">
              <path class="st5" d="M411.6,282c-19,0-34.4-15.4-34.4-34.4s15.4-34.4,34.4-34.4,34.4,15.4,34.4,34.4-15.4,34.4-34.4,34.4ZM411.6,233.2c-7.9,0-14.4,6.5-14.4,14.4s6.5,14.4,14.4,14.4,14.4-6.5,14.4-14.4-6.5-14.4-14.4-14.4Z"/>
            </g>
          </g>
          <g id="g5604">
            <g id="path5606">
              <path class="st5" d="M425.4,405.1h-27.6c-10.8,0-19.6-8.8-19.6-19.6v-38.7h-1.4c-4.1,0-8.1-1.8-10.9-4.8-2.8-3.1-4.2-7.2-3.8-11.3l3.4-37.7c1.6-17.7,16.2-31,33.9-31h24.7c17.8,0,32.3,13.3,33.9,31l3.4,37.7h0c.4,4.1-1,8.3-3.8,11.3-2.8,3.1-6.8,4.8-10.9,4.8h-1.4v38.7c0,10.8-8.8,19.6-19.6,19.6ZM398.1,385.1h26.9v-48.3c0-5.5,4.5-10,10-10h5.7l-2.9-32c-.6-7.3-6.7-12.8-14-12.8h-24.7c-7.3,0-13.3,5.5-14,12.8l-2.9,32h5.7c5.5,0,10,4.5,10,10v48.3Z"/>
            </g>
          </g>
          <g id="g5608">
            <path id="path5610" class="st8" d="M515.3,247.6c0,13.5-10.9,24.4-24.4,24.4s-24.4-10.9-24.4-24.4,10.9-24.4,24.4-24.4,24.4,10.9,24.4,24.4"/>
          </g>
          <g id="g5616">
            <path id="path5618" class="st1" d="M530.5,331.6l-3.4-37.7c-1.1-12.4-11.5-21.9-23.9-21.9h-24.7c-12.5,0-22.8,9.5-23.9,21.9l-3.4,37.7c-.3,2.8,2,5.2,4.8,5.2h11.4v48.7c0,5.3,4.3,9.6,9.6,9.6h27.6c5.3,0,9.6-4.3,9.6-9.6v-48.7h11.4c2.8,0,5-2.4,4.8-5.2"/>
          </g>
          <g id="g5624">
            <g id="path5626">
              <path class="st5" d="M490.9,405.1c-5.5,0-10-4.5-10-10v-58.8c0-5.5,4.5-10,10-10s10,4.5,10,10v58.8c0,5.5-4.5,10-10,10Z"/>
            </g>
          </g>
          <g id="g5628">
            <g id="path5630">
              <path class="st5" d="M490.9,282c-19,0-34.4-15.4-34.4-34.4s15.4-34.4,34.4-34.4,34.4,15.4,34.4,34.4-15.4,34.4-34.4,34.4ZM490.9,233.2c-7.9,0-14.4,6.5-14.4,14.4s6.5,14.4,14.4,14.4,14.4-6.5,14.4-14.4-6.5-14.4-14.4-14.4Z"/>
            </g>
          </g>
          <g id="g5632">
            <g id="path5634">
              <path class="st5" d="M504.7,405.1h-27.6c-10.8,0-19.6-8.8-19.6-19.6v-38.7h-1.4c-4.1,0-8.1-1.8-10.9-4.8s-4.2-7.2-3.8-11.3l3.4-37.7c1.6-17.7,16.2-31,33.9-31h24.7c17.8,0,32.3,13.3,33.9,31l3.4,37.7c.4,4.1-1,8.2-3.8,11.3s-6.8,4.8-10.9,4.8l-1.5,29.9s0,0,0,0c-.6,5-5,8.9-10.2,8.7s-9.7-4.9-9.7-10.4v-38.3c0-5.5,4.5-10,10-10h5.7l-2.8-32c-.6-7.2-6.7-12.8-14-12.8h-24.7c-7.3,0-13.3,5.6-14,12.8l-2.8,32h5.7c5.5,0,10,4.5,10,10v48.3h26.9v-5.8c0-5.3,4-10,9.3-10.3s10.7,4.2,10.7,10v6.6c0,10.8-8.8,19.6-19.6,19.6Z"/>
            </g>
          </g>
          <g id="g5636">
            <path id="path5638" class="st9" d="M187.6,395.1c-4.7,0-8.6,3.5-9.1,8.1-.9,7.5-1.3,15.1-1.3,22.9,0,107,86.8,193.8,193.8,193.8s193.8-86.8,193.8-193.8-.5-15.4-1.3-22.9c-.5-4.6-4.5-8.1-9.1-8.1H187.6Z"/>
          </g>
          <g id="g5644">
            <path id="path5646" class="st11" d="M488.2,431.1l-22.6-10.2c-2.7-1.2-5.9-1.1-8.5.4l-28.2,15.7c-.4.2-.9.5-1.3.9l-12.8,10.1c-2,1.6-4.6,2.3-7.1,2l-18.8-2.4c-2.6-.3-4.9-1.7-6.5-3.9l-12.9-17.8c-1.6-2.3-4.2-3.7-7-3.9l-34.4-2.6c-3-.2-6,1-7.9,3.3l-13,15.4c-3.9,4.6-11,4.4-14.7-.3l-24.3-31.3c-1-1.3-1.7-2.9-1.9-4.5l-.9-6.8h-77.9c-4.7,0-8.6,3.5-9.1,8.1-.9,7.5-1.3,15.1-1.3,22.9,0,64.9,31.9,122.3,80.8,157.5l7.1-16.5c1.1-2.5,3.2-4.5,5.8-5.3l9.8-3.1c2.1-.7,4.4-.6,6.5.3l31.4,12.9c2.5,1,5.2.9,7.6-.2l8.8-4.1c4.5-2.1,6.6-7.3,4.8-12l-2.4-6.2c-.8-2.2-2.4-4-4.5-5l-4-2.1c-5-2.6-6.6-8.8-3.6-13.5l18.2-28.4c1.4-2.3,3.8-3.8,6.4-4.2l29.9-5c2.8-.5,5.7.3,7.8,2.2l3.5,3.1c3.5,3.1,4.3,8.3,1.8,12.2l-6.6,10.4c-3.6,5.7-.4,13.2,6.2,14.4l46.6,8.8c3.4.6,6.9-.6,9.1-3.3l45-55.5c1.5-1.8,2.2-4.1,2.1-6.4l-1.7-37.5c-.2-3.6-2.3-6.8-5.6-8.2"/>
          </g>
          <g id="g5648">
            <g id="path5650">
              <path class="st5" d="M258.9,591.2c-1.3,0-2.6-.3-3.9-.8-5.1-2.2-7.4-8.1-5.3-13.1l6-14.1c2.2-5.2,6.6-9.2,12-10.9l9.8-3.1c4.4-1.4,9.1-1.2,13.3.5l31.2,12.8,8.2-3.8-2.2-5.6-3.9-2c-4.9-2.5-8.5-7-9.9-12.3-1.4-5.3-.5-11,2.4-15.6l18.2-28.4c3-4.6,7.8-7.8,13.2-8.7l29.9-5c5.8-1,11.6.7,16,4.5l3.5,3.1c7.3,6.4,8.8,17,3.6,25.1l-6.2,9.8,45.6,8.6,13-16c3.5-4.3,9.8-4.9,14.1-1.5,4.3,3.5,4.9,9.8,1.5,14.1l-13.2,16.3c-4.5,5.6-11.7,8.2-18.7,6.9l-46.6-8.8c-6.4-1.2-11.7-5.5-14.3-11.4s-2-12.8,1.4-18.2l6.4-10-3-2.6-29.4,4.9-17.8,27.7,3.5,1.8c4.2,2.2,7.5,5.9,9.2,10.3l2.4,6.2c3.7,9.5-.7,20.3-9.9,24.6l-8.8,4.1c-4.9,2.3-10.6,2.4-15.6.4l-31.3-12.8-9.4,3-5.9,13.9c-1.6,3.8-5.3,6.1-9.2,6.1Z"/>
            </g>
          </g>
          <g id="g5652">
            <g id="path5654">
              <path class="st5" d="M482.4,506.7c-2.2,0-4.4-.7-6.3-2.2-4.3-3.5-4.9-9.8-1.5-14.1l10.8-13.3-1.6-37-22.1-9.9-27.9,15.5-12.7,10.1c-4.1,3.2-9.4,4.7-14.6,4.1l-18.8-2.4c-5.3-.7-10.2-3.6-13.3-7.9l-12.7-17.6-33.9-2.5-12.9,15.2c-3.8,4.5-9.4,7-15.3,6.9-5.9-.1-11.4-2.9-15-7.5l-24.3-31.3c-2.1-2.7-3.5-5.9-3.9-9.4l-.7-5c-.7-5.5,3.1-10.5,8.6-11.2,5.5-.7,10.5,3.1,11.2,8.6l.7,4.9,23.8,30.6,12.6-14.9c4-4.7,10.1-7.3,16.3-6.8l34.4,2.6c5.7.4,11,3.3,14.3,8l12.8,17.7,18.3,2.4,12.6-10c.8-.7,1.7-1.3,2.6-1.8l28.1-15.7c5.3-3,11.9-3.3,17.5-.7l22.6,10.2c6.7,3,11.1,9.5,11.5,16.9l1.7,37.5c.2,4.8-1.3,9.4-4.3,13.1l-10.9,13.4c-2,2.4-4.9,3.7-7.8,3.7Z"/>
            </g>
          </g>
          <g id="g5656">
            <g id="path5658">
              <path class="st5" d="M370.9,629.9c-69.5,0-133.5-34.9-171.3-93.3-3-4.6-1.7-10.8,3-13.8,4.6-3,10.8-1.7,13.8,3,34.1,52.7,91.8,84.2,154.5,84.2,101.4,0,183.8-82.5,183.8-183.8s-.4-14-1.2-21H188.3c-.8,7-1.2,14-1.2,21,0,24.9,4.9,49,14.5,71.7,2.2,5.1-.2,11-5.3,13.1-5.1,2.2-11-.2-13.1-5.3-10.7-25.2-16.1-51.9-16.1-79.5s.5-16.1,1.4-24c1.1-9.7,9.3-17,19.1-17h366.6c9.7,0,17.9,7.3,19.1,17,.9,8,1.4,16,1.4,24,0,112.4-91.4,203.8-203.8,203.8Z"/>
            </g>
          </g>
        </g>
      </g>
    </g>
  </g>
</svg>