<?xml version="1.0" encoding="UTF-8"?>
<svg id="Layer_2" data-name="Layer 2" xmlns="http://www.w3.org/2000/svg" viewBox="0 0 720 720">
  <defs>
    <style>
      .cls-1 {
        fill: #60b7ff;
      }

      .cls-1, .cls-2, .cls-3, .cls-4, .cls-5, .cls-6, .cls-7, .cls-8, .cls-9 {
        fill-rule: evenodd;
      }

      .cls-10, .cls-2 {
        fill: #ffe177;
      }

      .cls-3 {
        fill: #293553;
      }

      .cls-11 {
        fill: #f6dccd;
      }

      .cls-12 {
        fill: #fff;
      }

      .cls-13 {
        fill: #06a27a;
      }

      .cls-4 {
        fill: #a79ba7;
      }

      .cls-14, .cls-8 {
        fill: #f8f3f1;
      }

      .cls-5 {
        fill: #d1d1d6;
      }

      .cls-6 {
        fill: #73d6bb;
      }

      .cls-7 {
        fill: #f1cbbc;
      }

      .cls-9 {
        fill: #ffd064;
      }
    </style>
  </defs>
  <g id="Layer_1-2" data-name="Layer 1">
    <rect class="cls-12" width="720" height="720"/>
    <g>
      <g>
        <path class="cls-13" d="M128.4,559c0,1.1-.9,1.9-1.9,1.9h0c-1.1,0-1.9-.8-1.9-1.9h0c0-1,.8-1.9,1.9-1.9h0c1,0,1.9.9,1.9,1.9Z"/>
        <path class="cls-13" d="M130.3,593.7c0,2.1-1.7,3.8-3.8,3.8h0c-2.1,0-3.8-1.7-3.8-3.8h0c0-2.1,1.7-3.8,3.8-3.8h0c2.1,0,3.8,1.7,3.8,3.8Z"/>
        <path class="cls-13" d="M128.4,628.4c0,1.1-.9,1.9-1.9,1.9h0c-1.1,0-1.9-.8-1.9-1.9h0c0-1,.8-1.9,1.9-1.9h0c1,0,1.9.9,1.9,1.9Z"/>
        <path class="cls-13" d="M161,524.2c0,1-.8,1.9-1.9,1.9h0c-1,0-1.9-.8-1.9-1.9h0c0-1.1.8-1.9,1.9-1.9h0c1.1,0,1.9.8,1.9,1.9Z"/>
        <path class="cls-13" d="M161,559c0,1.1-.8,1.9-1.9,1.9h0c-1,0-1.9-.8-1.9-1.9h0c0-1,.8-1.9,1.9-1.9h0c1.1,0,1.9.9,1.9,1.9Z"/>
        <path class="cls-13" d="M161,593.7c0,1-.8,1.9-1.9,1.9h0c-1,0-1.9-.9-1.9-1.9h0c0-1.1.8-1.9,1.9-1.9h0c1.1,0,1.9.8,1.9,1.9Z"/>
        <path class="cls-13" d="M161,628.4c0,1.1-.8,1.9-1.9,1.9h0c-1,0-1.9-.8-1.9-1.9h0c0-1,.8-1.9,1.9-1.9h0c1.1,0,1.9.9,1.9,1.9Z"/>
        <path class="cls-13" d="M199.4,524.2c0,4.2-3.4,7.6-7.6,7.6h0c-4.2,0-7.6-3.4-7.6-7.6h0c0-4.2,3.4-7.6,7.6-7.6h0c4.2,0,7.6,3.4,7.6,7.6Z"/>
        <path class="cls-13" d="M198.4,559c0,3.7-3,6.6-6.6,6.6h0c-3.7,0-6.6-3-6.6-6.6h0c0-3.7,3-6.6,6.6-6.6h0c3.7,0,6.6,3,6.6,6.6Z"/>
        <path class="cls-13" d="M193.7,593.7c0,1-.9,1.9-1.9,1.9h0c-1.1,0-1.9-.9-1.9-1.9h0c0-1.1.8-1.9,1.9-1.9h0c1,0,1.9.8,1.9,1.9Z"/>
        <path class="cls-13" d="M193.7,628.4c0,1.1-.9,1.9-1.9,1.9h0c-1.1,0-1.9-.8-1.9-1.9h0c0-1,.8-1.9,1.9-1.9h0c1,0,1.9.9,1.9,1.9Z"/>
        <path class="cls-13" d="M226.3,489.5c0,1.1-.9,1.9-1.9,1.9h0c-1,0-1.9-.8-1.9-1.9h0c0-1,.8-1.9,1.9-1.9h0c1.1,0,1.9.9,1.9,1.9Z"/>
        <path class="cls-13" d="M229.6,524.2c0,2.9-2.3,5.2-5.2,5.2h0c-2.9,0-5.2-2.3-5.2-5.2h0c0-2.9,2.3-5.2,5.2-5.2h0c2.9,0,5.2,2.3,5.2,5.2Z"/>
        <path class="cls-13" d="M226.3,559c0,1.1-.9,1.9-1.9,1.9h0c-1.1,0-1.9-.8-1.9-1.9h0c0-1,.8-1.9,1.9-1.9h0c1,0,1.9.9,1.9,1.9Z"/>
        <path class="cls-13" d="M226.3,593.7c0,1-.9,1.9-1.9,1.9h0c-1.1,0-1.9-.9-1.9-1.9h0c0-1.1.8-1.9,1.9-1.9h0c1,0,1.9.8,1.9,1.9Z"/>
        <path class="cls-13" d="M227.3,628.4c0,1.6-1.3,2.8-2.8,2.8h0c-1.6,0-2.8-1.3-2.8-2.8h0c0-1.6,1.3-2.8,2.8-2.8h0c1.6,0,2.8,1.3,2.8,2.8Z"/>
        <path class="cls-13" d="M226.3,663.2c0,1-.9,1.9-1.9,1.9h0c-1.1,0-1.9-.9-1.9-1.9h0c0-1.1.8-1.9,1.9-1.9h0c1,0,1.9.8,1.9,1.9Z"/>
        <path class="cls-13" d="M258.9,524.2c0,1-.8,1.9-1.9,1.9h0c-1,0-1.9-.9-1.9-1.9h0c0-1.1.8-1.9,1.9-1.9h0c1.1,0,1.9.8,1.9,1.9Z"/>
        <path class="cls-13" d="M258.9,559c0,1.1-.8,1.9-1.9,1.9h0c-1,0-1.9-.8-1.9-1.9h0c0-1,.8-1.9,1.9-1.9h0c1.1,0,1.9.9,1.9,1.9Z"/>
        <path class="cls-13" d="M260.8,593.7c0,2.1-1.7,3.8-3.8,3.8h0c-2.1,0-3.8-1.7-3.8-3.8h0c0-2.1,1.7-3.8,3.8-3.8h0c2.1,0,3.8,1.7,3.8,3.8Z"/>
        <path class="cls-13" d="M258.9,628.4c0,1.1-.8,1.9-1.9,1.9h0c-1,0-1.9-.8-1.9-1.9h0c0-1,.8-1.9,1.9-1.9h0c1.1,0,1.9.9,1.9,1.9Z"/>
        <path class="cls-13" d="M258.9,663.2c0,1-.8,1.9-1.9,1.9h0c-1,0-1.9-.9-1.9-1.9h0c0-1.1.8-1.9,1.9-1.9h0c1.1,0,1.9.8,1.9,1.9Z"/>
        <path class="cls-13" d="M291.6,489.5c0,1.1-.9,1.9-1.9,1.9h0c-1.1,0-1.9-.8-1.9-1.9h0c0-1,.8-1.9,1.9-1.9h0c1,0,1.9.9,1.9,1.9Z"/>
        <path class="cls-13" d="M291.6,524.2c0,1-.9,1.9-1.9,1.9h0c-1,0-1.9-.9-1.9-1.9h0c0-1.1.8-1.9,1.9-1.9h0c1.1,0,1.9.8,1.9,1.9Z"/>
        <path class="cls-13" d="M291.6,559c0,1.1-.9,1.9-1.9,1.9h0c-1.1,0-1.9-.8-1.9-1.9h0c0-1,.8-1.9,1.9-1.9h0c1,0,1.9.9,1.9,1.9Z"/>
        <path class="cls-13" d="M291.6,593.7c0,1-.9,1.9-1.9,1.9h0c-1,0-1.9-.9-1.9-1.9h0c0-1.1.8-1.9,1.9-1.9h0c1.1,0,1.9.9,1.9,1.9Z"/>
        <path class="cls-13" d="M291.6,628.4c0,1.1-.9,1.9-1.9,1.9h0c-1,0-1.9-.8-1.9-1.9h0c0-1,.8-1.9,1.9-1.9h0c1.1,0,1.9.9,1.9,1.9Z"/>
        <path class="cls-13" d="M291.6,663.2c0,1-.9,1.9-1.9,1.9h0c-1,0-1.9-.9-1.9-1.9h0c0-1.1.8-1.9,1.9-1.9h0c1.1,0,1.9.8,1.9,1.9Z"/>
        <path class="cls-13" d="M324.2,489.5c0,1.1-.9,1.9-1.9,1.9h0c-1,0-1.9-.8-1.9-1.9h0c0-1,.8-1.9,1.9-1.9h0c1.1,0,1.9.9,1.9,1.9Z"/>
        <path class="cls-13" d="M327,524.2c0,2.6-2.1,4.7-4.7,4.7h0c-2.6,0-4.7-2.1-4.7-4.7h0c0-2.6,2.1-4.7,4.7-4.7h0c2.6,0,4.7,2.1,4.7,4.7Z"/>
        <path class="cls-13" d="M324.2,559c0,1.1-.9,1.9-1.9,1.9h0c-1.1,0-1.9-.8-1.9-1.9h0c0-1,.8-1.9,1.9-1.9h0c1,0,1.9.9,1.9,1.9Z"/>
        <path class="cls-13" d="M325.1,593.7c0,1.6-1.3,2.8-2.8,2.8h0c-1.6,0-2.8-1.3-2.8-2.8h0c0-1.6,1.3-2.8,2.8-2.8h0c1.6,0,2.8,1.3,2.8,2.8Z"/>
        <path class="cls-13" d="M324.2,628.4c0,1.1-.8,1.9-1.9,1.9h0c-1.1,0-1.9-.8-1.9-1.9h0c0-1,.8-1.9,1.9-1.9h0c1,0,1.9.9,1.9,1.9Z"/>
        <path class="cls-13" d="M324.2,663.2c0,1-.8,1.9-1.9,1.9h0c-1.1,0-1.9-.9-1.9-1.9h0c0-1.1.8-1.9,1.9-1.9h0c1,0,1.9.8,1.9,1.9Z"/>
        <path class="cls-13" d="M356.8,524.2c0,1-.9,1.9-1.9,1.9h0c-1.1,0-1.9-.9-1.9-1.9h0c0-1.1.9-1.9,1.9-1.9h0c1,0,1.9.8,1.9,1.9Z"/>
        <path class="cls-13" d="M356.8,559c0,1.1-.9,1.9-1.9,1.9h0c-1.1,0-1.9-.8-1.9-1.9h0c0-1,.8-1.9,1.9-1.9h0c1,0,1.9.9,1.9,1.9Z"/>
        <path class="cls-13" d="M358.3,593.7c0,1.8-1.5,3.3-3.3,3.3h0c-1.8,0-3.3-1.5-3.3-3.3h0c0-1.8,1.5-3.3,3.3-3.3h0c1.8,0,3.3,1.5,3.3,3.3Z"/>
        <path class="cls-13" d="M356.8,628.4c0,1.1-.9,1.9-1.9,1.9h0c-1,0-1.9-.8-1.9-1.9h0c0-1,.8-1.9,1.9-1.9h0c1.1,0,1.9.9,1.9,1.9Z"/>
        <path class="cls-13" d="M389.5,489.5c0,1.1-.8,1.9-1.9,1.9h0c-1.1,0-1.9-.8-1.9-1.9h0c0-1,.9-1.9,1.9-1.9h0c1,0,1.9.9,1.9,1.9Z"/>
        <path class="cls-13" d="M389.5,524.2c0,1-.9,1.9-1.9,1.9h0c-1.1,0-1.9-.9-1.9-1.9h0c0-1.1.9-1.9,1.9-1.9h0c1,0,1.9.8,1.9,1.9Z"/>
        <path class="cls-13" d="M389.5,559c0,1.1-.8,1.9-1.9,1.9h0c-1,0-1.9-.8-1.9-1.9h0c0-1,.9-1.9,1.9-1.9h0c1.1,0,1.9.9,1.9,1.9Z"/>
        <path class="cls-13" d="M422.1,524.2c0,1-.8,1.9-1.9,1.9h0c-1.1,0-1.9-.9-1.9-1.9h0c0-1.1.8-1.9,1.9-1.9h0c1,0,1.9.8,1.9,1.9Z"/>
        <path class="cls-13" d="M63.2,559c0,1.1-.8,1.9-1.9,1.9h0c-1.1,0-1.9-.8-1.9-1.9h0c0-1,.8-1.9,1.9-1.9h0c1,0,1.9.9,1.9,1.9Z"/>
        <path class="cls-13" d="M63.2,593.7c0,1-.8,1.9-1.9,1.9h0c-1.1,0-1.9-.8-1.9-1.9h0c0-1.1.8-1.9,1.9-1.9h0c1,0,1.9.8,1.9,1.9Z"/>
        <path class="cls-13" d="M63.2,628.4c0,1.1-.8,1.9-1.9,1.9h0c-1.1,0-1.9-.8-1.9-1.9h0c0-1,.8-1.9,1.9-1.9h0c1,0,1.9.9,1.9,1.9Z"/>
        <path class="cls-13" d="M63.2,663.2c0,1-.8,1.9-1.9,1.9h0c-1.1,0-1.9-.9-1.9-1.9h0c0-1.1.8-1.9,1.9-1.9h0c1,0,1.9.8,1.9,1.9Z"/>
        <path class="cls-13" d="M97.2,559c0,1.8-1.5,3.3-3.3,3.3h0c-1.8,0-3.3-1.5-3.3-3.3h0c0-1.8,1.5-3.3,3.3-3.3h0c1.8,0,3.3,1.5,3.3,3.3Z"/>
        <path class="cls-13" d="M97.2,593.7c0,1.8-1.5,3.3-3.3,3.3h0c-1.8,0-3.3-1.5-3.3-3.3h0c0-1.8,1.5-3.3,3.3-3.3h0c1.8,0,3.3,1.5,3.3,3.3Z"/>
        <path class="cls-13" d="M95.8,628.4c0,1.1-.9,1.9-1.9,1.9h0c-1,0-1.9-.8-1.9-1.9h0c0-1,.8-1.9,1.9-1.9h0c1.1,0,1.9.9,1.9,1.9Z"/>
        <path class="cls-13" d="M95.8,663.2c0,1-.9,1.9-1.9,1.9h0c-1,0-1.9-.9-1.9-1.9h0c0-1.1.8-1.9,1.9-1.9h0c1.1,0,1.9.8,1.9,1.9Z"/>
      </g>
      <g>
        <path class="cls-13" d="M173.6,475c0-1.1.9-1.9,1.9-1.9h0c1.1,0,1.9.8,1.9,1.9h0c0,1-.8,1.9-1.9,1.9h0c-1,0-1.9-.9-1.9-1.9Z"/>
        <path class="cls-13" d="M171.7,440.2c0-2.1,1.7-3.8,3.8-3.8h0c2.1,0,3.8,1.7,3.8,3.8h0c0,2.1-1.7,3.8-3.8,3.8h0c-2.1,0-3.8-1.7-3.8-3.8Z"/>
        <path class="cls-13" d="M173.6,405.5c0-1.1.9-1.9,1.9-1.9h0c1.1,0,1.9.8,1.9,1.9h0c0,1-.8,1.9-1.9,1.9h0c-1,0-1.9-.9-1.9-1.9Z"/>
        <path class="cls-13" d="M140.9,509.7c0-1,.8-1.9,1.9-1.9h0c1,0,1.9.8,1.9,1.9h0c0,1.1-.8,1.9-1.9,1.9h0c-1.1,0-1.9-.8-1.9-1.9Z"/>
        <path class="cls-13" d="M140.9,475c0-1.1.8-1.9,1.9-1.9h0c1,0,1.9.8,1.9,1.9h0c0,1-.8,1.9-1.9,1.9h0c-1.1,0-1.9-.9-1.9-1.9Z"/>
        <path class="cls-13" d="M140.9,440.2c0-1,.8-1.9,1.9-1.9h0c1,0,1.9.9,1.9,1.9h0c0,1.1-.8,1.9-1.9,1.9h0c-1.1,0-1.9-.8-1.9-1.9Z"/>
        <path class="cls-13" d="M140.9,405.5c0-1.1.8-1.9,1.9-1.9h0c1,0,1.9.8,1.9,1.9h0c0,1-.8,1.9-1.9,1.9h0c-1.1,0-1.9-.9-1.9-1.9Z"/>
        <path class="cls-13" d="M102.6,509.7c0-4.2,3.4-7.6,7.6-7.6h0c4.2,0,7.6,3.4,7.6,7.6h0c0,4.2-3.4,7.6-7.6,7.6h0c-4.2,0-7.6-3.4-7.6-7.6h0Z"/>
        <path class="cls-13" d="M103.6,475c0-3.7,3-6.6,6.6-6.6h0c3.7,0,6.6,3,6.6,6.6h0c0,3.7-3,6.6-6.6,6.6h0c-3.7,0-6.6-3-6.6-6.6Z"/>
        <path class="cls-13" d="M108.3,440.2c0-1,.9-1.9,1.9-1.9h0c1.1,0,1.9.9,1.9,1.9h0c0,1.1-.8,1.9-1.9,1.9h0c-1,0-1.9-.8-1.9-1.9Z"/>
        <path class="cls-13" d="M108.3,405.5c0-1.1.9-1.9,1.9-1.9h0c1.1,0,1.9.8,1.9,1.9h0c0,1-.8,1.9-1.9,1.9h0c-1,0-1.9-.9-1.9-1.9Z"/>
        <path class="cls-13" d="M75.7,544.4c0-1.1.9-1.9,1.9-1.9h0c1,0,1.9.8,1.9,1.9h0c0,1-.8,1.9-1.9,1.9h0c-1.1,0-1.9-.9-1.9-1.9Z"/>
        <path class="cls-13" d="M72.4,509.7c0-2.9,2.3-5.2,5.2-5.2h0c2.9,0,5.2,2.3,5.2,5.2h0c0,2.9-2.3,5.2-5.2,5.2h0c-2.9,0-5.2-2.3-5.2-5.2Z"/>
        <path class="cls-13" d="M75.7,475c0-1.1.9-1.9,1.9-1.9h0c1.1,0,1.9.8,1.9,1.9h0c0,1-.8,1.9-1.9,1.9h0c-1,0-1.9-.9-1.9-1.9Z"/>
        <path class="cls-13" d="M75.7,440.2c0-1,.9-1.9,1.9-1.9h0c1.1,0,1.9.9,1.9,1.9h0c0,1.1-.8,1.9-1.9,1.9h0c-1,0-1.9-.8-1.9-1.9Z"/>
        <path class="cls-13" d="M74.7,405.5c0-1.6,1.3-2.8,2.8-2.8h0c1.6,0,2.8,1.3,2.8,2.8h0c0,1.6-1.3,2.8-2.8,2.8h0c-1.6,0-2.8-1.3-2.8-2.8Z"/>
        <path class="cls-13" d="M75.7,370.8c0-1,.9-1.9,1.9-1.9h0c1.1,0,1.9.9,1.9,1.9h0c0,1.1-.8,1.9-1.9,1.9h0c-1,0-1.9-.8-1.9-1.9Z"/>
        <path class="cls-13" d="M43.1,509.7c0-1,.8-1.9,1.9-1.9h0c1,0,1.9.9,1.9,1.9h0c0,1.1-.8,1.9-1.9,1.9h0c-1.1,0-1.9-.8-1.9-1.9Z"/>
        <path class="cls-13" d="M43.1,475c0-1.1.8-1.9,1.9-1.9h0c1,0,1.9.8,1.9,1.9h0c0,1-.8,1.9-1.9,1.9h0c-1.1,0-1.9-.9-1.9-1.9Z"/>
        <path class="cls-13" d="M41.2,440.2c0-2.1,1.7-3.8,3.8-3.8h0c2.1,0,3.8,1.7,3.8,3.8h0c0,2.1-1.7,3.8-3.8,3.8h0c-2.1,0-3.8-1.7-3.8-3.8Z"/>
        <path class="cls-13" d="M43.1,405.5c0-1.1.8-1.9,1.9-1.9h0c1,0,1.9.8,1.9,1.9h0c0,1-.8,1.9-1.9,1.9h0c-1.1,0-1.9-.9-1.9-1.9Z"/>
        <path class="cls-13" d="M43.1,370.8c0-1,.8-1.9,1.9-1.9h0c1,0,1.9.9,1.9,1.9h0c0,1.1-.8,1.9-1.9,1.9h0c-1.1,0-1.9-.8-1.9-1.9Z"/>
        <path class="cls-13" d="M10.4,544.4c0-1.1.9-1.9,1.9-1.9h0c1.1,0,1.9.8,1.9,1.9h0c0,1-.8,1.9-1.9,1.9h0c-1,0-1.9-.9-1.9-1.9Z"/>
        <path class="cls-13" d="M10.4,509.7c0-1,.9-1.9,1.9-1.9h0c1,0,1.9.9,1.9,1.9h0c0,1.1-.8,1.9-1.9,1.9h0c-1.1,0-1.9-.8-1.9-1.9Z"/>
        <path class="cls-13" d="M10.4,475c0-1.1.9-1.9,1.9-1.9h0c1.1,0,1.9.8,1.9,1.9h0c0,1-.8,1.9-1.9,1.9h0c-1,0-1.9-.9-1.9-1.9Z"/>
        <path class="cls-13" d="M10.4,440.2c0-1,.9-1.9,1.9-1.9h0c1,0,1.9.9,1.9,1.9h0c0,1.1-.8,1.9-1.9,1.9h0c-1.1,0-1.9-.9-1.9-1.9Z"/>
        <path class="cls-13" d="M10.4,405.5c0-1.1.9-1.9,1.9-1.9h0c1,0,1.9.8,1.9,1.9h0c0,1-.8,1.9-1.9,1.9h0c-1.1,0-1.9-.9-1.9-1.9Z"/>
        <path class="cls-13" d="M10.4,370.8c0-1,.9-1.9,1.9-1.9h0c1,0,1.9.9,1.9,1.9h0c0,1.1-.8,1.9-1.9,1.9h0c-1.1,0-1.9-.8-1.9-1.9Z"/>
        <path class="cls-13" d="M238.8,475c0-1.1.8-1.9,1.9-1.9h0c1.1,0,1.9.8,1.9,1.9h0c0,1-.8,1.9-1.9,1.9h0c-1,0-1.9-.9-1.9-1.9Z"/>
        <path class="cls-13" d="M238.8,440.2c0-1,.8-1.9,1.9-1.9h0c1.1,0,1.9.8,1.9,1.9h0c0,1.1-.8,1.9-1.9,1.9h0c-1,0-1.9-.8-1.9-1.9Z"/>
        <path class="cls-13" d="M238.8,405.5c0-1.1.8-1.9,1.9-1.9h0c1.1,0,1.9.8,1.9,1.9h0c0,1-.8,1.9-1.9,1.9h0c-1,0-1.9-.9-1.9-1.9Z"/>
        <path class="cls-13" d="M238.8,370.8c0-1,.8-1.9,1.9-1.9h0c1.1,0,1.9.9,1.9,1.9h0c0,1.1-.8,1.9-1.9,1.9h0c-1,0-1.9-.8-1.9-1.9Z"/>
        <path class="cls-13" d="M204.8,475c0-1.8,1.5-3.3,3.3-3.3h0c1.8,0,3.3,1.5,3.3,3.3h0c0,1.8-1.5,3.3-3.3,3.3h0c-1.8,0-3.3-1.5-3.3-3.3Z"/>
        <path class="cls-13" d="M204.8,440.2c0-1.8,1.5-3.3,3.3-3.3h0c1.8,0,3.3,1.5,3.3,3.3h0c0,1.8-1.5,3.3-3.3,3.3h0c-1.8,0-3.3-1.5-3.3-3.3Z"/>
        <path class="cls-13" d="M206.2,405.5c0-1.1.9-1.9,1.9-1.9h0c1,0,1.9.8,1.9,1.9h0c0,1-.8,1.9-1.9,1.9h0c-1.1,0-1.9-.9-1.9-1.9Z"/>
        <path class="cls-13" d="M206.2,370.8c0-1,.9-1.9,1.9-1.9h0c1,0,1.9.9,1.9,1.9h0c0,1.1-.8,1.9-1.9,1.9h0c-1.1,0-1.9-.8-1.9-1.9Z"/>
      </g>
      <g>
        <path class="cls-13" d="M631.9,521.9c0-1.1.9-1.9,1.9-1.9h0c1.1,0,1.9.8,1.9,1.9h0c0,1-.8,1.9-1.9,1.9h0c-1,0-1.9-.9-1.9-1.9Z"/>
        <path class="cls-13" d="M630,487.1c0-2.1,1.7-3.8,3.8-3.8h0c2.1,0,3.8,1.7,3.8,3.8h0c0,2.1-1.7,3.8-3.8,3.8h0c-2.1,0-3.8-1.7-3.8-3.8Z"/>
        <path class="cls-13" d="M631.9,452.4c0-1.1.9-1.9,1.9-1.9h0c1.1,0,1.9.8,1.9,1.9h0c0,1-.8,1.9-1.9,1.9h0c-1,0-1.9-.9-1.9-1.9Z"/>
        <path class="cls-13" d="M599.3,556.6c0-1,.8-1.9,1.9-1.9h0c1,0,1.9.8,1.9,1.9h0c0,1.1-.8,1.9-1.9,1.9h0c-1.1,0-1.9-.8-1.9-1.9Z"/>
        <path class="cls-13" d="M599.3,521.9c0-1.1.8-1.9,1.9-1.9h0c1,0,1.9.8,1.9,1.9h0c0,1-.8,1.9-1.9,1.9h0c-1.1,0-1.9-.9-1.9-1.9Z"/>
        <path class="cls-13" d="M599.3,487.1c0-1,.8-1.9,1.9-1.9h0c1,0,1.9.9,1.9,1.9h0c0,1.1-.8,1.9-1.9,1.9h0c-1.1,0-1.9-.8-1.9-1.9Z"/>
        <path class="cls-13" d="M599.3,452.4c0-1.1.8-1.9,1.9-1.9h0c1,0,1.9.8,1.9,1.9h0c0,1-.8,1.9-1.9,1.9h0c-1.1,0-1.9-.9-1.9-1.9Z"/>
        <path class="cls-13" d="M561,556.6c0-4.2,3.4-7.6,7.6-7.6h0c4.2,0,7.6,3.4,7.6,7.6h0c0,4.2-3.4,7.6-7.6,7.6h0c-4.2,0-7.6-3.4-7.6-7.6Z"/>
        <path class="cls-13" d="M561.9,521.9c0-3.7,3-6.6,6.6-6.6h0c3.7,0,6.6,3,6.6,6.6h0c0,3.7-3,6.6-6.6,6.6h0c-3.7,0-6.6-3-6.6-6.6Z"/>
        <path class="cls-13" d="M566.7,487.1c0-1,.9-1.9,1.9-1.9h0c1.1,0,1.9.9,1.9,1.9h0c0,1.1-.8,1.9-1.9,1.9h0c-1,0-1.9-.8-1.9-1.9Z"/>
        <path class="cls-13" d="M566.7,452.4c0-1.1.9-1.9,1.9-1.9h0c1.1,0,1.9.8,1.9,1.9h0c0,1-.8,1.9-1.9,1.9h0c-1,0-1.9-.9-1.9-1.9Z"/>
        <path class="cls-13" d="M534,591.3c0-1.1.9-1.9,1.9-1.9h0c1,0,1.9.8,1.9,1.9h0c0,1-.8,1.9-1.9,1.9h0c-1.1,0-1.9-.9-1.9-1.9Z"/>
        <path class="cls-13" d="M530.7,556.6c0-2.9,2.3-5.2,5.2-5.2h0c2.9,0,5.2,2.3,5.2,5.2h0c0,2.9-2.3,5.2-5.2,5.2h0c-2.9,0-5.2-2.3-5.2-5.2Z"/>
        <path class="cls-13" d="M534,521.9c0-1.1.9-1.9,1.9-1.9h0c1.1,0,1.9.8,1.9,1.9h0c0,1-.8,1.9-1.9,1.9h0c-1,0-1.9-.9-1.9-1.9Z"/>
        <path class="cls-13" d="M534,487.1c0-1,.9-1.9,1.9-1.9h0c1.1,0,1.9.9,1.9,1.9h0c0,1.1-.8,1.9-1.9,1.9h0c-1,0-1.9-.8-1.9-1.9Z"/>
        <path class="cls-13" d="M533.2,452.4c0-1.6,1.3-2.8,2.8-2.8h0c1.6,0,2.8,1.3,2.8,2.8h0c0,1.6-1.3,2.8-2.8,2.8h0c-1.6,0-2.8-1.3-2.8-2.8Z"/>
        <path class="cls-13" d="M534,417.7c0-1,.9-1.9,1.9-1.9h0c1.1,0,1.9.9,1.9,1.9h0c0,1.1-.8,1.9-1.9,1.9h0c-1,0-1.9-.8-1.9-1.9Z"/>
        <path class="cls-13" d="M501.4,556.6c0-1,.8-1.9,1.9-1.9h0c1,0,1.9.9,1.9,1.9h0c0,1.1-.8,1.9-1.9,1.9h0c-1.1,0-1.9-.8-1.9-1.9Z"/>
        <path class="cls-13" d="M501.4,521.9c0-1.1.8-1.9,1.9-1.9h0c1,0,1.9.8,1.9,1.9h0c0,1-.8,1.9-1.9,1.9h0c-1.1,0-1.9-.9-1.9-1.9Z"/>
        <path class="cls-13" d="M499.5,487.1c0-2.1,1.7-3.8,3.8-3.8h0c2.1,0,3.8,1.7,3.8,3.8h0c0,2.1-1.7,3.8-3.8,3.8h0c-2.1,0-3.8-1.7-3.8-3.8Z"/>
        <path class="cls-13" d="M501.4,452.4c0-1.1.8-1.9,1.9-1.9h0c1,0,1.9.8,1.9,1.9h0c0,1-.8,1.9-1.9,1.9h0c-1.1,0-1.9-.9-1.9-1.9Z"/>
        <path class="cls-13" d="M501.4,417.7c0-1,.8-1.9,1.9-1.9h0c1,0,1.9.9,1.9,1.9h0c0,1.1-.8,1.9-1.9,1.9h0c-1.1,0-1.9-.8-1.9-1.9Z"/>
        <path class="cls-13" d="M468.8,591.3c0-1.1.9-1.9,1.9-1.9h0c1.1,0,1.9.8,1.9,1.9h0c0,1-.8,1.9-1.9,1.9h0c-1,0-1.9-.9-1.9-1.9Z"/>
        <path class="cls-13" d="M468.8,556.6c0-1,.9-1.9,1.9-1.9h0c1,0,1.9.9,1.9,1.9h0c0,1.1-.8,1.9-1.9,1.9h0c-1.1,0-1.9-.8-1.9-1.9Z"/>
        <path class="cls-13" d="M468.8,521.9c0-1.1.9-1.9,1.9-1.9h0c1.1,0,1.9.8,1.9,1.9h0c0,1-.8,1.9-1.9,1.9h0c-1,0-1.9-.9-1.9-1.9Z"/>
        <path class="cls-13" d="M468.8,487.1c0-1,.9-1.9,1.9-1.9h0c1,0,1.9.9,1.9,1.9h0c0,1.1-.8,1.9-1.9,1.9h0c-1.1,0-1.9-.9-1.9-1.9Z"/>
        <path class="cls-13" d="M468.8,452.4c0-1.1.9-1.9,1.9-1.9h0c1,0,1.9.8,1.9,1.9h0c0,1-.8,1.9-1.9,1.9h0c-1.1,0-1.9-.9-1.9-1.9Z"/>
        <path class="cls-13" d="M468.8,417.7c0-1,.9-1.9,1.9-1.9h0c1,0,1.9.9,1.9,1.9h0c0,1.1-.8,1.9-1.9,1.9h0c-1.1,0-1.9-.8-1.9-1.9Z"/>
        <path class="cls-13" d="M436.1,591.3c0-1.1.9-1.9,1.9-1.9h0c1,0,1.9.8,1.9,1.9h0c0,1-.8,1.9-1.9,1.9h0c-1.1,0-1.9-.9-1.9-1.9Z"/>
        <path class="cls-13" d="M433.3,556.6c0-2.6,2.1-4.7,4.7-4.7h0c2.6,0,4.7,2.1,4.7,4.7h0c0,2.6-2.1,4.7-4.7,4.7h0c-2.6,0-4.7-2.1-4.7-4.7Z"/>
        <path class="cls-13" d="M436.1,521.9c0-1.1.9-1.9,1.9-1.9h0c1.1,0,1.9.8,1.9,1.9h0c0,1-.8,1.9-1.9,1.9h0c-1,0-1.9-.9-1.9-1.9Z"/>
        <path class="cls-13" d="M435.2,487.1c0-1.6,1.3-2.8,2.8-2.8h0c1.6,0,2.8,1.3,2.8,2.8h0c0,1.6-1.3,2.8-2.8,2.8h0c-1.6,0-2.8-1.3-2.8-2.8Z"/>
        <path class="cls-13" d="M436.2,452.4c0-1.1.8-1.9,1.9-1.9h0c1.1,0,1.9.8,1.9,1.9h0c0,1-.8,1.9-1.9,1.9h0c-1,0-1.9-.9-1.9-1.9Z"/>
        <path class="cls-13" d="M436.2,417.7c0-1,.8-1.9,1.9-1.9h0c1.1,0,1.9.9,1.9,1.9h0c0,1.1-.8,1.9-1.9,1.9h0c-1,0-1.9-.8-1.9-1.9Z"/>
        <path class="cls-13" d="M403.5,556.6c0-1,.9-1.9,1.9-1.9h0c1.1,0,1.9.9,1.9,1.9h0c0,1.1-.9,1.9-1.9,1.9h0c-1,0-1.9-.8-1.9-1.9Z"/>
        <path class="cls-13" d="M403.5,521.9c0-1.1.9-1.9,1.9-1.9h0c1.1,0,1.9.8,1.9,1.9h0c0,1-.8,1.9-1.9,1.9h0c-1,0-1.9-.9-1.9-1.9Z"/>
        <path class="cls-13" d="M402.1,487.1c0-1.8,1.5-3.3,3.3-3.3h0c1.8,0,3.3,1.5,3.3,3.3h0c0,1.8-1.5,3.3-3.3,3.3h0c-1.8,0-3.3-1.5-3.3-3.3Z"/>
        <path class="cls-13" d="M403.5,452.4c0-1.1.9-1.9,1.9-1.9h0c1,0,1.9.8,1.9,1.9h0c0,1-.8,1.9-1.9,1.9h0c-1.1,0-1.9-.9-1.9-1.9Z"/>
        <path class="cls-13" d="M370.9,591.3c0-1.1.8-1.9,1.9-1.9h0c1.1,0,1.9.8,1.9,1.9h0c0,1-.9,1.9-1.9,1.9h0c-1,0-1.9-.9-1.9-1.9Z"/>
        <path class="cls-13" d="M370.9,556.6c0-1,.9-1.9,1.9-1.9h0c1.1,0,1.9.9,1.9,1.9h0c0,1.1-.9,1.9-1.9,1.9h0c-1,0-1.9-.8-1.9-1.9Z"/>
        <path class="cls-13" d="M370.9,521.9c0-1.1.8-1.9,1.9-1.9h0c1,0,1.9.8,1.9,1.9h0c0,1-.9,1.9-1.9,1.9h0c-1.1,0-1.9-.9-1.9-1.9Z"/>
        <path class="cls-13" d="M338.3,556.6c0-1,.8-1.9,1.9-1.9h0c1.1,0,1.9.9,1.9,1.9h0c0,1.1-.8,1.9-1.9,1.9h0c-1,0-1.9-.8-1.9-1.9Z"/>
        <path class="cls-13" d="M697.2,521.9c0-1.1.8-1.9,1.9-1.9h0c1.1,0,1.9.8,1.9,1.9h0c0,1-.8,1.9-1.9,1.9h0c-1,0-1.9-.9-1.9-1.9Z"/>
        <path class="cls-13" d="M697.2,487.1c0-1,.8-1.9,1.9-1.9h0c1.1,0,1.9.8,1.9,1.9h0c0,1.1-.8,1.9-1.9,1.9h0c-1,0-1.9-.8-1.9-1.9Z"/>
        <path class="cls-13" d="M697.2,452.4c0-1.1.8-1.9,1.9-1.9h0c1.1,0,1.9.8,1.9,1.9h0c0,1-.8,1.9-1.9,1.9h0c-1,0-1.9-.9-1.9-1.9Z"/>
        <path class="cls-13" d="M697.2,417.7c0-1,.8-1.9,1.9-1.9h0c1.1,0,1.9.9,1.9,1.9h0c0,1.1-.8,1.9-1.9,1.9h0c-1,0-1.9-.8-1.9-1.9Z"/>
        <path class="cls-13" d="M663.2,521.9c0-1.8,1.5-3.3,3.3-3.3h0c1.8,0,3.3,1.5,3.3,3.3h0c0,1.8-1.5,3.3-3.3,3.3h0c-1.8,0-3.3-1.5-3.3-3.3Z"/>
        <path class="cls-13" d="M663.2,487.1c0-1.8,1.5-3.3,3.3-3.3h0c1.8,0,3.3,1.5,3.3,3.3h0c0,1.8-1.5,3.3-3.3,3.3h0c-1.8,0-3.3-1.5-3.3-3.3Z"/>
        <path class="cls-13" d="M664.7,452.4c0-1.1.9-1.9,1.9-1.9h0c1,0,1.9.8,1.9,1.9h0c0,1-.8,1.9-1.9,1.9h0c-1.1,0-1.9-.9-1.9-1.9Z"/>
        <path class="cls-13" d="M664.7,417.7c0-1,.9-1.9,1.9-1.9h0c1,0,1.9.9,1.9,1.9h0c0,1.1-.8,1.9-1.9,1.9h0c-1.1,0-1.9-.8-1.9-1.9Z"/>
      </g>
    </g>
    <g>
      <g>
        <g>
          <path class="cls-2" d="M257.51,116.6l16.57,56.74,18.08.36-17.54,75.06-16.57-56.74-18.08-.36,17.54-75.06Z"/>
          <path class="cls-2" d="M351.64,116.6l16.57,56.74,18.08.36-17.54,75.06-16.57-56.74-18.08-.36,17.54-75.06Z"/>
        </g>
        <g>
          <path class="cls-8" d="M448.11,302.14h171.73c8.58,0,15.6,6.65,15.6,14.78v101.68c0,8.13-7.02,14.78-15.6,14.78h-171.73c-8.58,0-15.6-6.65-15.6-14.78v-101.68c0-8.13,7.02-14.78,15.6-14.78h0Z"/>
          <path class="cls-5" d="M623.84,302.64c6.66,1.68,11.6,7.46,11.6,14.28v101.68c0,8.13-7.02,14.78-15.6,14.78h-171.73c-7.49,0-13.8-5.07-15.27-11.77,1.28.32,2.62.5,4,.5h171.73c8.58,0,15.6-6.65,15.6-14.78v-101.68c0-1.03-.11-2.04-.33-3.01h0Z"/>
          <path class="cls-4" d="M468.43,486.71h131.11c1.86,0,3.39-1.52,3.39-3.39v-12.97c0-5.85-5.99-10.63-13.3-10.63h-36.91l-7.01-49.21c-.4-2.8-2.76-4.84-5.58-4.84h-12.25c-2.83,0-5.18,2.05-5.58,4.84l-7.01,49.21h-36.91c-7.32,0-13.3,4.78-13.3,10.63v12.97c0,1.86,1.52,3.39,3.38,3.39Z"/>
        </g>
        <g>
          <path class="cls-4" d="M121.36,263h81.4c2.48,0,4.51,2.03,4.51,4.51v21.31c0,2.48-2.03,4.51-4.51,4.51h-81.4c-2.48,0-4.51-2.03-4.51-4.51v-21.31c0-2.48,2.03-4.51,4.51-4.51Z"/>
          <path class="cls-4" d="M98.81,210.03h81.4c2.48,0,4.51,2.03,4.51,4.51v21.31c0,2.48-2.03,4.51-4.51,4.51h-81.4c-2.48,0-4.51-2.03-4.51-4.51v-21.31c0-2.48,2.03-4.51,4.51-4.51Z"/>
          <path class="cls-4" d="M121.36,157.06h81.4c2.48,0,4.51,2.03,4.51,4.51v21.31c0,2.48-2.03,4.51-4.51,4.51h-81.4c-2.48,0-4.51-2.03-4.51-4.51v-21.31c0-2.48,2.03-4.51,4.51-4.51Z"/>
          <path class="cls-4" d="M98.81,421.91h81.4c2.48,0,4.51,2.03,4.51,4.51v21.31c0,2.48-2.03,4.51-4.51,4.51h-81.4c-2.48,0-4.51-2.03-4.51-4.51v-21.31c0-2.48,2.03-4.51,4.51-4.51Z"/>
          <path class="cls-4" d="M121.36,368.94h81.4c2.48,0,4.51,2.03,4.51,4.51v21.31c0,2.48-2.03,4.51-4.51,4.51h-81.4c-2.48,0-4.51-2.03-4.51-4.51v-21.31c0-2.48,2.03-4.51,4.51-4.51h0Z"/>
          <path class="cls-4" d="M98.81,315.97h81.4c2.48,0,4.51,2.03,4.51,4.51v21.31c0,2.48-2.03,4.51-4.51,4.51h-81.4c-2.48,0-4.51-2.03-4.51-4.51v-21.31c0-2.48,2.03-4.51,4.51-4.51h0Z"/>
        </g>
        <g>
          <path class="cls-1" d="M215.33,486.83h194.45c4.13,0,7.68-1.74,10.21-5,2.53-3.26,3.33-7.13,2.3-11.13-12.58-48.87-56.93-84.98-109.73-84.98s-97.15,36.11-109.73,84.98c-1.03,4-.23,7.87,2.3,11.13s6.08,5,10.21,5Z"/>
          <circle class="cls-11" cx="312.55" cy="328.43" r="57.29"/>
          <path class="cls-7" d="M312.55,271.14c31.64,0,57.29,25.65,57.29,57.29s-25.65,57.29-57.29,57.29c-2.73,0-5.41-.2-8.03-.56,27.84-3.91,49.26-27.81,49.26-56.72s-21.42-52.82-49.26-56.72c2.62-.37,5.3-.56,8.03-.56h0Z"/>
        </g>
        <g>
          <circle class="cls-10" cx="533.92" cy="167.44" r="101.45"/>
          <path class="cls-9" d="M533.98,65.94c-1.52,0-3.03.04-4.53.11,53.93,2.37,96.94,46.84,96.94,101.36s-43,98.99-96.94,101.36c1.5.07,3.01.11,4.53.11,56.04,0,101.46-45.43,101.46-101.46s-45.43-101.46-101.46-101.46Z"/>
          <circle class="cls-14" cx="533.92" cy="167.44" r="83.41"/>
        </g>
        <g>
          <path class="cls-6" d="M145.35,505.81h439.05c6.2,0,11.27,5.07,11.27,11.27v78.72c0,6.2-5.07,11.27-11.27,11.27H145.35c-6.2,0-11.27-5.07-11.27-11.27v-78.72c0-6.2,5.07-11.27,11.27-11.27h0Z"/>
          <path class="cls-6" d="M101.07,486.15h527.61c3.72,0,6.76,3.04,6.76,6.76v25.79c0,3.72-3.04,6.76-6.76,6.76H101.07c-3.72,0-6.76-3.04-6.76-6.76v-25.79c0-3.72,3.04-6.76,6.76-6.76Z"/>
        </g>
      </g>
      <path class="cls-3" d="M352.62,152.08l6.96,23.79c1.09,3.79,4.53,6.42,8.47,6.49l6.93.14-7.19,30.77-6.95-23.78c-1.1-3.79-4.54-6.42-8.47-6.49l-6.95-.14,7.19-30.78ZM333.93,200.67l11.46.23,14.71,50.39c1.13,3.86,4.67,6.48,8.66,6.48h.25c4.09-.11,7.6-2.98,8.53-6.97l17.54-75.05c.62-2.66.01-5.45-1.67-7.59-1.67-2.15-4.21-3.43-6.93-3.48l-11.46-.23-14.73-50.39c-1.15-3.93-4.79-6.61-8.9-6.48-4.09.11-7.6,2.98-8.53,6.97l-17.53,75.05c-.62,2.65-.01,5.45,1.65,7.59,1.67,2.15,4.22,3.43,6.95,3.48h0ZM258.49,152.08l6.94,23.79c1.1,3.79,4.54,6.42,8.48,6.49l6.94.14-7.2,30.78-6.94-23.79c-1.11-3.79-4.54-6.42-8.48-6.49l-6.94-.14,7.19-30.78ZM239.8,200.67l11.46.23,14.72,50.39c1.12,3.86,4.66,6.48,8.65,6.48h.25c4.1-.11,7.61-2.98,8.53-6.97l17.54-75.05c.62-2.66.01-5.45-1.66-7.59-1.67-2.15-4.23-3.43-6.94-3.48l-11.46-.23-14.72-50.39c-1.14-3.93-4.78-6.61-8.9-6.48-4.1.11-7.61,2.98-8.53,6.97l-17.54,75.05c-.62,2.65-.01,5.45,1.66,7.59,1.67,2.15,4.23,3.43,6.94,3.48h0ZM125.88,166.08h72.37v12.29h-72.37v-12.29ZM116.86,196.41h90.42c4.98,0,9.02-4.04,9.02-9.02v-30.33c0-4.99-4.03-9.02-9.02-9.02h-90.42c-4.98,0-9.02,4.04-9.02,9.02v30.33c0,4.98,4.04,9.02,9.02,9.02ZM103.33,219.05h72.38v12.3h-72.38v-12.3ZM94.31,249.39h90.42c4.98,0,9.02-4.05,9.02-9.02v-30.34c0-4.98-4.04-9.02-9.02-9.02h-90.42c-4.98,0-9.02,4.04-9.02,9.02v30.34c0,4.97,4.04,9.02,9.02,9.02ZM198.25,284.31h-72.37v-12.29h72.37v12.29ZM216.29,263c0-4.98-4.03-9.02-9.02-9.02h-90.42c-4.98,0-9.02,4.04-9.02,9.02v30.33c0,4.98,4.04,9.02,9.02,9.02h90.42c4.98,0,9.02-4.04,9.02-9.02v-30.33h0ZM103.33,324.99h72.38v12.3h-72.38v-12.3ZM94.31,355.33h90.42c4.98,0,9.02-4.05,9.02-9.02v-30.34c0-4.97-4.04-9.02-9.02-9.02h-90.42c-4.98,0-9.02,4.05-9.02,9.02v30.34c0,4.97,4.04,9.02,9.02,9.02ZM198.25,390.25h-72.37v-12.29h72.37v12.29ZM207.27,359.93h-90.42c-4.98,0-9.02,4.04-9.02,9.02v30.33c0,4.98,4.04,9.02,9.02,9.02h90.42c4.98,0,9.02-4.04,9.02-9.02v-30.33c0-4.98-4.03-9.02-9.02-9.02ZM103.33,430.93h72.38v12.3h-72.38v-12.3ZM94.31,461.27h90.42c4.98,0,9.02-4.04,9.02-9.02v-30.34c0-4.97-4.04-9.02-9.02-9.02h-90.42c-4.98,0-9.02,4.05-9.02,9.02v30.34c0,4.98,4.04,9.02,9.02,9.02ZM606.04,158.38h8.7c4.99,0,9.02,4.04,9.02,9.02s-4.03,9.02-9.02,9.02h-8.7c-4.99,0-9.02-4.04-9.02-9.02s4.03-9.02,9.02-9.02ZM543.01,239.43v8.76c0,4.98-4.05,9.02-9.02,9.02s-9.02-4.04-9.02-9.02v-8.76c0-4.98,4.03-9.02,9.02-9.02s9.02,4.04,9.02,9.02ZM461.96,176.42h-8.76c-4.98,0-9.02-4.04-9.02-9.02s4.04-9.02,9.02-9.02h8.76c4.98,0,9.02,4.04,9.02,9.02,0,4.98-4.04,9.02-9.02,9.02ZM578.55,122.85c-3.53-3.52-3.53-9.23,0-12.75l6.16-6.19c3.56-3.53,9.29-3.53,12.79,0,3.5,3.52,3.5,9.23,0,12.75l-6.21,6.19c-1.75,1.76-4.09,2.65-6.37,2.65-2.28,0-4.62-.89-6.37-2.65ZM578.55,224.72c-3.53-3.53-3.53-9.23,0-12.76,3.5-3.52,9.23-3.52,12.74,0l6.21,6.19c3.5,3.53,3.5,9.23,0,12.76-1.75,1.76-4.09,2.64-6.37,2.64s-4.62-.88-6.42-2.64l-6.16-6.19ZM470.48,230.91c-3.52-3.53-3.52-9.23,0-12.76l6.19-6.19c3.53-3.52,9.23-3.52,12.76,0,3.52,3.53,3.52,9.23,0,12.76l-6.2,6.19c-1.76,1.76-4.05,2.64-6.37,2.64-2.31,0-4.62-.88-6.38-2.64ZM470.48,116.66c-3.52-3.52-3.52-9.23,0-12.75,3.52-3.53,9.23-3.53,12.75,0l6.2,6.19c3.52,3.52,3.52,9.23,0,12.75-1.77,1.76-4.07,2.65-6.38,2.65s-4.62-.89-6.38-2.65l-6.19-6.19ZM524.97,95.37v-8.76c0-4.97,4.03-9.02,9.02-9.02s9.02,4.05,9.02,9.02v8.76c0,4.98-4.05,9.02-9.02,9.02s-9.02-4.04-9.02-9.02ZM500.54,186.72c-2.49-4.32-1-9.83,3.3-12.32l21.13-12.2v-33.18c0-4.98,4.03-9.02,9.02-9.02s9.02,4.04,9.02,9.02v38.39c0,3.22-1.72,6.2-4.51,7.81l-25.64,14.8c-1.42.81-2.97,1.21-4.5,1.21-3.12,0-6.15-1.62-7.82-4.51h0ZM533.98,74.96c-50.98,0-92.44,41.48-92.44,92.44s41.46,92.44,92.44,92.44,92.43-41.46,92.43-92.44-41.44-92.44-92.43-92.44ZM533.98,277.89c60.91,0,110.47-49.56,110.47-110.48s-49.56-110.49-110.47-110.49-110.48,49.57-110.48,110.49,49.56,110.48,110.48,110.48ZM626.41,418.04c0,3.12-3.02,5.76-6.58,5.76h-63.06l-2.84-19.95c-.63-4.44-4.44-7.75-8.93-7.75h-22.04c-4.49,0-8.29,3.3-8.93,7.75l-2.84,19.95h-63.08c-3.56,0-6.57-2.64-6.57-5.76v-101.67c0-3.12,3.01-5.76,6.57-5.76h171.72c3.56,0,6.58,2.64,6.58,5.76v101.67ZM589.58,468.2h-36.88c-4.48,0-8.3-3.3-8.93-7.75l-6.6-46.31h-6.38l-6.61,46.31c-.63,4.44-4.44,7.75-8.93,7.75h-36.91c-2.48,0-4.03,1.17-4.29,1.7v7.24h119.82v-7.24c-.26-.53-1.8-1.7-4.3-1.7h0ZM626.41,516.45H103.33v-21.27h523.09v21.27ZM586.67,598.06H143.1v-63.57h443.56v63.57ZM312.54,394.06h.04c50.01.01,92.26,35.07,102.1,83.08h-204.24c9.84-48,52.08-83.07,102.11-83.08h0ZM264.29,327.76c0-26.62,21.66-48.27,48.27-48.27s48.26,21.66,48.26,48.27-21.63,48.25-48.24,48.26h-.05c-26.61-.01-48.24-21.66-48.24-48.26h0ZM619.83,292.57h-171.72c-13.57,0-24.61,10.68-24.61,23.8v101.67c0,13.12,11.04,23.8,24.61,23.8h60.51l-1.18,8.32h-29.08c-12.31,0-22.32,8.81-22.32,19.65v7.33h-22.99c-7.88-45.32-40.22-81.38-82.46-95.11,17.08-12.01,28.27-31.85,28.27-54.27,0-36.56-29.74-66.31-66.3-66.31s-66.31,29.75-66.31,66.31c0,22.42,11.2,42.26,28.29,54.27-42.24,13.73-74.58,49.79-82.46,95.11h-97.77c-4.98,0-9.02,4.04-9.02,9.02v39.31c0,4.98,4.04,9.02,9.02,9.02h30.76v72.59c0,4.98,4.03,9.02,9.02,9.02h461.61c4.93,0,9.02-4.04,9.02-9.02v-72.59h30.72c4.99,0,9.02-4.04,9.02-9.02v-39.31c0-4.98-4.03-9.02-9.02-9.02h-23.51v-7.33c0-10.83-10.03-19.65-22.34-19.65h-29.06l-1.18-8.32h60.49c13.58,0,24.62-10.68,24.62-23.8v-101.67c0-13.12-11.04-23.8-24.62-23.8h0Z"/>
    </g>
  </g>
</svg>