<?xml version="1.0" encoding="UTF-8"?>
<svg id="Layer_1" xmlns="http://www.w3.org/2000/svg" version="1.1" viewBox="0 0 720 720">
  <!-- Generator: Adobe Illustrator 29.7.1, SVG Export Plug-In . SVG Version: 2.1.1 Build 8)  -->
  <defs>
    <style>
      .st0 {
        fill: #9a5a9a;
      }

      .st0, .st1, .st2, .st3, .st4 {
        fill-rule: evenodd;
      }

      .st5 {
        fill: #293553;
      }

      .st6 {
        fill: #fff;
      }

      .st7 {
        fill: #06a27a;
      }

      .st1 {
        fill: #f8f3f1;
      }

      .st2 {
        fill: #99cfe1;
      }

      .st3 {
        fill: #ebf5fc;
      }

      .st4 {
        fill: #34cba0;
      }
    </style>
  </defs>
  <rect class="st6" width="720" height="720"/>
  <g>
    <path class="st7" d="M128.4,559c0,1.1-.9,1.9-1.9,1.9h0c-1.1,0-1.9-.8-1.9-1.9h0c0-1,.8-1.9,1.9-1.9h0c1,0,1.9.9,1.9,1.9Z"/>
    <path class="st7" d="M130.3,593.7c0,2.1-1.7,3.8-3.8,3.8h0c-2.1,0-3.8-1.7-3.8-3.8h0c0-2.1,1.7-3.8,3.8-3.8h0c2.1,0,3.8,1.7,3.8,3.8Z"/>
    <path class="st7" d="M128.4,628.4c0,1.1-.9,1.9-1.9,1.9h0c-1.1,0-1.9-.8-1.9-1.9h0c0-1,.8-1.9,1.9-1.9h0c1,0,1.9.9,1.9,1.9Z"/>
    <path class="st7" d="M161,524.2c0,1-.8,1.9-1.9,1.9h0c-1,0-1.9-.8-1.9-1.9h0c0-1.1.8-1.9,1.9-1.9h0c1.1,0,1.9.8,1.9,1.9Z"/>
    <path class="st7" d="M161,559c0,1.1-.8,1.9-1.9,1.9h0c-1,0-1.9-.8-1.9-1.9h0c0-1,.8-1.9,1.9-1.9h0c1.1,0,1.9.9,1.9,1.9Z"/>
    <path class="st7" d="M161,593.7c0,1-.8,1.9-1.9,1.9h0c-1,0-1.9-.9-1.9-1.9h0c0-1.1.8-1.9,1.9-1.9h0c1.1,0,1.9.8,1.9,1.9Z"/>
    <path class="st7" d="M161,628.4c0,1.1-.8,1.9-1.9,1.9h0c-1,0-1.9-.8-1.9-1.9h0c0-1,.8-1.9,1.9-1.9h0c1.1,0,1.9.9,1.9,1.9Z"/>
    <path class="st7" d="M199.4,524.2c0,4.2-3.4,7.6-7.6,7.6h0c-4.2,0-7.6-3.4-7.6-7.6h0c0-4.2,3.4-7.6,7.6-7.6h0c4.2,0,7.6,3.4,7.6,7.6Z"/>
    <path class="st7" d="M198.4,559c0,3.7-3,6.6-6.6,6.6h0c-3.7,0-6.6-3-6.6-6.6h0c0-3.7,3-6.6,6.6-6.6h0c3.7,0,6.6,3,6.6,6.6Z"/>
    <path class="st7" d="M193.7,593.7c0,1-.9,1.9-1.9,1.9h0c-1.1,0-1.9-.9-1.9-1.9h0c0-1.1.8-1.9,1.9-1.9h0c1,0,1.9.8,1.9,1.9Z"/>
    <path class="st7" d="M193.7,628.4c0,1.1-.9,1.9-1.9,1.9h0c-1.1,0-1.9-.8-1.9-1.9h0c0-1,.8-1.9,1.9-1.9h0c1,0,1.9.9,1.9,1.9Z"/>
    <path class="st7" d="M226.3,489.5c0,1.1-.9,1.9-1.9,1.9h0c-1,0-1.9-.8-1.9-1.9h0c0-1,.8-1.9,1.9-1.9h0c1.1,0,1.9.9,1.9,1.9Z"/>
    <path class="st7" d="M229.6,524.2c0,2.9-2.3,5.2-5.2,5.2h0c-2.9,0-5.2-2.3-5.2-5.2h0c0-2.9,2.3-5.2,5.2-5.2h0c2.9,0,5.2,2.3,5.2,5.2Z"/>
    <path class="st7" d="M226.3,559c0,1.1-.9,1.9-1.9,1.9h0c-1.1,0-1.9-.8-1.9-1.9h0c0-1,.8-1.9,1.9-1.9h0c1,0,1.9.9,1.9,1.9Z"/>
    <path class="st7" d="M226.3,593.7c0,1-.9,1.9-1.9,1.9h0c-1.1,0-1.9-.9-1.9-1.9h0c0-1.1.8-1.9,1.9-1.9h0c1,0,1.9.8,1.9,1.9Z"/>
    <path class="st7" d="M227.3,628.4c0,1.6-1.3,2.8-2.8,2.8h0c-1.6,0-2.8-1.3-2.8-2.8h0c0-1.6,1.3-2.8,2.8-2.8h0c1.6,0,2.8,1.3,2.8,2.8Z"/>
    <path class="st7" d="M226.3,663.2c0,1-.9,1.9-1.9,1.9h0c-1.1,0-1.9-.9-1.9-1.9h0c0-1.1.8-1.9,1.9-1.9h0c1,0,1.9.8,1.9,1.9Z"/>
    <path class="st7" d="M258.9,524.2c0,1-.8,1.9-1.9,1.9h0c-1,0-1.9-.9-1.9-1.9h0c0-1.1.8-1.9,1.9-1.9h0c1.1,0,1.9.8,1.9,1.9Z"/>
    <path class="st7" d="M258.9,559c0,1.1-.8,1.9-1.9,1.9h0c-1,0-1.9-.8-1.9-1.9h0c0-1,.8-1.9,1.9-1.9h0c1.1,0,1.9.9,1.9,1.9Z"/>
    <path class="st7" d="M260.8,593.7c0,2.1-1.7,3.8-3.8,3.8h0c-2.1,0-3.8-1.7-3.8-3.8h0c0-2.1,1.7-3.8,3.8-3.8h0c2.1,0,3.8,1.7,3.8,3.8Z"/>
    <path class="st7" d="M258.9,628.4c0,1.1-.8,1.9-1.9,1.9h0c-1,0-1.9-.8-1.9-1.9h0c0-1,.8-1.9,1.9-1.9h0c1.1,0,1.9.9,1.9,1.9Z"/>
    <path class="st7" d="M258.9,663.2c0,1-.8,1.9-1.9,1.9h0c-1,0-1.9-.9-1.9-1.9h0c0-1.1.8-1.9,1.9-1.9h0c1.1,0,1.9.8,1.9,1.9Z"/>
    <path class="st7" d="M291.6,489.5c0,1.1-.9,1.9-1.9,1.9h0c-1.1,0-1.9-.8-1.9-1.9h0c0-1,.8-1.9,1.9-1.9h0c1,0,1.9.9,1.9,1.9Z"/>
    <path class="st7" d="M291.6,524.2c0,1-.9,1.9-1.9,1.9h0c-1,0-1.9-.9-1.9-1.9h0c0-1.1.8-1.9,1.9-1.9h0c1.1,0,1.9.8,1.9,1.9Z"/>
    <path class="st7" d="M291.6,559c0,1.1-.9,1.9-1.9,1.9h0c-1.1,0-1.9-.8-1.9-1.9h0c0-1,.8-1.9,1.9-1.9h0c1,0,1.9.9,1.9,1.9Z"/>
    <path class="st7" d="M291.6,593.7c0,1-.9,1.9-1.9,1.9h0c-1,0-1.9-.9-1.9-1.9h0c0-1.1.8-1.9,1.9-1.9h0c1.1,0,1.9.9,1.9,1.9Z"/>
    <path class="st7" d="M291.6,628.4c0,1.1-.9,1.9-1.9,1.9h0c-1,0-1.9-.8-1.9-1.9h0c0-1,.8-1.9,1.9-1.9h0c1.1,0,1.9.9,1.9,1.9Z"/>
    <path class="st7" d="M291.6,663.2c0,1-.9,1.9-1.9,1.9h0c-1,0-1.9-.9-1.9-1.9h0c0-1.1.8-1.9,1.9-1.9h0c1.1,0,1.9.8,1.9,1.9Z"/>
    <path class="st7" d="M324.2,489.5c0,1.1-.9,1.9-1.9,1.9h0c-1,0-1.9-.8-1.9-1.9h0c0-1,.8-1.9,1.9-1.9h0c1.1,0,1.9.9,1.9,1.9Z"/>
    <path class="st7" d="M327,524.2c0,2.6-2.1,4.7-4.7,4.7h0c-2.6,0-4.7-2.1-4.7-4.7h0c0-2.6,2.1-4.7,4.7-4.7h0c2.6,0,4.7,2.1,4.7,4.7Z"/>
    <path class="st7" d="M324.2,559c0,1.1-.9,1.9-1.9,1.9h0c-1.1,0-1.9-.8-1.9-1.9h0c0-1,.8-1.9,1.9-1.9h0c1,0,1.9.9,1.9,1.9Z"/>
    <path class="st7" d="M325.1,593.7c0,1.6-1.3,2.8-2.8,2.8h0c-1.6,0-2.8-1.3-2.8-2.8h0c0-1.6,1.3-2.8,2.8-2.8h0c1.6,0,2.8,1.3,2.8,2.8Z"/>
    <path class="st7" d="M324.2,628.4c0,1.1-.8,1.9-1.9,1.9h0c-1.1,0-1.9-.8-1.9-1.9h0c0-1,.8-1.9,1.9-1.9h0c1,0,1.9.9,1.9,1.9Z"/>
    <path class="st7" d="M324.2,663.2c0,1-.8,1.9-1.9,1.9h0c-1.1,0-1.9-.9-1.9-1.9h0c0-1.1.8-1.9,1.9-1.9h0c1,0,1.9.8,1.9,1.9Z"/>
    <path class="st7" d="M356.8,524.2c0,1-.9,1.9-1.9,1.9h0c-1.1,0-1.9-.9-1.9-1.9h0c0-1.1.9-1.9,1.9-1.9h0c1,0,1.9.8,1.9,1.9Z"/>
    <path class="st7" d="M356.8,559c0,1.1-.9,1.9-1.9,1.9h0c-1.1,0-1.9-.8-1.9-1.9h0c0-1,.8-1.9,1.9-1.9h0c1,0,1.9.9,1.9,1.9Z"/>
    <path class="st7" d="M358.3,593.7c0,1.8-1.5,3.3-3.3,3.3h0c-1.8,0-3.3-1.5-3.3-3.3h0c0-1.8,1.5-3.3,3.3-3.3h0c1.8,0,3.3,1.5,3.3,3.3Z"/>
    <path class="st7" d="M356.8,628.4c0,1.1-.9,1.9-1.9,1.9h0c-1,0-1.9-.8-1.9-1.9h0c0-1,.8-1.9,1.9-1.9h0c1.1,0,1.9.9,1.9,1.9Z"/>
    <path class="st7" d="M389.5,489.5c0,1.1-.8,1.9-1.9,1.9h0c-1.1,0-1.9-.8-1.9-1.9h0c0-1,.9-1.9,1.9-1.9h0c1,0,1.9.9,1.9,1.9Z"/>
    <path class="st7" d="M389.5,524.2c0,1-.9,1.9-1.9,1.9h0c-1.1,0-1.9-.9-1.9-1.9h0c0-1.1.9-1.9,1.9-1.9h0c1,0,1.9.8,1.9,1.9Z"/>
    <path class="st7" d="M389.5,559c0,1.1-.8,1.9-1.9,1.9h0c-1,0-1.9-.8-1.9-1.9h0c0-1,.9-1.9,1.9-1.9h0c1.1,0,1.9.9,1.9,1.9Z"/>
    <path class="st7" d="M422.1,524.2c0,1-.8,1.9-1.9,1.9h0c-1.1,0-1.9-.9-1.9-1.9h0c0-1.1.8-1.9,1.9-1.9h0c1,0,1.9.8,1.9,1.9Z"/>
    <path class="st7" d="M63.2,559c0,1.1-.8,1.9-1.9,1.9h0c-1.1,0-1.9-.8-1.9-1.9h0c0-1,.8-1.9,1.9-1.9h0c1,0,1.9.9,1.9,1.9Z"/>
    <path class="st7" d="M63.2,593.7c0,1-.8,1.9-1.9,1.9h0c-1.1,0-1.9-.8-1.9-1.9h0c0-1.1.8-1.9,1.9-1.9h0c1,0,1.9.8,1.9,1.9Z"/>
    <path class="st7" d="M63.2,628.4c0,1.1-.8,1.9-1.9,1.9h0c-1.1,0-1.9-.8-1.9-1.9h0c0-1,.8-1.9,1.9-1.9h0c1,0,1.9.9,1.9,1.9Z"/>
    <path class="st7" d="M63.2,663.2c0,1-.8,1.9-1.9,1.9h0c-1.1,0-1.9-.9-1.9-1.9h0c0-1.1.8-1.9,1.9-1.9h0c1,0,1.9.8,1.9,1.9Z"/>
    <path class="st7" d="M97.2,559c0,1.8-1.5,3.3-3.3,3.3h0c-1.8,0-3.3-1.5-3.3-3.3h0c0-1.8,1.5-3.3,3.3-3.3h0c1.8,0,3.3,1.5,3.3,3.3Z"/>
    <path class="st7" d="M97.2,593.7c0,1.8-1.5,3.3-3.3,3.3h0c-1.8,0-3.3-1.5-3.3-3.3h0c0-1.8,1.5-3.3,3.3-3.3h0c1.8,0,3.3,1.5,3.3,3.3Z"/>
    <path class="st7" d="M95.8,628.4c0,1.1-.9,1.9-1.9,1.9h0c-1,0-1.9-.8-1.9-1.9h0c0-1,.8-1.9,1.9-1.9h0c1.1,0,1.9.9,1.9,1.9Z"/>
    <path class="st7" d="M95.8,663.2c0,1-.9,1.9-1.9,1.9h0c-1,0-1.9-.9-1.9-1.9h0c0-1.1.8-1.9,1.9-1.9h0c1.1,0,1.9.8,1.9,1.9Z"/>
  </g>
  <g>
    <path class="st7" d="M173.6,475c0-1.1.9-1.9,1.9-1.9h0c1.1,0,1.9.8,1.9,1.9h0c0,1-.8,1.9-1.9,1.9h0c-1,0-1.9-.9-1.9-1.9Z"/>
    <path class="st7" d="M171.7,440.2c0-2.1,1.7-3.8,3.8-3.8h0c2.1,0,3.8,1.7,3.8,3.8h0c0,2.1-1.7,3.8-3.8,3.8h0c-2.1,0-3.8-1.7-3.8-3.8Z"/>
    <path class="st7" d="M173.6,405.5c0-1.1.9-1.9,1.9-1.9h0c1.1,0,1.9.8,1.9,1.9h0c0,1-.8,1.9-1.9,1.9h0c-1,0-1.9-.9-1.9-1.9Z"/>
    <path class="st7" d="M140.9,509.7c0-1,.8-1.9,1.9-1.9h0c1,0,1.9.8,1.9,1.9h0c0,1.1-.8,1.9-1.9,1.9h0c-1.1,0-1.9-.8-1.9-1.9Z"/>
    <path class="st7" d="M140.9,475c0-1.1.8-1.9,1.9-1.9h0c1,0,1.9.8,1.9,1.9h0c0,1-.8,1.9-1.9,1.9h0c-1.1,0-1.9-.9-1.9-1.9Z"/>
    <path class="st7" d="M140.9,440.2c0-1,.8-1.9,1.9-1.9h0c1,0,1.9.9,1.9,1.9h0c0,1.1-.8,1.9-1.9,1.9h0c-1.1,0-1.9-.8-1.9-1.9Z"/>
    <path class="st7" d="M140.9,405.5c0-1.1.8-1.9,1.9-1.9h0c1,0,1.9.8,1.9,1.9h0c0,1-.8,1.9-1.9,1.9h0c-1.1,0-1.9-.9-1.9-1.9Z"/>
    <path class="st7" d="M102.6,509.7c0-4.2,3.4-7.6,7.6-7.6h0c4.2,0,7.6,3.4,7.6,7.6h0c0,4.2-3.4,7.6-7.6,7.6h0c-4.2,0-7.6-3.4-7.6-7.6h0Z"/>
    <path class="st7" d="M103.6,475c0-3.7,3-6.6,6.6-6.6h0c3.7,0,6.6,3,6.6,6.6h0c0,3.7-3,6.6-6.6,6.6h0c-3.7,0-6.6-3-6.6-6.6Z"/>
    <path class="st7" d="M108.3,440.2c0-1,.9-1.9,1.9-1.9h0c1.1,0,1.9.9,1.9,1.9h0c0,1.1-.8,1.9-1.9,1.9h0c-1,0-1.9-.8-1.9-1.9Z"/>
    <path class="st7" d="M108.3,405.5c0-1.1.9-1.9,1.9-1.9h0c1.1,0,1.9.8,1.9,1.9h0c0,1-.8,1.9-1.9,1.9h0c-1,0-1.9-.9-1.9-1.9Z"/>
    <path class="st7" d="M75.7,544.4c0-1.1.9-1.9,1.9-1.9h0c1,0,1.9.8,1.9,1.9h0c0,1-.8,1.9-1.9,1.9h0c-1.1,0-1.9-.9-1.9-1.9Z"/>
    <path class="st7" d="M72.4,509.7c0-2.9,2.3-5.2,5.2-5.2h0c2.9,0,5.2,2.3,5.2,5.2h0c0,2.9-2.3,5.2-5.2,5.2h0c-2.9,0-5.2-2.3-5.2-5.2Z"/>
    <path class="st7" d="M75.7,475c0-1.1.9-1.9,1.9-1.9h0c1.1,0,1.9.8,1.9,1.9h0c0,1-.8,1.9-1.9,1.9h0c-1,0-1.9-.9-1.9-1.9Z"/>
    <path class="st7" d="M75.7,440.2c0-1,.9-1.9,1.9-1.9h0c1.1,0,1.9.9,1.9,1.9h0c0,1.1-.8,1.9-1.9,1.9h0c-1,0-1.9-.8-1.9-1.9Z"/>
    <path class="st7" d="M74.7,405.5c0-1.6,1.3-2.8,2.8-2.8h0c1.6,0,2.8,1.3,2.8,2.8h0c0,1.6-1.3,2.8-2.8,2.8h0c-1.6,0-2.8-1.3-2.8-2.8Z"/>
    <path class="st7" d="M75.7,370.8c0-1,.9-1.9,1.9-1.9h0c1.1,0,1.9.9,1.9,1.9h0c0,1.1-.8,1.9-1.9,1.9h0c-1,0-1.9-.8-1.9-1.9Z"/>
    <path class="st7" d="M43.1,509.7c0-1,.8-1.9,1.9-1.9h0c1,0,1.9.9,1.9,1.9h0c0,1.1-.8,1.9-1.9,1.9h0c-1.1,0-1.9-.8-1.9-1.9Z"/>
    <path class="st7" d="M43.1,475c0-1.1.8-1.9,1.9-1.9h0c1,0,1.9.8,1.9,1.9h0c0,1-.8,1.9-1.9,1.9h0c-1.1,0-1.9-.9-1.9-1.9Z"/>
    <path class="st7" d="M41.2,440.2c0-2.1,1.7-3.8,3.8-3.8h0c2.1,0,3.8,1.7,3.8,3.8h0c0,2.1-1.7,3.8-3.8,3.8h0c-2.1,0-3.8-1.7-3.8-3.8Z"/>
    <path class="st7" d="M43.1,405.5c0-1.1.8-1.9,1.9-1.9h0c1,0,1.9.8,1.9,1.9h0c0,1-.8,1.9-1.9,1.9h0c-1.1,0-1.9-.9-1.9-1.9Z"/>
    <path class="st7" d="M43.1,370.8c0-1,.8-1.9,1.9-1.9h0c1,0,1.9.9,1.9,1.9h0c0,1.1-.8,1.9-1.9,1.9h0c-1.1,0-1.9-.8-1.9-1.9Z"/>
    <path class="st7" d="M10.4,544.4c0-1.1.9-1.9,1.9-1.9h0c1.1,0,1.9.8,1.9,1.9h0c0,1-.8,1.9-1.9,1.9h0c-1,0-1.9-.9-1.9-1.9Z"/>
    <path class="st7" d="M10.4,509.7c0-1,.9-1.9,1.9-1.9h0c1,0,1.9.9,1.9,1.9h0c0,1.1-.8,1.9-1.9,1.9h0c-1.1,0-1.9-.8-1.9-1.9Z"/>
    <path class="st7" d="M10.4,475c0-1.1.9-1.9,1.9-1.9h0c1.1,0,1.9.8,1.9,1.9h0c0,1-.8,1.9-1.9,1.9h0c-1,0-1.9-.9-1.9-1.9Z"/>
    <path class="st7" d="M10.4,440.2c0-1,.9-1.9,1.9-1.9h0c1,0,1.9.9,1.9,1.9h0c0,1.1-.8,1.9-1.9,1.9h0c-1.1,0-1.9-.9-1.9-1.9Z"/>
    <path class="st7" d="M10.4,405.5c0-1.1.9-1.9,1.9-1.9h0c1,0,1.9.8,1.9,1.9h0c0,1-.8,1.9-1.9,1.9h0c-1.1,0-1.9-.9-1.9-1.9Z"/>
    <path class="st7" d="M10.4,370.8c0-1,.9-1.9,1.9-1.9h0c1,0,1.9.9,1.9,1.9h0c0,1.1-.8,1.9-1.9,1.9h0c-1.1,0-1.9-.8-1.9-1.9Z"/>
    <path class="st7" d="M-22.2,544.4c0-1.1.9-1.9,1.9-1.9h0c1,0,1.9.8,1.9,1.9h0c0,1-.8,1.9-1.9,1.9h0c-1.1,0-1.9-.9-1.9-1.9Z"/>
    <path class="st7" d="M-25.1,509.7c0-2.6,2.1-4.7,4.7-4.7h0c2.6,0,4.7,2.1,4.7,4.7h0c0,2.6-2.1,4.7-4.7,4.7h0c-2.6,0-4.7-2.1-4.7-4.7Z"/>
    <path class="st7" d="M-22.2,475c0-1.1.9-1.9,1.9-1.9h0c1.1,0,1.9.8,1.9,1.9h0c0,1-.8,1.9-1.9,1.9h0c-1,0-1.9-.9-1.9-1.9Z"/>
    <path class="st7" d="M-23.2,440.2c0-1.6,1.3-2.8,2.8-2.8h0c1.6,0,2.8,1.3,2.8,2.8h0c0,1.6-1.3,2.8-2.8,2.8h0c-1.6,0-2.8-1.3-2.8-2.8Z"/>
    <path class="st7" d="M-22.2,405.5c0-1.1.8-1.9,1.9-1.9h0c1.1,0,1.9.8,1.9,1.9h0c0,1-.8,1.9-1.9,1.9h0c-1,0-1.9-.9-1.9-1.9Z"/>
    <path class="st7" d="M-22.2,370.8c0-1,.8-1.9,1.9-1.9h0c1.1,0,1.9.9,1.9,1.9h0c0,1.1-.8,1.9-1.9,1.9h0c-1,0-1.9-.8-1.9-1.9Z"/>
    <path class="st7" d="M-54.8,509.7c0-1,.9-1.9,1.9-1.9h0c1.1,0,1.9.9,1.9,1.9h0c0,1.1-.9,1.9-1.9,1.9h0c-1,0-1.9-.8-1.9-1.9Z"/>
    <path class="st7" d="M-54.8,475c0-1.1.9-1.9,1.9-1.9h0c1.1,0,1.9.8,1.9,1.9h0c0,1-.8,1.9-1.9,1.9h0c-1,0-1.9-.9-1.9-1.9Z"/>
    <path class="st7" d="M-56.3,440.2c0-1.8,1.5-3.3,3.3-3.3h0c1.8,0,3.3,1.5,3.3,3.3h0c0,1.8-1.5,3.3-3.3,3.3h0c-1.8,0-3.3-1.5-3.3-3.3Z"/>
    <path class="st7" d="M-54.8,405.5c0-1.1.9-1.9,1.9-1.9h0c1,0,1.9.8,1.9,1.9h0c0,1-.8,1.9-1.9,1.9h0c-1.1,0-1.9-.9-1.9-1.9Z"/>
    <path class="st7" d="M-87.5,544.4c0-1.1.8-1.9,1.9-1.9h0c1.1,0,1.9.8,1.9,1.9h0c0,1-.9,1.9-1.9,1.9h0c-1,0-1.9-.9-1.9-1.9Z"/>
    <path class="st7" d="M-87.5,509.7c0-1,.9-1.9,1.9-1.9h0c1.1,0,1.9.9,1.9,1.9h0c0,1.1-.9,1.9-1.9,1.9h0c-1,0-1.9-.8-1.9-1.9Z"/>
    <path class="st7" d="M-87.5,475c0-1.1.8-1.9,1.9-1.9h0c1,0,1.9.8,1.9,1.9h0c0,1-.9,1.9-1.9,1.9h0c-1.1,0-1.9-.9-1.9-1.9Z"/>
    <path class="st7" d="M-120.1,509.7c0-1,.8-1.9,1.9-1.9h0c1.1,0,1.9.9,1.9,1.9h0c0,1.1-.8,1.9-1.9,1.9h0c-1,0-1.9-.8-1.9-1.9Z"/>
    <path class="st7" d="M238.8,475c0-1.1.8-1.9,1.9-1.9h0c1.1,0,1.9.8,1.9,1.9h0c0,1-.8,1.9-1.9,1.9h0c-1,0-1.9-.9-1.9-1.9Z"/>
    <path class="st7" d="M238.8,440.2c0-1,.8-1.9,1.9-1.9h0c1.1,0,1.9.8,1.9,1.9h0c0,1.1-.8,1.9-1.9,1.9h0c-1,0-1.9-.8-1.9-1.9Z"/>
    <path class="st7" d="M238.8,405.5c0-1.1.8-1.9,1.9-1.9h0c1.1,0,1.9.8,1.9,1.9h0c0,1-.8,1.9-1.9,1.9h0c-1,0-1.9-.9-1.9-1.9Z"/>
    <path class="st7" d="M238.8,370.8c0-1,.8-1.9,1.9-1.9h0c1.1,0,1.9.9,1.9,1.9h0c0,1.1-.8,1.9-1.9,1.9h0c-1,0-1.9-.8-1.9-1.9Z"/>
    <path class="st7" d="M204.8,475c0-1.8,1.5-3.3,3.3-3.3h0c1.8,0,3.3,1.5,3.3,3.3h0c0,1.8-1.5,3.3-3.3,3.3h0c-1.8,0-3.3-1.5-3.3-3.3Z"/>
    <path class="st7" d="M204.8,440.2c0-1.8,1.5-3.3,3.3-3.3h0c1.8,0,3.3,1.5,3.3,3.3h0c0,1.8-1.5,3.3-3.3,3.3h0c-1.8,0-3.3-1.5-3.3-3.3Z"/>
    <path class="st7" d="M206.2,405.5c0-1.1.9-1.9,1.9-1.9h0c1,0,1.9.8,1.9,1.9h0c0,1-.8,1.9-1.9,1.9h0c-1.1,0-1.9-.9-1.9-1.9Z"/>
    <path class="st7" d="M206.2,370.8c0-1,.9-1.9,1.9-1.9h0c1,0,1.9.9,1.9,1.9h0c0,1.1-.8,1.9-1.9,1.9h0c-1.1,0-1.9-.8-1.9-1.9Z"/>
  </g>
  <g>
    <path class="st7" d="M631.9,521.9c0-1.1.9-1.9,1.9-1.9h0c1.1,0,1.9.8,1.9,1.9h0c0,1-.8,1.9-1.9,1.9h0c-1,0-1.9-.9-1.9-1.9Z"/>
    <path class="st7" d="M630,487.1c0-2.1,1.7-3.8,3.8-3.8h0c2.1,0,3.8,1.7,3.8,3.8h0c0,2.1-1.7,3.8-3.8,3.8h0c-2.1,0-3.8-1.7-3.8-3.8Z"/>
    <path class="st7" d="M631.9,452.4c0-1.1.9-1.9,1.9-1.9h0c1.1,0,1.9.8,1.9,1.9h0c0,1-.8,1.9-1.9,1.9h0c-1,0-1.9-.9-1.9-1.9Z"/>
    <path class="st7" d="M599.3,556.6c0-1,.8-1.9,1.9-1.9h0c1,0,1.9.8,1.9,1.9h0c0,1.1-.8,1.9-1.9,1.9h0c-1.1,0-1.9-.8-1.9-1.9Z"/>
    <path class="st7" d="M599.3,521.9c0-1.1.8-1.9,1.9-1.9h0c1,0,1.9.8,1.9,1.9h0c0,1-.8,1.9-1.9,1.9h0c-1.1,0-1.9-.9-1.9-1.9Z"/>
    <path class="st7" d="M599.3,487.1c0-1,.8-1.9,1.9-1.9h0c1,0,1.9.9,1.9,1.9h0c0,1.1-.8,1.9-1.9,1.9h0c-1.1,0-1.9-.8-1.9-1.9Z"/>
    <path class="st7" d="M599.3,452.4c0-1.1.8-1.9,1.9-1.9h0c1,0,1.9.8,1.9,1.9h0c0,1-.8,1.9-1.9,1.9h0c-1.1,0-1.9-.9-1.9-1.9Z"/>
    <path class="st7" d="M561,556.6c0-4.2,3.4-7.6,7.6-7.6h0c4.2,0,7.6,3.4,7.6,7.6h0c0,4.2-3.4,7.6-7.6,7.6h0c-4.2,0-7.6-3.4-7.6-7.6Z"/>
    <path class="st7" d="M561.9,521.9c0-3.7,3-6.6,6.6-6.6h0c3.7,0,6.6,3,6.6,6.6h0c0,3.7-3,6.6-6.6,6.6h0c-3.7,0-6.6-3-6.6-6.6Z"/>
    <path class="st7" d="M566.7,487.1c0-1,.9-1.9,1.9-1.9h0c1.1,0,1.9.9,1.9,1.9h0c0,1.1-.8,1.9-1.9,1.9h0c-1,0-1.9-.8-1.9-1.9Z"/>
    <path class="st7" d="M566.7,452.4c0-1.1.9-1.9,1.9-1.9h0c1.1,0,1.9.8,1.9,1.9h0c0,1-.8,1.9-1.9,1.9h0c-1,0-1.9-.9-1.9-1.9Z"/>
    <path class="st7" d="M534,591.3c0-1.1.9-1.9,1.9-1.9h0c1,0,1.9.8,1.9,1.9h0c0,1-.8,1.9-1.9,1.9h0c-1.1,0-1.9-.9-1.9-1.9Z"/>
    <path class="st7" d="M530.7,556.6c0-2.9,2.3-5.2,5.2-5.2h0c2.9,0,5.2,2.3,5.2,5.2h0c0,2.9-2.3,5.2-5.2,5.2h0c-2.9,0-5.2-2.3-5.2-5.2Z"/>
    <path class="st7" d="M534,521.9c0-1.1.9-1.9,1.9-1.9h0c1.1,0,1.9.8,1.9,1.9h0c0,1-.8,1.9-1.9,1.9h0c-1,0-1.9-.9-1.9-1.9Z"/>
    <path class="st7" d="M534,487.1c0-1,.9-1.9,1.9-1.9h0c1.1,0,1.9.9,1.9,1.9h0c0,1.1-.8,1.9-1.9,1.9h0c-1,0-1.9-.8-1.9-1.9Z"/>
    <path class="st7" d="M533.2,452.4c0-1.6,1.3-2.8,2.8-2.8h0c1.6,0,2.8,1.3,2.8,2.8h0c0,1.6-1.3,2.8-2.8,2.8h0c-1.6,0-2.8-1.3-2.8-2.8Z"/>
    <path class="st7" d="M534,417.7c0-1,.9-1.9,1.9-1.9h0c1.1,0,1.9.9,1.9,1.9h0c0,1.1-.8,1.9-1.9,1.9h0c-1,0-1.9-.8-1.9-1.9Z"/>
    <path class="st7" d="M501.4,556.6c0-1,.8-1.9,1.9-1.9h0c1,0,1.9.9,1.9,1.9h0c0,1.1-.8,1.9-1.9,1.9h0c-1.1,0-1.9-.8-1.9-1.9Z"/>
    <path class="st7" d="M501.4,521.9c0-1.1.8-1.9,1.9-1.9h0c1,0,1.9.8,1.9,1.9h0c0,1-.8,1.9-1.9,1.9h0c-1.1,0-1.9-.9-1.9-1.9Z"/>
    <path class="st7" d="M499.5,487.1c0-2.1,1.7-3.8,3.8-3.8h0c2.1,0,3.8,1.7,3.8,3.8h0c0,2.1-1.7,3.8-3.8,3.8h0c-2.1,0-3.8-1.7-3.8-3.8Z"/>
    <path class="st7" d="M501.4,452.4c0-1.1.8-1.9,1.9-1.9h0c1,0,1.9.8,1.9,1.9h0c0,1-.8,1.9-1.9,1.9h0c-1.1,0-1.9-.9-1.9-1.9Z"/>
    <path class="st7" d="M501.4,417.7c0-1,.8-1.9,1.9-1.9h0c1,0,1.9.9,1.9,1.9h0c0,1.1-.8,1.9-1.9,1.9h0c-1.1,0-1.9-.8-1.9-1.9Z"/>
    <path class="st7" d="M468.8,591.3c0-1.1.9-1.9,1.9-1.9h0c1.1,0,1.9.8,1.9,1.9h0c0,1-.8,1.9-1.9,1.9h0c-1,0-1.9-.9-1.9-1.9Z"/>
    <path class="st7" d="M468.8,556.6c0-1,.9-1.9,1.9-1.9h0c1,0,1.9.9,1.9,1.9h0c0,1.1-.8,1.9-1.9,1.9h0c-1.1,0-1.9-.8-1.9-1.9Z"/>
    <path class="st7" d="M468.8,521.9c0-1.1.9-1.9,1.9-1.9h0c1.1,0,1.9.8,1.9,1.9h0c0,1-.8,1.9-1.9,1.9h0c-1,0-1.9-.9-1.9-1.9Z"/>
    <path class="st7" d="M468.8,487.1c0-1,.9-1.9,1.9-1.9h0c1,0,1.9.9,1.9,1.9h0c0,1.1-.8,1.9-1.9,1.9h0c-1.1,0-1.9-.9-1.9-1.9Z"/>
    <path class="st7" d="M468.8,452.4c0-1.1.9-1.9,1.9-1.9h0c1,0,1.9.8,1.9,1.9h0c0,1-.8,1.9-1.9,1.9h0c-1.1,0-1.9-.9-1.9-1.9Z"/>
    <path class="st7" d="M468.8,417.7c0-1,.9-1.9,1.9-1.9h0c1,0,1.9.9,1.9,1.9h0c0,1.1-.8,1.9-1.9,1.9h0c-1.1,0-1.9-.8-1.9-1.9Z"/>
    <path class="st7" d="M436.1,591.3c0-1.1.9-1.9,1.9-1.9h0c1,0,1.9.8,1.9,1.9h0c0,1-.8,1.9-1.9,1.9h0c-1.1,0-1.9-.9-1.9-1.9Z"/>
    <path class="st7" d="M433.3,556.6c0-2.6,2.1-4.7,4.7-4.7h0c2.6,0,4.7,2.1,4.7,4.7h0c0,2.6-2.1,4.7-4.7,4.7h0c-2.6,0-4.7-2.1-4.7-4.7Z"/>
    <path class="st7" d="M436.1,521.9c0-1.1.9-1.9,1.9-1.9h0c1.1,0,1.9.8,1.9,1.9h0c0,1-.8,1.9-1.9,1.9h0c-1,0-1.9-.9-1.9-1.9Z"/>
    <path class="st7" d="M435.2,487.1c0-1.6,1.3-2.8,2.8-2.8h0c1.6,0,2.8,1.3,2.8,2.8h0c0,1.6-1.3,2.8-2.8,2.8h0c-1.6,0-2.8-1.3-2.8-2.8Z"/>
    <path class="st7" d="M436.2,452.4c0-1.1.8-1.9,1.9-1.9h0c1.1,0,1.9.8,1.9,1.9h0c0,1-.8,1.9-1.9,1.9h0c-1,0-1.9-.9-1.9-1.9Z"/>
    <path class="st7" d="M436.2,417.7c0-1,.8-1.9,1.9-1.9h0c1.1,0,1.9.9,1.9,1.9h0c0,1.1-.8,1.9-1.9,1.9h0c-1,0-1.9-.8-1.9-1.9Z"/>
    <path class="st7" d="M403.5,556.6c0-1,.9-1.9,1.9-1.9h0c1.1,0,1.9.9,1.9,1.9h0c0,1.1-.9,1.9-1.9,1.9h0c-1,0-1.9-.8-1.9-1.9Z"/>
    <path class="st7" d="M403.5,521.9c0-1.1.9-1.9,1.9-1.9h0c1.1,0,1.9.8,1.9,1.9h0c0,1-.8,1.9-1.9,1.9h0c-1,0-1.9-.9-1.9-1.9Z"/>
    <path class="st7" d="M402.1,487.1c0-1.8,1.5-3.3,3.3-3.3h0c1.8,0,3.3,1.5,3.3,3.3h0c0,1.8-1.5,3.3-3.3,3.3h0c-1.8,0-3.3-1.5-3.3-3.3Z"/>
    <path class="st7" d="M403.5,452.4c0-1.1.9-1.9,1.9-1.9h0c1,0,1.9.8,1.9,1.9h0c0,1-.8,1.9-1.9,1.9h0c-1.1,0-1.9-.9-1.9-1.9Z"/>
    <path class="st7" d="M370.9,591.3c0-1.1.8-1.9,1.9-1.9h0c1.1,0,1.9.8,1.9,1.9h0c0,1-.9,1.9-1.9,1.9h0c-1,0-1.9-.9-1.9-1.9Z"/>
    <path class="st7" d="M370.9,556.6c0-1,.9-1.9,1.9-1.9h0c1.1,0,1.9.9,1.9,1.9h0c0,1.1-.9,1.9-1.9,1.9h0c-1,0-1.9-.8-1.9-1.9Z"/>
    <path class="st7" d="M370.9,521.9c0-1.1.8-1.9,1.9-1.9h0c1,0,1.9.8,1.9,1.9h0c0,1-.9,1.9-1.9,1.9h0c-1.1,0-1.9-.9-1.9-1.9Z"/>
    <path class="st7" d="M338.3,556.6c0-1,.8-1.9,1.9-1.9h0c1.1,0,1.9.9,1.9,1.9h0c0,1.1-.8,1.9-1.9,1.9h0c-1,0-1.9-.8-1.9-1.9Z"/>
    <path class="st7" d="M697.2,521.9c0-1.1.8-1.9,1.9-1.9h0c1.1,0,1.9.8,1.9,1.9h0c0,1-.8,1.9-1.9,1.9h0c-1,0-1.9-.9-1.9-1.9Z"/>
    <path class="st7" d="M697.2,487.1c0-1,.8-1.9,1.9-1.9h0c1.1,0,1.9.8,1.9,1.9h0c0,1.1-.8,1.9-1.9,1.9h0c-1,0-1.9-.8-1.9-1.9Z"/>
    <path class="st7" d="M697.2,452.4c0-1.1.8-1.9,1.9-1.9h0c1.1,0,1.9.8,1.9,1.9h0c0,1-.8,1.9-1.9,1.9h0c-1,0-1.9-.9-1.9-1.9Z"/>
    <path class="st7" d="M697.2,417.7c0-1,.8-1.9,1.9-1.9h0c1.1,0,1.9.9,1.9,1.9h0c0,1.1-.8,1.9-1.9,1.9h0c-1,0-1.9-.8-1.9-1.9Z"/>
    <path class="st7" d="M663.2,521.9c0-1.8,1.5-3.3,3.3-3.3h0c1.8,0,3.3,1.5,3.3,3.3h0c0,1.8-1.5,3.3-3.3,3.3h0c-1.8,0-3.3-1.5-3.3-3.3Z"/>
    <path class="st7" d="M663.2,487.1c0-1.8,1.5-3.3,3.3-3.3h0c1.8,0,3.3,1.5,3.3,3.3h0c0,1.8-1.5,3.3-3.3,3.3h0c-1.8,0-3.3-1.5-3.3-3.3Z"/>
    <path class="st7" d="M664.7,452.4c0-1.1.9-1.9,1.9-1.9h0c1,0,1.9.8,1.9,1.9h0c0,1-.8,1.9-1.9,1.9h0c-1.1,0-1.9-.9-1.9-1.9Z"/>
    <path class="st7" d="M664.7,417.7c0-1,.9-1.9,1.9-1.9h0c1,0,1.9.9,1.9,1.9h0c0,1.1-.8,1.9-1.9,1.9h0c-1.1,0-1.9-.8-1.9-1.9Z"/>
  </g>
  <g>
    <path class="st3" d="M480.5,80.9c32.9,0,59.6,26.7,59.6,59.6s-26.7,59.6-59.6,59.6-59.6-26.7-59.6-59.6,26.7-59.6,59.6-59.6Z"/>
    <path class="st4" d="M521.9,183.3c-2.8-13.3-14.7-23.4-28.8-23.4h-25.2c-14.1,0-25.9,10.1-28.8,23.4,10.7,10.3,25.3,16.7,41.4,16.7s30.7-6.4,41.4-16.7h0Z"/>
    <path class="st4" d="M480.5,110.5c11.5,0,20.8,9.3,20.8,20.8s-9.3,20.8-20.8,20.8-20.8-9.3-20.8-20.8,9.3-20.8,20.8-20.8Z"/>
    <path class="st3" d="M250.7,80.9c32.9,0,59.6,26.7,59.6,59.6s-26.7,59.6-59.6,59.6-59.6-26.7-59.6-59.6,26.7-59.6,59.6-59.6Z"/>
    <path class="st4" d="M292.1,183.3c-2.8-13.3-14.7-23.4-28.8-23.4h-25.2c-14.1,0-26,10.1-28.8,23.4,10.7,10.3,25.3,16.7,41.4,16.7s30.7-6.4,41.4-16.7h0Z"/>
    <path class="st4" d="M250.7,110.5c11.5,0,20.8,9.3,20.8,20.8s-9.3,20.8-20.8,20.8-20.8-9.3-20.8-20.8c0-11.5,9.3-20.8,20.8-20.8Z"/>
    <path class="st3" d="M135.8,280c32.9,0,59.6,26.7,59.6,59.6s-26.7,59.6-59.6,59.6-59.6-26.7-59.6-59.6,26.7-59.6,59.6-59.6Z"/>
    <path class="st4" d="M177.2,382.3c-2.8-13.3-14.7-23.4-28.8-23.4h-25.2c-14.1,0-26,10.1-28.8,23.4,10.7,10.4,25.3,16.8,41.4,16.8s30.7-6.4,41.4-16.8Z"/>
    <path class="st4" d="M135.8,309.5c11.5,0,20.8,9.3,20.8,20.8s-9.3,20.8-20.8,20.8-20.8-9.3-20.8-20.8c0-11.5,9.3-20.8,20.8-20.8Z"/>
    <path class="st1" d="M365.6,232.6c59.1,0,106.9,47.9,106.9,106.9s-47.8,106.9-106.9,106.9-106.9-47.9-106.9-106.9,47.9-106.9,106.9-106.9Z"/>
    <path class="st0" d="M383.5,496.4v118.6c0,9.9-8.1,17.9-17.9,17.9s-18-8.1-18-17.9v-118.6c0-6.3,5.2-11.5,11.5-11.5h12.9c6.3,0,11.5,5.2,11.5,11.5h0Z"/>
    <path class="st3" d="M595.3,280c32.9,0,59.6,26.7,59.6,59.6s-26.7,59.6-59.6,59.6-59.6-26.7-59.6-59.6c0-32.9,26.7-59.6,59.6-59.6Z"/>
    <path class="st4" d="M636.7,382.3c-2.8-13.3-14.7-23.4-28.8-23.4h-25.2c-14.1,0-25.9,10.1-28.8,23.4,10.7,10.4,25.3,16.8,41.4,16.8s30.7-6.4,41.4-16.8Z"/>
    <path class="st4" d="M595.3,309.5c11.5,0,20.8,9.3,20.8,20.8s-9.3,20.8-20.8,20.8-20.8-9.3-20.8-20.8,9.3-20.8,20.8-20.8Z"/>
    <path class="st2" d="M365.6,232.6c2.2,0,4.4,0,6.6.2-56,3.4-100.3,49.9-100.3,106.7s44.3,103.3,100.3,106.7c-2.2.1-4.4.2-6.6.2-59.1,0-106.9-47.9-106.9-106.9s47.9-106.9,106.9-106.9Z"/>
  </g>
  <path class="st5" d="M664.3,339.5c0-38-30.9-68.9-68.9-68.9s-63.7,26-68.3,59.6h-45.7c-2.9-35.7-21.9-67-49.9-86.3l22.9-39.6c8,3.3,16.8,5.1,26,5.1,18.3,0,34.9-7.2,47.3-18.8.4-.3.7-.6,1.1-1,12.7-12.5,20.6-29.9,20.6-49.1,0-38-30.9-68.9-68.9-68.9s-68.9,30.9-68.9,68.9,7.8,36.4,20.4,48.9c.4.5.9.9,1.4,1.3,1.6,1.5,3.2,2.9,4.9,4.2l-22.9,39.6c-15.1-7.2-32-11.2-49.8-11.2s-34.7,4-49.9,11.2l-22.9-39.6c1.8-1.4,3.5-2.8,5.1-4.3.4-.3.7-.6,1.1-1,12.7-12.5,20.6-29.9,20.6-49.1,0-38-30.9-68.9-68.9-68.9s-68.9,30.9-68.9,68.9,7.8,36.4,20.4,48.9c.4.5.9.9,1.4,1.3,12.3,11.6,28.9,18.7,47.1,18.7s18-1.8,26-5.1l22.9,39.6c-27.9,19.3-47,50.6-49.8,86.3h-45.7c-4.6-33.6-33.4-59.6-68.3-59.6s-68.9,30.9-68.9,68.9,7.8,36.4,20.5,48.9c.4.4.8.9,1.3,1.2,12.3,11.6,28.9,18.7,47.2,18.7s34.8-7.1,47.1-18.7c.5-.4.9-.8,1.3-1.2,10.5-10.4,17.7-24.2,19.8-39.6h45.7c4.5,56.7,49.9,102,106.5,106.5v20.4c-10.1,1.4-18,10.1-18,20.7v118.6c0,15.1,12.3,27.3,27.3,27.3s27.3-12.3,27.3-27.3v-118.6c0-10.5-7.8-19.2-18-20.7v-20.4c56.7-4.5,102-49.9,106.5-106.5h45.7c2.1,15.4,9.3,29.1,19.8,39.6.4.5.8.9,1.3,1.2,12.3,11.6,28.9,18.7,47.2,18.7s34.8-7.1,47.1-18.7c.5-.4.9-.8,1.3-1.2,12.7-12.5,20.5-29.8,20.5-48.9h0ZM449.9,180.3c3.4-6.6,10.2-11,17.9-11h25.2c7.7,0,14.5,4.4,17.9,11-8.5,6.5-19,10.4-30.5,10.4s-22.1-3.9-30.5-10.4h0ZM469,131.2c0-6.3,5.1-11.4,11.4-11.4s11.4,5.1,11.4,11.4-5.1,11.4-11.4,11.4-11.4-5.1-11.4-11.4ZM480.5,90.2c27.7,0,50.2,22.5,50.2,50.2s-2.5,17.9-6.9,25.4c-5.3-6.9-12.9-11.9-21.4-14.1,5.1-5.4,8.2-12.6,8.2-20.6,0-16.6-13.5-30.1-30.1-30.1s-30.1,13.5-30.1,30.1,3.1,15.2,8.2,20.6c-8.5,2.1-16.1,7.2-21.4,14-4.4-7.4-6.9-16.1-6.9-25.3,0-27.7,22.5-50.2,50.2-50.2ZM250.7,90.2c27.7,0,50.2,22.5,50.2,50.2s-2.5,17.9-6.9,25.4c-5.3-6.9-12.9-11.9-21.4-14.1,5.1-5.4,8.2-12.6,8.2-20.6,0-16.6-13.5-30.1-30.1-30.1s-30.1,13.5-30.1,30.1,3.1,15.2,8.2,20.6c-8.5,2.1-16.1,7.2-21.4,14-4.4-7.4-6.9-16.1-6.9-25.3,0-27.7,22.5-50.2,50.2-50.2ZM239.2,131.2c0-6.3,5.1-11.4,11.4-11.4s11.4,5.1,11.4,11.4-5.1,11.4-11.4,11.4-11.4-5.1-11.4-11.4ZM220.1,180.3c3.4-6.6,10.2-11,17.9-11h25.2c7.7,0,14.5,4.4,17.9,11-8.5,6.5-19,10.4-30.5,10.4s-22.1-3.9-30.5-10.4ZM595.4,289.3c27.7,0,50.2,22.5,50.2,50.2s-2.5,17.9-6.9,25.3c-5.3-6.9-12.8-11.9-21.4-14.1,5-5.4,8.1-12.6,8.1-20.6,0-16.6-13.5-30.1-30.1-30.1s-30.1,13.5-30.1,30.1,3.1,15.2,8.1,20.6c-8.5,2.1-16.1,7.2-21.4,14-4.4-7.4-6.9-16.1-6.9-25.3,0-27.7,22.5-50.2,50.2-50.2ZM583.9,330.2c0-6.3,5.1-11.4,11.4-11.4s11.4,5.1,11.4,11.4-5.1,11.4-11.4,11.4-11.4-5.1-11.4-11.4ZM135.8,289.3c27.7,0,50.2,22.5,50.2,50.2s-2.5,17.9-6.9,25.3c-5.3-6.9-12.8-11.9-21.4-14.1,5-5.4,8.1-12.6,8.1-20.6,0-16.6-13.5-30.1-30.1-30.1s-30.1,13.5-30.1,30.1,3.1,15.2,8.1,20.6c-8.5,2.1-16.1,7.2-21.4,14-4.4-7.4-6.9-16.1-6.9-25.3,0-27.7,22.5-50.2,50.2-50.2h0ZM124.3,330.2c0-6.3,5.1-11.4,11.4-11.4s11.4,5.1,11.4,11.4-5.1,11.4-11.4,11.4-11.4-5.1-11.4-11.4ZM105.2,379.3c3.4-6.6,10.2-11,17.9-11h25.2c7.7,0,14.6,4.4,17.9,11-8.5,6.5-19,10.4-30.5,10.4s-22.1-3.9-30.5-10.4h0ZM374.2,615c0,4.7-3.9,8.6-8.6,8.6s-8.6-3.9-8.6-8.6v-118.6c0-1.2,1-2.2,2.2-2.2h12.9c1.2,0,2.2,1,2.2,2.2v118.6h0ZM365.6,437.1c-53.8,0-97.6-43.8-97.6-97.6s43.8-97.6,97.6-97.6,97.6,43.8,97.6,97.6-43.8,97.6-97.6,97.6h0ZM564.8,379.3c3.4-6.6,10.2-11,17.9-11h25.2c7.7,0,14.5,4.4,17.9,11-8.5,6.5-19,10.3-30.5,10.3s-22.1-3.9-30.5-10.4h0Z"/>
</svg>