<?xml version="1.0" encoding="UTF-8"?>
<svg id="Layer_2" data-name="Layer 2" xmlns="http://www.w3.org/2000/svg" viewBox="0 0 720 720">
  <defs>
    <style>
      .cls-1 {
        fill: #d0d8da;
      }

      .cls-2 {
        fill: #93999a;
      }

      .cls-3 {
        fill: #ffd000;
      }

      .cls-4 {
        fill: #00b4d8;
      }

      .cls-5 {
        fill: #293553;
      }

      .cls-6 {
        fill: #ffea00;
      }

      .cls-7 {
        fill: #464a51;
      }

      .cls-8 {
        fill: #fff;
      }

      .cls-9 {
        fill: #06a27a;
      }

      .cls-10 {
        fill: #f8f3f1;
      }

      .cls-11 {
        fill: #656b76;
      }

      .cls-12 {
        fill: #73d6bb;
      }

      .cls-13 {
        fill: #9a5a9a;
      }
    </style>
  </defs>
  <g id="Layer_1-2" data-name="Layer 1">
    <rect class="cls-8" width="720" height="720"/>
    <rect class="cls-8" width="720" height="720"/>
    <g id="Fill_Outline" data-name="Fill Outline">
      <g id="Color">
        <path class="cls-10" d="M511.78,202.54s-64.56,76.34-144.21,76.34-144.21-76.34-144.21-76.34c0,0,64.56-76.34,144.21-76.34s144.21,76.34,144.21,76.34Z"/>
        <path class="cls-4" d="M511.78,490.96h67.86v93.31h-67.86v-93.31Z"/>
        <circle class="cls-6" cx="545.71" cy="389.16" r="25.45"/>
        <path class="cls-13" d="M520.26,414.61v101.79h-16.97c-9.36-.03-16.94-7.61-16.97-16.97v-50.9c0-18.74,15.19-33.93,33.93-33.93Z"/>
        <path class="cls-13" d="M605.09,448.54v50.9c-.03,9.36-7.61,16.94-16.97,16.97h-16.97v-101.79c18.74,0,33.93,15.19,33.93,33.93Z"/>
        <path class="cls-6" d="M511.78,584.27h33.93v16.97c0,9.37-7.6,16.97-16.97,16.97s-16.97-7.6-16.97-16.97v-16.97h0Z"/>
        <path class="cls-6" d="M545.71,584.27h33.93v16.97c0,9.37-7.6,16.97-16.97,16.97s-16.97-7.6-16.97-16.97v-16.97h0Z"/>
        <path class="cls-13" d="M520.26,414.61h50.9v76.34h-50.9v-76.34Z"/>
        <path class="cls-3" d="M578.11,608.19c-3.88,8.53-13.95,12.29-22.47,8.41-6.02-2.74-9.9-8.74-9.93-15.36v-16.97h8.48v8.48c.03,9.36,7.61,16.94,16.97,16.97,2.4.02,4.78-.5,6.96-1.53Z"/>
        <path class="cls-3" d="M544.18,608.19c-3.88,8.53-13.95,12.29-22.47,8.41-6.02-2.74-9.9-8.74-9.93-15.36v-16.97h8.48v8.48c.03,9.36,7.61,16.94,16.97,16.97,2.4.02,4.78-.5,6.96-1.53Z"/>
        <path class="cls-4" d="M393.02,490.96h67.86v93.31h-67.86v-93.31Z"/>
        <circle class="cls-6" cx="426.95" cy="389.16" r="25.45"/>
        <path class="cls-13" d="M401.5,414.61v101.79h-16.97c-9.36-.03-16.94-7.61-16.97-16.97v-50.9c0-18.74,15.19-33.93,33.93-33.93Z"/>
        <path class="cls-13" d="M486.33,448.54v50.9c-.03,9.36-7.61,16.94-16.97,16.97h-16.97v-101.79c18.74,0,33.93,15.19,33.93,33.93Z"/>
        <path class="cls-6" d="M393.02,584.27h33.93v16.97c0,9.37-7.6,16.97-16.97,16.97s-16.97-7.6-16.97-16.97v-16.97h0Z"/>
        <path class="cls-6" d="M426.95,584.27h33.93v16.97c0,9.37-7.6,16.97-16.97,16.97s-16.97-7.6-16.97-16.97v-16.97h0Z"/>
        <path class="cls-13" d="M401.5,414.61h50.9v76.34h-50.9v-76.34Z"/>
        <path class="cls-3" d="M459.35,608.19c-3.88,8.53-13.95,12.29-22.47,8.41-6.02-2.74-9.9-8.74-9.93-15.36v-16.97h8.48v8.48c.03,9.36,7.61,16.94,16.97,16.97,2.4.02,4.78-.5,6.96-1.53Z"/>
        <path class="cls-3" d="M425.42,608.19c-3.88,8.53-13.95,12.29-22.47,8.41-6.02-2.74-9.9-8.74-9.93-15.36v-16.97h8.48v8.48c.03,9.36,7.61,16.94,16.97,16.97,2.4.02,4.78-.5,6.96-1.53Z"/>
        <path class="cls-4" d="M274.26,490.96h67.86v93.31h-67.86v-93.31Z"/>
        <circle class="cls-6" cx="308.19" cy="389.16" r="25.45"/>
        <path class="cls-13" d="M282.74,414.61v101.79h-16.97c-9.36-.03-16.94-7.61-16.97-16.97v-50.9c0-18.74,15.19-33.93,33.93-33.93Z"/>
        <path class="cls-13" d="M367.57,448.54v50.9c-.03,9.36-7.61,16.94-16.97,16.97h-16.97v-101.79c18.74,0,33.93,15.19,33.93,33.93Z"/>
        <path class="cls-6" d="M274.26,584.27h33.93v16.97c0,9.37-7.6,16.97-16.97,16.97s-16.97-7.6-16.97-16.97v-16.97h0Z"/>
        <path class="cls-6" d="M308.19,584.27h33.93v16.97c0,9.37-7.6,16.97-16.97,16.97s-16.97-7.6-16.97-16.97v-16.97h0Z"/>
        <path class="cls-13" d="M282.74,414.61h50.9v76.34h-50.9v-76.34Z"/>
        <path class="cls-3" d="M340.59,608.19c-3.88,8.53-13.95,12.29-22.47,8.41-6.02-2.74-9.9-8.74-9.93-15.36v-16.97h8.48v8.48c.03,9.36,7.61,16.94,16.97,16.97,2.4.02,4.78-.5,6.96-1.53Z"/>
        <path class="cls-3" d="M306.66,608.19c-3.88,8.53-13.95,12.29-22.47,8.41-6.02-2.74-9.9-8.74-9.93-15.36v-16.97h8.48v8.48c.03,9.36,7.61,16.94,16.97,16.97,2.4.02,4.78-.5,6.96-1.53Z"/>
        <path class="cls-4" d="M155.5,490.96h67.86v93.31h-67.86v-93.31Z"/>
        <circle class="cls-6" cx="189.43" cy="389.16" r="25.45"/>
        <path class="cls-13" d="M163.98,414.61v101.79h-16.97c-9.36-.03-16.94-7.61-16.97-16.97v-50.9c0-18.74,15.19-33.93,33.93-33.93Z"/>
        <path class="cls-13" d="M248.81,448.54v50.9c-.03,9.36-7.61,16.94-16.97,16.97h-16.97v-101.79c18.74,0,33.93,15.19,33.93,33.93Z"/>
        <path class="cls-6" d="M155.5,584.27h33.93v16.97c0,9.37-7.6,16.97-16.97,16.97s-16.97-7.6-16.97-16.97v-16.97h0Z"/>
        <path class="cls-6" d="M189.43,584.27h33.93v16.97c0,9.37-7.6,16.97-16.97,16.97s-16.97-7.6-16.97-16.97v-16.97h0Z"/>
        <path class="cls-13" d="M163.98,414.61h50.9v76.34h-50.9v-76.34Z"/>
        <path class="cls-3" d="M221.84,608.19c-3.88,8.53-13.95,12.29-22.47,8.41-6.02-2.74-9.9-8.74-9.93-15.36v-16.97h8.48v8.48c.03,9.36,7.61,16.94,16.97,16.97,2.4.02,4.78-.5,6.96-1.53Z"/>
        <path class="cls-3" d="M187.9,608.19c-3.88,8.53-13.95,12.29-22.47,8.41-6.02-2.74-9.9-8.74-9.93-15.36v-16.97h8.48v8.48c.03,9.36,7.61,16.94,16.97,16.97,2.4.02,4.78-.5,6.96-1.53Z"/>
        <circle class="cls-12" cx="367.57" cy="202.54" r="76.34"/>
        <path class="cls-9" d="M439.76,227.14c-13.55,39.9-56.88,61.25-96.78,47.7-30.96-10.52-51.78-39.6-51.75-72.3,0-3.4.24-6.8.68-10.18,27.4,21.46,73.8,35.63,126.56,35.63,7.21,0,14.34-.25,21.29-.85Z"/>
        <circle class="cls-11" cx="367.57" cy="202.54" r="38.17"/>
        <circle class="cls-1" cx="401.5" cy="177.1" r="25.45"/>
        <path class="cls-7" d="M396.75,227.14c-13.57,16.14-37.65,18.22-53.78,4.66-5.73-4.82-9.92-11.22-12.04-18.4,21.19,7.63,43.35,12.26,65.83,13.74Z"/>
        <path class="cls-2" d="M405.74,202.12c-1.39.31-2.82.46-4.24.42-14.05,0-25.45-11.38-25.46-25.44,0-3.85.87-7.66,2.55-11.12,16,4.78,27.01,19.44,27.14,36.14Z"/>
      </g>
      <g id="Outline_copy" data-name="Outline copy">
        <path class="cls-5" d="M163.98,423.1h50.9c14.05,0,25.45,11.39,25.45,25.45v50.9c0,4.68-3.8,8.48-8.48,8.48h-8.48v-59.38c0-4.68-3.8-8.48-8.48-8.48s-8.48,3.8-8.48,8.48v33.93h-33.93v-33.93c0-4.68-3.8-8.48-8.48-8.48s-8.48,3.8-8.48,8.48v59.38h-8.48c-4.68,0-8.48-3.8-8.48-8.48v-16.97c0-4.68-3.8-8.48-8.48-8.48s-8.48,3.8-8.48,8.48v16.97c0,14.05,11.39,25.45,25.45,25.45v76.34c-.06,13.99,11.23,25.39,25.23,25.45,6.36.03,12.49-2.33,17.19-6.62,10.34,9.43,26.36,8.69,35.8-1.64,4.28-4.7,6.65-10.83,6.62-17.19v-76.34c6.28-.02,12.33-2.38,16.97-6.62,4.64,4.24,10.68,6.59,16.97,6.62h16.97c4.68,0,8.48-3.8,8.48-8.48v-16.97h33.93v16.97c0,4.68,3.8,8.48,8.48,8.48v50.9h-16.97v-42.41c0-4.68-3.8-8.48-8.48-8.48s-8.48,3.8-8.48,8.48v42.41h-16.97v-25.45c0-4.68-3.8-8.48-8.48-8.48s-8.48,3.8-8.48,8.48v50.9c-.06,13.99,11.23,25.39,25.23,25.45,6.36.03,12.49-2.33,17.19-6.62,10.34,9.43,26.36,8.69,35.8-1.64,4.28-4.7,6.65-10.83,6.62-17.19v-76.34c6.26,0,12.31-2.31,16.97-6.5,4.66,4.19,10.7,6.5,16.97,6.5v76.34c-.06,13.99,11.23,25.39,25.23,25.45,6.36.03,12.49-2.33,17.19-6.62,10.34,9.43,26.36,8.69,35.8-1.64,4.28-4.7,6.65-10.83,6.62-17.19v-76.34c6.28-.02,12.33-2.38,16.97-6.62,4.64,4.24,10.68,6.59,16.97,6.62h16.97c4.68,0,8.48-3.8,8.48-8.48v-16.97h33.93v16.97c0,4.68,3.8,8.48,8.48,8.48v50.9h-16.97v-42.41c0-4.68-3.8-8.48-8.48-8.48s-8.48,3.8-8.48,8.48v42.41h-16.97v-25.45c0-4.68-3.8-8.48-8.48-8.48s-8.48,3.8-8.48,8.48v50.9c-.06,13.99,11.23,25.39,25.23,25.45,6.36.03,12.49-2.33,17.19-6.62,10.34,9.43,26.36,8.69,35.8-1.64,4.28-4.7,6.65-10.83,6.62-17.19v-76.34c14.05,0,25.45-11.39,25.45-25.45v-50.9c-.07-21.98-16.94-40.24-38.84-42.05h0c9.71-16.03,4.59-36.89-11.44-46.6-16.03-9.71-36.89-4.59-46.6,11.44-6.55,10.81-6.55,24.36,0,35.17-12.07,1-23.13,7.14-30.36,16.86-7.23-9.72-18.29-15.87-30.36-16.86,9.72-16.02,4.6-36.89-11.42-46.61-16.02-9.72-36.89-4.6-46.61,11.42-6.52,10.76-6.56,24.25-.09,35.04-12.02,1.02-23.03,7.11-30.28,16.74-7.25-9.64-18.26-15.74-30.28-16.77,9.64-16.07,4.42-36.91-11.65-46.55-16.07-9.64-36.91-4.42-46.55,11.65-6.47,10.79-6.44,24.28.09,35.04-12.08,1-23.14,7.16-30.36,16.89-7.23-9.72-18.29-15.87-30.36-16.86,9.71-16.03,4.59-36.89-11.44-46.6-16.03-9.71-36.89-4.59-46.6,11.44-6.55,10.81-6.55,24.36,0,35.17-21.9,1.81-38.78,20.07-38.84,42.05,0,4.68,3.8,8.48,8.48,8.48M189.43,372.2c9.37,0,16.97,7.6,16.97,16.97s-7.6,16.97-16.97,16.97-16.97-7.6-16.97-16.97,7.6-16.97,16.97-16.97ZM172.47,609.72c-4.68,0-8.48-3.8-8.48-8.48v-8.48h16.97v8.48c0,4.68-3.8,8.48-8.48,8.48ZM214.88,601.23c0,4.68-3.8,8.48-8.48,8.48s-8.48-3.8-8.48-8.48v-8.48h16.97v8.48ZM214.88,575.79h-16.97v-42.41c0-4.68-3.8-8.48-8.48-8.48s-8.48,3.8-8.48,8.48v42.41h-16.97v-50.9c4.68,0,8.48-3.8,8.48-8.48v-16.97h33.93v16.97c0,4.68,3.8,8.48,8.48,8.48v50.9ZM291.22,609.72c-4.68,0-8.48-3.8-8.48-8.48v-8.48h16.97v8.48c0,4.68-3.8,8.48-8.48,8.48ZM333.64,601.23c0,4.68-3.8,8.48-8.48,8.48s-8.48-3.8-8.48-8.48v-8.48h16.97v8.48ZM528.74,609.72c-4.68,0-8.48-3.8-8.48-8.48v-8.48h16.97v8.48c0,4.68-3.8,8.48-8.48,8.48ZM571.16,601.23c0,4.68-3.8,8.48-8.48,8.48s-8.48-3.8-8.48-8.48v-8.48h16.97v8.48ZM545.71,372.2c9.37,0,16.97,7.6,16.97,16.97s-7.6,16.97-16.97,16.97-16.97-7.6-16.97-16.97,7.6-16.97,16.97-16.97ZM426.95,372.2c9.37,0,16.97,7.6,16.97,16.97s-7.6,16.97-16.97,16.97-16.97-7.6-16.97-16.97,7.6-16.97,16.97-16.97ZM308.19,372.2c9.37,0,16.97,7.6,16.97,16.97s-7.6,16.97-16.97,16.97-16.97-7.6-16.97-16.97,7.6-16.97,16.97-16.97ZM409.98,609.72c-4.68,0-8.48-3.8-8.48-8.48v-8.48h16.97v8.48c0,4.68-3.8,8.48-8.48,8.48ZM452.4,601.23c0,4.68-3.8,8.48-8.48,8.48s-8.48-3.8-8.48-8.48v-8.48h16.97v8.48ZM452.4,575.79h-16.97v-42.41c0-4.68-3.8-8.48-8.48-8.48s-8.48,3.8-8.48,8.48v42.41h-16.97v-50.9c4.68,0,8.48-3.8,8.48-8.48v-16.97h33.93v16.97c0,4.68,3.8,8.48,8.48,8.48v50.9ZM469.36,507.92h-8.48v-59.38c0-4.68-3.8-8.48-8.48-8.48s-8.48,3.8-8.48,8.48v33.93h-33.93v-33.93c0-4.68-3.8-8.48-8.48-8.48s-8.48,3.8-8.48,8.48v59.38h-8.48c-4.68,0-8.48-3.8-8.48-8.48v-16.97c0-4.68-3.8-8.48-8.48-8.48s-8.48,3.8-8.48,8.48v16.97c0,4.68-3.8,8.48-8.48,8.48h-8.48v-59.38c0-4.68-3.8-8.48-8.48-8.48s-8.48,3.8-8.48,8.48v33.93h-33.93v-33.93c0-4.68-3.8-8.48-8.48-8.48s-8.48,3.8-8.48,8.48v59.38h-8.48c-4.68,0-8.48-3.8-8.48-8.48v-50.9c0-14.05,11.39-25.45,25.45-25.45h50.9c14.05,0,25.45,11.39,25.45,25.45,0,4.68,3.8,8.48,8.48,8.48s8.48-3.8,8.48-8.48c0-14.05,11.39-25.45,25.45-25.45h50.9c14.05,0,25.45,11.39,25.45,25.45v50.9c0,4.68-3.8,8.48-8.48,8.48ZM596.6,499.44c0,4.68-3.8,8.48-8.48,8.48h-8.48v-59.38c0-4.68-3.8-8.48-8.48-8.48s-8.48,3.8-8.48,8.48v33.93h-33.93v-33.93c0-4.68-3.8-8.48-8.48-8.48s-8.48,3.8-8.48,8.48v59.38h-8.48c-4.68,0-8.48-3.8-8.48-8.48v-50.9c0-14.05,11.39-25.45,25.45-25.45h50.9c14.05,0,25.45,11.39,25.45,25.45v50.9Z"/>
        <path class="cls-5" d="M197.44,189.12c2.5,0,4.87-1.09,6.48-3,18.2-20.36,39.12-38.11,62.17-52.75,4.03-2.39,5.36-7.59,2.97-11.62-2.39-4.03-7.59-5.36-11.62-2.97-.14.08-.28.17-.41.26-24.55,15.51-46.78,34.4-66.05,56.12-3.03,3.58-2.58,8.93,1,11.96,1.53,1.29,3.46,2,5.46,2.01Z"/>
        <path class="cls-5" d="M469.05,133.37c23.05,14.64,43.97,32.38,62.17,52.75,2.9,3.68,8.23,4.31,11.91,1.42,3.68-2.9,4.31-8.23,1.42-11.91-.13-.16-.26-.31-.39-.46-19.27-21.72-41.5-40.61-66.05-56.12-3.89-2.62-9.16-1.58-11.77,2.3-2.62,3.89-1.58,9.16,2.3,11.77.13.09.27.18.41.26Z"/>
        <path class="cls-5" d="M216.88,197.06c-2.68,3.16-2.68,7.8,0,10.96,2.75,3.24,68.07,79.35,150.69,79.35,32.48,0,66.17-11.77,100.01-34.97,3.87-2.65,4.85-7.93,2.2-11.8-2.65-3.87-7.93-4.85-11.8-2.2-6.76,4.63-13.77,8.87-21,12.72,20.64-29.19,20.55-68.25-.25-97.33,23.52,12.93,44.94,29.37,63.53,48.74-3.65,3.81-9.16,9.33-16.12,15.48-3.51,3.11-3.84,8.47-.74,11.99,3.11,3.51,8.47,3.84,11.99.74,8.11-7.07,15.76-14.64,22.9-22.68,2.69-3.17,2.69-7.82,0-10.99-2.79-3.26-68.11-79.36-150.73-79.36s-147.94,76.11-150.69,79.35h0ZM418.47,177.1c0,9.37-7.6,16.97-16.97,16.97s-16.97-7.6-16.97-16.97,7.6-16.97,16.97-16.97,16.97,7.6,16.97,16.97ZM298.21,153.99c-8.09,11.44-13.2,24.72-14.84,38.64-.54,4.65,2.79,8.86,7.44,9.41,4.56.62,8.76-2.57,9.38-7.13.01-.1.03-.21.04-.31,4.32-37.16,37.95-63.79,75.12-59.46,8.85,1.03,17.41,3.79,25.18,8.13-10.18.3-19.68,5.19-25.85,13.29-2.34-.42-4.72-.65-7.1-.67-25.77.03-46.63,20.94-46.6,46.71.03,25.77,20.94,46.63,46.71,46.6,10.08-.01,19.88-3.28,27.94-9.33,3.75-2.81,4.51-8.13,1.7-11.88s-8.13-4.51-11.88-1.7c-13.12,9.84-31.73,7.18-41.57-5.94-9.84-13.12-7.18-31.73,5.94-41.57,5.13-3.84,11.36-5.93,17.76-5.94h.42c-.23,1.4-.37,2.82-.42,4.24-.04,18.69,15.07,33.87,33.76,33.92,14.78.03,27.88-9.53,32.34-23.63,8.43,36.48-14.31,72.9-50.79,81.33-33.83,7.82-68.09-11.18-79.38-44.01-1.53-4.43-6.37-6.77-10.79-5.24-4.43,1.53-6.77,6.37-5.24,10.79,2.62,7.46,6.28,14.52,10.87,20.96-23.49-12.94-44.89-29.35-63.47-48.68,18.55-19.28,39.91-35.65,63.34-48.56h0Z"/>
        <path class="cls-5" d="M407.3,296.29c-4.44,1.48-6.84,6.29-5.36,10.73l8.48,25.45c1.48,4.45,6.29,6.86,10.74,5.38,4.45-1.48,6.86-6.29,5.38-10.74l-8.48-25.45c-1.47-4.45-6.28-6.86-10.72-5.38-.01,0-.02,0-.03.01Z"/>
        <path class="cls-5" d="M472.92,271.98c-3.81,2.72-4.69,8.02-1.97,11.83l42.41,59.38c2.58,3.91,7.84,5,11.75,2.42,3.91-2.58,5-7.84,2.42-11.75-.12-.18-.25-.36-.38-.53l-42.41-59.38c-2.72-3.81-8.01-4.69-11.82-1.98Z"/>
        <path class="cls-5" d="M317.11,301.66l-8.48,25.45c-1.48,4.45.93,9.26,5.38,10.74,4.45,1.48,9.26-.93,10.74-5.38h0l8.48-25.45c1.48-4.45-.93-9.26-5.38-10.74-4.45-1.48-9.26.93-10.74,5.38Z"/>
        <path class="cls-5" d="M250.4,273.96l-42.41,59.38c-2.87,3.7-2.19,9.03,1.51,11.9,3.7,2.87,9.03,2.19,11.9-1.51.13-.17.26-.35.38-.53l42.41-59.38c2.87-3.7,2.19-9.03-1.51-11.9-3.7-2.87-9.03-2.19-11.9,1.51-.13.17-.26.35-.38.53Z"/>
      </g>
    </g>
    <g>
      <g>
        <path class="cls-9" d="M128.4,559c0,1.1-.9,1.9-1.9,1.9h0c-1.1,0-1.9-.8-1.9-1.9h0c0-1,.8-1.9,1.9-1.9h0c1,0,1.9.9,1.9,1.9Z"/>
        <path class="cls-9" d="M130.3,593.7c0,2.1-1.7,3.8-3.8,3.8h0c-2.1,0-3.8-1.7-3.8-3.8h0c0-2.1,1.7-3.8,3.8-3.8h0c2.1,0,3.8,1.7,3.8,3.8Z"/>
        <path class="cls-9" d="M128.4,628.4c0,1.1-.9,1.9-1.9,1.9h0c-1.1,0-1.9-.8-1.9-1.9h0c0-1,.8-1.9,1.9-1.9h0c1,0,1.9.9,1.9,1.9Z"/>
        <path class="cls-9" d="M161,524.2c0,1-.8,1.9-1.9,1.9h0c-1,0-1.9-.8-1.9-1.9h0c0-1.1.8-1.9,1.9-1.9h0c1.1,0,1.9.8,1.9,1.9Z"/>
        <path class="cls-9" d="M161,559c0,1.1-.8,1.9-1.9,1.9h0c-1,0-1.9-.8-1.9-1.9h0c0-1,.8-1.9,1.9-1.9h0c1.1,0,1.9.9,1.9,1.9Z"/>
        <path class="cls-9" d="M161,593.7c0,1-.8,1.9-1.9,1.9h0c-1,0-1.9-.9-1.9-1.9h0c0-1.1.8-1.9,1.9-1.9h0c1.1,0,1.9.8,1.9,1.9Z"/>
        <path class="cls-9" d="M161,628.4c0,1.1-.8,1.9-1.9,1.9h0c-1,0-1.9-.8-1.9-1.9h0c0-1,.8-1.9,1.9-1.9h0c1.1,0,1.9.9,1.9,1.9Z"/>
        <path class="cls-9" d="M199.4,524.2c0,4.2-3.4,7.6-7.6,7.6h0c-4.2,0-7.6-3.4-7.6-7.6h0c0-4.2,3.4-7.6,7.6-7.6h0c4.2,0,7.6,3.4,7.6,7.6Z"/>
        <path class="cls-9" d="M198.4,559c0,3.7-3,6.6-6.6,6.6h0c-3.7,0-6.6-3-6.6-6.6h0c0-3.7,3-6.6,6.6-6.6h0c3.7,0,6.6,3,6.6,6.6Z"/>
        <path class="cls-9" d="M193.7,593.7c0,1-.9,1.9-1.9,1.9h0c-1.1,0-1.9-.9-1.9-1.9h0c0-1.1.8-1.9,1.9-1.9h0c1,0,1.9.8,1.9,1.9Z"/>
        <path class="cls-9" d="M193.7,628.4c0,1.1-.9,1.9-1.9,1.9h0c-1.1,0-1.9-.8-1.9-1.9h0c0-1,.8-1.9,1.9-1.9h0c1,0,1.9.9,1.9,1.9Z"/>
        <path class="cls-9" d="M226.3,489.5c0,1.1-.9,1.9-1.9,1.9h0c-1,0-1.9-.8-1.9-1.9h0c0-1,.8-1.9,1.9-1.9h0c1.1,0,1.9.9,1.9,1.9Z"/>
        <path class="cls-9" d="M229.6,524.2c0,2.9-2.3,5.2-5.2,5.2h0c-2.9,0-5.2-2.3-5.2-5.2h0c0-2.9,2.3-5.2,5.2-5.2h0c2.9,0,5.2,2.3,5.2,5.2Z"/>
        <path class="cls-9" d="M226.3,559c0,1.1-.9,1.9-1.9,1.9h0c-1.1,0-1.9-.8-1.9-1.9h0c0-1,.8-1.9,1.9-1.9h0c1,0,1.9.9,1.9,1.9Z"/>
        <path class="cls-9" d="M226.3,593.7c0,1-.9,1.9-1.9,1.9h0c-1.1,0-1.9-.9-1.9-1.9h0c0-1.1.8-1.9,1.9-1.9h0c1,0,1.9.8,1.9,1.9Z"/>
        <path class="cls-9" d="M227.3,628.4c0,1.6-1.3,2.8-2.8,2.8h0c-1.6,0-2.8-1.3-2.8-2.8h0c0-1.6,1.3-2.8,2.8-2.8h0c1.6,0,2.8,1.3,2.8,2.8Z"/>
        <path class="cls-9" d="M226.3,663.2c0,1-.9,1.9-1.9,1.9h0c-1.1,0-1.9-.9-1.9-1.9h0c0-1.1.8-1.9,1.9-1.9h0c1,0,1.9.8,1.9,1.9Z"/>
        <path class="cls-9" d="M258.9,524.2c0,1-.8,1.9-1.9,1.9h0c-1,0-1.9-.9-1.9-1.9h0c0-1.1.8-1.9,1.9-1.9h0c1.1,0,1.9.8,1.9,1.9Z"/>
        <path class="cls-9" d="M258.9,559c0,1.1-.8,1.9-1.9,1.9h0c-1,0-1.9-.8-1.9-1.9h0c0-1,.8-1.9,1.9-1.9h0c1.1,0,1.9.9,1.9,1.9Z"/>
        <path class="cls-9" d="M260.8,593.7c0,2.1-1.7,3.8-3.8,3.8h0c-2.1,0-3.8-1.7-3.8-3.8h0c0-2.1,1.7-3.8,3.8-3.8h0c2.1,0,3.8,1.7,3.8,3.8Z"/>
        <path class="cls-9" d="M258.9,628.4c0,1.1-.8,1.9-1.9,1.9h0c-1,0-1.9-.8-1.9-1.9h0c0-1,.8-1.9,1.9-1.9h0c1.1,0,1.9.9,1.9,1.9Z"/>
        <path class="cls-9" d="M258.9,663.2c0,1-.8,1.9-1.9,1.9h0c-1,0-1.9-.9-1.9-1.9h0c0-1.1.8-1.9,1.9-1.9h0c1.1,0,1.9.8,1.9,1.9Z"/>
        <path class="cls-9" d="M291.6,489.5c0,1.1-.9,1.9-1.9,1.9h0c-1.1,0-1.9-.8-1.9-1.9h0c0-1,.8-1.9,1.9-1.9h0c1,0,1.9.9,1.9,1.9Z"/>
        <path class="cls-9" d="M291.6,524.2c0,1-.9,1.9-1.9,1.9h0c-1,0-1.9-.9-1.9-1.9h0c0-1.1.8-1.9,1.9-1.9h0c1.1,0,1.9.8,1.9,1.9Z"/>
        <path class="cls-9" d="M291.6,559c0,1.1-.9,1.9-1.9,1.9h0c-1.1,0-1.9-.8-1.9-1.9h0c0-1,.8-1.9,1.9-1.9h0c1,0,1.9.9,1.9,1.9Z"/>
        <path class="cls-9" d="M291.6,593.7c0,1-.9,1.9-1.9,1.9h0c-1,0-1.9-.9-1.9-1.9h0c0-1.1.8-1.9,1.9-1.9h0c1.1,0,1.9.9,1.9,1.9Z"/>
        <path class="cls-9" d="M291.6,628.4c0,1.1-.9,1.9-1.9,1.9h0c-1,0-1.9-.8-1.9-1.9h0c0-1,.8-1.9,1.9-1.9h0c1.1,0,1.9.9,1.9,1.9Z"/>
        <path class="cls-9" d="M291.6,663.2c0,1-.9,1.9-1.9,1.9h0c-1,0-1.9-.9-1.9-1.9h0c0-1.1.8-1.9,1.9-1.9h0c1.1,0,1.9.8,1.9,1.9Z"/>
        <path class="cls-9" d="M324.2,489.5c0,1.1-.9,1.9-1.9,1.9h0c-1,0-1.9-.8-1.9-1.9h0c0-1,.8-1.9,1.9-1.9h0c1.1,0,1.9.9,1.9,1.9Z"/>
        <path class="cls-9" d="M327,524.2c0,2.6-2.1,4.7-4.7,4.7h0c-2.6,0-4.7-2.1-4.7-4.7h0c0-2.6,2.1-4.7,4.7-4.7h0c2.6,0,4.7,2.1,4.7,4.7Z"/>
        <path class="cls-9" d="M324.2,559c0,1.1-.9,1.9-1.9,1.9h0c-1.1,0-1.9-.8-1.9-1.9h0c0-1,.8-1.9,1.9-1.9h0c1,0,1.9.9,1.9,1.9Z"/>
        <path class="cls-9" d="M325.1,593.7c0,1.6-1.3,2.8-2.8,2.8h0c-1.6,0-2.8-1.3-2.8-2.8h0c0-1.6,1.3-2.8,2.8-2.8h0c1.6,0,2.8,1.3,2.8,2.8Z"/>
        <path class="cls-9" d="M324.2,628.4c0,1.1-.8,1.9-1.9,1.9h0c-1.1,0-1.9-.8-1.9-1.9h0c0-1,.8-1.9,1.9-1.9h0c1,0,1.9.9,1.9,1.9Z"/>
        <path class="cls-9" d="M324.2,663.2c0,1-.8,1.9-1.9,1.9h0c-1.1,0-1.9-.9-1.9-1.9h0c0-1.1.8-1.9,1.9-1.9h0c1,0,1.9.8,1.9,1.9Z"/>
        <path class="cls-9" d="M356.8,524.2c0,1-.9,1.9-1.9,1.9h0c-1.1,0-1.9-.9-1.9-1.9h0c0-1.1.9-1.9,1.9-1.9h0c1,0,1.9.8,1.9,1.9Z"/>
        <path class="cls-9" d="M356.8,559c0,1.1-.9,1.9-1.9,1.9h0c-1.1,0-1.9-.8-1.9-1.9h0c0-1,.8-1.9,1.9-1.9h0c1,0,1.9.9,1.9,1.9Z"/>
        <path class="cls-9" d="M358.3,593.7c0,1.8-1.5,3.3-3.3,3.3h0c-1.8,0-3.3-1.5-3.3-3.3h0c0-1.8,1.5-3.3,3.3-3.3h0c1.8,0,3.3,1.5,3.3,3.3Z"/>
        <path class="cls-9" d="M356.8,628.4c0,1.1-.9,1.9-1.9,1.9h0c-1,0-1.9-.8-1.9-1.9h0c0-1,.8-1.9,1.9-1.9h0c1.1,0,1.9.9,1.9,1.9Z"/>
        <path class="cls-9" d="M389.5,489.5c0,1.1-.8,1.9-1.9,1.9h0c-1.1,0-1.9-.8-1.9-1.9h0c0-1,.9-1.9,1.9-1.9h0c1,0,1.9.9,1.9,1.9Z"/>
        <path class="cls-9" d="M389.5,524.2c0,1-.9,1.9-1.9,1.9h0c-1.1,0-1.9-.9-1.9-1.9h0c0-1.1.9-1.9,1.9-1.9h0c1,0,1.9.8,1.9,1.9Z"/>
        <path class="cls-9" d="M389.5,559c0,1.1-.8,1.9-1.9,1.9h0c-1,0-1.9-.8-1.9-1.9h0c0-1,.9-1.9,1.9-1.9h0c1.1,0,1.9.9,1.9,1.9Z"/>
        <path class="cls-9" d="M422.1,524.2c0,1-.8,1.9-1.9,1.9h0c-1.1,0-1.9-.9-1.9-1.9h0c0-1.1.8-1.9,1.9-1.9h0c1,0,1.9.8,1.9,1.9Z"/>
        <path class="cls-9" d="M63.2,559c0,1.1-.8,1.9-1.9,1.9h0c-1.1,0-1.9-.8-1.9-1.9h0c0-1,.8-1.9,1.9-1.9h0c1,0,1.9.9,1.9,1.9Z"/>
        <path class="cls-9" d="M63.2,593.7c0,1-.8,1.9-1.9,1.9h0c-1.1,0-1.9-.8-1.9-1.9h0c0-1.1.8-1.9,1.9-1.9h0c1,0,1.9.8,1.9,1.9Z"/>
        <path class="cls-9" d="M63.2,628.4c0,1.1-.8,1.9-1.9,1.9h0c-1.1,0-1.9-.8-1.9-1.9h0c0-1,.8-1.9,1.9-1.9h0c1,0,1.9.9,1.9,1.9Z"/>
        <path class="cls-9" d="M63.2,663.2c0,1-.8,1.9-1.9,1.9h0c-1.1,0-1.9-.9-1.9-1.9h0c0-1.1.8-1.9,1.9-1.9h0c1,0,1.9.8,1.9,1.9Z"/>
        <path class="cls-9" d="M97.2,559c0,1.8-1.5,3.3-3.3,3.3h0c-1.8,0-3.3-1.5-3.3-3.3h0c0-1.8,1.5-3.3,3.3-3.3h0c1.8,0,3.3,1.5,3.3,3.3Z"/>
        <path class="cls-9" d="M97.2,593.7c0,1.8-1.5,3.3-3.3,3.3h0c-1.8,0-3.3-1.5-3.3-3.3h0c0-1.8,1.5-3.3,3.3-3.3h0c1.8,0,3.3,1.5,3.3,3.3Z"/>
        <path class="cls-9" d="M95.8,628.4c0,1.1-.9,1.9-1.9,1.9h0c-1,0-1.9-.8-1.9-1.9h0c0-1,.8-1.9,1.9-1.9h0c1.1,0,1.9.9,1.9,1.9Z"/>
        <path class="cls-9" d="M95.8,663.2c0,1-.9,1.9-1.9,1.9h0c-1,0-1.9-.9-1.9-1.9h0c0-1.1.8-1.9,1.9-1.9h0c1.1,0,1.9.8,1.9,1.9Z"/>
      </g>
      <g>
        <path class="cls-9" d="M173.6,475c0-1.1.9-1.9,1.9-1.9h0c1.1,0,1.9.8,1.9,1.9h0c0,1-.8,1.9-1.9,1.9h0c-1,0-1.9-.9-1.9-1.9Z"/>
        <path class="cls-9" d="M171.7,440.2c0-2.1,1.7-3.8,3.8-3.8h0c2.1,0,3.8,1.7,3.8,3.8h0c0,2.1-1.7,3.8-3.8,3.8h0c-2.1,0-3.8-1.7-3.8-3.8Z"/>
        <path class="cls-9" d="M173.6,405.5c0-1.1.9-1.9,1.9-1.9h0c1.1,0,1.9.8,1.9,1.9h0c0,1-.8,1.9-1.9,1.9h0c-1,0-1.9-.9-1.9-1.9Z"/>
        <path class="cls-9" d="M140.9,509.7c0-1,.8-1.9,1.9-1.9h0c1,0,1.9.8,1.9,1.9h0c0,1.1-.8,1.9-1.9,1.9h0c-1.1,0-1.9-.8-1.9-1.9Z"/>
        <path class="cls-9" d="M140.9,475c0-1.1.8-1.9,1.9-1.9h0c1,0,1.9.8,1.9,1.9h0c0,1-.8,1.9-1.9,1.9h0c-1.1,0-1.9-.9-1.9-1.9Z"/>
        <path class="cls-9" d="M140.9,440.2c0-1,.8-1.9,1.9-1.9h0c1,0,1.9.9,1.9,1.9h0c0,1.1-.8,1.9-1.9,1.9h0c-1.1,0-1.9-.8-1.9-1.9Z"/>
        <path class="cls-9" d="M140.9,405.5c0-1.1.8-1.9,1.9-1.9h0c1,0,1.9.8,1.9,1.9h0c0,1-.8,1.9-1.9,1.9h0c-1.1,0-1.9-.9-1.9-1.9Z"/>
        <path class="cls-9" d="M102.6,509.7c0-4.2,3.4-7.6,7.6-7.6h0c4.2,0,7.6,3.4,7.6,7.6h0c0,4.2-3.4,7.6-7.6,7.6h0c-4.2,0-7.6-3.4-7.6-7.6h0Z"/>
        <path class="cls-9" d="M103.6,475c0-3.7,3-6.6,6.6-6.6h0c3.7,0,6.6,3,6.6,6.6h0c0,3.7-3,6.6-6.6,6.6h0c-3.7,0-6.6-3-6.6-6.6Z"/>
        <path class="cls-9" d="M108.3,440.2c0-1,.9-1.9,1.9-1.9h0c1.1,0,1.9.9,1.9,1.9h0c0,1.1-.8,1.9-1.9,1.9h0c-1,0-1.9-.8-1.9-1.9Z"/>
        <path class="cls-9" d="M108.3,405.5c0-1.1.9-1.9,1.9-1.9h0c1.1,0,1.9.8,1.9,1.9h0c0,1-.8,1.9-1.9,1.9h0c-1,0-1.9-.9-1.9-1.9Z"/>
        <path class="cls-9" d="M75.7,544.4c0-1.1.9-1.9,1.9-1.9h0c1,0,1.9.8,1.9,1.9h0c0,1-.8,1.9-1.9,1.9h0c-1.1,0-1.9-.9-1.9-1.9Z"/>
        <path class="cls-9" d="M72.4,509.7c0-2.9,2.3-5.2,5.2-5.2h0c2.9,0,5.2,2.3,5.2,5.2h0c0,2.9-2.3,5.2-5.2,5.2h0c-2.9,0-5.2-2.3-5.2-5.2Z"/>
        <path class="cls-9" d="M75.7,475c0-1.1.9-1.9,1.9-1.9h0c1.1,0,1.9.8,1.9,1.9h0c0,1-.8,1.9-1.9,1.9h0c-1,0-1.9-.9-1.9-1.9Z"/>
        <path class="cls-9" d="M75.7,440.2c0-1,.9-1.9,1.9-1.9h0c1.1,0,1.9.9,1.9,1.9h0c0,1.1-.8,1.9-1.9,1.9h0c-1,0-1.9-.8-1.9-1.9Z"/>
        <path class="cls-9" d="M74.7,405.5c0-1.6,1.3-2.8,2.8-2.8h0c1.6,0,2.8,1.3,2.8,2.8h0c0,1.6-1.3,2.8-2.8,2.8h0c-1.6,0-2.8-1.3-2.8-2.8Z"/>
        <path class="cls-9" d="M75.7,370.8c0-1,.9-1.9,1.9-1.9h0c1.1,0,1.9.9,1.9,1.9h0c0,1.1-.8,1.9-1.9,1.9h0c-1,0-1.9-.8-1.9-1.9Z"/>
        <path class="cls-9" d="M43.1,509.7c0-1,.8-1.9,1.9-1.9h0c1,0,1.9.9,1.9,1.9h0c0,1.1-.8,1.9-1.9,1.9h0c-1.1,0-1.9-.8-1.9-1.9Z"/>
        <path class="cls-9" d="M43.1,475c0-1.1.8-1.9,1.9-1.9h0c1,0,1.9.8,1.9,1.9h0c0,1-.8,1.9-1.9,1.9h0c-1.1,0-1.9-.9-1.9-1.9Z"/>
        <path class="cls-9" d="M41.2,440.2c0-2.1,1.7-3.8,3.8-3.8h0c2.1,0,3.8,1.7,3.8,3.8h0c0,2.1-1.7,3.8-3.8,3.8h0c-2.1,0-3.8-1.7-3.8-3.8Z"/>
        <path class="cls-9" d="M43.1,405.5c0-1.1.8-1.9,1.9-1.9h0c1,0,1.9.8,1.9,1.9h0c0,1-.8,1.9-1.9,1.9h0c-1.1,0-1.9-.9-1.9-1.9Z"/>
        <path class="cls-9" d="M43.1,370.8c0-1,.8-1.9,1.9-1.9h0c1,0,1.9.9,1.9,1.9h0c0,1.1-.8,1.9-1.9,1.9h0c-1.1,0-1.9-.8-1.9-1.9Z"/>
        <path class="cls-9" d="M10.4,544.4c0-1.1.9-1.9,1.9-1.9h0c1.1,0,1.9.8,1.9,1.9h0c0,1-.8,1.9-1.9,1.9h0c-1,0-1.9-.9-1.9-1.9Z"/>
        <path class="cls-9" d="M10.4,509.7c0-1,.9-1.9,1.9-1.9h0c1,0,1.9.9,1.9,1.9h0c0,1.1-.8,1.9-1.9,1.9h0c-1.1,0-1.9-.8-1.9-1.9Z"/>
        <path class="cls-9" d="M10.4,475c0-1.1.9-1.9,1.9-1.9h0c1.1,0,1.9.8,1.9,1.9h0c0,1-.8,1.9-1.9,1.9h0c-1,0-1.9-.9-1.9-1.9Z"/>
        <path class="cls-9" d="M10.4,440.2c0-1,.9-1.9,1.9-1.9h0c1,0,1.9.9,1.9,1.9h0c0,1.1-.8,1.9-1.9,1.9h0c-1.1,0-1.9-.9-1.9-1.9Z"/>
        <path class="cls-9" d="M10.4,405.5c0-1.1.9-1.9,1.9-1.9h0c1,0,1.9.8,1.9,1.9h0c0,1-.8,1.9-1.9,1.9h0c-1.1,0-1.9-.9-1.9-1.9Z"/>
        <path class="cls-9" d="M10.4,370.8c0-1,.9-1.9,1.9-1.9h0c1,0,1.9.9,1.9,1.9h0c0,1.1-.8,1.9-1.9,1.9h0c-1.1,0-1.9-.8-1.9-1.9Z"/>
        <path class="cls-9" d="M238.8,475c0-1.1.8-1.9,1.9-1.9h0c1.1,0,1.9.8,1.9,1.9h0c0,1-.8,1.9-1.9,1.9h0c-1,0-1.9-.9-1.9-1.9Z"/>
        <path class="cls-9" d="M238.8,440.2c0-1,.8-1.9,1.9-1.9h0c1.1,0,1.9.8,1.9,1.9h0c0,1.1-.8,1.9-1.9,1.9h0c-1,0-1.9-.8-1.9-1.9Z"/>
        <path class="cls-9" d="M238.8,405.5c0-1.1.8-1.9,1.9-1.9h0c1.1,0,1.9.8,1.9,1.9h0c0,1-.8,1.9-1.9,1.9h0c-1,0-1.9-.9-1.9-1.9Z"/>
        <path class="cls-9" d="M238.8,370.8c0-1,.8-1.9,1.9-1.9h0c1.1,0,1.9.9,1.9,1.9h0c0,1.1-.8,1.9-1.9,1.9h0c-1,0-1.9-.8-1.9-1.9Z"/>
        <path class="cls-9" d="M204.8,475c0-1.8,1.5-3.3,3.3-3.3h0c1.8,0,3.3,1.5,3.3,3.3h0c0,1.8-1.5,3.3-3.3,3.3h0c-1.8,0-3.3-1.5-3.3-3.3Z"/>
        <path class="cls-9" d="M204.8,440.2c0-1.8,1.5-3.3,3.3-3.3h0c1.8,0,3.3,1.5,3.3,3.3h0c0,1.8-1.5,3.3-3.3,3.3h0c-1.8,0-3.3-1.5-3.3-3.3Z"/>
        <path class="cls-9" d="M206.2,405.5c0-1.1.9-1.9,1.9-1.9h0c1,0,1.9.8,1.9,1.9h0c0,1-.8,1.9-1.9,1.9h0c-1.1,0-1.9-.9-1.9-1.9Z"/>
        <path class="cls-9" d="M206.2,370.8c0-1,.9-1.9,1.9-1.9h0c1,0,1.9.9,1.9,1.9h0c0,1.1-.8,1.9-1.9,1.9h0c-1.1,0-1.9-.8-1.9-1.9Z"/>
      </g>
      <g>
        <path class="cls-9" d="M631.9,521.9c0-1.1.9-1.9,1.9-1.9h0c1.1,0,1.9.8,1.9,1.9h0c0,1-.8,1.9-1.9,1.9h0c-1,0-1.9-.9-1.9-1.9Z"/>
        <path class="cls-9" d="M630,487.1c0-2.1,1.7-3.8,3.8-3.8h0c2.1,0,3.8,1.7,3.8,3.8h0c0,2.1-1.7,3.8-3.8,3.8h0c-2.1,0-3.8-1.7-3.8-3.8Z"/>
        <path class="cls-9" d="M631.9,452.4c0-1.1.9-1.9,1.9-1.9h0c1.1,0,1.9.8,1.9,1.9h0c0,1-.8,1.9-1.9,1.9h0c-1,0-1.9-.9-1.9-1.9Z"/>
        <path class="cls-9" d="M599.3,556.6c0-1,.8-1.9,1.9-1.9h0c1,0,1.9.8,1.9,1.9h0c0,1.1-.8,1.9-1.9,1.9h0c-1.1,0-1.9-.8-1.9-1.9Z"/>
        <path class="cls-9" d="M599.3,521.9c0-1.1.8-1.9,1.9-1.9h0c1,0,1.9.8,1.9,1.9h0c0,1-.8,1.9-1.9,1.9h0c-1.1,0-1.9-.9-1.9-1.9Z"/>
        <path class="cls-9" d="M599.3,487.1c0-1,.8-1.9,1.9-1.9h0c1,0,1.9.9,1.9,1.9h0c0,1.1-.8,1.9-1.9,1.9h0c-1.1,0-1.9-.8-1.9-1.9Z"/>
        <path class="cls-9" d="M599.3,452.4c0-1.1.8-1.9,1.9-1.9h0c1,0,1.9.8,1.9,1.9h0c0,1-.8,1.9-1.9,1.9h0c-1.1,0-1.9-.9-1.9-1.9Z"/>
        <path class="cls-9" d="M561,556.6c0-4.2,3.4-7.6,7.6-7.6h0c4.2,0,7.6,3.4,7.6,7.6h0c0,4.2-3.4,7.6-7.6,7.6h0c-4.2,0-7.6-3.4-7.6-7.6Z"/>
        <path class="cls-9" d="M561.9,521.9c0-3.7,3-6.6,6.6-6.6h0c3.7,0,6.6,3,6.6,6.6h0c0,3.7-3,6.6-6.6,6.6h0c-3.7,0-6.6-3-6.6-6.6Z"/>
        <path class="cls-9" d="M566.7,487.1c0-1,.9-1.9,1.9-1.9h0c1.1,0,1.9.9,1.9,1.9h0c0,1.1-.8,1.9-1.9,1.9h0c-1,0-1.9-.8-1.9-1.9Z"/>
        <path class="cls-9" d="M566.7,452.4c0-1.1.9-1.9,1.9-1.9h0c1.1,0,1.9.8,1.9,1.9h0c0,1-.8,1.9-1.9,1.9h0c-1,0-1.9-.9-1.9-1.9Z"/>
        <path class="cls-9" d="M534,591.3c0-1.1.9-1.9,1.9-1.9h0c1,0,1.9.8,1.9,1.9h0c0,1-.8,1.9-1.9,1.9h0c-1.1,0-1.9-.9-1.9-1.9Z"/>
        <path class="cls-9" d="M530.7,556.6c0-2.9,2.3-5.2,5.2-5.2h0c2.9,0,5.2,2.3,5.2,5.2h0c0,2.9-2.3,5.2-5.2,5.2h0c-2.9,0-5.2-2.3-5.2-5.2Z"/>
        <path class="cls-9" d="M534,521.9c0-1.1.9-1.9,1.9-1.9h0c1.1,0,1.9.8,1.9,1.9h0c0,1-.8,1.9-1.9,1.9h0c-1,0-1.9-.9-1.9-1.9Z"/>
        <path class="cls-9" d="M534,487.1c0-1,.9-1.9,1.9-1.9h0c1.1,0,1.9.9,1.9,1.9h0c0,1.1-.8,1.9-1.9,1.9h0c-1,0-1.9-.8-1.9-1.9Z"/>
        <path class="cls-9" d="M533.2,452.4c0-1.6,1.3-2.8,2.8-2.8h0c1.6,0,2.8,1.3,2.8,2.8h0c0,1.6-1.3,2.8-2.8,2.8h0c-1.6,0-2.8-1.3-2.8-2.8Z"/>
        <path class="cls-9" d="M534,417.7c0-1,.9-1.9,1.9-1.9h0c1.1,0,1.9.9,1.9,1.9h0c0,1.1-.8,1.9-1.9,1.9h0c-1,0-1.9-.8-1.9-1.9Z"/>
        <path class="cls-9" d="M501.4,556.6c0-1,.8-1.9,1.9-1.9h0c1,0,1.9.9,1.9,1.9h0c0,1.1-.8,1.9-1.9,1.9h0c-1.1,0-1.9-.8-1.9-1.9Z"/>
        <path class="cls-9" d="M501.4,521.9c0-1.1.8-1.9,1.9-1.9h0c1,0,1.9.8,1.9,1.9h0c0,1-.8,1.9-1.9,1.9h0c-1.1,0-1.9-.9-1.9-1.9Z"/>
        <path class="cls-9" d="M499.5,487.1c0-2.1,1.7-3.8,3.8-3.8h0c2.1,0,3.8,1.7,3.8,3.8h0c0,2.1-1.7,3.8-3.8,3.8h0c-2.1,0-3.8-1.7-3.8-3.8Z"/>
        <path class="cls-9" d="M501.4,452.4c0-1.1.8-1.9,1.9-1.9h0c1,0,1.9.8,1.9,1.9h0c0,1-.8,1.9-1.9,1.9h0c-1.1,0-1.9-.9-1.9-1.9Z"/>
        <path class="cls-9" d="M501.4,417.7c0-1,.8-1.9,1.9-1.9h0c1,0,1.9.9,1.9,1.9h0c0,1.1-.8,1.9-1.9,1.9h0c-1.1,0-1.9-.8-1.9-1.9Z"/>
        <path class="cls-9" d="M468.8,591.3c0-1.1.9-1.9,1.9-1.9h0c1.1,0,1.9.8,1.9,1.9h0c0,1-.8,1.9-1.9,1.9h0c-1,0-1.9-.9-1.9-1.9Z"/>
        <path class="cls-9" d="M468.8,556.6c0-1,.9-1.9,1.9-1.9h0c1,0,1.9.9,1.9,1.9h0c0,1.1-.8,1.9-1.9,1.9h0c-1.1,0-1.9-.8-1.9-1.9Z"/>
        <path class="cls-9" d="M468.8,521.9c0-1.1.9-1.9,1.9-1.9h0c1.1,0,1.9.8,1.9,1.9h0c0,1-.8,1.9-1.9,1.9h0c-1,0-1.9-.9-1.9-1.9Z"/>
        <path class="cls-9" d="M468.8,487.1c0-1,.9-1.9,1.9-1.9h0c1,0,1.9.9,1.9,1.9h0c0,1.1-.8,1.9-1.9,1.9h0c-1.1,0-1.9-.9-1.9-1.9Z"/>
        <path class="cls-9" d="M468.8,452.4c0-1.1.9-1.9,1.9-1.9h0c1,0,1.9.8,1.9,1.9h0c0,1-.8,1.9-1.9,1.9h0c-1.1,0-1.9-.9-1.9-1.9Z"/>
        <path class="cls-9" d="M468.8,417.7c0-1,.9-1.9,1.9-1.9h0c1,0,1.9.9,1.9,1.9h0c0,1.1-.8,1.9-1.9,1.9h0c-1.1,0-1.9-.8-1.9-1.9Z"/>
        <path class="cls-9" d="M436.1,591.3c0-1.1.9-1.9,1.9-1.9h0c1,0,1.9.8,1.9,1.9h0c0,1-.8,1.9-1.9,1.9h0c-1.1,0-1.9-.9-1.9-1.9Z"/>
        <path class="cls-9" d="M433.3,556.6c0-2.6,2.1-4.7,4.7-4.7h0c2.6,0,4.7,2.1,4.7,4.7h0c0,2.6-2.1,4.7-4.7,4.7h0c-2.6,0-4.7-2.1-4.7-4.7Z"/>
        <path class="cls-9" d="M436.1,521.9c0-1.1.9-1.9,1.9-1.9h0c1.1,0,1.9.8,1.9,1.9h0c0,1-.8,1.9-1.9,1.9h0c-1,0-1.9-.9-1.9-1.9Z"/>
        <path class="cls-9" d="M435.2,487.1c0-1.6,1.3-2.8,2.8-2.8h0c1.6,0,2.8,1.3,2.8,2.8h0c0,1.6-1.3,2.8-2.8,2.8h0c-1.6,0-2.8-1.3-2.8-2.8Z"/>
        <path class="cls-9" d="M436.2,452.4c0-1.1.8-1.9,1.9-1.9h0c1.1,0,1.9.8,1.9,1.9h0c0,1-.8,1.9-1.9,1.9h0c-1,0-1.9-.9-1.9-1.9Z"/>
        <path class="cls-9" d="M436.2,417.7c0-1,.8-1.9,1.9-1.9h0c1.1,0,1.9.9,1.9,1.9h0c0,1.1-.8,1.9-1.9,1.9h0c-1,0-1.9-.8-1.9-1.9Z"/>
        <path class="cls-9" d="M403.5,556.6c0-1,.9-1.9,1.9-1.9h0c1.1,0,1.9.9,1.9,1.9h0c0,1.1-.9,1.9-1.9,1.9h0c-1,0-1.9-.8-1.9-1.9Z"/>
        <path class="cls-9" d="M403.5,521.9c0-1.1.9-1.9,1.9-1.9h0c1.1,0,1.9.8,1.9,1.9h0c0,1-.8,1.9-1.9,1.9h0c-1,0-1.9-.9-1.9-1.9Z"/>
        <path class="cls-9" d="M402.1,487.1c0-1.8,1.5-3.3,3.3-3.3h0c1.8,0,3.3,1.5,3.3,3.3h0c0,1.8-1.5,3.3-3.3,3.3h0c-1.8,0-3.3-1.5-3.3-3.3Z"/>
        <path class="cls-9" d="M403.5,452.4c0-1.1.9-1.9,1.9-1.9h0c1,0,1.9.8,1.9,1.9h0c0,1-.8,1.9-1.9,1.9h0c-1.1,0-1.9-.9-1.9-1.9Z"/>
        <path class="cls-9" d="M370.9,591.3c0-1.1.8-1.9,1.9-1.9h0c1.1,0,1.9.8,1.9,1.9h0c0,1-.9,1.9-1.9,1.9h0c-1,0-1.9-.9-1.9-1.9Z"/>
        <path class="cls-9" d="M370.9,556.6c0-1,.9-1.9,1.9-1.9h0c1.1,0,1.9.9,1.9,1.9h0c0,1.1-.9,1.9-1.9,1.9h0c-1,0-1.9-.8-1.9-1.9Z"/>
        <path class="cls-9" d="M370.9,521.9c0-1.1.8-1.9,1.9-1.9h0c1,0,1.9.8,1.9,1.9h0c0,1-.9,1.9-1.9,1.9h0c-1.1,0-1.9-.9-1.9-1.9Z"/>
        <path class="cls-9" d="M338.3,556.6c0-1,.8-1.9,1.9-1.9h0c1.1,0,1.9.9,1.9,1.9h0c0,1.1-.8,1.9-1.9,1.9h0c-1,0-1.9-.8-1.9-1.9Z"/>
        <path class="cls-9" d="M697.2,521.9c0-1.1.8-1.9,1.9-1.9h0c1.1,0,1.9.8,1.9,1.9h0c0,1-.8,1.9-1.9,1.9h0c-1,0-1.9-.9-1.9-1.9Z"/>
        <path class="cls-9" d="M697.2,487.1c0-1,.8-1.9,1.9-1.9h0c1.1,0,1.9.8,1.9,1.9h0c0,1.1-.8,1.9-1.9,1.9h0c-1,0-1.9-.8-1.9-1.9Z"/>
        <path class="cls-9" d="M697.2,452.4c0-1.1.8-1.9,1.9-1.9h0c1.1,0,1.9.8,1.9,1.9h0c0,1-.8,1.9-1.9,1.9h0c-1,0-1.9-.9-1.9-1.9Z"/>
        <path class="cls-9" d="M697.2,417.7c0-1,.8-1.9,1.9-1.9h0c1.1,0,1.9.9,1.9,1.9h0c0,1.1-.8,1.9-1.9,1.9h0c-1,0-1.9-.8-1.9-1.9Z"/>
        <path class="cls-9" d="M663.2,521.9c0-1.8,1.5-3.3,3.3-3.3h0c1.8,0,3.3,1.5,3.3,3.3h0c0,1.8-1.5,3.3-3.3,3.3h0c-1.8,0-3.3-1.5-3.3-3.3Z"/>
        <path class="cls-9" d="M663.2,487.1c0-1.8,1.5-3.3,3.3-3.3h0c1.8,0,3.3,1.5,3.3,3.3h0c0,1.8-1.5,3.3-3.3,3.3h0c-1.8,0-3.3-1.5-3.3-3.3Z"/>
        <path class="cls-9" d="M664.7,452.4c0-1.1.9-1.9,1.9-1.9h0c1,0,1.9.8,1.9,1.9h0c0,1-.8,1.9-1.9,1.9h0c-1.1,0-1.9-.9-1.9-1.9Z"/>
        <path class="cls-9" d="M664.7,417.7c0-1,.9-1.9,1.9-1.9h0c1,0,1.9.9,1.9,1.9h0c0,1.1-.8,1.9-1.9,1.9h0c-1.1,0-1.9-.8-1.9-1.9Z"/>
      </g>
    </g>
  </g>
</svg>