<?xml version="1.0" encoding="UTF-8"?>
<svg id="Layer_2" data-name="Layer 2" xmlns="http://www.w3.org/2000/svg" viewBox="0 0 726.3 720">
  <defs>
    <style>
      .cls-1 {
        fill: #293553;
      }

      .cls-1, .cls-2, .cls-3, .cls-4, .cls-5, .cls-6, .cls-7, .cls-8, .cls-9, .cls-10, .cls-11 {
        fill-rule: evenodd;
      }

      .cls-2 {
        fill: #fb3580;
      }

      .cls-3 {
        fill: #a1e42c;
      }

      .cls-4 {
        fill: #61a2f9;
      }

      .cls-5, .cls-12 {
        fill: #06a27a;
      }

      .cls-6 {
        fill: #ffea00;
      }

      .cls-7 {
        fill: #9a5a9a;
      }

      .cls-13 {
        fill: #fff;
      }

      .cls-8 {
        fill: #00b4d8;
      }

      .cls-9 {
        fill: #fbd307;
      }

      .cls-10 {
        fill: #ffddce;
      }

      .cls-11 {
        fill: #f8f3f1;
      }
    </style>
  </defs>
  <g id="Layer_1-2" data-name="Layer 1">
    <rect class="cls-13" x="6.3" width="720" height="720"/>
    <g>
      <g>
        <path class="cls-12" d="M153.5,559c0,1.1-.9,1.9-1.9,1.9h0c-1.1,0-1.9-.8-1.9-1.9h0c0-1,.8-1.9,1.9-1.9h0c1,0,1.9.9,1.9,1.9Z"/>
        <path class="cls-12" d="M155.4,593.7c0,2.1-1.7,3.8-3.8,3.8h0c-2.1,0-3.8-1.7-3.8-3.8h0c0-2.1,1.7-3.8,3.8-3.8h0c2.1,0,3.8,1.7,3.8,3.8Z"/>
        <path class="cls-12" d="M153.5,628.4c0,1.1-.9,1.9-1.9,1.9h0c-1.1,0-1.9-.8-1.9-1.9h0c0-1,.8-1.9,1.9-1.9h0c1,0,1.9.9,1.9,1.9Z"/>
        <path class="cls-12" d="M186.1,524.2c0,1-.8,1.9-1.9,1.9h0c-1,0-1.9-.8-1.9-1.9h0c0-1.1.8-1.9,1.9-1.9h0c1.1,0,1.9.8,1.9,1.9Z"/>
        <path class="cls-12" d="M186.1,559c0,1.1-.8,1.9-1.9,1.9h0c-1,0-1.9-.8-1.9-1.9h0c0-1,.8-1.9,1.9-1.9h0c1.1,0,1.9.9,1.9,1.9Z"/>
        <path class="cls-12" d="M186.1,593.7c0,1-.8,1.9-1.9,1.9h0c-1,0-1.9-.9-1.9-1.9h0c0-1.1.8-1.9,1.9-1.9h0c1.1,0,1.9.8,1.9,1.9Z"/>
        <path class="cls-12" d="M186.1,628.4c0,1.1-.8,1.9-1.9,1.9h0c-1,0-1.9-.8-1.9-1.9h0c0-1,.8-1.9,1.9-1.9h0c1.1,0,1.9.9,1.9,1.9Z"/>
        <path class="cls-12" d="M224.5,524.2c0,4.2-3.4,7.6-7.6,7.6h0c-4.2,0-7.6-3.4-7.6-7.6h0c0-4.2,3.4-7.6,7.6-7.6h0c4.2,0,7.6,3.4,7.6,7.6Z"/>
        <path class="cls-12" d="M223.5,559c0,3.7-3,6.6-6.6,6.6h0c-3.7,0-6.6-3-6.6-6.6h0c0-3.7,3-6.6,6.6-6.6h0c3.7,0,6.6,3,6.6,6.6Z"/>
        <path class="cls-12" d="M218.8,593.7c0,1-.9,1.9-1.9,1.9h0c-1.1,0-1.9-.9-1.9-1.9h0c0-1.1.8-1.9,1.9-1.9h0c1,0,1.9.8,1.9,1.9Z"/>
        <path class="cls-12" d="M218.8,628.4c0,1.1-.9,1.9-1.9,1.9h0c-1.1,0-1.9-.8-1.9-1.9h0c0-1,.8-1.9,1.9-1.9h0c1,0,1.9.9,1.9,1.9Z"/>
        <path class="cls-12" d="M251.4,489.5c0,1.1-.9,1.9-1.9,1.9h0c-1,0-1.9-.8-1.9-1.9h0c0-1,.8-1.9,1.9-1.9h0c1.1,0,1.9.9,1.9,1.9Z"/>
        <path class="cls-12" d="M254.7,524.2c0,2.9-2.3,5.2-5.2,5.2h0c-2.9,0-5.2-2.3-5.2-5.2h0c0-2.9,2.3-5.2,5.2-5.2h0c2.9,0,5.2,2.3,5.2,5.2Z"/>
        <path class="cls-12" d="M251.4,559c0,1.1-.9,1.9-1.9,1.9h0c-1.1,0-1.9-.8-1.9-1.9h0c0-1,.8-1.9,1.9-1.9h0c1,0,1.9.9,1.9,1.9Z"/>
        <path class="cls-12" d="M251.4,593.7c0,1-.9,1.9-1.9,1.9h0c-1.1,0-1.9-.9-1.9-1.9h0c0-1.1.8-1.9,1.9-1.9h0c1,0,1.9.8,1.9,1.9Z"/>
        <path class="cls-12" d="M252.4,628.4c0,1.6-1.3,2.8-2.8,2.8h0c-1.6,0-2.8-1.3-2.8-2.8h0c0-1.6,1.3-2.8,2.8-2.8h0c1.6,0,2.8,1.3,2.8,2.8Z"/>
        <path class="cls-12" d="M251.4,663.2c0,1-.9,1.9-1.9,1.9h0c-1.1,0-1.9-.9-1.9-1.9h0c0-1.1.8-1.9,1.9-1.9h0c1,0,1.9.8,1.9,1.9Z"/>
        <path class="cls-12" d="M284,524.2c0,1-.8,1.9-1.9,1.9h0c-1,0-1.9-.9-1.9-1.9h0c0-1.1.8-1.9,1.9-1.9h0c1.1,0,1.9.8,1.9,1.9Z"/>
        <path class="cls-12" d="M284,559c0,1.1-.8,1.9-1.9,1.9h0c-1,0-1.9-.8-1.9-1.9h0c0-1,.8-1.9,1.9-1.9h0c1.1,0,1.9.9,1.9,1.9Z"/>
        <path class="cls-12" d="M285.9,593.7c0,2.1-1.7,3.8-3.8,3.8h0c-2.1,0-3.8-1.7-3.8-3.8h0c0-2.1,1.7-3.8,3.8-3.8h0c2.1,0,3.8,1.7,3.8,3.8Z"/>
        <path class="cls-12" d="M284,628.4c0,1.1-.8,1.9-1.9,1.9h0c-1,0-1.9-.8-1.9-1.9h0c0-1,.8-1.9,1.9-1.9h0c1.1,0,1.9.9,1.9,1.9Z"/>
        <path class="cls-12" d="M284,663.2c0,1-.8,1.9-1.9,1.9h0c-1,0-1.9-.9-1.9-1.9h0c0-1.1.8-1.9,1.9-1.9h0c1.1,0,1.9.8,1.9,1.9Z"/>
        <path class="cls-12" d="M316.7,489.5c0,1.1-.9,1.9-1.9,1.9h0c-1.1,0-1.9-.8-1.9-1.9h0c0-1,.8-1.9,1.9-1.9h0c1,0,1.9.9,1.9,1.9Z"/>
        <path class="cls-12" d="M316.7,524.2c0,1-.9,1.9-1.9,1.9h0c-1,0-1.9-.9-1.9-1.9h0c0-1.1.8-1.9,1.9-1.9h0c1.1,0,1.9.8,1.9,1.9Z"/>
        <path class="cls-12" d="M316.7,559c0,1.1-.9,1.9-1.9,1.9h0c-1.1,0-1.9-.8-1.9-1.9h0c0-1,.8-1.9,1.9-1.9h0c1,0,1.9.9,1.9,1.9Z"/>
        <path class="cls-12" d="M316.7,593.7c0,1-.9,1.9-1.9,1.9h0c-1,0-1.9-.9-1.9-1.9h0c0-1.1.8-1.9,1.9-1.9h0c1.1,0,1.9.9,1.9,1.9Z"/>
        <path class="cls-12" d="M316.7,628.4c0,1.1-.9,1.9-1.9,1.9h0c-1,0-1.9-.8-1.9-1.9h0c0-1,.8-1.9,1.9-1.9h0c1.1,0,1.9.9,1.9,1.9Z"/>
        <path class="cls-12" d="M316.7,663.2c0,1-.9,1.9-1.9,1.9h0c-1,0-1.9-.9-1.9-1.9h0c0-1.1.8-1.9,1.9-1.9h0c1.1,0,1.9.8,1.9,1.9Z"/>
        <path class="cls-12" d="M349.3,489.5c0,1.1-.9,1.9-1.9,1.9h0c-1,0-1.9-.8-1.9-1.9h0c0-1,.8-1.9,1.9-1.9h0c1.1,0,1.9.9,1.9,1.9Z"/>
        <path class="cls-12" d="M352.1,524.2c0,2.6-2.1,4.7-4.7,4.7h0c-2.6,0-4.7-2.1-4.7-4.7h0c0-2.6,2.1-4.7,4.7-4.7h0c2.6,0,4.7,2.1,4.7,4.7Z"/>
        <path class="cls-12" d="M349.3,559c0,1.1-.9,1.9-1.9,1.9h0c-1.1,0-1.9-.8-1.9-1.9h0c0-1,.8-1.9,1.9-1.9h0c1,0,1.9.9,1.9,1.9Z"/>
        <path class="cls-12" d="M350.2,593.7c0,1.6-1.3,2.8-2.8,2.8h0c-1.6,0-2.8-1.3-2.8-2.8h0c0-1.6,1.3-2.8,2.8-2.8h0c1.6,0,2.8,1.3,2.8,2.8Z"/>
        <path class="cls-12" d="M349.3,628.4c0,1.1-.8,1.9-1.9,1.9h0c-1.1,0-1.9-.8-1.9-1.9h0c0-1,.8-1.9,1.9-1.9h0c1,0,1.9.9,1.9,1.9Z"/>
        <path class="cls-12" d="M349.3,663.2c0,1-.8,1.9-1.9,1.9h0c-1.1,0-1.9-.9-1.9-1.9h0c0-1.1.8-1.9,1.9-1.9h0c1,0,1.9.8,1.9,1.9Z"/>
        <path class="cls-12" d="M381.9,524.2c0,1-.9,1.9-1.9,1.9h0c-1.1,0-1.9-.9-1.9-1.9h0c0-1.1.9-1.9,1.9-1.9h0c1,0,1.9.8,1.9,1.9Z"/>
        <path class="cls-12" d="M381.9,559c0,1.1-.9,1.9-1.9,1.9h0c-1.1,0-1.9-.8-1.9-1.9h0c0-1,.8-1.9,1.9-1.9h0c1,0,1.9.9,1.9,1.9Z"/>
        <path class="cls-12" d="M383.4,593.7c0,1.8-1.5,3.3-3.3,3.3h0c-1.8,0-3.3-1.5-3.3-3.3h0c0-1.8,1.5-3.3,3.3-3.3h0c1.8,0,3.3,1.5,3.3,3.3Z"/>
        <path class="cls-12" d="M381.9,628.4c0,1.1-.9,1.9-1.9,1.9h0c-1,0-1.9-.8-1.9-1.9h0c0-1,.8-1.9,1.9-1.9h0c1.1,0,1.9.9,1.9,1.9Z"/>
        <path class="cls-12" d="M414.6,489.5c0,1.1-.8,1.9-1.9,1.9h0c-1.1,0-1.9-.8-1.9-1.9h0c0-1,.9-1.9,1.9-1.9h0c1,0,1.9.9,1.9,1.9Z"/>
        <path class="cls-12" d="M414.6,524.2c0,1-.9,1.9-1.9,1.9h0c-1.1,0-1.9-.9-1.9-1.9h0c0-1.1.9-1.9,1.9-1.9h0c1,0,1.9.8,1.9,1.9Z"/>
        <path class="cls-12" d="M414.6,559c0,1.1-.8,1.9-1.9,1.9h0c-1,0-1.9-.8-1.9-1.9h0c0-1,.9-1.9,1.9-1.9h0c1.1,0,1.9.9,1.9,1.9Z"/>
        <path class="cls-12" d="M447.2,524.2c0,1-.8,1.9-1.9,1.9h0c-1.1,0-1.9-.9-1.9-1.9h0c0-1.1.8-1.9,1.9-1.9h0c1,0,1.9.8,1.9,1.9Z"/>
        <path class="cls-12" d="M88.3,559c0,1.1-.8,1.9-1.9,1.9h0c-1.1,0-1.9-.8-1.9-1.9h0c0-1,.8-1.9,1.9-1.9h0c1,0,1.9.9,1.9,1.9Z"/>
        <path class="cls-12" d="M88.3,593.7c0,1-.8,1.9-1.9,1.9h0c-1.1,0-1.9-.8-1.9-1.9h0c0-1.1.8-1.9,1.9-1.9h0c1,0,1.9.8,1.9,1.9Z"/>
        <path class="cls-12" d="M88.3,628.4c0,1.1-.8,1.9-1.9,1.9h0c-1.1,0-1.9-.8-1.9-1.9h0c0-1,.8-1.9,1.9-1.9h0c1,0,1.9.9,1.9,1.9Z"/>
        <path class="cls-12" d="M88.3,663.2c0,1-.8,1.9-1.9,1.9h0c-1.1,0-1.9-.9-1.9-1.9h0c0-1.1.8-1.9,1.9-1.9h0c1,0,1.9.8,1.9,1.9Z"/>
        <path class="cls-12" d="M122.3,559c0,1.8-1.5,3.3-3.3,3.3h0c-1.8,0-3.3-1.5-3.3-3.3h0c0-1.8,1.5-3.3,3.3-3.3h0c1.8,0,3.3,1.5,3.3,3.3Z"/>
        <path class="cls-12" d="M122.3,593.7c0,1.8-1.5,3.3-3.3,3.3h0c-1.8,0-3.3-1.5-3.3-3.3h0c0-1.8,1.5-3.3,3.3-3.3h0c1.8,0,3.3,1.5,3.3,3.3Z"/>
        <path class="cls-12" d="M120.9,628.4c0,1.1-.9,1.9-1.9,1.9h0c-1,0-1.9-.8-1.9-1.9h0c0-1,.8-1.9,1.9-1.9h0c1.1,0,1.9.9,1.9,1.9Z"/>
        <path class="cls-12" d="M120.9,663.2c0,1-.9,1.9-1.9,1.9h0c-1,0-1.9-.9-1.9-1.9h0c0-1.1.8-1.9,1.9-1.9h0c1.1,0,1.9.8,1.9,1.9Z"/>
      </g>
      <g>
        <path class="cls-12" d="M198.7,475c0-1.1.9-1.9,1.9-1.9h0c1.1,0,1.9.8,1.9,1.9h0c0,1-.8,1.9-1.9,1.9h0c-1,0-1.9-.9-1.9-1.9Z"/>
        <path class="cls-12" d="M196.8,440.2c0-2.1,1.7-3.8,3.8-3.8h0c2.1,0,3.8,1.7,3.8,3.8h0c0,2.1-1.7,3.8-3.8,3.8h0c-2.1,0-3.8-1.7-3.8-3.8Z"/>
        <path class="cls-12" d="M198.7,405.5c0-1.1.9-1.9,1.9-1.9h0c1.1,0,1.9.8,1.9,1.9h0c0,1-.8,1.9-1.9,1.9h0c-1,0-1.9-.9-1.9-1.9Z"/>
        <path class="cls-12" d="M166,509.7c0-1,.8-1.9,1.9-1.9h0c1,0,1.9.8,1.9,1.9h0c0,1.1-.8,1.9-1.9,1.9h0c-1.1,0-1.9-.8-1.9-1.9Z"/>
        <path class="cls-12" d="M166,475c0-1.1.8-1.9,1.9-1.9h0c1,0,1.9.8,1.9,1.9h0c0,1-.8,1.9-1.9,1.9h0c-1.1,0-1.9-.9-1.9-1.9Z"/>
        <path class="cls-12" d="M166,440.2c0-1,.8-1.9,1.9-1.9h0c1,0,1.9.9,1.9,1.9h0c0,1.1-.8,1.9-1.9,1.9h0c-1.1,0-1.9-.8-1.9-1.9Z"/>
        <path class="cls-12" d="M166,405.5c0-1.1.8-1.9,1.9-1.9h0c1,0,1.9.8,1.9,1.9h0c0,1-.8,1.9-1.9,1.9h0c-1.1,0-1.9-.9-1.9-1.9Z"/>
        <path class="cls-12" d="M127.7,509.7c0-4.2,3.4-7.6,7.6-7.6h0c4.2,0,7.6,3.4,7.6,7.6h0c0,4.2-3.4,7.6-7.6,7.6h0c-4.2,0-7.6-3.4-7.6-7.6h0Z"/>
        <path class="cls-12" d="M128.7,475c0-3.7,3-6.6,6.6-6.6h0c3.7,0,6.6,3,6.6,6.6h0c0,3.7-3,6.6-6.6,6.6h0c-3.7,0-6.6-3-6.6-6.6Z"/>
        <path class="cls-12" d="M133.4,440.2c0-1,.9-1.9,1.9-1.9h0c1.1,0,1.9.9,1.9,1.9h0c0,1.1-.8,1.9-1.9,1.9h0c-1,0-1.9-.8-1.9-1.9Z"/>
        <path class="cls-12" d="M133.4,405.5c0-1.1.9-1.9,1.9-1.9h0c1.1,0,1.9.8,1.9,1.9h0c0,1-.8,1.9-1.9,1.9h0c-1,0-1.9-.9-1.9-1.9Z"/>
        <path class="cls-12" d="M100.8,544.4c0-1.1.9-1.9,1.9-1.9h0c1,0,1.9.8,1.9,1.9h0c0,1-.8,1.9-1.9,1.9h0c-1.1,0-1.9-.9-1.9-1.9Z"/>
        <path class="cls-12" d="M97.5,509.7c0-2.9,2.3-5.2,5.2-5.2h0c2.9,0,5.2,2.3,5.2,5.2h0c0,2.9-2.3,5.2-5.2,5.2h0c-2.9,0-5.2-2.3-5.2-5.2Z"/>
        <path class="cls-12" d="M100.8,475c0-1.1.9-1.9,1.9-1.9h0c1.1,0,1.9.8,1.9,1.9h0c0,1-.8,1.9-1.9,1.9h0c-1,0-1.9-.9-1.9-1.9Z"/>
        <path class="cls-12" d="M100.8,440.2c0-1,.9-1.9,1.9-1.9h0c1.1,0,1.9.9,1.9,1.9h0c0,1.1-.8,1.9-1.9,1.9h0c-1,0-1.9-.8-1.9-1.9Z"/>
        <path class="cls-12" d="M99.8,405.5c0-1.6,1.3-2.8,2.8-2.8h0c1.6,0,2.8,1.3,2.8,2.8h0c0,1.6-1.3,2.8-2.8,2.8h0c-1.6,0-2.8-1.3-2.8-2.8Z"/>
        <path class="cls-12" d="M100.8,370.8c0-1,.9-1.9,1.9-1.9h0c1.1,0,1.9.9,1.9,1.9h0c0,1.1-.8,1.9-1.9,1.9h0c-1,0-1.9-.8-1.9-1.9Z"/>
        <path class="cls-12" d="M68.2,509.7c0-1,.8-1.9,1.9-1.9h0c1,0,1.9.9,1.9,1.9h0c0,1.1-.8,1.9-1.9,1.9h0c-1.1,0-1.9-.8-1.9-1.9Z"/>
        <path class="cls-12" d="M68.2,475c0-1.1.8-1.9,1.9-1.9h0c1,0,1.9.8,1.9,1.9h0c0,1-.8,1.9-1.9,1.9h0c-1.1,0-1.9-.9-1.9-1.9Z"/>
        <path class="cls-12" d="M66.3,440.2c0-2.1,1.7-3.8,3.8-3.8h0c2.1,0,3.8,1.7,3.8,3.8h0c0,2.1-1.7,3.8-3.8,3.8h0c-2.1,0-3.8-1.7-3.8-3.8Z"/>
        <path class="cls-12" d="M68.2,405.5c0-1.1.8-1.9,1.9-1.9h0c1,0,1.9.8,1.9,1.9h0c0,1-.8,1.9-1.9,1.9h0c-1.1,0-1.9-.9-1.9-1.9Z"/>
        <path class="cls-12" d="M68.2,370.8c0-1,.8-1.9,1.9-1.9h0c1,0,1.9.9,1.9,1.9h0c0,1.1-.8,1.9-1.9,1.9h0c-1.1,0-1.9-.8-1.9-1.9Z"/>
        <path class="cls-12" d="M35.5,544.4c0-1.1.9-1.9,1.9-1.9h0c1.1,0,1.9.8,1.9,1.9h0c0,1-.8,1.9-1.9,1.9h0c-1,0-1.9-.9-1.9-1.9Z"/>
        <path class="cls-12" d="M35.5,509.7c0-1,.9-1.9,1.9-1.9h0c1,0,1.9.9,1.9,1.9h0c0,1.1-.8,1.9-1.9,1.9h0c-1.1,0-1.9-.8-1.9-1.9Z"/>
        <path class="cls-12" d="M35.5,475c0-1.1.9-1.9,1.9-1.9h0c1.1,0,1.9.8,1.9,1.9h0c0,1-.8,1.9-1.9,1.9h0c-1,0-1.9-.9-1.9-1.9Z"/>
        <path class="cls-12" d="M35.5,440.2c0-1,.9-1.9,1.9-1.9h0c1,0,1.9.9,1.9,1.9h0c0,1.1-.8,1.9-1.9,1.9h0c-1.1,0-1.9-.9-1.9-1.9Z"/>
        <path class="cls-12" d="M35.5,405.5c0-1.1.9-1.9,1.9-1.9h0c1,0,1.9.8,1.9,1.9h0c0,1-.8,1.9-1.9,1.9h0c-1.1,0-1.9-.9-1.9-1.9Z"/>
        <path class="cls-12" d="M35.5,370.8c0-1,.9-1.9,1.9-1.9h0c1,0,1.9.9,1.9,1.9h0c0,1.1-.8,1.9-1.9,1.9h0c-1.1,0-1.9-.8-1.9-1.9Z"/>
        <path class="cls-12" d="M2.9,544.4c0-1.1.9-1.9,1.9-1.9h0c1,0,1.9.8,1.9,1.9h0c0,1-.8,1.9-1.9,1.9h0c-1.1,0-1.9-.9-1.9-1.9Z"/>
        <path class="cls-12" d="M0,509.7c0-2.6,2.1-4.7,4.7-4.7h0c2.6,0,4.7,2.1,4.7,4.7h0c0,2.6-2.1,4.7-4.7,4.7h0c-2.6,0-4.7-2.1-4.7-4.7Z"/>
        <path class="cls-12" d="M2.9,475c0-1.1.9-1.9,1.9-1.9h0c1.1,0,1.9.8,1.9,1.9h0c0,1-.8,1.9-1.9,1.9h0c-1,0-1.9-.9-1.9-1.9Z"/>
        <path class="cls-12" d="M1.9,440.2c0-1.6,1.3-2.8,2.8-2.8h0c1.6,0,2.8,1.3,2.8,2.8h0c0,1.6-1.3,2.8-2.8,2.8h0c-1.6,0-2.8-1.3-2.8-2.8Z"/>
        <path class="cls-12" d="M2.9,405.5c0-1.1.8-1.9,1.9-1.9h0c1.1,0,1.9.8,1.9,1.9h0c0,1-.8,1.9-1.9,1.9h0c-1,0-1.9-.9-1.9-1.9Z"/>
        <path class="cls-12" d="M2.9,370.8c0-1,.8-1.9,1.9-1.9h0c1.1,0,1.9.9,1.9,1.9h0c0,1.1-.8,1.9-1.9,1.9h0c-1,0-1.9-.8-1.9-1.9Z"/>
        <path class="cls-12" d="M263.9,475c0-1.1.8-1.9,1.9-1.9h0c1.1,0,1.9.8,1.9,1.9h0c0,1-.8,1.9-1.9,1.9h0c-1,0-1.9-.9-1.9-1.9Z"/>
        <path class="cls-12" d="M263.9,440.2c0-1,.8-1.9,1.9-1.9h0c1.1,0,1.9.8,1.9,1.9h0c0,1.1-.8,1.9-1.9,1.9h0c-1,0-1.9-.8-1.9-1.9Z"/>
        <path class="cls-12" d="M263.9,405.5c0-1.1.8-1.9,1.9-1.9h0c1.1,0,1.9.8,1.9,1.9h0c0,1-.8,1.9-1.9,1.9h0c-1,0-1.9-.9-1.9-1.9Z"/>
        <path class="cls-12" d="M263.9,370.8c0-1,.8-1.9,1.9-1.9h0c1.1,0,1.9.9,1.9,1.9h0c0,1.1-.8,1.9-1.9,1.9h0c-1,0-1.9-.8-1.9-1.9Z"/>
        <path class="cls-12" d="M229.9,475c0-1.8,1.5-3.3,3.3-3.3h0c1.8,0,3.3,1.5,3.3,3.3h0c0,1.8-1.5,3.3-3.3,3.3h0c-1.8,0-3.3-1.5-3.3-3.3Z"/>
        <path class="cls-12" d="M229.9,440.2c0-1.8,1.5-3.3,3.3-3.3h0c1.8,0,3.3,1.5,3.3,3.3h0c0,1.8-1.5,3.3-3.3,3.3h0c-1.8,0-3.3-1.5-3.3-3.3Z"/>
        <path class="cls-12" d="M231.3,405.5c0-1.1.9-1.9,1.9-1.9h0c1,0,1.9.8,1.9,1.9h0c0,1-.8,1.9-1.9,1.9h0c-1.1,0-1.9-.9-1.9-1.9Z"/>
        <path class="cls-12" d="M231.3,370.8c0-1,.9-1.9,1.9-1.9h0c1,0,1.9.9,1.9,1.9h0c0,1.1-.8,1.9-1.9,1.9h0c-1.1,0-1.9-.8-1.9-1.9Z"/>
      </g>
      <g>
        <path class="cls-12" d="M657,521.9c0-1.1.9-1.9,1.9-1.9h0c1.1,0,1.9.8,1.9,1.9h0c0,1-.8,1.9-1.9,1.9h0c-1,0-1.9-.9-1.9-1.9Z"/>
        <path class="cls-12" d="M655.1,487.1c0-2.1,1.7-3.8,3.8-3.8h0c2.1,0,3.8,1.7,3.8,3.8h0c0,2.1-1.7,3.8-3.8,3.8h0c-2.1,0-3.8-1.7-3.8-3.8Z"/>
        <path class="cls-12" d="M657,452.4c0-1.1.9-1.9,1.9-1.9h0c1.1,0,1.9.8,1.9,1.9h0c0,1-.8,1.9-1.9,1.9h0c-1,0-1.9-.9-1.9-1.9Z"/>
        <path class="cls-12" d="M624.4,556.6c0-1,.8-1.9,1.9-1.9h0c1,0,1.9.8,1.9,1.9h0c0,1.1-.8,1.9-1.9,1.9h0c-1.1,0-1.9-.8-1.9-1.9Z"/>
        <path class="cls-12" d="M624.4,521.9c0-1.1.8-1.9,1.9-1.9h0c1,0,1.9.8,1.9,1.9h0c0,1-.8,1.9-1.9,1.9h0c-1.1,0-1.9-.9-1.9-1.9Z"/>
        <path class="cls-12" d="M624.4,487.1c0-1,.8-1.9,1.9-1.9h0c1,0,1.9.9,1.9,1.9h0c0,1.1-.8,1.9-1.9,1.9h0c-1.1,0-1.9-.8-1.9-1.9Z"/>
        <path class="cls-12" d="M624.4,452.4c0-1.1.8-1.9,1.9-1.9h0c1,0,1.9.8,1.9,1.9h0c0,1-.8,1.9-1.9,1.9h0c-1.1,0-1.9-.9-1.9-1.9Z"/>
        <path class="cls-12" d="M586.1,556.6c0-4.2,3.4-7.6,7.6-7.6h0c4.2,0,7.6,3.4,7.6,7.6h0c0,4.2-3.4,7.6-7.6,7.6h0c-4.2,0-7.6-3.4-7.6-7.6Z"/>
        <path class="cls-12" d="M587,521.9c0-3.7,3-6.6,6.6-6.6h0c3.7,0,6.6,3,6.6,6.6h0c0,3.7-3,6.6-6.6,6.6h0c-3.7,0-6.6-3-6.6-6.6Z"/>
        <path class="cls-12" d="M591.8,487.1c0-1,.9-1.9,1.9-1.9h0c1.1,0,1.9.9,1.9,1.9h0c0,1.1-.8,1.9-1.9,1.9h0c-1,0-1.9-.8-1.9-1.9Z"/>
        <path class="cls-12" d="M591.8,452.4c0-1.1.9-1.9,1.9-1.9h0c1.1,0,1.9.8,1.9,1.9h0c0,1-.8,1.9-1.9,1.9h0c-1,0-1.9-.9-1.9-1.9Z"/>
        <path class="cls-12" d="M559.1,591.3c0-1.1.9-1.9,1.9-1.9h0c1,0,1.9.8,1.9,1.9h0c0,1-.8,1.9-1.9,1.9h0c-1.1,0-1.9-.9-1.9-1.9Z"/>
        <path class="cls-12" d="M555.8,556.6c0-2.9,2.3-5.2,5.2-5.2h0c2.9,0,5.2,2.3,5.2,5.2h0c0,2.9-2.3,5.2-5.2,5.2h0c-2.9,0-5.2-2.3-5.2-5.2Z"/>
        <path class="cls-12" d="M559.1,521.9c0-1.1.9-1.9,1.9-1.9h0c1.1,0,1.9.8,1.9,1.9h0c0,1-.8,1.9-1.9,1.9h0c-1,0-1.9-.9-1.9-1.9Z"/>
        <path class="cls-12" d="M559.1,487.1c0-1,.9-1.9,1.9-1.9h0c1.1,0,1.9.9,1.9,1.9h0c0,1.1-.8,1.9-1.9,1.9h0c-1,0-1.9-.8-1.9-1.9Z"/>
        <path class="cls-12" d="M558.3,452.4c0-1.6,1.3-2.8,2.8-2.8h0c1.6,0,2.8,1.3,2.8,2.8h0c0,1.6-1.3,2.8-2.8,2.8h0c-1.6,0-2.8-1.3-2.8-2.8Z"/>
        <path class="cls-12" d="M559.1,417.7c0-1,.9-1.9,1.9-1.9h0c1.1,0,1.9.9,1.9,1.9h0c0,1.1-.8,1.9-1.9,1.9h0c-1,0-1.9-.8-1.9-1.9Z"/>
        <path class="cls-12" d="M526.5,556.6c0-1,.8-1.9,1.9-1.9h0c1,0,1.9.9,1.9,1.9h0c0,1.1-.8,1.9-1.9,1.9h0c-1.1,0-1.9-.8-1.9-1.9Z"/>
        <path class="cls-12" d="M526.5,521.9c0-1.1.8-1.9,1.9-1.9h0c1,0,1.9.8,1.9,1.9h0c0,1-.8,1.9-1.9,1.9h0c-1.1,0-1.9-.9-1.9-1.9Z"/>
        <path class="cls-12" d="M524.6,487.1c0-2.1,1.7-3.8,3.8-3.8h0c2.1,0,3.8,1.7,3.8,3.8h0c0,2.1-1.7,3.8-3.8,3.8h0c-2.1,0-3.8-1.7-3.8-3.8Z"/>
        <path class="cls-12" d="M526.5,452.4c0-1.1.8-1.9,1.9-1.9h0c1,0,1.9.8,1.9,1.9h0c0,1-.8,1.9-1.9,1.9h0c-1.1,0-1.9-.9-1.9-1.9Z"/>
        <path class="cls-12" d="M526.5,417.7c0-1,.8-1.9,1.9-1.9h0c1,0,1.9.9,1.9,1.9h0c0,1.1-.8,1.9-1.9,1.9h0c-1.1,0-1.9-.8-1.9-1.9Z"/>
        <path class="cls-12" d="M493.9,591.3c0-1.1.9-1.9,1.9-1.9h0c1.1,0,1.9.8,1.9,1.9h0c0,1-.8,1.9-1.9,1.9h0c-1,0-1.9-.9-1.9-1.9Z"/>
        <path class="cls-12" d="M493.9,556.6c0-1,.9-1.9,1.9-1.9h0c1,0,1.9.9,1.9,1.9h0c0,1.1-.8,1.9-1.9,1.9h0c-1.1,0-1.9-.8-1.9-1.9Z"/>
        <path class="cls-12" d="M493.9,521.9c0-1.1.9-1.9,1.9-1.9h0c1.1,0,1.9.8,1.9,1.9h0c0,1-.8,1.9-1.9,1.9h0c-1,0-1.9-.9-1.9-1.9Z"/>
        <path class="cls-12" d="M493.9,487.1c0-1,.9-1.9,1.9-1.9h0c1,0,1.9.9,1.9,1.9h0c0,1.1-.8,1.9-1.9,1.9h0c-1.1,0-1.9-.9-1.9-1.9Z"/>
        <path class="cls-12" d="M493.9,452.4c0-1.1.9-1.9,1.9-1.9h0c1,0,1.9.8,1.9,1.9h0c0,1-.8,1.9-1.9,1.9h0c-1.1,0-1.9-.9-1.9-1.9Z"/>
        <path class="cls-12" d="M493.9,417.7c0-1,.9-1.9,1.9-1.9h0c1,0,1.9.9,1.9,1.9h0c0,1.1-.8,1.9-1.9,1.9h0c-1.1,0-1.9-.8-1.9-1.9Z"/>
        <path class="cls-12" d="M461.2,591.3c0-1.1.9-1.9,1.9-1.9h0c1,0,1.9.8,1.9,1.9h0c0,1-.8,1.9-1.9,1.9h0c-1.1,0-1.9-.9-1.9-1.9Z"/>
        <path class="cls-12" d="M458.4,556.6c0-2.6,2.1-4.7,4.7-4.7h0c2.6,0,4.7,2.1,4.7,4.7h0c0,2.6-2.1,4.7-4.7,4.7h0c-2.6,0-4.7-2.1-4.7-4.7Z"/>
        <path class="cls-12" d="M461.2,521.9c0-1.1.9-1.9,1.9-1.9h0c1.1,0,1.9.8,1.9,1.9h0c0,1-.8,1.9-1.9,1.9h0c-1,0-1.9-.9-1.9-1.9Z"/>
        <path class="cls-12" d="M460.3,487.1c0-1.6,1.3-2.8,2.8-2.8h0c1.6,0,2.8,1.3,2.8,2.8h0c0,1.6-1.3,2.8-2.8,2.8h0c-1.6,0-2.8-1.3-2.8-2.8Z"/>
        <path class="cls-12" d="M461.3,452.4c0-1.1.8-1.9,1.9-1.9h0c1.1,0,1.9.8,1.9,1.9h0c0,1-.8,1.9-1.9,1.9h0c-1,0-1.9-.9-1.9-1.9Z"/>
        <path class="cls-12" d="M461.3,417.7c0-1,.8-1.9,1.9-1.9h0c1.1,0,1.9.9,1.9,1.9h0c0,1.1-.8,1.9-1.9,1.9h0c-1,0-1.9-.8-1.9-1.9Z"/>
        <path class="cls-12" d="M428.6,556.6c0-1,.9-1.9,1.9-1.9h0c1.1,0,1.9.9,1.9,1.9h0c0,1.1-.9,1.9-1.9,1.9h0c-1,0-1.9-.8-1.9-1.9Z"/>
        <path class="cls-12" d="M428.6,521.9c0-1.1.9-1.9,1.9-1.9h0c1.1,0,1.9.8,1.9,1.9h0c0,1-.8,1.9-1.9,1.9h0c-1,0-1.9-.9-1.9-1.9Z"/>
        <path class="cls-12" d="M427.2,487.1c0-1.8,1.5-3.3,3.3-3.3h0c1.8,0,3.3,1.5,3.3,3.3h0c0,1.8-1.5,3.3-3.3,3.3h0c-1.8,0-3.3-1.5-3.3-3.3Z"/>
        <path class="cls-12" d="M428.6,452.4c0-1.1.9-1.9,1.9-1.9h0c1,0,1.9.8,1.9,1.9h0c0,1-.8,1.9-1.9,1.9h0c-1.1,0-1.9-.9-1.9-1.9Z"/>
        <path class="cls-12" d="M396,591.3c0-1.1.8-1.9,1.9-1.9h0c1.1,0,1.9.8,1.9,1.9h0c0,1-.9,1.9-1.9,1.9h0c-1,0-1.9-.9-1.9-1.9Z"/>
        <path class="cls-12" d="M396,556.6c0-1,.9-1.9,1.9-1.9h0c1.1,0,1.9.9,1.9,1.9h0c0,1.1-.9,1.9-1.9,1.9h0c-1,0-1.9-.8-1.9-1.9Z"/>
        <path class="cls-12" d="M396,521.9c0-1.1.8-1.9,1.9-1.9h0c1,0,1.9.8,1.9,1.9h0c0,1-.9,1.9-1.9,1.9h0c-1.1,0-1.9-.9-1.9-1.9Z"/>
        <path class="cls-12" d="M363.4,556.6c0-1,.8-1.9,1.9-1.9h0c1.1,0,1.9.9,1.9,1.9h0c0,1.1-.8,1.9-1.9,1.9h0c-1,0-1.9-.8-1.9-1.9Z"/>
        <path class="cls-12" d="M722.3,521.9c0-1.1.8-1.9,1.9-1.9h0c1.1,0,1.9.8,1.9,1.9h0c0,1-.8,1.9-1.9,1.9h0c-1,0-1.9-.9-1.9-1.9Z"/>
        <path class="cls-12" d="M722.3,487.1c0-1,.8-1.9,1.9-1.9h0c1.1,0,1.9.8,1.9,1.9h0c0,1.1-.8,1.9-1.9,1.9h0c-1,0-1.9-.8-1.9-1.9Z"/>
        <path class="cls-12" d="M722.3,452.4c0-1.1.8-1.9,1.9-1.9h0c1.1,0,1.9.8,1.9,1.9h0c0,1-.8,1.9-1.9,1.9h0c-1,0-1.9-.9-1.9-1.9Z"/>
        <path class="cls-12" d="M722.3,417.7c0-1,.8-1.9,1.9-1.9h0c1.1,0,1.9.9,1.9,1.9h0c0,1.1-.8,1.9-1.9,1.9h0c-1,0-1.9-.8-1.9-1.9Z"/>
        <path class="cls-12" d="M688.3,521.9c0-1.8,1.5-3.3,3.3-3.3h0c1.8,0,3.3,1.5,3.3,3.3h0c0,1.8-1.5,3.3-3.3,3.3h0c-1.8,0-3.3-1.5-3.3-3.3Z"/>
        <path class="cls-12" d="M688.3,487.1c0-1.8,1.5-3.3,3.3-3.3h0c1.8,0,3.3,1.5,3.3,3.3h0c0,1.8-1.5,3.3-3.3,3.3h0c-1.8,0-3.3-1.5-3.3-3.3Z"/>
        <path class="cls-12" d="M689.8,452.4c0-1.1.9-1.9,1.9-1.9h0c1,0,1.9.8,1.9,1.9h0c0,1-.8,1.9-1.9,1.9h0c-1.1,0-1.9-.9-1.9-1.9Z"/>
        <path class="cls-12" d="M689.8,417.7c0-1,.9-1.9,1.9-1.9h0c1,0,1.9.9,1.9,1.9h0c0,1.1-.8,1.9-1.9,1.9h0c-1.1,0-1.9-.8-1.9-1.9Z"/>
      </g>
    </g>
    <g>
      <g>
        <g>
          <path class="cls-11" d="M196.16,384.67c17.4,0,31.5,9.92,31.5,32.78s-14.1,41.4-31.5,41.4-31.5-18.54-31.5-41.4c0-22.87,14.1-32.78,31.5-32.78Z"/>
          <path class="cls-10" d="M196.16,384.67c17.4,0,31.5,9.92,31.5,32.78s-14.1,41.4-31.5,41.4c-1.7,0-3.37-.18-5-.52,15.02-3.15,26.5-20.25,26.5-40.88s-11.48-30.71-26.5-32.49c1.63-.19,3.3-.29,5-.29Z"/>
          <path class="cls-5" d="M136.19,562.9h119.94c5.52,0,10.03-4.51,10.03-10.03v-53.56c0-15.58-13.88-24.42-29.66-28.34-26.51-6.58-53.38-7.02-80.68,0-15.75,4.05-29.66,12.75-29.66,28.34v53.56c0,5.52,4.5,10.03,10.03,10.03Z"/>
          <path class="cls-4" d="M246.13,562.9h10c5.52,0,10.03-4.51,10.03-10.03v-53.56c0-15.58-13.88-24.42-29.66-28.34-15.11-3.75-30.34-5.5-45.69-5.02,11.97.38,23.87,2.09,35.69,5.02,15.79,3.92,29.66,12.76,29.66,28.34v53.56c0,5.52-4.5,10.03-10.03,10.03Z"/>
        </g>
        <g>
          <path class="cls-11" d="M374.16,384.67c17.4,0,31.5,9.92,31.5,32.78s-14.1,41.4-31.5,41.4-31.5-18.54-31.5-41.4c0-22.87,14.1-32.78,31.5-32.78Z"/>
          <path class="cls-10" d="M374.16,384.67c17.4,0,31.5,9.92,31.5,32.78s-14.1,41.4-31.5,41.4c-1.7,0-3.37-.18-5-.52,15.02-3.15,26.5-20.25,26.5-40.88s-11.48-30.71-26.5-32.49c1.63-.19,3.3-.29,5-.29Z"/>
          <path class="cls-5" d="M314.19,562.9h119.94c5.52,0,10.03-4.51,10.03-10.03v-53.56c0-15.58-13.88-24.42-29.66-28.34-26.51-6.58-53.38-7.02-80.68,0-15.75,4.05-29.66,12.75-29.66,28.34v53.56c0,5.52,4.5,10.03,10.03,10.03h0Z"/>
          <path class="cls-4" d="M424.13,562.9h10c5.52,0,10.03-4.51,10.03-10.03v-53.56c0-15.58-13.88-24.42-29.66-28.34-15.11-3.75-30.34-5.5-45.7-5.02,11.97.38,23.87,2.09,35.69,5.02,15.79,3.92,29.66,12.76,29.66,28.34v53.56c0,5.52-4.51,10.03-10.03,10.03Z"/>
        </g>
        <g>
          <path class="cls-11" d="M552.16,384.67c17.4,0,31.5,9.92,31.5,32.78s-14.1,41.4-31.5,41.4-31.5-18.54-31.5-41.4c0-22.87,14.1-32.78,31.5-32.78Z"/>
          <path class="cls-10" d="M552.16,384.67c17.4,0,31.5,9.92,31.5,32.78s-14.1,41.4-31.5,41.4c-1.7,0-3.37-.18-5-.52,15.02-3.15,26.5-20.25,26.5-40.88s-11.48-30.71-26.5-32.49c1.63-.19,3.3-.29,5-.29Z"/>
          <path class="cls-5" d="M492.19,562.9h119.95c5.52,0,10.03-4.51,10.03-10.03v-53.56c0-15.58-13.88-24.42-29.66-28.34-26.51-6.58-53.38-7.02-80.68,0-15.75,4.05-29.66,12.75-29.66,28.34v53.56c0,5.52,4.5,10.03,10.03,10.03Z"/>
          <path class="cls-4" d="M602.13,562.9h10c5.52,0,10.03-4.51,10.03-10.03v-53.56c0-15.58-13.88-24.42-29.66-28.34-15.11-3.75-30.34-5.5-45.7-5.02,11.97.38,23.87,2.09,35.69,5.02,15.79,3.92,29.66,12.76,29.66,28.34v53.56c0,5.52-4.5,10.03-10.03,10.03Z"/>
        </g>
        <g>
          <path class="cls-8" d="M519.25,269.96l28.19,63.76c.82,1.85,2.55,2.98,4.57,2.98s3.75-1.13,4.57-2.98l28.19-63.76h14.51c12.6,0,22.88-10.28,22.88-22.88v-93.93c0-12.6-10.28-22.88-22.88-22.88H149.04c-12.6,0-22.88,10.28-22.88,22.88v93.93c0,12.6,10.28,22.88,22.88,22.88h14.51l28.19,63.76c.82,1.85,2.55,2.98,4.57,2.98s3.75-1.13,4.57-2.98l28.19-63.76h112.33l28.19,63.76c.82,1.85,2.55,2.98,4.57,2.98s3.75-1.13,4.57-2.98l28.19-63.76h112.33Z"/>
          <path class="cls-9" d="M290.38,130.26h-141.34c-8.87,0-16.59,5.09-20.38,12.5,3.12-1.6,6.65-2.5,10.38-2.5h151.34v-10ZM194.19,336.24c.64.3.73.46,2.12.46s3.75-1.13,4.57-2.98l28.19-63.76h-5.58l-29.3,66.28Z"/>
          <path class="cls-7" d="M265.36,168.58c7.48,0,14.35,2.63,19.74,7.01v-45.34h178.13v139.7h-56.31l-28.19,63.76c-.82,1.85-2.55,2.98-4.57,2.98s-3.76-1.13-4.57-2.98l-28.19-63.76h-56.31v-45.82c-5.38,4.38-12.25,7.01-19.74,7.01-17.28,0-31.29-14.01-31.29-31.29s14.01-31.29,31.29-31.29h0Z"/>
          <path class="cls-2" d="M372.04,336.24c.64.3.73.46,2.12.46s3.75-1.13,4.57-2.98l28.19-63.76h-5.58l-29.3,66.28ZM463.23,130.26h-178.13v10h178.13v-10Z"/>
          <path class="cls-6" d="M463.23,130.26v45.34c-5.38-4.38-12.25-7.01-19.74-7.01-17.28,0-31.29,14.01-31.29,31.29s14.01,31.29,31.29,31.29c7.48,0,14.35-2.63,19.74-7.01v45.82h56.03l28.19,63.76c.82,1.85,2.55,2.98,4.57,2.98s3.75-1.13,4.57-2.98l28.19-63.76h14.51c12.6,0,22.88-10.28,22.88-22.88v-93.93c0-12.6-10.28-22.88-22.88-22.88h-136.05Z"/>
          <path class="cls-3" d="M609.66,267.46c7.41-3.79,12.5-11.51,12.5-20.38v-93.93c0-12.6-10.28-22.88-22.88-22.88h-136.05v10h126.05c12.6,0,22.88,10.28,22.88,22.88v93.93c0,3.73-.9,7.26-2.5,10.38h0ZM549.89,336.24c.64.3.73.46,2.12.46s3.75-1.13,4.57-2.98l28.19-63.76h-5.58l-29.3,66.28Z"/>
        </g>
      </g>
      <path class="cls-1" d="M614.16,552.87c0,1.1-.93,2.03-2.03,2.03h-13.78v-40.97c0-4.42-3.58-8-8-8s-8,3.58-8,8v40.97h-60.38v-40.97c0-4.42-3.58-8-8-8s-8,3.58-8,8v40.97h-13.78c-1.1,0-2.03-.93-2.03-2.03v-53.56c0-11.99,12.86-17.82,23.65-20.59,12.49-3.21,25.18-4.82,37.99-4.82s25.79,1.61,38.77,4.84c8.81,2.18,23.59,7.76,23.59,20.57v53.56ZM552.16,392.67c10.72,0,23.5,4.3,23.5,24.78,0,18.1-10.76,33.4-23.5,33.4s-23.5-15.3-23.5-33.4c0-20.48,12.78-24.78,23.5-24.78h0ZM594.43,463.21c-7.1-1.77-14.18-3.08-21.25-3.97,11.09-8.75,18.48-24.21,18.48-41.79,0-16.36-6.39-25.78-11.76-30.81-6.97-6.52-16.56-9.97-27.74-9.97s-20.77,3.45-27.74,9.97c-5.37,5.03-11.76,14.45-11.76,30.81,0,17.54,7.36,32.97,18.41,41.74-7.13.88-14.21,2.23-21.24,4.03-22.67,5.83-35.67,18.98-35.67,36.09v53.56c0,9.94,8.09,18.03,18.03,18.03h119.94c9.94,0,18.03-8.09,18.03-18.03v-53.56c0-17.31-13.03-30.47-35.73-36.1h0ZM436.16,552.87c0,1.1-.93,2.03-2.03,2.03h-13.78v-40.97c0-4.42-3.58-8-8-8s-8,3.58-8,8v40.97h-60.38v-40.97c0-4.42-3.58-8-8-8s-8,3.58-8,8v40.97h-13.79c-1.1,0-2.03-.93-2.03-2.03v-53.56c0-11.99,12.86-17.82,23.65-20.59,12.49-3.21,25.18-4.82,37.99-4.82s25.79,1.61,38.77,4.84c8.81,2.18,23.59,7.76,23.59,20.57v53.56ZM374.16,392.67c10.72,0,23.5,4.3,23.5,24.78,0,18.1-10.76,33.4-23.5,33.4s-23.5-15.3-23.5-33.4c0-20.48,12.78-24.78,23.5-24.78ZM416.43,463.21c-7.1-1.77-14.18-3.08-21.25-3.97,11.09-8.75,18.48-24.21,18.48-41.79,0-16.36-6.39-25.78-11.76-30.81-6.97-6.52-16.56-9.97-27.74-9.97s-20.77,3.45-27.74,9.97c-5.37,5.03-11.76,14.45-11.76,30.81,0,17.54,7.36,32.97,18.41,41.74-7.13.88-14.21,2.23-21.24,4.03-22.67,5.83-35.67,18.98-35.67,36.09v53.56c0,9.94,8.09,18.03,18.03,18.03h119.94c9.95,0,18.03-8.09,18.03-18.03v-53.56c0-17.31-13.02-30.47-35.73-36.1h0ZM258.16,552.87c0,1.1-.93,2.03-2.03,2.03h-13.78v-40.97c0-4.42-3.58-8-8-8s-8,3.58-8,8v40.97h-60.38v-40.97c0-4.42-3.58-8-8-8s-8,3.58-8,8v40.97h-13.78c-1.1,0-2.03-.93-2.03-2.03v-53.56c0-11.99,12.86-17.82,23.65-20.59,12.49-3.21,25.18-4.82,37.99-4.82s25.79,1.61,38.77,4.84c8.81,2.18,23.59,7.76,23.59,20.57v53.56ZM196.16,392.67c10.72,0,23.5,4.3,23.5,24.78,0,18.1-10.76,33.4-23.5,33.4s-23.5-15.3-23.5-33.4c0-20.48,12.78-24.78,23.5-24.78ZM238.43,463.21c-7.1-1.77-14.18-3.08-21.25-3.97,11.09-8.75,18.48-24.21,18.48-41.79,0-16.36-6.39-25.78-11.76-30.81-6.97-6.52-16.56-9.97-27.74-9.97s-20.77,3.45-27.74,9.97c-5.37,5.03-11.76,14.45-11.76,30.81,0,17.54,7.36,32.97,18.41,41.74-7.13.88-14.21,2.23-21.24,4.03-22.67,5.83-35.67,18.98-35.67,36.09v53.56c0,9.94,8.09,18.03,18.03,18.03h119.94c9.94,0,18.03-8.09,18.03-18.03v-53.56c0-17.31-13.02-30.47-35.73-36.1ZM614.16,247.08c0,8.2-6.68,14.88-14.88,14.88h-14.51c-3.17,0-6.04,1.87-7.32,4.77l-25.44,57.55-25.44-57.55c-1.28-2.9-4.15-4.77-7.32-4.77h-48.02v-37.82c0-3.08-1.78-5.9-4.57-7.22-2.79-1.33-6.09-.93-8.49,1.02-4.19,3.41-9.27,5.22-14.68,5.22-12.84,0-23.29-10.46-23.29-23.29s10.45-23.29,23.29-23.29c5.41,0,10.49,1.81,14.68,5.22,2.4,1.95,5.7,2.35,8.49,1.02,2.79-1.32,4.57-4.14,4.57-7.22v-37.34h128.05c8.2,0,14.88,6.68,14.88,14.88v93.94ZM406.92,261.96h48.31v-24.6c-3.78,1.18-7.74,1.8-11.74,1.8-21.66,0-39.29-17.63-39.29-39.29s17.63-39.29,39.29-39.29c4,0,7.96.62,11.74,1.8v-24.12h-162.13v37.34c0,3.08-1.78,5.9-4.57,7.22-2.79,1.33-6.09.93-8.49-1.02-4.19-3.41-9.27-5.22-14.68-5.22-12.84,0-23.29,10.45-23.29,23.29s10.45,23.29,23.29,23.29c5.41,0,10.49-1.81,14.68-5.22,2.4-1.95,5.7-2.35,8.49-1.02,2.79,1.32,4.57,4.14,4.57,7.22v37.82h48.3c3.17,0,6.04,1.87,7.32,4.77l25.44,57.55,25.44-57.55c1.28-2.9,4.15-4.77,7.32-4.77ZM229.07,261.96c-3.17,0-6.04,1.87-7.32,4.77l-25.44,57.55-25.44-57.55c-1.28-2.9-4.15-4.77-7.32-4.77h-14.51c-8.2,0-14.88-6.68-14.88-14.88v-93.94c0-8.2,6.68-14.88,14.88-14.88h128.06v24.12c-3.78-1.18-7.74-1.8-11.74-1.8-21.66,0-39.29,17.63-39.29,39.29s17.63,39.29,39.29,39.29c4,0,7.96-.62,11.74-1.8v24.6h-48.03ZM599.28,122.26H149.04c-17.03,0-30.88,13.86-30.88,30.88v93.94c0,17.03,13.85,30.88,30.88,30.88h9.3l30.65,69.34c1.28,2.89,4.15,4.76,7.32,4.76s6.04-1.87,7.32-4.76l30.65-69.34h101.91l30.65,69.34c1.28,2.89,4.15,4.76,7.32,4.76s6.04-1.87,7.32-4.76l30.65-69.34h101.91l30.65,69.34c1.28,2.89,4.15,4.76,7.32,4.76s6.04-1.87,7.32-4.76l30.65-69.34h9.3c17.03,0,30.88-13.85,30.88-30.88v-93.94c0-17.02-13.85-30.88-30.88-30.88h0Z"/>
    </g>
  </g>
</svg>