<?xml version="1.0" encoding="UTF-8"?>
<svg id="Layer_2" data-name="Layer 2" xmlns="http://www.w3.org/2000/svg" viewBox="0 0 726.3 720">
  <defs>
    <style>
      .cls-1 {
        fill: #293553;
      }

      .cls-2 {
        fill: #fff;
      }

      .cls-3 {
        fill: #a79ba7;
      }

      .cls-4 {
        fill: #06a27a;
      }

      .cls-5 {
        fill: #f8f3f1;
      }

      .cls-6 {
        fill: #73d6bb;
      }

      .cls-7 {
        fill: #9a5a9a;
      }
    </style>
  </defs>
  <g id="Layer_1-2" data-name="Layer 1">
    <rect class="cls-2" x="6.3" width="720" height="720"/>
    <g>
      <g>
        <path class="cls-4" d="M153.5,559c0,1.1-.9,1.9-1.9,1.9h0c-1.1,0-1.9-.8-1.9-1.9h0c0-1,.8-1.9,1.9-1.9h0c1,0,1.9.9,1.9,1.9Z"/>
        <path class="cls-4" d="M155.4,593.7c0,2.1-1.7,3.8-3.8,3.8h0c-2.1,0-3.8-1.7-3.8-3.8h0c0-2.1,1.7-3.8,3.8-3.8h0c2.1,0,3.8,1.7,3.8,3.8Z"/>
        <path class="cls-4" d="M153.5,628.4c0,1.1-.9,1.9-1.9,1.9h0c-1.1,0-1.9-.8-1.9-1.9h0c0-1,.8-1.9,1.9-1.9h0c1,0,1.9.9,1.9,1.9Z"/>
        <path class="cls-4" d="M186.1,524.2c0,1-.8,1.9-1.9,1.9h0c-1,0-1.9-.8-1.9-1.9h0c0-1.1.8-1.9,1.9-1.9h0c1.1,0,1.9.8,1.9,1.9Z"/>
        <path class="cls-4" d="M186.1,559c0,1.1-.8,1.9-1.9,1.9h0c-1,0-1.9-.8-1.9-1.9h0c0-1,.8-1.9,1.9-1.9h0c1.1,0,1.9.9,1.9,1.9Z"/>
        <path class="cls-4" d="M186.1,593.7c0,1-.8,1.9-1.9,1.9h0c-1,0-1.9-.9-1.9-1.9h0c0-1.1.8-1.9,1.9-1.9h0c1.1,0,1.9.8,1.9,1.9Z"/>
        <path class="cls-4" d="M186.1,628.4c0,1.1-.8,1.9-1.9,1.9h0c-1,0-1.9-.8-1.9-1.9h0c0-1,.8-1.9,1.9-1.9h0c1.1,0,1.9.9,1.9,1.9Z"/>
        <path class="cls-4" d="M224.5,524.2c0,4.2-3.4,7.6-7.6,7.6h0c-4.2,0-7.6-3.4-7.6-7.6h0c0-4.2,3.4-7.6,7.6-7.6h0c4.2,0,7.6,3.4,7.6,7.6Z"/>
        <path class="cls-4" d="M223.5,559c0,3.7-3,6.6-6.6,6.6h0c-3.7,0-6.6-3-6.6-6.6h0c0-3.7,3-6.6,6.6-6.6h0c3.7,0,6.6,3,6.6,6.6Z"/>
        <path class="cls-4" d="M218.8,593.7c0,1-.9,1.9-1.9,1.9h0c-1.1,0-1.9-.9-1.9-1.9h0c0-1.1.8-1.9,1.9-1.9h0c1,0,1.9.8,1.9,1.9Z"/>
        <path class="cls-4" d="M218.8,628.4c0,1.1-.9,1.9-1.9,1.9h0c-1.1,0-1.9-.8-1.9-1.9h0c0-1,.8-1.9,1.9-1.9h0c1,0,1.9.9,1.9,1.9Z"/>
        <path class="cls-4" d="M251.4,489.5c0,1.1-.9,1.9-1.9,1.9h0c-1,0-1.9-.8-1.9-1.9h0c0-1,.8-1.9,1.9-1.9h0c1.1,0,1.9.9,1.9,1.9Z"/>
        <path class="cls-4" d="M254.7,524.2c0,2.9-2.3,5.2-5.2,5.2h0c-2.9,0-5.2-2.3-5.2-5.2h0c0-2.9,2.3-5.2,5.2-5.2h0c2.9,0,5.2,2.3,5.2,5.2Z"/>
        <path class="cls-4" d="M251.4,559c0,1.1-.9,1.9-1.9,1.9h0c-1.1,0-1.9-.8-1.9-1.9h0c0-1,.8-1.9,1.9-1.9h0c1,0,1.9.9,1.9,1.9Z"/>
        <path class="cls-4" d="M251.4,593.7c0,1-.9,1.9-1.9,1.9h0c-1.1,0-1.9-.9-1.9-1.9h0c0-1.1.8-1.9,1.9-1.9h0c1,0,1.9.8,1.9,1.9Z"/>
        <path class="cls-4" d="M252.4,628.4c0,1.6-1.3,2.8-2.8,2.8h0c-1.6,0-2.8-1.3-2.8-2.8h0c0-1.6,1.3-2.8,2.8-2.8h0c1.6,0,2.8,1.3,2.8,2.8Z"/>
        <path class="cls-4" d="M251.4,663.2c0,1-.9,1.9-1.9,1.9h0c-1.1,0-1.9-.9-1.9-1.9h0c0-1.1.8-1.9,1.9-1.9h0c1,0,1.9.8,1.9,1.9Z"/>
        <path class="cls-4" d="M284,524.2c0,1-.8,1.9-1.9,1.9h0c-1,0-1.9-.9-1.9-1.9h0c0-1.1.8-1.9,1.9-1.9h0c1.1,0,1.9.8,1.9,1.9Z"/>
        <path class="cls-4" d="M284,559c0,1.1-.8,1.9-1.9,1.9h0c-1,0-1.9-.8-1.9-1.9h0c0-1,.8-1.9,1.9-1.9h0c1.1,0,1.9.9,1.9,1.9Z"/>
        <path class="cls-4" d="M285.9,593.7c0,2.1-1.7,3.8-3.8,3.8h0c-2.1,0-3.8-1.7-3.8-3.8h0c0-2.1,1.7-3.8,3.8-3.8h0c2.1,0,3.8,1.7,3.8,3.8Z"/>
        <path class="cls-4" d="M284,628.4c0,1.1-.8,1.9-1.9,1.9h0c-1,0-1.9-.8-1.9-1.9h0c0-1,.8-1.9,1.9-1.9h0c1.1,0,1.9.9,1.9,1.9Z"/>
        <path class="cls-4" d="M284,663.2c0,1-.8,1.9-1.9,1.9h0c-1,0-1.9-.9-1.9-1.9h0c0-1.1.8-1.9,1.9-1.9h0c1.1,0,1.9.8,1.9,1.9Z"/>
        <path class="cls-4" d="M316.7,489.5c0,1.1-.9,1.9-1.9,1.9h0c-1.1,0-1.9-.8-1.9-1.9h0c0-1,.8-1.9,1.9-1.9h0c1,0,1.9.9,1.9,1.9Z"/>
        <path class="cls-4" d="M316.7,524.2c0,1-.9,1.9-1.9,1.9h0c-1,0-1.9-.9-1.9-1.9h0c0-1.1.8-1.9,1.9-1.9h0c1.1,0,1.9.8,1.9,1.9Z"/>
        <path class="cls-4" d="M316.7,559c0,1.1-.9,1.9-1.9,1.9h0c-1.1,0-1.9-.8-1.9-1.9h0c0-1,.8-1.9,1.9-1.9h0c1,0,1.9.9,1.9,1.9Z"/>
        <path class="cls-4" d="M316.7,593.7c0,1-.9,1.9-1.9,1.9h0c-1,0-1.9-.9-1.9-1.9h0c0-1.1.8-1.9,1.9-1.9h0c1.1,0,1.9.9,1.9,1.9Z"/>
        <path class="cls-4" d="M316.7,628.4c0,1.1-.9,1.9-1.9,1.9h0c-1,0-1.9-.8-1.9-1.9h0c0-1,.8-1.9,1.9-1.9h0c1.1,0,1.9.9,1.9,1.9Z"/>
        <path class="cls-4" d="M316.7,663.2c0,1-.9,1.9-1.9,1.9h0c-1,0-1.9-.9-1.9-1.9h0c0-1.1.8-1.9,1.9-1.9h0c1.1,0,1.9.8,1.9,1.9Z"/>
        <path class="cls-4" d="M349.3,489.5c0,1.1-.9,1.9-1.9,1.9h0c-1,0-1.9-.8-1.9-1.9h0c0-1,.8-1.9,1.9-1.9h0c1.1,0,1.9.9,1.9,1.9Z"/>
        <path class="cls-4" d="M352.1,524.2c0,2.6-2.1,4.7-4.7,4.7h0c-2.6,0-4.7-2.1-4.7-4.7h0c0-2.6,2.1-4.7,4.7-4.7h0c2.6,0,4.7,2.1,4.7,4.7Z"/>
        <path class="cls-4" d="M349.3,559c0,1.1-.9,1.9-1.9,1.9h0c-1.1,0-1.9-.8-1.9-1.9h0c0-1,.8-1.9,1.9-1.9h0c1,0,1.9.9,1.9,1.9Z"/>
        <path class="cls-4" d="M350.2,593.7c0,1.6-1.3,2.8-2.8,2.8h0c-1.6,0-2.8-1.3-2.8-2.8h0c0-1.6,1.3-2.8,2.8-2.8h0c1.6,0,2.8,1.3,2.8,2.8Z"/>
        <path class="cls-4" d="M349.3,628.4c0,1.1-.8,1.9-1.9,1.9h0c-1.1,0-1.9-.8-1.9-1.9h0c0-1,.8-1.9,1.9-1.9h0c1,0,1.9.9,1.9,1.9Z"/>
        <path class="cls-4" d="M349.3,663.2c0,1-.8,1.9-1.9,1.9h0c-1.1,0-1.9-.9-1.9-1.9h0c0-1.1.8-1.9,1.9-1.9h0c1,0,1.9.8,1.9,1.9Z"/>
        <path class="cls-4" d="M381.9,524.2c0,1-.9,1.9-1.9,1.9h0c-1.1,0-1.9-.9-1.9-1.9h0c0-1.1.9-1.9,1.9-1.9h0c1,0,1.9.8,1.9,1.9Z"/>
        <path class="cls-4" d="M381.9,559c0,1.1-.9,1.9-1.9,1.9h0c-1.1,0-1.9-.8-1.9-1.9h0c0-1,.8-1.9,1.9-1.9h0c1,0,1.9.9,1.9,1.9Z"/>
        <path class="cls-4" d="M383.4,593.7c0,1.8-1.5,3.3-3.3,3.3h0c-1.8,0-3.3-1.5-3.3-3.3h0c0-1.8,1.5-3.3,3.3-3.3h0c1.8,0,3.3,1.5,3.3,3.3Z"/>
        <path class="cls-4" d="M381.9,628.4c0,1.1-.9,1.9-1.9,1.9h0c-1,0-1.9-.8-1.9-1.9h0c0-1,.8-1.9,1.9-1.9h0c1.1,0,1.9.9,1.9,1.9Z"/>
        <path class="cls-4" d="M414.6,489.5c0,1.1-.8,1.9-1.9,1.9h0c-1.1,0-1.9-.8-1.9-1.9h0c0-1,.9-1.9,1.9-1.9h0c1,0,1.9.9,1.9,1.9Z"/>
        <path class="cls-4" d="M414.6,524.2c0,1-.9,1.9-1.9,1.9h0c-1.1,0-1.9-.9-1.9-1.9h0c0-1.1.9-1.9,1.9-1.9h0c1,0,1.9.8,1.9,1.9Z"/>
        <path class="cls-4" d="M414.6,559c0,1.1-.8,1.9-1.9,1.9h0c-1,0-1.9-.8-1.9-1.9h0c0-1,.9-1.9,1.9-1.9h0c1.1,0,1.9.9,1.9,1.9Z"/>
        <path class="cls-4" d="M447.2,524.2c0,1-.8,1.9-1.9,1.9h0c-1.1,0-1.9-.9-1.9-1.9h0c0-1.1.8-1.9,1.9-1.9h0c1,0,1.9.8,1.9,1.9Z"/>
        <path class="cls-4" d="M88.3,559c0,1.1-.8,1.9-1.9,1.9h0c-1.1,0-1.9-.8-1.9-1.9h0c0-1,.8-1.9,1.9-1.9h0c1,0,1.9.9,1.9,1.9Z"/>
        <path class="cls-4" d="M88.3,593.7c0,1-.8,1.9-1.9,1.9h0c-1.1,0-1.9-.8-1.9-1.9h0c0-1.1.8-1.9,1.9-1.9h0c1,0,1.9.8,1.9,1.9Z"/>
        <path class="cls-4" d="M88.3,628.4c0,1.1-.8,1.9-1.9,1.9h0c-1.1,0-1.9-.8-1.9-1.9h0c0-1,.8-1.9,1.9-1.9h0c1,0,1.9.9,1.9,1.9Z"/>
        <path class="cls-4" d="M88.3,663.2c0,1-.8,1.9-1.9,1.9h0c-1.1,0-1.9-.9-1.9-1.9h0c0-1.1.8-1.9,1.9-1.9h0c1,0,1.9.8,1.9,1.9Z"/>
        <path class="cls-4" d="M122.3,559c0,1.8-1.5,3.3-3.3,3.3h0c-1.8,0-3.3-1.5-3.3-3.3h0c0-1.8,1.5-3.3,3.3-3.3h0c1.8,0,3.3,1.5,3.3,3.3Z"/>
        <path class="cls-4" d="M122.3,593.7c0,1.8-1.5,3.3-3.3,3.3h0c-1.8,0-3.3-1.5-3.3-3.3h0c0-1.8,1.5-3.3,3.3-3.3h0c1.8,0,3.3,1.5,3.3,3.3Z"/>
        <path class="cls-4" d="M120.9,628.4c0,1.1-.9,1.9-1.9,1.9h0c-1,0-1.9-.8-1.9-1.9h0c0-1,.8-1.9,1.9-1.9h0c1.1,0,1.9.9,1.9,1.9Z"/>
        <path class="cls-4" d="M120.9,663.2c0,1-.9,1.9-1.9,1.9h0c-1,0-1.9-.9-1.9-1.9h0c0-1.1.8-1.9,1.9-1.9h0c1.1,0,1.9.8,1.9,1.9Z"/>
      </g>
      <g>
        <path class="cls-4" d="M198.7,475c0-1.1.9-1.9,1.9-1.9h0c1.1,0,1.9.8,1.9,1.9h0c0,1-.8,1.9-1.9,1.9h0c-1,0-1.9-.9-1.9-1.9Z"/>
        <path class="cls-4" d="M196.8,440.2c0-2.1,1.7-3.8,3.8-3.8h0c2.1,0,3.8,1.7,3.8,3.8h0c0,2.1-1.7,3.8-3.8,3.8h0c-2.1,0-3.8-1.7-3.8-3.8Z"/>
        <path class="cls-4" d="M198.7,405.5c0-1.1.9-1.9,1.9-1.9h0c1.1,0,1.9.8,1.9,1.9h0c0,1-.8,1.9-1.9,1.9h0c-1,0-1.9-.9-1.9-1.9Z"/>
        <path class="cls-4" d="M166,509.7c0-1,.8-1.9,1.9-1.9h0c1,0,1.9.8,1.9,1.9h0c0,1.1-.8,1.9-1.9,1.9h0c-1.1,0-1.9-.8-1.9-1.9Z"/>
        <path class="cls-4" d="M166,475c0-1.1.8-1.9,1.9-1.9h0c1,0,1.9.8,1.9,1.9h0c0,1-.8,1.9-1.9,1.9h0c-1.1,0-1.9-.9-1.9-1.9Z"/>
        <path class="cls-4" d="M166,440.2c0-1,.8-1.9,1.9-1.9h0c1,0,1.9.9,1.9,1.9h0c0,1.1-.8,1.9-1.9,1.9h0c-1.1,0-1.9-.8-1.9-1.9Z"/>
        <path class="cls-4" d="M166,405.5c0-1.1.8-1.9,1.9-1.9h0c1,0,1.9.8,1.9,1.9h0c0,1-.8,1.9-1.9,1.9h0c-1.1,0-1.9-.9-1.9-1.9Z"/>
        <path class="cls-4" d="M127.7,509.7c0-4.2,3.4-7.6,7.6-7.6h0c4.2,0,7.6,3.4,7.6,7.6h0c0,4.2-3.4,7.6-7.6,7.6h0c-4.2,0-7.6-3.4-7.6-7.6h0Z"/>
        <path class="cls-4" d="M128.7,475c0-3.7,3-6.6,6.6-6.6h0c3.7,0,6.6,3,6.6,6.6h0c0,3.7-3,6.6-6.6,6.6h0c-3.7,0-6.6-3-6.6-6.6Z"/>
        <path class="cls-4" d="M133.4,440.2c0-1,.9-1.9,1.9-1.9h0c1.1,0,1.9.9,1.9,1.9h0c0,1.1-.8,1.9-1.9,1.9h0c-1,0-1.9-.8-1.9-1.9Z"/>
        <path class="cls-4" d="M133.4,405.5c0-1.1.9-1.9,1.9-1.9h0c1.1,0,1.9.8,1.9,1.9h0c0,1-.8,1.9-1.9,1.9h0c-1,0-1.9-.9-1.9-1.9Z"/>
        <path class="cls-4" d="M100.8,544.4c0-1.1.9-1.9,1.9-1.9h0c1,0,1.9.8,1.9,1.9h0c0,1-.8,1.9-1.9,1.9h0c-1.1,0-1.9-.9-1.9-1.9Z"/>
        <path class="cls-4" d="M97.5,509.7c0-2.9,2.3-5.2,5.2-5.2h0c2.9,0,5.2,2.3,5.2,5.2h0c0,2.9-2.3,5.2-5.2,5.2h0c-2.9,0-5.2-2.3-5.2-5.2Z"/>
        <path class="cls-4" d="M100.8,475c0-1.1.9-1.9,1.9-1.9h0c1.1,0,1.9.8,1.9,1.9h0c0,1-.8,1.9-1.9,1.9h0c-1,0-1.9-.9-1.9-1.9Z"/>
        <path class="cls-4" d="M100.8,440.2c0-1,.9-1.9,1.9-1.9h0c1.1,0,1.9.9,1.9,1.9h0c0,1.1-.8,1.9-1.9,1.9h0c-1,0-1.9-.8-1.9-1.9Z"/>
        <path class="cls-4" d="M99.8,405.5c0-1.6,1.3-2.8,2.8-2.8h0c1.6,0,2.8,1.3,2.8,2.8h0c0,1.6-1.3,2.8-2.8,2.8h0c-1.6,0-2.8-1.3-2.8-2.8Z"/>
        <path class="cls-4" d="M100.8,370.8c0-1,.9-1.9,1.9-1.9h0c1.1,0,1.9.9,1.9,1.9h0c0,1.1-.8,1.9-1.9,1.9h0c-1,0-1.9-.8-1.9-1.9Z"/>
        <path class="cls-4" d="M68.2,509.7c0-1,.8-1.9,1.9-1.9h0c1,0,1.9.9,1.9,1.9h0c0,1.1-.8,1.9-1.9,1.9h0c-1.1,0-1.9-.8-1.9-1.9Z"/>
        <path class="cls-4" d="M68.2,475c0-1.1.8-1.9,1.9-1.9h0c1,0,1.9.8,1.9,1.9h0c0,1-.8,1.9-1.9,1.9h0c-1.1,0-1.9-.9-1.9-1.9Z"/>
        <path class="cls-4" d="M66.3,440.2c0-2.1,1.7-3.8,3.8-3.8h0c2.1,0,3.8,1.7,3.8,3.8h0c0,2.1-1.7,3.8-3.8,3.8h0c-2.1,0-3.8-1.7-3.8-3.8Z"/>
        <path class="cls-4" d="M68.2,405.5c0-1.1.8-1.9,1.9-1.9h0c1,0,1.9.8,1.9,1.9h0c0,1-.8,1.9-1.9,1.9h0c-1.1,0-1.9-.9-1.9-1.9Z"/>
        <path class="cls-4" d="M68.2,370.8c0-1,.8-1.9,1.9-1.9h0c1,0,1.9.9,1.9,1.9h0c0,1.1-.8,1.9-1.9,1.9h0c-1.1,0-1.9-.8-1.9-1.9Z"/>
        <path class="cls-4" d="M35.5,544.4c0-1.1.9-1.9,1.9-1.9h0c1.1,0,1.9.8,1.9,1.9h0c0,1-.8,1.9-1.9,1.9h0c-1,0-1.9-.9-1.9-1.9Z"/>
        <path class="cls-4" d="M35.5,509.7c0-1,.9-1.9,1.9-1.9h0c1,0,1.9.9,1.9,1.9h0c0,1.1-.8,1.9-1.9,1.9h0c-1.1,0-1.9-.8-1.9-1.9Z"/>
        <path class="cls-4" d="M35.5,475c0-1.1.9-1.9,1.9-1.9h0c1.1,0,1.9.8,1.9,1.9h0c0,1-.8,1.9-1.9,1.9h0c-1,0-1.9-.9-1.9-1.9Z"/>
        <path class="cls-4" d="M35.5,440.2c0-1,.9-1.9,1.9-1.9h0c1,0,1.9.9,1.9,1.9h0c0,1.1-.8,1.9-1.9,1.9h0c-1.1,0-1.9-.9-1.9-1.9Z"/>
        <path class="cls-4" d="M35.5,405.5c0-1.1.9-1.9,1.9-1.9h0c1,0,1.9.8,1.9,1.9h0c0,1-.8,1.9-1.9,1.9h0c-1.1,0-1.9-.9-1.9-1.9Z"/>
        <path class="cls-4" d="M35.5,370.8c0-1,.9-1.9,1.9-1.9h0c1,0,1.9.9,1.9,1.9h0c0,1.1-.8,1.9-1.9,1.9h0c-1.1,0-1.9-.8-1.9-1.9Z"/>
        <path class="cls-4" d="M2.9,544.4c0-1.1.9-1.9,1.9-1.9h0c1,0,1.9.8,1.9,1.9h0c0,1-.8,1.9-1.9,1.9h0c-1.1,0-1.9-.9-1.9-1.9Z"/>
        <path class="cls-4" d="M0,509.7c0-2.6,2.1-4.7,4.7-4.7h0c2.6,0,4.7,2.1,4.7,4.7h0c0,2.6-2.1,4.7-4.7,4.7h0c-2.6,0-4.7-2.1-4.7-4.7Z"/>
        <path class="cls-4" d="M2.9,475c0-1.1.9-1.9,1.9-1.9h0c1.1,0,1.9.8,1.9,1.9h0c0,1-.8,1.9-1.9,1.9h0c-1,0-1.9-.9-1.9-1.9Z"/>
        <path class="cls-4" d="M1.9,440.2c0-1.6,1.3-2.8,2.8-2.8h0c1.6,0,2.8,1.3,2.8,2.8h0c0,1.6-1.3,2.8-2.8,2.8h0c-1.6,0-2.8-1.3-2.8-2.8Z"/>
        <path class="cls-4" d="M2.9,405.5c0-1.1.8-1.9,1.9-1.9h0c1.1,0,1.9.8,1.9,1.9h0c0,1-.8,1.9-1.9,1.9h0c-1,0-1.9-.9-1.9-1.9Z"/>
        <path class="cls-4" d="M2.9,370.8c0-1,.8-1.9,1.9-1.9h0c1.1,0,1.9.9,1.9,1.9h0c0,1.1-.8,1.9-1.9,1.9h0c-1,0-1.9-.8-1.9-1.9Z"/>
        <path class="cls-4" d="M263.9,475c0-1.1.8-1.9,1.9-1.9h0c1.1,0,1.9.8,1.9,1.9h0c0,1-.8,1.9-1.9,1.9h0c-1,0-1.9-.9-1.9-1.9Z"/>
        <path class="cls-4" d="M263.9,440.2c0-1,.8-1.9,1.9-1.9h0c1.1,0,1.9.8,1.9,1.9h0c0,1.1-.8,1.9-1.9,1.9h0c-1,0-1.9-.8-1.9-1.9Z"/>
        <path class="cls-4" d="M263.9,405.5c0-1.1.8-1.9,1.9-1.9h0c1.1,0,1.9.8,1.9,1.9h0c0,1-.8,1.9-1.9,1.9h0c-1,0-1.9-.9-1.9-1.9Z"/>
        <path class="cls-4" d="M263.9,370.8c0-1,.8-1.9,1.9-1.9h0c1.1,0,1.9.9,1.9,1.9h0c0,1.1-.8,1.9-1.9,1.9h0c-1,0-1.9-.8-1.9-1.9Z"/>
        <path class="cls-4" d="M229.9,475c0-1.8,1.5-3.3,3.3-3.3h0c1.8,0,3.3,1.5,3.3,3.3h0c0,1.8-1.5,3.3-3.3,3.3h0c-1.8,0-3.3-1.5-3.3-3.3Z"/>
        <path class="cls-4" d="M229.9,440.2c0-1.8,1.5-3.3,3.3-3.3h0c1.8,0,3.3,1.5,3.3,3.3h0c0,1.8-1.5,3.3-3.3,3.3h0c-1.8,0-3.3-1.5-3.3-3.3Z"/>
        <path class="cls-4" d="M231.3,405.5c0-1.1.9-1.9,1.9-1.9h0c1,0,1.9.8,1.9,1.9h0c0,1-.8,1.9-1.9,1.9h0c-1.1,0-1.9-.9-1.9-1.9Z"/>
        <path class="cls-4" d="M231.3,370.8c0-1,.9-1.9,1.9-1.9h0c1,0,1.9.9,1.9,1.9h0c0,1.1-.8,1.9-1.9,1.9h0c-1.1,0-1.9-.8-1.9-1.9Z"/>
      </g>
      <g>
        <path class="cls-4" d="M657,521.9c0-1.1.9-1.9,1.9-1.9h0c1.1,0,1.9.8,1.9,1.9h0c0,1-.8,1.9-1.9,1.9h0c-1,0-1.9-.9-1.9-1.9Z"/>
        <path class="cls-4" d="M655.1,487.1c0-2.1,1.7-3.8,3.8-3.8h0c2.1,0,3.8,1.7,3.8,3.8h0c0,2.1-1.7,3.8-3.8,3.8h0c-2.1,0-3.8-1.7-3.8-3.8Z"/>
        <path class="cls-4" d="M657,452.4c0-1.1.9-1.9,1.9-1.9h0c1.1,0,1.9.8,1.9,1.9h0c0,1-.8,1.9-1.9,1.9h0c-1,0-1.9-.9-1.9-1.9Z"/>
        <path class="cls-4" d="M624.4,556.6c0-1,.8-1.9,1.9-1.9h0c1,0,1.9.8,1.9,1.9h0c0,1.1-.8,1.9-1.9,1.9h0c-1.1,0-1.9-.8-1.9-1.9Z"/>
        <path class="cls-4" d="M624.4,521.9c0-1.1.8-1.9,1.9-1.9h0c1,0,1.9.8,1.9,1.9h0c0,1-.8,1.9-1.9,1.9h0c-1.1,0-1.9-.9-1.9-1.9Z"/>
        <path class="cls-4" d="M624.4,487.1c0-1,.8-1.9,1.9-1.9h0c1,0,1.9.9,1.9,1.9h0c0,1.1-.8,1.9-1.9,1.9h0c-1.1,0-1.9-.8-1.9-1.9Z"/>
        <path class="cls-4" d="M624.4,452.4c0-1.1.8-1.9,1.9-1.9h0c1,0,1.9.8,1.9,1.9h0c0,1-.8,1.9-1.9,1.9h0c-1.1,0-1.9-.9-1.9-1.9Z"/>
        <path class="cls-4" d="M586.1,556.6c0-4.2,3.4-7.6,7.6-7.6h0c4.2,0,7.6,3.4,7.6,7.6h0c0,4.2-3.4,7.6-7.6,7.6h0c-4.2,0-7.6-3.4-7.6-7.6Z"/>
        <path class="cls-4" d="M587,521.9c0-3.7,3-6.6,6.6-6.6h0c3.7,0,6.6,3,6.6,6.6h0c0,3.7-3,6.6-6.6,6.6h0c-3.7,0-6.6-3-6.6-6.6Z"/>
        <path class="cls-4" d="M591.8,487.1c0-1,.9-1.9,1.9-1.9h0c1.1,0,1.9.9,1.9,1.9h0c0,1.1-.8,1.9-1.9,1.9h0c-1,0-1.9-.8-1.9-1.9Z"/>
        <path class="cls-4" d="M591.8,452.4c0-1.1.9-1.9,1.9-1.9h0c1.1,0,1.9.8,1.9,1.9h0c0,1-.8,1.9-1.9,1.9h0c-1,0-1.9-.9-1.9-1.9Z"/>
        <path class="cls-4" d="M559.1,591.3c0-1.1.9-1.9,1.9-1.9h0c1,0,1.9.8,1.9,1.9h0c0,1-.8,1.9-1.9,1.9h0c-1.1,0-1.9-.9-1.9-1.9Z"/>
        <path class="cls-4" d="M555.8,556.6c0-2.9,2.3-5.2,5.2-5.2h0c2.9,0,5.2,2.3,5.2,5.2h0c0,2.9-2.3,5.2-5.2,5.2h0c-2.9,0-5.2-2.3-5.2-5.2Z"/>
        <path class="cls-4" d="M559.1,521.9c0-1.1.9-1.9,1.9-1.9h0c1.1,0,1.9.8,1.9,1.9h0c0,1-.8,1.9-1.9,1.9h0c-1,0-1.9-.9-1.9-1.9Z"/>
        <path class="cls-4" d="M559.1,487.1c0-1,.9-1.9,1.9-1.9h0c1.1,0,1.9.9,1.9,1.9h0c0,1.1-.8,1.9-1.9,1.9h0c-1,0-1.9-.8-1.9-1.9Z"/>
        <path class="cls-4" d="M558.3,452.4c0-1.6,1.3-2.8,2.8-2.8h0c1.6,0,2.8,1.3,2.8,2.8h0c0,1.6-1.3,2.8-2.8,2.8h0c-1.6,0-2.8-1.3-2.8-2.8Z"/>
        <path class="cls-4" d="M559.1,417.7c0-1,.9-1.9,1.9-1.9h0c1.1,0,1.9.9,1.9,1.9h0c0,1.1-.8,1.9-1.9,1.9h0c-1,0-1.9-.8-1.9-1.9Z"/>
        <path class="cls-4" d="M526.5,556.6c0-1,.8-1.9,1.9-1.9h0c1,0,1.9.9,1.9,1.9h0c0,1.1-.8,1.9-1.9,1.9h0c-1.1,0-1.9-.8-1.9-1.9Z"/>
        <path class="cls-4" d="M526.5,521.9c0-1.1.8-1.9,1.9-1.9h0c1,0,1.9.8,1.9,1.9h0c0,1-.8,1.9-1.9,1.9h0c-1.1,0-1.9-.9-1.9-1.9Z"/>
        <path class="cls-4" d="M524.6,487.1c0-2.1,1.7-3.8,3.8-3.8h0c2.1,0,3.8,1.7,3.8,3.8h0c0,2.1-1.7,3.8-3.8,3.8h0c-2.1,0-3.8-1.7-3.8-3.8Z"/>
        <path class="cls-4" d="M526.5,452.4c0-1.1.8-1.9,1.9-1.9h0c1,0,1.9.8,1.9,1.9h0c0,1-.8,1.9-1.9,1.9h0c-1.1,0-1.9-.9-1.9-1.9Z"/>
        <path class="cls-4" d="M526.5,417.7c0-1,.8-1.9,1.9-1.9h0c1,0,1.9.9,1.9,1.9h0c0,1.1-.8,1.9-1.9,1.9h0c-1.1,0-1.9-.8-1.9-1.9Z"/>
        <path class="cls-4" d="M493.9,591.3c0-1.1.9-1.9,1.9-1.9h0c1.1,0,1.9.8,1.9,1.9h0c0,1-.8,1.9-1.9,1.9h0c-1,0-1.9-.9-1.9-1.9Z"/>
        <path class="cls-4" d="M493.9,556.6c0-1,.9-1.9,1.9-1.9h0c1,0,1.9.9,1.9,1.9h0c0,1.1-.8,1.9-1.9,1.9h0c-1.1,0-1.9-.8-1.9-1.9Z"/>
        <path class="cls-4" d="M493.9,521.9c0-1.1.9-1.9,1.9-1.9h0c1.1,0,1.9.8,1.9,1.9h0c0,1-.8,1.9-1.9,1.9h0c-1,0-1.9-.9-1.9-1.9Z"/>
        <path class="cls-4" d="M493.9,487.1c0-1,.9-1.9,1.9-1.9h0c1,0,1.9.9,1.9,1.9h0c0,1.1-.8,1.9-1.9,1.9h0c-1.1,0-1.9-.9-1.9-1.9Z"/>
        <path class="cls-4" d="M493.9,452.4c0-1.1.9-1.9,1.9-1.9h0c1,0,1.9.8,1.9,1.9h0c0,1-.8,1.9-1.9,1.9h0c-1.1,0-1.9-.9-1.9-1.9Z"/>
        <path class="cls-4" d="M493.9,417.7c0-1,.9-1.9,1.9-1.9h0c1,0,1.9.9,1.9,1.9h0c0,1.1-.8,1.9-1.9,1.9h0c-1.1,0-1.9-.8-1.9-1.9Z"/>
        <path class="cls-4" d="M461.2,591.3c0-1.1.9-1.9,1.9-1.9h0c1,0,1.9.8,1.9,1.9h0c0,1-.8,1.9-1.9,1.9h0c-1.1,0-1.9-.9-1.9-1.9Z"/>
        <path class="cls-4" d="M458.4,556.6c0-2.6,2.1-4.7,4.7-4.7h0c2.6,0,4.7,2.1,4.7,4.7h0c0,2.6-2.1,4.7-4.7,4.7h0c-2.6,0-4.7-2.1-4.7-4.7Z"/>
        <path class="cls-4" d="M461.2,521.9c0-1.1.9-1.9,1.9-1.9h0c1.1,0,1.9.8,1.9,1.9h0c0,1-.8,1.9-1.9,1.9h0c-1,0-1.9-.9-1.9-1.9Z"/>
        <path class="cls-4" d="M460.3,487.1c0-1.6,1.3-2.8,2.8-2.8h0c1.6,0,2.8,1.3,2.8,2.8h0c0,1.6-1.3,2.8-2.8,2.8h0c-1.6,0-2.8-1.3-2.8-2.8Z"/>
        <path class="cls-4" d="M461.3,452.4c0-1.1.8-1.9,1.9-1.9h0c1.1,0,1.9.8,1.9,1.9h0c0,1-.8,1.9-1.9,1.9h0c-1,0-1.9-.9-1.9-1.9Z"/>
        <path class="cls-4" d="M461.3,417.7c0-1,.8-1.9,1.9-1.9h0c1.1,0,1.9.9,1.9,1.9h0c0,1.1-.8,1.9-1.9,1.9h0c-1,0-1.9-.8-1.9-1.9Z"/>
        <path class="cls-4" d="M428.6,556.6c0-1,.9-1.9,1.9-1.9h0c1.1,0,1.9.9,1.9,1.9h0c0,1.1-.9,1.9-1.9,1.9h0c-1,0-1.9-.8-1.9-1.9Z"/>
        <path class="cls-4" d="M428.6,521.9c0-1.1.9-1.9,1.9-1.9h0c1.1,0,1.9.8,1.9,1.9h0c0,1-.8,1.9-1.9,1.9h0c-1,0-1.9-.9-1.9-1.9Z"/>
        <path class="cls-4" d="M427.2,487.1c0-1.8,1.5-3.3,3.3-3.3h0c1.8,0,3.3,1.5,3.3,3.3h0c0,1.8-1.5,3.3-3.3,3.3h0c-1.8,0-3.3-1.5-3.3-3.3Z"/>
        <path class="cls-4" d="M428.6,452.4c0-1.1.9-1.9,1.9-1.9h0c1,0,1.9.8,1.9,1.9h0c0,1-.8,1.9-1.9,1.9h0c-1.1,0-1.9-.9-1.9-1.9Z"/>
        <path class="cls-4" d="M396,591.3c0-1.1.8-1.9,1.9-1.9h0c1.1,0,1.9.8,1.9,1.9h0c0,1-.9,1.9-1.9,1.9h0c-1,0-1.9-.9-1.9-1.9Z"/>
        <path class="cls-4" d="M396,556.6c0-1,.9-1.9,1.9-1.9h0c1.1,0,1.9.9,1.9,1.9h0c0,1.1-.9,1.9-1.9,1.9h0c-1,0-1.9-.8-1.9-1.9Z"/>
        <path class="cls-4" d="M396,521.9c0-1.1.8-1.9,1.9-1.9h0c1,0,1.9.8,1.9,1.9h0c0,1-.9,1.9-1.9,1.9h0c-1.1,0-1.9-.9-1.9-1.9Z"/>
        <path class="cls-4" d="M363.4,556.6c0-1,.8-1.9,1.9-1.9h0c1.1,0,1.9.9,1.9,1.9h0c0,1.1-.8,1.9-1.9,1.9h0c-1,0-1.9-.8-1.9-1.9Z"/>
        <path class="cls-4" d="M722.3,521.9c0-1.1.8-1.9,1.9-1.9h0c1.1,0,1.9.8,1.9,1.9h0c0,1-.8,1.9-1.9,1.9h0c-1,0-1.9-.9-1.9-1.9Z"/>
        <path class="cls-4" d="M722.3,487.1c0-1,.8-1.9,1.9-1.9h0c1.1,0,1.9.8,1.9,1.9h0c0,1.1-.8,1.9-1.9,1.9h0c-1,0-1.9-.8-1.9-1.9Z"/>
        <path class="cls-4" d="M722.3,452.4c0-1.1.8-1.9,1.9-1.9h0c1.1,0,1.9.8,1.9,1.9h0c0,1-.8,1.9-1.9,1.9h0c-1,0-1.9-.9-1.9-1.9Z"/>
        <path class="cls-4" d="M722.3,417.7c0-1,.8-1.9,1.9-1.9h0c1.1,0,1.9.9,1.9,1.9h0c0,1.1-.8,1.9-1.9,1.9h0c-1,0-1.9-.8-1.9-1.9Z"/>
        <path class="cls-4" d="M688.3,521.9c0-1.8,1.5-3.3,3.3-3.3h0c1.8,0,3.3,1.5,3.3,3.3h0c0,1.8-1.5,3.3-3.3,3.3h0c-1.8,0-3.3-1.5-3.3-3.3Z"/>
        <path class="cls-4" d="M688.3,487.1c0-1.8,1.5-3.3,3.3-3.3h0c1.8,0,3.3,1.5,3.3,3.3h0c0,1.8-1.5,3.3-3.3,3.3h0c-1.8,0-3.3-1.5-3.3-3.3Z"/>
        <path class="cls-4" d="M689.8,452.4c0-1.1.9-1.9,1.9-1.9h0c1,0,1.9.8,1.9,1.9h0c0,1-.8,1.9-1.9,1.9h0c-1.1,0-1.9-.9-1.9-1.9Z"/>
        <path class="cls-4" d="M689.8,417.7c0-1,.9-1.9,1.9-1.9h0c1,0,1.9.9,1.9,1.9h0c0,1.1-.8,1.9-1.9,1.9h0c-1.1,0-1.9-.8-1.9-1.9Z"/>
      </g>
    </g>
    <g id="_551_Catalogue_Items_Magazine_Online" data-name="551, Catalogue, Items, Magazine, Online">
      <g>
        <g>
          <path class="cls-3" d="M588.44,210.22v254.68c0,13.96-11.31,25.28-25.28,25.28H180.47c-13.95,0-25.27-11.31-25.27-25.28v-254.68c0-13.96,11.31-25.28,25.27-25.28h382.69c13.96,0,25.28,11.31,25.28,25.28h0Z"/>
          <path class="cls-1" d="M563.16,491.17H180.47c-14.48,0-26.27-11.79-26.27-26.28v-254.68c0-14.49,11.78-26.28,26.27-26.28h382.69c14.49,0,26.27,11.79,26.27,26.28v254.68c0,14.49-11.79,26.28-26.27,26.28ZM180.47,185.94c-13.38,0-24.27,10.89-24.27,24.28v254.68c0,13.39,10.89,24.28,24.27,24.28h382.69c13.38,0,24.27-10.89,24.27-24.28v-254.68c0-13.39-10.89-24.28-24.27-24.28H180.47Z"/>
        </g>
        <g>
          <path class="cls-2" d="M558.9,214.48v187.08H184.75v-187.08h374.15Z"/>
          <path class="cls-1" d="M559.9,402.56H183.75v-189.08h376.15v189.08ZM185.75,400.56h372.15v-185.08H185.75v185.08Z"/>
        </g>
        <g>
          <path class="cls-5" d="M410.96,293.25c-21.62,0-39.14,17.53-39.14,39.14v-152.37c0-22.39,18.15-40.54,40.53-40.54h87.47v153.77h-88.86Z"/>
          <path class="cls-1" d="M372.82,332.39h-2v-152.37c0-22.9,18.63-41.54,41.53-41.54h88.47v155.77h-89.86c-21.03,0-38.14,17.11-38.14,38.14ZM412.35,140.48c-21.8,0-39.53,17.74-39.53,39.54v139.85c5.27-16.02,20.38-27.62,38.14-27.62h87.86v-151.77h-86.47Z"/>
        </g>
        <g>
          <g>
            <path class="cls-7" d="M568.75,130.79c8.15,0,14.77,6.62,14.77,14.77s-6.62,14.77-14.77,14.77-14.77-6.62-14.77-14.77,6.61-14.77,14.77-14.77Z"/>
            <path class="cls-1" d="M568.75,161.33c-8.69,0-15.77-7.07-15.77-15.77s7.07-15.77,15.77-15.77,15.77,7.07,15.77,15.77-7.07,15.77-15.77,15.77ZM568.75,131.79c-7.59,0-13.77,6.18-13.77,13.77s6.18,13.77,13.77,13.77,13.77-6.18,13.77-13.77-6.18-13.77-13.77-13.77Z"/>
          </g>
          <g>
            <path class="cls-6" d="M169.98,125.87c10.87,0,19.69,8.81,19.69,19.69s-8.82,19.69-19.69,19.69-19.69-8.81-19.69-19.69,8.81-19.69,19.69-19.69Z"/>
            <path class="cls-1" d="M169.98,166.25c-11.41,0-20.69-9.28-20.69-20.69s9.28-20.69,20.69-20.69,20.69,9.28,20.69,20.69-9.28,20.69-20.69,20.69ZM169.98,126.87c-10.31,0-18.69,8.39-18.69,18.69s8.39,18.69,18.69,18.69,18.69-8.38,18.69-18.69-8.39-18.69-18.69-18.69Z"/>
          </g>
          <g>
            <circle class="cls-4" cx="219.21" cy="549.25" r="29.54"/>
            <path class="cls-1" d="M219.21,579.79c-16.84,0-30.54-13.7-30.54-30.54s13.7-30.54,30.54-30.54,30.54,13.7,30.54,30.54-13.7,30.54-30.54,30.54ZM219.21,520.71c-15.74,0-28.54,12.8-28.54,28.54s12.8,28.54,28.54,28.54,28.54-12.8,28.54-28.54-12.8-28.54-28.54-28.54Z"/>
          </g>
        </g>
        <g>
          <path class="cls-5" d="M184.75,401.56h374.15v29.54H184.75v-29.54Z"/>
          <path class="cls-1" d="M559.9,432.1H183.75v-31.54h376.15v31.54ZM185.75,430.1h372.15v-27.54H185.75v27.54Z"/>
        </g>
        <g>
          <path class="cls-5" d="M371.82,332.39c0-21.61,17.52-39.14,39.14-39.14h88.86v39.38h-128v-.25Z"/>
          <path class="cls-1" d="M500.82,333.63h-130v-1.25c0-22.13,18.01-40.14,40.14-40.14h89.86v41.38ZM372.83,331.63h125.99v-37.38h-87.86c-20.78,0-37.73,16.7-38.13,37.38Z"/>
        </g>
        <g>
          <path class="cls-5" d="M371.82,332.39v.25h-128v-39.38h88.86c21.61,0,39.14,17.53,39.14,39.14Z"/>
          <path class="cls-1" d="M372.82,333.63h-130v-41.38h89.86c22.13,0,40.14,18.01,40.14,40.14v1.25ZM244.82,331.63h125.99c-.4-20.68-17.35-37.38-38.13-37.38h-87.86v37.38Z"/>
        </g>
        <g>
          <path class="cls-6" d="M460.44,224.33h-49.23l24.62-24.62,24.62,24.62Z"/>
          <path class="cls-1" d="M462.85,225.33h-54.06l27.03-27.03,27.03,27.03ZM413.62,223.33h44.4l-22.2-22.2-22.2,22.2Z"/>
        </g>
        <g>
          <path class="cls-6" d="M460.44,175.1l-24.62,24.62-24.62-24.62h49.23Z"/>
          <path class="cls-1" d="M435.82,201.13l-27.03-27.03h54.06l-27.03,27.03ZM413.62,176.1l22.2,22.2,22.2-22.2h-44.4Z"/>
        </g>
        <g>
          <path class="cls-6" d="M460.44,175.1v49.23l-24.62-24.62,24.62-24.62Z"/>
          <path class="cls-1" d="M461.44,226.74l-27.03-27.03,27.03-27.03v54.06ZM437.24,199.71l22.2,22.2v-44.4l-22.2,22.2Z"/>
        </g>
        <g>
          <path class="cls-6" d="M435.82,199.71l-24.62,24.62v-49.23l24.62,24.62Z"/>
          <path class="cls-1" d="M410.21,226.74v-54.06l27.03,27.03-27.03,27.03ZM412.21,177.51v44.4l22.2-22.2-22.2-22.2Z"/>
        </g>
        <g>
          <path class="cls-5" d="M371.82,180.02v152.37c0-21.61-17.53-39.14-39.14-39.14h-88.86v-153.77h87.46c22.39,0,40.54,18.15,40.54,40.54Z"/>
          <path class="cls-1" d="M372.82,332.39h-2c0-21.03-17.11-38.14-38.14-38.14h-89.86v-155.77h88.46c22.9,0,41.54,18.63,41.54,41.54v152.37ZM244.82,292.25h87.86c17.76,0,32.87,11.6,38.14,27.62v-139.85c0-21.8-17.74-39.54-39.54-39.54h-86.46v151.77Z"/>
        </g>
        <g>
          <path class="cls-3" d="M448.13,554.17c6.79,0,12.31,5.51,12.31,12.31,0,3.4-1.38,6.48-3.6,8.7-2.24,2.23-5.31,3.6-8.7,3.6h-152.62c-6.8,0-12.31-5.51-12.31-12.31,0-3.4,1.38-6.48,3.6-8.7s5.31-3.6,8.7-3.6h152.62Z"/>
          <path class="cls-1" d="M448.13,579.79h-152.62c-7.34,0-13.31-5.97-13.31-13.31,0-3.55,1.38-6.9,3.9-9.41,2.51-2.51,5.85-3.9,9.41-3.9h152.62c7.34,0,13.31,5.97,13.31,13.31,0,3.56-1.38,6.9-3.9,9.41-2.52,2.51-5.87,3.9-9.41,3.9ZM295.52,555.17c-3.02,0-5.86,1.18-8,3.31-2.13,2.14-3.31,4.98-3.31,8,0,6.24,5.07,11.31,11.31,11.31h152.62c3.01,0,5.85-1.18,8-3.31,2.13-2.13,3.31-4.97,3.31-8,0-6.24-5.07-11.31-11.31-11.31h-152.62Z"/>
        </g>
        <g>
          <path class="cls-3" d="M445.67,490.17v5.42c0,10.6-8.6,19.2-19.2,19.2h-109.29c-10.6,0-19.2-8.6-19.2-19.2v-5.42h147.69Z"/>
          <path class="cls-1" d="M426.47,515.79h-109.29c-11.14,0-20.2-9.06-20.2-20.2v-6.42h149.69v6.42c0,11.14-9.06,20.2-20.2,20.2ZM298.98,491.17v4.42c0,10.04,8.17,18.2,18.2,18.2h109.29c10.04,0,18.2-8.17,18.2-18.2v-4.42h-145.69Z"/>
        </g>
        <g>
          <circle class="cls-7" cx="561.36" cy="522.17" r="7.38"/>
          <path class="cls-1" d="M561.36,530.56c-4.62,0-8.38-3.76-8.38-8.38s3.76-8.38,8.38-8.38,8.38,3.76,8.38,8.38-3.76,8.38-8.38,8.38ZM561.36,515.79c-3.52,0-6.38,2.86-6.38,6.38s2.86,6.38,6.38,6.38,6.38-2.86,6.38-6.38-2.86-6.38-6.38-6.38Z"/>
        </g>
        <g>
          <circle class="cls-6" cx="526.9" cy="133.25" r="7.38"/>
          <path class="cls-1" d="M526.9,141.63c-4.62,0-8.38-3.76-8.38-8.38s3.76-8.38,8.38-8.38,8.38,3.76,8.38,8.38-3.76,8.38-8.38,8.38ZM526.9,126.87c-3.52,0-6.38,2.86-6.38,6.38s2.86,6.38,6.38,6.38,6.38-2.86,6.38-6.38-2.86-6.38-6.38-6.38Z"/>
        </g>
        <g>
          <path class="cls-1" d="M378.78,453.67c1.78,1.78,2.88,4.24,2.88,6.96s-1.1,5.18-2.88,6.96-4.24,2.88-6.96,2.88c-5.44,0-9.85-4.41-9.85-9.85,0-2.72,1.1-5.18,2.88-6.96,1.77-1.78,4.23-2.88,6.96-2.88s5.18,1.1,6.96,2.88Z"/>
          <path class="cls-1" d="M371.82,471.48c-5.98,0-10.85-4.87-10.85-10.85,0-2.9,1.13-5.62,3.18-7.67,2.04-2.05,4.76-3.18,7.67-3.18s5.62,1.13,7.67,3.18h0c2.05,2.05,3.18,4.77,3.18,7.67s-1.13,5.62-3.18,7.67c-2.05,2.05-4.77,3.18-7.67,3.18ZM371.82,451.79c-2.37,0-4.59.92-6.25,2.59-1.67,1.67-2.59,3.89-2.59,6.26,0,4.88,3.97,8.85,8.85,8.85,2.36,0,4.58-.92,6.25-2.59,1.67-1.67,2.59-3.89,2.59-6.25s-.92-4.58-2.59-6.25c-1.67-1.67-3.89-2.59-6.25-2.59Z"/>
        </g>
        <g>
          <circle class="cls-6" cx="270.9" cy="512.33" r="7.38"/>
          <path class="cls-1" d="M270.9,520.71c-4.62,0-8.38-3.76-8.38-8.38s3.76-8.38,8.38-8.38,8.38,3.76,8.38,8.38-3.76,8.38-8.38,8.38ZM270.9,505.94c-3.52,0-6.38,2.86-6.38,6.38s2.86,6.38,6.38,6.38,6.38-2.86,6.38-6.38-2.86-6.38-6.38-6.38Z"/>
        </g>
        <g>
          <circle class="cls-7" cx="216.75" cy="157.87" r="7.38"/>
          <path class="cls-1" d="M216.75,166.25c-4.62,0-8.38-3.76-8.38-8.38s3.76-8.38,8.38-8.38,8.38,3.76,8.38,8.38-3.76,8.38-8.38,8.38ZM216.75,151.48c-3.52,0-6.38,2.86-6.38,6.38s2.86,6.38,6.38,6.38,6.38-2.86,6.38-6.38-2.86-6.38-6.38-6.38Z"/>
        </g>
        <g>
          <path class="cls-1" d="M297.98,495.1h-117.5c-16.65,0-30.19-13.55-30.19-30.2v-254.68c0-16.65,13.54-30.2,30.19-30.2h63.35c2.72,0,4.92,2.2,4.92,4.92s-2.2,4.92-4.92,4.92h-63.35c-11.22,0-20.34,9.13-20.34,20.35v254.68c0,11.22,9.13,20.35,20.34,20.35h117.5c2.72,0,4.92,2.2,4.92,4.92s-2.2,4.92-4.92,4.92Z"/>
          <path class="cls-1" d="M297.98,496.1h-117.5c-17.2,0-31.19-14-31.19-31.2v-254.68c0-17.2,13.99-31.2,31.19-31.2h63.35c3.27,0,5.92,2.66,5.92,5.92s-2.66,5.92-5.92,5.92h-63.35c-10.67,0-19.34,8.68-19.34,19.35v254.68c0,10.67,8.68,19.35,19.34,19.35h117.5c3.27,0,5.92,2.66,5.92,5.92s-2.66,5.92-5.92,5.92ZM180.47,181.02c-16.09,0-29.19,13.1-29.19,29.2v254.68c0,16.1,13.09,29.2,29.19,29.2h117.5c2.16,0,3.92-1.76,3.92-3.92s-1.76-3.92-3.92-3.92h-117.5c-11.77,0-21.34-9.58-21.34-21.35v-254.68c0-11.77,9.57-21.35,21.34-21.35h63.35c2.16,0,3.92-1.76,3.92-3.92s-1.76-3.92-3.92-3.92h-63.35Z"/>
        </g>
        <g>
          <path class="cls-1" d="M563.16,495.1h-117.49c-2.72,0-4.92-2.2-4.92-4.92s2.2-4.92,4.92-4.92h117.49c11.22,0,20.35-9.13,20.35-20.35v-254.68c0-11.22-9.13-20.35-20.35-20.35h-63.34c-2.72,0-4.92-2.2-4.92-4.92s2.2-4.92,4.92-4.92h63.34c16.65,0,30.2,13.55,30.2,30.2v254.68c0,16.65-13.55,30.2-30.2,30.2h0Z"/>
          <path class="cls-1" d="M563.16,496.1h-117.49c-3.27,0-5.92-2.66-5.92-5.92s2.66-5.92,5.92-5.92h117.49c10.67,0,19.35-8.68,19.35-19.35v-254.68c0-10.67-8.68-19.35-19.35-19.35h-63.34c-3.27,0-5.92-2.66-5.92-5.92s2.66-5.92,5.92-5.92h63.34c17.2,0,31.2,14,31.2,31.2v254.68c0,17.2-14,31.2-31.2,31.2ZM445.67,486.25c-2.16,0-3.92,1.76-3.92,3.92s1.76,3.92,3.92,3.92h117.49c16.1,0,29.2-13.1,29.2-29.2v-254.68c0-16.1-13.1-29.2-29.2-29.2h-63.34c-2.16,0-3.92,1.76-3.92,3.92s1.76,3.92,3.92,3.92h63.34c11.77,0,21.35,9.58,21.35,21.35v254.68c0,11.77-9.58,21.35-21.35,21.35h-117.49Z"/>
        </g>
        <g>
          <path class="cls-1" d="M558.9,436.02H184.75c-2.72,0-4.92-2.2-4.92-4.92v-216.62c0-2.72,2.2-4.92,4.92-4.92h59.08c2.72,0,4.92,2.2,4.92,4.92s-2.2,4.92-4.92,4.92h-54.15v206.77h364.31v-206.77h-54.15c-2.72,0-4.92-2.2-4.92-4.92s2.2-4.92,4.92-4.92h59.08c2.72,0,4.92,2.2,4.92,4.92v216.62c0,2.72-2.2,4.92-4.92,4.92Z"/>
          <path class="cls-1" d="M558.9,437.02H184.75c-3.27,0-5.92-2.66-5.92-5.92v-216.62c0-3.27,2.66-5.92,5.92-5.92h59.08c3.27,0,5.92,2.66,5.92,5.92s-2.66,5.92-5.92,5.92h-53.15v204.77h362.31v-204.77h-53.15c-3.27,0-5.92-2.66-5.92-5.92s2.66-5.92,5.92-5.92h59.08c3.27,0,5.92,2.66,5.92,5.92v216.62c0,3.27-2.66,5.92-5.92,5.92ZM184.75,210.56c-2.16,0-3.92,1.76-3.92,3.92v216.62c0,2.16,1.76,3.92,3.92,3.92h374.15c2.16,0,3.92-1.76,3.92-3.92v-216.62c0-2.16-1.76-3.92-3.92-3.92h-59.08c-2.16,0-3.92,1.76-3.92,3.92s1.76,3.92,3.92,3.92h55.15v208.77H188.67v-208.77h55.15c2.16,0,3.92-1.76,3.92-3.92s-1.76-3.92-3.92-3.92h-59.08Z"/>
        </g>
        <g>
          <path class="cls-1" d="M426.47,519.71h-20.18c-2.72,0-4.92-2.2-4.92-4.92s2.2-4.92,4.92-4.92h20.18c7.87,0,14.28-6.4,14.28-14.28v-.49h-137.85v.49c0,7.87,6.4,14.28,14.28,14.28h20.18c2.72,0,4.92,2.2,4.92,4.92s-2.2,4.92-4.92,4.92h-20.18c-13.3,0-24.12-10.82-24.12-24.12v-5.42c0-2.72,2.2-4.92,4.92-4.92h147.69c2.72,0,4.92,2.2,4.92,4.92v5.42c0,13.3-10.82,24.12-24.12,24.12Z"/>
          <path class="cls-1" d="M426.47,520.71h-20.18c-3.27,0-5.92-2.66-5.92-5.92s2.66-5.92,5.92-5.92h20.18c7.15,0,13-5.68,13.27-12.77h-135.83c.27,7.09,6.12,12.77,13.27,12.77h20.18c3.27,0,5.92,2.66,5.92,5.92s-2.66,5.92-5.92,5.92h-20.18c-13.85,0-25.12-11.27-25.12-25.12v-5.42c0-3.27,2.66-5.92,5.92-5.92h147.69c3.27,0,5.92,2.66,5.92,5.92v5.42c0,13.85-11.27,25.12-25.12,25.12ZM406.29,510.87c-2.16,0-3.92,1.76-3.92,3.92s1.76,3.92,3.92,3.92h20.18c12.75,0,23.12-10.37,23.12-23.12v-5.42c0-2.16-1.76-3.92-3.92-3.92h-147.69c-2.16,0-3.92,1.76-3.92,3.92v5.42c0,12.75,10.37,23.12,23.12,23.12h20.18c2.16,0,3.92-1.76,3.92-3.92s-1.76-3.92-3.92-3.92h-20.18c-8.42,0-15.28-6.85-15.28-15.28v-1.49h139.85v1.49c0,8.42-6.85,15.28-15.28,15.28h-20.18Z"/>
        </g>
        <g>
          <path class="cls-1" d="M406.29,559.1c-2.72,0-4.92-2.2-4.92-4.92v-34.46h-59.08v34.46c0,2.72-2.2,4.92-4.92,4.92s-4.92-2.2-4.92-4.92v-39.38c0-2.72,2.2-4.92,4.92-4.92h68.92c2.72,0,4.92,2.2,4.92,4.92v39.38c0,2.72-2.2,4.92-4.92,4.92Z"/>
          <path class="cls-1" d="M406.29,560.1c-3.27,0-5.92-2.66-5.92-5.92v-33.46h-57.08v33.46c0,3.27-2.66,5.92-5.92,5.92s-5.92-2.66-5.92-5.92v-39.38c0-3.27,2.66-5.92,5.92-5.92h68.92c3.27,0,5.92,2.66,5.92,5.92v39.38c0,3.27-2.66,5.92-5.92,5.92ZM341.29,518.71h61.08v35.46c0,2.16,1.76,3.92,3.92,3.92s3.92-1.76,3.92-3.92v-39.38c0-2.16-1.76-3.92-3.92-3.92h-68.92c-2.16,0-3.92,1.76-3.92,3.92v39.38c0,2.16,1.76,3.92,3.92,3.92s3.92-1.76,3.92-3.92v-35.46Z"/>
        </g>
        <g>
          <path class="cls-1" d="M448.13,583.71h-152.62c-9.5,0-17.23-7.73-17.23-17.23,0-4.6,1.79-8.93,5.05-12.18,3.25-3.26,7.58-5.05,12.18-5.05h152.62c9.5,0,17.23,7.73,17.23,17.23,0,4.6-1.79,8.93-5.05,12.18-3.27,3.26-7.6,5.05-12.19,5.05ZM295.52,559.1c-1.97,0-3.83.77-5.22,2.16-1.39,1.39-2.16,3.25-2.16,5.22,0,4.07,3.31,7.38,7.38,7.38h152.62c1.97,0,3.83-.77,5.23-2.17,1.39-1.39,2.15-3.24,2.15-5.21,0-4.07-3.31-7.38-7.38-7.38h-152.62Z"/>
          <path class="cls-1" d="M448.13,584.71h-152.62c-10.05,0-18.23-8.18-18.23-18.23,0-4.87,1.9-9.45,5.34-12.89,3.44-3.44,8.02-5.34,12.89-5.34h152.62c10.05,0,18.23,8.18,18.23,18.23,0,4.87-1.9,9.45-5.34,12.89-3.46,3.44-8.04,5.34-12.89,5.34ZM295.52,550.25c-4.34,0-8.41,1.69-11.48,4.75-3.07,3.07-4.75,7.14-4.75,11.48,0,8.95,7.28,16.23,16.23,16.23h152.62c4.32,0,8.4-1.69,11.48-4.75,3.06-3.06,4.75-7.14,4.75-11.48,0-8.95-7.28-16.23-16.23-16.23h-152.62ZM448.13,574.87h-152.62c-4.62,0-8.38-3.76-8.38-8.38,0-2.24.87-4.35,2.45-5.93,1.58-1.58,3.69-2.46,5.93-2.46h152.62c4.62,0,8.38,3.76,8.38,8.38,0,2.24-.87,4.35-2.45,5.92-1.6,1.59-3.7,2.46-5.94,2.46ZM295.52,560.1c-1.71,0-3.31.66-4.52,1.87-1.21,1.21-1.87,2.81-1.87,4.52,0,3.52,2.86,6.38,6.38,6.38h152.62c1.7,0,3.31-.67,4.53-1.88,1.2-1.2,1.86-2.8,1.86-4.5,0-3.52-2.86-6.38-6.38-6.38h-152.62Z"/>
        </g>
        <g>
          <path class="cls-1" d="M219.21,583.71c-19,0-34.46-15.46-34.46-34.46s15.46-34.46,34.46-34.46,34.46,15.46,34.46,34.46-15.46,34.46-34.46,34.46ZM219.21,524.64c-13.57,0-24.62,11.04-24.62,24.62s11.04,24.62,24.62,24.62,24.62-11.04,24.62-24.62-11.04-24.62-24.62-24.62Z"/>
          <path class="cls-1" d="M219.21,584.71c-19.55,0-35.46-15.91-35.46-35.46s15.91-35.46,35.46-35.46,35.46,15.91,35.46,35.46-15.91,35.46-35.46,35.46ZM219.21,515.79c-18.45,0-33.46,15.01-33.46,33.46s15.01,33.46,33.46,33.46,33.46-15.01,33.46-33.46-15.01-33.46-33.46-33.46ZM219.21,574.87c-14.12,0-25.62-11.49-25.62-25.62s11.49-25.62,25.62-25.62,25.62,11.49,25.62,25.62-11.49,25.62-25.62,25.62ZM219.21,525.63c-13.02,0-23.62,10.59-23.62,23.62s10.59,23.62,23.62,23.62,23.62-10.59,23.62-23.62-10.59-23.62-23.62-23.62Z"/>
        </g>
        <g>
          <path class="cls-1" d="M243.82,298.17c-2.72,0-4.92-2.2-4.92-4.92v-153.77c0-2.72,2.2-4.92,4.92-4.92h87.46c25.07,0,45.46,20.39,45.46,45.46,0,2.72-2.2,4.92-4.92,4.92s-4.92-2.2-4.92-4.92c0-19.64-15.98-35.61-35.61-35.61h-82.54v148.84c0,2.72-2.2,4.92-4.92,4.92Z"/>
          <path class="cls-1" d="M243.82,299.17c-3.27,0-5.92-2.66-5.92-5.92v-153.77c0-3.27,2.66-5.92,5.92-5.92h87.46c25.62,0,46.46,20.84,46.46,46.46,0,3.27-2.66,5.92-5.92,5.92s-5.92-2.66-5.92-5.92c0-19.09-15.53-34.61-34.61-34.61h-81.54v147.84c0,3.27-2.66,5.92-5.92,5.92ZM243.82,135.56c-2.16,0-3.92,1.76-3.92,3.92v153.77c0,2.16,1.76,3.92,3.92,3.92s3.92-1.76,3.92-3.92v-149.84h83.54c20.19,0,36.61,16.42,36.61,36.61,0,2.16,1.76,3.92,3.92,3.92s3.92-1.76,3.92-3.92c0-24.52-19.94-44.46-44.46-44.46h-87.46Z"/>
        </g>
        <g>
          <path class="cls-1" d="M371.82,337.56h-128c-2.72,0-4.92-2.2-4.92-4.92v-39.38c0-2.72,2.2-4.92,4.92-4.92h88.86c24.3,0,44.06,19.77,44.06,44.06,0,.04,0,.08,0,.12,0,.04,0,.08,0,.12,0,2.72-2.2,4.92-4.92,4.92ZM248.75,327.71h117.84c-2.29-16.66-16.62-29.54-33.9-29.54h-83.94v29.54Z"/>
          <path class="cls-1" d="M371.82,338.56h-128c-3.27,0-5.92-2.66-5.92-5.92v-39.38c0-3.27,2.66-5.92,5.92-5.92h88.86c24.85,0,45.06,20.21,45.06,45.06v.17s0,.08,0,.08c0,3.27-2.66,5.92-5.92,5.92ZM243.82,289.33c-2.16,0-3.92,1.76-3.92,3.92v39.38c0,2.16,1.76,3.92,3.92,3.92h128c2.16,0,3.92-1.76,3.92-3.92v-.05s0-.12,0-.12c0-23.82-19.32-43.14-43.06-43.14h-88.86ZM367.73,328.71h-119.98v-31.54h84.94c17.51,0,32.51,13.07,34.89,30.4l.16,1.14ZM249.75,326.71h115.67c-2.73-15.78-16.6-27.54-32.73-27.54h-82.94v27.54Z"/>
        </g>
        <g>
          <path class="cls-1" d="M371.82,337.31c-2.72,0-4.92-2.2-4.92-4.92v-152.37c0-25.07,20.39-45.46,45.45-45.46h87.47c2.72,0,4.92,2.2,4.92,4.92v153.77c0,2.72-2.2,4.92-4.92,4.92s-4.92-2.2-4.92-4.92v-148.84h-82.55c-19.63,0-35.6,15.98-35.6,35.61v152.37c0,2.72-2.2,4.92-4.92,4.92Z"/>
          <path class="cls-1" d="M371.82,338.31c-3.27,0-5.92-2.66-5.92-5.92v-152.37c0-25.62,20.84-46.46,46.45-46.46h87.47c3.27,0,5.92,2.66,5.92,5.92v153.77c0,3.27-2.66,5.92-5.92,5.92s-5.92-2.66-5.92-5.92v-147.84h-81.55c-19.08,0-34.6,15.53-34.6,34.61v152.37c0,3.27-2.66,5.92-5.92,5.92ZM412.35,135.56c-24.51,0-44.45,19.94-44.45,44.46v152.37c0,2.16,1.76,3.92,3.92,3.92s3.92-1.76,3.92-3.92v-152.37c0-20.19,16.42-36.61,36.6-36.61h83.55v149.84c0,2.16,1.76,3.92,3.92,3.92s3.92-1.76,3.92-3.92v-153.77c0-2.16-1.76-3.92-3.92-3.92h-87.47Z"/>
        </g>
        <g>
          <path class="cls-1" d="M499.82,337.56h-128c-2.72,0-4.92-2.2-4.92-4.92v-.25c0-24.3,19.77-44.06,44.06-44.06h88.86c2.72,0,4.92,2.2,4.92,4.92v39.38c0,2.72-2.2,4.92-4.92,4.92ZM377.06,327.71h117.84v-29.54h-83.94c-17.28,0-31.61,12.88-33.9,29.54Z"/>
          <path class="cls-1" d="M499.82,338.56h-128c-3.27,0-5.92-2.66-5.92-5.92v-.25c0-24.85,20.21-45.06,45.06-45.06h88.86c3.27,0,5.92,2.66,5.92,5.92v39.38c0,3.27-2.66,5.92-5.92,5.92ZM410.96,289.33c-23.74,0-43.06,19.32-43.06,43.06v.25c0,2.16,1.76,3.92,3.92,3.92h128c2.16,0,3.92-1.76,3.92-3.92v-39.38c0-2.16-1.76-3.92-3.92-3.92h-88.86ZM495.9,328.71h-119.98l.16-1.14c2.38-17.33,17.38-30.4,34.89-30.4h84.94v31.54ZM378.23,326.71h115.67v-27.54h-82.94c-16.13,0-30,11.76-32.73,27.54Z"/>
        </g>
        <g>
          <path class="cls-1" d="M347.21,273.56h-78.77c-2.72,0-4.92-2.2-4.92-4.92s2.2-4.92,4.92-4.92h78.77c2.72,0,4.92,2.2,4.92,4.92s-2.2,4.92-4.92,4.92Z"/>
          <path class="cls-1" d="M347.21,274.56h-78.77c-3.27,0-5.92-2.66-5.92-5.92s2.66-5.92,5.92-5.92h78.77c3.27,0,5.92,2.66,5.92,5.92s-2.66,5.92-5.92,5.92ZM268.44,264.71c-2.16,0-3.92,1.76-3.92,3.92s1.76,3.92,3.92,3.92h78.77c2.16,0,3.92-1.76,3.92-3.92s-1.76-3.92-3.92-3.92h-78.77Z"/>
        </g>
        <g>
          <path class="cls-1" d="M347.21,253.87h-78.77c-2.72,0-4.92-2.2-4.92-4.92s2.2-4.92,4.92-4.92h78.77c2.72,0,4.92,2.2,4.92,4.92s-2.2,4.92-4.92,4.92Z"/>
          <path class="cls-1" d="M347.21,254.87h-78.77c-3.27,0-5.92-2.66-5.92-5.92s2.66-5.92,5.92-5.92h78.77c3.27,0,5.92,2.66,5.92,5.92s-2.66,5.92-5.92,5.92ZM268.44,245.02c-2.16,0-3.92,1.76-3.92,3.92s1.76,3.92,3.92,3.92h78.77c2.16,0,3.92-1.76,3.92-3.92s-1.76-3.92-3.92-3.92h-78.77Z"/>
        </g>
        <g>
          <path class="cls-1" d="M347.21,234.17h-78.77c-2.72,0-4.92-2.2-4.92-4.92s2.2-4.92,4.92-4.92h78.77c2.72,0,4.92,2.2,4.92,4.92s-2.2,4.92-4.92,4.92Z"/>
          <path class="cls-1" d="M347.21,235.17h-78.77c-3.27,0-5.92-2.66-5.92-5.92s2.66-5.92,5.92-5.92h78.77c3.27,0,5.92,2.66,5.92,5.92s-2.66,5.92-5.92,5.92ZM268.44,225.33c-2.16,0-3.92,1.76-3.92,3.92s1.76,3.92,3.92,3.92h78.77c2.16,0,3.92-1.76,3.92-3.92s-1.76-3.92-3.92-3.92h-78.77Z"/>
        </g>
        <g>
          <path class="cls-1" d="M347.21,214.48h-78.77c-2.72,0-4.92-2.2-4.92-4.92s2.2-4.92,4.92-4.92h78.77c2.72,0,4.92,2.2,4.92,4.92s-2.2,4.92-4.92,4.92Z"/>
          <path class="cls-1" d="M347.21,215.48h-78.77c-3.27,0-5.92-2.66-5.92-5.92s2.66-5.92,5.92-5.92h78.77c3.27,0,5.92,2.66,5.92,5.92s-2.66,5.92-5.92,5.92ZM268.44,205.63c-2.16,0-3.92,1.76-3.92,3.92s1.76,3.92,3.92,3.92h78.77c2.16,0,3.92-1.76,3.92-3.92s-1.76-3.92-3.92-3.92h-78.77Z"/>
        </g>
        <g>
          <path class="cls-1" d="M307.82,194.79h-39.38c-2.72,0-4.92-2.2-4.92-4.92s2.2-4.92,4.92-4.92h39.38c2.72,0,4.92,2.2,4.92,4.92s-2.2,4.92-4.92,4.92Z"/>
          <path class="cls-1" d="M307.82,195.79h-39.38c-3.27,0-5.92-2.66-5.92-5.92s2.66-5.92,5.92-5.92h39.38c3.27,0,5.92,2.66,5.92,5.92s-2.66,5.92-5.92,5.92ZM268.44,185.94c-2.16,0-3.92,1.76-3.92,3.92s1.76,3.92,3.92,3.92h39.38c2.16,0,3.92-1.76,3.92-3.92s-1.76-3.92-3.92-3.92h-39.38Z"/>
        </g>
        <g>
          <path class="cls-1" d="M475.21,273.56h-78.77c-2.72,0-4.92-2.2-4.92-4.92s2.2-4.92,4.92-4.92h78.77c2.72,0,4.92,2.2,4.92,4.92s-2.2,4.92-4.92,4.92Z"/>
          <path class="cls-1" d="M475.21,274.56h-78.77c-3.27,0-5.92-2.66-5.92-5.92s2.66-5.92,5.92-5.92h78.77c3.27,0,5.92,2.66,5.92,5.92s-2.66,5.92-5.92,5.92ZM396.44,264.71c-2.16,0-3.92,1.76-3.92,3.92s1.76,3.92,3.92,3.92h78.77c2.16,0,3.92-1.76,3.92-3.92s-1.76-3.92-3.92-3.92h-78.77Z"/>
        </g>
        <g>
          <path class="cls-1" d="M475.21,253.87h-78.77c-2.72,0-4.92-2.2-4.92-4.92s2.2-4.92,4.92-4.92h78.77c2.72,0,4.92,2.2,4.92,4.92s-2.2,4.92-4.92,4.92Z"/>
          <path class="cls-1" d="M475.21,254.87h-78.77c-3.27,0-5.92-2.66-5.92-5.92s2.66-5.92,5.92-5.92h78.77c3.27,0,5.92,2.66,5.92,5.92s-2.66,5.92-5.92,5.92ZM396.44,245.02c-2.16,0-3.92,1.76-3.92,3.92s1.76,3.92,3.92,3.92h78.77c2.16,0,3.92-1.76,3.92-3.92s-1.76-3.92-3.92-3.92h-78.77Z"/>
        </g>
        <g>
          <path class="cls-1" d="M460.44,229.25h-49.23c-2.72,0-4.92-2.2-4.92-4.92v-49.23c0-2.72,2.2-4.92,4.92-4.92h49.23c2.72,0,4.92,2.2,4.92,4.92v49.23c0,2.72-2.2,4.92-4.92,4.92ZM416.13,219.4h39.38v-39.38h-39.38v39.38Z"/>
          <path class="cls-1" d="M460.44,230.25h-49.23c-3.27,0-5.92-2.66-5.92-5.92v-49.23c0-3.27,2.66-5.92,5.92-5.92h49.23c3.27,0,5.92,2.66,5.92,5.92v49.23c0,3.27-2.66,5.92-5.92,5.92ZM411.21,171.17c-2.16,0-3.92,1.76-3.92,3.92v49.23c0,2.16,1.76,3.92,3.92,3.92h49.23c2.16,0,3.92-1.76,3.92-3.92v-49.23c0-2.16-1.76-3.92-3.92-3.92h-49.23ZM456.52,220.4h-41.38v-41.38h41.38v41.38ZM417.13,218.4h37.38v-37.38h-37.38v37.38Z"/>
        </g>
        <g>
          <path class="cls-1" d="M411.21,229.25c-1.26,0-2.52-.48-3.48-1.44-1.92-1.92-1.92-5.04,0-6.96l49.23-49.23c1.92-1.92,5.04-1.92,6.96,0,1.92,1.92,1.92,5.04,0,6.96l-49.23,49.23c-.96.96-2.22,1.44-3.48,1.44Z"/>
          <path class="cls-1" d="M411.21,230.25c-1.58,0-3.07-.62-4.19-1.73s-1.74-2.61-1.74-4.19.62-3.07,1.74-4.19l49.23-49.23c2.31-2.31,6.07-2.31,8.38,0,1.12,1.12,1.74,2.61,1.74,4.19s-.62,3.07-1.74,4.19l-49.23,49.23c-1.12,1.12-2.61,1.73-4.19,1.73ZM460.44,171.18c-1,0-2.01.38-2.77,1.15l-49.23,49.23c-.74.74-1.15,1.73-1.15,2.77s.41,2.03,1.15,2.77c1.48,1.48,4.07,1.48,5.55,0l49.23-49.23c.74-.74,1.15-1.73,1.15-2.77s-.41-2.03-1.15-2.77c-.76-.76-1.77-1.15-2.77-1.15Z"/>
        </g>
        <g>
          <path class="cls-1" d="M460.44,229.25c-1.26,0-2.52-.48-3.48-1.44l-49.23-49.23c-1.92-1.92-1.92-5.04,0-6.96s5.04-1.92,6.96,0l49.23,49.23c1.92,1.92,1.92,5.04,0,6.96-.96.96-2.22,1.44-3.48,1.44Z"/>
          <path class="cls-1" d="M460.44,230.25c-1.58,0-3.07-.62-4.19-1.73l-49.23-49.23c-1.12-1.12-1.74-2.61-1.74-4.19s.62-3.07,1.74-4.19c2.31-2.31,6.07-2.31,8.38,0l49.23,49.23c1.12,1.12,1.74,2.61,1.74,4.19s-.62,3.07-1.74,4.19-2.61,1.73-4.19,1.73ZM411.21,171.18c-1,0-2.01.38-2.77,1.15-.74.74-1.15,1.73-1.15,2.77s.41,2.03,1.15,2.77l49.23,49.23c1.48,1.48,4.07,1.48,5.55,0,.74-.74,1.15-1.73,1.15-2.77s-.41-2.03-1.15-2.77l-49.23-49.23c-.76-.76-1.77-1.15-2.77-1.15Z"/>
        </g>
        <g>
          <path class="cls-1" d="M558.9,406.48H184.75c-2.72,0-4.92-2.2-4.92-4.92s2.2-4.92,4.92-4.92h374.15c2.72,0,4.92,2.2,4.92,4.92s-2.2,4.92-4.92,4.92Z"/>
          <path class="cls-1" d="M558.9,407.48H184.75c-3.27,0-5.92-2.66-5.92-5.92s2.66-5.92,5.92-5.92h374.15c3.27,0,5.92,2.66,5.92,5.92s-2.66,5.92-5.92,5.92ZM184.75,397.63c-2.16,0-3.92,1.76-3.92,3.92s1.76,3.92,3.92,3.92h374.15c2.16,0,3.92-1.76,3.92-3.92s-1.76-3.92-3.92-3.92H184.75Z"/>
        </g>
        <g>
          <path class="cls-1" d="M568.75,165.25c-10.86,0-19.69-8.83-19.69-19.69s8.83-19.69,19.69-19.69,19.69,8.83,19.69,19.69-8.83,19.69-19.69,19.69ZM568.75,135.71c-5.43,0-9.85,4.42-9.85,9.85s4.42,9.85,9.85,9.85,9.85-4.42,9.85-9.85-4.42-9.85-9.85-9.85Z"/>
          <path class="cls-1" d="M568.75,166.25c-11.41,0-20.69-9.28-20.69-20.69s9.28-20.69,20.69-20.69,20.69,9.28,20.69,20.69-9.28,20.69-20.69,20.69ZM568.75,126.87c-10.31,0-18.69,8.39-18.69,18.69s8.38,18.69,18.69,18.69,18.69-8.38,18.69-18.69-8.39-18.69-18.69-18.69ZM568.75,156.4c-5.98,0-10.85-4.87-10.85-10.85s4.87-10.85,10.85-10.85,10.85,4.87,10.85,10.85-4.87,10.85-10.85,10.85ZM568.75,136.71c-4.88,0-8.85,3.97-8.85,8.85s3.97,8.85,8.85,8.85,8.85-3.97,8.85-8.85-3.97-8.85-8.85-8.85Z"/>
        </g>
        <g>
          <path class="cls-1" d="M169.98,170.17c-13.57,0-24.62-11.04-24.62-24.62s11.04-24.62,24.62-24.62,24.62,11.04,24.62,24.62-11.04,24.62-24.62,24.62ZM169.98,130.79c-8.14,0-14.77,6.63-14.77,14.77s6.63,14.77,14.77,14.77,14.77-6.63,14.77-14.77-6.63-14.77-14.77-14.77Z"/>
          <path class="cls-1" d="M169.98,171.17c-14.12,0-25.62-11.49-25.62-25.62s11.49-25.62,25.62-25.62,25.62,11.49,25.62,25.62-11.49,25.62-25.62,25.62ZM169.98,121.94c-13.02,0-23.62,10.59-23.62,23.62s10.59,23.62,23.62,23.62,23.62-10.59,23.62-23.62-10.59-23.62-23.62-23.62ZM169.98,161.33c-8.7,0-15.77-7.07-15.77-15.77s7.07-15.77,15.77-15.77,15.77,7.07,15.77,15.77-7.07,15.77-15.77,15.77ZM169.98,131.79c-7.59,0-13.77,6.18-13.77,13.77s6.18,13.77,13.77,13.77,13.77-6.18,13.77-13.77-6.18-13.77-13.77-13.77Z"/>
        </g>
      </g>
    </g>
  </g>
</svg>