<?xml version="1.0" encoding="UTF-8"?>
<svg id="Layer_1" xmlns="http://www.w3.org/2000/svg" version="1.1" viewBox="0 0 150 150">
  <!-- Generator: Adobe Illustrator 29.6.1, SVG Export Plug-In . SVG Version: 2.1.1 Build 9)  -->
  <defs>
    <style>
      .st0 {
        fill: none;
      }

      .st1 {
        fill: #e6eaff;
      }

      .st2 {
        fill: #293553;
      }

      .st3 {
        fill: #60b7ff;
      }

      .st4 {
        fill: #98d5bd;
      }

      .st5 {
        fill: #f5f8f9;
      }
    </style>
  </defs>
  <g>
    <path class="st1" d="M103.2,53s27,29.3,26.5,32.1c-.9,5.6-2.6,10.8-5,15.7-4.8,9.6-28.5,8.7-37.7,14.1-8.3,4.9-1.6,16.7-11.9,16.7s-23.2-3.9-32.3-10.4c-5.2-3.8-5.6-12.9-9.3-18.2-3.4-5-10.2-6.1-11.8-12.1-1-3.7-1.7-7.5-1.9-11.5,0-1.1,6-10.5,6-11.6,0,0,7.8-34.3,27.7-42.8,6.6-2.8,13.9-4.4,21.6-4.4s1.4,0,2.2,0c29.6,1.1,26.1,32.1,26.1,32.1Z"/>
    <path class="st3" d="M77.2,20.9c-.7,0-1.4,0-2.2,0-1.9,0-3.7,0-5.5.3,3.5.3,6.9,1,10.2,2l-2.6-2.2Z"/>
    <g>
      <path class="st4" d="M77.4,30.5c2.5,8.3,8.6,16.5,7.3,21.5s-6.8,16.8-3.1,20.3c5.3,5,15.4-3.6,23.2-2.2,9.6,1.7,11.5,11.1,25,15.1.5-2.9.7-5.9.7-8.9,0-29.9-23.7-54.3-53.3-55.4-.8,2.8-.9,6.1.2,9.6Z"/>
      <path class="st4" d="M81.8,89.5c-4.8,2.4-3.7,9.3-9.5,18-4,6-7.4,15.1-7.3,23.4,3.2.6,6.6.9,10,.9,21.8,0,40.6-12.6,49.7-30.8-6.8-3.4-15-2.5-23.6-4.1-11.2-2.1-14.6-9.7-19.3-7.3Z"/>
      <path class="st4" d="M69.6,131.4c1.8.2,3.6.3,5.4.3,21.8,0,40.6-12.6,49.7-30.8-3-1.5-6.3-2.1-9.8-2.6h0"/>
      <g>
        <path class="st4" d="M21.6,91c3.4,12.4,11,23,21.1,30.3-.4-5-1.5-12-4.1-16.7-3.8-6.9-11.1-12.6-17-13.6Z"/>
        <path class="st4" d="M31,66c2.9-13.2,13.3-13.5,20.3-22.7,5.6-7.3,2.6-18.3,2.6-18.3-20.1,8.3-34.3,28.1-34.3,51.2s0,2.2,0,3.3c3.9-2.8,9.4-4.7,11.3-13.5Z"/>
      </g>
    </g>
    <path class="st5" d="M9.1,8.1h44.4c1.3,0,2.3,1,2.3,2.3v19.5c0,1.3-1,2.3-2.3,2.3h-7.5l-2.7,6.2c-.4,1-1.9,1-2.3,0l-2.7-6.2H9.1c-1.3,0-2.3-1-2.3-2.3V10.4c0-1.3,1-2.3,2.3-2.3Z"/>
    <g>
      <path class="st5" d="M140.9,30.6h-44.4c-1.3,0-2.3,1-2.3,2.3v19.5c0,1.3,1,2.3,2.3,2.3h7.5l2.7,6.2c.4,1,1.9,1,2.3,0l2.7-6.2h29.2c1.3,0,2.3-1,2.3-2.3v-19.5c0-1.3-1-2.3-2.3-2.3Z"/>
      <g>
        <line class="st0" x1="108.8" y1="42.7" x2="108.8" y2="42.7"/>
        <line class="st0" x1="118.7" y1="42.7" x2="118.7" y2="42.7"/>
        <line class="st0" x1="128.5" y1="42.7" x2="128.5" y2="42.7"/>
      </g>
    </g>
    <g>
      <path class="st5" d="M55.6,144.5h44.4c1.3,0,2.3-1,2.3-2.3v-19.5c0-1.3-1-2.3-2.3-2.3h-7.5l-2.7-6.2c-.4-1-1.9-1-2.3,0l-2.7,6.2h-29.2c-1.3,0-2.3,1-2.3,2.3v19.5c0,1.3,1,2.3,2.3,2.3Z"/>
      <g>
        <line class="st0" x1="87.6" y1="132.4" x2="87.6" y2="132.4"/>
        <line class="st0" x1="77.7" y1="132.4" x2="77.7" y2="132.4"/>
        <line class="st0" x1="67.9" y1="132.4" x2="67.9" y2="132.4"/>
      </g>
    </g>
  </g>
  <g>
    <g>
      <path class="st2" d="M53.2,129.3c-.3,0-.5,0-.8-.2-21.2-9.1-34.9-29.8-34.9-52.9s7.4-32.8,20.3-43.8c.9-.7,2.2-.6,2.9.2.7.9.6,2.2-.2,2.9-11.9,10.2-18.8,25-18.8,40.7s12.7,40.7,32.4,49.1c1,.4,1.5,1.7,1.1,2.7-.3.8-1.1,1.2-1.9,1.2Z"/>
      <path class="st2" d="M102.3,126.6c-.7,0-1.4-.4-1.8-1-.6-1-.2-2.2.8-2.8,3.2-1.8,6.3-4,9.1-6.5.9-.8,2.2-.7,2.9.2.8.9.7,2.2-.2,2.9-3,2.7-6.3,5-9.8,7-.3.2-.7.3-1,.3Z"/>
      <path class="st2" d="M117.3,114.1c-.5,0-.9-.2-1.3-.5-.9-.7-1-2-.2-2.9,8.1-9.6,12.6-21.8,12.6-34.4s-1.4-14.2-4.2-20.8c-.4-1,0-2.3,1.1-2.7,1-.4,2.3,0,2.7,1.1,3,7.1,4.5,14.6,4.5,22.4,0,13.6-4.8,26.7-13.6,37.1-.4.5-1,.7-1.6.7Z"/>
      <path class="st2" d="M106,32.4c-.4,0-.8-.1-1.2-.4-8.8-6-19.1-9.1-29.8-9.1s-12.5,1.1-18.4,3.3c-1.1.4-2.2-.2-2.6-1.2-.4-1.1.2-2.2,1.2-2.6,6.4-2.3,13-3.5,19.9-3.5,11.5,0,22.6,3.4,32.1,9.8.9.6,1.2,1.9.6,2.9-.4.6-1,.9-1.7.9Z"/>
    </g>
    <g>
      <path class="st2" d="M129.7,87.2c-.2,0-.4,0-.6,0-7.4-2.2-11.5-5.9-15.1-9.2-3.1-2.8-5.6-5.1-9.6-5.8-2.9-.5-6.4.7-9.8,1.8-5.1,1.7-10.5,3.5-14.4-.1-3.9-3.6-1.1-11.8,1.2-18.3.6-1.6,1-3,1.3-4.1.6-2.3-1.3-6.4-3.3-10.7-1.5-3.1-3-6.3-4-9.7-1.1-3.6-1.1-7.3-.2-10.7.3-1.1,1.4-1.7,2.5-1.5,1.1.3,1.7,1.4,1.5,2.5-.7,2.8-.7,5.6.2,8.5.9,3.1,2.4,6.1,3.7,9.1,2.4,5.2,4.6,9.7,3.6,13.5-.3,1.2-.8,2.7-1.4,4.4-1,2.8-2.1,6-2.6,8.9-.7,3.7,0,4.8.3,5.1,2,1.8,5.2.9,10.2-.8,3.9-1.3,8-2.7,11.9-2,5.2.9,8.4,3.8,11.7,6.8,3.4,3.1,7,6.4,13.5,8.3,1.1.3,1.7,1.5,1.4,2.6-.3.9-1.1,1.5-2,1.5Z"/>
      <path class="st2" d="M66.5,122.4c-.2,0-.4,0-.5,0-1.1-.3-1.7-1.4-1.4-2.5,1.3-4.9,3.5-9.6,6.1-13.5,2.5-3.8,3.6-7.1,4.6-10.1,1.2-3.7,2.3-6.9,5.6-8.6,3.4-1.7,6.3.2,9.4,2.2,2.7,1.8,6.1,4,11.2,5,3,.6,5.9.8,8.8,1.1,5.5.5,10.6.9,15.3,3.2,1,.5,1.4,1.7.9,2.8-.5,1-1.7,1.4-2.8.9-4-2-8.8-2.4-13.8-2.8-3-.3-6.1-.5-9.2-1.1-5.9-1.1-9.9-3.7-12.7-5.6-2.9-1.9-4.1-2.5-5.3-1.9-1.8.9-2.4,2.7-3.6,6.2-1,3.1-2.3,6.9-5.1,11.1-2.3,3.5-4.3,7.9-5.5,12.3-.3.9-1.1,1.5-2,1.5Z"/>
      <g>
        <path class="st2" d="M42.7,123.4c-1.1,0-2-.8-2-1.9-.4-4.8-1.4-11.5-3.8-15.9-3.4-6.2-10.2-11.7-15.6-12.5-1.1-.2-1.9-1.2-1.7-2.4.2-1.1,1.2-1.9,2.4-1.7,6.7,1.1,14.5,7.2,18.5,14.6,2.7,5,3.9,12.3,4.3,17.5.1,1.1-.7,2.1-1.9,2.2,0,0-.1,0-.2,0Z"/>
        <path class="st2" d="M19.7,81.6c-.6,0-1.3-.3-1.7-.8-.7-.9-.5-2.2.4-2.9.7-.5,1.5-1.1,2.3-1.5,3.4-2.1,6.8-4.3,8.2-10.7,1.9-8.9,7.2-12.5,12.2-16.1,2.9-2.1,6-4.2,8.4-7.4,2-2.6,3-6,3-10.2,0-1.1.9-2.1,2.1-2.1h0c1.1,0,2.1.9,2.1,2.1,0,5.1-1.3,9.3-3.8,12.6-2.9,3.8-6.2,6.1-9.4,8.3-4.8,3.3-8.9,6.2-10.5,13.6-1.8,8.1-6.3,11-10,13.3-.8.5-1.5.9-2.1,1.4-.4.3-.8.4-1.2.4Z"/>
      </g>
    </g>
    <g>
      <path class="st2" d="M42.2,41.2c-1.3,0-2.5-.8-3.1-2l-2.1-4.9H9.1c-2.4,0-4.4-2-4.4-4.4V10.4c0-2.4,2-4.4,4.4-4.4h3.8c1.1,0,2.1.9,2.1,2.1s-.9,2.1-2.1,2.1h-3.8c-.2,0-.3.1-.3.3v19.5c0,.2.1.3.3.3h29.2c.8,0,1.6.5,1.9,1.2l1.9,4.5,1.9-4.5c.3-.8,1.1-1.2,1.9-1.2h7.5c.2,0,.3-.1.3-.3V10.4c0-.2-.1-.3-.3-.3H21.2c-1.1,0-2.1-.9-2.1-2.1s.9-2.1,2.1-2.1h32.3c2.4,0,4.4,2,4.4,4.4v19.5c0,2.4-2,4.4-4.4,4.4h-6.2l-2.1,4.9c-.5,1.2-1.7,2-3.1,2h0Z"/>
      <g>
        <path class="st2" d="M41.2,22.2c-.1,0-.3,0-.4,0-.1,0-.3,0-.4-.1-.1,0-.2-.1-.4-.2-.1,0-.2-.2-.3-.3-.4-.4-.6-.9-.6-1.5s.2-1.1.6-1.5c0,0,.2-.2.3-.3.1,0,.2-.1.4-.2.1,0,.3,0,.4-.1.7-.1,1.4,0,1.9.6,0,0,.2.2.3.3,0,.1.1.2.2.4,0,.1,0,.3.1.4,0,.1,0,.3,0,.4,0,.5-.2,1.1-.6,1.5-.4.4-.9.6-1.5.6Z"/>
        <path class="st2" d="M31.3,22.2c-.5,0-1.1-.2-1.5-.6,0,0-.2-.2-.3-.3,0-.1-.1-.2-.2-.4,0-.1,0-.3-.1-.4,0-.1,0-.3,0-.4s0-.3,0-.4c0-.1,0-.3.1-.4,0-.1.1-.2.2-.4,0-.1.2-.2.3-.3.5-.5,1.2-.7,1.9-.6.1,0,.3,0,.4.1.1,0,.2.1.4.2.1,0,.2.2.3.3,0,0,.2.2.3.3,0,.1.1.2.2.4,0,.1,0,.3.1.4s0,.3,0,.4,0,.3,0,.4,0,.3-.1.4-.1.2-.2.4c0,.1-.2.2-.3.3,0,0-.2.2-.3.3-.1,0-.2.1-.4.2-.1,0-.3,0-.4.1-.1,0-.3,0-.4,0Z"/>
        <path class="st2" d="M21.5,22.2c-.1,0-.3,0-.4,0-.1,0-.3,0-.4-.1-.1,0-.2-.1-.4-.2s-.2-.2-.3-.3c0,0-.2-.2-.3-.3,0-.1-.1-.2-.2-.4,0-.1,0-.3-.1-.4s0-.3,0-.4c0-.5.2-1.1.6-1.5s.2-.2.3-.3.2-.1.4-.2c.1,0,.3,0,.4-.1.3,0,.5,0,.8,0,.1,0,.3,0,.4.1.1,0,.2.1.4.2s.2.2.3.3c.4.4.6.9.6,1.5s0,.3,0,.4c0,.1,0,.3-.1.4,0,.1-.1.2-.2.4,0,.1-.2.2-.3.3,0,0-.2.2-.3.3s-.2.1-.4.2c-.1,0-.3,0-.4.1-.1,0-.3,0-.4,0Z"/>
      </g>
    </g>
    <g>
      <path class="st2" d="M107.8,63.7c-1.3,0-2.5-.8-3.1-2l-2.1-4.9h-6.2c-2.4,0-4.4-2-4.4-4.4v-19.5c0-2.4,2-4.4,4.4-4.4h44.4c2.4,0,4.4,2,4.4,4.4v19.5c0,2.4-2,4.4-4.4,4.4h-27.9l-2.1,4.9c-.5,1.2-1.7,2-3.1,2h0ZM96.5,32.6c-.2,0-.3.1-.3.3v19.5c0,.2.1.3.3.3h7.5c.8,0,1.6.5,1.9,1.2l1.9,4.5,1.9-4.5c.3-.8,1.1-1.2,1.9-1.2h29.2c.2,0,.3-.1.3-.3v-19.5c0-.2-.1-.3-.3-.3h-44.4Z"/>
      <g>
        <path class="st2" d="M108.8,44.7c-.1,0-.3,0-.4,0-.1,0-.3,0-.4-.1-.1,0-.2-.1-.4-.2s-.2-.2-.3-.3c0,0-.2-.2-.3-.3,0-.1-.1-.2-.2-.4,0-.1,0-.3-.1-.4,0-.1,0-.3,0-.4s0-.3,0-.4c0-.1,0-.3.1-.4,0-.1.1-.2.2-.4,0-.1.2-.2.3-.3,0,0,.2-.2.3-.3s.2-.1.4-.2c.1,0,.3,0,.4-.1.3,0,.5,0,.8,0,.1,0,.3,0,.4.1.1,0,.2.1.4.2s.2.2.3.3c0,0,.2.2.3.3,0,.1.1.2.2.4,0,.1,0,.3.1.4,0,.1,0,.3,0,.4,0,.5-.2,1.1-.6,1.5,0,0-.2.2-.3.3s-.2.1-.4.2c-.1,0-.3,0-.4.1-.1,0-.3,0-.4,0Z"/>
        <path class="st2" d="M118.7,44.7c-.5,0-1.1-.2-1.5-.6-.4-.4-.6-.9-.6-1.5s.2-1.1.6-1.5c.5-.5,1.2-.7,1.9-.6.1,0,.3,0,.4.1.1,0,.2.1.4.2s.2.2.3.3c.4.4.6.9.6,1.5s-.2,1.1-.6,1.5c0,0-.2.2-.3.3s-.2.1-.4.2c-.1,0-.3,0-.4.1-.1,0-.3,0-.4,0Z"/>
        <path class="st2" d="M128.5,44.7c-.5,0-1.1-.2-1.5-.6,0,0-.2-.2-.3-.3,0-.1-.1-.2-.2-.4,0-.1,0-.3-.1-.4,0-.1,0-.3,0-.4s0-.3,0-.4c0-.1,0-.3.1-.4,0-.1.1-.2.2-.4,0-.1.2-.2.3-.3,0,0,.2-.2.3-.3s.2-.1.4-.2c.1,0,.3,0,.4-.1.7-.1,1.4,0,1.9.6.4.4.6.9.6,1.5s0,.3,0,.4c0,.1,0,.3-.1.4,0,.1-.1.2-.2.4,0,.1-.2.2-.3.3,0,0-.2.2-.3.3-.1,0-.2.1-.4.2s-.3,0-.4.1c-.1,0-.3,0-.4,0Z"/>
      </g>
    </g>
    <g>
      <path class="st2" d="M99.9,146.5h-44.4c-2.4,0-4.4-2-4.4-4.4v-19.5c0-2.4,2-4.4,4.4-4.4h27.9l2.1-4.9c.5-1.2,1.7-2,3.1-2h0c1.3,0,2.5.8,3.1,2l2.1,4.9h6.2c2.4,0,4.4,2,4.4,4.4v19.5c0,2.4-2,4.4-4.4,4.4ZM55.6,122.4c-.2,0-.3.1-.3.3v19.5c0,.2.1.3.3.3h44.4c.2,0,.3-.1.3-.3v-19.5c0-.2-.1-.3-.3-.3h-7.5c-.8,0-1.6-.5-1.9-1.2l-1.9-4.5-1.9,4.5c-.3.8-1.1,1.2-1.9,1.2h-29.2Z"/>
      <g>
        <path class="st2" d="M87.6,134.5c-.1,0-.3,0-.4,0-.1,0-.3,0-.4-.1-.1,0-.2-.1-.4-.2-.1,0-.2-.2-.3-.3,0,0-.2-.2-.3-.3,0-.1-.1-.2-.2-.4,0-.1,0-.3-.1-.4,0-.1,0-.3,0-.4,0-.5.2-1.1.6-1.5,0,0,.2-.2.3-.3.1,0,.2-.1.4-.2.1,0,.3,0,.4-.1.3,0,.5,0,.8,0,.1,0,.3,0,.4.1.1,0,.2.1.4.2.1,0,.2.2.3.3.4.4.6.9.6,1.5s0,.3,0,.4c0,.1,0,.3-.1.4,0,.1-.1.2-.2.4,0,.1-.2.2-.3.3-.4.4-.9.6-1.5.6Z"/>
        <path class="st2" d="M77.7,134.5c-.5,0-1.1-.2-1.5-.6,0,0-.2-.2-.3-.3,0-.1-.1-.2-.2-.4,0-.1,0-.3-.1-.4,0-.1,0-.3,0-.4,0-.5.2-1.1.6-1.5,0,0,.2-.2.3-.3.1,0,.2-.1.4-.2.1,0,.3,0,.4-.1.3,0,.5,0,.8,0,.1,0,.3,0,.4.1.1,0,.2.1.4.2.1,0,.2.2.3.3.4.4.6.9.6,1.5s0,.3,0,.4c0,.1,0,.3-.1.4,0,.1-.1.2-.2.4,0,.1-.2.2-.3.3,0,0-.2.2-.3.3-.1,0-.2.1-.4.2-.1,0-.3,0-.4.1-.1,0-.3,0-.4,0Z"/>
        <path class="st2" d="M67.9,134.5c-.5,0-1.1-.2-1.5-.6,0,0-.2-.2-.3-.3,0-.1-.1-.2-.2-.4,0-.1,0-.3-.1-.4,0-.1,0-.3,0-.4,0-.5.2-1.1.6-1.5,0,0,.2-.2.3-.3.1,0,.2-.1.4-.2.1,0,.3,0,.4-.1.3,0,.5,0,.8,0,.1,0,.3,0,.4.1.1,0,.2.1.4.2s.2.2.3.3c.4.4.6.9.6,1.5s0,.3,0,.4c0,.1,0,.3-.1.4,0,.1-.1.2-.2.4,0,.1-.2.2-.3.3s-.2.2-.3.3c-.1,0-.2.1-.4.2-.1,0-.3,0-.4.1-.1,0-.3,0-.4,0Z"/>
      </g>
    </g>
  </g>
</svg>