<?xml version="1.0" encoding="UTF-8"?>
<svg id="Capa_1" xmlns="http://www.w3.org/2000/svg" version="1.1" viewBox="0 0 512 512">
  <!-- Generator: Adobe Illustrator 29.6.1, SVG Export Plug-In . SVG Version: 2.1.1 Build 9)  -->
  <defs>
    <style>
      .st0 {
        fill: #aa599a;
      }

      .st1 {
        fill: #6494ba;
      }
    </style>
  </defs>
  <g>
    <path class="st1" d="M425.3,25.4h0c-2.6-3.6-7.6-4.4-11.2-1.8-3.5,2.6-4.3,7.5-1.8,11.1,47.6,66.6,47.6,156.1,0,222.7-2.6,3.6-1.8,8.6,1.8,11.2h0c3.6,2.6,8.6,1.7,11.2-1.9,51.6-72.2,51.6-169.1,0-241.3Z"/>
    <path class="st1" d="M97.8,23.5h0c-3.6-2.6-8.6-1.7-11.2,1.9-51.6,72.2-51.6,169.2,0,241.3,2.6,3.6,7.6,4.4,11.2,1.8,3.5-2.6,4.3-7.5,1.8-11.1-47.6-66.6-47.6-156.1,0-222.7,2.7-3.7,1.8-8.7-1.8-11.2Z"/>
    <path class="st1" d="M148.7,62.7c2.7-3.5,2.1-8.5-1.4-11.2h0c-3.5-2.7-8.5-2.1-11.2,1.4-42.7,54.7-42.7,131.5,0,186.3,2.7,3.5,7.7,4.1,11.2,1.4,3.5-2.7,4.1-7.7,1.4-11.2-38.2-49-38.2-117.7,0-166.7Z"/>
    <path class="st1" d="M364.7,51.5h0c-3.5,2.7-4.1,7.7-1.4,11.2,38.2,49,38.2,117.7,0,166.6-2.7,3.5-2.1,8.5,1.4,11.2s8.5,2.1,11.2-1.4c42.7-54.7,42.7-131.5,0-186.3-2.7-3.4-7.7-4.1-11.2-1.3Z"/>
    <path class="st1" d="M314.2,91.3c29,30.7,29,78.7,0,109.5-3,3.2-2.9,8.3.3,11.3h0c3.2,3,8.3,2.9,11.3-.3h0c34.8-36.9,34.8-94.5,0-131.4-3-3.2-8.1-3.4-11.3-.4-3.2,2.9-3.3,7.9-.3,11.3,0-.1,0,0,0,0Z"/>
    <path class="st1" d="M191.9,214.2c4.4,0,8-3.6,8-8s-.8-4-2.2-5.5c-29-30.7-29-78.7,0-109.5,3.1-3.2,2.9-8.3-.3-11.3s-8.3-2.9-11.3.3h-.1c-34.8,37-34.8,94.6,0,131.5,1.6,1.6,3.7,2.5,5.9,2.5Z"/>
  </g>
  <path class="st0" d="M359.8,480l-77.9-303.8c16.9-14.3,18.9-39.5,4.6-56.4s-39.5-18.9-56.4-4.6-18.9,39.5-4.6,56.4c1.4,1.7,3,3.2,4.6,4.6l-77.9,303.8c-1.1,4.3,1.5,8.6,5.8,9.7h0c.6.2,1.3.2,2,.2,3.6,0,6.8-2.5,7.7-6l2.7-10.4c.4-.1.9-.3,1.3-.5l149.5-78.7,23,89.6c.9,3.5,4.1,6,7.8,6s1.3-.1,2-.2c4.3-1,6.9-5.4,5.8-9.7h0ZM282.6,243.7l-43.5-38.1,5.5-21.5c3.7,1.2,7.5,1.8,11.4,1.8,3.9-.1,7.7-.7,11.4-1.8l15.2,59.6ZM256,122c13.3,0,24,10.7,24,24s-10.7,24-24,24-24-10.7-24-24,10.7-24,24-24ZM234.7,223l48.2,42.2-71.2,47.4,23-89.6ZM175.7,452.9l28.7-112,97.6,45.5-126.3,66.5ZM216.3,328.8l75.3-50.2,24.9,96.9-100.2-46.7Z"/>
  <path class="st1" d="M-381.1,98.1c-15.8,4.6-28.5,10-34,14.4-1.7,1.3-3.6,1.9-5.6,1.9s-5.3-1.2-7.1-3.4c-3.1-3.9-2.4-9.6,1.5-12.6,10.1-8,29.4-14.4,40.1-17.6,4.8-1.4,9.8,1.3,11.2,6.1,1.4,4.8-1.3,9.8-6.1,11.2Z"/>
</svg>