<?xml version="1.0" encoding="UTF-8"?>
<svg id="Capa_1" xmlns="http://www.w3.org/2000/svg" version="1.1" viewBox="0 0 512 512">
  <!-- Generator: Adobe Illustrator 29.6.1, SVG Export Plug-In . SVG Version: 2.1.1 Build 9)  -->
  <defs>
    <style>
      .st0 {
        fill: #aa599a;
      }

      .st1 {
        fill: #6494ba;
      }
    </style>
  </defs>
  <path class="st0" d="M310.9,134.1h.9c4.6,0,8.5-3.5,9-8.2.5-4.9-3.2-9.3-8.1-9.8-16.3-1.5-29.8-4.4-36.1-7.6-4.4-2.3-9.8-.6-12.1,3.8-2.3,4.4-.6,9.8,3.8,12.1,11.3,6.1,31.6,8.7,42.6,9.7ZM373.2,134.2h.9c13.5-1.3,31.9-4,42.7-9.6,4.4-2.3,6.1-7.7,3.8-12.1-2.3-4.4-7.7-6.1-12.1-3.8-6.3,3.2-19.8,6.1-36.1,7.6-4.9.5-8.6,4.9-8.1,9.8.3,4.6,4.3,8.1,8.9,8.1ZM433.6,54c-24.4-5.2-56.8-8-91.1-8s-66.7,2.9-91.1,8c-30.1,6.4-44.1,15.2-44.1,27.8v55.2c0,5,4,9,9,9s9-4,9-9v-54.4c1.9-2.1,10.9-7.5,35.3-12.1,22.5-4.2,51.6-6.6,81.9-6.6s59.4,2.3,81.9,6.6c24.4,4.6,33.4,10,35.3,12.1v125.4c0,50.5-41.1,95.3-102.3,111.3-4.8,1.3-7.7,6.2-6.4,11,1.1,4,4.7,6.7,8.7,6.7s1.5-.1,2.3-.3c33-8.7,61.5-25.2,82.5-47.9,21.7-23.5,33.2-51.5,33.2-80.8v-126.3c0-12.5-14-21.3-44.1-27.7ZM384.6,263.3c.4,0,.7,0,1.1-.1,8.5-1.1,16.4-2.4,23.4-4,4.1-.9,7-4.6,7-8.8v-.5c0-23.6-8.2-43.7-23.8-58.1-15.9-14.7-38.3-22.2-61.4-20.4-5,.4-8.7,4.7-8.3,9.7.4,5,4.7,8.7,9.7,8.3,18.1-1.4,35.6,4.3,47.8,15.6,10.3,9.5,16.3,22.6,17.7,38-3.2.6-6.7,1.1-10.2,1.6-14.3-12.8-29.5-19.9-45.1-21.2-5-.4-9.3,3.3-9.7,8.3-.4,5,3.3,9.3,8.3,9.7,12.5,1,25,7.5,37.2,19.2,1.7,1.8,4,2.7,6.3,2.7Z"/>
  <path class="st1" d="M146.4,260.4c-15.8,4.6-28.5,10-34,14.4-1.7,1.3-3.6,1.9-5.6,1.9s-5.3-1.2-7.1-3.4c-3.1-3.9-2.4-9.6,1.5-12.6,10.1-8,29.4-14.4,40.1-17.6,4.8-1.4,9.8,1.3,11.2,6.1,1.4,4.8-1.3,9.8-6.1,11.2Z"/>
  <path class="st1" d="M268.3,319.6h0v-.5c-.9-4.1-4.5-7.2-8.7-7.3-7.2-.2-15.2,0-23.7.6-2.7.2-5.2,1.6-6.7,3.8-21.2,30.2-48.8,35.6-79.9,15.5-2.3-1.5-5.1-1.8-7.7-1-8.2,2.7-15.6,5.5-22.2,8.3-3.9,1.7-6,5.8-5.2,9.9v.5c4.7,23.7,17,42.1,35.6,53.2,11.9,7.1,25.6,10.7,39.9,10.7s11-.5,16.6-1.6c20-3.9,37.4-14.4,49-29.6,13.1-17.1,17.6-38.7,13-62.5ZM202.9,394.2c-27,5.2-59.1-5.7-69.3-41.4,3.1-1.2,6.3-2.4,9.7-3.6,14.1,8.4,28.1,12.6,41.3,12.6,21.2,0,40.8-10.7,56.7-31.7,3.6-.2,7-.3,10.3-.4,3.9,37-21.8,59.3-48.7,64.5Z"/>
  <path class="st1" d="M205,249c16.3-1.6,30.1-1.4,36.9.6.8.2,1.7.4,2.5.4,3.9,0,7.5-2.5,8.6-6.5,1.4-4.8-1.3-9.8-6.1-11.2-11.7-3.4-30.3-2.6-43.8-1.2-4.9.5-8.6,4.9-8.1,9.8.6,4.9,5.1,8.5,10,8.1Z"/>
  <path class="st1" d="M324.2,309.7l-24.1-123.9c-2.4-12.3-17.8-18.3-48.6-18.8-25-.4-57.3,3-91,9.5-33.7,6.6-64.9,15.6-87.9,25.3-28.3,12-40.4,23.4-38,35.7l24.1,123.9c11.9,61.3,74.8,104.6,150.7,104.6s4,0,6-.1c1,0,1.9-.2,2.9-.6,73.6-27.2,118.1-92.6,105.9-155.6ZM213.4,448c-69,1.5-126.5-36.2-137-90l-24-123.1c1.4-2.4,9.3-9.5,32.3-18.6,21.3-8.5,49.4-16.3,79.2-22.1,29.7-5.8,58.7-9.1,81.7-9.2,24.9-.1,34.7,3.4,37,5.1l24,123.1c10.4,53.8-28.7,110.3-93.2,134.8Z"/>
</svg>