<?xml version="1.0" encoding="UTF-8"?>
<svg id="Layer_1" xmlns="http://www.w3.org/2000/svg" xmlns:xlink="http://www.w3.org/1999/xlink" version="1.1" viewBox="0 0 200 120">
  <!-- Generator: Adobe Illustrator 29.6.1, SVG Export Plug-In . SVG Version: 2.1.1 Build 9)  -->
  <defs>
    <style>
      .st0 {
        fill: url(#Gradiente_sem_nome_16);
        opacity: .4;
      }

      .st1 {
        fill: #fff;
      }

      .st2 {
        opacity: .2;
      }

      .st3 {
        fill: #6494ba;
      }
    </style>
    <linearGradient id="Gradiente_sem_nome_16" data-name="Gradiente sem nome 16" x1="0" y1="59.8" x2="200" y2="59.8" gradientTransform="translate(159.8 -40.2) rotate(90)" gradientUnits="userSpaceOnUse">
      <stop offset="0" stop-color="#ac599c"/>
      <stop offset=".4" stop-color="#8877ab"/>
      <stop offset=".8" stop-color="#6d8db7"/>
      <stop offset="1" stop-color="#6496bc"/>
    </linearGradient>
  </defs>
  <rect class="st0" x="39.8" y="-40.2" width="120.4" height="200" transform="translate(40.2 159.8) rotate(-90)"/>
  <g id="g1276" class="st2">
    <g id="g1282">
      <g id="path1284">
        <path class="st1" d="M101,87.2c-4.8,1.2-9.7-1.6-10.9-6.4l-3.5-13.6c-.2-.8.3-1.7,1.1-1.9l14.3-3.7c.8-.2,1.7.3,1.9,1.1l3.5,13.6c1.2,4.8-1.6,9.7-6.4,10.9ZM90,68l3.2,12.1c.8,3.1,4,5,7.2,4.2s5-4,4.2-7.2l-3.2-12.1-11.4,3Z"/>
      </g>
    </g>
    <g id="g1286">
      <g id="path1288">
        <path class="st1" d="M101,87.2l-55,14.3c-4.8,1.2-9.7-1.6-10.9-6.4l-6.8-26c-.2-.8.3-1.7,1.1-1.9s1.7.3,1.9,1.1l6.8,26c.8,3.1,4,5,7.2,4.2l55-14.3c.8-.2,1.7.3,1.9,1.1s-.3,1.7-1.1,1.9Z"/>
      </g>
    </g>
    <g id="g1290">
      <g id="path1292">
        <path class="st1" d="M82.2,44.3c-.8.2-1.7-.3-1.9-1.1l-7.1-27.2-52,13.6,6.6,25.4c.2.8-.3,1.7-1.1,1.9s-1.7-.3-1.9-1.1l-7-26.9c-.2-.8.3-1.7,1.1-1.9l55-14.3c.8-.2,1.7.3,1.9,1.1l7.5,28.7c.2.8-.3,1.7-1.1,1.9Z"/>
      </g>
    </g>
    <g id="g1294">
      <g id="path1296">
        <path class="st1" d="M52.2,50.4c-3.8,1-7.7-1.3-8.7-5.1s1.3-7.7,5.1-8.7,2.8-.3,4.1.2c.8.3,1.2,1.2.9,2-.3.8-1.2,1.2-2,.9-.8-.3-1.6-.3-2.3,0-2.1.6-3.4,2.8-2.9,4.9s2.8,3.4,4.9,2.9,1.4-.6,1.8-1.2c0-.1.1-.2.2-.4.4-.8,1.3-1.1,2.1-.7.8.4,1.1,1.3.7,2.1-.1.3-.3.5-.4.8-.8,1.2-2,2.1-3.6,2.5Z"/>
      </g>
    </g>
    <g id="g1298">
      <g id="path1300">
        <path class="st1" d="M53.9,56.9c-7.4,1.9-15-2.5-17-9.9s2.5-15,9.9-17,15,2.5,17,9.9-2.5,15-9.9,17ZM47.7,33c-5.8,1.5-9.2,7.4-7.7,13.2s7.4,9.2,13.2,7.7,9.2-7.4,7.7-13.2-7.4-9.2-13.2-7.7Z"/>
      </g>
    </g>
    <g id="g1302">
      <g id="path1304">
        <path class="st1" d="M79.7,80.8l-33.4,8.7c-.8.2-1.7-.3-1.9-1.1s.3-1.7,1.1-1.9l33.4-8.7c.8-.2,1.7.3,1.9,1.1s-.3,1.7-1.1,1.9Z"/>
      </g>
    </g>
    <g id="g1306">
      <g id="path1308">
        <path class="st1" d="M54.2,77.3l-10.4,2.7c-.8.2-1.7-.3-1.9-1.1s.3-1.7,1.1-1.9l10.4-2.7c.8-.2,1.7.3,1.9,1.1s-.3,1.7-1.1,1.9Z"/>
      </g>
    </g>
    <g id="g1310">
      <g id="path1312">
        <path class="st1" d="M42.8,70.1l-1.5.4c-.8.2-1.7-.3-1.9-1.1s.3-1.7,1.1-1.9l1.5-.4c.8-.2,1.7.3,1.9,1.1s-.3,1.7-1.1,1.9Z"/>
      </g>
    </g>
    <g id="g1314">
      <g id="path1316">
        <path class="st1" d="M71.7,62.5l-20.5,5.3c-.8.2-1.7-.3-1.9-1.1s.3-1.7,1.1-1.9l20.5-5.3c.8-.2,1.7.3,1.9,1.1s-.3,1.7-1.1,1.9Z"/>
      </g>
    </g>
    <g id="g1318">
      <g id="path1320">
        <path class="st1" d="M74.1,77h0c-.4.1-.8,0-1.2-.2l-8-4.7c-.7-.4-1-1.4-.6-2.1l22.1-37.6c.2-.4.5-.6.9-.7s.8,0,1.2.2l8,4.7c.7.4,1,1.4.6,2.1l-22.1,37.6c-.2.4-.5.6-.9.7ZM67.9,70.3l5.3,3.1,20.5-35-5.3-3.1-20.5,35Z"/>
      </g>
    </g>
    <g id="g1322">
      <g id="path1324">
        <path class="st1" d="M64.1,84.9c-.4.1-.8,0-1.2-.2-.5-.3-.8-.9-.7-1.6l2-12.6c0-.5.4-.9.9-1.2.5-.2,1-.2,1.4,0l8,4.7c.4.3.7.7.8,1.2s-.2,1-.6,1.3l-10,7.9c-.2.1-.4.2-.6.3ZM66.9,73.3l-1,6.5,5.1-4.1-4.1-2.4Z"/>
      </g>
    </g>
    <g id="g1326">
      <g id="path1328">
        <path class="st1" d="M88.5,68.3c-.8.2-1.7-.3-1.9-1.1l-2.7-10.4c-.2-.8.3-1.7,1.1-1.9s1.7.3,1.9,1.1l2.7,10.4c.2.8-.3,1.7-1.1,1.9Z"/>
      </g>
    </g>
    <g id="g1330">
      <g id="path1332">
        <path class="st1" d="M28.5,63.6s0,0-.1,0c0,0-.1,0-.2,0-.1,0-.2,0-.3,0,0,0-.2,0-.3,0,0,0,0,0-.1,0,0,0,0,0-.1,0,0,0,0,0-.1,0,0,0,0,0-.1,0,0,0-.1-.1-.2-.2,0,0-.1-.2-.2-.3,0,0,0,0,0-.1,0,0,0,0,0-.1s0,0,0-.1c0,0,0-.1,0-.2,0-.1,0-.2,0-.3,0,0,0-.2,0-.3,0,0,0,0,0-.1,0,0,0,0,0-.1,0,0,0,0,0-.1,0,0,0,0,0-.1,0,0,.1-.1.2-.2,0,0,.2-.1.3-.2,0,0,0,0,.1,0,0,0,.2,0,.3,0,0,0,.1,0,.2,0,.1,0,.2,0,.3,0,.1,0,.2,0,.3,0,0,0,0,0,.1,0,0,0,0,0,.1,0,0,0,0,0,.1,0,0,0,0,0,.1,0,0,0,.1.1.2.2,0,0,.1.2.2.3,0,0,0,0,0,.1,0,0,0,0,0,.1s0,0,0,.1c0,0,0,.1,0,.2,0,.1,0,.2,0,.3,0,.1,0,.2,0,.3,0,0,0,0,0,.1,0,0,0,0,0,.1s0,0,0,.1c0,0,0,0,0,.1,0,0-.1.1-.2.2,0,0-.2.1-.3.2,0,0,0,0-.1,0,0,0,0,0-.1,0Z"/>
      </g>
    </g>
  </g>
  <g id="g12761" data-name="g1276">
    <g id="g12821" data-name="g1282">
      <g id="path12841" data-name="path1284">
        <path class="st3" d="M177.4,105.2c-5.4,0-9.8-4.4-9.8-9.8v-15.4c0-.9.8-1.7,1.7-1.7h16.2c.9,0,1.7.8,1.7,1.7v15.4c0,5.4-4.4,9.8-9.8,9.8ZM170.9,81.7v13.7c0,3.5,2.9,6.4,6.4,6.4s6.4-2.9,6.4-6.4v-13.7h-12.8Z"/>
      </g>
    </g>
    <g id="g12861" data-name="g1286">
      <g id="path12881" data-name="path1288">
        <path class="st3" d="M177.4,105.2h-62.2c-5.4,0-9.8-4.4-9.8-9.8v-29.4c0-.9.8-1.7,1.7-1.7s1.7.8,1.7,1.7v29.4c0,3.5,2.9,6.4,6.4,6.4h62.2c.9,0,1.7.8,1.7,1.7s-.8,1.7-1.7,1.7Z"/>
      </g>
    </g>
    <g id="g12901" data-name="g1290">
      <g id="path12921" data-name="path1292">
        <path class="st3" d="M169.2,54.5c-.9,0-1.7-.8-1.7-1.7v-30.8h-58.8v28.8c0,.9-.8,1.7-1.7,1.7s-1.7-.8-1.7-1.7v-30.5c0-.9.8-1.7,1.7-1.7h62.2c.9,0,1.7.8,1.7,1.7v32.5c0,.9-.8,1.7-1.7,1.7Z"/>
      </g>
    </g>
    <g id="g12941" data-name="g1294">
      <g id="path12961" data-name="path1296">
        <path class="st3" d="M135.8,52.6c-4.3,0-7.8-3.5-7.8-7.8s3.5-7.8,7.8-7.8,3.1.5,4.3,1.3c.8.5,1,1.6.5,2.3-.5.8-1.6,1-2.3.5-.7-.5-1.6-.7-2.5-.7-2.4,0-4.4,2-4.4,4.4s2,4.4,4.4,4.4,1.6-.3,2.2-.8c.1-.1.2-.2.3-.3.6-.7,1.7-.8,2.4-.2.7.6.8,1.7.2,2.4-.2.2-.4.5-.7.7-1.2,1.1-2.7,1.6-4.5,1.6Z"/>
      </g>
    </g>
    <g id="g12981" data-name="g1298">
      <g id="path13001" data-name="path1300">
        <path class="st3" d="M135.8,60.1c-8.4,0-15.2-6.8-15.2-15.2s6.8-15.2,15.2-15.2,15.2,6.8,15.2,15.2-6.8,15.2-15.2,15.2ZM135.8,33c-6.5,0-11.8,5.3-11.8,11.8s5.3,11.8,11.8,11.8,11.8-5.3,11.8-11.8-5.3-11.8-11.8-11.8Z"/>
      </g>
    </g>
    <g id="g13021" data-name="g1302">
      <g id="path13041" data-name="path1304">
        <path class="st3" d="M156.5,92.5h-37.8c-.9,0-1.7-.8-1.7-1.7s.8-1.7,1.7-1.7h37.8c.9,0,1.7.8,1.7,1.7s-.8,1.7-1.7,1.7Z"/>
      </g>
    </g>
    <g id="g13061" data-name="g1306">
      <g id="path13081" data-name="path1308">
        <path class="st3" d="M130.5,81.7h-11.8c-.9,0-1.7-.8-1.7-1.7s.8-1.7,1.7-1.7h11.8c.9,0,1.7.8,1.7,1.7s-.8,1.7-1.7,1.7Z"/>
      </g>
    </g>
    <g id="g13101" data-name="g1310">
      <g id="path13121" data-name="path1312">
        <path class="st3" d="M120.4,70.9h-1.7c-.9,0-1.7-.8-1.7-1.7s.8-1.7,1.7-1.7h1.7c.9,0,1.7.8,1.7,1.7s-.8,1.7-1.7,1.7Z"/>
      </g>
    </g>
    <g id="g13141" data-name="g1314">
      <g id="path13161" data-name="path1316">
        <path class="st3" d="M153.1,70.9h-23.2c-.9,0-1.7-.8-1.7-1.7s.8-1.7,1.7-1.7h23.2c.9,0,1.7.8,1.7,1.7s-.8,1.7-1.7,1.7Z"/>
      </g>
    </g>
    <g id="g13181" data-name="g1318">
      <g id="path13201" data-name="path1320">
        <path class="st3" d="M151.7,86.9h0c-.4,0-.9-.2-1.2-.5l-7.2-7.2c-.7-.7-.7-1.7,0-2.4l33.8-33.8c.3-.3.7-.5,1.2-.5s.9.2,1.2.5l7.2,7.2c.7.7.7,1.7,0,2.4l-33.8,33.8c-.3.3-.7.5-1.2.5ZM146.9,78l4.8,4.8,31.4-31.4-4.8-4.8-31.4,31.4Z"/>
      </g>
    </g>
    <g id="g13221" data-name="g1322">
      <g id="path13241" data-name="path1324">
        <path class="st3" d="M138.9,92.5c-.4,0-.9-.2-1.2-.5-.5-.5-.6-1.2-.4-1.9l5.6-12.8c.2-.5.7-.9,1.2-1,.5-.1,1.1,0,1.5.5l7.2,7.2c.4.4.6,1,.5,1.5s-.5,1-1,1.2l-12.8,5.6c-.2,0-.5.1-.7.1ZM145.1,81l-2.9,6.6,6.6-2.9-3.7-3.7Z"/>
      </g>
    </g>
    <g id="g13261" data-name="g1326">
      <g id="path13281" data-name="path1328">
        <path class="st3" d="M169.2,81.7c-.9,0-1.7-.8-1.7-1.7v-11.8c0-.9.8-1.7,1.7-1.7s1.7.8,1.7,1.7v11.8c0,.9-.8,1.7-1.7,1.7Z"/>
      </g>
    </g>
    <g id="g13301" data-name="g1330">
      <g id="path13321" data-name="path1332">
        <path class="st3" d="M107.1,60.1c0,0-.1,0-.2,0,0,0-.1,0-.2,0-.1,0-.2,0-.3,0-.1,0-.2,0-.3-.2,0,0,0,0-.1,0,0,0,0,0-.1-.1,0,0,0,0-.1-.1,0,0,0,0,0-.1,0,0-.1-.2-.2-.3,0-.1,0-.2,0-.3,0,0,0-.1,0-.2,0,0,0-.1,0-.2s0-.1,0-.2c0,0,0-.1,0-.2,0-.1,0-.2,0-.3,0-.1,0-.2.2-.3,0,0,0,0,0-.1,0,0,0,0,.1-.1,0,0,0,0,.1-.1,0,0,0,0,.1,0,0,0,.2-.1.3-.2.1,0,.2,0,.3,0,0,0,.1,0,.2,0,.1,0,.2,0,.3,0,0,0,.1,0,.2,0,.1,0,.2,0,.3,0,.1,0,.2,0,.3.2,0,0,0,0,.1,0,0,0,0,0,.1.1,0,0,0,0,.1.1,0,0,0,0,0,.1,0,0,.1.2.2.3,0,.1,0,.2,0,.3,0,0,0,.1,0,.2,0,0,0,.1,0,.2s0,.1,0,.2c0,0,0,.1,0,.2,0,.1,0,.2,0,.3,0,.1,0,.2-.2.3,0,0,0,0,0,.1,0,0,0,0-.1.1s0,0-.1.1c0,0,0,0-.1,0,0,0-.2.1-.3.2-.1,0-.2,0-.3,0,0,0-.1,0-.2,0,0,0-.1,0-.2,0Z"/>
      </g>
    </g>
  </g>
</svg>