<?xml version="1.0" encoding="UTF-8"?>
<svg id="Layer_1" xmlns="http://www.w3.org/2000/svg" xmlns:xlink="http://www.w3.org/1999/xlink" version="1.1" viewBox="0 0 200 120">
  <!-- Generator: Adobe Illustrator 29.6.1, SVG Export Plug-In . SVG Version: 2.1.1 Build 9)  -->
  <defs>
    <style>
      .st0 {
        fill: url(#Gradiente_sem_nome_16);
        opacity: .4;
      }

      .st1 {
        fill: #fff;
      }

      .st2 {
        opacity: .2;
      }

      .st3 {
        fill: #6494ba;
      }
    </style>
    <linearGradient id="Gradiente_sem_nome_16" data-name="Gradiente sem nome 16" x1="0" y1="59.8" x2="200" y2="59.8" gradientTransform="translate(159.8 -40.2) rotate(90)" gradientUnits="userSpaceOnUse">
      <stop offset="0" stop-color="#ac599c"/>
      <stop offset=".4" stop-color="#8877ab"/>
      <stop offset=".8" stop-color="#6d8db7"/>
      <stop offset="1" stop-color="#6496bc"/>
    </linearGradient>
  </defs>
  <rect class="st0" x="39.8" y="-40.2" width="120.4" height="200" transform="translate(40.2 159.8) rotate(-90)"/>
  <g id="g1276" class="st2">
    <g id="g1282">
      <g id="path1284">
        <path class="st1" d="M103,92.7c-4.8,1.2-9.7-1.6-10.9-6.4l-3.5-13.6c-.2-.8.3-1.7,1.1-1.9l14.3-3.7c.8-.2,1.7.3,1.9,1.1l3.5,13.6c1.2,4.8-1.6,9.7-6.4,10.9ZM92,73.5l3.2,12.1c.8,3.1,4,5,7.2,4.2s5-4,4.2-7.2l-3.2-12.1s-11.4,3-11.4,3Z"/>
      </g>
    </g>
    <g id="g1286">
      <g id="path1288">
        <path class="st1" d="M103,92.7l-55,14.3c-4.8,1.2-9.7-1.6-10.9-6.4l-6.8-26c-.2-.8.3-1.7,1.1-1.9s1.7.3,1.9,1.1l6.8,26c.8,3.1,4,5,7.2,4.2l55-14.3c.8-.2,1.7.3,1.9,1.1s-.3,1.7-1.1,1.9h-.1Z"/>
      </g>
    </g>
    <g id="g1290">
      <g id="path1292">
        <path class="st1" d="M84.2,49.8c-.8.2-1.7-.3-1.9-1.1l-7.1-27.2-52,13.6,6.6,25.4c.2.8-.3,1.7-1.1,1.9s-1.7-.3-1.9-1.1l-7-26.9c-.2-.8.3-1.7,1.1-1.9l55-14.3c.8-.2,1.7.3,1.9,1.1l7.5,28.7c.2.8-.3,1.7-1.1,1.9h0Z"/>
      </g>
    </g>
    <g id="g1294">
      <g id="path1296">
        <path class="st1" d="M54.2,55.9c-3.8,1-7.7-1.3-8.7-5.1s1.3-7.7,5.1-8.7,2.8-.3,4.1.2c.8.3,1.2,1.2.9,2s-1.2,1.2-2,.9-1.6-.3-2.3,0c-2.1.6-3.4,2.8-2.9,4.9s2.8,3.4,4.9,2.9,1.4-.6,1.8-1.2c0,0,0-.2.2-.4.4-.8,1.3-1.1,2.1-.7.8.4,1.1,1.3.7,2.1,0,.3-.3.5-.4.8-.8,1.2-2,2.1-3.6,2.5v-.2Z"/>
      </g>
    </g>
    <g id="g1298">
      <g id="path1300">
        <path class="st1" d="M55.9,62.4c-7.4,1.9-15-2.5-17-9.9s2.5-15,9.9-17,15,2.5,17,9.9-2.5,15-9.9,17ZM49.7,38.5c-5.8,1.5-9.2,7.4-7.7,13.2s7.4,9.2,13.2,7.7,9.2-7.4,7.7-13.2-7.4-9.2-13.2-7.7Z"/>
      </g>
    </g>
    <g id="g1302">
      <g id="path1304">
        <path class="st1" d="M81.7,86.3l-33.4,8.7c-.8.2-1.7-.3-1.9-1.1s.3-1.7,1.1-1.9l33.4-8.7c.8-.2,1.7.3,1.9,1.1s-.3,1.7-1.1,1.9Z"/>
      </g>
    </g>
    <g id="g1306">
      <g id="path1308">
        <path class="st1" d="M56.2,82.8l-10.4,2.7c-.8.2-1.7-.3-1.9-1.1s.3-1.7,1.1-1.9l10.4-2.7c.8-.2,1.7.3,1.9,1.1s-.3,1.7-1.1,1.9Z"/>
      </g>
    </g>
    <g id="g1310">
      <g id="path1312">
        <path class="st1" d="M44.8,75.6l-1.5.4c-.8.2-1.7-.3-1.9-1.1s.3-1.7,1.1-1.9l1.5-.4c.8-.2,1.7.3,1.9,1.1s-.3,1.7-1.1,1.9Z"/>
      </g>
    </g>
    <g id="g1314">
      <g id="path1316">
        <path class="st1" d="M73.7,68l-20.5,5.3c-.8.2-1.7-.3-1.9-1.1s.3-1.7,1.1-1.9l20.5-5.3c.8-.2,1.7.3,1.9,1.1s-.3,1.7-1.1,1.9Z"/>
      </g>
    </g>
    <g id="g1318">
      <g id="path1320">
        <path class="st1" d="M76.1,82.5h0c-.4,0-.8,0-1.2-.2l-8-4.7c-.7-.4-1-1.4-.6-2.1l22.1-37.6c.2-.4.5-.6.9-.7s.8,0,1.2.2l8,4.7c.7.4,1,1.4.6,2.1l-22.1,37.6c-.2.4-.5.6-.9.7ZM69.9,75.8l5.3,3.1,20.5-35-5.3-3.1-20.5,35Z"/>
      </g>
    </g>
    <g id="g1322">
      <g id="path1324">
        <path class="st1" d="M66.1,90.4c-.4,0-.8,0-1.2-.2-.5-.3-.8-.9-.7-1.6l2-12.6c0-.5.4-.9.9-1.2.5-.2,1-.2,1.4,0l8,4.7c.4.3.7.7.8,1.2s-.2,1-.6,1.3l-10,7.9c-.2,0-.4.2-.6.3v.2ZM68.9,78.8l-1,6.5,5.1-4.1-4.1-2.4Z"/>
      </g>
    </g>
    <g id="g1326">
      <g id="path1328">
        <path class="st1" d="M90.5,73.8c-.8.2-1.7-.3-1.9-1.1l-2.7-10.4c-.2-.8.3-1.7,1.1-1.9s1.7.3,1.9,1.1l2.7,10.4c.2.8-.3,1.7-1.1,1.9Z"/>
      </g>
    </g>
    <g id="g1330">
      <g id="path1332">
        <path class="st1" d="M30.5,69.1h-1.3s-.1,0-.2-.2c0,0-.1-.2-.2-.3h0v-.2h0v-.9h0v-.2h0v-.2s.1,0,.2-.2c0,0,.2,0,.3-.2h1.6s.1,0,.2.2c0,0,.1.2.2.3h0v.2h0v.9h0v.2h0v.2s-.1,0-.2.2c0,0-.2,0-.3.2h-.3Z"/>
      </g>
    </g>
  </g>
  <g id="g2773">
    <g id="g2779">
      <g id="path2781">
        <path class="st3" d="M167.7,55c-1.1,0-2.1-.3-3.1-.9-.7-.5-1-1.4-.5-2.1.5-.7,1.4-1,2.1-.5.5.3.9.4,1.4.4,2,0,3.6-2.3,3.6-5.1s-1.3-4.6-3.1-5c-.8-.2-1.4-1-1.2-1.8.2-.8,1-1.4,1.8-1.2,3.2.7,5.5,4.1,5.5,8.1s-3,8.2-6.7,8.2Z"/>
      </g>
    </g>
    <g id="g2783">
      <g id="path2785">
        <path class="st3" d="M118,55c-3.7,0-6.7-3.7-6.7-8.2s2.9-8.1,6.6-8.2c.9,0,1.6.7,1.6,1.5,0,.9-.7,1.6-1.5,1.6-2,0-3.6,2.3-3.6,5.1s1.7,5.1,3.6,5.1,1.5-.4,2-.8c.6-.6,1.6-.5,2.2.1.6.6.5,1.6-.1,2.2-1.2,1.1-2.6,1.6-4,1.6Z"/>
      </g>
    </g>
    <g id="g2787">
      <g id="path2789">
        <path class="st3" d="M137,76.3c-.9,0-1.6-.7-1.6-1.6v-3.3c0-.9.7-1.6,1.6-1.6s1.6.7,1.6,1.6v3.3c0,.9-.7,1.6-1.6,1.6Z"/>
      </g>
    </g>
    <g id="g2791">
      <g id="path2793">
        <path class="st3" d="M149.5,76.3c-.9,0-1.6-.7-1.6-1.6v-3.3c0-.9.7-1.6,1.6-1.6s1.6.7,1.6,1.6v3.3c0,.9-.7,1.6-1.6,1.6Z"/>
      </g>
    </g>
    <g id="g2795">
      <g id="path2797">
        <path class="st3" d="M125.4,65c-.5,0-.9-.2-1.2-.6-3.1-4.2-4.8-9.2-4.8-14.4v-3.7c0-.9.7-1.6,1.6-1.6s1.6.7,1.6,1.6v3.7c0,4.6,1.4,8.9,4.2,12.5.5.7.4,1.7-.3,2.2-.3.2-.6.3-.9.3Z"/>
      </g>
    </g>
    <g id="g2799">
      <g id="path2801">
        <path class="st3" d="M143.3,73.9h0c-5.1,0-10-1.6-14.1-4.6-.7-.5-.8-1.5-.3-2.2.5-.7,1.5-.8,2.2-.3,3.6,2.6,7.8,4,12.3,4h0c11.5,0,20.8-9.3,20.8-20.8v-3.7c0-.9.7-1.6,1.6-1.6s1.6.7,1.6,1.6v3.7c0,13.2-10.7,23.9-23.9,23.9Z"/>
      </g>
    </g>
    <g id="g2803">
      <g id="path2805">
        <path class="st3" d="M143.3,62.7c-1.2,0-2.4-.2-3.5-.5-.8-.2-1.3-1.1-1.1-1.9s1.1-1.3,1.9-1.1c1.6.4,3.8.4,5.4,0,.8-.2,1.7.3,1.9,1.1.2.8-.3,1.7-1.1,1.9-1.1.3-2.3.5-3.5.5Z"/>
      </g>
    </g>
    <g id="g2807">
      <g id="path2809">
        <path class="st3" d="M119.8,83.9c-.5,0-.9-.2-1.2-.6-.5-.7-.4-1.7.3-2.2,3.6-2.7,7.9-4.1,12.4-4.1h1.4c.9,0,1.6.7,1.6,1.6s-.7,1.6-1.6,1.6h-1.4c-3.8,0-7.5,1.2-10.5,3.5-.3.2-.6.3-.9.3Z"/>
      </g>
    </g>
    <g id="g2811">
      <g id="path2813">
        <path class="st3" d="M112.2,107.4c-.9,0-1.6-.7-1.6-1.6v-5.7c0-.9.7-1.6,1.6-1.6s1.6.7,1.6,1.6v5.7c0,.9-.7,1.6-1.6,1.6Z"/>
      </g>
    </g>
    <g id="g2815">
      <g id="path2817">
        <path class="st3" d="M174.4,107.4c-.9,0-1.6-.7-1.6-1.6v-8.2c0-9.7-7.9-17.5-17.5-17.5h-1.4c-.9,0-1.6-.7-1.6-1.6s.7-1.6,1.6-1.6h1.4c11.4,0,20.6,9.3,20.6,20.6v8.2c0,.9-.7,1.6-1.6,1.6Z"/>
      </g>
    </g>
    <g id="g2819">
      <g id="path2821">
        <path class="st3" d="M138.8,86.9c-.6,0-1.1-.2-1.5-.7l-5.8-6.4c-.4-.4-.5-.9-.5-1.5,0-.5.3-1,.7-1.4l4-3.4c.6-.5,1.6-.6,2.3-.2l6,3.7c.4.2.6.6.7,1s0,.8-.2,1.2l-4.1,6.6c-.3.5-.9.9-1.5.9,0,0-.1,0-.2,0ZM134.7,78.7l3.9,4.4,2.5-4-3.9-2.4-2.5,2.1ZM136.8,74.9h0,0Z"/>
      </g>
    </g>
    <g id="g2823">
      <g id="path2825">
        <path class="st3" d="M147.7,86.9c0,0-.1,0-.2,0-.6,0-1.2-.4-1.5-.9l-4.1-6.6c-.2-.4-.3-.8-.2-1.2s.3-.7.7-1l6-3.7c.7-.4,1.6-.4,2.3.2l4,3.4c.4.3.7.8.7,1.4s-.1,1.1-.5,1.5l-5.8,6.4c-.4.4-.9.7-1.5.7ZM145.4,79l2.5,4,3.9-4.4-2.5-2.1-3.9,2.4ZM152.7,79.4h0,0Z"/>
      </g>
    </g>
    <g id="g2827">
      <g id="path2829">
        <path class="st3" d="M161.5,40.5c-.8,0-1.5-.6-1.5-1.4-.2-2-.4-4.1-.5-5.6v-.5c-.2-1.6-.9-3.9-2.5-4.9-1-.6-2.3-.6-3.8,0-6,2.3-13.8,2.3-19.8,0-1.6-.6-2.8-.6-3.8,0-1.6,1-2.3,3.2-2.4,4.9v.5c-.2,1.5-.3,3.6-.6,5.6,0,.8-.7,1.4-1.5,1.4s-1.6-.7-1.6-1.6h0c0,0,0-.1,0-.2.2-2,.4-4.1.5-5.6v-.5c.2-2.5,1.4-5.7,3.9-7.3,1.3-.8,3.5-1.5,6.6-.3,5.3,2.1,12.3,2.1,17.6,0,3.1-1.2,5.3-.5,6.6.3,2.5,1.6,3.7,4.8,3.9,7.3v.5c.2,1.5.3,3.6.5,5.6,0,0,0,.1,0,.2,0,.9-.7,1.6-1.6,1.6Z"/>
      </g>
    </g>
    <g id="g2831">
      <g id="path2833">
        <path class="st3" d="M164.4,48.1c-.8,0-1.5-.6-1.5-1.4,0-.8.5-1.5,1.3-1.7,0-.6.2-1.2.3-1.9.6-2.4,1.8-3.5,2.9-4,.6-1.8,1.9-6.9.8-12.3-.6-3.2-1.6-5.7-2.9-7.8-.5-.7-.3-1.7.4-2.2.7-.5,1.7-.3,2.2.4,1.6,2.4,2.7,5.3,3.4,9,1.5,7.6-1.1,14.4-1.2,14.7-.2.5-.6.9-1.2,1-1.2.2-1.7,3-1.7,4.4,0,.6-.4,1.2-1,1.4,0,0-.8.3-1.7.4,0,0,0,0-.1,0ZM168.6,40.3h0,0Z"/>
      </g>
    </g>
    <g id="g2835">
      <g id="path2837">
        <path class="st3" d="M122.1,48.1s0,0-.1,0c-.9,0-1.6-.4-1.7-.4-.6-.2-1-.8-1-1.4,0-1.4-.5-4.2-1.7-4.4-.5,0-1-.5-1.2-1h0c0-.1,0-.1,0-.1-.4-1.2-2.5-7.5-1.1-14.5,1.1-5.8,3.3-10,7-13,4.7-3.9,11.5-5.7,21-5.7s14.9,1.5,19.5,4.6c.7.5.9,1.4.4,2.2s-1.4.9-2.2.4c-4-2.7-10-4.1-17.8-4.1-19.2,0-23.4,8.2-24.9,16.2-1.1,5.5.3,10.5.8,12.3,2.4,1.1,3,4.2,3.2,6,.8.1,1.3.9,1.3,1.7,0,.8-.8,1.4-1.5,1.4Z"/>
      </g>
    </g>
    <g id="g2839">
      <g id="path2841">
        <path class="st3" d="M143.3,100.3c-2.7,0-4.9-2.2-4.9-4.9s2.2-4.9,4.9-4.9,4.9,2.2,4.9,4.9-2.2,4.9-4.9,4.9ZM143.3,93.6c-1,0-1.8.8-1.8,1.8s.8,1.8,1.8,1.8,1.8-.8,1.8-1.8-.8-1.8-1.8-1.8Z"/>
      </g>
    </g>
    <g id="g2843">
      <g id="path2845">
        <path class="st3" d="M130.8,55.9c-5.7,0-10.4-4.6-10.4-10.4s4.6-10.4,10.4-10.4,10.4,4.6,10.4,10.4-4.6,10.4-10.4,10.4ZM130.8,38.3c-4,0-7.3,3.3-7.3,7.3s3.3,7.3,7.3,7.3,7.3-3.3,7.3-7.3-3.3-7.3-7.3-7.3Z"/>
      </g>
    </g>
    <g id="g2847">
      <g id="path2849">
        <path class="st3" d="M155.7,55.9c-5.7,0-10.4-4.6-10.4-10.4s4.6-10.4,10.4-10.4,10.4,4.6,10.4,10.4-4.6,10.4-10.4,10.4ZM155.7,38.3c-4,0-7.3,3.3-7.3,7.3s3.3,7.3,7.3,7.3,7.3-3.3,7.3-7.3-3.3-7.3-7.3-7.3Z"/>
      </g>
    </g>
    <g id="g2851">
      <g id="path2853">
        <path class="st3" d="M146.9,47.1h-7.3c-.9,0-1.6-.7-1.6-1.6s.7-1.6,1.6-1.6h7.3c.9,0,1.6.7,1.6,1.6s-.7,1.6-1.6,1.6Z"/>
      </g>
    </g>
    <g id="g2855">
      <g id="path2857">
        <path class="st3" d="M185.3,113.6h-8.9c-.9,0-1.6-.7-1.6-1.6s.7-1.6,1.6-1.6h8.1v-3.1h-82.7v3.1h67.9c.9,0,1.6.7,1.6,1.6s-.7,1.6-1.6,1.6h-68.6c-1.3,0-2.4-1.1-2.4-2.4v-4.6c0-1.3,1.1-2.4,2.4-2.4h84.2c1.3,0,2.4,1.1,2.4,2.4v4.6c0,1.3-1.1,2.4-2.4,2.4Z"/>
      </g>
    </g>
    <g id="g2859">
      <g id="path2861">
        <path class="st3" d="M122.8,103.6c-.2,0-.3,0-.5,0-.4-.1-.7-.4-.9-.8l-4.6-9.1c-.4-.8,0-1.7.7-2.1.8-.4,1.7,0,2.1.7l3.9,7.7,2.8-1.4-14-27.8c-.2-.4-.5-.6-.9-.8-.4-.1-.8,0-1.2,0-.4.2-.6.5-.8.9-.1.4,0,.8,0,1.2l5.4,10.6c.4.8,0,1.7-.7,2.1s-1.7,0-2.1-.7l-5.4-10.6c-.6-1.1-.7-2.4-.3-3.6.4-1.2,1.2-2.1,2.3-2.7,1.1-.6,2.4-.7,3.6-.3,1.2.4,2.1,1.2,2.7,2.3l14.7,29.2c.4.8,0,1.7-.7,2.1l-5.5,2.8c-.2.1-.5.2-.7.2Z"/>
      </g>
    </g>
    <g id="g2863">
      <g id="path2865">
        <path class="st3" d="M127.7,107.4c-.6,0-1.2-.2-1.6-.6l-4.3-3.5c-.4-.3-.6-.8-.6-1.4,0-.5.4-1,.8-1.2l5.5-2.8c.5-.2,1-.2,1.5,0,.5.3.7.7.8,1.3l.3,5.5c0,1-.5,2-1.4,2.4-.4.2-.8.3-1.1.3ZM125.7,102.4l1.4,1.2v-1.8c-.1,0-1.4.7-1.4.7Z"/>
      </g>
    </g>
    <g id="g2867">
      <g id="path2869">
        <path class="st3" d="M114.5,101.7h-9c-1.9,0-3.5-1.6-3.5-3.5v-8.6c0-4.2,3.4-7.7,7.7-7.7h4.8c2.9,0,5.2,2.3,5.2,5.2v9.3c0,2.9-2.3,5.2-5.2,5.2ZM109.7,85.1c-2.5,0-4.6,2-4.6,4.6v8.6c0,.2.2.4.4.4h9c1.2,0,2.1-1,2.1-2.1v-9.3c0-1.2-1-2.1-2.1-2.1h-4.8Z"/>
      </g>
    </g>
  </g>
</svg>