<?xml version="1.0" encoding="UTF-8"?>
<svg id="Layer_1" xmlns="http://www.w3.org/2000/svg" xmlns:xlink="http://www.w3.org/1999/xlink" version="1.1" viewBox="0 0 200 120">
  <!-- Generator: Adobe Illustrator 29.6.1, SVG Export Plug-In . SVG Version: 2.1.1 Build 9)  -->
  <defs>
    <style>
      .st0 {
        fill: url(#Gradiente_sem_nome_16);
        opacity: .4;
      }

      .st1 {
        fill: #fff;
      }

      .st2 {
        opacity: .2;
      }

      .st3 {
        fill: #6494ba;
      }
    </style>
    <linearGradient id="Gradiente_sem_nome_16" data-name="Gradiente sem nome 16" x1="0" y1="59.8" x2="200" y2="59.8" gradientTransform="translate(159.8 -40.2) rotate(90)" gradientUnits="userSpaceOnUse">
      <stop offset="0" stop-color="#ac599c"/>
      <stop offset=".4" stop-color="#8877ab"/>
      <stop offset=".8" stop-color="#6d8db7"/>
      <stop offset="1" stop-color="#6496bc"/>
    </linearGradient>
  </defs>
  <rect class="st0" x="39.8" y="-40.2" width="120.4" height="200" transform="translate(40.2 159.8) rotate(-90)"/>
  <g class="st2">
    <path class="st1" d="M35.5,46.4c-.7,0-1.3-.5-1.4-1.2l-1.3-7.3c0-.4,0-.7.2-1.1.2-.3.5-.5.9-.6l7.6-1.3c.8-.1,1.5.4,1.6,1.1l1.3,7.3c0,.4,0,.7-.2,1.1-.2.3-.5.5-.9.6l-7.6,1.3c0,0-.2,0-.2,0ZM35.8,38.8l.8,4.6,4.8-.8-.8-4.6-4.8.8Z"/>
    <path class="st1" d="M37,50.2l11.1-1.9.5,2.8-11.1,1.9-.5-2.8Z"/>
    <path class="st1" d="M33.4,64.1c-.7,0-1.3-.5-1.4-1.2l-5.9-32.8c0-.4,0-.8.3-1.1.2-.3.6-.5,1-.6l20.8-2.3c.4,0,.8,0,1.1.3.3.3.5.6.5,1v35.1c0,.8-.6,1.4-1.4,1.4s-1.4-.6-1.4-1.4V29.1l-17.8,2,5.6,31.3c.1.8-.4,1.5-1.1,1.6,0,0-.2,0-.2,0Z"/>
    <path class="st1" d="M69.8,47.7h-15.5c-.8,0-1.4-.6-1.4-1.4v-15.4c0-.8.6-1.4,1.4-1.4h15.5c.8,0,1.4.6,1.4,1.4v15.4c0,.8-.6,1.4-1.4,1.4ZM55.7,44.9h12.7v-12.6h-12.7v12.6Z"/>
    <path class="st1" d="M76.5,32.5h10.3v2.8h-10.3v-2.8Z"/>
    <path class="st1" d="M76.5,40h10.3v2.8h-10.3v-2.8Z"/>
    <path class="st1" d="M53.7,52.9h17v2.8h-17v-2.8Z"/>
    <path class="st1" d="M48.3,64.1c-.8,0-1.4-.6-1.4-1.4V25c0-.8.6-1.4,1.4-1.4h42.9c.8,0,1.4.6,1.4,1.4v29.8c0,.8-.6,1.4-1.4,1.4s-1.4-.6-1.4-1.4v-28.3h-40.1v36.3c0,.8-.6,1.4-1.4,1.4Z"/>
    <path class="st1" d="M105,102H34.5c-1.2,0-2.2-.9-2.3-2.2l-2.6-36.2c0-.6.2-1.3.6-1.7.4-.5,1-.7,1.7-.7h37.2l7.1-6.6c.9-.9,2.1-1.3,3.4-1.3h27.9c.6,0,1.2.3,1.7.7.4.5.7,1.1.6,1.7l-2.6,44.2c0,1.2-1.1,2.2-2.3,2.2ZM104.5,99.7h0s0,0,0,0ZM35,99.7h0s0,0,0,0ZM35,99.2h69.5l2.5-43.1h-27.4c-.6,0-1.1.2-1.5.6l-7.9,7.4h-37.8l2.5,35.2Z"/>
    <path class="st1" d="M82,88.2h-25.3c-.9,0-1.7-.8-1.8-1.8l-.7-10.6c0-.6.2-1.1.5-1.5.3-.4.8-.6,1.3-.6h26.7c.5,0,.9.2,1.3.6.4.4.6,1,.5,1.5l-.7,10.6c0,1-.8,1.8-1.8,1.8ZM57.6,85.4h23.4l.6-8.9h-24.6l.6,8.9Z"/>
  </g>
  <g>
    <path class="st3" d="M107.5,49.2c-.7,0-1.3-.5-1.4-1.2l-1.3-7.3c0-.4,0-.7.2-1.1.2-.3.5-.5.9-.6l7.6-1.3c.8-.1,1.5.4,1.6,1.1l1.3,7.3c0,.4,0,.7-.2,1.1-.2.3-.5.5-.9.6l-7.6,1.3c0,0-.2,0-.2,0ZM107.9,41.6l.8,4.6,4.8-.8-.8-4.6-4.8.8Z"/>
    <path class="st3" d="M109.1,53l11.1-1.9.5,2.8-11.1,1.9-.5-2.8Z"/>
    <path class="st3" d="M105.4,66.9c-.7,0-1.3-.5-1.4-1.2l-5.9-32.8c0-.4,0-.8.3-1.1.2-.3.6-.5,1-.6l20.8-2.3c.4,0,.8,0,1.1.3.3.3.5.6.5,1v35.1c0,.8-.6,1.4-1.4,1.4s-1.4-.6-1.4-1.4V31.9l-17.8,2,5.6,31.3c.1.8-.4,1.5-1.1,1.6,0,0-.2,0-.2,0Z"/>
    <path class="st3" d="M141.8,50.5h-15.5c-.8,0-1.4-.6-1.4-1.4v-15.4c0-.8.6-1.4,1.4-1.4h15.5c.8,0,1.4.6,1.4,1.4v15.4c0,.8-.6,1.4-1.4,1.4ZM127.7,47.7h12.7v-12.6h-12.7v12.6Z"/>
    <path class="st3" d="M148.6,35.3h10.3v2.8h-10.3v-2.8Z"/>
    <path class="st3" d="M148.6,42.8h10.3v2.8h-10.3v-2.8Z"/>
    <path class="st3" d="M125.7,55.7h17v2.8h-17v-2.8Z"/>
    <path class="st3" d="M120.4,66.9c-.8,0-1.4-.6-1.4-1.4V27.8c0-.8.6-1.4,1.4-1.4h42.9c.8,0,1.4.6,1.4,1.4v29.8c0,.8-.6,1.4-1.4,1.4s-1.4-.6-1.4-1.4v-28.3h-40.1v36.3c0,.8-.6,1.4-1.4,1.4Z"/>
    <path class="st3" d="M177,104.9h-70.5c-1.2,0-2.2-.9-2.3-2.2l-2.6-36.2c0-.6.2-1.3.6-1.7.4-.5,1-.7,1.7-.7h37.2l7.1-6.6c.9-.9,2.1-1.3,3.4-1.3h27.9c.6,0,1.2.3,1.7.7.4.5.7,1.1.6,1.7l-2.6,44.2c0,1.2-1.1,2.2-2.3,2.2ZM176.5,102.5h0s0,0,0,0ZM107.1,102.5h0s0,0,0,0ZM107,102h69.5l2.5-43.1h-27.4c-.6,0-1.1.2-1.5.6l-7.9,7.4h-37.8l2.5,35.2Z"/>
    <path class="st3" d="M154,91h-25.3c-.9,0-1.7-.8-1.8-1.8l-.7-10.6c0-.6.2-1.1.5-1.5.3-.4.8-.6,1.3-.6h26.7c.5,0,.9.2,1.3.6.4.4.6,1,.5,1.5l-.7,10.6c0,1-.8,1.8-1.8,1.8ZM129.6,88.2h23.4l.6-8.9h-24.6l.6,8.9Z"/>
  </g>
</svg>