<?xml version="1.0" encoding="UTF-8"?>
<svg id="Capa_1" xmlns="http://www.w3.org/2000/svg" version="1.1" viewBox="0 0 512 512">
  <!-- Generator: Adobe Illustrator 29.6.1, SVG Export Plug-In . SVG Version: 2.1.1 Build 9)  -->
  <defs>
    <style>
      .st0 {
        fill: #aa599a;
      }

      .st1 {
        fill: #6494ba;
      }
    </style>
  </defs>
  <path class="st1" d="M410.5,188.4v215.9c0,17.9-13.3,32.1-34.1,37.4-4.4,1.1-8.9,1.6-13.1,1.6-17.6,0-32.6-8.9-36.1-23-4.4-17.5,10.6-36.3,33.4-42,4.5-1.1,8.9-1.6,13.2-1.6s11,.9,15.8,2.6v-130.2l-116.7,21.3-.5,161.8c-.1,15.3-13.9,30.4-33.8,35.3-4.1,1-8.3,1.5-12.4,1.5-18.1,0-34.3-9.6-36.3-22.7-4.3-17.3,10.4-35.9,33.1-41.6,4.4-1.1,8.8-1.6,13.1-1.6s10.7.9,15.4,2.5v-191.4l159-25.8M248.9,199.4l-12.6,2v186.8h-.4c-5.6,0-11.2.7-16.7,2.1-14.1,3.5-26.5,11.2-34.7,21.6-8.9,11.2-12.3,24.9-9.4,37.5,1.9,10.4,8.6,19.6,19,26,9.1,5.6,20.4,8.6,32,8.6s10.8-.7,16.1-2c12.4-3.1,23.3-9.3,31.6-18,8.7-9.2,13.5-20.5,13.6-31.8l.5-149.4,86.7-15.9v94.5h-.8c-5.6,0-11.2.7-16.8,2.1-14.3,3.6-26.7,11.3-35,21.8-9.1,11.5-12.5,25.5-9.3,38.4,5.2,20.6,25.5,34.4,50.7,34.4s11.2-.7,16.7-2.1h0c27.6-7,45.4-27.4,45.4-51.9v-233.3l-17.4,2.8-159.2,25.8Z"/>
  <path class="st0" d="M254.7,86.3l-.3-.2-.3-.2c-41.4-28.9-53.9-42.3-57.3-46.5l.2-13.3-17,2c-11.7,1.4-18.2,7.2-21.6,11.9-3.7,5-4.7,9.9-4.9,11.7v1c-.1,0-.1,1-.1,1v192.8h-1.9c-6,0-12.1.8-18,2.2-17.8,4.4-33,15-41.5,29.1-6.5,10.7-8.6,22.8-5.9,34.1,2,11,9.1,20.8,20.2,27.6,9.7,6,22,9.3,34.4,9.3s11.7-.7,17.3-2.1c13.4-3.3,25.1-10,33.9-19.3,5.4-5.7,9.4-12.2,11.9-19l2.7-15,.5-181.7c28.1,3.5,80,74.4,80,74.4,0,0,22.6-63.2-32.3-99.8ZM192.5,93.4h-.5l-.6,200h0c-.1,16.9-15.3,33.3-37.1,38.8-4.6,1.1-9.2,1.7-13.7,1.7-19.9,0-37.6-10.5-39.9-24.9-4.8-19.1,11.5-39.6,36.3-45.7,4.9-1.2,9.7-1.8,14.4-1.8s11.8,1,16.9,2.8V53.6s1.3-9.3,13.5-10.7c0,0-.2,10.6,63.8,55.2,32.7,25.2,32.6,59.7,32.6,59.7-39.9-62.4-80.5-64.4-85.7-64.4Z"/>
</svg>