<?xml version="1.0" encoding="UTF-8"?>
<svg id="Layer_1" xmlns="http://www.w3.org/2000/svg" xmlns:xlink="http://www.w3.org/1999/xlink" version="1.1" viewBox="0 0 720 720">
  <!-- Generator: Adobe Illustrator 29.6.1, SVG Export Plug-In . SVG Version: 2.1.1 Build 9)  -->
  <defs>
    <style>
      .st0 {
        fill: none;
      }

      .st1 {
        opacity: .4;
      }

      .st1, .st2 {
        isolation: isolate;
      }

      .st3 {
        fill: #e6e6e6;
      }

      .st3, .st4, .st5, .st6 {
        fill-rule: evenodd;
      }

      .st7 {
        fill: #6496bc;
      }

      .st4 {
        fill: #35bcc7;
      }

      .st5 {
        fill: #9a5a9a;
      }

      .st8 {
        fill: #293553;
      }

      .st9 {
        clip-path: url(#clippath-1);
      }

      .st6 {
        fill: #b3b4b4;
      }

      .st10 {
        clip-path: url(#clippath);
      }

      .st2 {
        fill: #fff;
      }
    </style>
    <clipPath id="clippath">
      <rect class="st0" width="720" height="720"/>
    </clipPath>
    <clipPath id="clippath-1">
      <rect class="st0" x="-5" y="-5" width="730" height="730"/>
    </clipPath>
  </defs>
  <rect class="st2" width="720" height="720"/>
  <g class="st1">
    <g class="st10">
      <g class="st9">
        <image width="1522" height="1522" transform="translate(-5.3 -5.3) scale(.5)" xlink:href="aula2-ic9-1.png"/>
      </g>
    </g>
  </g>
  <g>
    <path class="st7" d="M263.9,559c0,1.1-.9,1.9-1.9,1.9h0c-1.1,0-1.9-.8-1.9-1.9h0c0-1,.8-1.9,1.9-1.9h0c1,0,1.9.9,1.9,1.9Z"/>
    <path class="st7" d="M265.8,593.7c0,2.1-1.7,3.8-3.8,3.8h0c-2.1,0-3.8-1.7-3.8-3.8h0c0-2.1,1.7-3.8,3.8-3.8h0c2.1,0,3.8,1.7,3.8,3.8Z"/>
    <path class="st7" d="M263.9,628.4c0,1.1-.9,1.9-1.9,1.9h0c-1.1,0-1.9-.8-1.9-1.9h0c0-1,.8-1.9,1.9-1.9h0c1,0,1.9.9,1.9,1.9Z"/>
    <path class="st7" d="M296.5,524.2c0,1-.8,1.9-1.9,1.9h0c-1,0-1.9-.8-1.9-1.9h0c0-1.1.8-1.9,1.9-1.9h0c1.1,0,1.9.8,1.9,1.9Z"/>
    <path class="st7" d="M296.5,559c0,1.1-.8,1.9-1.9,1.9h0c-1,0-1.9-.8-1.9-1.9h0c0-1,.8-1.9,1.9-1.9h0c1.1,0,1.9.9,1.9,1.9Z"/>
    <path class="st7" d="M296.5,593.7c0,1-.8,1.9-1.9,1.9h0c-1,0-1.9-.9-1.9-1.9h0c0-1.1.8-1.9,1.9-1.9h0c1.1,0,1.9.8,1.9,1.9Z"/>
    <path class="st7" d="M296.5,628.4c0,1.1-.8,1.9-1.9,1.9h0c-1,0-1.9-.8-1.9-1.9h0c0-1,.8-1.9,1.9-1.9h0c1.1,0,1.9.9,1.9,1.9Z"/>
    <path class="st7" d="M334.9,524.2c0,4.2-3.4,7.6-7.6,7.6h0c-4.2,0-7.6-3.4-7.6-7.6h0c0-4.2,3.4-7.6,7.6-7.6h0c4.2,0,7.6,3.4,7.6,7.6Z"/>
    <path class="st7" d="M333.9,559c0,3.7-3,6.6-6.6,6.6h0c-3.7,0-6.6-3-6.6-6.6h0c0-3.7,3-6.6,6.6-6.6h0c3.7,0,6.6,3,6.6,6.6Z"/>
    <path class="st7" d="M329.2,593.7c0,1-.9,1.9-1.9,1.9h0c-1.1,0-1.9-.9-1.9-1.9h0c0-1.1.8-1.9,1.9-1.9h0c1,0,1.9.8,1.9,1.9Z"/>
    <path class="st7" d="M329.2,628.4c0,1.1-.9,1.9-1.9,1.9h0c-1.1,0-1.9-.8-1.9-1.9h0c0-1,.8-1.9,1.9-1.9h0c1,0,1.9.9,1.9,1.9Z"/>
    <path class="st7" d="M361.8,489.5c0,1.1-.9,1.9-1.9,1.9h0c-1,0-1.9-.8-1.9-1.9h0c0-1,.8-1.9,1.9-1.9h0c1.1,0,1.9.9,1.9,1.9Z"/>
    <path class="st7" d="M365.1,524.2c0,2.9-2.3,5.2-5.2,5.2h0c-2.9,0-5.2-2.3-5.2-5.2h0c0-2.9,2.3-5.2,5.2-5.2h0c2.9,0,5.2,2.3,5.2,5.2Z"/>
    <path class="st7" d="M361.8,559c0,1.1-.9,1.9-1.9,1.9h0c-1.1,0-1.9-.8-1.9-1.9h0c0-1,.8-1.9,1.9-1.9h0c1,0,1.9.9,1.9,1.9Z"/>
    <path class="st7" d="M361.8,593.7c0,1-.9,1.9-1.9,1.9h0c-1.1,0-1.9-.9-1.9-1.9h0c0-1.1.8-1.9,1.9-1.9h0c1,0,1.9.8,1.9,1.9Z"/>
    <path class="st7" d="M362.8,628.4c0,1.6-1.3,2.8-2.8,2.8h0c-1.6,0-2.8-1.3-2.8-2.8h0c0-1.6,1.3-2.8,2.8-2.8h0c1.6,0,2.8,1.3,2.8,2.8Z"/>
    <path class="st7" d="M361.8,663.2c0,1-.9,1.9-1.9,1.9h0c-1.1,0-1.9-.9-1.9-1.9h0c0-1.1.8-1.9,1.9-1.9h0c1,0,1.9.8,1.9,1.9Z"/>
    <path class="st7" d="M394.4,524.2c0,1-.8,1.9-1.9,1.9h0c-1,0-1.9-.9-1.9-1.9h0c0-1.1.8-1.9,1.9-1.9h0c1.1,0,1.9.8,1.9,1.9Z"/>
    <path class="st7" d="M394.4,559c0,1.1-.8,1.9-1.9,1.9h0c-1,0-1.9-.8-1.9-1.9h0c0-1,.8-1.9,1.9-1.9h0c1.1,0,1.9.9,1.9,1.9Z"/>
    <path class="st7" d="M396.3,593.7c0,2.1-1.7,3.8-3.8,3.8h0c-2.1,0-3.8-1.7-3.8-3.8h0c0-2.1,1.7-3.8,3.8-3.8h0c2.1,0,3.8,1.7,3.8,3.8Z"/>
    <path class="st7" d="M394.4,628.4c0,1.1-.8,1.9-1.9,1.9h0c-1,0-1.9-.8-1.9-1.9h0c0-1,.8-1.9,1.9-1.9h0c1.1,0,1.9.9,1.9,1.9Z"/>
    <path class="st7" d="M394.4,663.2c0,1-.8,1.9-1.9,1.9h0c-1,0-1.9-.9-1.9-1.9h0c0-1.1.8-1.9,1.9-1.9h0c1.1,0,1.9.8,1.9,1.9Z"/>
    <path class="st7" d="M427.1,489.5c0,1.1-.9,1.9-1.9,1.9h0c-1.1,0-1.9-.8-1.9-1.9h0c0-1,.8-1.9,1.9-1.9h0c1,0,1.9.9,1.9,1.9Z"/>
    <path class="st7" d="M427.1,524.2c0,1-.9,1.9-1.9,1.9h0c-1,0-1.9-.9-1.9-1.9h0c0-1.1.8-1.9,1.9-1.9h0c1.1,0,1.9.8,1.9,1.9Z"/>
    <path class="st7" d="M427.1,559c0,1.1-.9,1.9-1.9,1.9h0c-1.1,0-1.9-.8-1.9-1.9h0c0-1,.8-1.9,1.9-1.9h0c1,0,1.9.9,1.9,1.9Z"/>
    <path class="st7" d="M427.1,593.7c0,1-.9,1.9-1.9,1.9h0c-1,0-1.9-.9-1.9-1.9h0c0-1.1.8-1.9,1.9-1.9h0c1.1,0,1.9.9,1.9,1.9Z"/>
    <path class="st7" d="M427.1,628.4c0,1.1-.9,1.9-1.9,1.9h0c-1,0-1.9-.8-1.9-1.9h0c0-1,.8-1.9,1.9-1.9h0c1.1,0,1.9.9,1.9,1.9Z"/>
    <path class="st7" d="M427.1,663.2c0,1-.9,1.9-1.9,1.9h0c-1,0-1.9-.9-1.9-1.9h0c0-1.1.8-1.9,1.9-1.9h0c1.1,0,1.9.8,1.9,1.9Z"/>
    <path class="st7" d="M459.7,489.5c0,1.1-.9,1.9-1.9,1.9h0c-1,0-1.9-.8-1.9-1.9h0c0-1,.8-1.9,1.9-1.9h0c1.1,0,1.9.9,1.9,1.9Z"/>
    <path class="st7" d="M462.5,524.2c0,2.6-2.1,4.7-4.7,4.7h0c-2.6,0-4.7-2.1-4.7-4.7h0c0-2.6,2.1-4.7,4.7-4.7h0c2.6,0,4.7,2.1,4.7,4.7Z"/>
    <path class="st7" d="M459.7,559c0,1.1-.9,1.9-1.9,1.9h0c-1.1,0-1.9-.8-1.9-1.9h0c0-1,.8-1.9,1.9-1.9h0c1,0,1.9.9,1.9,1.9Z"/>
    <path class="st7" d="M460.6,593.7c0,1.6-1.3,2.8-2.8,2.8h0c-1.6,0-2.8-1.3-2.8-2.8h0c0-1.6,1.3-2.8,2.8-2.8h0c1.6,0,2.8,1.3,2.8,2.8Z"/>
    <path class="st7" d="M459.7,628.4c0,1.1-.8,1.9-1.9,1.9h0c-1.1,0-1.9-.8-1.9-1.9h0c0-1,.8-1.9,1.9-1.9h0c1,0,1.9.9,1.9,1.9Z"/>
    <path class="st7" d="M459.7,663.2c0,1-.8,1.9-1.9,1.9h0c-1.1,0-1.9-.9-1.9-1.9h0c0-1.1.8-1.9,1.9-1.9h0c1,0,1.9.8,1.9,1.9Z"/>
    <path class="st7" d="M492.3,524.2c0,1-.9,1.9-1.9,1.9h0c-1.1,0-1.9-.9-1.9-1.9h0c0-1.1.9-1.9,1.9-1.9h0c1,0,1.9.8,1.9,1.9Z"/>
    <path class="st7" d="M492.3,559c0,1.1-.9,1.9-1.9,1.9h0c-1.1,0-1.9-.8-1.9-1.9h0c0-1,.8-1.9,1.9-1.9h0c1,0,1.9.9,1.9,1.9Z"/>
    <path class="st7" d="M493.8,593.7c0,1.8-1.5,3.3-3.3,3.3h0c-1.8,0-3.3-1.5-3.3-3.3h0c0-1.8,1.5-3.3,3.3-3.3h0c1.8,0,3.3,1.5,3.3,3.3Z"/>
    <path class="st7" d="M492.3,628.4c0,1.1-.9,1.9-1.9,1.9h0c-1,0-1.9-.8-1.9-1.9h0c0-1,.8-1.9,1.9-1.9h0c1.1,0,1.9.9,1.9,1.9Z"/>
    <path class="st7" d="M525,489.5c0,1.1-.8,1.9-1.9,1.9h0c-1.1,0-1.9-.8-1.9-1.9h0c0-1,.9-1.9,1.9-1.9h0c1,0,1.9.9,1.9,1.9Z"/>
    <path class="st7" d="M525,524.2c0,1-.9,1.9-1.9,1.9h0c-1.1,0-1.9-.9-1.9-1.9h0c0-1.1.9-1.9,1.9-1.9h0c1,0,1.9.8,1.9,1.9Z"/>
    <path class="st7" d="M525,559c0,1.1-.8,1.9-1.9,1.9h0c-1,0-1.9-.8-1.9-1.9h0c0-1,.9-1.9,1.9-1.9h0c1.1,0,1.9.9,1.9,1.9Z"/>
    <path class="st7" d="M557.6,524.2c0,1-.8,1.9-1.9,1.9h0c-1.1,0-1.9-.9-1.9-1.9h0c0-1.1.8-1.9,1.9-1.9h0c1,0,1.9.8,1.9,1.9Z"/>
    <path class="st7" d="M198.7,559c0,1.1-.8,1.9-1.9,1.9h0c-1.1,0-1.9-.8-1.9-1.9h0c0-1,.8-1.9,1.9-1.9h0c1,0,1.9.9,1.9,1.9Z"/>
    <path class="st7" d="M198.7,593.7c0,1-.8,1.9-1.9,1.9h0c-1.1,0-1.9-.8-1.9-1.9h0c0-1.1.8-1.9,1.9-1.9h0c1,0,1.9.8,1.9,1.9Z"/>
    <path class="st7" d="M198.7,628.4c0,1.1-.8,1.9-1.9,1.9h0c-1.1,0-1.9-.8-1.9-1.9h0c0-1,.8-1.9,1.9-1.9h0c1,0,1.9.9,1.9,1.9Z"/>
    <path class="st7" d="M198.7,663.2c0,1-.8,1.9-1.9,1.9h0c-1.1,0-1.9-.9-1.9-1.9h0c0-1.1.8-1.9,1.9-1.9h0c1,0,1.9.8,1.9,1.9Z"/>
    <path class="st7" d="M232.7,559c0,1.8-1.5,3.3-3.3,3.3h0c-1.8,0-3.3-1.5-3.3-3.3h0c0-1.8,1.5-3.3,3.3-3.3h0c1.8,0,3.3,1.5,3.3,3.3Z"/>
    <path class="st7" d="M232.7,593.7c0,1.8-1.5,3.3-3.3,3.3h0c-1.8,0-3.3-1.5-3.3-3.3h0c0-1.8,1.5-3.3,3.3-3.3h0c1.8,0,3.3,1.5,3.3,3.3Z"/>
    <path class="st7" d="M231.3,628.4c0,1.1-.9,1.9-1.9,1.9h0c-1,0-1.9-.8-1.9-1.9h0c0-1,.8-1.9,1.9-1.9h0c1.1,0,1.9.9,1.9,1.9Z"/>
    <path class="st7" d="M231.3,663.2c0,1-.9,1.9-1.9,1.9h0c-1,0-1.9-.9-1.9-1.9h0c0-1.1.8-1.9,1.9-1.9h0c1.1,0,1.9.8,1.9,1.9Z"/>
  </g>
  <g>
    <path class="st7" d="M309.1,475c0-1.1.9-1.9,1.9-1.9h0c1.1,0,1.9.8,1.9,1.9h0c0,1-.8,1.9-1.9,1.9h0c-1,0-1.9-.9-1.9-1.9Z"/>
    <path class="st7" d="M307.2,440.2c0-2.1,1.7-3.8,3.8-3.8h0c2.1,0,3.8,1.7,3.8,3.8h0c0,2.1-1.7,3.8-3.8,3.8h0c-2.1,0-3.8-1.7-3.8-3.8Z"/>
    <path class="st7" d="M309.1,405.5c0-1.1.9-1.9,1.9-1.9h0c1.1,0,1.9.8,1.9,1.9h0c0,1-.8,1.9-1.9,1.9h0c-1,0-1.9-.9-1.9-1.9Z"/>
    <path class="st7" d="M276.4,509.7c0-1,.8-1.9,1.9-1.9h0c1,0,1.9.8,1.9,1.9h0c0,1.1-.8,1.9-1.9,1.9h0c-1.1,0-1.9-.8-1.9-1.9Z"/>
    <path class="st7" d="M276.4,475c0-1.1.8-1.9,1.9-1.9h0c1,0,1.9.8,1.9,1.9h0c0,1-.8,1.9-1.9,1.9h0c-1.1,0-1.9-.9-1.9-1.9Z"/>
    <path class="st7" d="M276.4,440.2c0-1,.8-1.9,1.9-1.9h0c1,0,1.9.9,1.9,1.9h0c0,1.1-.8,1.9-1.9,1.9h0c-1.1,0-1.9-.8-1.9-1.9Z"/>
    <path class="st7" d="M276.4,405.5c0-1.1.8-1.9,1.9-1.9h0c1,0,1.9.8,1.9,1.9h0c0,1-.8,1.9-1.9,1.9h0c-1.1,0-1.9-.9-1.9-1.9Z"/>
    <path class="st7" d="M238.1,509.7c0-4.2,3.4-7.6,7.6-7.6h0c4.2,0,7.6,3.4,7.6,7.6h0c0,4.2-3.4,7.6-7.6,7.6h0c-4.2,0-7.6-3.4-7.6-7.6Z"/>
    <path class="st7" d="M239.1,475c0-3.7,3-6.6,6.6-6.6h0c3.7,0,6.6,3,6.6,6.6h0c0,3.7-3,6.6-6.6,6.6h0c-3.7,0-6.6-3-6.6-6.6Z"/>
    <path class="st7" d="M243.8,440.2c0-1,.9-1.9,1.9-1.9h0c1.1,0,1.9.9,1.9,1.9h0c0,1.1-.8,1.9-1.9,1.9h0c-1,0-1.9-.8-1.9-1.9Z"/>
    <path class="st7" d="M243.8,405.5c0-1.1.9-1.9,1.9-1.9h0c1.1,0,1.9.8,1.9,1.9h0c0,1-.8,1.9-1.9,1.9h0c-1,0-1.9-.9-1.9-1.9Z"/>
    <path class="st7" d="M211.2,544.4c0-1.1.9-1.9,1.9-1.9h0c1,0,1.9.8,1.9,1.9h0c0,1-.8,1.9-1.9,1.9h0c-1.1,0-1.9-.9-1.9-1.9Z"/>
    <path class="st7" d="M207.9,509.7c0-2.9,2.3-5.2,5.2-5.2h0c2.9,0,5.2,2.3,5.2,5.2h0c0,2.9-2.3,5.2-5.2,5.2h0c-2.9,0-5.2-2.3-5.2-5.2Z"/>
    <path class="st7" d="M211.2,475c0-1.1.9-1.9,1.9-1.9h0c1.1,0,1.9.8,1.9,1.9h0c0,1-.8,1.9-1.9,1.9h0c-1,0-1.9-.9-1.9-1.9Z"/>
    <path class="st7" d="M211.2,440.2c0-1,.9-1.9,1.9-1.9h0c1.1,0,1.9.9,1.9,1.9h0c0,1.1-.8,1.9-1.9,1.9h0c-1,0-1.9-.8-1.9-1.9Z"/>
    <path class="st7" d="M210.2,405.5c0-1.6,1.3-2.8,2.8-2.8h0c1.6,0,2.8,1.3,2.8,2.8h0c0,1.6-1.3,2.8-2.8,2.8h0c-1.6,0-2.8-1.3-2.8-2.8Z"/>
    <path class="st7" d="M211.2,370.8c0-1,.9-1.9,1.9-1.9h0c1.1,0,1.9.9,1.9,1.9h0c0,1.1-.8,1.9-1.9,1.9h0c-1,0-1.9-.8-1.9-1.9Z"/>
    <path class="st7" d="M178.6,509.7c0-1,.8-1.9,1.9-1.9h0c1,0,1.9.9,1.9,1.9h0c0,1.1-.8,1.9-1.9,1.9h0c-1.1,0-1.9-.8-1.9-1.9Z"/>
    <path class="st7" d="M178.6,475c0-1.1.8-1.9,1.9-1.9h0c1,0,1.9.8,1.9,1.9h0c0,1-.8,1.9-1.9,1.9h0c-1.1,0-1.9-.9-1.9-1.9Z"/>
    <path class="st7" d="M176.7,440.2c0-2.1,1.7-3.8,3.8-3.8h0c2.1,0,3.8,1.7,3.8,3.8h0c0,2.1-1.7,3.8-3.8,3.8h0c-2.1,0-3.8-1.7-3.8-3.8Z"/>
    <path class="st7" d="M178.6,405.5c0-1.1.8-1.9,1.9-1.9h0c1,0,1.9.8,1.9,1.9h0c0,1-.8,1.9-1.9,1.9h0c-1.1,0-1.9-.9-1.9-1.9Z"/>
    <path class="st7" d="M178.6,370.8c0-1,.8-1.9,1.9-1.9h0c1,0,1.9.9,1.9,1.9h0c0,1.1-.8,1.9-1.9,1.9h0c-1.1,0-1.9-.8-1.9-1.9Z"/>
    <path class="st7" d="M145.9,544.4c0-1.1.9-1.9,1.9-1.9h0c1.1,0,1.9.8,1.9,1.9h0c0,1-.8,1.9-1.9,1.9h0c-1,0-1.9-.9-1.9-1.9Z"/>
    <path class="st7" d="M145.9,509.7c0-1,.9-1.9,1.9-1.9h0c1,0,1.9.9,1.9,1.9h0c0,1.1-.8,1.9-1.9,1.9h0c-1.1,0-1.9-.8-1.9-1.9Z"/>
    <path class="st7" d="M145.9,475c0-1.1.9-1.9,1.9-1.9h0c1.1,0,1.9.8,1.9,1.9h0c0,1-.8,1.9-1.9,1.9h0c-1,0-1.9-.9-1.9-1.9Z"/>
    <path class="st7" d="M145.9,440.2c0-1,.9-1.9,1.9-1.9h0c1,0,1.9.9,1.9,1.9h0c0,1.1-.8,1.9-1.9,1.9h0c-1.1,0-1.9-.9-1.9-1.9Z"/>
    <path class="st7" d="M145.9,405.5c0-1.1.9-1.9,1.9-1.9h0c1,0,1.9.8,1.9,1.9h0c0,1-.8,1.9-1.9,1.9h0c-1.1,0-1.9-.9-1.9-1.9Z"/>
    <path class="st7" d="M145.9,370.8c0-1,.9-1.9,1.9-1.9h0c1,0,1.9.9,1.9,1.9h0c0,1.1-.8,1.9-1.9,1.9h0c-1.1,0-1.9-.8-1.9-1.9Z"/>
    <path class="st7" d="M113.3,544.4c0-1.1.9-1.9,1.9-1.9h0c1,0,1.9.8,1.9,1.9h0c0,1-.8,1.9-1.9,1.9h0c-1.1,0-1.9-.9-1.9-1.9Z"/>
    <path class="st7" d="M110.4,509.7c0-2.6,2.1-4.7,4.7-4.7h0c2.6,0,4.7,2.1,4.7,4.7h0c0,2.6-2.1,4.7-4.7,4.7h0c-2.6,0-4.7-2.1-4.7-4.7Z"/>
    <path class="st7" d="M113.3,475c0-1.1.9-1.9,1.9-1.9h0c1.1,0,1.9.8,1.9,1.9h0c0,1-.8,1.9-1.9,1.9h0c-1,0-1.9-.9-1.9-1.9Z"/>
    <path class="st7" d="M112.3,440.2c0-1.6,1.3-2.8,2.8-2.8h0c1.6,0,2.8,1.3,2.8,2.8h0c0,1.6-1.3,2.8-2.8,2.8h0c-1.6,0-2.8-1.3-2.8-2.8Z"/>
    <path class="st7" d="M113.3,405.5c0-1.1.8-1.9,1.9-1.9h0c1.1,0,1.9.8,1.9,1.9h0c0,1-.8,1.9-1.9,1.9h0c-1,0-1.9-.9-1.9-1.9Z"/>
    <path class="st7" d="M113.3,370.8c0-1,.8-1.9,1.9-1.9h0c1.1,0,1.9.9,1.9,1.9h0c0,1.1-.8,1.9-1.9,1.9h0c-1,0-1.9-.8-1.9-1.9Z"/>
    <path class="st7" d="M80.7,509.7c0-1,.9-1.9,1.9-1.9h0c1.1,0,1.9.9,1.9,1.9h0c0,1.1-.9,1.9-1.9,1.9h0c-1,0-1.9-.8-1.9-1.9Z"/>
    <path class="st7" d="M80.7,475c0-1.1.9-1.9,1.9-1.9h0c1.1,0,1.9.8,1.9,1.9h0c0,1-.8,1.9-1.9,1.9h0c-1,0-1.9-.9-1.9-1.9Z"/>
    <path class="st7" d="M79.2,440.2c0-1.8,1.5-3.3,3.3-3.3h0c1.8,0,3.3,1.5,3.3,3.3h0c0,1.8-1.5,3.3-3.3,3.3h0c-1.8,0-3.3-1.5-3.3-3.3Z"/>
    <path class="st7" d="M80.7,405.5c0-1.1.9-1.9,1.9-1.9h0c1,0,1.9.8,1.9,1.9h0c0,1-.8,1.9-1.9,1.9h0c-1.1,0-1.9-.9-1.9-1.9Z"/>
    <path class="st7" d="M48,544.4c0-1.1.8-1.9,1.9-1.9h0c1.1,0,1.9.8,1.9,1.9h0c0,1-.9,1.9-1.9,1.9h0c-1,0-1.9-.9-1.9-1.9Z"/>
    <path class="st7" d="M48,509.7c0-1,.9-1.9,1.9-1.9h0c1.1,0,1.9.9,1.9,1.9h0c0,1.1-.9,1.9-1.9,1.9h0c-1,0-1.9-.8-1.9-1.9Z"/>
    <path class="st7" d="M48,475c0-1.1.8-1.9,1.9-1.9h0c1,0,1.9.8,1.9,1.9h0c0,1-.9,1.9-1.9,1.9h0c-1.1,0-1.9-.9-1.9-1.9Z"/>
    <path class="st7" d="M15.4,509.7c0-1,.8-1.9,1.9-1.9h0c1.1,0,1.9.9,1.9,1.9h0c0,1.1-.8,1.9-1.9,1.9h0c-1,0-1.9-.8-1.9-1.9Z"/>
    <path class="st7" d="M374.3,475c0-1.1.8-1.9,1.9-1.9h0c1.1,0,1.9.8,1.9,1.9h0c0,1-.8,1.9-1.9,1.9h0c-1,0-1.9-.9-1.9-1.9Z"/>
    <path class="st7" d="M374.3,440.2c0-1,.8-1.9,1.9-1.9h0c1.1,0,1.9.8,1.9,1.9h0c0,1.1-.8,1.9-1.9,1.9h0c-1,0-1.9-.8-1.9-1.9Z"/>
    <path class="st7" d="M374.3,405.5c0-1.1.8-1.9,1.9-1.9h0c1.1,0,1.9.8,1.9,1.9h0c0,1-.8,1.9-1.9,1.9h0c-1,0-1.9-.9-1.9-1.9Z"/>
    <path class="st7" d="M374.3,370.8c0-1,.8-1.9,1.9-1.9h0c1.1,0,1.9.9,1.9,1.9h0c0,1.1-.8,1.9-1.9,1.9h0c-1,0-1.9-.8-1.9-1.9Z"/>
    <path class="st7" d="M340.3,475c0-1.8,1.5-3.3,3.3-3.3h0c1.8,0,3.3,1.5,3.3,3.3h0c0,1.8-1.5,3.3-3.3,3.3h0c-1.8,0-3.3-1.5-3.3-3.3Z"/>
    <path class="st7" d="M340.3,440.2c0-1.8,1.5-3.3,3.3-3.3h0c1.8,0,3.3,1.5,3.3,3.3h0c0,1.8-1.5,3.3-3.3,3.3h0c-1.8,0-3.3-1.5-3.3-3.3Z"/>
    <path class="st7" d="M341.7,405.5c0-1.1.9-1.9,1.9-1.9h0c1,0,1.9.8,1.9,1.9h0c0,1-.8,1.9-1.9,1.9h0c-1.1,0-1.9-.9-1.9-1.9Z"/>
    <path class="st7" d="M341.7,370.8c0-1,.9-1.9,1.9-1.9h0c1,0,1.9.9,1.9,1.9h0c0,1.1-.8,1.9-1.9,1.9h0c-1.1,0-1.9-.8-1.9-1.9Z"/>
  </g>
  <g>
    <path class="st7" d="M615.7,521.9c0-1.1.9-1.9,1.9-1.9h0c1.1,0,1.9.8,1.9,1.9h0c0,1-.8,1.9-1.9,1.9h0c-1,0-1.9-.9-1.9-1.9Z"/>
    <path class="st7" d="M613.8,487.1c0-2.1,1.7-3.8,3.8-3.8h0c2.1,0,3.8,1.7,3.8,3.8h0c0,2.1-1.7,3.8-3.8,3.8h0c-2.1,0-3.8-1.7-3.8-3.8Z"/>
    <path class="st7" d="M615.7,452.4c0-1.1.9-1.9,1.9-1.9h0c1.1,0,1.9.8,1.9,1.9h0c0,1-.8,1.9-1.9,1.9h0c-1,0-1.9-.9-1.9-1.9Z"/>
    <path class="st7" d="M583.1,556.6c0-1,.8-1.9,1.9-1.9h0c1,0,1.9.8,1.9,1.9h0c0,1.1-.8,1.9-1.9,1.9h0c-1.1,0-1.9-.8-1.9-1.9Z"/>
    <path class="st7" d="M583.1,521.9c0-1.1.8-1.9,1.9-1.9h0c1,0,1.9.8,1.9,1.9h0c0,1-.8,1.9-1.9,1.9h0c-1.1,0-1.9-.9-1.9-1.9Z"/>
    <path class="st7" d="M583.1,487.1c0-1,.8-1.9,1.9-1.9h0c1,0,1.9.9,1.9,1.9h0c0,1.1-.8,1.9-1.9,1.9h0c-1.1,0-1.9-.8-1.9-1.9Z"/>
    <path class="st7" d="M583.1,452.4c0-1.1.8-1.9,1.9-1.9h0c1,0,1.9.8,1.9,1.9h0c0,1-.8,1.9-1.9,1.9h0c-1.1,0-1.9-.9-1.9-1.9Z"/>
    <path class="st7" d="M544.8,556.6c0-4.2,3.4-7.6,7.6-7.6h0c4.2,0,7.6,3.4,7.6,7.6h0c0,4.2-3.4,7.6-7.6,7.6h0c-4.2,0-7.6-3.4-7.6-7.6Z"/>
    <path class="st7" d="M545.7,521.9c0-3.7,3-6.6,6.6-6.6h0c3.7,0,6.6,3,6.6,6.6h0c0,3.7-3,6.6-6.6,6.6h0c-3.7,0-6.6-3-6.6-6.6Z"/>
    <path class="st7" d="M550.5,487.1c0-1,.9-1.9,1.9-1.9h0c1.1,0,1.9.9,1.9,1.9h0c0,1.1-.8,1.9-1.9,1.9h0c-1,0-1.9-.8-1.9-1.9Z"/>
    <path class="st7" d="M550.5,452.4c0-1.1.9-1.9,1.9-1.9h0c1.1,0,1.9.8,1.9,1.9h0c0,1-.8,1.9-1.9,1.9h0c-1,0-1.9-.9-1.9-1.9Z"/>
    <path class="st7" d="M517.8,591.3c0-1.1.9-1.9,1.9-1.9h0c1,0,1.9.8,1.9,1.9h0c0,1-.8,1.9-1.9,1.9h0c-1.1,0-1.9-.9-1.9-1.9Z"/>
    <path class="st7" d="M514.5,556.6c0-2.9,2.3-5.2,5.2-5.2h0c2.9,0,5.2,2.3,5.2,5.2h0c0,2.9-2.3,5.2-5.2,5.2h0c-2.9,0-5.2-2.3-5.2-5.2Z"/>
    <path class="st7" d="M517.8,521.9c0-1.1.9-1.9,1.9-1.9h0c1.1,0,1.9.8,1.9,1.9h0c0,1-.8,1.9-1.9,1.9h0c-1,0-1.9-.9-1.9-1.9Z"/>
    <path class="st7" d="M517.8,487.1c0-1,.9-1.9,1.9-1.9h0c1.1,0,1.9.9,1.9,1.9h0c0,1.1-.8,1.9-1.9,1.9h0c-1,0-1.9-.8-1.9-1.9Z"/>
    <path class="st7" d="M516.9,452.4c0-1.6,1.3-2.8,2.8-2.8h0c1.6,0,2.8,1.3,2.8,2.8h0c0,1.6-1.3,2.8-2.8,2.8h0c-1.6,0-2.8-1.3-2.8-2.8Z"/>
    <path class="st7" d="M517.8,417.7c0-1,.9-1.9,1.9-1.9h0c1.1,0,1.9.9,1.9,1.9h0c0,1.1-.8,1.9-1.9,1.9h0c-1,0-1.9-.8-1.9-1.9Z"/>
    <path class="st7" d="M485.2,556.6c0-1,.8-1.9,1.9-1.9h0c1,0,1.9.9,1.9,1.9h0c0,1.1-.8,1.9-1.9,1.9h0c-1.1,0-1.9-.8-1.9-1.9Z"/>
    <path class="st7" d="M485.2,521.9c0-1.1.8-1.9,1.9-1.9h0c1,0,1.9.8,1.9,1.9h0c0,1-.8,1.9-1.9,1.9h0c-1.1,0-1.9-.9-1.9-1.9Z"/>
    <path class="st7" d="M483.3,487.1c0-2.1,1.7-3.8,3.8-3.8h0c2.1,0,3.8,1.7,3.8,3.8h0c0,2.1-1.7,3.8-3.8,3.8h0c-2.1,0-3.8-1.7-3.8-3.8Z"/>
    <path class="st7" d="M485.2,452.4c0-1.1.8-1.9,1.9-1.9h0c1,0,1.9.8,1.9,1.9h0c0,1-.8,1.9-1.9,1.9h0c-1.1,0-1.9-.9-1.9-1.9Z"/>
    <path class="st7" d="M485.2,417.7c0-1,.8-1.9,1.9-1.9h0c1,0,1.9.9,1.9,1.9h0c0,1.1-.8,1.9-1.9,1.9h0c-1.1,0-1.9-.8-1.9-1.9Z"/>
    <path class="st7" d="M452.6,591.3c0-1.1.9-1.9,1.9-1.9h0c1.1,0,1.9.8,1.9,1.9h0c0,1-.8,1.9-1.9,1.9h0c-1,0-1.9-.9-1.9-1.9Z"/>
    <path class="st7" d="M452.6,556.6c0-1,.9-1.9,1.9-1.9h0c1,0,1.9.9,1.9,1.9h0c0,1.1-.8,1.9-1.9,1.9h0c-1.1,0-1.9-.8-1.9-1.9Z"/>
    <path class="st7" d="M452.6,521.9c0-1.1.9-1.9,1.9-1.9h0c1.1,0,1.9.8,1.9,1.9h0c0,1-.8,1.9-1.9,1.9h0c-1,0-1.9-.9-1.9-1.9Z"/>
    <path class="st7" d="M452.6,487.1c0-1,.9-1.9,1.9-1.9h0c1,0,1.9.9,1.9,1.9h0c0,1.1-.8,1.9-1.9,1.9h0c-1.1,0-1.9-.9-1.9-1.9Z"/>
    <path class="st7" d="M452.6,452.4c0-1.1.9-1.9,1.9-1.9h0c1,0,1.9.8,1.9,1.9h0c0,1-.8,1.9-1.9,1.9h0c-1.1,0-1.9-.9-1.9-1.9Z"/>
    <path class="st7" d="M452.6,417.7c0-1,.9-1.9,1.9-1.9h0c1,0,1.9.9,1.9,1.9h0c0,1.1-.8,1.9-1.9,1.9h0c-1.1,0-1.9-.8-1.9-1.9Z"/>
    <path class="st7" d="M419.9,591.3c0-1.1.9-1.9,1.9-1.9h0c1,0,1.9.8,1.9,1.9h0c0,1-.8,1.9-1.9,1.9h0c-1.1,0-1.9-.9-1.9-1.9Z"/>
    <path class="st7" d="M417.1,556.6c0-2.6,2.1-4.7,4.7-4.7h0c2.6,0,4.7,2.1,4.7,4.7h0c0,2.6-2.1,4.7-4.7,4.7h0c-2.6,0-4.7-2.1-4.7-4.7Z"/>
    <path class="st7" d="M419.9,521.9c0-1.1.9-1.9,1.9-1.9h0c1.1,0,1.9.8,1.9,1.9h0c0,1-.8,1.9-1.9,1.9h0c-1,0-1.9-.9-1.9-1.9Z"/>
    <path class="st7" d="M419,487.1c0-1.6,1.3-2.8,2.8-2.8h0c1.6,0,2.8,1.3,2.8,2.8h0c0,1.6-1.3,2.8-2.8,2.8h0c-1.6,0-2.8-1.3-2.8-2.8Z"/>
    <path class="st7" d="M420,452.4c0-1.1.8-1.9,1.9-1.9h0c1.1,0,1.9.8,1.9,1.9h0c0,1-.8,1.9-1.9,1.9h0c-1,0-1.9-.9-1.9-1.9Z"/>
    <path class="st7" d="M420,417.7c0-1,.8-1.9,1.9-1.9h0c1.1,0,1.9.9,1.9,1.9h0c0,1.1-.8,1.9-1.9,1.9h0c-1,0-1.9-.8-1.9-1.9Z"/>
    <path class="st7" d="M387.3,556.6c0-1,.9-1.9,1.9-1.9h0c1.1,0,1.9.9,1.9,1.9h0c0,1.1-.9,1.9-1.9,1.9h0c-1,0-1.9-.8-1.9-1.9Z"/>
    <path class="st7" d="M387.3,521.9c0-1.1.9-1.9,1.9-1.9h0c1.1,0,1.9.8,1.9,1.9h0c0,1-.8,1.9-1.9,1.9h0c-1,0-1.9-.9-1.9-1.9Z"/>
    <path class="st7" d="M385.9,487.1c0-1.8,1.5-3.3,3.3-3.3h0c1.8,0,3.3,1.5,3.3,3.3h0c0,1.8-1.5,3.3-3.3,3.3h0c-1.8,0-3.3-1.5-3.3-3.3Z"/>
    <path class="st7" d="M387.3,452.4c0-1.1.9-1.9,1.9-1.9h0c1,0,1.9.8,1.9,1.9h0c0,1-.8,1.9-1.9,1.9h0c-1.1,0-1.9-.9-1.9-1.9Z"/>
    <path class="st7" d="M354.7,591.3c0-1.1.8-1.9,1.9-1.9h0c1.1,0,1.9.8,1.9,1.9h0c0,1-.9,1.9-1.9,1.9h0c-1,0-1.9-.9-1.9-1.9Z"/>
    <path class="st7" d="M354.7,556.6c0-1,.9-1.9,1.9-1.9h0c1.1,0,1.9.9,1.9,1.9h0c0,1.1-.9,1.9-1.9,1.9h0c-1,0-1.9-.8-1.9-1.9Z"/>
    <path class="st7" d="M354.7,521.9c0-1.1.8-1.9,1.9-1.9h0c1,0,1.9.8,1.9,1.9h0c0,1-.9,1.9-1.9,1.9h0c-1.1,0-1.9-.9-1.9-1.9Z"/>
    <path class="st7" d="M322.1,556.6c0-1,.8-1.9,1.9-1.9h0c1.1,0,1.9.9,1.9,1.9h0c0,1.1-.8,1.9-1.9,1.9h0c-1,0-1.9-.8-1.9-1.9Z"/>
    <path class="st7" d="M681,521.9c0-1.1.8-1.9,1.9-1.9h0c1.1,0,1.9.8,1.9,1.9h0c0,1-.8,1.9-1.9,1.9h0c-1,0-1.9-.9-1.9-1.9Z"/>
    <path class="st7" d="M681,487.1c0-1,.8-1.9,1.9-1.9h0c1.1,0,1.9.8,1.9,1.9h0c0,1.1-.8,1.9-1.9,1.9h0c-1,0-1.9-.8-1.9-1.9Z"/>
    <path class="st7" d="M681,452.4c0-1.1.8-1.9,1.9-1.9h0c1.1,0,1.9.8,1.9,1.9h0c0,1-.8,1.9-1.9,1.9h0c-1,0-1.9-.9-1.9-1.9Z"/>
    <path class="st7" d="M681,417.7c0-1,.8-1.9,1.9-1.9h0c1.1,0,1.9.9,1.9,1.9h0c0,1.1-.8,1.9-1.9,1.9h0c-1,0-1.9-.8-1.9-1.9Z"/>
    <path class="st7" d="M646.9,521.9c0-1.8,1.5-3.3,3.3-3.3h0c1.8,0,3.3,1.5,3.3,3.3h0c0,1.8-1.5,3.3-3.3,3.3h0c-1.8,0-3.3-1.5-3.3-3.3Z"/>
    <path class="st7" d="M646.9,487.1c0-1.8,1.5-3.3,3.3-3.3h0c1.8,0,3.3,1.5,3.3,3.3h0c0,1.8-1.5,3.3-3.3,3.3h0c-1.8,0-3.3-1.5-3.3-3.3Z"/>
    <path class="st7" d="M648.4,452.4c0-1.1.9-1.9,1.9-1.9h0c1,0,1.9.8,1.9,1.9h0c0,1-.8,1.9-1.9,1.9h0c-1.1,0-1.9-.9-1.9-1.9Z"/>
    <path class="st7" d="M648.4,417.7c0-1,.9-1.9,1.9-1.9h0c1,0,1.9.9,1.9,1.9h0c0,1.1-.8,1.9-1.9,1.9h0c-1.1,0-1.9-.8-1.9-1.9Z"/>
  </g>
  <g>
    <g>
      <path class="st6" d="M156.5,94.5c-20.6,0-37.4,16.8-37.4,37.4v91.5h74.7v-91.5c.1-20.6-16.7-37.4-37.3-37.4Z"/>
      <path class="st5" d="M154.3,138.7h341.9v440H154.3V138.7Z"/>
      <path class="st3" d="M480.5,94.5H156.5c20.6,0,37.4,16.8,37.4,37.4v396.2h326.3V131.9c0-20.6-16.8-37.4-37.4-37.4h-2.3Z"/>
      <path class="st4" d="M661.6,399.8c0-54.9-44.5-99.3-99.3-99.3s-73.9,23.2-89.8,57h-164.8l-55.7,43,55.7,41.8h27.1l15.3-26.6,15.2,26.6h31.1l15.3-26.6,15.3,26.6h45.3c15.9,33.6,50.2,57,89.8,57,54.9-.1,99.4-44.6,99.4-99.4h0Z"/>
      <path class="st3" d="M562.3,342c-31.9,0-57.8,25.9-57.8,57.8s25.9,57.8,57.8,57.8,57.8-25.9,57.8-57.8c.1-31.9-25.8-57.8-57.8-57.8Z"/>
    </g>
    <path class="st8" d="M562.3,350.2c-27.4,0-49.6,22.2-49.6,49.6s22.2,49.6,49.6,49.6,49.6-22.2,49.6-49.6c.1-27.4-22.1-49.6-49.6-49.6ZM515.8,353.1c25.8-25.8,67.4-25.8,93.2,0s25.8,67.4,0,93.2c-25.8,25.8-67.5,25.8-93.2,0-25.8-25.6-25.8-67.4,0-93.2h0ZM653.4,399.8c0-50.3-40.8-91.1-91.1-91.1s-67.4,20.3-82.5,52.3c-1.4,3-4.3,4.6-7.3,4.6h-162.1l-45.2,34.7,45,33.8h19.8l13-22.5c3.1-5.4,11-5.4,14.1.1l12.9,22.4h21.7l13-22.5c3.1-5.4,11-5.4,14.1.1l12.9,22.4h40.7c3.5,0,6.4,2.2,7.6,5.2,7.5,15.5,19.1,28.5,33.5,37.7,35.8,22.8,83,17.6,113.2-12.6,16.4-16.5,26.6-39.3,26.6-64.6h0ZM638.2,323.9c41.9,42,41.9,110,0,152-28.5,28.5-70.9,38.9-110,26v26.3c0,4.5-3.7,8.1-8.1,8.1h-15.9v42.4c0,4.5-3.7,8.1-8.1,8.1H154.3c-4.5,0-8.1-3.7-8.1-8.1V231.6h-27.1c-4.5,0-8.1-3.7-8.1-8.1v-91.5c0-25.1,20.5-45.6,45.6-45.6h326.3c25.1,0,45.6,20.5,45.6,45.6v166c39.1-13.2,81.5-2.6,109.9,25.9ZM512.1,494.9c-18.9-10-34.4-25.5-44.6-44.5h-40.3c-2.8,0-5.6-1.5-7.1-4.1l-8.3-14.4-7.9,13.7c-1.2,2.8-4.1,4.7-7.5,4.7h-31.2c-2.8,0-5.6-1.5-7.1-4.1l-8.3-14.4-7.9,13.7c-1.2,2.8-4.1,4.7-7.3,4.7h-27.1c-1.6,0-3.4-.5-4.9-1.6l-55.5-41.6c-4.5-3.1-4.9-9.6-.4-13.2l55.2-42.6c1.5-1.4,3.4-2,5.4-2h159.8c10.2-19,25.8-34.4,44.6-44.5v-173.1c0-16.8-14.2-30.2-31.1-29.2H191.4c6.9,8.1,10.7,18.6,10.7,29.3v388.1h310v-25.2ZM396.4,255.8c4.5,0,8.1,3.7,8.1,8.1s-3.7,8.1-8.1,8.1h-143.6c-4.5,0-8.1-3.7-8.1-8.1s3.7-8.1,8.1-8.1h143.6ZM358.6,308.9c4.5,0,8.1,3.7,8.1,8.1s-3.7,8.1-8.1,8.1h-105.8c-4.5,0-8.1-3.7-8.1-8.1s3.7-8.1,8.1-8.1h105.8ZM437.8,202.7c4.5,0,8.1,3.7,8.1,8.1s-3.7,8.1-8.1,8.1h-185c-4.5,0-8.1-3.7-8.1-8.1s3.7-8.1,8.1-8.1h185ZM468,149.6c4.5,0,8.1,3.7,8.1,8.1s-3.7,8.1-8.1,8.1h-215.2c-4.5,0-8.1-3.7-8.1-8.1s3.7-8.1,8.1-8.1h215.2ZM488.1,536.2H193.9c-4.5,0-8.1-3.7-8.1-8.1V146.9h-23.3v423.5h325.5v-34.2h.1ZM146.2,215.4v-76.6c0-4.5,3.7-8.1,8.1-8.1h31.3c-.7-15.5-13.2-27.9-29.2-27.9s-29.3,13.2-29.3,29.3v83.4h19Z"/>
  </g>
</svg>