<?xml version="1.0" encoding="UTF-8"?>
<svg id="Layer_1" xmlns="http://www.w3.org/2000/svg" version="1.1" viewBox="0 0 150 150">
  <!-- Generator: Adobe Illustrator 29.6.1, SVG Export Plug-In . SVG Version: 2.1.1 Build 9)  -->
  <defs>
    <style>
      .st0 {
        fill: #e6eaff;
      }

      .st1 {
        fill: #293553;
      }

      .st2 {
        fill: #98d5bd;
      }

      .st3 {
        fill: #9a5a9a;
      }
    </style>
  </defs>
  <g>
    <g>
      <g>
        <path class="st2" d="M121,27.1v11.8H10.6v-11.8c0-3.7,3-6.6,6.6-6.6h97.1c3.7,0,6.6,3,6.6,6.6Z"/>
        <path class="st2" d="M114.4,20.4h-12.4c3.7,0,6.6,3,6.6,6.6v11.8h12.4v-11.8c0-3.7-3-6.6-6.6-6.6Z"/>
      </g>
      <g>
        <path class="st0" d="M114.2,118.8H17.4c-3.7,0-6.6-3-6.6-6.6V38.8h110.1v73.4c0,3.6-3,6.6-6.6,6.6h0Z"/>
        <path class="st0" d="M108.6,38.8v73.4c0,3.7-3,6.6-6.6,6.6h12.3c3.7,0,6.6-3,6.6-6.6V38.8h-12.3Z"/>
      </g>
      <g>
        <path class="st3" d="M34.6,32.3c-2.6,0-4.7-2.1-4.7-4.7v-13.5c0-2.6,2.1-4.7,4.7-4.7s4.7,2.1,4.7,4.7v13.5c0,2.6-2.1,4.7-4.7,4.7Z"/>
        <path class="st3" d="M65.8,32.3c-2.6,0-4.7-2.1-4.7-4.7v-13.5c0-2.6,2.1-4.7,4.7-4.7s4.7,2.1,4.7,4.7v13.5c0,2.6-2.1,4.7-4.7,4.7Z"/>
        <path class="st3" d="M96.9,32.3c-2.6,0-4.7-2.1-4.7-4.7v-13.5c0-2.6,2.1-4.7,4.7-4.7s4.7,2.1,4.7,4.7v13.5c0,2.6-2.1,4.7-4.7,4.7Z"/>
      </g>
      <g>
        <path class="st3" d="M38.2,71h-11.7c-1.9,0-3.5-1.6-3.5-3.5v-11.7c0-1.9,1.6-3.5,3.5-3.5h11.7c1.9,0,3.5,1.6,3.5,3.5v11.7c0,1.9-1.6,3.5-3.5,3.5Z"/>
        <g>
          <path class="st2" d="M71.6,71h-11.7c-1.9,0-3.5-1.6-3.5-3.5v-11.7c0-1.9,1.6-3.5,3.5-3.5h11.7c1.9,0,3.5,1.6,3.5,3.5v11.7c0,1.9-1.6,3.5-3.5,3.5Z"/>
          <path class="st2" d="M105.1,71h-11.7c-1.9,0-3.5-1.6-3.5-3.5v-11.7c0-1.9,1.6-3.5,3.5-3.5h11.7c1.9,0,3.5,1.6,3.5,3.5v11.7c0,1.9-1.6,3.5-3.5,3.5Z"/>
          <path class="st2" d="M38.2,105.3h-11.7c-1.9,0-3.5-1.6-3.5-3.5v-11.7c0-1.9,1.6-3.5,3.5-3.5h11.7c1.9,0,3.5,1.6,3.5,3.5v11.7c0,1.9-1.6,3.5-3.5,3.5Z"/>
          <path class="st2" d="M71.6,105.3h-11.7c-1.9,0-3.5-1.6-3.5-3.5v-11.7c0-1.9,1.6-3.5,3.5-3.5h11.7c1.9,0,3.5,1.6,3.5,3.5v11.7c0,1.9-1.6,3.5-3.5,3.5Z"/>
        </g>
        <path class="st2" d="M105.1,105.3h-11.7c-1.9,0-3.5-1.6-3.5-3.5v-11.7c0-1.9,1.6-3.5,3.5-3.5h11.7c1.9,0,3.5,1.6,3.5,3.5v11.7c0,1.9-1.6,3.5-3.5,3.5Z"/>
      </g>
    </g>
    <g>
      <circle class="st2" cx="121" cy="118.8" r="25.4"/>
      <circle class="st0" cx="121" cy="118.8" r="17.4"/>
    </g>
  </g>
  <g>
    <path class="st1" d="M38.2,50.3h-11.7c-3.1,0-5.6,2.5-5.6,5.6v11.7c0,3.1,2.5,5.6,5.6,5.6h11.7c3.1,0,5.6-2.5,5.6-5.6v-11.7c0-3.1-2.5-5.6-5.6-5.6ZM39.6,67.5c0,.8-.6,1.4-1.4,1.4h-11.7c-.8,0-1.4-.6-1.4-1.4v-11.7c0-.8.6-1.4,1.4-1.4h11.7c.8,0,1.4.6,1.4,1.4v11.7Z"/>
    <path class="st1" d="M71.7,50.3h-11.7c-3.1,0-5.6,2.5-5.6,5.6v11.7c0,3.1,2.5,5.6,5.6,5.6h11.7c3.1,0,5.6-2.5,5.6-5.6v-11.7c0-3.1-2.5-5.6-5.6-5.6ZM73,67.5c0,.8-.6,1.4-1.4,1.4h-11.7c-.8,0-1.4-.6-1.4-1.4v-11.7c0-.8.6-1.4,1.4-1.4h11.7c.8,0,1.4.6,1.4,1.4v11.7h0Z"/>
    <path class="st1" d="M93.5,73.2h11.7c3.1,0,5.6-2.5,5.6-5.6v-11.7c0-3.1-2.5-5.6-5.6-5.6h-11.7c-3.1,0-5.6,2.5-5.6,5.6v11.7c0,3.1,2.5,5.6,5.6,5.6ZM92.1,55.9c0-.8.6-1.4,1.4-1.4h11.7c.8,0,1.4.6,1.4,1.4v11.7c0,.8-.6,1.4-1.4,1.4h-11.7c-.8,0-1.4-.6-1.4-1.4v-11.7Z"/>
    <path class="st1" d="M38.2,84.5h-11.7c-3.1,0-5.6,2.5-5.6,5.6v11.7c0,3.1,2.5,5.6,5.6,5.6h11.7c3.1,0,5.6-2.5,5.6-5.6v-11.7c0-3.1-2.5-5.6-5.6-5.6ZM39.6,101.8c0,.8-.6,1.4-1.4,1.4h-11.7c-.8,0-1.4-.6-1.4-1.4v-11.7c0-.8.6-1.4,1.4-1.4h11.7c.8,0,1.4.6,1.4,1.4v11.7Z"/>
    <path class="st1" d="M71.7,84.5h-11.7c-3.1,0-5.6,2.5-5.6,5.6v11.7c0,3.1,2.5,5.6,5.6,5.6h11.7c3.1,0,5.6-2.5,5.6-5.6v-11.7c0-3.1-2.5-5.6-5.6-5.6ZM73,101.8c0,.8-.6,1.4-1.4,1.4h-11.7c-.8,0-1.4-.6-1.4-1.4v-11.7c0-.8.6-1.4,1.4-1.4h11.7c.8,0,1.4.6,1.4,1.4v11.7h0Z"/>
    <path class="st1" d="M123,91.4v-51.9c0-.2.1-.4.1-.7v-11.8c0-4.8-3.9-8.7-8.7-8.7h-10.6v-4.2c0-3.7-3-6.8-6.8-6.8s-6.8,3-6.8,6.8v4.2h-17.5v-4.2c0-3.7-3-6.8-6.8-6.8s-6.8,3-6.8,6.8v4.2h-17.5v-4.2c0-3.7-3.1-6.8-6.9-6.8s-6.8,3-6.8,6.8v4.2h-10.6c-4.8,0-8.7,3.9-8.7,8.7v11.8c0,.2,0,.5.1.7v72.6c0,4.8,3.9,8.7,8.7,8.7h76.1c1.1,14.1,12.9,25.3,27.3,25.3s27.4-12.3,27.4-27.4-11.2-26.3-25.4-27.3h0ZM94.4,14.2c0-1.4,1.1-2.5,2.5-2.5s2.5,1.1,2.5,2.5v13.5c0,1.4-1.1,2.5-2.5,2.5s-2.5-1.1-2.5-2.5v-13.5ZM63.3,14.2c0-1.4,1.1-2.5,2.5-2.5s2.5,1.1,2.5,2.5v13.5c0,1.4-1.1,2.5-2.5,2.5s-2.5-1.1-2.5-2.5v-13.5ZM32.2,20.5h0v-6.3c0-1.4,1.1-2.5,2.5-2.5s2.5,1.1,2.5,2.5v13.5c0,1.4-1.1,2.5-2.5,2.5s-2.5-1.1-2.5-2.5v-7.2ZM12.9,27.1c0-2.5,2-4.5,4.5-4.5h10.5v5c0,3.7,3,6.8,6.8,6.8s6.8-3,6.8-6.8v-5h17.5v5c0,3.7,3,6.8,6.8,6.8s6.8-3,6.8-6.8v-5h17.5v5c0,3.7,3,6.8,6.8,6.8s6.8-3,6.8-6.8v-5h10.6c2.5,0,4.5,2,4.5,4.5v9.6H12.9v-9.6ZM93.6,116.7H17.5c-2.5,0-4.5-2-4.5-4.5V41h105.7v50.4c-2.8.2-5.5.9-8,1.9v-3.2c0-3.1-2.5-5.6-5.6-5.6h-11.7c-3.1,0-5.6,2.5-5.6,5.6v11.7c0,3.1,2.5,5.6,5.6,5.6h2.5c-1.3,2.8-2.1,5.9-2.4,9.3h0ZM106.5,90.1v5.3c-3.2,2-5.9,4.6-8.1,7.7h-4.9c-.8,0-1.4-.6-1.4-1.4v-11.7c0-.8.6-1.4,1.4-1.4h11.7c.7,0,1.4.6,1.4,1.4ZM120.9,142c-4,0-8-1.1-11.5-3-3.4-1.9-6.2-4.7-8.3-8-1-1.7-1.9-3.5-2.4-5.3-2-6.6-1-13.9,2.9-19.6,2.2-3.2,5.1-5.9,8.5-7.7,3.3-1.7,7-2.6,10.8-2.6,12.8,0,23.2,10.4,23.2,23.2s-10.4,23.2-23.2,23.2Z"/>
    <path class="st1" d="M120.9,99.2c-8.1,0-15.5,5.2-18.3,12.8-2.4,6.6-1.1,14,3.4,19.3,2.5,3,6,5.3,9.8,6.3,1.7.5,3.4.7,5.1.7,10.8,0,19.5-8.8,19.5-19.5s-8.8-19.5-19.5-19.5h0ZM120.9,134.1c-8.4,0-15.3-6.9-15.3-15.3s6.9-15.3,15.3-15.3,15.3,6.9,15.3,15.3-6.9,15.3-15.3,15.3Z"/>
    <path class="st1" d="M120.8,120.9h5.2c1.2,0,2.1-1,2.1-2.1s-1-2.1-2.1-2.1h-3v-7c0-1.2-1-2.1-2.1-2.1s-2.1,1-2.1,2.1v9.2c0,1.2,1,2.1,2.1,2.1h0Z"/>
  </g>
</svg>