<?xml version="1.0" encoding="UTF-8"?>
<svg id="Layer_1" xmlns="http://www.w3.org/2000/svg" xmlns:xlink="http://www.w3.org/1999/xlink" version="1.1" viewBox="0 0 200 120">
  <!-- Generator: Adobe Illustrator 29.6.1, SVG Export Plug-In . SVG Version: 2.1.1 Build 9)  -->
  <defs>
    <style>
      .st0 {
        fill: url(#Gradiente_sem_nome_16);
        opacity: .4;
      }

      .st1 {
        fill: #fff;
      }

      .st2 {
        opacity: .2;
      }

      .st3 {
        fill: #6494ba;
      }
    </style>
    <linearGradient id="Gradiente_sem_nome_16" data-name="Gradiente sem nome 16" x1="0" y1="59.8" x2="200" y2="59.8" gradientTransform="translate(159.8 -40.2) rotate(90)" gradientUnits="userSpaceOnUse">
      <stop offset="0" stop-color="#ac599c"/>
      <stop offset=".4" stop-color="#8877ab"/>
      <stop offset=".8" stop-color="#6d8db7"/>
      <stop offset="1" stop-color="#6496bc"/>
    </linearGradient>
  </defs>
  <rect class="st0" x="39.8" y="-40.2" width="120.4" height="200" transform="translate(40.2 159.8) rotate(-90)"/>
  <g class="st2">
    <path class="st1" d="M40.1,58.2l23.5-8.7c2.2-.8,3.3-3.2,2.5-5.4l-2.9-7.8c-.8-2.2-3.2-3.3-5.4-2.5l-23.5,8.7c-2.2.8-3.3,3.2-2.5,5.4l2.9,7.8c.8,2.2,3.2,3.3,5.4,2.5ZM34.4,47c-.3-.7.1-1.5.8-1.8l23.5-8.7c.7-.3,1.5.1,1.8.8l2.9,7.8c.3.7-.1,1.5-.8,1.8l-23.5,8.7c-.7.3-1.5-.1-1.8-.8l-2.9-7.8Z"/>
    <path class="st1" d="M62.4,54.4l-18.2,6.7c-.7.3-1.1,1.1-.8,1.8s1.1,1.1,1.8.8l18.2-6.7c.7-.3,1.1-1.1.8-1.8s-1.1-1.1-1.8-.8Z"/>
    <path class="st1" d="M59.6,62.9l-7.8,2.9c-.7.3-1.1,1.1-.8,1.8s1.1,1.1,1.8.8l7.8-2.9c.7-.3,1.1-1.1.8-1.8s-1.1-1.1-1.8-.8Z"/>
    <path class="st1" d="M89.3,23.6l-1.9,4c-1.8-.2-3.4.8-4.2,2.4l-4.3,9.3-7.7-20.8c-.8-2.2-3.2-3.3-5.4-2.5l-46.9,17.3c-3.6,1.3-5.4,5.3-4.1,8.9,25,67.7,24,65.2,24.1,65.2,1.3,3.6,5.2,5.4,8.8,4.2,0,0,0,0,0,0l45.6-16.9c2.2-.8,3.3-3.2,2.5-5.4l-2.8-7.5c.6-1,.6-2.3.2-3.4l-7.7-20.8,10.1-21.9c.7-1.6.4-3.5-.9-4.7l1.9-4c1-2.1,0-4.6-2-5.5s-4.6,0-5.5,2h0ZM93.4,90.4c.3.7-.1,1.5-.8,1.8l-45.6,16.9c-2.2.8-4.6-.3-5.4-2.5,0-.1,0-.3-.1-.4-.5-2.2.7-4.3,2.8-5l46.7-17.3,2.4,6.5ZM90.9,79.5c.3.7-.1,1.5-.8,1.8l-46.7,17.3c-1.5.6-2.8,1.6-3.6,2.9l-22.2-60.1c-.8-2.2.3-4.6,2.5-5.4l46.9-17.3c.7-.3,1.5.1,1.8.8l8.6,23.4-11.3,24.5c-.6,1.2-.8,2.6-.6,4,1.1,6.8,1,6.2,1.1,6.7-2.1,1-4.7.6-6.4-1.1-.5-.6-1.4-.7-2-.2-.5.4-.6,1-.4,1.6,0,.2,1.9,5.2-2,6.7s-5.8-3.6-5.8-3.8c-.3-.7-1.1-1.1-1.8-.8s-1.1,1.1-.8,1.8c1.2,3.2-.6,4.7-1.2,4.9-.6.3-1.2.2-1.7-.1-.6-.5-1.5-.4-2,.2-.5.6-.4,1.5.2,2,1.3,1,3,1.2,4.5.6,1.4-.6,2.5-1.8,3-3.3,1.8,1.7,4.3,2.2,6.6,1.2,2.8-1,4.6-3.8,4.3-6.8,2.1.8,4.4.7,6.5-.2,3.6-1.3,1.8-.3,8.4-4.5,1.2-.7,2.1-1.8,2.7-3,0-.2-.6,1.4,5.5-11.9l6.7,18.2ZM69.3,77.1l-1-6.2c-.1-.8,0-1.7.3-2.4l8.2-17.8,7.6,3.5-8.2,17.8c-.3.7-.9,1.4-1.6,1.8l-5.3,3.3ZM93.4,34.6l-7.8,17-7.6-3.5,7.8-17c.3-.7,1.1-1,1.8-.7,0,0,0,0,0,0l5.1,2.3c.7.3,1,1.1.7,1.8,0,0,0,0,0,0ZM94.4,25.9l-1.7,3.8-2.5-1.2,1.7-3.8c.3-.7,1.1-1,1.8-.7s1,1.1.7,1.8Z"/>
  </g>
  <g>
    <path class="st3" d="M121.7,48h28.6c2.6,0,4.8-2.1,4.8-4.8v-9.5c0-2.6-2.1-4.8-4.8-4.8h-28.6c-2.6,0-4.8,2.1-4.8,4.8v9.5c0,2.6,2.1,4.8,4.8,4.8ZM120.1,33.7c0-.9.7-1.6,1.6-1.6h28.6c.9,0,1.6.7,1.6,1.6v9.5c0,.9-.7,1.6-1.6,1.6h-28.6c-.9,0-1.6-.7-1.6-1.6v-9.5Z"/>
    <path class="st3" d="M147.2,52.8h-22.3c-.9,0-1.6.7-1.6,1.6s.7,1.6,1.6,1.6h22.3c.9,0,1.6-.7,1.6-1.6s-.7-1.6-1.6-1.6Z"/>
    <path class="st3" d="M140.8,60.8h-9.5c-.9,0-1.6.7-1.6,1.6s.7,1.6,1.6,1.6h9.5c.9,0,1.6-.7,1.6-1.6s-.7-1.6-1.6-1.6Z"/>
    <path class="st3" d="M188.3,30.3l-3.6,3.6c-1.8-.9-4-.5-5.4.9l-8.3,8.3v-25.3c0-2.6-2.1-4.8-4.8-4.8h-57.3c-4.4,0-7.9,3.6-8,8,0,82.7-.1,79.5,0,79.5,0,4.4,3.5,7.9,7.8,8,0,0,0,0,.1,0h55.7c2.6,0,4.8-2.1,4.8-4.8v-9.2c1-.9,1.6-2.2,1.6-3.5v-25.3l19.6-19.5c1.4-1.4,1.8-3.6.9-5.4l3.6-3.6c1.9-1.9,1.9-4.9,0-6.8s-4.9-1.9-6.8,0h0ZM166.3,103.7c0,.9-.7,1.6-1.6,1.6h-55.7c-2.6,0-4.8-2.1-4.8-4.8,0-.2,0-.3,0-.5.3-2.5,2.5-4.3,5-4.3h57v8ZM167.9,91c0,.9-.7,1.6-1.6,1.6h-57c-1.8,0-3.6.6-5,1.7V21c0-2.6,2.1-4.8,4.8-4.8h57.3c.9,0,1.6.7,1.6,1.6v28.5l-21.8,21.8c-1.1,1.1-1.9,2.5-2.2,4.1-1.6,7.7-1.4,7.1-1.4,7.6-2.7.2-5.3-1.2-6.5-3.7-.3-.8-1.2-1.3-2-1-.7.2-1.1.8-1.1,1.5,0,.3,0,6.4-4.8,6.4s-4.8-6.1-4.8-6.4c0-.9-.7-1.6-1.6-1.6s-1.6.7-1.6,1.6c0,4-2.5,4.8-3.2,4.8-.7,0-1.4-.3-1.8-.8-.4-.8-1.4-1-2.2-.6-.8.4-1,1.4-.6,2.2,1,1.5,2.7,2.4,4.6,2.4,1.8,0,3.5-.9,4.6-2.4,1.2,2.5,3.8,4,6.6,3.9,3.4,0,6.4-2.3,7.3-5.6,2,1.7,4.5,2.5,7,2.4,4.5,0,2,.3,10.8-1.5,1.5-.3,2.9-1.1,4-2.2,0-.2-1.2,1.2,10.6-10.6v22.2ZM145.6,79.8l1.4-7c.2-.9.6-1.8,1.3-2.4l15.8-15.9,6.7,6.7-15.9,15.8c-.7.7-1.5,1.1-2.4,1.3l-7,1.4ZM188.3,43.8l-15.2,15.2-6.7-6.7,15.2-15.2c.6-.6,1.6-.6,2.2,0,0,0,0,0,0,0l4.5,4.5c.6.6.6,1.6,0,2.2,0,0,0,0,0,0ZM192.8,34.8l-3.4,3.4-2.3-2.3,3.4-3.4c.6-.6,1.6-.6,2.3,0s.6,1.6,0,2.3Z"/>
  </g>
</svg>