<?xml version="1.0" encoding="UTF-8"?>
<svg id="Layer_1" xmlns="http://www.w3.org/2000/svg" xmlns:xlink="http://www.w3.org/1999/xlink" version="1.1" viewBox="0 0 720 720">
  <!-- Generator: Adobe Illustrator 29.6.1, SVG Export Plug-In . SVG Version: 2.1.1 Build 9)  -->
  <defs>
    <style>
      .st0 {
        fill: none;
      }

      .st1 {
        opacity: .4;
      }

      .st1, .st2, .st3 {
        isolation: isolate;
      }

      .st4 {
        fill: #35bcc7;
      }

      .st5 {
        fill: #6496bc;
      }

      .st6 {
        fill: #ffda2d;
      }

      .st7 {
        fill: #293553;
      }

      .st8 {
        clip-path: url(#clippath-1);
      }

      .st9 {
        fill: #f8f3f1;
      }

      .st10 {
        fill: #9a5a9a;
      }

      .st11 {
        clip-path: url(#clippath);
      }

      .st3 {
        fill: #fff;
      }
    </style>
    <clipPath id="clippath">
      <rect class="st0" width="720" height="720"/>
    </clipPath>
    <clipPath id="clippath-1">
      <rect class="st0" x="-5" y="-5" width="730" height="730"/>
    </clipPath>
  </defs>
  <rect class="st3" width="720" height="720"/>
  <g class="st1">
    <g class="st11">
      <g class="st8">
        <image class="st2" width="1522" height="1522" transform="translate(-5.3 -5.3) scale(.5)" xlink:href="aula2-ic9-1.png"/>
      </g>
    </g>
  </g>
  <g>
    <path class="st5" d="M263.9,559c0,1.1-.9,1.9-1.9,1.9h0c-1.1,0-1.9-.8-1.9-1.9h0c0-1,.8-1.9,1.9-1.9h0c1,0,1.9.9,1.9,1.9Z"/>
    <path class="st5" d="M265.8,593.7c0,2.1-1.7,3.8-3.8,3.8h0c-2.1,0-3.8-1.7-3.8-3.8h0c0-2.1,1.7-3.8,3.8-3.8h0c2.1,0,3.8,1.7,3.8,3.8Z"/>
    <path class="st5" d="M263.9,628.4c0,1.1-.9,1.9-1.9,1.9h0c-1.1,0-1.9-.8-1.9-1.9h0c0-1,.8-1.9,1.9-1.9h0c1,0,1.9.9,1.9,1.9Z"/>
    <path class="st5" d="M296.5,524.2c0,1-.8,1.9-1.9,1.9h0c-1,0-1.9-.8-1.9-1.9h0c0-1.1.8-1.9,1.9-1.9h0c1.1,0,1.9.8,1.9,1.9Z"/>
    <path class="st5" d="M296.5,559c0,1.1-.8,1.9-1.9,1.9h0c-1,0-1.9-.8-1.9-1.9h0c0-1,.8-1.9,1.9-1.9h0c1.1,0,1.9.9,1.9,1.9Z"/>
    <path class="st5" d="M296.5,593.7c0,1-.8,1.9-1.9,1.9h0c-1,0-1.9-.9-1.9-1.9h0c0-1.1.8-1.9,1.9-1.9h0c1.1,0,1.9.8,1.9,1.9Z"/>
    <path class="st5" d="M296.5,628.4c0,1.1-.8,1.9-1.9,1.9h0c-1,0-1.9-.8-1.9-1.9h0c0-1,.8-1.9,1.9-1.9h0c1.1,0,1.9.9,1.9,1.9Z"/>
    <path class="st5" d="M334.9,524.2c0,4.2-3.4,7.6-7.6,7.6h0c-4.2,0-7.6-3.4-7.6-7.6h0c0-4.2,3.4-7.6,7.6-7.6h0c4.2,0,7.6,3.4,7.6,7.6Z"/>
    <path class="st5" d="M333.9,559c0,3.7-3,6.6-6.6,6.6h0c-3.7,0-6.6-3-6.6-6.6h0c0-3.7,3-6.6,6.6-6.6h0c3.7,0,6.6,3,6.6,6.6Z"/>
    <path class="st5" d="M329.2,593.7c0,1-.9,1.9-1.9,1.9h0c-1.1,0-1.9-.9-1.9-1.9h0c0-1.1.8-1.9,1.9-1.9h0c1,0,1.9.8,1.9,1.9Z"/>
    <path class="st5" d="M329.2,628.4c0,1.1-.9,1.9-1.9,1.9h0c-1.1,0-1.9-.8-1.9-1.9h0c0-1,.8-1.9,1.9-1.9h0c1,0,1.9.9,1.9,1.9Z"/>
    <path class="st5" d="M361.8,489.5c0,1.1-.9,1.9-1.9,1.9h0c-1,0-1.9-.8-1.9-1.9h0c0-1,.8-1.9,1.9-1.9h0c1.1,0,1.9.9,1.9,1.9Z"/>
    <path class="st5" d="M365.1,524.2c0,2.9-2.3,5.2-5.2,5.2h0c-2.9,0-5.2-2.3-5.2-5.2h0c0-2.9,2.3-5.2,5.2-5.2h0c2.9,0,5.2,2.3,5.2,5.2Z"/>
    <path class="st5" d="M361.8,559c0,1.1-.9,1.9-1.9,1.9h0c-1.1,0-1.9-.8-1.9-1.9h0c0-1,.8-1.9,1.9-1.9h0c1,0,1.9.9,1.9,1.9Z"/>
    <path class="st5" d="M361.8,593.7c0,1-.9,1.9-1.9,1.9h0c-1.1,0-1.9-.9-1.9-1.9h0c0-1.1.8-1.9,1.9-1.9h0c1,0,1.9.8,1.9,1.9Z"/>
    <path class="st5" d="M362.8,628.4c0,1.6-1.3,2.8-2.8,2.8h0c-1.6,0-2.8-1.3-2.8-2.8h0c0-1.6,1.3-2.8,2.8-2.8h0c1.6,0,2.8,1.3,2.8,2.8Z"/>
    <path class="st5" d="M361.8,663.2c0,1-.9,1.9-1.9,1.9h0c-1.1,0-1.9-.9-1.9-1.9h0c0-1.1.8-1.9,1.9-1.9h0c1,0,1.9.8,1.9,1.9Z"/>
    <path class="st5" d="M394.4,524.2c0,1-.8,1.9-1.9,1.9h0c-1,0-1.9-.9-1.9-1.9h0c0-1.1.8-1.9,1.9-1.9h0c1.1,0,1.9.8,1.9,1.9Z"/>
    <path class="st5" d="M394.4,559c0,1.1-.8,1.9-1.9,1.9h0c-1,0-1.9-.8-1.9-1.9h0c0-1,.8-1.9,1.9-1.9h0c1.1,0,1.9.9,1.9,1.9Z"/>
    <path class="st5" d="M396.3,593.7c0,2.1-1.7,3.8-3.8,3.8h0c-2.1,0-3.8-1.7-3.8-3.8h0c0-2.1,1.7-3.8,3.8-3.8h0c2.1,0,3.8,1.7,3.8,3.8Z"/>
    <path class="st5" d="M394.4,628.4c0,1.1-.8,1.9-1.9,1.9h0c-1,0-1.9-.8-1.9-1.9h0c0-1,.8-1.9,1.9-1.9h0c1.1,0,1.9.9,1.9,1.9Z"/>
    <path class="st5" d="M394.4,663.2c0,1-.8,1.9-1.9,1.9h0c-1,0-1.9-.9-1.9-1.9h0c0-1.1.8-1.9,1.9-1.9h0c1.1,0,1.9.8,1.9,1.9Z"/>
    <path class="st5" d="M427.1,489.5c0,1.1-.9,1.9-1.9,1.9h0c-1.1,0-1.9-.8-1.9-1.9h0c0-1,.8-1.9,1.9-1.9h0c1,0,1.9.9,1.9,1.9Z"/>
    <path class="st5" d="M427.1,524.2c0,1-.9,1.9-1.9,1.9h0c-1,0-1.9-.9-1.9-1.9h0c0-1.1.8-1.9,1.9-1.9h0c1.1,0,1.9.8,1.9,1.9Z"/>
    <path class="st5" d="M427.1,559c0,1.1-.9,1.9-1.9,1.9h0c-1.1,0-1.9-.8-1.9-1.9h0c0-1,.8-1.9,1.9-1.9h0c1,0,1.9.9,1.9,1.9Z"/>
    <path class="st5" d="M427.1,593.7c0,1-.9,1.9-1.9,1.9h0c-1,0-1.9-.9-1.9-1.9h0c0-1.1.8-1.9,1.9-1.9h0c1.1,0,1.9.9,1.9,1.9Z"/>
    <path class="st5" d="M427.1,628.4c0,1.1-.9,1.9-1.9,1.9h0c-1,0-1.9-.8-1.9-1.9h0c0-1,.8-1.9,1.9-1.9h0c1.1,0,1.9.9,1.9,1.9Z"/>
    <path class="st5" d="M427.1,663.2c0,1-.9,1.9-1.9,1.9h0c-1,0-1.9-.9-1.9-1.9h0c0-1.1.8-1.9,1.9-1.9h0c1.1,0,1.9.8,1.9,1.9Z"/>
    <path class="st5" d="M459.7,489.5c0,1.1-.9,1.9-1.9,1.9h0c-1,0-1.9-.8-1.9-1.9h0c0-1,.8-1.9,1.9-1.9h0c1.1,0,1.9.9,1.9,1.9Z"/>
    <path class="st5" d="M462.5,524.2c0,2.6-2.1,4.7-4.7,4.7h0c-2.6,0-4.7-2.1-4.7-4.7h0c0-2.6,2.1-4.7,4.7-4.7h0c2.6,0,4.7,2.1,4.7,4.7Z"/>
    <path class="st5" d="M459.7,559c0,1.1-.9,1.9-1.9,1.9h0c-1.1,0-1.9-.8-1.9-1.9h0c0-1,.8-1.9,1.9-1.9h0c1,0,1.9.9,1.9,1.9Z"/>
    <path class="st5" d="M460.6,593.7c0,1.6-1.3,2.8-2.8,2.8h0c-1.6,0-2.8-1.3-2.8-2.8h0c0-1.6,1.3-2.8,2.8-2.8h0c1.6,0,2.8,1.3,2.8,2.8Z"/>
    <path class="st5" d="M459.7,628.4c0,1.1-.8,1.9-1.9,1.9h0c-1.1,0-1.9-.8-1.9-1.9h0c0-1,.8-1.9,1.9-1.9h0c1,0,1.9.9,1.9,1.9Z"/>
    <path class="st5" d="M459.7,663.2c0,1-.8,1.9-1.9,1.9h0c-1.1,0-1.9-.9-1.9-1.9h0c0-1.1.8-1.9,1.9-1.9h0c1,0,1.9.8,1.9,1.9Z"/>
    <path class="st5" d="M492.3,524.2c0,1-.9,1.9-1.9,1.9h0c-1.1,0-1.9-.9-1.9-1.9h0c0-1.1.9-1.9,1.9-1.9h0c1,0,1.9.8,1.9,1.9Z"/>
    <path class="st5" d="M492.3,559c0,1.1-.9,1.9-1.9,1.9h0c-1.1,0-1.9-.8-1.9-1.9h0c0-1,.8-1.9,1.9-1.9h0c1,0,1.9.9,1.9,1.9Z"/>
    <path class="st5" d="M493.8,593.7c0,1.8-1.5,3.3-3.3,3.3h0c-1.8,0-3.3-1.5-3.3-3.3h0c0-1.8,1.5-3.3,3.3-3.3h0c1.8,0,3.3,1.5,3.3,3.3Z"/>
    <path class="st5" d="M492.3,628.4c0,1.1-.9,1.9-1.9,1.9h0c-1,0-1.9-.8-1.9-1.9h0c0-1,.8-1.9,1.9-1.9h0c1.1,0,1.9.9,1.9,1.9Z"/>
    <path class="st5" d="M525,489.5c0,1.1-.8,1.9-1.9,1.9h0c-1.1,0-1.9-.8-1.9-1.9h0c0-1,.9-1.9,1.9-1.9h0c1,0,1.9.9,1.9,1.9Z"/>
    <path class="st5" d="M525,524.2c0,1-.9,1.9-1.9,1.9h0c-1.1,0-1.9-.9-1.9-1.9h0c0-1.1.9-1.9,1.9-1.9h0c1,0,1.9.8,1.9,1.9Z"/>
    <path class="st5" d="M525,559c0,1.1-.8,1.9-1.9,1.9h0c-1,0-1.9-.8-1.9-1.9h0c0-1,.9-1.9,1.9-1.9h0c1.1,0,1.9.9,1.9,1.9Z"/>
    <path class="st5" d="M557.6,524.2c0,1-.8,1.9-1.9,1.9h0c-1.1,0-1.9-.9-1.9-1.9h0c0-1.1.8-1.9,1.9-1.9h0c1,0,1.9.8,1.9,1.9Z"/>
    <path class="st5" d="M198.7,559c0,1.1-.8,1.9-1.9,1.9h0c-1.1,0-1.9-.8-1.9-1.9h0c0-1,.8-1.9,1.9-1.9h0c1,0,1.9.9,1.9,1.9Z"/>
    <path class="st5" d="M198.7,593.7c0,1-.8,1.9-1.9,1.9h0c-1.1,0-1.9-.8-1.9-1.9h0c0-1.1.8-1.9,1.9-1.9h0c1,0,1.9.8,1.9,1.9Z"/>
    <path class="st5" d="M198.7,628.4c0,1.1-.8,1.9-1.9,1.9h0c-1.1,0-1.9-.8-1.9-1.9h0c0-1,.8-1.9,1.9-1.9h0c1,0,1.9.9,1.9,1.9Z"/>
    <path class="st5" d="M198.7,663.2c0,1-.8,1.9-1.9,1.9h0c-1.1,0-1.9-.9-1.9-1.9h0c0-1.1.8-1.9,1.9-1.9h0c1,0,1.9.8,1.9,1.9Z"/>
    <path class="st5" d="M232.7,559c0,1.8-1.5,3.3-3.3,3.3h0c-1.8,0-3.3-1.5-3.3-3.3h0c0-1.8,1.5-3.3,3.3-3.3h0c1.8,0,3.3,1.5,3.3,3.3Z"/>
    <path class="st5" d="M232.7,593.7c0,1.8-1.5,3.3-3.3,3.3h0c-1.8,0-3.3-1.5-3.3-3.3h0c0-1.8,1.5-3.3,3.3-3.3h0c1.8,0,3.3,1.5,3.3,3.3Z"/>
    <path class="st5" d="M231.3,628.4c0,1.1-.9,1.9-1.9,1.9h0c-1,0-1.9-.8-1.9-1.9h0c0-1,.8-1.9,1.9-1.9h0c1.1,0,1.9.9,1.9,1.9Z"/>
    <path class="st5" d="M231.3,663.2c0,1-.9,1.9-1.9,1.9h0c-1,0-1.9-.9-1.9-1.9h0c0-1.1.8-1.9,1.9-1.9h0c1.1,0,1.9.8,1.9,1.9Z"/>
  </g>
  <g>
    <path class="st5" d="M309.1,475c0-1.1.9-1.9,1.9-1.9h0c1.1,0,1.9.8,1.9,1.9h0c0,1-.8,1.9-1.9,1.9h0c-1,0-1.9-.9-1.9-1.9Z"/>
    <path class="st5" d="M307.2,440.2c0-2.1,1.7-3.8,3.8-3.8h0c2.1,0,3.8,1.7,3.8,3.8h0c0,2.1-1.7,3.8-3.8,3.8h0c-2.1,0-3.8-1.7-3.8-3.8Z"/>
    <path class="st5" d="M309.1,405.5c0-1.1.9-1.9,1.9-1.9h0c1.1,0,1.9.8,1.9,1.9h0c0,1-.8,1.9-1.9,1.9h0c-1,0-1.9-.9-1.9-1.9Z"/>
    <path class="st5" d="M276.4,509.7c0-1,.8-1.9,1.9-1.9h0c1,0,1.9.8,1.9,1.9h0c0,1.1-.8,1.9-1.9,1.9h0c-1.1,0-1.9-.8-1.9-1.9Z"/>
    <path class="st5" d="M276.4,475c0-1.1.8-1.9,1.9-1.9h0c1,0,1.9.8,1.9,1.9h0c0,1-.8,1.9-1.9,1.9h0c-1.1,0-1.9-.9-1.9-1.9Z"/>
    <path class="st5" d="M276.4,440.2c0-1,.8-1.9,1.9-1.9h0c1,0,1.9.9,1.9,1.9h0c0,1.1-.8,1.9-1.9,1.9h0c-1.1,0-1.9-.8-1.9-1.9Z"/>
    <path class="st5" d="M276.4,405.5c0-1.1.8-1.9,1.9-1.9h0c1,0,1.9.8,1.9,1.9h0c0,1-.8,1.9-1.9,1.9h0c-1.1,0-1.9-.9-1.9-1.9Z"/>
    <path class="st5" d="M238.1,509.7c0-4.2,3.4-7.6,7.6-7.6h0c4.2,0,7.6,3.4,7.6,7.6h0c0,4.2-3.4,7.6-7.6,7.6h0c-4.2,0-7.6-3.4-7.6-7.6h0Z"/>
    <path class="st5" d="M239.1,475c0-3.7,3-6.6,6.6-6.6h0c3.7,0,6.6,3,6.6,6.6h0c0,3.7-3,6.6-6.6,6.6h0c-3.7,0-6.6-3-6.6-6.6Z"/>
    <path class="st5" d="M243.8,440.2c0-1,.9-1.9,1.9-1.9h0c1.1,0,1.9.9,1.9,1.9h0c0,1.1-.8,1.9-1.9,1.9h0c-1,0-1.9-.8-1.9-1.9Z"/>
    <path class="st5" d="M243.8,405.5c0-1.1.9-1.9,1.9-1.9h0c1.1,0,1.9.8,1.9,1.9h0c0,1-.8,1.9-1.9,1.9h0c-1,0-1.9-.9-1.9-1.9Z"/>
    <path class="st5" d="M211.2,544.4c0-1.1.9-1.9,1.9-1.9h0c1,0,1.9.8,1.9,1.9h0c0,1-.8,1.9-1.9,1.9h0c-1.1,0-1.9-.9-1.9-1.9Z"/>
    <path class="st5" d="M207.9,509.7c0-2.9,2.3-5.2,5.2-5.2h0c2.9,0,5.2,2.3,5.2,5.2h0c0,2.9-2.3,5.2-5.2,5.2h0c-2.9,0-5.2-2.3-5.2-5.2Z"/>
    <path class="st5" d="M211.2,475c0-1.1.9-1.9,1.9-1.9h0c1.1,0,1.9.8,1.9,1.9h0c0,1-.8,1.9-1.9,1.9h0c-1,0-1.9-.9-1.9-1.9Z"/>
    <path class="st5" d="M211.2,440.2c0-1,.9-1.9,1.9-1.9h0c1.1,0,1.9.9,1.9,1.9h0c0,1.1-.8,1.9-1.9,1.9h0c-1,0-1.9-.8-1.9-1.9Z"/>
    <path class="st5" d="M210.2,405.5c0-1.6,1.3-2.8,2.8-2.8h0c1.6,0,2.8,1.3,2.8,2.8h0c0,1.6-1.3,2.8-2.8,2.8h0c-1.6,0-2.8-1.3-2.8-2.8Z"/>
    <path class="st5" d="M211.2,370.8c0-1,.9-1.9,1.9-1.9h0c1.1,0,1.9.9,1.9,1.9h0c0,1.1-.8,1.9-1.9,1.9h0c-1,0-1.9-.8-1.9-1.9Z"/>
    <path class="st5" d="M178.6,509.7c0-1,.8-1.9,1.9-1.9h0c1,0,1.9.9,1.9,1.9h0c0,1.1-.8,1.9-1.9,1.9h0c-1.1,0-1.9-.8-1.9-1.9Z"/>
    <path class="st5" d="M178.6,475c0-1.1.8-1.9,1.9-1.9h0c1,0,1.9.8,1.9,1.9h0c0,1-.8,1.9-1.9,1.9h0c-1.1,0-1.9-.9-1.9-1.9Z"/>
    <path class="st5" d="M176.7,440.2c0-2.1,1.7-3.8,3.8-3.8h0c2.1,0,3.8,1.7,3.8,3.8h0c0,2.1-1.7,3.8-3.8,3.8h0c-2.1,0-3.8-1.7-3.8-3.8Z"/>
    <path class="st5" d="M178.6,405.5c0-1.1.8-1.9,1.9-1.9h0c1,0,1.9.8,1.9,1.9h0c0,1-.8,1.9-1.9,1.9h0c-1.1,0-1.9-.9-1.9-1.9Z"/>
    <path class="st5" d="M178.6,370.8c0-1,.8-1.9,1.9-1.9h0c1,0,1.9.9,1.9,1.9h0c0,1.1-.8,1.9-1.9,1.9h0c-1.1,0-1.9-.8-1.9-1.9Z"/>
    <path class="st5" d="M145.9,544.4c0-1.1.9-1.9,1.9-1.9h0c1.1,0,1.9.8,1.9,1.9h0c0,1-.8,1.9-1.9,1.9h0c-1,0-1.9-.9-1.9-1.9Z"/>
    <path class="st5" d="M145.9,509.7c0-1,.9-1.9,1.9-1.9h0c1,0,1.9.9,1.9,1.9h0c0,1.1-.8,1.9-1.9,1.9h0c-1.1,0-1.9-.8-1.9-1.9Z"/>
    <path class="st5" d="M145.9,475c0-1.1.9-1.9,1.9-1.9h0c1.1,0,1.9.8,1.9,1.9h0c0,1-.8,1.9-1.9,1.9h0c-1,0-1.9-.9-1.9-1.9Z"/>
    <path class="st5" d="M145.9,440.2c0-1,.9-1.9,1.9-1.9h0c1,0,1.9.9,1.9,1.9h0c0,1.1-.8,1.9-1.9,1.9h0c-1.1,0-1.9-.9-1.9-1.9Z"/>
    <path class="st5" d="M145.9,405.5c0-1.1.9-1.9,1.9-1.9h0c1,0,1.9.8,1.9,1.9h0c0,1-.8,1.9-1.9,1.9h0c-1.1,0-1.9-.9-1.9-1.9Z"/>
    <path class="st5" d="M145.9,370.8c0-1,.9-1.9,1.9-1.9h0c1,0,1.9.9,1.9,1.9h0c0,1.1-.8,1.9-1.9,1.9h0c-1.1,0-1.9-.8-1.9-1.9Z"/>
    <path class="st5" d="M113.3,544.4c0-1.1.9-1.9,1.9-1.9h0c1,0,1.9.8,1.9,1.9h0c0,1-.8,1.9-1.9,1.9h0c-1.1,0-1.9-.9-1.9-1.9Z"/>
    <path class="st5" d="M110.4,509.7c0-2.6,2.1-4.7,4.7-4.7h0c2.6,0,4.7,2.1,4.7,4.7h0c0,2.6-2.1,4.7-4.7,4.7h0c-2.6,0-4.7-2.1-4.7-4.7Z"/>
    <path class="st5" d="M113.3,475c0-1.1.9-1.9,1.9-1.9h0c1.1,0,1.9.8,1.9,1.9h0c0,1-.8,1.9-1.9,1.9h0c-1,0-1.9-.9-1.9-1.9Z"/>
    <path class="st5" d="M112.3,440.2c0-1.6,1.3-2.8,2.8-2.8h0c1.6,0,2.8,1.3,2.8,2.8h0c0,1.6-1.3,2.8-2.8,2.8h0c-1.6,0-2.8-1.3-2.8-2.8Z"/>
    <path class="st5" d="M113.3,405.5c0-1.1.8-1.9,1.9-1.9h0c1.1,0,1.9.8,1.9,1.9h0c0,1-.8,1.9-1.9,1.9h0c-1,0-1.9-.9-1.9-1.9Z"/>
    <path class="st5" d="M113.3,370.8c0-1,.8-1.9,1.9-1.9h0c1.1,0,1.9.9,1.9,1.9h0c0,1.1-.8,1.9-1.9,1.9h0c-1,0-1.9-.8-1.9-1.9Z"/>
    <path class="st5" d="M80.7,509.7c0-1,.9-1.9,1.9-1.9h0c1.1,0,1.9.9,1.9,1.9h0c0,1.1-.9,1.9-1.9,1.9h0c-1,0-1.9-.8-1.9-1.9Z"/>
    <path class="st5" d="M80.7,475c0-1.1.9-1.9,1.9-1.9h0c1.1,0,1.9.8,1.9,1.9h0c0,1-.8,1.9-1.9,1.9h0c-1,0-1.9-.9-1.9-1.9Z"/>
    <path class="st5" d="M79.2,440.2c0-1.8,1.5-3.3,3.3-3.3h0c1.8,0,3.3,1.5,3.3,3.3h0c0,1.8-1.5,3.3-3.3,3.3h0c-1.8,0-3.3-1.5-3.3-3.3Z"/>
    <path class="st5" d="M80.7,405.5c0-1.1.9-1.9,1.9-1.9h0c1,0,1.9.8,1.9,1.9h0c0,1-.8,1.9-1.9,1.9h0c-1.1,0-1.9-.9-1.9-1.9Z"/>
    <path class="st5" d="M48,544.4c0-1.1.8-1.9,1.9-1.9h0c1.1,0,1.9.8,1.9,1.9h0c0,1-.9,1.9-1.9,1.9h0c-1,0-1.9-.9-1.9-1.9Z"/>
    <path class="st5" d="M48,509.7c0-1,.9-1.9,1.9-1.9h0c1.1,0,1.9.9,1.9,1.9h0c0,1.1-.9,1.9-1.9,1.9h0c-1,0-1.9-.8-1.9-1.9Z"/>
    <path class="st5" d="M48,475c0-1.1.8-1.9,1.9-1.9h0c1,0,1.9.8,1.9,1.9h0c0,1-.9,1.9-1.9,1.9h0c-1.1,0-1.9-.9-1.9-1.9Z"/>
    <path class="st5" d="M15.4,509.7c0-1,.8-1.9,1.9-1.9h0c1.1,0,1.9.9,1.9,1.9h0c0,1.1-.8,1.9-1.9,1.9h0c-1,0-1.9-.8-1.9-1.9Z"/>
    <path class="st5" d="M374.3,475c0-1.1.8-1.9,1.9-1.9h0c1.1,0,1.9.8,1.9,1.9h0c0,1-.8,1.9-1.9,1.9h0c-1,0-1.9-.9-1.9-1.9Z"/>
    <path class="st5" d="M374.3,440.2c0-1,.8-1.9,1.9-1.9h0c1.1,0,1.9.8,1.9,1.9h0c0,1.1-.8,1.9-1.9,1.9h0c-1,0-1.9-.8-1.9-1.9Z"/>
    <path class="st5" d="M374.3,405.5c0-1.1.8-1.9,1.9-1.9h0c1.1,0,1.9.8,1.9,1.9h0c0,1-.8,1.9-1.9,1.9h0c-1,0-1.9-.9-1.9-1.9Z"/>
    <path class="st5" d="M374.3,370.8c0-1,.8-1.9,1.9-1.9h0c1.1,0,1.9.9,1.9,1.9h0c0,1.1-.8,1.9-1.9,1.9h0c-1,0-1.9-.8-1.9-1.9Z"/>
    <path class="st5" d="M340.3,475c0-1.8,1.5-3.3,3.3-3.3h0c1.8,0,3.3,1.5,3.3,3.3h0c0,1.8-1.5,3.3-3.3,3.3h0c-1.8,0-3.3-1.5-3.3-3.3Z"/>
    <path class="st5" d="M340.3,440.2c0-1.8,1.5-3.3,3.3-3.3h0c1.8,0,3.3,1.5,3.3,3.3h0c0,1.8-1.5,3.3-3.3,3.3h0c-1.8,0-3.3-1.5-3.3-3.3Z"/>
    <path class="st5" d="M341.7,405.5c0-1.1.9-1.9,1.9-1.9h0c1,0,1.9.8,1.9,1.9h0c0,1-.8,1.9-1.9,1.9h0c-1.1,0-1.9-.9-1.9-1.9Z"/>
    <path class="st5" d="M341.7,370.8c0-1,.9-1.9,1.9-1.9h0c1,0,1.9.9,1.9,1.9h0c0,1.1-.8,1.9-1.9,1.9h0c-1.1,0-1.9-.8-1.9-1.9Z"/>
  </g>
  <g>
    <path class="st5" d="M615.7,521.9c0-1.1.9-1.9,1.9-1.9h0c1.1,0,1.9.8,1.9,1.9h0c0,1-.8,1.9-1.9,1.9h0c-1,0-1.9-.9-1.9-1.9Z"/>
    <path class="st5" d="M613.8,487.1c0-2.1,1.7-3.8,3.8-3.8h0c2.1,0,3.8,1.7,3.8,3.8h0c0,2.1-1.7,3.8-3.8,3.8h0c-2.1,0-3.8-1.7-3.8-3.8Z"/>
    <path class="st5" d="M615.7,452.4c0-1.1.9-1.9,1.9-1.9h0c1.1,0,1.9.8,1.9,1.9h0c0,1-.8,1.9-1.9,1.9h0c-1,0-1.9-.9-1.9-1.9Z"/>
    <path class="st5" d="M583.1,556.6c0-1,.8-1.9,1.9-1.9h0c1,0,1.9.8,1.9,1.9h0c0,1.1-.8,1.9-1.9,1.9h0c-1.1,0-1.9-.8-1.9-1.9Z"/>
    <path class="st5" d="M583.1,521.9c0-1.1.8-1.9,1.9-1.9h0c1,0,1.9.8,1.9,1.9h0c0,1-.8,1.9-1.9,1.9h0c-1.1,0-1.9-.9-1.9-1.9Z"/>
    <path class="st5" d="M583.1,487.1c0-1,.8-1.9,1.9-1.9h0c1,0,1.9.9,1.9,1.9h0c0,1.1-.8,1.9-1.9,1.9h0c-1.1,0-1.9-.8-1.9-1.9Z"/>
    <path class="st5" d="M583.1,452.4c0-1.1.8-1.9,1.9-1.9h0c1,0,1.9.8,1.9,1.9h0c0,1-.8,1.9-1.9,1.9h0c-1.1,0-1.9-.9-1.9-1.9Z"/>
    <path class="st5" d="M544.8,556.6c0-4.2,3.4-7.6,7.6-7.6h0c4.2,0,7.6,3.4,7.6,7.6h0c0,4.2-3.4,7.6-7.6,7.6h0c-4.2,0-7.6-3.4-7.6-7.6Z"/>
    <path class="st5" d="M545.7,521.9c0-3.7,3-6.6,6.6-6.6h0c3.7,0,6.6,3,6.6,6.6h0c0,3.7-3,6.6-6.6,6.6h0c-3.7,0-6.6-3-6.6-6.6Z"/>
    <path class="st5" d="M550.5,487.1c0-1,.9-1.9,1.9-1.9h0c1.1,0,1.9.9,1.9,1.9h0c0,1.1-.8,1.9-1.9,1.9h0c-1,0-1.9-.8-1.9-1.9Z"/>
    <path class="st5" d="M550.5,452.4c0-1.1.9-1.9,1.9-1.9h0c1.1,0,1.9.8,1.9,1.9h0c0,1-.8,1.9-1.9,1.9h0c-1,0-1.9-.9-1.9-1.9Z"/>
    <path class="st5" d="M517.8,591.3c0-1.1.9-1.9,1.9-1.9h0c1,0,1.9.8,1.9,1.9h0c0,1-.8,1.9-1.9,1.9h0c-1.1,0-1.9-.9-1.9-1.9Z"/>
    <path class="st5" d="M514.5,556.6c0-2.9,2.3-5.2,5.2-5.2h0c2.9,0,5.2,2.3,5.2,5.2h0c0,2.9-2.3,5.2-5.2,5.2h0c-2.9,0-5.2-2.3-5.2-5.2Z"/>
    <path class="st5" d="M517.8,521.9c0-1.1.9-1.9,1.9-1.9h0c1.1,0,1.9.8,1.9,1.9h0c0,1-.8,1.9-1.9,1.9h0c-1,0-1.9-.9-1.9-1.9Z"/>
    <path class="st5" d="M517.8,487.1c0-1,.9-1.9,1.9-1.9h0c1.1,0,1.9.9,1.9,1.9h0c0,1.1-.8,1.9-1.9,1.9h0c-1,0-1.9-.8-1.9-1.9Z"/>
    <path class="st5" d="M516.9,452.4c0-1.6,1.3-2.8,2.8-2.8h0c1.6,0,2.8,1.3,2.8,2.8h0c0,1.6-1.3,2.8-2.8,2.8h0c-1.6,0-2.8-1.3-2.8-2.8Z"/>
    <path class="st5" d="M517.8,417.7c0-1,.9-1.9,1.9-1.9h0c1.1,0,1.9.9,1.9,1.9h0c0,1.1-.8,1.9-1.9,1.9h0c-1,0-1.9-.8-1.9-1.9Z"/>
    <path class="st5" d="M485.2,556.6c0-1,.8-1.9,1.9-1.9h0c1,0,1.9.9,1.9,1.9h0c0,1.1-.8,1.9-1.9,1.9h0c-1.1,0-1.9-.8-1.9-1.9Z"/>
    <path class="st5" d="M485.2,521.9c0-1.1.8-1.9,1.9-1.9h0c1,0,1.9.8,1.9,1.9h0c0,1-.8,1.9-1.9,1.9h0c-1.1,0-1.9-.9-1.9-1.9Z"/>
    <path class="st5" d="M483.3,487.1c0-2.1,1.7-3.8,3.8-3.8h0c2.1,0,3.8,1.7,3.8,3.8h0c0,2.1-1.7,3.8-3.8,3.8h0c-2.1,0-3.8-1.7-3.8-3.8Z"/>
    <path class="st5" d="M485.2,452.4c0-1.1.8-1.9,1.9-1.9h0c1,0,1.9.8,1.9,1.9h0c0,1-.8,1.9-1.9,1.9h0c-1.1,0-1.9-.9-1.9-1.9Z"/>
    <path class="st5" d="M485.2,417.7c0-1,.8-1.9,1.9-1.9h0c1,0,1.9.9,1.9,1.9h0c0,1.1-.8,1.9-1.9,1.9h0c-1.1,0-1.9-.8-1.9-1.9Z"/>
    <path class="st5" d="M452.6,591.3c0-1.1.9-1.9,1.9-1.9h0c1.1,0,1.9.8,1.9,1.9h0c0,1-.8,1.9-1.9,1.9h0c-1,0-1.9-.9-1.9-1.9Z"/>
    <path class="st5" d="M452.6,556.6c0-1,.9-1.9,1.9-1.9h0c1,0,1.9.9,1.9,1.9h0c0,1.1-.8,1.9-1.9,1.9h0c-1.1,0-1.9-.8-1.9-1.9Z"/>
    <path class="st5" d="M452.6,521.9c0-1.1.9-1.9,1.9-1.9h0c1.1,0,1.9.8,1.9,1.9h0c0,1-.8,1.9-1.9,1.9h0c-1,0-1.9-.9-1.9-1.9Z"/>
    <path class="st5" d="M452.6,487.1c0-1,.9-1.9,1.9-1.9h0c1,0,1.9.9,1.9,1.9h0c0,1.1-.8,1.9-1.9,1.9h0c-1.1,0-1.9-.9-1.9-1.9Z"/>
    <path class="st5" d="M452.6,452.4c0-1.1.9-1.9,1.9-1.9h0c1,0,1.9.8,1.9,1.9h0c0,1-.8,1.9-1.9,1.9h0c-1.1,0-1.9-.9-1.9-1.9Z"/>
    <path class="st5" d="M452.6,417.7c0-1,.9-1.9,1.9-1.9h0c1,0,1.9.9,1.9,1.9h0c0,1.1-.8,1.9-1.9,1.9h0c-1.1,0-1.9-.8-1.9-1.9Z"/>
    <path class="st5" d="M419.9,591.3c0-1.1.9-1.9,1.9-1.9h0c1,0,1.9.8,1.9,1.9h0c0,1-.8,1.9-1.9,1.9h0c-1.1,0-1.9-.9-1.9-1.9Z"/>
    <path class="st5" d="M417.1,556.6c0-2.6,2.1-4.7,4.7-4.7h0c2.6,0,4.7,2.1,4.7,4.7h0c0,2.6-2.1,4.7-4.7,4.7h0c-2.6,0-4.7-2.1-4.7-4.7Z"/>
    <path class="st5" d="M419.9,521.9c0-1.1.9-1.9,1.9-1.9h0c1.1,0,1.9.8,1.9,1.9h0c0,1-.8,1.9-1.9,1.9h0c-1,0-1.9-.9-1.9-1.9Z"/>
    <path class="st5" d="M419,487.1c0-1.6,1.3-2.8,2.8-2.8h0c1.6,0,2.8,1.3,2.8,2.8h0c0,1.6-1.3,2.8-2.8,2.8h0c-1.6,0-2.8-1.3-2.8-2.8Z"/>
    <path class="st5" d="M420,452.4c0-1.1.8-1.9,1.9-1.9h0c1.1,0,1.9.8,1.9,1.9h0c0,1-.8,1.9-1.9,1.9h0c-1,0-1.9-.9-1.9-1.9Z"/>
    <path class="st5" d="M420,417.7c0-1,.8-1.9,1.9-1.9h0c1.1,0,1.9.9,1.9,1.9h0c0,1.1-.8,1.9-1.9,1.9h0c-1,0-1.9-.8-1.9-1.9Z"/>
    <path class="st5" d="M387.3,556.6c0-1,.9-1.9,1.9-1.9h0c1.1,0,1.9.9,1.9,1.9h0c0,1.1-.9,1.9-1.9,1.9h0c-1,0-1.9-.8-1.9-1.9Z"/>
    <path class="st5" d="M387.3,521.9c0-1.1.9-1.9,1.9-1.9h0c1.1,0,1.9.8,1.9,1.9h0c0,1-.8,1.9-1.9,1.9h0c-1,0-1.9-.9-1.9-1.9Z"/>
    <path class="st5" d="M385.9,487.1c0-1.8,1.5-3.3,3.3-3.3h0c1.8,0,3.3,1.5,3.3,3.3h0c0,1.8-1.5,3.3-3.3,3.3h0c-1.8,0-3.3-1.5-3.3-3.3Z"/>
    <path class="st5" d="M387.3,452.4c0-1.1.9-1.9,1.9-1.9h0c1,0,1.9.8,1.9,1.9h0c0,1-.8,1.9-1.9,1.9h0c-1.1,0-1.9-.9-1.9-1.9Z"/>
    <path class="st5" d="M354.7,591.3c0-1.1.8-1.9,1.9-1.9h0c1.1,0,1.9.8,1.9,1.9h0c0,1-.9,1.9-1.9,1.9h0c-1,0-1.9-.9-1.9-1.9Z"/>
    <path class="st5" d="M354.7,556.6c0-1,.9-1.9,1.9-1.9h0c1.1,0,1.9.9,1.9,1.9h0c0,1.1-.9,1.9-1.9,1.9h0c-1,0-1.9-.8-1.9-1.9Z"/>
    <path class="st5" d="M354.7,521.9c0-1.1.8-1.9,1.9-1.9h0c1,0,1.9.8,1.9,1.9h0c0,1-.9,1.9-1.9,1.9h0c-1.1,0-1.9-.9-1.9-1.9Z"/>
    <path class="st5" d="M322.1,556.6c0-1,.8-1.9,1.9-1.9h0c1.1,0,1.9.9,1.9,1.9h0c0,1.1-.8,1.9-1.9,1.9h0c-1,0-1.9-.8-1.9-1.9Z"/>
    <path class="st5" d="M681,521.9c0-1.1.8-1.9,1.9-1.9h0c1.1,0,1.9.8,1.9,1.9h0c0,1-.8,1.9-1.9,1.9h0c-1,0-1.9-.9-1.9-1.9Z"/>
    <path class="st5" d="M681,487.1c0-1,.8-1.9,1.9-1.9h0c1.1,0,1.9.8,1.9,1.9h0c0,1.1-.8,1.9-1.9,1.9h0c-1,0-1.9-.8-1.9-1.9Z"/>
    <path class="st5" d="M681,452.4c0-1.1.8-1.9,1.9-1.9h0c1.1,0,1.9.8,1.9,1.9h0c0,1-.8,1.9-1.9,1.9h0c-1,0-1.9-.9-1.9-1.9Z"/>
    <path class="st5" d="M681,417.7c0-1,.8-1.9,1.9-1.9h0c1.1,0,1.9.9,1.9,1.9h0c0,1.1-.8,1.9-1.9,1.9h0c-1,0-1.9-.8-1.9-1.9Z"/>
    <path class="st5" d="M646.9,521.9c0-1.8,1.5-3.3,3.3-3.3h0c1.8,0,3.3,1.5,3.3,3.3h0c0,1.8-1.5,3.3-3.3,3.3h0c-1.8,0-3.3-1.5-3.3-3.3Z"/>
    <path class="st5" d="M646.9,487.1c0-1.8,1.5-3.3,3.3-3.3h0c1.8,0,3.3,1.5,3.3,3.3h0c0,1.8-1.5,3.3-3.3,3.3h0c-1.8,0-3.3-1.5-3.3-3.3Z"/>
    <path class="st5" d="M648.4,452.4c0-1.1.9-1.9,1.9-1.9h0c1,0,1.9.8,1.9,1.9h0c0,1-.8,1.9-1.9,1.9h0c-1.1,0-1.9-.9-1.9-1.9Z"/>
    <path class="st5" d="M648.4,417.7c0-1,.9-1.9,1.9-1.9h0c1,0,1.9.9,1.9,1.9h0c0,1.1-.8,1.9-1.9,1.9h0c-1.1,0-1.9-.8-1.9-1.9Z"/>
  </g>
  <path class="st9" d="M202.2,481c2.5-.8,5-1.6,7.2-2.4,20.9-7.1,42.7-24.1,65.3-17.9,34.4,9.3,72,20,102.5,39,4.4,2.7,8.7,5.6,13.7,6.8,6.1,1.4,12.4,0,18.3-1.8,15.2-4.5,29.8-11.2,43.1-19.8,5.8-3.7,11.6-8,18.5-8.9,10-1.4,20.4,5.4,23.2,15,2.6,9.3-1.5,19.4-8.1,26.4-6.6,7-15.4,11.5-24,15.9-38.7,19.6-77.4,39.3-116.1,58.9-5.8,3-11.7,5.9-18,7.9-16,4.9-33.3,2.7-49.3-1.9-18.7-5.5-38.8-14.3-56.9-6.8-1.9.8-3.9,1.7-5.8,1-1.2-.5-2-1.5-2.7-2.5-14.5-18.8-58.7-66.3-39.9-92.1s18.4-13.1,29.1-16.6Z"/>
  <rect class="st9" x="327.3" y="277.6" width="125.3" height="125.3" rx="12" ry="12"/>
  <path class="st7" d="M443.7,271.5h-110.3c-8.7,0-15.9,7.1-15.9,15.8v109.1c0,8.7,7.1,15.8,15.9,15.8h110.3c8.7,0,15.8-7.1,15.8-15.8v-109.1c0-8.7-7.1-15.8-15.8-15.8h0ZM378.1,289.3h20.9v21.1l-5.2-3.8c-1.6-1.1-3.4-1.7-5.2-1.7s-3.7.6-5.2,1.7l-5.2,3.8v-21.1ZM441.7,394.5h-106.5v-105.2h25v38.6c0,3.3,1.9,6.4,4.9,7.9,3,1.5,6.6,1.2,9.3-.8l14.1-10.3,14.1,10.3c1.6,1.1,3.4,1.7,5.2,1.7s2.8-.3,4-1c3-1.5,4.9-4.6,4.9-7.9v-38.6h25v105.2ZM511.1,287.7c-21.5-48.4-69.5-79.7-122.5-79.7s-63.2,11.6-87.5,32.5c-20.1,17.4-34.6,40.3-41.6,65.7l-10.4-16.8c-2.6-4.2-8.1-5.5-12.2-2.9-4.2,2.6-5.5,8.1-2.9,12.2l22.5,36.4c1.7,2.7,4.6,4.2,7.6,4.2s3.2-.4,4.7-1.3l36.4-22.5c4.2-2.6,5.5-8.1,2.9-12.2s-8.1-5.5-12.2-2.9l-19.7,12.2c13.1-50.9,58.7-86.8,112.4-86.8s87.7,27.1,106.3,69.2c2,4.5,7.2,6.5,11.7,4.5,4.5-2,6.5-7.2,4.5-11.7h0ZM506.3,481.2c-8.9-16.3-29.5-22.4-45.8-13.5l-65.5,35.6c-4-7.4-10.7-13.4-19.4-16.2-14.4-4.6-28.8-9.3-43.2-13.9-14.2-4.6-28.3-9.1-42.5-13.7-25.3-8.2-50-5.8-73.3,6.9l-59.2,32.2-5.7-9.9c-2.1-3.6-5.4-6.1-9.4-7.2-4-1.1-8.1-.5-11.6,1.5l-32.4,18.6c-7.3,4.3-9.8,13.7-5.6,21h0s72.7,126.2,72.7,126.2c2,3.6,5.3,6.1,9.3,7.2,1.4.4,2.7.6,4.1.6,2.7,0,5.3-.7,7.7-2.1l32.3-18.6c7.4-4.2,9.9-13.7,5.6-21l-5.4-9.3,1.5-.8c13.1-7.1,26.9-8.4,41.1-3.8l31.3,10.1c7.4,2.4,14.8,3.6,22,3.6,11.3,0,22.4-2.9,33-8.7l144.8-78.8c16.3-8.9,22.4-29.5,13.5-45.8ZM179.7,637.9l-70.4-122.1,28.2-16.2,8.6,15c0,0,0,.1,0,.2,0,.2.2.3.3.5l52.4,91s0,0,0,.1c0,0,.1.2.2.3l8.7,15.1-28.2,16.2ZM484.3,511.4l-144.8,78.8c-13.1,7.1-26.9,8.4-41.1,3.8l-31.3-10.1c-19-6.1-37.5-4.4-55,5.1l-1.8,1-43.9-76.2,58.8-32c18.9-10.3,38.8-12.2,59.4-5.6,14.1,4.6,28.3,9.1,42.5,13.7,14.4,4.6,28.8,9.3,43.2,13.9,5.9,1.9,10,7,10.9,12.7,0,.4,0,.7.1,1.1.2,2.1,0,4.2-.7,6.3-1.3,4.1-4.1,7.4-8,9.3-3.8,2-8.2,2.3-12.2,1-24.2-7.8-48.4-15.6-72.7-23.4-4.7-1.5-9.7,1.1-11.2,5.7s1.1,9.7,5.7,11.2c24.2,7.8,48.4,15.6,72.7,23.4,8.6,2.8,17.7,2,25.8-2.1,8-4.1,14-11.1,16.8-19.7.9-2.7,1.4-5.5,1.6-8.2l70-38.1c7.8-4.2,17.5-1.3,21.7,6.4,4.2,7.8,1.3,17.5-6.4,21.8h0ZM260.9,151.7c-.6-.2-1.3-.2-2-.2h-1.5c-2.1,0-3.9-1.8-3.9-3.9s1.8-3.9,3.9-3.9h3c1.2,0,2.4.6,3.1,1.6,2.9,3.9,8.5,4.8,12.4,1.9,3.9-2.9,4.8-8.5,1.9-12.4-2.8-3.8-6.8-6.6-11.3-7.9v-3.5c0-4.9-4-8.9-8.9-8.9s-8.9,4-8.9,8.9v4.4c-7.6,3.3-13,11-13,19.8s8.1,19.9,18.6,21.4c.6.2,1.3.2,2,.2h1.5c2.1,0,3.9,1.8,3.9,3.9s-1.8,3.9-3.9,3.9h-3c-1.2,0-2.4-.6-3.1-1.6-2.9-3.9-8.5-4.8-12.4-1.9s-4.8,8.5-1.9,12.4c2.8,3.8,6.8,6.5,11.2,7.9v3.4c0,4.9,4,8.9,8.9,8.9s8.9-4,8.9-8.9v-4.3c7.7-3.3,13-11,13-19.8s-8.1-19.9-18.7-21.4h0ZM260.9,151.7c-.6-.2-1.3-.2-2-.2h-1.5c-2.1,0-3.9-1.8-3.9-3.9s1.8-3.9,3.9-3.9h3c1.2,0,2.4.6,3.1,1.6,2.9,3.9,8.5,4.8,12.4,1.9,3.9-2.9,4.8-8.5,1.9-12.4-2.8-3.8-6.8-6.6-11.3-7.9v-3.5c0-4.9-4-8.9-8.9-8.9s-8.9,4-8.9,8.9v4.4c-7.6,3.3-13,11-13,19.8s8.1,19.9,18.6,21.4c.6.2,1.3.2,2,.2h1.5c2.1,0,3.9,1.8,3.9,3.9s-1.8,3.9-3.9,3.9h-3c-1.2,0-2.4-.6-3.1-1.6-2.9-3.9-8.5-4.8-12.4-1.9s-4.8,8.5-1.9,12.4c2.8,3.8,6.8,6.5,11.2,7.9v3.4c0,4.9,4,8.9,8.9,8.9s8.9-4,8.9-8.9v-4.3c7.7-3.3,13-11,13-19.8s-8.1-19.9-18.7-21.4h0ZM260.9,151.7c-.6-.2-1.3-.2-2-.2h-1.5c-2.1,0-3.9-1.8-3.9-3.9s1.8-3.9,3.9-3.9h3c1.2,0,2.4.6,3.1,1.6,2.9,3.9,8.5,4.8,12.4,1.9,3.9-2.9,4.8-8.5,1.9-12.4-2.8-3.8-6.8-6.6-11.3-7.9v-3.5c0-4.9-4-8.9-8.9-8.9s-8.9,4-8.9,8.9v4.4c-7.6,3.3-13,11-13,19.8s8.1,19.9,18.6,21.4c.6.2,1.3.2,2,.2h1.5c2.1,0,3.9,1.8,3.9,3.9s-1.8,3.9-3.9,3.9h-3c-1.2,0-2.4-.6-3.1-1.6-2.9-3.9-8.5-4.8-12.4-1.9s-4.8,8.5-1.9,12.4c2.8,3.8,6.8,6.5,11.2,7.9v3.4c0,4.9,4,8.9,8.9,8.9s8.9-4,8.9-8.9v-4.3c7.7-3.3,13-11,13-19.8s-8.1-19.9-18.7-21.4h0ZM260.9,151.7c-.6-.2-1.3-.2-2-.2h-1.5c-2.1,0-3.9-1.8-3.9-3.9s1.8-3.9,3.9-3.9h3c1.2,0,2.4.6,3.1,1.6,2.9,3.9,8.5,4.8,12.4,1.9,3.9-2.9,4.8-8.5,1.9-12.4-2.8-3.8-6.8-6.6-11.3-7.9v-3.5c0-4.9-4-8.9-8.9-8.9s-8.9,4-8.9,8.9v4.4c-7.6,3.3-13,11-13,19.8s8.1,19.9,18.6,21.4c.6.2,1.3.2,2,.2h1.5c2.1,0,3.9,1.8,3.9,3.9s-1.8,3.9-3.9,3.9h-3c-1.2,0-2.4-.6-3.1-1.6-2.9-3.9-8.5-4.8-12.4-1.9s-4.8,8.5-1.9,12.4c2.8,3.8,6.8,6.5,11.2,7.9v3.4c0,4.9,4,8.9,8.9,8.9s8.9-4,8.9-8.9v-4.3c7.7-3.3,13-11,13-19.8s-8.1-19.9-18.7-21.4h0ZM257.7,88.8c-39.4,0-71.5,32.1-71.5,71.5s32.1,71.5,71.5,71.5,71.5-32.1,71.5-71.5-32.1-71.5-71.5-71.5h0ZM257.7,214c-29.6,0-53.7-24.1-53.7-53.7s24.1-53.7,53.7-53.7,53.7,24.1,53.7,53.7-24.1,53.7-53.7,53.7h0ZM260.9,151.7c-.6-.2-1.3-.2-2-.2h-1.5c-2.1,0-3.9-1.8-3.9-3.9s1.8-3.9,3.9-3.9h3c1.2,0,2.4.6,3.1,1.6,2.9,3.9,8.5,4.8,12.4,1.9,3.9-2.9,4.8-8.5,1.9-12.4-2.8-3.8-6.8-6.6-11.3-7.9v-3.5c0-4.9-4-8.9-8.9-8.9s-8.9,4-8.9,8.9v4.4c-7.6,3.3-13,11-13,19.8s8.1,19.9,18.6,21.4c.6.2,1.3.2,2,.2h1.5c2.1,0,3.9,1.8,3.9,3.9s-1.8,3.9-3.9,3.9h-3c-1.2,0-2.4-.6-3.1-1.6-2.9-3.9-8.5-4.8-12.4-1.9s-4.8,8.5-1.9,12.4c2.8,3.8,6.8,6.5,11.2,7.9v3.4c0,4.9,4,8.9,8.9,8.9s8.9-4,8.9-8.9v-4.3c7.7-3.3,13-11,13-19.8s-8.1-19.9-18.7-21.4h0ZM260.9,151.7c-.6-.2-1.3-.2-2-.2h-1.5c-2.1,0-3.9-1.8-3.9-3.9s1.8-3.9,3.9-3.9h3c1.2,0,2.4.6,3.1,1.6,2.9,3.9,8.5,4.8,12.4,1.9,3.9-2.9,4.8-8.5,1.9-12.4-2.8-3.8-6.8-6.6-11.3-7.9v-3.5c0-4.9-4-8.9-8.9-8.9s-8.9,4-8.9,8.9v4.4c-7.6,3.3-13,11-13,19.8s8.1,19.9,18.6,21.4c.6.2,1.3.2,2,.2h1.5c2.1,0,3.9,1.8,3.9,3.9s-1.8,3.9-3.9,3.9h-3c-1.2,0-2.4-.6-3.1-1.6-2.9-3.9-8.5-4.8-12.4-1.9s-4.8,8.5-1.9,12.4c2.8,3.8,6.8,6.5,11.2,7.9v3.4c0,4.9,4,8.9,8.9,8.9s8.9-4,8.9-8.9v-4.3c7.7-3.3,13-11,13-19.8s-8.1-19.9-18.7-21.4h0ZM260.9,151.7c-.6-.2-1.3-.2-2-.2h-1.5c-2.1,0-3.9-1.8-3.9-3.9s1.8-3.9,3.9-3.9h3c1.2,0,2.4.6,3.1,1.6,2.9,3.9,8.5,4.8,12.4,1.9,3.9-2.9,4.8-8.5,1.9-12.4-2.8-3.8-6.8-6.6-11.3-7.9v-3.5c0-4.9-4-8.9-8.9-8.9s-8.9,4-8.9,8.9v4.4c-7.6,3.3-13,11-13,19.8s8.1,19.9,18.6,21.4c.6.2,1.3.2,2,.2h1.5c2.1,0,3.9,1.8,3.9,3.9s-1.8,3.9-3.9,3.9h-3c-1.2,0-2.4-.6-3.1-1.6-2.9-3.9-8.5-4.8-12.4-1.9s-4.8,8.5-1.9,12.4c2.8,3.8,6.8,6.5,11.2,7.9v3.4c0,4.9,4,8.9,8.9,8.9s8.9-4,8.9-8.9v-4.3c7.7-3.3,13-11,13-19.8s-8.1-19.9-18.7-21.4h0ZM260.9,151.7c-.6-.2-1.3-.2-2-.2h-1.5c-2.1,0-3.9-1.8-3.9-3.9s1.8-3.9,3.9-3.9h3c1.2,0,2.4.6,3.1,1.6,2.9,3.9,8.5,4.8,12.4,1.9,3.9-2.9,4.8-8.5,1.9-12.4-2.8-3.8-6.8-6.6-11.3-7.9v-3.5c0-4.9-4-8.9-8.9-8.9s-8.9,4-8.9,8.9v4.4c-7.6,3.3-13,11-13,19.8s8.1,19.9,18.6,21.4c.6.2,1.3.2,2,.2h1.5c2.1,0,3.9,1.8,3.9,3.9s-1.8,3.9-3.9,3.9h-3c-1.2,0-2.4-.6-3.1-1.6-2.9-3.9-8.5-4.8-12.4-1.9s-4.8,8.5-1.9,12.4c2.8,3.8,6.8,6.5,11.2,7.9v3.4c0,4.9,4,8.9,8.9,8.9s8.9-4,8.9-8.9v-4.3c7.7-3.3,13-11,13-19.8s-8.1-19.9-18.7-21.4h0ZM260.9,151.7c-.6-.2-1.3-.2-2-.2h-1.5c-2.1,0-3.9-1.8-3.9-3.9s1.8-3.9,3.9-3.9h3c1.2,0,2.4.6,3.1,1.6,2.9,3.9,8.5,4.8,12.4,1.9,3.9-2.9,4.8-8.5,1.9-12.4-2.8-3.8-6.8-6.6-11.3-7.9v-3.5c0-4.9-4-8.9-8.9-8.9s-8.9,4-8.9,8.9v4.4c-7.6,3.3-13,11-13,19.8s8.1,19.9,18.6,21.4c.6.2,1.3.2,2,.2h1.5c2.1,0,3.9,1.8,3.9,3.9s-1.8,3.9-3.9,3.9h-3c-1.2,0-2.4-.6-3.1-1.6-2.9-3.9-8.5-4.8-12.4-1.9s-4.8,8.5-1.9,12.4c2.8,3.8,6.8,6.5,11.2,7.9v3.4c0,4.9,4,8.9,8.9,8.9s8.9-4,8.9-8.9v-4.3c7.7-3.3,13-11,13-19.8s-8.1-19.9-18.7-21.4h0ZM522.6,151.7c-.6-.2-1.3-.2-2-.2h-1.5c-2.1,0-3.9-1.8-3.9-3.9s1.8-3.9,3.9-3.9h2.9c1.3,0,2.4.6,3.1,1.6,2.9,3.9,8.5,4.8,12.4,1.9,3.9-2.9,4.8-8.5,1.9-12.4-2.8-3.8-6.8-6.6-11.3-7.9v-3.5c0-4.9-4-8.9-8.9-8.9s-8.9,4-8.9,8.9v4.4c-7.6,3.3-13,11-13,19.8s8.1,19.9,18.6,21.4c.6.2,1.3.2,2,.2h1.5c2.1,0,3.9,1.8,3.9,3.9s-1.8,3.9-3.9,3.9h-2.9c-1.3,0-2.4-.6-3.1-1.6-2.9-3.9-8.5-4.8-12.4-1.9-3.9,2.9-4.8,8.5-1.9,12.4,2.8,3.8,6.8,6.5,11.2,7.9v3.4c0,4.9,4,8.9,8.9,8.9s8.9-4,8.9-8.9v-4.3c7.7-3.3,13-11,13-19.8s-8.1-19.9-18.6-21.4h0ZM522.6,151.7c-.6-.2-1.3-.2-2-.2h-1.5c-2.1,0-3.9-1.8-3.9-3.9s1.8-3.9,3.9-3.9h2.9c1.3,0,2.4.6,3.1,1.6,2.9,3.9,8.5,4.8,12.4,1.9,3.9-2.9,4.8-8.5,1.9-12.4-2.8-3.8-6.8-6.6-11.3-7.9v-3.5c0-4.9-4-8.9-8.9-8.9s-8.9,4-8.9,8.9v4.4c-7.6,3.3-13,11-13,19.8s8.1,19.9,18.6,21.4c.6.2,1.3.2,2,.2h1.5c2.1,0,3.9,1.8,3.9,3.9s-1.8,3.9-3.9,3.9h-2.9c-1.3,0-2.4-.6-3.1-1.6-2.9-3.9-8.5-4.8-12.4-1.9-3.9,2.9-4.8,8.5-1.9,12.4,2.8,3.8,6.8,6.5,11.2,7.9v3.4c0,4.9,4,8.9,8.9,8.9s8.9-4,8.9-8.9v-4.3c7.7-3.3,13-11,13-19.8s-8.1-19.9-18.6-21.4h0ZM522.6,151.7c-.6-.2-1.3-.2-2-.2h-1.5c-2.1,0-3.9-1.8-3.9-3.9s1.8-3.9,3.9-3.9h2.9c1.3,0,2.4.6,3.1,1.6,2.9,3.9,8.5,4.8,12.4,1.9,3.9-2.9,4.8-8.5,1.9-12.4-2.8-3.8-6.8-6.6-11.3-7.9v-3.5c0-4.9-4-8.9-8.9-8.9s-8.9,4-8.9,8.9v4.4c-7.6,3.3-13,11-13,19.8s8.1,19.9,18.6,21.4c.6.2,1.3.2,2,.2h1.5c2.1,0,3.9,1.8,3.9,3.9s-1.8,3.9-3.9,3.9h-2.9c-1.3,0-2.4-.6-3.1-1.6-2.9-3.9-8.5-4.8-12.4-1.9-3.9,2.9-4.8,8.5-1.9,12.4,2.8,3.8,6.8,6.5,11.2,7.9v3.4c0,4.9,4,8.9,8.9,8.9s8.9-4,8.9-8.9v-4.3c7.7-3.3,13-11,13-19.8s-8.1-19.9-18.6-21.4h0ZM522.6,151.7c-.6-.2-1.3-.2-2-.2h-1.5c-2.1,0-3.9-1.8-3.9-3.9s1.8-3.9,3.9-3.9h2.9c1.3,0,2.4.6,3.1,1.6,2.9,3.9,8.5,4.8,12.4,1.9,3.9-2.9,4.8-8.5,1.9-12.4-2.8-3.8-6.8-6.6-11.3-7.9v-3.5c0-4.9-4-8.9-8.9-8.9s-8.9,4-8.9,8.9v4.4c-7.6,3.3-13,11-13,19.8s8.1,19.9,18.6,21.4c.6.2,1.3.2,2,.2h1.5c2.1,0,3.9,1.8,3.9,3.9s-1.8,3.9-3.9,3.9h-2.9c-1.3,0-2.4-.6-3.1-1.6-2.9-3.9-8.5-4.8-12.4-1.9-3.9,2.9-4.8,8.5-1.9,12.4,2.8,3.8,6.8,6.5,11.2,7.9v3.4c0,4.9,4,8.9,8.9,8.9s8.9-4,8.9-8.9v-4.3c7.7-3.3,13-11,13-19.8s-8.1-19.9-18.6-21.4h0ZM519.3,88.8c-39.4,0-71.5,32.1-71.5,71.5s32.1,71.5,71.5,71.5,71.5-32.1,71.5-71.5-32.1-71.5-71.5-71.5ZM519.3,214c-29.6,0-53.7-24.1-53.7-53.7s24.1-53.7,53.7-53.7,53.7,24.1,53.7,53.7-24.1,53.7-53.7,53.7ZM522.6,151.7c-.6-.2-1.3-.2-2-.2h-1.5c-2.1,0-3.9-1.8-3.9-3.9s1.8-3.9,3.9-3.9h2.9c1.3,0,2.4.6,3.1,1.6,2.9,3.9,8.5,4.8,12.4,1.9,3.9-2.9,4.8-8.5,1.9-12.4-2.8-3.8-6.8-6.6-11.3-7.9v-3.5c0-4.9-4-8.9-8.9-8.9s-8.9,4-8.9,8.9v4.4c-7.6,3.3-13,11-13,19.8s8.1,19.9,18.6,21.4c.6.2,1.3.2,2,.2h1.5c2.1,0,3.9,1.8,3.9,3.9s-1.8,3.9-3.9,3.9h-2.9c-1.3,0-2.4-.6-3.1-1.6-2.9-3.9-8.5-4.8-12.4-1.9-3.9,2.9-4.8,8.5-1.9,12.4,2.8,3.8,6.8,6.5,11.2,7.9v3.4c0,4.9,4,8.9,8.9,8.9s8.9-4,8.9-8.9v-4.3c7.7-3.3,13-11,13-19.8s-8.1-19.9-18.6-21.4h0ZM522.6,151.7c-.6-.2-1.3-.2-2-.2h-1.5c-2.1,0-3.9-1.8-3.9-3.9s1.8-3.9,3.9-3.9h2.9c1.3,0,2.4.6,3.1,1.6,2.9,3.9,8.5,4.8,12.4,1.9,3.9-2.9,4.8-8.5,1.9-12.4-2.8-3.8-6.8-6.6-11.3-7.9v-3.5c0-4.9-4-8.9-8.9-8.9s-8.9,4-8.9,8.9v4.4c-7.6,3.3-13,11-13,19.8s8.1,19.9,18.6,21.4c.6.2,1.3.2,2,.2h1.5c2.1,0,3.9,1.8,3.9,3.9s-1.8,3.9-3.9,3.9h-2.9c-1.3,0-2.4-.6-3.1-1.6-2.9-3.9-8.5-4.8-12.4-1.9-3.9,2.9-4.8,8.5-1.9,12.4,2.8,3.8,6.8,6.5,11.2,7.9v3.4c0,4.9,4,8.9,8.9,8.9s8.9-4,8.9-8.9v-4.3c7.7-3.3,13-11,13-19.8s-8.1-19.9-18.6-21.4h0ZM522.6,151.7c-.6-.2-1.3-.2-2-.2h-1.5c-2.1,0-3.9-1.8-3.9-3.9s1.8-3.9,3.9-3.9h2.9c1.3,0,2.4.6,3.1,1.6,2.9,3.9,8.5,4.8,12.4,1.9,3.9-2.9,4.8-8.5,1.9-12.4-2.8-3.8-6.8-6.6-11.3-7.9v-3.5c0-4.9-4-8.9-8.9-8.9s-8.9,4-8.9,8.9v4.4c-7.6,3.3-13,11-13,19.8s8.1,19.9,18.6,21.4c.6.2,1.3.2,2,.2h1.5c2.1,0,3.9,1.8,3.9,3.9s-1.8,3.9-3.9,3.9h-2.9c-1.3,0-2.4-.6-3.1-1.6-2.9-3.9-8.5-4.8-12.4-1.9-3.9,2.9-4.8,8.5-1.9,12.4,2.8,3.8,6.8,6.5,11.2,7.9v3.4c0,4.9,4,8.9,8.9,8.9s8.9-4,8.9-8.9v-4.3c7.7-3.3,13-11,13-19.8s-8.1-19.9-18.6-21.4h0ZM522.6,151.7c-.6-.2-1.3-.2-2-.2h-1.5c-2.1,0-3.9-1.8-3.9-3.9s1.8-3.9,3.9-3.9h2.9c1.3,0,2.4.6,3.1,1.6,2.9,3.9,8.5,4.8,12.4,1.9,3.9-2.9,4.8-8.5,1.9-12.4-2.8-3.8-6.8-6.6-11.3-7.9v-3.5c0-4.9-4-8.9-8.9-8.9s-8.9,4-8.9,8.9v4.4c-7.6,3.3-13,11-13,19.8s8.1,19.9,18.6,21.4c.6.2,1.3.2,2,.2h1.5c2.1,0,3.9,1.8,3.9,3.9s-1.8,3.9-3.9,3.9h-2.9c-1.3,0-2.4-.6-3.1-1.6-2.9-3.9-8.5-4.8-12.4-1.9-3.9,2.9-4.8,8.5-1.9,12.4,2.8,3.8,6.8,6.5,11.2,7.9v3.4c0,4.9,4,8.9,8.9,8.9s8.9-4,8.9-8.9v-4.3c7.7-3.3,13-11,13-19.8s-8.1-19.9-18.6-21.4h0ZM522.6,151.7c-.6-.2-1.3-.2-2-.2h-1.5c-2.1,0-3.9-1.8-3.9-3.9s1.8-3.9,3.9-3.9h2.9c1.3,0,2.4.6,3.1,1.6,2.9,3.9,8.5,4.8,12.4,1.9,3.9-2.9,4.8-8.5,1.9-12.4-2.8-3.8-6.8-6.6-11.3-7.9v-3.5c0-4.9-4-8.9-8.9-8.9s-8.9,4-8.9,8.9v4.4c-7.6,3.3-13,11-13,19.8s8.1,19.9,18.6,21.4c.6.2,1.3.2,2,.2h1.5c2.1,0,3.9,1.8,3.9,3.9s-1.8,3.9-3.9,3.9h-2.9c-1.3,0-2.4-.6-3.1-1.6-2.9-3.9-8.5-4.8-12.4-1.9-3.9,2.9-4.8,8.5-1.9,12.4,2.8,3.8,6.8,6.5,11.2,7.9v3.4c0,4.9,4,8.9,8.9,8.9s8.9-4,8.9-8.9v-4.3c7.7-3.3,13-11,13-19.8s-8.1-19.9-18.6-21.4h0Z"/>
  <path class="st10" d="M378.1,289.3h20.9v21.1l-5.2-3.8c-1.6-1.1-3.4-1.7-5.2-1.7s-3.7.6-5.2,1.7l-5.2,3.8v-21.1Z"/>
  <path class="st6" d="M573.1,160.3c0,29.6-24.1,53.7-53.7,53.7s-53.7-24.1-53.7-53.7,24.1-53.7,53.7-53.7,53.7,24.1,53.7,53.7Z"/>
  <path class="st7" d="M541.2,173.1c0-10.9-8.1-19.9-18.6-21.4-.6-.2-1.3-.2-2-.2h-1.5c-2.1,0-3.9-1.8-3.9-3.9s1.8-3.9,3.9-3.9h2.9c1.3,0,2.4.6,3.1,1.6,2.9,3.9,8.5,4.8,12.4,1.9,3.9-2.9,4.8-8.5,1.9-12.4-2.8-3.8-6.8-6.6-11.3-7.9v-3.5c0-4.9-4-8.9-8.9-8.9s-8.9,4-8.9,8.9v4.4c-7.6,3.3-13,11-13,19.8s8.1,19.9,18.6,21.4c.6.2,1.3.2,2,.2h1.5c2.1,0,3.9,1.8,3.9,3.9s-1.8,3.9-3.9,3.9h-2.9c-1.3,0-2.4-.6-3.1-1.6-2.9-3.9-8.5-4.8-12.4-1.9-3.9,2.9-4.8,8.5-1.9,12.4,2.8,3.8,6.8,6.5,11.2,7.9v3.4c0,4.9,4,8.9,8.9,8.9s8.9-4,8.9-8.9v-4.3c7.7-3.3,13-11,13-19.8h0Z"/>
  <path class="st6" d="M311.4,160.3c0,29.6-24.1,53.7-53.7,53.7s-53.7-24.1-53.7-53.7,24.1-53.7,53.7-53.7,53.7,24.1,53.7,53.7h0Z"/>
  <path class="st7" d="M279.6,173.1c0-10.9-8.1-19.9-18.7-21.4-.6-.2-1.3-.2-2-.2h-1.5c-2.1,0-3.9-1.8-3.9-3.9s1.8-3.9,3.9-3.9h3c1.2,0,2.4.6,3.1,1.6,2.9,3.9,8.5,4.8,12.4,1.9,3.9-2.9,4.8-8.5,1.9-12.4-2.8-3.8-6.8-6.6-11.3-7.9v-3.5c0-4.9-4-8.9-8.9-8.9s-8.9,4-8.9,8.9v4.4c-7.6,3.3-13,11-13,19.8s8.1,19.9,18.6,21.4c.6.2,1.3.2,2,.2h1.5c2.1,0,3.9,1.8,3.9,3.9s-1.8,3.9-3.9,3.9h-3c-1.2,0-2.4-.6-3.1-1.6-2.9-3.9-8.5-4.8-12.4-1.9s-4.8,8.5-1.9,12.4c2.8,3.8,6.8,6.5,11.2,7.9v3.4c0,4.9,4,8.9,8.9,8.9s8.9-4,8.9-8.9v-4.3c7.7-3.3,13-11,13-19.8h0Z"/>
  <path class="st4" d="M199,606.4s0,0,0-.1l-52.4-91c0-.2-.2-.3-.3-.5,0,0,0-.1,0-.2l-8.6-15-28.2,16.2,70.4,122.1,28.2-16.2-8.7-15.1c0,0-.1-.2-.2-.3h0Z"/>
  <path class="st7" d="M543.1,385.2l-22.5-36.4c-2.6-4.2-8.1-5.5-12.2-2.9l-36.5,22.5c-4.2,2.6-5.5,8.1-2.9,12.2,2.6,4.2,8.1,5.5,12.2,2.9l19.8-12.2c-13.2,50.3-59.4,86.8-112.4,86.8s-87.6-27.1-106.2-69.2c-2-4.5-7.2-6.5-11.7-4.5-4.5,2-6.5,7.2-4.5,11.7,21.5,48.4,69.5,79.8,122.5,79.8s63.5-11.7,87.8-32.8c20-17.4,34.2-40.1,41.2-65.3l10.3,16.7c1.7,2.7,4.6,4.2,7.6,4.2s3.2-.4,4.7-1.3c4.2-2.6,5.5-8.1,2.9-12.2Z"/>
</svg>