<?xml version="1.0" encoding="UTF-8"?>
<svg id="Layer_1" xmlns="http://www.w3.org/2000/svg" version="1.1" viewBox="0 0 720 720">
  <!-- Generator: Adobe Illustrator 29.7.1, SVG Export Plug-In . SVG Version: 2.1.1 Build 8)  -->
  <defs>
    <style>
      .st0 {
        fill: #60b7ff;
      }

      .st0, .st1, .st2, .st3, .st4, .st5, .st6, .st7 {
        fill-rule: evenodd;
      }

      .st1 {
        fill: #293553;
      }

      .st8 {
        fill: #35bcc7;
      }

      .st2 {
        fill: #fd4755;
      }

      .st9 {
        fill: #6496bc;
      }

      .st3 {
        fill: #ffda2d;
      }

      .st4 {
        fill: #9a5a9a;
      }

      .st5, .st10 {
        fill: #eceff1;
      }

      .st6 {
        fill: #d1d1d6;
      }

      .st7 {
        fill: #ffd064;
      }

      .st11 {
        fill: #fff;
        isolation: isolate;
      }
    </style>
  </defs>
  <rect class="st11" width="720" height="720"/>
  <g>
    <path class="st9" d="M263.9,559c0,1.1-.9,1.9-1.9,1.9h0c-1.1,0-1.9-.8-1.9-1.9h0c0-1,.8-1.9,1.9-1.9h0c1,0,1.9.9,1.9,1.9Z"/>
    <path class="st9" d="M265.8,593.7c0,2.1-1.7,3.8-3.8,3.8h0c-2.1,0-3.8-1.7-3.8-3.8h0c0-2.1,1.7-3.8,3.8-3.8h0c2.1,0,3.8,1.7,3.8,3.8Z"/>
    <path class="st9" d="M263.9,628.4c0,1.1-.9,1.9-1.9,1.9h0c-1.1,0-1.9-.8-1.9-1.9h0c0-1,.8-1.9,1.9-1.9h0c1,0,1.9.9,1.9,1.9Z"/>
    <path class="st9" d="M296.5,524.2c0,1-.8,1.9-1.9,1.9h0c-1,0-1.9-.8-1.9-1.9h0c0-1.1.8-1.9,1.9-1.9h0c1.1,0,1.9.8,1.9,1.9Z"/>
    <path class="st9" d="M296.5,559c0,1.1-.8,1.9-1.9,1.9h0c-1,0-1.9-.8-1.9-1.9h0c0-1,.8-1.9,1.9-1.9h0c1.1,0,1.9.9,1.9,1.9Z"/>
    <path class="st9" d="M296.5,593.7c0,1-.8,1.9-1.9,1.9h0c-1,0-1.9-.9-1.9-1.9h0c0-1.1.8-1.9,1.9-1.9h0c1.1,0,1.9.8,1.9,1.9Z"/>
    <path class="st9" d="M296.5,628.4c0,1.1-.8,1.9-1.9,1.9h0c-1,0-1.9-.8-1.9-1.9h0c0-1,.8-1.9,1.9-1.9h0c1.1,0,1.9.9,1.9,1.9Z"/>
    <path class="st9" d="M334.9,524.2c0,4.2-3.4,7.6-7.6,7.6h0c-4.2,0-7.6-3.4-7.6-7.6h0c0-4.2,3.4-7.6,7.6-7.6h0c4.2,0,7.6,3.4,7.6,7.6Z"/>
    <path class="st9" d="M333.9,559c0,3.7-3,6.6-6.6,6.6h0c-3.7,0-6.6-3-6.6-6.6h0c0-3.7,3-6.6,6.6-6.6h0c3.7,0,6.6,3,6.6,6.6Z"/>
    <path class="st9" d="M329.2,593.7c0,1-.9,1.9-1.9,1.9h0c-1.1,0-1.9-.9-1.9-1.9h0c0-1.1.8-1.9,1.9-1.9h0c1,0,1.9.8,1.9,1.9Z"/>
    <path class="st9" d="M329.2,628.4c0,1.1-.9,1.9-1.9,1.9h0c-1.1,0-1.9-.8-1.9-1.9h0c0-1,.8-1.9,1.9-1.9h0c1,0,1.9.9,1.9,1.9Z"/>
    <path class="st9" d="M361.8,489.5c0,1.1-.9,1.9-1.9,1.9h0c-1,0-1.9-.8-1.9-1.9h0c0-1,.8-1.9,1.9-1.9h0c1.1,0,1.9.9,1.9,1.9Z"/>
    <path class="st9" d="M365.1,524.2c0,2.9-2.3,5.2-5.2,5.2h0c-2.9,0-5.2-2.3-5.2-5.2h0c0-2.9,2.3-5.2,5.2-5.2h0c2.9,0,5.2,2.3,5.2,5.2Z"/>
    <path class="st9" d="M361.8,559c0,1.1-.9,1.9-1.9,1.9h0c-1.1,0-1.9-.8-1.9-1.9h0c0-1,.8-1.9,1.9-1.9h0c1,0,1.9.9,1.9,1.9Z"/>
    <path class="st9" d="M361.8,593.7c0,1-.9,1.9-1.9,1.9h0c-1.1,0-1.9-.9-1.9-1.9h0c0-1.1.8-1.9,1.9-1.9h0c1,0,1.9.8,1.9,1.9Z"/>
    <path class="st9" d="M362.8,628.4c0,1.6-1.3,2.8-2.8,2.8h0c-1.6,0-2.8-1.3-2.8-2.8h0c0-1.6,1.3-2.8,2.8-2.8h0c1.6,0,2.8,1.3,2.8,2.8Z"/>
    <path class="st9" d="M361.8,663.2c0,1-.9,1.9-1.9,1.9h0c-1.1,0-1.9-.9-1.9-1.9h0c0-1.1.8-1.9,1.9-1.9h0c1,0,1.9.8,1.9,1.9Z"/>
    <path class="st9" d="M394.4,524.2c0,1-.8,1.9-1.9,1.9h0c-1,0-1.9-.9-1.9-1.9h0c0-1.1.8-1.9,1.9-1.9h0c1.1,0,1.9.8,1.9,1.9Z"/>
    <path class="st9" d="M394.4,559c0,1.1-.8,1.9-1.9,1.9h0c-1,0-1.9-.8-1.9-1.9h0c0-1,.8-1.9,1.9-1.9h0c1.1,0,1.9.9,1.9,1.9Z"/>
    <path class="st9" d="M396.3,593.7c0,2.1-1.7,3.8-3.8,3.8h0c-2.1,0-3.8-1.7-3.8-3.8h0c0-2.1,1.7-3.8,3.8-3.8h0c2.1,0,3.8,1.7,3.8,3.8Z"/>
    <path class="st9" d="M394.4,628.4c0,1.1-.8,1.9-1.9,1.9h0c-1,0-1.9-.8-1.9-1.9h0c0-1,.8-1.9,1.9-1.9h0c1.1,0,1.9.9,1.9,1.9Z"/>
    <path class="st9" d="M394.4,663.2c0,1-.8,1.9-1.9,1.9h0c-1,0-1.9-.9-1.9-1.9h0c0-1.1.8-1.9,1.9-1.9h0c1.1,0,1.9.8,1.9,1.9Z"/>
    <path class="st9" d="M427.1,489.5c0,1.1-.9,1.9-1.9,1.9h0c-1.1,0-1.9-.8-1.9-1.9h0c0-1,.8-1.9,1.9-1.9h0c1,0,1.9.9,1.9,1.9Z"/>
    <path class="st9" d="M427.1,524.2c0,1-.9,1.9-1.9,1.9h0c-1,0-1.9-.9-1.9-1.9h0c0-1.1.8-1.9,1.9-1.9h0c1.1,0,1.9.8,1.9,1.9Z"/>
    <path class="st9" d="M427.1,559c0,1.1-.9,1.9-1.9,1.9h0c-1.1,0-1.9-.8-1.9-1.9h0c0-1,.8-1.9,1.9-1.9h0c1,0,1.9.9,1.9,1.9Z"/>
    <path class="st9" d="M427.1,593.7c0,1-.9,1.9-1.9,1.9h0c-1,0-1.9-.9-1.9-1.9h0c0-1.1.8-1.9,1.9-1.9h0c1.1,0,1.9.9,1.9,1.9Z"/>
    <path class="st9" d="M427.1,628.4c0,1.1-.9,1.9-1.9,1.9h0c-1,0-1.9-.8-1.9-1.9h0c0-1,.8-1.9,1.9-1.9h0c1.1,0,1.9.9,1.9,1.9Z"/>
    <path class="st9" d="M427.1,663.2c0,1-.9,1.9-1.9,1.9h0c-1,0-1.9-.9-1.9-1.9h0c0-1.1.8-1.9,1.9-1.9h0c1.1,0,1.9.8,1.9,1.9Z"/>
    <path class="st9" d="M459.7,489.5c0,1.1-.9,1.9-1.9,1.9h0c-1,0-1.9-.8-1.9-1.9h0c0-1,.8-1.9,1.9-1.9h0c1.1,0,1.9.9,1.9,1.9Z"/>
    <path class="st9" d="M462.5,524.2c0,2.6-2.1,4.7-4.7,4.7h0c-2.6,0-4.7-2.1-4.7-4.7h0c0-2.6,2.1-4.7,4.7-4.7h0c2.6,0,4.7,2.1,4.7,4.7Z"/>
    <path class="st9" d="M459.7,559c0,1.1-.9,1.9-1.9,1.9h0c-1.1,0-1.9-.8-1.9-1.9h0c0-1,.8-1.9,1.9-1.9h0c1,0,1.9.9,1.9,1.9Z"/>
    <path class="st9" d="M460.6,593.7c0,1.6-1.3,2.8-2.8,2.8h0c-1.6,0-2.8-1.3-2.8-2.8h0c0-1.6,1.3-2.8,2.8-2.8h0c1.6,0,2.8,1.3,2.8,2.8Z"/>
    <path class="st9" d="M459.7,628.4c0,1.1-.8,1.9-1.9,1.9h0c-1.1,0-1.9-.8-1.9-1.9h0c0-1,.8-1.9,1.9-1.9h0c1,0,1.9.9,1.9,1.9Z"/>
    <path class="st9" d="M459.7,663.2c0,1-.8,1.9-1.9,1.9h0c-1.1,0-1.9-.9-1.9-1.9h0c0-1.1.8-1.9,1.9-1.9h0c1,0,1.9.8,1.9,1.9Z"/>
    <path class="st9" d="M492.3,524.2c0,1-.9,1.9-1.9,1.9h0c-1.1,0-1.9-.9-1.9-1.9h0c0-1.1.9-1.9,1.9-1.9h0c1,0,1.9.8,1.9,1.9Z"/>
    <path class="st9" d="M492.3,559c0,1.1-.9,1.9-1.9,1.9h0c-1.1,0-1.9-.8-1.9-1.9h0c0-1,.8-1.9,1.9-1.9h0c1,0,1.9.9,1.9,1.9Z"/>
    <path class="st9" d="M493.8,593.7c0,1.8-1.5,3.3-3.3,3.3h0c-1.8,0-3.3-1.5-3.3-3.3h0c0-1.8,1.5-3.3,3.3-3.3h0c1.8,0,3.3,1.5,3.3,3.3Z"/>
    <path class="st9" d="M492.3,628.4c0,1.1-.9,1.9-1.9,1.9h0c-1,0-1.9-.8-1.9-1.9h0c0-1,.8-1.9,1.9-1.9h0c1.1,0,1.9.9,1.9,1.9Z"/>
    <path class="st9" d="M525,489.5c0,1.1-.8,1.9-1.9,1.9h0c-1.1,0-1.9-.8-1.9-1.9h0c0-1,.9-1.9,1.9-1.9h0c1,0,1.9.9,1.9,1.9Z"/>
    <path class="st9" d="M525,524.2c0,1-.9,1.9-1.9,1.9h0c-1.1,0-1.9-.9-1.9-1.9h0c0-1.1.9-1.9,1.9-1.9h0c1,0,1.9.8,1.9,1.9Z"/>
    <path class="st9" d="M525,559c0,1.1-.8,1.9-1.9,1.9h0c-1,0-1.9-.8-1.9-1.9h0c0-1,.9-1.9,1.9-1.9h0c1.1,0,1.9.9,1.9,1.9Z"/>
    <path class="st9" d="M557.6,524.2c0,1-.8,1.9-1.9,1.9h0c-1.1,0-1.9-.9-1.9-1.9h0c0-1.1.8-1.9,1.9-1.9h0c1,0,1.9.8,1.9,1.9Z"/>
    <path class="st9" d="M198.7,559c0,1.1-.8,1.9-1.9,1.9h0c-1.1,0-1.9-.8-1.9-1.9h0c0-1,.8-1.9,1.9-1.9h0c1,0,1.9.9,1.9,1.9Z"/>
    <path class="st9" d="M198.7,593.7c0,1-.8,1.9-1.9,1.9h0c-1.1,0-1.9-.8-1.9-1.9h0c0-1.1.8-1.9,1.9-1.9h0c1,0,1.9.8,1.9,1.9Z"/>
    <path class="st9" d="M198.7,628.4c0,1.1-.8,1.9-1.9,1.9h0c-1.1,0-1.9-.8-1.9-1.9h0c0-1,.8-1.9,1.9-1.9h0c1,0,1.9.9,1.9,1.9Z"/>
    <path class="st9" d="M198.7,663.2c0,1-.8,1.9-1.9,1.9h0c-1.1,0-1.9-.9-1.9-1.9h0c0-1.1.8-1.9,1.9-1.9h0c1,0,1.9.8,1.9,1.9Z"/>
    <path class="st9" d="M232.7,559c0,1.8-1.5,3.3-3.3,3.3h0c-1.8,0-3.3-1.5-3.3-3.3h0c0-1.8,1.5-3.3,3.3-3.3h0c1.8,0,3.3,1.5,3.3,3.3Z"/>
    <path class="st9" d="M232.7,593.7c0,1.8-1.5,3.3-3.3,3.3h0c-1.8,0-3.3-1.5-3.3-3.3h0c0-1.8,1.5-3.3,3.3-3.3h0c1.8,0,3.3,1.5,3.3,3.3Z"/>
    <path class="st9" d="M231.3,628.4c0,1.1-.9,1.9-1.9,1.9h0c-1,0-1.9-.8-1.9-1.9h0c0-1,.8-1.9,1.9-1.9h0c1.1,0,1.9.9,1.9,1.9Z"/>
    <path class="st9" d="M231.3,663.2c0,1-.9,1.9-1.9,1.9h0c-1,0-1.9-.9-1.9-1.9h0c0-1.1.8-1.9,1.9-1.9h0c1.1,0,1.9.8,1.9,1.9Z"/>
  </g>
  <g>
    <path class="st9" d="M309.1,475c0-1.1.9-1.9,1.9-1.9h0c1.1,0,1.9.8,1.9,1.9h0c0,1-.8,1.9-1.9,1.9h0c-1,0-1.9-.9-1.9-1.9Z"/>
    <path class="st9" d="M307.2,440.2c0-2.1,1.7-3.8,3.8-3.8h0c2.1,0,3.8,1.7,3.8,3.8h0c0,2.1-1.7,3.8-3.8,3.8h0c-2.1,0-3.8-1.7-3.8-3.8Z"/>
    <path class="st9" d="M309.1,405.5c0-1.1.9-1.9,1.9-1.9h0c1.1,0,1.9.8,1.9,1.9h0c0,1-.8,1.9-1.9,1.9h0c-1,0-1.9-.9-1.9-1.9Z"/>
    <path class="st9" d="M276.4,509.7c0-1,.8-1.9,1.9-1.9h0c1,0,1.9.8,1.9,1.9h0c0,1.1-.8,1.9-1.9,1.9h0c-1.1,0-1.9-.8-1.9-1.9Z"/>
    <path class="st9" d="M276.4,475c0-1.1.8-1.9,1.9-1.9h0c1,0,1.9.8,1.9,1.9h0c0,1-.8,1.9-1.9,1.9h0c-1.1,0-1.9-.9-1.9-1.9Z"/>
    <path class="st9" d="M276.4,440.2c0-1,.8-1.9,1.9-1.9h0c1,0,1.9.9,1.9,1.9h0c0,1.1-.8,1.9-1.9,1.9h0c-1.1,0-1.9-.8-1.9-1.9Z"/>
    <path class="st9" d="M276.4,405.5c0-1.1.8-1.9,1.9-1.9h0c1,0,1.9.8,1.9,1.9h0c0,1-.8,1.9-1.9,1.9h0c-1.1,0-1.9-.9-1.9-1.9Z"/>
    <path class="st9" d="M238.1,509.7c0-4.2,3.4-7.6,7.6-7.6h0c4.2,0,7.6,3.4,7.6,7.6h0c0,4.2-3.4,7.6-7.6,7.6h0c-4.2,0-7.6-3.4-7.6-7.6h0Z"/>
    <path class="st9" d="M239.1,475c0-3.7,3-6.6,6.6-6.6h0c3.7,0,6.6,3,6.6,6.6h0c0,3.7-3,6.6-6.6,6.6h0c-3.7,0-6.6-3-6.6-6.6Z"/>
    <path class="st9" d="M243.8,440.2c0-1,.9-1.9,1.9-1.9h0c1.1,0,1.9.9,1.9,1.9h0c0,1.1-.8,1.9-1.9,1.9h0c-1,0-1.9-.8-1.9-1.9Z"/>
    <path class="st9" d="M243.8,405.5c0-1.1.9-1.9,1.9-1.9h0c1.1,0,1.9.8,1.9,1.9h0c0,1-.8,1.9-1.9,1.9h0c-1,0-1.9-.9-1.9-1.9Z"/>
    <path class="st9" d="M211.2,544.4c0-1.1.9-1.9,1.9-1.9h0c1,0,1.9.8,1.9,1.9h0c0,1-.8,1.9-1.9,1.9h0c-1.1,0-1.9-.9-1.9-1.9Z"/>
    <path class="st9" d="M207.9,509.7c0-2.9,2.3-5.2,5.2-5.2h0c2.9,0,5.2,2.3,5.2,5.2h0c0,2.9-2.3,5.2-5.2,5.2h0c-2.9,0-5.2-2.3-5.2-5.2Z"/>
    <path class="st9" d="M211.2,475c0-1.1.9-1.9,1.9-1.9h0c1.1,0,1.9.8,1.9,1.9h0c0,1-.8,1.9-1.9,1.9h0c-1,0-1.9-.9-1.9-1.9Z"/>
    <path class="st9" d="M211.2,440.2c0-1,.9-1.9,1.9-1.9h0c1.1,0,1.9.9,1.9,1.9h0c0,1.1-.8,1.9-1.9,1.9h0c-1,0-1.9-.8-1.9-1.9Z"/>
    <path class="st9" d="M210.2,405.5c0-1.6,1.3-2.8,2.8-2.8h0c1.6,0,2.8,1.3,2.8,2.8h0c0,1.6-1.3,2.8-2.8,2.8h0c-1.6,0-2.8-1.3-2.8-2.8Z"/>
    <path class="st9" d="M211.2,370.8c0-1,.9-1.9,1.9-1.9h0c1.1,0,1.9.9,1.9,1.9h0c0,1.1-.8,1.9-1.9,1.9h0c-1,0-1.9-.8-1.9-1.9Z"/>
    <path class="st9" d="M178.6,509.7c0-1,.8-1.9,1.9-1.9h0c1,0,1.9.9,1.9,1.9h0c0,1.1-.8,1.9-1.9,1.9h0c-1.1,0-1.9-.8-1.9-1.9Z"/>
    <path class="st9" d="M178.6,475c0-1.1.8-1.9,1.9-1.9h0c1,0,1.9.8,1.9,1.9h0c0,1-.8,1.9-1.9,1.9h0c-1.1,0-1.9-.9-1.9-1.9Z"/>
    <path class="st9" d="M176.7,440.2c0-2.1,1.7-3.8,3.8-3.8h0c2.1,0,3.8,1.7,3.8,3.8h0c0,2.1-1.7,3.8-3.8,3.8h0c-2.1,0-3.8-1.7-3.8-3.8Z"/>
    <path class="st9" d="M178.6,405.5c0-1.1.8-1.9,1.9-1.9h0c1,0,1.9.8,1.9,1.9h0c0,1-.8,1.9-1.9,1.9h0c-1.1,0-1.9-.9-1.9-1.9Z"/>
    <path class="st9" d="M178.6,370.8c0-1,.8-1.9,1.9-1.9h0c1,0,1.9.9,1.9,1.9h0c0,1.1-.8,1.9-1.9,1.9h0c-1.1,0-1.9-.8-1.9-1.9Z"/>
    <path class="st9" d="M145.9,544.4c0-1.1.9-1.9,1.9-1.9h0c1.1,0,1.9.8,1.9,1.9h0c0,1-.8,1.9-1.9,1.9h0c-1,0-1.9-.9-1.9-1.9Z"/>
    <path class="st9" d="M145.9,509.7c0-1,.9-1.9,1.9-1.9h0c1,0,1.9.9,1.9,1.9h0c0,1.1-.8,1.9-1.9,1.9h0c-1.1,0-1.9-.8-1.9-1.9Z"/>
    <path class="st9" d="M145.9,475c0-1.1.9-1.9,1.9-1.9h0c1.1,0,1.9.8,1.9,1.9h0c0,1-.8,1.9-1.9,1.9h0c-1,0-1.9-.9-1.9-1.9Z"/>
    <path class="st9" d="M145.9,440.2c0-1,.9-1.9,1.9-1.9h0c1,0,1.9.9,1.9,1.9h0c0,1.1-.8,1.9-1.9,1.9h0c-1.1,0-1.9-.9-1.9-1.9Z"/>
    <path class="st9" d="M145.9,405.5c0-1.1.9-1.9,1.9-1.9h0c1,0,1.9.8,1.9,1.9h0c0,1-.8,1.9-1.9,1.9h0c-1.1,0-1.9-.9-1.9-1.9Z"/>
    <path class="st9" d="M145.9,370.8c0-1,.9-1.9,1.9-1.9h0c1,0,1.9.9,1.9,1.9h0c0,1.1-.8,1.9-1.9,1.9h0c-1.1,0-1.9-.8-1.9-1.9Z"/>
    <path class="st9" d="M113.3,544.4c0-1.1.9-1.9,1.9-1.9h0c1,0,1.9.8,1.9,1.9h0c0,1-.8,1.9-1.9,1.9h0c-1.1,0-1.9-.9-1.9-1.9Z"/>
    <path class="st9" d="M110.4,509.7c0-2.6,2.1-4.7,4.7-4.7h0c2.6,0,4.7,2.1,4.7,4.7h0c0,2.6-2.1,4.7-4.7,4.7h0c-2.6,0-4.7-2.1-4.7-4.7Z"/>
    <path class="st9" d="M113.3,475c0-1.1.9-1.9,1.9-1.9h0c1.1,0,1.9.8,1.9,1.9h0c0,1-.8,1.9-1.9,1.9h0c-1,0-1.9-.9-1.9-1.9Z"/>
    <path class="st9" d="M112.3,440.2c0-1.6,1.3-2.8,2.8-2.8h0c1.6,0,2.8,1.3,2.8,2.8h0c0,1.6-1.3,2.8-2.8,2.8h0c-1.6,0-2.8-1.3-2.8-2.8Z"/>
    <path class="st9" d="M113.3,405.5c0-1.1.8-1.9,1.9-1.9h0c1.1,0,1.9.8,1.9,1.9h0c0,1-.8,1.9-1.9,1.9h0c-1,0-1.9-.9-1.9-1.9Z"/>
    <path class="st9" d="M113.3,370.8c0-1,.8-1.9,1.9-1.9h0c1.1,0,1.9.9,1.9,1.9h0c0,1.1-.8,1.9-1.9,1.9h0c-1,0-1.9-.8-1.9-1.9Z"/>
    <path class="st9" d="M80.7,509.7c0-1,.9-1.9,1.9-1.9h0c1.1,0,1.9.9,1.9,1.9h0c0,1.1-.9,1.9-1.9,1.9h0c-1,0-1.9-.8-1.9-1.9Z"/>
    <path class="st9" d="M80.7,475c0-1.1.9-1.9,1.9-1.9h0c1.1,0,1.9.8,1.9,1.9h0c0,1-.8,1.9-1.9,1.9h0c-1,0-1.9-.9-1.9-1.9Z"/>
    <path class="st9" d="M79.2,440.2c0-1.8,1.5-3.3,3.3-3.3h0c1.8,0,3.3,1.5,3.3,3.3h0c0,1.8-1.5,3.3-3.3,3.3h0c-1.8,0-3.3-1.5-3.3-3.3Z"/>
    <path class="st9" d="M80.7,405.5c0-1.1.9-1.9,1.9-1.9h0c1,0,1.9.8,1.9,1.9h0c0,1-.8,1.9-1.9,1.9h0c-1.1,0-1.9-.9-1.9-1.9Z"/>
    <path class="st9" d="M48,544.4c0-1.1.8-1.9,1.9-1.9h0c1.1,0,1.9.8,1.9,1.9h0c0,1-.9,1.9-1.9,1.9h0c-1,0-1.9-.9-1.9-1.9Z"/>
    <path class="st9" d="M48,509.7c0-1,.9-1.9,1.9-1.9h0c1.1,0,1.9.9,1.9,1.9h0c0,1.1-.9,1.9-1.9,1.9h0c-1,0-1.9-.8-1.9-1.9Z"/>
    <path class="st9" d="M48,475c0-1.1.8-1.9,1.9-1.9h0c1,0,1.9.8,1.9,1.9h0c0,1-.9,1.9-1.9,1.9h0c-1.1,0-1.9-.9-1.9-1.9Z"/>
    <path class="st9" d="M15.4,509.7c0-1,.8-1.9,1.9-1.9h0c1.1,0,1.9.9,1.9,1.9h0c0,1.1-.8,1.9-1.9,1.9h0c-1,0-1.9-.8-1.9-1.9Z"/>
    <path class="st9" d="M374.3,475c0-1.1.8-1.9,1.9-1.9h0c1.1,0,1.9.8,1.9,1.9h0c0,1-.8,1.9-1.9,1.9h0c-1,0-1.9-.9-1.9-1.9Z"/>
    <path class="st9" d="M374.3,440.2c0-1,.8-1.9,1.9-1.9h0c1.1,0,1.9.8,1.9,1.9h0c0,1.1-.8,1.9-1.9,1.9h0c-1,0-1.9-.8-1.9-1.9Z"/>
    <path class="st9" d="M374.3,405.5c0-1.1.8-1.9,1.9-1.9h0c1.1,0,1.9.8,1.9,1.9h0c0,1-.8,1.9-1.9,1.9h0c-1,0-1.9-.9-1.9-1.9Z"/>
    <path class="st9" d="M374.3,370.8c0-1,.8-1.9,1.9-1.9h0c1.1,0,1.9.9,1.9,1.9h0c0,1.1-.8,1.9-1.9,1.9h0c-1,0-1.9-.8-1.9-1.9Z"/>
    <path class="st9" d="M340.3,475c0-1.8,1.5-3.3,3.3-3.3h0c1.8,0,3.3,1.5,3.3,3.3h0c0,1.8-1.5,3.3-3.3,3.3h0c-1.8,0-3.3-1.5-3.3-3.3Z"/>
    <path class="st9" d="M340.3,440.2c0-1.8,1.5-3.3,3.3-3.3h0c1.8,0,3.3,1.5,3.3,3.3h0c0,1.8-1.5,3.3-3.3,3.3h0c-1.8,0-3.3-1.5-3.3-3.3Z"/>
    <path class="st9" d="M341.7,405.5c0-1.1.9-1.9,1.9-1.9h0c1,0,1.9.8,1.9,1.9h0c0,1-.8,1.9-1.9,1.9h0c-1.1,0-1.9-.9-1.9-1.9Z"/>
    <path class="st9" d="M341.7,370.8c0-1,.9-1.9,1.9-1.9h0c1,0,1.9.9,1.9,1.9h0c0,1.1-.8,1.9-1.9,1.9h0c-1.1,0-1.9-.8-1.9-1.9Z"/>
  </g>
  <g>
    <path class="st9" d="M599.4,475c0-1.1.9-1.9,1.9-1.9h0c1.1,0,1.9.8,1.9,1.9h0c0,1-.8,1.9-1.9,1.9h0c-1,0-1.9-.9-1.9-1.9Z"/>
    <path class="st9" d="M597.5,440.2c0-2.1,1.7-3.8,3.8-3.8h0c2.1,0,3.8,1.7,3.8,3.8h0c0,2.1-1.7,3.8-3.8,3.8h0c-2.1,0-3.8-1.7-3.8-3.8Z"/>
    <path class="st9" d="M599.4,405.5c0-1.1.9-1.9,1.9-1.9h0c1.1,0,1.9.8,1.9,1.9h0c0,1-.8,1.9-1.9,1.9h0c-1,0-1.9-.9-1.9-1.9Z"/>
    <path class="st9" d="M566.8,509.7c0-1,.8-1.9,1.9-1.9h0c1,0,1.9.8,1.9,1.9h0c0,1.1-.8,1.9-1.9,1.9h0c-1.1,0-1.9-.8-1.9-1.9Z"/>
    <path class="st9" d="M566.8,475c0-1.1.8-1.9,1.9-1.9h0c1,0,1.9.8,1.9,1.9h0c0,1-.8,1.9-1.9,1.9h0c-1.1,0-1.9-.9-1.9-1.9Z"/>
    <path class="st9" d="M566.8,440.2c0-1,.8-1.9,1.9-1.9h0c1,0,1.9.9,1.9,1.9h0c0,1.1-.8,1.9-1.9,1.9h0c-1.1,0-1.9-.8-1.9-1.9Z"/>
    <path class="st9" d="M566.8,405.5c0-1.1.8-1.9,1.9-1.9h0c1,0,1.9.8,1.9,1.9h0c0,1-.8,1.9-1.9,1.9h0c-1.1,0-1.9-.9-1.9-1.9Z"/>
    <path class="st9" d="M528.5,509.7c0-4.2,3.4-7.6,7.6-7.6h0c4.2,0,7.6,3.4,7.6,7.6h0c0,4.2-3.4,7.6-7.6,7.6h0c-4.2,0-7.6-3.4-7.6-7.6h0Z"/>
    <path class="st9" d="M529.4,475c0-3.7,3-6.6,6.6-6.6h0c3.7,0,6.6,3,6.6,6.6h0c0,3.7-3,6.6-6.6,6.6h0c-3.7,0-6.6-3-6.6-6.6Z"/>
    <path class="st9" d="M534.2,440.2c0-1,.9-1.9,1.9-1.9h0c1.1,0,1.9.9,1.9,1.9h0c0,1.1-.8,1.9-1.9,1.9h0c-1,0-1.9-.8-1.9-1.9Z"/>
    <path class="st9" d="M534.2,405.5c0-1.1.9-1.9,1.9-1.9h0c1.1,0,1.9.8,1.9,1.9h0c0,1-.8,1.9-1.9,1.9h0c-1,0-1.9-.9-1.9-1.9Z"/>
    <path class="st9" d="M501.5,544.4c0-1.1.9-1.9,1.9-1.9h0c1,0,1.9.8,1.9,1.9h0c0,1-.8,1.9-1.9,1.9h0c-1.1,0-1.9-.9-1.9-1.9Z"/>
    <path class="st9" d="M498.2,509.7c0-2.9,2.3-5.2,5.2-5.2h0c2.9,0,5.2,2.3,5.2,5.2h0c0,2.9-2.3,5.2-5.2,5.2h0c-2.9,0-5.2-2.3-5.2-5.2Z"/>
    <path class="st9" d="M501.5,475c0-1.1.9-1.9,1.9-1.9h0c1.1,0,1.9.8,1.9,1.9h0c0,1-.8,1.9-1.9,1.9h0c-1,0-1.9-.9-1.9-1.9Z"/>
    <path class="st9" d="M501.5,440.2c0-1,.9-1.9,1.9-1.9h0c1.1,0,1.9.9,1.9,1.9h0c0,1.1-.8,1.9-1.9,1.9h0c-1,0-1.9-.8-1.9-1.9Z"/>
    <path class="st9" d="M500.6,405.5c0-1.6,1.3-2.8,2.8-2.8h0c1.6,0,2.8,1.3,2.8,2.8h0c0,1.6-1.3,2.8-2.8,2.8h0c-1.6,0-2.8-1.3-2.8-2.8Z"/>
    <path class="st9" d="M501.5,370.8c0-1,.9-1.9,1.9-1.9h0c1.1,0,1.9.9,1.9,1.9h0c0,1.1-.8,1.9-1.9,1.9h0c-1,0-1.9-.8-1.9-1.9Z"/>
    <path class="st9" d="M468.9,509.7c0-1,.8-1.9,1.9-1.9h0c1,0,1.9.9,1.9,1.9h0c0,1.1-.8,1.9-1.9,1.9h0c-1.1,0-1.9-.8-1.9-1.9Z"/>
    <path class="st9" d="M468.9,475c0-1.1.8-1.9,1.9-1.9h0c1,0,1.9.8,1.9,1.9h0c0,1-.8,1.9-1.9,1.9h0c-1.1,0-1.9-.9-1.9-1.9Z"/>
    <path class="st9" d="M467,440.2c0-2.1,1.7-3.8,3.8-3.8h0c2.1,0,3.8,1.7,3.8,3.8h0c0,2.1-1.7,3.8-3.8,3.8h0c-2.1,0-3.8-1.7-3.8-3.8Z"/>
    <path class="st9" d="M468.9,405.5c0-1.1.8-1.9,1.9-1.9h0c1,0,1.9.8,1.9,1.9h0c0,1-.8,1.9-1.9,1.9h0c-1.1,0-1.9-.9-1.9-1.9Z"/>
    <path class="st9" d="M468.9,370.8c0-1,.8-1.9,1.9-1.9h0c1,0,1.9.9,1.9,1.9h0c0,1.1-.8,1.9-1.9,1.9h0c-1.1,0-1.9-.8-1.9-1.9Z"/>
    <path class="st9" d="M436.3,544.4c0-1.1.9-1.9,1.9-1.9h0c1.1,0,1.9.8,1.9,1.9h0c0,1-.8,1.9-1.9,1.9h0c-1,0-1.9-.9-1.9-1.9Z"/>
    <path class="st9" d="M436.3,509.7c0-1,.9-1.9,1.9-1.9h0c1,0,1.9.9,1.9,1.9h0c0,1.1-.8,1.9-1.9,1.9h0c-1.1,0-1.9-.8-1.9-1.9Z"/>
    <path class="st9" d="M436.3,475c0-1.1.9-1.9,1.9-1.9h0c1.1,0,1.9.8,1.9,1.9h0c0,1-.8,1.9-1.9,1.9h0c-1,0-1.9-.9-1.9-1.9Z"/>
    <path class="st9" d="M436.3,440.2c0-1,.9-1.9,1.9-1.9h0c1,0,1.9.9,1.9,1.9h0c0,1.1-.8,1.9-1.9,1.9h0c-1.1,0-1.9-.9-1.9-1.9Z"/>
    <path class="st9" d="M436.3,405.5c0-1.1.9-1.9,1.9-1.9h0c1,0,1.9.8,1.9,1.9h0c0,1-.8,1.9-1.9,1.9h0c-1.1,0-1.9-.9-1.9-1.9Z"/>
    <path class="st9" d="M436.3,370.8c0-1,.9-1.9,1.9-1.9h0c1,0,1.9.9,1.9,1.9h0c0,1.1-.8,1.9-1.9,1.9h0c-1.1,0-1.9-.8-1.9-1.9Z"/>
    <path class="st9" d="M403.6,544.4c0-1.1.9-1.9,1.9-1.9h0c1,0,1.9.8,1.9,1.9h0c0,1-.8,1.9-1.9,1.9h0c-1.1,0-1.9-.9-1.9-1.9Z"/>
    <path class="st9" d="M400.8,509.7c0-2.6,2.1-4.7,4.7-4.7h0c2.6,0,4.7,2.1,4.7,4.7h0c0,2.6-2.1,4.7-4.7,4.7h0c-2.6,0-4.7-2.1-4.7-4.7Z"/>
    <path class="st9" d="M403.6,475c0-1.1.9-1.9,1.9-1.9h0c1.1,0,1.9.8,1.9,1.9h0c0,1-.8,1.9-1.9,1.9h0c-1,0-1.9-.9-1.9-1.9Z"/>
    <path class="st9" d="M402.7,440.2c0-1.6,1.3-2.8,2.8-2.8h0c1.6,0,2.8,1.3,2.8,2.8h0c0,1.6-1.3,2.8-2.8,2.8h0c-1.6,0-2.8-1.3-2.8-2.8Z"/>
    <path class="st9" d="M403.6,405.5c0-1.1.8-1.9,1.9-1.9h0c1.1,0,1.9.8,1.9,1.9h0c0,1-.8,1.9-1.9,1.9h0c-1,0-1.9-.9-1.9-1.9Z"/>
    <path class="st9" d="M403.6,370.8c0-1,.8-1.9,1.9-1.9h0c1.1,0,1.9.9,1.9,1.9h0c0,1.1-.8,1.9-1.9,1.9h0c-1,0-1.9-.8-1.9-1.9Z"/>
    <path class="st9" d="M371,509.7c0-1,.9-1.9,1.9-1.9h0c1.1,0,1.9.9,1.9,1.9h0c0,1.1-.9,1.9-1.9,1.9h0c-1,0-1.9-.8-1.9-1.9Z"/>
    <path class="st9" d="M371,475c0-1.1.9-1.9,1.9-1.9h0c1.1,0,1.9.8,1.9,1.9h0c0,1-.8,1.9-1.9,1.9h0c-1,0-1.9-.9-1.9-1.9Z"/>
    <path class="st9" d="M369.6,440.2c0-1.8,1.5-3.3,3.3-3.3h0c1.8,0,3.3,1.5,3.3,3.3h0c0,1.8-1.5,3.3-3.3,3.3h0c-1.8,0-3.3-1.5-3.3-3.3Z"/>
    <path class="st9" d="M371,405.5c0-1.1.9-1.9,1.9-1.9h0c1,0,1.9.8,1.9,1.9h0c0,1-.8,1.9-1.9,1.9h0c-1.1,0-1.9-.9-1.9-1.9Z"/>
    <path class="st9" d="M338.4,544.4c0-1.1.8-1.9,1.9-1.9h0c1.1,0,1.9.8,1.9,1.9h0c0,1-.9,1.9-1.9,1.9h0c-1,0-1.9-.9-1.9-1.9Z"/>
    <path class="st9" d="M338.4,509.7c0-1,.9-1.9,1.9-1.9h0c1.1,0,1.9.9,1.9,1.9h0c0,1.1-.9,1.9-1.9,1.9h0c-1,0-1.9-.8-1.9-1.9Z"/>
    <path class="st9" d="M338.4,475c0-1.1.8-1.9,1.9-1.9h0c1,0,1.9.8,1.9,1.9h0c0,1-.9,1.9-1.9,1.9h0c-1.1,0-1.9-.9-1.9-1.9Z"/>
    <path class="st9" d="M305.8,509.7c0-1,.8-1.9,1.9-1.9h0c1.1,0,1.9.9,1.9,1.9h0c0,1.1-.8,1.9-1.9,1.9h0c-1,0-1.9-.8-1.9-1.9Z"/>
    <path class="st9" d="M664.7,475c0-1.1.8-1.9,1.9-1.9h0c1.1,0,1.9.8,1.9,1.9h0c0,1-.8,1.9-1.9,1.9h0c-1,0-1.9-.9-1.9-1.9Z"/>
    <path class="st9" d="M664.7,440.2c0-1,.8-1.9,1.9-1.9h0c1.1,0,1.9.8,1.9,1.9h0c0,1.1-.8,1.9-1.9,1.9h0c-1,0-1.9-.8-1.9-1.9Z"/>
    <path class="st9" d="M664.7,405.5c0-1.1.8-1.9,1.9-1.9h0c1.1,0,1.9.8,1.9,1.9h0c0,1-.8,1.9-1.9,1.9h0c-1,0-1.9-.9-1.9-1.9Z"/>
    <path class="st9" d="M664.7,370.8c0-1,.8-1.9,1.9-1.9h0c1.1,0,1.9.9,1.9,1.9h0c0,1.1-.8,1.9-1.9,1.9h0c-1,0-1.9-.8-1.9-1.9Z"/>
    <path class="st9" d="M630.6,475c0-1.8,1.5-3.3,3.3-3.3h0c1.8,0,3.3,1.5,3.3,3.3h0c0,1.8-1.5,3.3-3.3,3.3h0c-1.8,0-3.3-1.5-3.3-3.3Z"/>
    <path class="st9" d="M630.6,440.2c0-1.8,1.5-3.3,3.3-3.3h0c1.8,0,3.3,1.5,3.3,3.3h0c0,1.8-1.5,3.3-3.3,3.3h0c-1.8,0-3.3-1.5-3.3-3.3Z"/>
    <path class="st9" d="M632,405.5c0-1.1.9-1.9,1.9-1.9h0c1,0,1.9.8,1.9,1.9h0c0,1-.8,1.9-1.9,1.9h0c-1.1,0-1.9-.9-1.9-1.9Z"/>
    <path class="st9" d="M632,370.8c0-1,.9-1.9,1.9-1.9h0c1,0,1.9.9,1.9,1.9h0c0,1.1-.8,1.9-1.9,1.9h0c-1.1,0-1.9-.8-1.9-1.9Z"/>
  </g>
  <g>
    <g>
      <path class="st5" d="M159.9,111.9h414.4c6.5,0,11.9,5.3,11.9,11.9v446.8c0,6.5-5.3,11.9-11.9,11.9H159.9c-6.5,0-11.9-5.3-11.9-11.9V123.8c0-6.5,5.3-11.9,11.9-11.9Z"/>
      <g>
        <g>
          <circle class="st8" cx="304.1" cy="259.2" r="31.7"/>
          <path class="st0" d="M304.2,227.4c17.5,0,31.7,14.2,31.7,31.7s-14.2,31.7-31.7,31.7-4-.2-5.9-.6c14.7-2.8,25.8-15.7,25.8-31.2s-11.1-28.4-25.8-31.2c1.9-.4,3.9-.6,5.9-.6h0Z"/>
        </g>
        <g>
          <circle class="st8" cx="126.1" cy="259.2" r="31.7" transform="translate(-141.3 366.6) rotate(-85.9)"/>
          <path class="st0" d="M126.1,227.4c17.5,0,31.7,14.2,31.7,31.7s-14.2,31.7-31.7,31.7-4-.2-5.9-.6c14.7-2.8,25.8-15.7,25.8-31.2s-11.1-28.4-25.8-31.2c1.9-.4,3.9-.6,5.9-.6h0Z"/>
        </g>
        <g>
          <circle class="st8" cx="215.1" cy="118.1" r="31.7"/>
          <path class="st0" d="M215.1,86.4c17.5,0,31.7,14.2,31.7,31.7s-14.2,31.7-31.7,31.7-4-.2-5.9-.6c14.7-2.8,25.8-15.7,25.8-31.2s-11.1-28.4-25.8-31.2c1.9-.4,3.9-.6,5.9-.6Z"/>
        </g>
      </g>
      <g>
        <path class="st4" d="M342.7,541.9l-48.4,40.2,26,60.3c.8,1.9,3.5,2.1,4.6.3l16.8-27,31.1,6.4c2.1.4,3.8-1.6,2.9-3.6l-33-76.6Z"/>
        <path class="st2" d="M342.7,541.9l-6.4,5.3,30.7,71.3c.4.8.3,1.7-.2,2.4l5.9,1.2c2.1.4,3.8-1.6,2.9-3.6l-33-76.6ZM318.7,638.7l15.2-24.6,7.7,1.6-16.8,27c-1.1,1.8-3.8,1.6-4.6-.3l-1.6-3.7Z"/>
        <path class="st4" d="M271.3,579l-34.8,74.8c-.9,1.9-3.6,2-4.6.2l-16-27.5-31.3,5.5c-2.1.4-3.7-1.8-2.8-3.7l34.4-74,55.1,24.7Z"/>
        <path class="st2" d="M271.3,579l-34.8,74.8c-.9,1.9-3.6,2-4.6.2l-16-27.5-31.3,5.5c-2.1.4-3.7-1.8-2.8-3.7l2.1-4.5,27.6-4.8,16,27.5c1.1,1.8,3.7,1.7,4.6-.2l32.7-70.1,6.6,2.9Z"/>
        <path class="st3" d="M291.9,394.6c20.8,15.6,16.1,13.9,42.1,15.3,10,.6,18.1,7.4,20.4,17.1,2.2,9.2,3.2,20.8,10.2,27.3l12.2,11.4c7.3,6.8,9.1,17.2,4.6,26.2-11.7,23.2-10.9,18.3-7.8,44.1,1.2,9.9-4.1,19.1-13.3,23-23.9,10.2-20.1,7-34.3,28.8-5.5,8.4-15.4,12-25,9.1-24.9-7.5-19.9-7.5-44.8,0-9.6,2.9-19.5-.7-25-9.1-14.2-21.8-10.4-18.5-34.3-28.8-9.2-3.9-14.5-13.1-13.3-23,3.1-25.8,4-20.9-7.8-44.1-4.5-8.9-2.7-19.3,4.6-26.2,19-17.8,16.4-13.4,22.4-38.8,2.3-9.7,10.4-16.5,20.4-17.1,26-1.4,21.2.3,42.1-15.3,8-6,18.6-6,26.6,0h0Z"/>
        <path class="st7" d="M291.9,394.6c20.8,15.6,16.1,13.9,42.1,15.3,10,.6,18.1,7.4,20.4,17.1,2.2,9.2,3.2,20.8,10.2,27.3l12.2,11.4c7.3,6.8,9.1,17.2,4.6,26.2-11.7,23.2-10.9,18.3-7.8,44.1,1.2,9.9-4.1,19.1-13.3,23-23.9,10.2-20.1,7-34.3,28.8-5.3,8.1-14.8,11.8-24.1,9.3,5.1-1.4,9.6-4.6,12.7-9.3,14.2-21.8,10.4-18.5,34.3-28.8,9.2-3.9,14.5-13.1,13.3-23-3.1-25.8-4-20.9,7.8-44.1,4.5-8.9,2.7-19.3-4.6-26.2l-12.2-11.4c-7-6.6-8.1-18.2-10.2-27.3-2.3-9.7-10.4-16.5-20.4-17.1-26-1.4-21.2.3-42.1-15.3-2.4-1.8-4.9-3-7.6-3.7,6.4-1.7,13.3-.5,19,3.7h0ZM273,592c-3.8.9-8.7,2.5-16.7,4.9-4.1,1.3-8.3,1.3-12.2.2.3,0,.6-.2.8-.2,16.9-5.1,20-6.7,28.1-4.9Z"/>
        <circle class="st10" cx="278.6" cy="494" r="62"/>
        <path class="st6" d="M278.6,432c1.7,0,3.3,0,5,.2-31.9,2.5-57.1,29.2-57.1,61.8s25.1,59.3,57.1,61.8c-1.6.1-3.3.2-5,.2-34.3,0-62-27.8-62-62,0-34.3,27.8-62,62-62h0Z"/>
      </g>
    </g>
    <path class="st1" d="M554.9,406.5c0,5.2-4.2,9.5-9.5,9.5h-154.4c-5.2,0-9.5-4.2-9.5-9.5s4.2-9.5,9.5-9.5h154.4c5.2,0,9.5,4.2,9.5,9.5ZM554.9,367c0,5.2-4.2,9.5-9.5,9.5h-201.1c-5.2,0-9.5-4.2-9.5-9.5s4.2-9.5,9.5-9.5h201.1c5.2,0,9.5,4.2,9.5,9.5h0ZM554.9,446.1c0,5.2-4.2,9.5-9.5,9.5h-123.5c-5.2,0-9.5-4.2-9.5-9.5s4.2-9.5,9.5-9.5h123.5c5.2,0,9.5,4.3,9.5,9.5ZM551.4,485.7c0,5.2-4.2,9.5-9.5,9.5h-120.1c-5.2,0-9.5-4.2-9.5-9.5s4.2-9.5,9.5-9.5h120.1c5.2,0,9.5,4.2,9.5,9.5ZM554.9,208.6c0,5.2-4.2,9.5-9.5,9.5h-201.1c-5.2,0-9.5-4.3-9.5-9.5s4.2-9.5,9.5-9.5h201.1c5.2,0,9.5,4.2,9.5,9.5ZM554.9,169c0,5.2-4.2,9.5-9.5,9.5h-201.1c-5.2,0-9.5-4.2-9.5-9.5s4.2-9.5,9.5-9.5h201.1c5.2,0,9.5,4.2,9.5,9.5ZM551.4,525.3c0,5.2-4.2,9.5-9.5,9.5h-131.7c-5.2,0-9.5-4.2-9.5-9.5s4.2-9.5,9.5-9.5h131.7c5.2,0,9.5,4.3,9.5,9.5ZM554.9,248.2c0,5.2-4.2,9.5-9.5,9.5h-170.7c-5.2,0-9.5-4.2-9.5-9.5s4.2-9.5,9.5-9.5h170.7c5.2,0,9.5,4.2,9.5,9.5ZM554.9,327.4c0,5.2-4.2,9.5-9.5,9.5h-201.1c-5.2,0-9.5-4.3-9.5-9.5s4.2-9.5,9.5-9.5h201.1c5.2,0,9.5,4.2,9.5,9.5ZM554.9,287.8c0,5.2-4.2,9.5-9.5,9.5h-170.7c-5.2,0-9.5-4.2-9.5-9.5s4.2-9.5,9.5-9.5h170.7c5.2,0,9.5,4.2,9.5,9.5ZM278.6,544.7c-28.6,0-51.9-23.3-51.9-51.9s23.3-51.9,51.9-51.9,51.9,23.3,51.9,51.9-23.3,51.9-51.9,51.9ZM349.5,492.8c0-39-31.8-70.8-70.8-70.8s-70.8,31.8-70.8,70.8,31.8,70.8,70.8,70.8,70.8-31.8,70.8-70.8ZM576.7,570.6V123.8c0-1.3-1.1-2.4-2.4-2.4h-318.2c-.8,9.9-5.1,18.8-11.6,25.5l46.3,73.3c4.2-1.4,8.7-2.2,13.4-2.2,22.7,0,41.2,18.5,41.2,41.2s-18.5,41.2-41.2,41.2-35.8-13.6-40.1-31.7h-97.9c-1.5,6.4-4.5,12.2-8.6,17.1v284.9c0,1.3,1.1,2.4,2.4,2.4h37l2.3-5c-1.5-.6-3.2-1.3-5-2.1-12.9-5.5-20.5-18.6-18.8-32.6.3-2.4.6-4.5.8-6.4.9-7.4,1.4-11,.9-13.6-.5-2.5-2.1-5.8-5.5-12.4-.9-1.7-1.9-3.6-2.9-5.7-6.3-12.6-3.7-27.4,6.5-37.1,1.8-1.6,3.3-3.1,4.7-4.4,5.4-5,8.2-7.6,9.4-9.8,1.3-2.2,2.1-5.9,3.8-13.1.4-1.9.9-4,1.4-6.3,3.2-13.7,14.8-23.4,28.8-24.2,2.4-.1,4.5-.2,6.4-.3,7.4-.4,11.1-.6,13.5-1.4,2.4-.9,5.4-3.1,11.3-7.6,1.5-1.2,3.2-2.4,5.2-3.9,11.3-8.4,26.4-8.4,37.6,0,1.9,1.5,3.6,2.7,5.1,3.9,5.9,4.5,8.9,6.7,11.3,7.6,2.4.9,6.1,1.1,13.5,1.4,1.9,0,4.1.2,6.4.3,14,.8,25.6,10.5,28.8,24.2.5,2.3,1,4.4,1.4,6.3,1.6,7.2,2.5,10.9,3.8,13.1,1.3,2.2,4,4.8,9.5,9.8,1.4,1.3,3,2.8,4.7,4.4,10.3,9.6,12.9,24.5,6.5,37.1-1.1,2.1-2.1,4-2.9,5.7-3.4,6.6-5.1,9.9-5.5,12.4-.5,2.5,0,6.2.9,13.6.2,1.9.5,4,.8,6.4,1.7,13.9-5.8,26.9-18.6,32.5l3.1,7.2h207.9c1.3,0,2.4-1.1,2.4-2.4h0ZM342.8,603.9c-3.9-.8-7.9.9-10,4.3l-9.6,15.5-8.4-19.6c7.4-1.9,14.1-6.5,18.5-13.3,1.3-2,2.5-3.8,3.5-5.4,4-6.2,6-9.3,8-11,.3-.3.7-.5,1.1-.8l14.6,34-17.8-3.6ZM259.8,583.6c17.8-5.5,19.9-5.5,37.6,0,1.8.6,3.8,1.2,6.1,1.8,5.4,1.7,10.9-.4,14-5.1,1.3-2,2.4-3.7,3.5-5.3,10.1-15.6,11.7-17,28.8-24.2,1.7-.7,3.7-1.6,5.8-2.5,5.2-2.2,8.1-7.3,7.4-12.9-.3-2.3-.5-4.4-.8-6.3-2.3-18.4-1.9-20.5,6.5-37,.9-1.7,1.8-3.5,2.9-5.7,2.5-5.1,1.5-10.8-2.6-14.7-1.7-1.6-3.3-3-4.6-4.3-13.6-12.6-14.7-14.5-18.8-32.6-.4-1.8-.9-3.9-1.4-6.2-1.3-5.5-5.8-9.3-11.4-9.6-2.4-.1-4.5-.2-6.3-.3-18.5-.9-20.5-1.6-35.3-12.9-1.5-1.1-3.2-2.4-5.1-3.8-2.3-1.7-4.9-2.5-7.5-2.5s-5.2.8-7.5,2.5c-1.9,1.4-3.6,2.7-5.1,3.8-14.8,11.2-16.8,11.9-35.3,12.9-1.9,0-4,.2-6.3.3-5.6.3-10.1,4.1-11.4,9.6-.5,2.3-1,4.3-1.4,6.2-4.1,18.1-5.2,19.9-18.8,32.6-1.4,1.3-2.9,2.7-4.6,4.3-4.1,3.9-5.1,9.6-2.6,14.7,1.1,2.1,2,4,2.9,5.7,8.5,16.5,8.8,18.6,6.5,37-.2,1.9-.5,4-.8,6.3-.7,5.6,2.3,10.7,7.5,12.9,2.2.9,4.1,1.7,5.8,2.5,17.1,7.2,18.7,8.6,28.8,24.2,1,1.6,2.2,3.4,3.5,5.3,3.1,4.7,8.6,6.7,14,5.1,2.3-.7,4.3-1.3,6.1-1.9h0ZM233.9,634.8l-9.1-15.7c-2-3.4-5.9-5.3-9.8-4.6l-17.9,3.1,18.5-39.7c1.3,1.8,2.8,4.2,4.9,7.4,1,1.6,2.2,3.4,3.5,5.4,5.5,8.4,14.4,13.5,23.9,14.2l-13.9,29.8ZM103.9,259.1c0-12.3,10-22.2,22.2-22.2s22.2,10,22.2,22.2-10,22.2-22.2,22.2-22.2-10-22.2-22.2ZM159.9,121.4h14.2c.8,9.9,5.1,18.8,11.6,25.5l-28.2,44.7v-67.8c0-1.3,1.1-2.4,2.4-2.4ZM215.1,95.8c12.2,0,22.2,10,22.2,22.2s-10,22.2-22.2,22.2-22.2-10-22.2-22.2,10-22.2,22.2-22.2ZM264.1,249.7h-97.9c-1.5-6.4-4.5-12.2-8.6-17.1v-5.5l44.2-70.1c4.2,1.4,8.7,2.2,13.4,2.2s9.2-.8,13.4-2.2l46.3,73.3c-5.2,5.3-8.9,11.9-10.7,19.3h0ZM304.2,236.9c12.3,0,22.2,10,22.2,22.2s-10,22.2-22.2,22.2-22.2-10-22.2-22.2,10-22.2,22.2-22.2ZM574.4,102.4H253.2c-6.2-15-20.9-25.5-38.1-25.5s-31.9,10.6-38.1,25.5h-17.1c-11.8,0-21.3,9.6-21.3,21.3v96.1c-3.9-1.3-8.1-1.9-12.5-1.9-22.7,0-41.2,18.5-41.2,41.2s18.5,41.2,41.2,41.2,8.5-.7,12.5-1.9v272.2c0,11.8,9.6,21.3,21.3,21.3h28.1l-15.9,34.1c-1.5,3.2-1.1,7,1.1,9.8,2.2,2.8,5.7,4.2,9.2,3.6l29.3-5.1,15,25.7c1.7,2.9,4.8,4.7,8.2,4.7s.3,0,.4,0c3.5-.2,6.7-2.3,8.2-5.5l27.6-59.2c3.6-1.1,5.9-1.6,7.6-1.6,2.6,0,6.1,1.1,13.2,3.3.5.2,1,.3,1.5.5l19.6,45.6c1.4,3.2,4.5,5.4,8,5.7.2,0,.5,0,.7,0,3.3,0,6.3-1.7,8.1-4.5l15.7-25.3,29.2,6c3.5.7,7-.6,9.3-3.3,2.2-2.7,2.8-6.5,1.4-9.7l-10.7-24.8h199.8c11.8,0,21.3-9.6,21.3-21.3V123.8c0-11.8-9.6-21.3-21.3-21.3h0Z"/>
  </g>
</svg>