<?xml version="1.0" encoding="UTF-8"?>
<svg xmlns="http://www.w3.org/2000/svg" version="1.1" viewBox="0 0 720 720">
  <!-- Generator: Adobe Illustrator 29.7.1, SVG Export Plug-In . SVG Version: 2.1.1 Build 8)  -->
  <defs>
    <style>
      .st0 {
        fill: #ddb433;
      }

      .st1 {
        fill: #293553;
      }

      .st2 {
        fill: #fff;
      }

      .st3 {
        fill: #fedd60;
      }

      .st4 {
        fill: #60b7ff;
      }

      .st5 {
        fill: #73d6bb;
      }

      .st6 {
        fill: #9a5a9a;
      }
    </style>
  </defs>
  <g id="Camada_2">
    <rect class="st2" x="0" y="0" width="720" height="720"/>
  </g>
  <g id="Camada_4">
    <g>
      <g>
        <path class="st0" d="M132.7,596.6c0,1.1-.9,1.9-1.9,1.9h0c-1.1,0-1.9-.8-1.9-1.9h0c0-1,.8-1.9,1.9-1.9h0c1,0,1.9.9,1.9,1.9Z"/>
        <path class="st0" d="M134.6,631.3c0,2.1-1.7,3.8-3.8,3.8h0c-2.1,0-3.8-1.7-3.8-3.8h0c0-2.1,1.7-3.8,3.8-3.8h0c2.1,0,3.8,1.7,3.8,3.8Z"/>
        <path class="st0" d="M132.7,666c0,1.1-.9,1.9-1.9,1.9h0c-1.1,0-1.9-.8-1.9-1.9h0c0-1,.8-1.9,1.9-1.9h0c1,0,1.9.9,1.9,1.9Z"/>
        <path class="st0" d="M165.3,561.8c0,1-.8,1.9-1.9,1.9h0c-1,0-1.9-.8-1.9-1.9h0c0-1.1.8-1.9,1.9-1.9h0c1.1,0,1.9.8,1.9,1.9Z"/>
        <path class="st0" d="M165.3,596.6c0,1.1-.8,1.9-1.9,1.9h0c-1,0-1.9-.8-1.9-1.9h0c0-1,.8-1.9,1.9-1.9h0c1.1,0,1.9.9,1.9,1.9Z"/>
        <path class="st0" d="M165.3,631.3c0,1-.8,1.9-1.9,1.9h0c-1,0-1.9-.9-1.9-1.9h0c0-1.1.8-1.9,1.9-1.9h0c1.1,0,1.9.8,1.9,1.9Z"/>
        <path class="st0" d="M165.3,666c0,1.1-.8,1.9-1.9,1.9h0c-1,0-1.9-.8-1.9-1.9h0c0-1,.8-1.9,1.9-1.9h0c1.1,0,1.9.9,1.9,1.9Z"/>
        <path class="st0" d="M203.7,561.8c0,4.2-3.4,7.6-7.6,7.6h0c-4.2,0-7.6-3.4-7.6-7.6h0c0-4.2,3.4-7.6,7.6-7.6h0c4.2,0,7.6,3.4,7.6,7.6Z"/>
        <path class="st0" d="M202.7,596.6c0,3.7-3,6.6-6.6,6.6h0c-3.7,0-6.6-3-6.6-6.6h0c0-3.7,3-6.6,6.6-6.6h0c3.7,0,6.6,3,6.6,6.6Z"/>
        <path class="st0" d="M198,631.3c0,1-.9,1.9-1.9,1.9h0c-1.1,0-1.9-.9-1.9-1.9h0c0-1.1.8-1.9,1.9-1.9h0c1,0,1.9.8,1.9,1.9Z"/>
        <path class="st0" d="M198,666c0,1.1-.9,1.9-1.9,1.9h0c-1.1,0-1.9-.8-1.9-1.9h0c0-1,.8-1.9,1.9-1.9h0c1,0,1.9.9,1.9,1.9Z"/>
        <path class="st0" d="M230.6,527.1c0,1.1-.9,1.9-1.9,1.9h0c-1,0-1.9-.8-1.9-1.9h0c0-1,.8-1.9,1.9-1.9h0c1.1,0,1.9.9,1.9,1.9Z"/>
        <path class="st0" d="M233.9,561.8c0,2.9-2.3,5.2-5.2,5.2h0c-2.9,0-5.2-2.3-5.2-5.2h0c0-2.9,2.3-5.2,5.2-5.2h0c2.9,0,5.2,2.3,5.2,5.2Z"/>
        <path class="st0" d="M230.6,596.6c0,1.1-.9,1.9-1.9,1.9h0c-1.1,0-1.9-.8-1.9-1.9h0c0-1,.8-1.9,1.9-1.9h0c1,0,1.9.9,1.9,1.9Z"/>
        <path class="st0" d="M230.6,631.3c0,1-.9,1.9-1.9,1.9h0c-1.1,0-1.9-.9-1.9-1.9h0c0-1.1.8-1.9,1.9-1.9h0c1,0,1.9.8,1.9,1.9Z"/>
        <path class="st0" d="M231.6,666c0,1.6-1.3,2.8-2.8,2.8h0c-1.6,0-2.8-1.3-2.8-2.8h0c0-1.6,1.3-2.8,2.8-2.8h0c1.6,0,2.8,1.3,2.8,2.8Z"/>
        <path class="st0" d="M230.6,700.8c0,1-.9,1.9-1.9,1.9h0c-1.1,0-1.9-.9-1.9-1.9h0c0-1.1.8-1.9,1.9-1.9h0c1,0,1.9.8,1.9,1.9Z"/>
        <path class="st0" d="M263.2,561.8c0,1-.8,1.9-1.9,1.9h0c-1,0-1.9-.9-1.9-1.9h0c0-1.1.8-1.9,1.9-1.9h0c1.1,0,1.9.8,1.9,1.9Z"/>
        <path class="st0" d="M263.2,596.6c0,1.1-.8,1.9-1.9,1.9h0c-1,0-1.9-.8-1.9-1.9h0c0-1,.8-1.9,1.9-1.9h0c1.1,0,1.9.9,1.9,1.9Z"/>
        <path class="st0" d="M265.1,631.3c0,2.1-1.7,3.8-3.8,3.8h0c-2.1,0-3.8-1.7-3.8-3.8h0c0-2.1,1.7-3.8,3.8-3.8h0c2.1,0,3.8,1.7,3.8,3.8Z"/>
        <path class="st0" d="M263.2,666c0,1.1-.8,1.9-1.9,1.9h0c-1,0-1.9-.8-1.9-1.9h0c0-1,.8-1.9,1.9-1.9h0c1.1,0,1.9.9,1.9,1.9Z"/>
        <path class="st0" d="M263.2,700.8c0,1-.8,1.9-1.9,1.9h0c-1,0-1.9-.9-1.9-1.9h0c0-1.1.8-1.9,1.9-1.9h0c1.1,0,1.9.8,1.9,1.9Z"/>
        <path class="st0" d="M295.9,527.1c0,1.1-.9,1.9-1.9,1.9h0c-1.1,0-1.9-.8-1.9-1.9h0c0-1,.8-1.9,1.9-1.9h0c1,0,1.9.9,1.9,1.9Z"/>
        <path class="st0" d="M295.9,561.8c0,1-.9,1.9-1.9,1.9h0c-1,0-1.9-.9-1.9-1.9h0c0-1.1.8-1.9,1.9-1.9h0c1.1,0,1.9.8,1.9,1.9Z"/>
        <path class="st0" d="M295.9,596.6c0,1.1-.9,1.9-1.9,1.9h0c-1.1,0-1.9-.8-1.9-1.9h0c0-1,.8-1.9,1.9-1.9h0c1,0,1.9.9,1.9,1.9Z"/>
        <path class="st0" d="M295.9,631.3c0,1-.9,1.9-1.9,1.9h0c-1,0-1.9-.9-1.9-1.9h0c0-1.1.8-1.9,1.9-1.9h0c1.1,0,1.9.9,1.9,1.9Z"/>
        <path class="st0" d="M295.9,666c0,1.1-.9,1.9-1.9,1.9h0c-1,0-1.9-.8-1.9-1.9h0c0-1,.8-1.9,1.9-1.9h0c1.1,0,1.9.9,1.9,1.9Z"/>
        <path class="st0" d="M295.9,700.8c0,1-.9,1.9-1.9,1.9h0c-1,0-1.9-.9-1.9-1.9h0c0-1.1.8-1.9,1.9-1.9h0c1.1,0,1.9.8,1.9,1.9Z"/>
        <path class="st0" d="M328.5,527.1c0,1.1-.9,1.9-1.9,1.9h0c-1,0-1.9-.8-1.9-1.9h0c0-1,.8-1.9,1.9-1.9h0c1.1,0,1.9.9,1.9,1.9Z"/>
        <path class="st0" d="M331.3,561.8c0,2.6-2.1,4.7-4.7,4.7h0c-2.6,0-4.7-2.1-4.7-4.7h0c0-2.6,2.1-4.7,4.7-4.7h0c2.6,0,4.7,2.1,4.7,4.7Z"/>
        <path class="st0" d="M328.5,596.6c0,1.1-.9,1.9-1.9,1.9h0c-1.1,0-1.9-.8-1.9-1.9h0c0-1,.8-1.9,1.9-1.9h0c1,0,1.9.9,1.9,1.9Z"/>
        <path class="st0" d="M329.4,631.3c0,1.6-1.3,2.8-2.8,2.8h0c-1.6,0-2.8-1.3-2.8-2.8h0c0-1.6,1.3-2.8,2.8-2.8h0c1.6,0,2.8,1.3,2.8,2.8Z"/>
        <path class="st0" d="M328.5,666c0,1.1-.8,1.9-1.9,1.9h0c-1.1,0-1.9-.8-1.9-1.9h0c0-1,.8-1.9,1.9-1.9h0c1,0,1.9.9,1.9,1.9Z"/>
        <path class="st0" d="M328.5,700.8c0,1-.8,1.9-1.9,1.9h0c-1.1,0-1.9-.9-1.9-1.9h0c0-1.1.8-1.9,1.9-1.9h0c1,0,1.9.8,1.9,1.9Z"/>
        <path class="st0" d="M361.1,561.8c0,1-.9,1.9-1.9,1.9h0c-1.1,0-1.9-.9-1.9-1.9h0c0-1.1.9-1.9,1.9-1.9h0c1,0,1.9.8,1.9,1.9Z"/>
        <path class="st0" d="M361.1,596.6c0,1.1-.9,1.9-1.9,1.9h0c-1.1,0-1.9-.8-1.9-1.9h0c0-1,.8-1.9,1.9-1.9h0c1,0,1.9.9,1.9,1.9Z"/>
        <path class="st0" d="M362.6,631.3c0,1.8-1.5,3.3-3.3,3.3h0c-1.8,0-3.3-1.5-3.3-3.3h0c0-1.8,1.5-3.3,3.3-3.3h0c1.8,0,3.3,1.5,3.3,3.3Z"/>
        <path class="st0" d="M361.1,666c0,1.1-.9,1.9-1.9,1.9h0c-1,0-1.9-.8-1.9-1.9h0c0-1,.8-1.9,1.9-1.9h0c1.1,0,1.9.9,1.9,1.9Z"/>
        <path class="st0" d="M393.8,527.1c0,1.1-.8,1.9-1.9,1.9h0c-1.1,0-1.9-.8-1.9-1.9h0c0-1,.9-1.9,1.9-1.9h0c1,0,1.9.9,1.9,1.9Z"/>
        <path class="st0" d="M393.8,561.8c0,1-.9,1.9-1.9,1.9h0c-1.1,0-1.9-.9-1.9-1.9h0c0-1.1.9-1.9,1.9-1.9h0c1,0,1.9.8,1.9,1.9Z"/>
        <path class="st0" d="M393.8,596.6c0,1.1-.8,1.9-1.9,1.9h0c-1,0-1.9-.8-1.9-1.9h0c0-1,.9-1.9,1.9-1.9h0c1.1,0,1.9.9,1.9,1.9Z"/>
        <path class="st0" d="M426.4,561.8c0,1-.8,1.9-1.9,1.9h0c-1.1,0-1.9-.9-1.9-1.9h0c0-1.1.8-1.9,1.9-1.9h0c1,0,1.9.8,1.9,1.9Z"/>
        <path class="st0" d="M67.5,596.6c0,1.1-.8,1.9-1.9,1.9h0c-1.1,0-1.9-.8-1.9-1.9h0c0-1,.8-1.9,1.9-1.9h0c1,0,1.9.9,1.9,1.9Z"/>
        <path class="st0" d="M67.5,631.3c0,1-.8,1.9-1.9,1.9h0c-1.1,0-1.9-.8-1.9-1.9h0c0-1.1.8-1.9,1.9-1.9h0c1,0,1.9.8,1.9,1.9Z"/>
        <path class="st0" d="M67.5,666c0,1.1-.8,1.9-1.9,1.9h0c-1.1,0-1.9-.8-1.9-1.9h0c0-1,.8-1.9,1.9-1.9h0c1,0,1.9.9,1.9,1.9Z"/>
        <path class="st0" d="M67.5,700.8c0,1-.8,1.9-1.9,1.9h0c-1.1,0-1.9-.9-1.9-1.9h0c0-1.1.8-1.9,1.9-1.9h0c1,0,1.9.8,1.9,1.9Z"/>
        <path class="st0" d="M101.5,596.6c0,1.8-1.5,3.3-3.3,3.3h0c-1.8,0-3.3-1.5-3.3-3.3h0c0-1.8,1.5-3.3,3.3-3.3h0c1.8,0,3.3,1.5,3.3,3.3Z"/>
        <path class="st0" d="M101.5,631.3c0,1.8-1.5,3.3-3.3,3.3h0c-1.8,0-3.3-1.5-3.3-3.3h0c0-1.8,1.5-3.3,3.3-3.3h0c1.8,0,3.3,1.5,3.3,3.3Z"/>
        <path class="st0" d="M100.1,666c0,1.1-.9,1.9-1.9,1.9h0c-1,0-1.9-.8-1.9-1.9h0c0-1,.8-1.9,1.9-1.9h0c1.1,0,1.9.9,1.9,1.9Z"/>
        <path class="st0" d="M100.1,700.8c0,1-.9,1.9-1.9,1.9h0c-1,0-1.9-.9-1.9-1.9h0c0-1.1.8-1.9,1.9-1.9h0c1.1,0,1.9.8,1.9,1.9Z"/>
      </g>
      <g>
        <path class="st0" d="M177.9,512.6c0-1.1.9-1.9,1.9-1.9h0c1.1,0,1.9.8,1.9,1.9h0c0,1-.8,1.9-1.9,1.9h0c-1,0-1.9-.9-1.9-1.9Z"/>
        <path class="st0" d="M176,477.8c0-2.1,1.7-3.8,3.8-3.8h0c2.1,0,3.8,1.7,3.8,3.8h0c0,2.1-1.7,3.8-3.8,3.8h0c-2.1,0-3.8-1.7-3.8-3.8Z"/>
        <path class="st0" d="M177.9,443.1c0-1.1.9-1.9,1.9-1.9h0c1.1,0,1.9.8,1.9,1.9h0c0,1-.8,1.9-1.9,1.9h0c-1,0-1.9-.9-1.9-1.9Z"/>
        <path class="st0" d="M145.2,547.3c0-1,.8-1.9,1.9-1.9h0c1,0,1.9.8,1.9,1.9h0c0,1.1-.8,1.9-1.9,1.9h0c-1.1,0-1.9-.8-1.9-1.9Z"/>
        <path class="st0" d="M145.2,512.6c0-1.1.8-1.9,1.9-1.9h0c1,0,1.9.8,1.9,1.9h0c0,1-.8,1.9-1.9,1.9h0c-1.1,0-1.9-.9-1.9-1.9Z"/>
        <path class="st0" d="M145.2,477.8c0-1,.8-1.9,1.9-1.9h0c1,0,1.9.9,1.9,1.9h0c0,1.1-.8,1.9-1.9,1.9h0c-1.1,0-1.9-.8-1.9-1.9Z"/>
        <path class="st0" d="M145.2,443.1c0-1.1.8-1.9,1.9-1.9h0c1,0,1.9.8,1.9,1.9h0c0,1-.8,1.9-1.9,1.9h0c-1.1,0-1.9-.9-1.9-1.9Z"/>
        <path class="st0" d="M106.9,547.3c0-4.2,3.4-7.6,7.6-7.6h0c4.2,0,7.6,3.4,7.6,7.6h0c0,4.2-3.4,7.6-7.6,7.6h0c-4.2,0-7.6-3.4-7.6-7.6h0Z"/>
        <path class="st0" d="M107.9,512.6c0-3.7,3-6.6,6.6-6.6h0c3.7,0,6.6,3,6.6,6.6h0c0,3.7-3,6.6-6.6,6.6h0c-3.7,0-6.6-3-6.6-6.6Z"/>
        <path class="st0" d="M112.6,477.8c0-1,.9-1.9,1.9-1.9h0c1.1,0,1.9.9,1.9,1.9h0c0,1.1-.8,1.9-1.9,1.9h0c-1,0-1.9-.8-1.9-1.9Z"/>
        <path class="st0" d="M112.6,443.1c0-1.1.9-1.9,1.9-1.9h0c1.1,0,1.9.8,1.9,1.9h0c0,1-.8,1.9-1.9,1.9h0c-1,0-1.9-.9-1.9-1.9Z"/>
        <path class="st0" d="M80,582c0-1.1.9-1.9,1.9-1.9h0c1,0,1.9.8,1.9,1.9h0c0,1-.8,1.9-1.9,1.9h0c-1.1,0-1.9-.9-1.9-1.9Z"/>
        <path class="st0" d="M76.7,547.3c0-2.9,2.3-5.2,5.2-5.2h0c2.9,0,5.2,2.3,5.2,5.2h0c0,2.9-2.3,5.2-5.2,5.2h0c-2.9,0-5.2-2.3-5.2-5.2Z"/>
        <path class="st0" d="M80,512.6c0-1.1.9-1.9,1.9-1.9h0c1.1,0,1.9.8,1.9,1.9h0c0,1-.8,1.9-1.9,1.9h0c-1,0-1.9-.9-1.9-1.9Z"/>
        <path class="st0" d="M80,477.8c0-1,.9-1.9,1.9-1.9h0c1.1,0,1.9.9,1.9,1.9h0c0,1.1-.8,1.9-1.9,1.9h0c-1,0-1.9-.8-1.9-1.9Z"/>
        <path class="st0" d="M79,443.1c0-1.6,1.3-2.8,2.8-2.8h0c1.6,0,2.8,1.3,2.8,2.8h0c0,1.6-1.3,2.8-2.8,2.8h0c-1.6,0-2.8-1.3-2.8-2.8Z"/>
        <path class="st0" d="M80,408.4c0-1,.9-1.9,1.9-1.9h0c1.1,0,1.9.9,1.9,1.9h0c0,1.1-.8,1.9-1.9,1.9h0c-1,0-1.9-.8-1.9-1.9Z"/>
        <path class="st0" d="M47.4,547.3c0-1,.8-1.9,1.9-1.9h0c1,0,1.9.9,1.9,1.9h0c0,1.1-.8,1.9-1.9,1.9h0c-1.1,0-1.9-.8-1.9-1.9Z"/>
        <path class="st0" d="M47.4,512.6c0-1.1.8-1.9,1.9-1.9h0c1,0,1.9.8,1.9,1.9h0c0,1-.8,1.9-1.9,1.9h0c-1.1,0-1.9-.9-1.9-1.9Z"/>
        <path class="st0" d="M45.5,477.8c0-2.1,1.7-3.8,3.8-3.8h0c2.1,0,3.8,1.7,3.8,3.8h0c0,2.1-1.7,3.8-3.8,3.8h0c-2.1,0-3.8-1.7-3.8-3.8Z"/>
        <path class="st0" d="M47.4,443.1c0-1.1.8-1.9,1.9-1.9h0c1,0,1.9.8,1.9,1.9h0c0,1-.8,1.9-1.9,1.9h0c-1.1,0-1.9-.9-1.9-1.9Z"/>
        <path class="st0" d="M47.4,408.4c0-1,.8-1.9,1.9-1.9h0c1,0,1.9.9,1.9,1.9h0c0,1.1-.8,1.9-1.9,1.9h0c-1.1,0-1.9-.8-1.9-1.9Z"/>
        <path class="st0" d="M14.7,582c0-1.1.9-1.9,1.9-1.9h0c1.1,0,1.9.8,1.9,1.9h0c0,1-.8,1.9-1.9,1.9h0c-1,0-1.9-.9-1.9-1.9Z"/>
        <path class="st0" d="M14.7,547.3c0-1,.9-1.9,1.9-1.9h0c1,0,1.9.9,1.9,1.9h0c0,1.1-.8,1.9-1.9,1.9h0c-1.1,0-1.9-.8-1.9-1.9Z"/>
        <path class="st0" d="M14.7,512.6c0-1.1.9-1.9,1.9-1.9h0c1.1,0,1.9.8,1.9,1.9h0c0,1-.8,1.9-1.9,1.9h0c-1,0-1.9-.9-1.9-1.9Z"/>
        <path class="st0" d="M14.7,477.8c0-1,.9-1.9,1.9-1.9h0c1,0,1.9.9,1.9,1.9h0c0,1.1-.8,1.9-1.9,1.9h0c-1.1,0-1.9-.9-1.9-1.9Z"/>
        <path class="st0" d="M14.7,443.1c0-1.1.9-1.9,1.9-1.9h0c1,0,1.9.8,1.9,1.9h0c0,1-.8,1.9-1.9,1.9h0c-1.1,0-1.9-.9-1.9-1.9Z"/>
        <path class="st0" d="M14.7,408.4c0-1,.9-1.9,1.9-1.9h0c1,0,1.9.9,1.9,1.9h0c0,1.1-.8,1.9-1.9,1.9h0c-1.1,0-1.9-.8-1.9-1.9Z"/>
        <path class="st0" d="M243.1,512.6c0-1.1.8-1.9,1.9-1.9h0c1.1,0,1.9.8,1.9,1.9h0c0,1-.8,1.9-1.9,1.9h0c-1,0-1.9-.9-1.9-1.9Z"/>
        <path class="st0" d="M243.1,477.8c0-1,.8-1.9,1.9-1.9h0c1.1,0,1.9.8,1.9,1.9h0c0,1.1-.8,1.9-1.9,1.9h0c-1,0-1.9-.8-1.9-1.9Z"/>
        <path class="st0" d="M243.1,443.1c0-1.1.8-1.9,1.9-1.9h0c1.1,0,1.9.8,1.9,1.9h0c0,1-.8,1.9-1.9,1.9h0c-1,0-1.9-.9-1.9-1.9Z"/>
        <path class="st0" d="M243.1,408.4c0-1,.8-1.9,1.9-1.9h0c1.1,0,1.9.9,1.9,1.9h0c0,1.1-.8,1.9-1.9,1.9h0c-1,0-1.9-.8-1.9-1.9Z"/>
        <path class="st0" d="M209.1,512.6c0-1.8,1.5-3.3,3.3-3.3h0c1.8,0,3.3,1.5,3.3,3.3h0c0,1.8-1.5,3.3-3.3,3.3h0c-1.8,0-3.3-1.5-3.3-3.3Z"/>
        <path class="st0" d="M209.1,477.8c0-1.8,1.5-3.3,3.3-3.3h0c1.8,0,3.3,1.5,3.3,3.3h0c0,1.8-1.5,3.3-3.3,3.3h0c-1.8,0-3.3-1.5-3.3-3.3Z"/>
        <path class="st0" d="M210.5,443.1c0-1.1.9-1.9,1.9-1.9h0c1,0,1.9.8,1.9,1.9h0c0,1-.8,1.9-1.9,1.9h0c-1.1,0-1.9-.9-1.9-1.9Z"/>
        <path class="st0" d="M210.5,408.4c0-1,.9-1.9,1.9-1.9h0c1,0,1.9.9,1.9,1.9h0c0,1.1-.8,1.9-1.9,1.9h0c-1.1,0-1.9-.8-1.9-1.9Z"/>
      </g>
      <g>
        <path class="st0" d="M636.2,559.5c0-1.1.9-1.9,1.9-1.9h0c1.1,0,1.9.8,1.9,1.9h0c0,1-.8,1.9-1.9,1.9h0c-1,0-1.9-.9-1.9-1.9Z"/>
        <path class="st0" d="M634.3,524.7c0-2.1,1.7-3.8,3.8-3.8h0c2.1,0,3.8,1.7,3.8,3.8h0c0,2.1-1.7,3.8-3.8,3.8h0c-2.1,0-3.8-1.7-3.8-3.8Z"/>
        <path class="st0" d="M636.2,490c0-1.1.9-1.9,1.9-1.9h0c1.1,0,1.9.8,1.9,1.9h0c0,1-.8,1.9-1.9,1.9h0c-1,0-1.9-.9-1.9-1.9Z"/>
        <path class="st0" d="M603.6,594.2c0-1,.8-1.9,1.9-1.9h0c1,0,1.9.8,1.9,1.9h0c0,1.1-.8,1.9-1.9,1.9h0c-1.1,0-1.9-.8-1.9-1.9Z"/>
        <path class="st0" d="M603.6,559.5c0-1.1.8-1.9,1.9-1.9h0c1,0,1.9.8,1.9,1.9h0c0,1-.8,1.9-1.9,1.9h0c-1.1,0-1.9-.9-1.9-1.9Z"/>
        <path class="st0" d="M603.6,524.7c0-1,.8-1.9,1.9-1.9h0c1,0,1.9.9,1.9,1.9h0c0,1.1-.8,1.9-1.9,1.9h0c-1.1,0-1.9-.8-1.9-1.9Z"/>
        <path class="st0" d="M603.6,490c0-1.1.8-1.9,1.9-1.9h0c1,0,1.9.8,1.9,1.9h0c0,1-.8,1.9-1.9,1.9h0c-1.1,0-1.9-.9-1.9-1.9Z"/>
        <path class="st0" d="M565.3,594.2c0-4.2,3.4-7.6,7.6-7.6h0c4.2,0,7.6,3.4,7.6,7.6h0c0,4.2-3.4,7.6-7.6,7.6h0c-4.2,0-7.6-3.4-7.6-7.6Z"/>
        <path class="st0" d="M566.2,559.5c0-3.7,3-6.6,6.6-6.6h0c3.7,0,6.6,3,6.6,6.6h0c0,3.7-3,6.6-6.6,6.6h0c-3.7,0-6.6-3-6.6-6.6Z"/>
        <path class="st0" d="M571,524.7c0-1,.9-1.9,1.9-1.9h0c1.1,0,1.9.9,1.9,1.9h0c0,1.1-.8,1.9-1.9,1.9h0c-1,0-1.9-.8-1.9-1.9Z"/>
        <path class="st0" d="M571,490c0-1.1.9-1.9,1.9-1.9h0c1.1,0,1.9.8,1.9,1.9h0c0,1-.8,1.9-1.9,1.9h0c-1,0-1.9-.9-1.9-1.9Z"/>
        <path class="st0" d="M538.3,628.9c0-1.1.9-1.9,1.9-1.9h0c1,0,1.9.8,1.9,1.9h0c0,1-.8,1.9-1.9,1.9h0c-1.1,0-1.9-.9-1.9-1.9Z"/>
        <path class="st0" d="M535,594.2c0-2.9,2.3-5.2,5.2-5.2h0c2.9,0,5.2,2.3,5.2,5.2h0c0,2.9-2.3,5.2-5.2,5.2h0c-2.9,0-5.2-2.3-5.2-5.2Z"/>
        <path class="st0" d="M538.3,559.5c0-1.1.9-1.9,1.9-1.9h0c1.1,0,1.9.8,1.9,1.9h0c0,1-.8,1.9-1.9,1.9h0c-1,0-1.9-.9-1.9-1.9Z"/>
        <path class="st0" d="M538.3,524.7c0-1,.9-1.9,1.9-1.9h0c1.1,0,1.9.9,1.9,1.9h0c0,1.1-.8,1.9-1.9,1.9h0c-1,0-1.9-.8-1.9-1.9Z"/>
        <path class="st0" d="M537.5,490c0-1.6,1.3-2.8,2.8-2.8h0c1.6,0,2.8,1.3,2.8,2.8h0c0,1.6-1.3,2.8-2.8,2.8h0c-1.6,0-2.8-1.3-2.8-2.8Z"/>
        <path class="st0" d="M538.3,455.3c0-1,.9-1.9,1.9-1.9h0c1.1,0,1.9.9,1.9,1.9h0c0,1.1-.8,1.9-1.9,1.9h0c-1,0-1.9-.8-1.9-1.9Z"/>
        <path class="st0" d="M505.7,594.2c0-1,.8-1.9,1.9-1.9h0c1,0,1.9.9,1.9,1.9h0c0,1.1-.8,1.9-1.9,1.9h0c-1.1,0-1.9-.8-1.9-1.9Z"/>
        <path class="st0" d="M505.7,559.5c0-1.1.8-1.9,1.9-1.9h0c1,0,1.9.8,1.9,1.9h0c0,1-.8,1.9-1.9,1.9h0c-1.1,0-1.9-.9-1.9-1.9Z"/>
        <path class="st0" d="M503.8,524.7c0-2.1,1.7-3.8,3.8-3.8h0c2.1,0,3.8,1.7,3.8,3.8h0c0,2.1-1.7,3.8-3.8,3.8h0c-2.1,0-3.8-1.7-3.8-3.8Z"/>
        <path class="st0" d="M505.7,490c0-1.1.8-1.9,1.9-1.9h0c1,0,1.9.8,1.9,1.9h0c0,1-.8,1.9-1.9,1.9h0c-1.1,0-1.9-.9-1.9-1.9Z"/>
        <path class="st0" d="M505.7,455.3c0-1,.8-1.9,1.9-1.9h0c1,0,1.9.9,1.9,1.9h0c0,1.1-.8,1.9-1.9,1.9h0c-1.1,0-1.9-.8-1.9-1.9Z"/>
        <path class="st0" d="M473.1,628.9c0-1.1.9-1.9,1.9-1.9h0c1.1,0,1.9.8,1.9,1.9h0c0,1-.8,1.9-1.9,1.9h0c-1,0-1.9-.9-1.9-1.9Z"/>
        <path class="st0" d="M473.1,594.2c0-1,.9-1.9,1.9-1.9h0c1,0,1.9.9,1.9,1.9h0c0,1.1-.8,1.9-1.9,1.9h0c-1.1,0-1.9-.8-1.9-1.9Z"/>
        <path class="st0" d="M473.1,559.5c0-1.1.9-1.9,1.9-1.9h0c1.1,0,1.9.8,1.9,1.9h0c0,1-.8,1.9-1.9,1.9h0c-1,0-1.9-.9-1.9-1.9Z"/>
        <path class="st0" d="M473.1,524.7c0-1,.9-1.9,1.9-1.9h0c1,0,1.9.9,1.9,1.9h0c0,1.1-.8,1.9-1.9,1.9h0c-1.1,0-1.9-.9-1.9-1.9Z"/>
        <path class="st0" d="M473.1,490c0-1.1.9-1.9,1.9-1.9h0c1,0,1.9.8,1.9,1.9h0c0,1-.8,1.9-1.9,1.9h0c-1.1,0-1.9-.9-1.9-1.9Z"/>
        <path class="st0" d="M473.1,455.3c0-1,.9-1.9,1.9-1.9h0c1,0,1.9.9,1.9,1.9h0c0,1.1-.8,1.9-1.9,1.9h0c-1.1,0-1.9-.8-1.9-1.9Z"/>
        <path class="st0" d="M440.4,628.9c0-1.1.9-1.9,1.9-1.9h0c1,0,1.9.8,1.9,1.9h0c0,1-.8,1.9-1.9,1.9h0c-1.1,0-1.9-.9-1.9-1.9Z"/>
        <path class="st0" d="M437.6,594.2c0-2.6,2.1-4.7,4.7-4.7h0c2.6,0,4.7,2.1,4.7,4.7h0c0,2.6-2.1,4.7-4.7,4.7h0c-2.6,0-4.7-2.1-4.7-4.7Z"/>
        <path class="st0" d="M440.4,559.5c0-1.1.9-1.9,1.9-1.9h0c1.1,0,1.9.8,1.9,1.9h0c0,1-.8,1.9-1.9,1.9h0c-1,0-1.9-.9-1.9-1.9Z"/>
        <path class="st0" d="M439.5,524.7c0-1.6,1.3-2.8,2.8-2.8h0c1.6,0,2.8,1.3,2.8,2.8h0c0,1.6-1.3,2.8-2.8,2.8h0c-1.6,0-2.8-1.3-2.8-2.8Z"/>
        <path class="st0" d="M440.5,490c0-1.1.8-1.9,1.9-1.9h0c1.1,0,1.9.8,1.9,1.9h0c0,1-.8,1.9-1.9,1.9h0c-1,0-1.9-.9-1.9-1.9Z"/>
        <path class="st0" d="M440.5,455.3c0-1,.8-1.9,1.9-1.9h0c1.1,0,1.9.9,1.9,1.9h0c0,1.1-.8,1.9-1.9,1.9h0c-1,0-1.9-.8-1.9-1.9Z"/>
        <path class="st0" d="M407.8,594.2c0-1,.9-1.9,1.9-1.9h0c1.1,0,1.9.9,1.9,1.9h0c0,1.1-.9,1.9-1.9,1.9h0c-1,0-1.9-.8-1.9-1.9Z"/>
        <path class="st0" d="M407.8,559.5c0-1.1.9-1.9,1.9-1.9h0c1.1,0,1.9.8,1.9,1.9h0c0,1-.8,1.9-1.9,1.9h0c-1,0-1.9-.9-1.9-1.9Z"/>
        <path class="st0" d="M406.4,524.7c0-1.8,1.5-3.3,3.3-3.3h0c1.8,0,3.3,1.5,3.3,3.3h0c0,1.8-1.5,3.3-3.3,3.3h0c-1.8,0-3.3-1.5-3.3-3.3Z"/>
        <path class="st0" d="M407.8,490c0-1.1.9-1.9,1.9-1.9h0c1,0,1.9.8,1.9,1.9h0c0,1-.8,1.9-1.9,1.9h0c-1.1,0-1.9-.9-1.9-1.9Z"/>
        <path class="st0" d="M375.2,628.9c0-1.1.8-1.9,1.9-1.9h0c1.1,0,1.9.8,1.9,1.9h0c0,1-.9,1.9-1.9,1.9h0c-1,0-1.9-.9-1.9-1.9Z"/>
        <path class="st0" d="M375.2,594.2c0-1,.9-1.9,1.9-1.9h0c1.1,0,1.9.9,1.9,1.9h0c0,1.1-.9,1.9-1.9,1.9h0c-1,0-1.9-.8-1.9-1.9Z"/>
        <path class="st0" d="M375.2,559.5c0-1.1.8-1.9,1.9-1.9h0c1,0,1.9.8,1.9,1.9h0c0,1-.9,1.9-1.9,1.9h0c-1.1,0-1.9-.9-1.9-1.9Z"/>
        <path class="st0" d="M342.6,594.2c0-1,.8-1.9,1.9-1.9h0c1.1,0,1.9.9,1.9,1.9h0c0,1.1-.8,1.9-1.9,1.9h0c-1,0-1.9-.8-1.9-1.9Z"/>
        <path class="st0" d="M701.5,559.5c0-1.1.8-1.9,1.9-1.9h0c1.1,0,1.9.8,1.9,1.9h0c0,1-.8,1.9-1.9,1.9h0c-1,0-1.9-.9-1.9-1.9Z"/>
        <path class="st0" d="M701.5,524.7c0-1,.8-1.9,1.9-1.9h0c1.1,0,1.9.8,1.9,1.9h0c0,1.1-.8,1.9-1.9,1.9h0c-1,0-1.9-.8-1.9-1.9Z"/>
        <path class="st0" d="M701.5,490c0-1.1.8-1.9,1.9-1.9h0c1.1,0,1.9.8,1.9,1.9h0c0,1-.8,1.9-1.9,1.9h0c-1,0-1.9-.9-1.9-1.9Z"/>
        <path class="st0" d="M701.5,455.3c0-1,.8-1.9,1.9-1.9h0c1.1,0,1.9.9,1.9,1.9h0c0,1.1-.8,1.9-1.9,1.9h0c-1,0-1.9-.8-1.9-1.9Z"/>
        <path class="st0" d="M667.5,559.5c0-1.8,1.5-3.3,3.3-3.3h0c1.8,0,3.3,1.5,3.3,3.3h0c0,1.8-1.5,3.3-3.3,3.3h0c-1.8,0-3.3-1.5-3.3-3.3Z"/>
        <path class="st0" d="M667.5,524.7c0-1.8,1.5-3.3,3.3-3.3h0c1.8,0,3.3,1.5,3.3,3.3h0c0,1.8-1.5,3.3-3.3,3.3h0c-1.8,0-3.3-1.5-3.3-3.3Z"/>
        <path class="st0" d="M669,490c0-1.1.9-1.9,1.9-1.9h0c1,0,1.9.8,1.9,1.9h0c0,1-.8,1.9-1.9,1.9h0c-1.1,0-1.9-.9-1.9-1.9Z"/>
        <path class="st0" d="M669,455.3c0-1,.9-1.9,1.9-1.9h0c1,0,1.9.9,1.9,1.9h0c0,1.1-.8,1.9-1.9,1.9h0c-1.1,0-1.9-.8-1.9-1.9Z"/>
      </g>
    </g>
  </g>
  <g id="Camada_3">
    <circle class="st6" cx="236.8" cy="154.7" r="18.8"/>
    <circle class="st6" cx="496.3" cy="576.1" r="18.8"/>
    <circle class="st5" cx="367.3" cy="152.1" r="18.8"/>
    <circle class="st5" cx="236.1" cy="577.8" r="18.8"/>
    <polygon class="st4" points="334.2 274.6 349.7 226 387.1 231.2 397.7 270.3 442.2 259.3 472.4 281.1 453.4 307.4 463 336.3 490 336.3 499.4 347.7 496.3 378.9 459.9 387.2 453.6 410.1 471.3 441.3 447.4 468.3 418.3 448.6 391.2 456.9 384 495.3 343.4 493.3 340.3 457.9 316.4 450.6 288.3 468.3 260.2 443.4 281 413.2 269.6 382 238.4 375.8 238.4 343.5 267.5 338.3 280 309.2 261.3 278 286.2 258.3 313.3 272.8 334.2 274.6"/>
    <circle class="st2" cx="364.9" cy="360.6" r="44.4"/>
    <circle class="st3" cx="495.1" cy="148.9" r="18.7"/>
    <circle class="st3" cx="365.8" cy="577" r="18.7"/>
    <rect class="st3" x="124.5" y="185.8" width="51.8" height="35.1"/>
    <rect class="st3" x="555.6" y="187.4" width="53.5" height="36.8"/>
    <rect class="st3" x="548.9" y="508.2" width="63.5" height="33.4"/>
    <rect class="st3" x="124.5" y="508.2" width="51.8" height="35.1"/>
  </g>
  <g id="Layer_1">
    <path class="st1" d="M502.3,547.6v-51.8c0-2.1-.8-4.2-2.4-5.7l-32.4-32.4,11.2-11.2c2.8-2.8,3.2-7.2.8-10.5l-17.2-24c3-5.7,5.5-11.7,7.4-17.9l29.2-4.8c3.9-.6,6.8-4,6.8-8v-39.3c0-4-2.9-7.4-6.8-8l-29.2-4.8c-1.9-6.1-4.4-12.1-7.4-17.9l17.2-24c2.3-3.2,1.9-7.6-.8-10.5l-8.8-8.8,30.1-30.1c1.5-1.5,2.4-3.6,2.4-5.7v-51.8c12.3-3.6,21.3-14.8,21.3-28.2s-13.2-29.5-29.5-29.5-29.5,13.2-29.5,29.5,9.1,24.6,21.3,28.2v48.4l-27.7,27.7-7.5-7.5c-2.8-2.8-7.3-3.2-10.5-.8l-24,17.2c-5.7-3-11.7-5.5-17.9-7.4l-4.8-29.2c-.6-3.9-4-6.8-8-6.8h-11.6v-41.6c12.3-3.6,21.3-14.8,21.3-28.2s-13.2-29.5-29.5-29.5-29.5,13.2-29.5,29.5,9.1,24.6,21.3,28.2v41.6h-11.6c-4,0-7.4,2.9-8,6.8l-4.8,29.2c-6.1,1.9-12.1,4.4-17.9,7.4l-24-17.2c-3.2-2.3-7.6-2-10.5.8l-9.2,9.2-29.4-29.4v-48.4c12.3-3.6,21.3-14.8,21.3-28.2s-13.2-29.5-29.5-29.5-29.5,13.2-29.5,29.5,9.1,24.6,21.3,28.2v51.8c0,2.1.8,4.2,2.4,5.7l31.8,31.8-7.2,7.2c-2.8,2.8-3.2,7.2-.8,10.5l17.2,24c-3,5.7-5.5,11.7-7.4,17.9l-29.2,4.8c-3.9.6-6.8,4-6.8,8v39.3c0,4,2.9,7.4,6.8,8l29.2,4.8c1.9,6.1,4.4,12.1,7.4,17.9l-17.2,24c-2.3,3.2-1.9,7.6.8,10.5l9.5,9.5-34.1,34.1c-1.5,1.5-2.4,3.6-2.4,5.7v51.8c-12.3,3.6-21.3,14.8-21.3,28.2s13.2,29.5,29.5,29.5,29.5-13.2,29.5-29.5-9.1-24.6-21.3-28.2v-48.4l31.7-31.7,6.9,6.9c2.8,2.8,7.2,3.2,10.5.8l24-17.2c5.7,3,11.7,5.5,17.9,7.4l4.8,29.2c.6,3.9,4,6.8,8,6.8h8.2v46.3c-12.3,3.6-21.3,14.8-21.3,28.2s13.2,29.5,29.5,29.5,29.5-13.2,29.5-29.5-9.1-24.6-21.3-28.2v-46.3h14.9c4,0,7.4-2.9,8-6.8l4.8-29.2c6.1-1.9,12.1-4.4,17.9-7.4l24,17.2c3.2,2.3,7.6,1.9,10.5-.8l5.2-5.2,30,30v48.4c-12.3,3.6-21.3,14.8-21.3,28.2s13.2,29.5,29.5,29.5,29.5-13.2,29.5-29.5c0-13.4-9.1-24.6-21.3-28.2h0ZM480.9,152.2c0-7.3,5.9-13.2,13.2-13.2s13.2,5.9,13.2,13.2-5.9,13.2-13.2,13.2-13.2-6-13.2-13.2ZM352.8,152.2c0-7.3,5.9-13.2,13.2-13.2s13.2,5.9,13.2,13.2-5.9,13.2-13.2,13.2-13.2-6-13.2-13.2ZM221.3,152.2c0-7.3,5.9-13.2,13.2-13.2s13.2,5.9,13.2,13.2-5.9,13.2-13.2,13.2-13.2-6-13.2-13.2ZM247.8,575.8c0,7.3-5.9,13.2-13.2,13.2s-13.2-6-13.2-13.2,5.9-13.2,13.2-13.2,13.2,6,13.2,13.2ZM375.9,575.8c0,7.3-5.9,13.2-13.2,13.2s-13.2-6-13.2-13.2,5.9-13.2,13.2-13.2,13.2,6,13.2,13.2ZM444.3,458l-22.6-16.2c-2.6-1.9-6.1-2-8.8-.4-7.4,4.3-15.3,7.6-23.5,9.8-3.1.8-5.4,3.3-6,6.5l-4.5,27.4h-25.6l-4.5-27.4c-.5-3.2-2.9-5.7-6-6.5-8.2-2.1-16.1-5.4-23.5-9.8-2.8-1.6-6.2-1.5-8.8.4l-22.6,16.2-18.1-18.1,16.2-22.6c1.9-2.6,2-6.1.4-8.8-4.3-7.4-7.6-15.3-9.8-23.5-.8-3.1-3.4-5.4-6.5-6l-27.4-4.5v-25.6l27.4-4.5c3.2-.5,5.7-2.9,6.5-6,2.1-8.2,5.4-16.1,9.8-23.5,1.6-2.8,1.5-6.2-.4-8.8l-16.2-22.6,18.1-18.1,22.6,16.2c2.6,1.9,6.1,2,8.8.4,7.4-4.3,15.3-7.6,23.5-9.8,3.1-.8,5.4-3.4,6-6.5l4.5-27.4h25.6l4.5,27.4c.5,3.2,2.9,5.7,6,6.5,8.2,2.1,16.1,5.4,23.5,9.8,2.7,1.6,6.2,1.5,8.8-.4l22.6-16.2,18.1,18.1-16.2,22.6c-1.9,2.6-2,6.1-.4,8.8,4.3,7.4,7.6,15.3,9.8,23.5.8,3.1,3.4,5.4,6.5,6l27.4,4.5v25.6l-27.4,4.5c-3.2.5-5.7,2.9-6.5,6-2.1,8.2-5.4,16.1-9.8,23.5-1.6,2.8-1.5,6.2.4,8.8l16.2,22.6-18.1,18.1ZM494.2,589c-7.3,0-13.2-6-13.2-13.2s5.9-13.2,13.2-13.2,13.2,6,13.2,13.2-5.9,13.2-13.2,13.2Z"/>
    <path class="st1" d="M366,304.6c-31.5,0-57.1,25.6-57.1,57.1s25.6,57.1,57.1,57.1,57.1-25.6,57.1-57.1c0-31.5-25.6-57.1-57.1-57.1ZM366,402.5c-22.5,0-40.9-18.3-40.9-40.9s18.3-40.9,40.9-40.9,40.9,18.3,40.9,40.9-18.3,40.9-40.9,40.9Z"/>
    <path class="st1" d="M607.5,177.5h-56.8c-4.5,0-8.1,3.6-8.1,8.1v37.1c0,4.5,3.6,8.1,8.1,8.1h20.3v103.3h-51.2c-4.5,0-8.1,3.6-8.1,8.1s3.6,8.1,8.1,8.1h59.3c4.5,0,8.1-3.6,8.1-8.1v-111.4h20.3c4.5,0,8.1-3.6,8.1-8.1v-37.1c0-4.5-3.6-8.1-8.1-8.1h0ZM599.4,214.6h-40.6v-20.9h40.6v20.9Z"/>
    <path class="st1" d="M607.5,497.2h-20.3v-111.4c0-4.5-3.7-8.1-8.1-8.1h-59.3c-4.5,0-8.1,3.6-8.1,8.1s3.6,8.1,8.1,8.1h51.2v103.3h-20.3c-4.5,0-8.1,3.6-8.1,8.1v37.1c0,4.5,3.6,8.1,8.1,8.1h56.8c4.5,0,8.1-3.6,8.1-8.1v-37.1c0-4.5-3.6-8.1-8.1-8.1h0ZM599.4,534.3h-40.6v-20.9h40.6v20.9Z"/>
    <path class="st1" d="M178,497.2h-20.3v-103.3s51.2,0,51.2,0c4.5,0,8.1-3.6,8.1-8.1s-3.6-8.1-8.1-8.1h-59.3c-4.5,0-8.1,3.6-8.1,8.1v111.4h-20.3c-4.5,0-8.1,3.6-8.1,8.1v37.1c0,4.5,3.6,8.1,8.1,8.1h56.8c4.5,0,8.1-3.6,8.1-8.1v-37.1c0-4.5-3.6-8.1-8.1-8.1h0ZM169.8,534.3h-40.6v-20.9h40.6v20.9Z"/>
    <path class="st1" d="M121.1,230.8h20.3v111.4c0,4.5,3.6,8.1,8.1,8.1h59.3c4.5,0,8.1-3.6,8.1-8.1s-3.6-8.1-8.1-8.1h-51.2v-103.3h20.3c4.5,0,8.1-3.6,8.1-8.1v-37.2c0-4.5-3.6-8.1-8.1-8.1h-56.8c-4.5,0-8.1,3.6-8.1,8.1v37.1c0,4.5,3.6,8.1,8.1,8.1h0ZM129.2,193.7h40.6v20.9h-40.6v-20.9Z"/>
  </g>
</svg>