<?xml version="1.0" encoding="UTF-8"?>
<svg id="Camada_1" xmlns="http://www.w3.org/2000/svg" version="1.1" viewBox="0 0 120 120">
  <!-- Generator: Adobe Illustrator 29.6.0, SVG Export Plug-In . SVG Version: 2.1.1 Build 207)  -->
  <defs>
    <style>
      .st0 {
        fill: #985998;
      }
    </style>
  </defs>
  <path id="_x37_" class="st0" d="M60,110.6c-27.9,0-50.6-22.7-50.6-50.6S32.1,9.4,60,9.4s50.6,22.7,50.6,50.6-22.7,50.6-50.6,50.6ZM57,107c2,.1,4,.1,6,0v-32.8h3.5v32.5c2-.3,4-.7,6-1.2v-31.2h3.5v30.1c18.1-6.5,31.1-23.9,31.1-44.3S86,12.9,60,12.9,12.9,34,12.9,60s13,37.8,31.1,44.3v-30.1h3.5v31.2c1.9.5,3.9.9,5.9,1.2v-32.5h3.5v32.8ZM37,97.9c-13.3-8.1-21.3-22.3-21.3-37.9,0-24.4,19.9-44.3,44.3-44.3s44.3,19.9,44.3,44.3-8,29.8-21.3,37.9l-1.8-3c12.3-7.5,19.6-20.5,19.6-34.9,0-22.5-18.3-40.8-40.8-40.8S19.2,37.5,19.2,60s7.3,27.4,19.6,34.9l-1.8,3ZM78.9,71.2h-37.8v-3.5h3c0-1.6-1.4-2.8-3-2.8v-3.5c3.5,0,6.4,2.8,6.5,6.3h6c0-2.9,2.1-5.3,4.7-6.1v-6.2h-1.4c-1.6,0-3,1.3-3,3h-3.5c0-3.6,2.9-6.5,6.5-6.5h6.3v3.5h-1.4v6.2c2.7.8,4.6,3.2,4.7,6.1h6c0-3.5,3-6.3,6.5-6.3v3.5c-1.6,0-2.9,1.2-3,2.8h3v3.5ZM57,67.7h5.9c0-1.6-1.4-2.8-3-2.8s-2.9,1.2-3,2.8ZM78.9,58.6c-3.6,0-6.5-2.9-6.5-6.5h3.5c0,1.6,1.3,3,3,3s3-1.3,3-3-1.3-3-3-3h-37.8v-3.5h37.8c3.6,0,6.5,2.9,6.5,6.5s-2.9,6.5-6.5,6.5ZM41.1,58.6c-3.6,0-6.5-2.9-6.5-6.5s2.9-6.5,6.5-6.5v3.5c-1.6,0-3,1.3-3,3s1.3,3,3,3,3-1.3,3-3h3.5c0,3.6-2.9,6.5-6.5,6.5ZM69.6,58.4h-3.5c0-1.6-1.3-3-3-3v-3.5c3.6,0,6.5,2.9,6.5,6.5ZM78.9,42.9h-37.8v-3.5h37.8v3.5Z"/>
</svg>