<?xml version="1.0" encoding="UTF-8"?>
<svg id="icons" xmlns="http://www.w3.org/2000/svg" version="1.1" viewBox="0 0 100 100">
  <!-- Generator: Adobe Illustrator 29.6.0, SVG Export Plug-In . SVG Version: 2.1.1 Build 207)  -->
  <defs>
    <style>
      .st0 {
        fill: #ac599c;
      }

      .st1 {
        fill: #46bc93;
      }

      .st2 {
        display: none;
      }
    </style>
  </defs>
  <g id="ic1" class="st2">
    <path class="st1" d="M74.4,55.2c-.5-1.3-1.2-2.5-1.9-3.6v-21.1c0-6-2.3-11.6-6.6-15.9-4.2-4.2-9.8-6.6-15.8-6.6h0c-6,0-11.6,2.3-15.9,6.6-4.2,4.2-6.6,9.9-6.6,15.9v3.1h9v-3.1c0-3.6,1.4-7,3.9-9.5s5.9-3.9,9.5-3.9h0c7.4,0,13.5,6,13.5,13.5v12.3c-1-.6-2.1-1.2-3.2-1.6-3.3-1.6-6.7-2.3-10.3-2.3s-7,.7-10.3,2.1c-3.2,1.3-6,3.2-8.4,5.7-2.4,2.4-4.3,5.3-5.7,8.4-1.4,3.3-2.1,6.7-2.1,10.3s.7,7,2.1,10.3c1.3,3.2,3.2,6,5.7,8.4,2.4,2.4,5.3,4.3,8.4,5.7,3.3,1.4,6.7,2.1,10.3,2.1s7-.7,10.3-2.1c3.2-1.3,6-3.2,8.4-5.7,2.4-2.4,4.3-5.3,5.7-8.4,1.4-3.3,2.1-6.7,2.1-10.3,0-3.6-.7-7-2.1-10.3ZM50,83c-9.6,0-17.5-7.8-17.5-17.5s7.9-17.5,17.5-17.5,17.5,7.8,17.5,17.5-7.9,17.5-17.5,17.5Z"/>
    <circle class="st1" cx="50.1" cy="65.6" r="7.4"/>
  </g>
  <g id="ic2">
    <path class="st0" d="M81.5,32.1c-1.2-6.4-6.8-11.1-13.5-11.1s-1.4.1-2.1.2c-4.3-7-11.8-11.3-20-11.3s-21.2,8.3-23.1,19.5c-.6-.1-1.2-.1-1.8-.1-8.4,0-15.2,6.8-15.2,15.2s6.8,15.2,15.2,15.2h11c.7,0,1.3-.6,1.3-1.3s-.6-1.4-1.3-1.4h-11.1c-6.9,0-12.6-5.6-12.6-12.5s5.6-12.6,12.6-12.6,1.8.1,2.6.3c.4,0,.7,0,1-.2s.5-.5.5-.9c1.2-10.6,10.1-18.6,20.7-18.6s14.6,4.1,18.2,10.7c.3.5.9.8,1.4.6.8-.2,1.7-.3,2.5-.3,5.7,0,10.5,4.3,11.1,9.9,0,.7.6,1.2,1.3,1.2h0c6.1,0,11.1,5,11.1,11.2s-5,11.2-11.2,11.2h-22v-5.9c1.6-.5,2.8-2.1,2.8-3.9v-16.6c0-2.2-1.8-4.1-4.1-4.1h-16.6c-2.2,0-4.1,1.8-4.1,4.1v16.6c0,1.8,1.2,3.3,2.8,3.9v5.9h-1.5c-.7,0-1.3.6-1.3,1.3s.6,1.3,1.3,1.3h1.5v5.7h-8.7c-.5-1.6-2.1-2.8-3.9-2.8s-4.1,1.8-4.1,4.1,1.8,4.1,4.1,4.1,3.3-1.2,3.9-2.8h8.7v5.9c-1.6.5-2.8,2.1-2.8,3.9s1.8,4.1,4.1,4.1,4.1-1.8,4.1-4.1-1.2-3.3-2.8-3.9v-14.2h5.7v22.6c-1.6.5-2.8,2.1-2.8,3.9s1.8,4.1,4.1,4.1,4.1-1.8,4.1-4.1-1.2-3.3-2.8-3.9v-22.6h5.7v14.2c-1.6.5-2.8,2.1-2.8,3.9s1.8,4.1,4.1,4.1,4.1-1.8,4.1-4.1-1.2-3.3-2.8-3.9v-5.9h8.7c.5,1.6,2.1,2.8,3.9,2.8s4.1-1.8,4.1-4.1-1.8-4.1-4.1-4.1-3.3,1.2-3.9,2.8h-8.7v-5.7h22.3c7.6,0,13.8-6.2,13.8-13.8-.1-7.2-5.7-13.2-12.8-13.7ZM26.4,68.1c-.8,0-1.5-.7-1.5-1.5s.7-1.5,1.5-1.5,1.5.7,1.5,1.5-.6,1.5-1.5,1.5ZM41.8,77.7c0,.8-.7,1.5-1.5,1.5s-1.5-.7-1.5-1.5.7-1.5,1.5-1.5,1.5.7,1.5,1.5ZM47.3,57h-5.7v-5.7h5.7v5.7ZM50.1,86c0,.8-.7,1.5-1.5,1.5s-1.5-.7-1.5-1.5.7-1.5,1.5-1.5,1.5.7,1.5,1.5ZM55.6,57h-5.7v-5.7h5.7v5.7ZM49.9,48.7v-2.9h4.2c.7,0,1.3-.6,1.3-1.3v-5.5c0-.7-.6-1.3-1.3-1.3s-1.3.6-1.3,1.3v4.2h-8.5v-8.5h9.8c.7,0,1.3-.6,1.3-1.3s-.6-1.3-1.3-1.3h-11c-.7,0-1.3.6-1.3,1.3v11.1c0,.7.6,1.3,1.3,1.3h4.2v2.9h-7c-.8,0-1.5-.7-1.5-1.5v-16.6h0c0-.8.7-1.5,1.5-1.5h16.6c.8,0,1.5.7,1.5,1.5v16.6c0,.8-.7,1.5-1.5,1.5h-7ZM58.4,77.7c0,.8-.7,1.5-1.5,1.5s-1.5-.7-1.5-1.5.7-1.5,1.5-1.5,1.5.7,1.5,1.5ZM70.8,65.2c.8,0,1.5.7,1.5,1.5s-.7,1.5-1.5,1.5-1.5-.7-1.5-1.5.7-1.5,1.5-1.5Z"/>
  </g>
</svg>