<?xml version="1.0" encoding="UTF-8"?>
<svg id="Camada_1" xmlns="http://www.w3.org/2000/svg" version="1.1" viewBox="0 0 120 120">
  <!-- Generator: Adobe Illustrator 29.6.0, SVG Export Plug-In . SVG Version: 2.1.1 Build 207)  -->
  <defs>
    <style>
      .st0 {
        fill: #985998;
      }
    </style>
  </defs>
  <path id="_x32_" class="st0" d="M60,99.8c-8.9,0-16.2-7.3-16.2-16.2s.4-4.3,1.2-6.2l-27.2-44.1s0,0,0-.1c-.3-.6-.2-1.3.2-1.8l7.9-10.5c.3-.4.8-.7,1.4-.7h65.6c.6,0,1.1.3,1.4.7l7.9,10.5c.4.5.5,1.2.2,1.8,0,0,0,0,0,.1l-27.2,44.1c.8,1.9,1.2,4,1.2,6.2,0,8.9-7.3,16.2-16.2,16.2ZM60,70.9c-7,0-12.7,5.7-12.7,12.7s5.7,12.7,12.7,12.7,12.7-5.7,12.7-12.7-5.7-12.7-12.7-12.7ZM22.4,34.2l24.6,39.8c.5-.7,1.1-1.4,1.8-2l-23.1-37.3.8-.5h-4ZM71.2,71.9c.7.6,1.3,1.3,1.8,2l24.6-39.8h-4l.8.5-23.1,37.3ZM29.5,34.2l22.1,35.6c.7-.4,1.4-.8,2.1-1.1l-21-34.5h-3.2ZM66.3,68.7c.7.3,1.4.7,2.1,1.1l22.1-35.6h-3.2l-21,34.5ZM36.9,34.2l20.3,33.5c1.8-.3,3.8-.3,5.6,0l20.3-33.5h-46.3ZM22.8,30.7h74.4l-1.8-2.3v.6H24.6v-.6l-1.8,2.3ZM26.8,25.4h66.5l-1.3-1.8H28.1l-1.3,1.8ZM60,94.6c-6,0-10.9-4.9-10.9-10.9s4.9-10.9,10.9-10.9,10.9,4.9,10.9,10.9-4.9,10.9-10.9,10.9ZM60,76.2c-4.1,0-7.4,3.3-7.4,7.4s3.3,7.4,7.4,7.4,7.4-3.3,7.4-7.4-3.3-7.4-7.4-7.4ZM61.7,88.9h-3.5v-7.4h-.9v-3.5h2.6c1,0,1.8.8,1.8,1.8v9.2ZM66.6,44.7h-2.6v-3.5h2.6v3.5ZM61.3,44.7h-2.6v-3.5h2.6v3.5ZM56.1,44.7h-2.6v-3.5h2.6v3.5Z"/>
</svg>