<?xml version="1.0" encoding="UTF-8"?>
<svg id="Layer_1" xmlns="http://www.w3.org/2000/svg" version="1.1" viewBox="0 0 100 100">
  <!-- Generator: Adobe Illustrator 29.6.0, SVG Export Plug-In . SVG Version: 2.1.1 Build 207)  -->
  <defs>
    <style>
      .st0 {
        fill: #ac599c;
      }
    </style>
  </defs>
  <path class="st0" d="M74.4,55.2c-.5-1.3-1.2-2.5-1.9-3.6v-21.1c0-6-2.3-11.6-6.6-15.9-4.2-4.2-9.8-6.6-15.8-6.6h0c-6,0-11.6,2.3-15.9,6.6-4.2,4.2-6.6,9.9-6.6,15.9v3.1h9v-3.1c0-3.6,1.4-7,3.9-9.5s5.9-3.9,9.5-3.9h0c7.4,0,13.5,6,13.5,13.5v12.3c-1-.6-2.1-1.2-3.2-1.6-3.3-1.6-6.7-2.3-10.3-2.3s-7,.7-10.3,2.1c-3.2,1.3-6,3.2-8.4,5.7-2.4,2.4-4.3,5.3-5.7,8.4-1.4,3.3-2.1,6.7-2.1,10.3s.7,7,2.1,10.3c1.3,3.2,3.2,6,5.7,8.4,2.4,2.4,5.3,4.3,8.4,5.7,3.3,1.4,6.7,2.1,10.3,2.1s7-.7,10.3-2.1c3.2-1.3,6-3.2,8.4-5.7,2.4-2.4,4.3-5.3,5.7-8.4,1.4-3.3,2.1-6.7,2.1-10.3,0-3.6-.7-7-2.1-10.3ZM50,83c-9.6,0-17.5-7.8-17.5-17.5s7.9-17.5,17.5-17.5,17.5,7.8,17.5,17.5-7.9,17.5-17.5,17.5Z"/>
  <circle class="st0" cx="50.1" cy="65.6" r="7.4"/>
</svg>