<?xml version="1.0" encoding="UTF-8"?>
<svg id="Camada_1" xmlns="http://www.w3.org/2000/svg" version="1.1" viewBox="0 0 120 120">
  <!-- Generator: Adobe Illustrator 29.6.0, SVG Export Plug-In . SVG Version: 2.1.1 Build 207)  -->
  <defs>
    <style>
      .st0 {
        fill: #985998;
      }
    </style>
  </defs>
  <path id="_x31_0" class="st0" d="M60,110.6c-5.3,0-9.6-4.3-9.6-9.6V19.2h-1.4c-1.8,0-3.3-1.5-3.3-3.3v-3.2c0-1.8,1.5-3.3,3.3-3.3h22.1c1.8,0,3.3,1.5,3.3,3.3v3.2c0,1.8-1.5,3.3-3.3,3.3h-1.4v81.7c0,5.3-4.3,9.6-9.6,9.6ZM53.9,88.5v12.4c0,3.4,2.7,6.1,6.1,6.1s6.1-2.7,6.1-6.1V30.2h-12.2v4.4h3v3.5h-3v2.8h3v3.5h-3v2.8h3v3.5h-3v2.8h3v3.5h-3v2.8h3v3.5h-3v2.8h3v3.5h-3v2.8h3v3.5h-3v2.8h3v3.5h-3v2.8h3v3.5h-3ZM53.9,26.7h12.2v-7.5h-12.2v7.5ZM67.9,15.7h3v-2.8h-21.7v2.8h18.7ZM42.1,107.3c-19.5-7.4-32.6-26.4-32.6-47.3s8.5-33,22.8-42.4l1.9,2.9c-1.8,1.2-3.5,2.5-5.1,3.9,1.1,1.6,3.7,3.6,6.8,5.3,1.8-3,3.8-5.3,5.6-7.1l2.5,2.5c-1.8,1.8-3.5,3.9-4.9,6.2,2.8,1.1,5.7,1.9,8.4,1.9v3.5c-3.1,0-6.7-.9-10.1-2.3-2,3.9-3.4,8.2-4.3,13h14.4v3.5h-15c-.4,2.9-.6,6-.6,9.3s.2,6.3.7,9.3h14.9v3.5h-14.2c1.1,4.6,2.7,8.8,4.9,12.7,3.2-1.2,6.4-2,9.2-2v3.5c-2.3,0-4.9.6-7.4,1.5,1.6,2.3,3.4,4.5,5.5,6.6l-2.5,2.5c-2.4-2.4-4.5-4.9-6.3-7.6-3.4,1.7-6.3,3.9-7.6,5.7,4.1,3.6,8.9,6.5,14.2,8.5l-1.2,3.3ZM14.7,72.8c2.2,7.7,6.3,14.7,11.9,20.4,1.8-2.2,4.8-4.5,8.3-6.2-2.4-4.3-4.2-9-5.3-14.1h-14.9ZM13.9,69.3h15.1c-.4-3-.7-6.1-.7-9.3s.2-6.4.5-9.3h-15c-.6,3-.9,6.1-.9,9.3s.3,6.3.9,9.3ZM14.7,47.2h14.7c1-5.8,2.7-10.6,4.7-14.5-3.2-1.7-6-3.8-7.6-5.9-5.6,5.7-9.7,12.7-11.9,20.4ZM77.9,107.3l-1.2-3.3c5.2-2,10-4.9,14-8.4-1.5-2-4.9-4.5-8.8-6.3-1.9,2.9-4.1,5.6-6.6,8.1l-2.5-2.5c2.2-2.2,4.1-4.5,5.7-6.9-2.1-.7-4.1-1.1-6.1-1.1v-3.5c2.4,0,5.2.6,7.9,1.5,2.1-3.8,3.7-7.8,4.7-12.2h-12.6v-3.5h13.3c.5-3,.7-6.1.7-9.3s-.2-6.3-.6-9.3h-13.4v-3.5h12.9c-.9-4.6-2.2-8.8-4.1-12.5-3,1.1-6.1,1.9-8.8,1.9v-3.5c2.2,0,4.7-.6,7.1-1.5-1.5-2.4-3.2-4.6-5.2-6.6l2.5-2.5c1.9,1.9,4,4.5,5.9,7.7,3.5-1.8,6.6-4.1,7.9-5.9-1.6-1.4-3.2-2.6-5-3.8l1.9-2.9c14.3,9.4,22.8,25.3,22.8,42.4s-13.1,39.9-32.6,47.3ZM83.8,86.3c4,1.8,7.5,4.4,9.5,6.9,5.6-5.7,9.8-12.7,12-20.4h-16.5c-1,4.9-2.7,9.4-5,13.6ZM89.4,69.3h16.7c.6-3,.9-6.1.9-9.3s-.3-6.3-.9-9.3h-16.6c.4,2.9.5,5.9.5,9.3s-.2,6.3-.7,9.3ZM89,47.2h16.3c-2.2-7.7-6.3-14.8-11.9-20.5-1.9,2.4-5.1,4.8-8.8,6.6,1.9,3.8,3.5,8.4,4.4,13.9Z"/>
</svg>