<?xml version="1.0" encoding="UTF-8"?>
<svg id="icons" xmlns="http://www.w3.org/2000/svg" xmlns:xlink="http://www.w3.org/1999/xlink" version="1.1" viewBox="0 0 200 120">
  <!-- Generator: Adobe Illustrator 29.6.0, SVG Export Plug-In . SVG Version: 2.1.1 Build 207)  -->
  <defs>
    <style>
      .st0 {
        fill: none;
      }

      .st1 {
        fill: #ac599c;
      }

      .st2 {
        fill: #46bc93;
      }

      .st3 {
        fill: #fff;
        opacity: .2;
      }

      .st4 {
        clip-path: url(#clippath-1);
      }

      .st5 {
        fill: url(#Gradiente_sem_nome_2);
        opacity: .3;
      }

      .st6 {
        display: none;
      }

      .st7 {
        clip-path: url(#clippath);
      }
    </style>
    <linearGradient id="Gradiente_sem_nome_2" data-name="Gradiente sem nome 2" x1="569" y1="1380.9" x2="569" y2="1582.2" gradientTransform="translate(1580.5 -508.5) rotate(90)" gradientUnits="userSpaceOnUse">
      <stop offset="0" stop-color="#c8645e"/>
      <stop offset=".2" stop-color="#b6606f"/>
      <stop offset=".5" stop-color="#a05b85"/>
      <stop offset=".7" stop-color="#935892"/>
      <stop offset="1" stop-color="#8f5797"/>
    </linearGradient>
    <clipPath id="clippath">
      <rect class="st0" x="96.2" y="16.9" width="75.2" height="97" transform="translate(-10.2 27.4) rotate(-11.3)"/>
    </clipPath>
    <clipPath id="clippath-1">
      <rect class="st0" x="14.9" y="-.1" width="91.4" height="117.8" transform="translate(-10.3 12.9) rotate(-11.3)"/>
    </clipPath>
  </defs>
  <rect class="st5" x="-1.7" y=".3" width="201.3" height="120.5" transform="translate(198 121) rotate(180)"/>
  <g id="ic1" class="st6">
    <path class="st2" d="M124.4,65.2c-.5-1.3-1.2-2.5-1.9-3.6v-21.1c0-6-2.3-11.6-6.6-15.9-4.2-4.2-9.8-6.6-15.8-6.6h0c-6,0-11.6,2.3-15.9,6.6-4.2,4.2-6.6,9.9-6.6,15.9v3.1h9v-3.1c0-3.6,1.4-7,3.9-9.5s5.9-3.9,9.5-3.9h0c7.4,0,13.5,6,13.5,13.5v12.3c-1-.6-2.1-1.2-3.2-1.6-3.3-1.6-6.7-2.3-10.3-2.3s-7,.7-10.3,2.1c-3.2,1.3-6,3.2-8.4,5.7-2.4,2.4-4.3,5.3-5.7,8.4-1.4,3.3-2.1,6.7-2.1,10.3s.7,7,2.1,10.3c1.3,3.2,3.2,6,5.7,8.4,2.4,2.4,5.3,4.3,8.4,5.7,3.3,1.4,6.7,2.1,10.3,2.1s7-.7,10.3-2.1c3.2-1.3,6-3.2,8.4-5.7,2.4-2.4,4.3-5.3,5.7-8.4,1.4-3.3,2.1-6.7,2.1-10.3,0-3.6-.7-7-2.1-10.3ZM100,93c-9.6,0-17.5-7.8-17.5-17.5s7.9-17.5,17.5-17.5,17.5,7.8,17.5,17.5-7.9,17.5-17.5,17.5Z"/>
    <circle class="st2" cx="100.1" cy="75.6" r="7.4"/>
  </g>
  <g>
    <g class="st7">
      <path class="st1" d="M173.8,75.3l-8.4-11.5c-.3-.4-.9-.7-1.4-.5-1.3.3-57.6,11.4-58.8,11.7s-1,.5-1.1,1l-3.4,13.8c-.5,2,1.2,3.9,3.2,3.5l3.4-.7,4.6,23c.4,1.8,2.1,3,3.9,2.7l55.2-11c1.8-.4,2.9-2.1,2.5-4l-1.6-7.9c-.2-.8-.9-1.3-1.7-1.1s-1.3.9-1.1,1.7l1.6,7.9c0,.3,0,.6-.3.6l-26.2,5.2-6.6-33.4,5.3,7.1c.8,1.1,2.1,1.6,3.3,1.3l20-4,1.7,8.6c.2.8.9,1.3,1.7,1.1s1.3-.9,1.1-1.7l-1.7-8.6,3.4-.7c2-.4,2.9-2.8,1.6-4.5h0ZM103.4,90.6s0,0,0,0l3.2-12.9,26.3-5.2-3.1,12.6c0,.2-.2.4-.4.4-.9.2-24.7,4.9-26,5.2h0ZM141.3,110.5l-26.2,5.2c-.2,0-.5-.2-.5-.5l-4.6-23,20-4c1.2-.2,2.3-1.2,2.6-2.5l2.1-8.6s6.6,33.4,6.6,33.4ZM145.5,82.2c-.2,0-.4,0-.5-.2l-7.7-10.5,26.3-5.2,7.9,10.7s0,0,0,0c-.8.1-24.6,4.9-26,5.2h0Z"/>
    </g>
    <path class="st1" d="M111.5,40.5l-2.6.5c-.8.2-1.3.9-1.1,1.7s.9,1.3,1.7,1.1l2.6-.5c.8-.2,1.3-.9,1.1-1.7s-.9-1.3-1.7-1.1h0Z"/>
    <path class="st1" d="M147.4,33.3l-2.6.5c-.8.2-1.3.9-1.1,1.7s.9,1.3,1.7,1.1l2.6-.5c.8-.2,1.3-.9,1.1-1.7s-.9-1.3-1.7-1.1h0Z"/>
    <path class="st1" d="M116.7,48.8c-.5-.6-1.4-.6-2-.1l-2,1.7c-.6.5-.6,1.4-.1,2,.5.6,1.4.6,2,.1l2-1.7c.6-.5.7-1.4.1-2h0Z"/>
    <path class="st1" d="M144.3,24.6c-.5-.6-1.4-.6-2-.1l-2,1.7c-.6.5-.6,1.4-.1,2,.5.6,1.4.6,2,.1l2-1.7c.6-.5.6-1.4.1-2h0Z"/>
    <path class="st1" d="M135.2,18.6c-.7-.3-1.6.1-1.8.9l-.8,2.5c-.3.7.1,1.6.9,1.8.7.3,1.6-.1,1.8-.9l.8-2.5c.2-.7-.2-1.6-.9-1.8h0Z"/>
    <path class="st1" d="M124.3,17.9c-.8.2-1.3.9-1.1,1.7l.5,2.6c.2.8.9,1.3,1.7,1.1s1.3-.9,1.1-1.7l-.5-2.6c-.2-.8-.9-1.3-1.7-1.1h0Z"/>
    <path class="st1" d="M118.3,24.8l-1.7-2c-.5-.6-1.4-.6-2-.1-.6.5-.7,1.4-.1,2l1.7,2c.5.6,1.4.6,2,.1.6-.5.6-1.4.1-2h0Z"/>
    <path class="st1" d="M147.5,43.5l-2.5-.8c-.7-.3-1.6.1-1.8.9-.3.7.1,1.6.9,1.8l2.5.8c.7.3,1.6-.1,1.8-.9.2-.7-.1-1.5-.9-1.8h0Z"/>
    <path class="st1" d="M112.8,31.7l-2.5-.8c-.7-.3-1.6.1-1.8.9-.3.7.1,1.6.9,1.8l2.5.8c.7.3,1.6-.1,1.8-.9.3-.7-.1-1.6-.9-1.8h0Z"/>
    <path class="st1" d="M142.3,36.2c-1.2-6.2-6.5-10.9-12.8-11.3-.8,0-1.5.5-1.5,1.3,0,.8.5,1.5,1.3,1.5,10.7.7,14.4,14.7,5.4,20.6-.7.4-1,1.2-.8,2l.4,2-1.6.3-1.7-8.4h.7c1.7-.5,2.9-2.2,2.5-3.9h0c-.3-1.8-2-3-3.8-2.6l-4.2.8c-1.7.3-2.9,2-2.5,3.8h0c.3,1.8,2,3,3.8,2.6h.7c0-.1,1.7,8.2,1.7,8.2l-1.6.3-.4-2.1c-.1-.7-.7-1.3-1.5-1.5-10.6-2-12.6-16.3-2.9-21.1.7-.3,1-1.2.6-1.9s-1.2-1-1.9-.6c-5.8,2.9-8.9,9.3-7.5,15.6,1.2,5.3,5.3,9.5,10.5,10.7l.3,1.5c-1.4.5-2.3,2.1-2,3.6l.3,1.3c.3,1.5,1.5,2.5,3,2.6l2.1,2.7c2.6,3.4,7.9,2.3,9.1-1.8l.9-3.2c1.3-.6,2-2.1,1.8-3.5l-.3-1.3c-.3-1.6-1.7-2.6-3.2-2.6l-.3-1.5c4.5-3.2,6.7-8.7,5.6-14.2h0ZM127,42.3c-.2,0-.4-.1-.5-.3h0c0-.3,0-.5.3-.5l4.2-.8c.2,0,.4,0,.5.3h0c0,.3,0,.5-.3.5l-4.2.8ZM135.2,61.8c-.5,1.8-2.9,2.3-4.1.8l-1.1-1.4,5.7-1.1-.5,1.8ZM137.8,56.3c0,.2,0,.4-.3.5l-10.4,2.1c-.2,0-.4,0-.5-.3l-.3-1.3c0-.2,0-.4.3-.5l10.4-2.1c.2,0,.4,0,.5.3l.3,1.3Z"/>
  </g>
  <g>
    <g class="st4">
      <path class="st3" d="M109.2,70.8l-10.3-13.9c-.4-.5-1.1-.8-1.7-.7-1.5.3-69.9,13.9-71.5,14.2s-1.2.6-1.3,1.3l-4.2,16.8c-.6,2.5,1.5,4.7,3.9,4.3l4.1-.8,5.6,28c.4,2.2,2.5,3.7,4.7,3.3l67.1-13.3c2.1-.4,3.5-2.6,3.1-4.8l-1.9-9.6c-.2-.9-1.1-1.5-2-1.4s-1.5,1.1-1.4,2l1.9,9.6c0,.4-.1.7-.4.8l-31.8,6.3-8.1-40.5,6.4,8.7c.9,1.3,2.5,1.9,4.1,1.6l24.2-4.8,2.1,10.4c.2.9,1.1,1.5,2,1.4s1.5-1.1,1.4-2l-2.1-10.4,4.1-.8c2.4-.5,3.5-3.4,2-5.4h0ZM23.6,89.4s0,0,0,0l3.9-15.7,32-6.4-3.8,15.3c0,.2-.2.4-.5.5-1.1.2-30,6-31.6,6.3h0ZM69.7,113.5l-31.8,6.3c-.3,0-.6-.2-.6-.5l-5.6-28,24.2-4.8c1.5-.3,2.8-1.5,3.1-3l2.6-10.5s8.1,40.5,8.1,40.5ZM74.8,79.2c-.2,0-.5,0-.6-.3l-9.4-12.7,32-6.4,9.6,13s0,0,0,0c-.9.2-29.9,5.9-31.6,6.3h0Z"/>
    </g>
    <path class="st3" d="M33.4,28.4l-3.1.6c-.9.2-1.5,1.1-1.4,2s1.1,1.5,2,1.4l3.1-.6c.9-.2,1.5-1.1,1.4-2s-1.1-1.5-2-1.4h0Z"/>
    <path class="st3" d="M77.1,19.7l-3.1.6c-.9.2-1.5,1.1-1.4,2s1.1,1.5,2,1.4l3.1-.6c.9-.2,1.5-1.1,1.4-2s-1.1-1.5-2-1.4h0Z"/>
    <path class="st3" d="M39.8,38.6c-.6-.7-1.7-.8-2.4-.2l-2.4,2.1c-.7.6-.8,1.7-.2,2.4.6.7,1.7.8,2.4.2l2.4-2.1c.7-.6.8-1.7.2-2.4h0Z"/>
    <path class="st3" d="M73.3,9.2c-.6-.7-1.7-.8-2.4-.2l-2.4,2.1c-.7.6-.8,1.7-.2,2.4.6.7,1.7.8,2.4.2l2.4-2.1c.7-.6.8-1.7.2-2.4h0Z"/>
    <path class="st3" d="M62.3,1.9c-.9-.3-1.9.2-2.2,1.1l-1,3c-.3.9.2,1.9,1.1,2.2.9.3,1.9-.2,2.2-1.1l1-3c.3-.9-.2-1.9-1.1-2.2h0Z"/>
    <path class="st3" d="M49.1,1c-.9.2-1.5,1.1-1.4,2l.6,3.1c.2.9,1.1,1.5,2,1.4s1.5-1.1,1.4-2l-.6-3.1c-.2-.9-1.1-1.5-2-1.4h0Z"/>
    <path class="st3" d="M41.7,9.4l-2.1-2.4c-.6-.7-1.7-.8-2.4-.2-.7.6-.8,1.7-.2,2.4l2.1,2.4c.6.7,1.7.8,2.4.2.7-.6.8-1.7.2-2.4h0Z"/>
    <path class="st3" d="M77.2,32.1l-3-1c-.9-.3-1.9.2-2.2,1.1-.3.9.2,1.9,1.1,2.2l3,1c.9.3,1.9-.2,2.2-1.1.3-.9-.2-1.9-1.1-2.2h0Z"/>
    <path class="st3" d="M35,17.8l-3-1c-.9-.3-1.9.2-2.2,1.1-.3.9.2,1.9,1.1,2.2l3,1c.9.3,1.9-.2,2.2-1.1.3-.9-.2-1.9-1.1-2.2h0Z"/>
    <path class="st3" d="M71,23.3c-1.5-7.6-7.9-13.2-15.6-13.7-1,0-1.8.7-1.8,1.6,0,1,.7,1.8,1.6,1.8,12.9.9,17.5,17.9,6.6,25-.8.5-1.2,1.5-1,2.4l.5,2.4-1.9.4-2-10.2.9-.2c2.1-.4,3.5-2.5,3.1-4.6h0c-.4-2.2-2.5-3.6-4.6-3.2l-5.1,1c-2.1.4-3.5,2.5-3.1,4.6h0c.4,2.2,2.5,3.6,4.6,3.2l.9-.2,2,10.2-1.9.4-.5-2.5c-.2-.9-.9-1.6-1.8-1.8-12.8-2.4-15.3-19.8-3.6-25.7.9-.4,1.2-1.5.8-2.3s-1.5-1.2-2.3-.8c-7,3.5-10.8,11.3-9.1,18.9,1.4,6.5,6.4,11.5,12.8,13l.4,1.8c-1.8.7-2.8,2.5-2.4,4.4l.3,1.6c.4,1.8,1.9,3,3.6,3.1l2.5,3.2c3.2,4.1,9.6,2.8,11-2.2l1.1-3.9c1.6-.8,2.5-2.5,2.1-4.3l-.3-1.6c-.4-1.9-2.1-3.2-3.9-3.2l-.4-1.8c5.4-3.9,8.1-10.6,6.8-17.2h0ZM52.3,30.6c-.3,0-.5-.1-.6-.4h0c0-.4.1-.6.4-.7l5.1-1c.3,0,.5.1.6.4h0c0,.4-.1.6-.4.7l-5.1,1ZM62.2,54.3c-.6,2.2-3.5,2.8-4.9,1l-1.4-1.7,6.9-1.4-.6,2.1ZM65.4,47.7c0,.2-.1.5-.4.6l-12.6,2.5c-.2,0-.5-.1-.6-.4l-.3-1.5c0-.2.1-.5.4-.6l12.6-2.5c.2,0,.5.1.6.4l.3,1.5Z"/>
  </g>
</svg>