<?xml version="1.0" encoding="UTF-8"?>
<svg id="Layer_1" xmlns="http://www.w3.org/2000/svg" xmlns:xlink="http://www.w3.org/1999/xlink" version="1.1" viewBox="0 0 200 120">
  <!-- Generator: Adobe Illustrator 29.6.0, SVG Export Plug-In . SVG Version: 2.1.1 Build 207)  -->
  <defs>
    <style>
      .st0 {
        fill: #ac599c;
      }

      .st1 {
        fill: url(#Gradiente_sem_nome_2);
        isolation: isolate;
        opacity: .3;
      }

      .st2 {
        fill: #fff;
      }

      .st3 {
        opacity: .2;
      }
    </style>
    <linearGradient id="Gradiente_sem_nome_2" data-name="Gradiente sem nome 2" x1="645.1" y1="-1220.9" x2="645.1" y2="-1422.2" gradientTransform="translate(-1222.5 705.5) rotate(-90) scale(1 -1)" gradientUnits="userSpaceOnUse">
      <stop offset="0" stop-color="#c8645e"/>
      <stop offset=".2" stop-color="#b6606f"/>
      <stop offset=".5" stop-color="#a05b85"/>
      <stop offset=".7" stop-color="#935892"/>
      <stop offset="1" stop-color="#8f5797"/>
    </linearGradient>
  </defs>
  <rect class="st1" x="-1.6" y=".2" width="201.3" height="120.5"/>
  <g class="st3">
    <path class="st2" d="M123,58.7l-19.6-12.2c-1.4-.8-3-1.1-4.4-.8s-2.8,1.3-3.6,2.6-.7,1.4-.9,2.3c-2.3-.4-4.6.7-6,2.7-.8,1.2-1.1,2.7-.9,4.1-1.3.4-2.5,1.2-3.3,2.6-.4.6-.6,1.2-.8,1.7l-2.9-1.8c3-4.4,3.9-9.8,2.7-15.1s-1.3-1.8-2.4-1.5l-14.8,3.4-3.4-14.7c-.3-1.1-1.3-1.8-2.4-1.5-10.4,2.4-16.9,12.8-14.5,23.2,2.4,10.4,12.8,16.9,23.2,14.5s1.2-.3,1.7-.5l5.9,3.7-21.6,5c-1.1.3-1.8,1.3-1.5,2.4l2.2,9.4c.3,1.1,1.3,1.8,2.4,1.5l20.8-4.8c.4,1.8,1.6,3.4,3.3,4.3l-39.1,9.1-.5-2,6.7-12.8c1-1.9.8-4.2-.4-6-1-1.6-2.8-2.5-4.6-2.5-1.8,0-3.6.7-4.8,2.3l-1.1,1.4-12-51.6,3.9-.9,2.8,12.1c.3,1.1,1.3,1.8,2.4,1.5s1.8-1.3,1.5-2.4l-2.8-12.1,62.1-14.4,5.4,23.4c.3,1.1,1.3,1.8,2.4,1.5s1.8-1.3,1.5-2.4l-6.9-29.7c-1-4.5-5.6-7.3-10.1-6.3L27.5,11.5c-4.5,1-7.3,5.6-6.3,10.1l9.1,39.2s0,.2,0,.3l-5.3,11.4c-1.5,3.3-1.9,7.2-1.1,10.7l7.2,30.9c.3,1.1,1.3,1.8,2.4,1.5s1.8-1.3,1.5-2.4l-7.2-30.9c-.6-2.7-.4-5.6.8-8.1l3.3-7.1,3.8,16.3c.3,1.1,1.3,1.8,2.4,1.5s.8-.3,1.1-.8h0l3.7-4.6c.4-.5.9-.7,1.5-.7.5,0,1.1.3,1.4.7.4.6.4,1.3.2,1.9l-7.2,13.4h0c-.2.4-.3.8-.2,1.3l2.1,9c1,4.5,5.6,7.3,10.1,6.3l61.4-14.2c1.2-.3,2.3-.8,3.3-1.5.9,0,1.8,0,2.7.1h.5c.9-.3,1.6-1.1,1.5-2,0-1.2-.8-2-2-2-9.1-.2-18-1.6-26.6-4.3l-7.3-2.2c-.8-.3-1.4-1.1-1.5-2,0-1,.9-2,2-2h9c.9.1,1.7-.4,2-1.4.3-.8-.2-1.8-.9-2.2l-24.1-15c-.5-.3-.7-.7-.8-1.2s0-1,.2-1.5c.6-.9,1.7-1.2,2.6-.6l13.4,8.4h0l8,5c.9.6,2.1.3,2.8-.7.6-.9.3-2.1-.7-2.8l-7.7-4.7c-.9-.6-1.2-1.7-.6-2.6s1.7-1.2,2.6-.6l8,5c.9.6,2.1.3,2.8-.7.6-.9.3-2.1-.7-2.8l-6.8-4.2h0l-1.2-.8c-.5-.3-.7-.7-.8-1.2s0-1,.2-1.5c.6-.9,1.7-1.2,2.6-.6l4.7,2.9h0l3.3,2.1c.9.6,2.1.3,2.8-.7.6-.9.3-2.1-.7-2.8l-5.4-3.4c-.5-.3-.7-.7-.8-1.2s0-1,.2-1.5c.3-.5.7-.7,1.2-.8s1,0,1.5.2l19.6,12.2c.5.3,1,.4,1.5.3s.9-.5,1.2-.9c.6-.7.3-1.9-.6-2.6ZM28.4,15.4L89.8,1.2c2.3-.5,4.7,1,5.3,3.3l.5,2.3L25.7,23l-.5-2.3c-.5-2.3,1-4.7,3.3-5.3ZM61.7,45.1l-8.7-5.4c1.7-2.1,3.8-3.6,6.4-4.6l2.3,10ZM105.3,94.7l-55.5,12.9c-2.3.5-4.7-1-5.3-3.3l-.5-2.3,45.6-10.6h.2c0,0,.5,0,.5,0,4.8,1.5,9.9,2.6,14.9,3.2ZM85,77.5c-2.2,0-4.2,1.2-5.2,3l-20.5,4.8-1.3-5.5,23.6-5.5,5.3,3.3h-1.8ZM67,58.3c-1.2,2-1.2,4.4,0,6.2-7.7,1.1-15.2-3.9-17-11.6s-.4-6.7,1-9.8l12.8,8h0c.5.3,1,.4,1.5.3l14.8-3.4c.3,3.5-.5,7.1-2.6,10l-2.4-1.5c-2.7-1.8-6.4-1-8.1,1.9Z"/>
  </g>
  <path class="st0" d="M183.9,74.7l-15.6-9.7c-1.1-.7-2.4-.9-3.5-.6s-2.2,1-2.9,2.1-.6,1.2-.7,1.8c-1.8-.3-3.7.5-4.7,2.1-.6,1-.8,2.1-.7,3.2-1,.3-2,1-2.6,2-.3.5-.5.9-.6,1.4l-2.3-1.4c2.4-3.5,3.1-7.8,2.1-12s-1-1.4-1.9-1.2l-11.8,2.7-2.7-11.7c-.2-.9-1-1.4-1.9-1.2-8.3,1.9-13.4,10.2-11.5,18.5,1.9,8.3,10.2,13.4,18.5,11.5s1-.2,1.3-.4l4.7,2.9-17.2,4c-.9.2-1.4,1-1.2,1.9l1.7,7.5c.2.9,1,1.4,1.9,1.2l16.6-3.8c.3,1.5,1.2,2.7,2.6,3.4l-31.2,7.2-.4-1.6,5.3-10.2c.8-1.5.7-3.3-.3-4.8-.8-1.3-2.2-2-3.7-2-1.5,0-2.8.6-3.8,1.8l-.9,1.1-9.5-41.1,3.1-.7,2.2,9.6c.2.9,1,1.4,1.9,1.2s1.4-1,1.2-1.9l-2.2-9.6,49.5-11.5,4.3,18.6c.2.9,1,1.4,1.9,1.2s1.4-1,1.2-1.9l-5.5-23.7c-.8-3.6-4.4-5.8-8-5l-48.9,11.3c-3.6.8-5.8,4.4-5,8l7.2,31.3s0,.1,0,.2l-4.3,9.1c-1.2,2.6-1.6,5.7-.9,8.5l5.7,24.6c.2.9,1,1.4,1.9,1.2s1.4-1,1.2-1.9l-5.7-24.6c-.5-2.1-.3-4.4.7-6.4l2.6-5.6,3,13c.2.9,1,1.4,1.9,1.2s.7-.3.9-.6h0l2.9-3.7c.3-.4.7-.6,1.2-.6.4,0,.9.2,1.2.6.3.4.3,1,.1,1.5l-5.7,10.7h0c-.1.3-.3.7-.2,1.1l1.7,7.2c.8,3.6,4.4,5.8,8,5l48.9-11.3c1-.2,1.8-.6,2.6-1.2.7,0,1.5,0,2.2.1h.4c.7-.2,1.3-.9,1.2-1.6,0-.9-.7-1.6-1.6-1.6-7.2-.2-14.4-1.3-21.2-3.4l-5.8-1.7c-.7-.3-1.1-.9-1.2-1.6,0-.8.8-1.6,1.6-1.6h7.2c.7.1,1.3-.3,1.6-1.1.3-.7-.1-1.4-.7-1.8l-19.2-12c-.4-.2-.5-.6-.6-1s0-.8.1-1.2c.4-.7,1.3-.9,2-.5l10.7,6.7h0l6.4,4c.7.4,1.7.2,2.2-.5.4-.7.2-1.7-.5-2.2l-6.1-3.7c-.7-.4-.9-1.3-.5-2s1.3-.9,2-.5l6.4,4c.7.4,1.7.2,2.2-.5.4-.7.2-1.7-.5-2.2l-5.4-3.4h0l-1-.6c-.4-.2-.5-.6-.6-1s0-.8.1-1.2c.4-.7,1.3-.9,2-.5l3.7,2.3h0l2.6,1.6c.7.4,1.7.2,2.2-.5.4-.7.2-1.7-.5-2.2l-4.3-2.7c-.4-.2-.5-.6-.6-1s0-.8.1-1.2c.2-.4.6-.5,1-.6s.8,0,1.2.1l15.6,9.7c.4.2.8.3,1.2.2s.7-.4,1-.7c.5-.5.3-1.5-.5-2ZM108.6,40.2l48.9-11.3c1.9-.4,3.8.8,4.2,2.6l.4,1.9-55.7,12.9-.4-1.9c-.4-1.9.8-3.8,2.6-4.2ZM135.1,63.8l-7-4.3c1.4-1.7,3-2.9,5.1-3.6l1.9,8ZM169.8,103.4l-44.2,10.2c-1.9.4-3.8-.8-4.2-2.6l-.4-1.9,36.3-8.4h.2s.4,0,.4,0c3.9,1.2,7.9,2.1,11.9,2.6ZM153.6,89.7c-1.7,0-3.4,1-4.2,2.4l-16.4,3.8-1-4.4,18.8-4.4,4.2,2.6h-1.5ZM139.3,74.4c-1,1.6-.9,3.5,0,4.9-6.2.9-12.1-3.1-13.5-9.3s-.3-5.4.8-7.8l10.2,6.4h0c.4.2.8.3,1.2.2l11.8-2.7c.2,2.8-.4,5.6-2.1,8l-1.9-1.2c-2.2-1.4-5.1-.8-6.4,1.5Z"/>
</svg>