<?xml version="1.0" encoding="UTF-8"?>
<svg id="Camada_1" xmlns="http://www.w3.org/2000/svg" version="1.1" viewBox="0 0 120 120">
  <!-- Generator: Adobe Illustrator 29.6.0, SVG Export Plug-In . SVG Version: 2.1.1 Build 207)  -->
  <defs>
    <style>
      .st0 {
        fill: #fff;
      }

      .st1 {
        fill: #985998;
      }
    </style>
  </defs>
  <g id="_x36_">
    <path class="st1" d="M43.5,104.4c-19.8,0-35.9-16.1-35.9-35.9s16.1-35.9,35.9-35.9v3.5c-4.5,0-8.5,4.3-11.4,10.9h9.6v-8.8h3.5v8.8h.9v3.5h-.9v16.2h30.6c0-.7,0-1.4-.2-2.1-.5-.5-.6-1.3-.3-2-.7-3.8-2.1-7.5-4-10.8l3-1.8c1.8,3,3.1,6.2,4,9.6l2.4-2.4c.7-.7,1.8-.7,2.5,0l28.8,28.8c.7.7.7,1.8,0,2.5l-5,5c-.7.7-1.8.7-2.5,0l-25.1-25.1h0c0,19.9-16.1,36-35.9,36ZM45.2,90v10.7c3.8-1,7.2-4.9,9.6-10.7h-9.6ZM32.1,90c2.5,5.8,5.8,9.8,9.6,10.7v-10.7h-9.6ZM19.2,90c3.9,4.4,8.9,7.7,14.5,9.5-2.1-2.4-4-5.6-5.5-9.5h-9.1ZM58.6,90c-1.5,3.8-3.3,7-5.5,9.5,5.7-1.8,10.7-5.1,14.5-9.5h-9.1ZM79.4,63.5l26.3,26.3,2.5-2.5-26.3-26.3-2.5,2.5ZM59.8,86.5h10.6c3.1-4.7,5.1-10.2,5.4-16.2h-13.5c-.1,5.9-1,11.4-2.4,16.2ZM45.2,86.5h10.9c1.5-4.7,2.5-10.3,2.6-16.2h-13.5v16.2ZM30.8,86.5h10.9v-16.2h-13.5c.2,5.9,1.1,11.5,2.6,16.2ZM16.5,86.5h10.6c-1.4-4.8-2.3-10.3-2.4-16.2h-13.5c.3,6,2.3,11.5,5.4,16.2ZM28.2,66.8h13.5v-16.2h-10.9c-1.5,4.7-2.5,10.3-2.6,16.2ZM11.1,66.8h13.5c.1-5.9,1-11.4,2.4-16.2h-10.6c-3.1,4.7-5.1,10.2-5.4,16.2ZM19.2,47.1h9.1c1.5-3.8,3.3-7,5.5-9.5-5.7,1.8-10.7,5.1-14.5,9.5Z"/>
    <path class="st0" d="M91.7,44.9c0,15.2-12.3,27.6-27.6,27.6s-27.6-12.3-27.6-27.6,12.3-27.6,27.6-27.6,27.6,12.3,27.6,27.6"/>
    <path class="st1" d="M64.1,74.2c-16.2,0-29.3-13.1-29.3-29.3s13.1-29.3,29.3-29.3,29.3,13.1,29.3,29.3-13.1,29.3-29.3,29.3ZM64.1,19.1c-14.2,0-25.8,11.6-25.8,25.8s11.6,25.8,25.8,25.8,25.8-11.6,25.8-25.8-11.6-25.8-25.8-25.8Z"/>
    <path class="st1" d="M101.4,88.1l-2.1-2.1,5-5,2.1,2.1-5,5ZM64.1,69.1c-13.3,0-24.2-10.8-24.2-24.2s10.8-24.2,24.2-24.2,24.2,10.8,24.2,24.2-10.8,24.2-24.2,24.2ZM64.1,23.7c-11.7,0-21.2,9.5-21.2,21.2s9.5,21.2,21.2,21.2,21.2-9.5,21.2-21.2-9.5-21.2-21.2-21.2ZM64.1,62.3h0c-.4,0-.8-.2-1.1-.5-1.2-1.4-11.8-13.8-11.8-21.2s5.8-12.9,12.9-12.9,12.9,5.8,12.9,12.9-10.6,19.8-11.8,21.2c-.3.3-.7.5-1.1.5ZM64.1,30.5c-5.5,0-9.9,4.5-9.9,9.9s6.4,13.6,9.9,17.9c3.6-4.4,9.9-13.2,9.9-17.9s-4.5-9.9-9.9-9.9ZM64.1,49c-4.7,0-8.5-3.8-8.5-8.5s3.8-8.5,8.5-8.5,8.5,3.8,8.5,8.5-3.8,8.5-8.5,8.5ZM64.1,35c-3.1,0-5.5,2.5-5.5,5.5s2.5,5.5,5.5,5.5,5.5-2.5,5.5-5.5-2.5-5.5-5.5-5.5Z"/>
  </g>
</svg>