<?xml version="1.0" encoding="UTF-8"?>
<svg id="Camada_1" xmlns="http://www.w3.org/2000/svg" version="1.1" viewBox="0 0 120 120">
  <!-- Generator: Adobe Illustrator 29.6.0, SVG Export Plug-In . SVG Version: 2.1.1 Build 207)  -->
  <defs>
    <style>
      .st0 {
        fill: #985998;
      }
    </style>
  </defs>
  <g id="_x33_">
    <rect class="st0" x="73.7" y="85.3" width="4.1" height="3.5"/>
    <path class="st0" d="M70.9,60h-2.7v-3.5h2.7v3.5ZM76.4,54.7h-2.7v-3.5h2.7v3.5ZM70.9,54.7h-2.7v-3.5h2.7v3.5ZM81.9,49.5h-2.7v-3.5h2.7v3.5ZM76.4,49.5h-2.7v-3.5h2.7v3.5ZM70.9,49.5h-2.7v-3.5h2.7v3.5ZM76.4,44.2h-2.7v-3.5h2.7v3.5ZM70.9,44.2h-2.7v-3.5h2.7v3.5ZM70.9,39h-2.7v-3.5h2.7v3.5Z"/>
    <path class="st0" d="M79.4,103.6h-3.5v-16.3c0-1,.8-1.8,1.8-1.8h8.1c3.5,0,6.4-2.9,6.4-6.4v-12.2c0-1,.8-1.8,1.8-1.8h6.4v-.6l-8-17.3c-.1-.2-.2-.5-.2-.7,0-14.7-12-26.7-26.7-26.7s-10.8,1.7-15.3,4.8l-2-2.9c5.1-3.5,11.1-5.4,17.3-5.4,16.5,0,30,13.4,30.2,29.9l8,17.3c.1.2.2.5.2.7v2.7c0,1-.8,1.8-1.8,1.8h-6.4v10.5c0,5.5-4.4,9.9-9.9,9.9h-6.4v14.5ZM49.6,103.6h-3.5v-16.3c0-3.5-.7-7.1-2.4-11.6l3.3-1.2c1.8,5,2.6,8.9,2.6,12.8v16.3ZM41,71.4c-.3,0-.7,0-1-.3l-3.6-2.4h-18.4c-1,0-1.8-.8-1.8-1.8V29c0-1,.8-1.8,1.8-1.8h19c.3,0,.7.1,1,.3l3.1,2.1,3.1-2.1c.3-.2.6-.3,1-.3h19c1,0,1.8.8,1.8,1.8v38c0,1-.8,1.8-1.8,1.8h-18.4l-3.6,2.4c-.3.2-.6.3-1,.3ZM42.8,32.6v33.8l1.3-.9c.3-.2.6-.3,1-.3h17.2V30.7h-16.7l-2.8,1.9ZM19.7,65.2h17.2c.3,0,.7.1,1,.3l1.3.9v-33.8l-2.8-1.9h-16.7v34.5ZM60,60.6h-14.9v-3.5h14.9v3.5ZM37,60.6h-14.9v-3.5h14.9v3.5ZM60,55.2h-14.9v-3.5h14.9v3.5ZM37,55.2h-14.9v-3.5h14.9v3.5ZM60,49.7h-14.9v-3.5h14.9v3.5ZM37,49.7h-14.9v-3.5h14.9v3.5ZM60,44.3h-14.9v-3.5h14.9v3.5ZM37,44.3h-14.9v-3.5h14.9v3.5ZM60,38.9h-14.9v-3.5h14.9v3.5ZM37,38.9h-14.9v-3.5h14.9v3.5Z"/>
  </g>
</svg>