<?xml version="1.0" encoding="UTF-8"?>
<svg id="icons" xmlns="http://www.w3.org/2000/svg" xmlns:xlink="http://www.w3.org/1999/xlink" version="1.1" viewBox="0 0 200 120">
  <!-- Generator: Adobe Illustrator 29.6.0, SVG Export Plug-In . SVG Version: 2.1.1 Build 207)  -->
  <defs>
    <style>
      .st0 {
        fill: #ac599c;
      }

      .st1 {
        fill: #46bc93;
      }

      .st2 {
        fill: #f7f5f7;
      }

      .st3 {
        opacity: .2;
      }

      .st4 {
        fill: url(#Gradiente_sem_nome_2);
        opacity: .3;
      }

      .st5 {
        display: none;
      }
    </style>
    <linearGradient id="Gradiente_sem_nome_2" data-name="Gradiente sem nome 2" x1="569" y1="1380.8" x2="569" y2="1582.2" gradientTransform="translate(1580.5 -508.5) rotate(90)" gradientUnits="userSpaceOnUse">
      <stop offset="0" stop-color="#c8645e"/>
      <stop offset=".2" stop-color="#b6606f"/>
      <stop offset=".5" stop-color="#a05b85"/>
      <stop offset=".7" stop-color="#935892"/>
      <stop offset="1" stop-color="#8f5797"/>
    </linearGradient>
  </defs>
  <rect class="st4" x="-1.7" y=".3" width="201.3" height="120.5" transform="translate(197.9 121) rotate(180)"/>
  <g id="ic1" class="st5">
    <path class="st1" d="M124.4,65.2c-.5-1.3-1.2-2.5-1.9-3.6v-21.1c0-6-2.3-11.6-6.6-15.9-4.2-4.2-9.8-6.6-15.8-6.6h0c-6,0-11.6,2.3-15.9,6.6-4.2,4.2-6.6,9.9-6.6,15.9v3.1h9v-3.1c0-3.6,1.4-7,3.9-9.5s5.9-3.9,9.5-3.9h0c7.4,0,13.5,6,13.5,13.5v12.3c-1-.6-2.1-1.2-3.2-1.6-3.3-1.6-6.7-2.3-10.3-2.3s-7,.7-10.3,2.1c-3.2,1.3-6,3.2-8.4,5.7-2.4,2.4-4.3,5.3-5.7,8.4-1.4,3.3-2.1,6.7-2.1,10.3s.7,7,2.1,10.3c1.3,3.2,3.2,6,5.7,8.4,2.4,2.4,5.3,4.3,8.4,5.7,3.3,1.4,6.7,2.1,10.3,2.1s7-.7,10.3-2.1c3.2-1.3,6-3.2,8.4-5.7,2.4-2.4,4.3-5.3,5.7-8.4,1.4-3.3,2.1-6.7,2.1-10.3,0-3.6-.7-7-2.1-10.3ZM100,93c-9.6,0-17.5-7.8-17.5-17.5s7.9-17.5,17.5-17.5,17.5,7.8,17.5,17.5-7.9,17.5-17.5,17.5Z"/>
    <circle class="st1" cx="100.1" cy="75.6" r="7.4"/>
  </g>
  <g class="st3">
    <path class="st2" d="M13.3,34.2l.3,1.9,3.8-.6-.6-3.8-1.9.3c-1.1.2-1.8,1.2-1.6,2.2h0Z"/>
    <rect class="st2" x="19.5" y="71" width="3.9" height="4" transform="translate(-11.2 4.3) rotate(-9.1)"/>
    <rect class="st2" x="18.3" y="63.1" width="3.9" height="4" transform="translate(-10 4) rotate(-9.1)"/>
    <rect class="st2" x="22" y="86.6" width="3.9" height="4" transform="translate(-13.7 4.9) rotate(-9.1)"/>
    <rect class="st2" x="20.8" y="78.8" width="3.9" height="4" transform="translate(-12.4 4.6) rotate(-9.1)"/>
    <rect class="st2" x="17" y="55.3" width="3.9" height="4" transform="translate(-8.8 3.7) rotate(-9.1)"/>
    <rect class="st2" x="24.5" y="102.3" width="3.9" height="4" transform="translate(-16.1 5.5) rotate(-9.1)"/>
    <rect class="st2" x="15.8" y="47.5" width="3.9" height="4" transform="translate(-7.6 3.4) rotate(-9.1)"/>
    <rect class="st2" x="23.3" y="94.5" width="3.9" height="4" transform="translate(-14.9 5.2) rotate(-9.1)"/>
    <rect class="st2" x="14.5" y="39.6" width="3.9" height="4" transform="translate(-6.4 3.1) rotate(-9.1)"/>
    <path class="st2" d="M25.8,112.4c.2,1,1.2,1.8,2.2,1.6l1.9-.3-.6-3.8-3.8.6.3,1.9h0Z"/>
    <rect class="st2" x="41" y="107.7" width="3.9" height="3.9" transform="translate(-16.7 8.1) rotate(-9.1)"/>
    <rect class="st2" x="48.6" y="106.5" width="3.9" height="3.9" transform="translate(-16.4 9.3) rotate(-9.1)"/>
    <rect class="st2" x="63.9" y="104" width="3.9" height="3.9" transform="translate(-15.9 11.7) rotate(-9.1)"/>
    <rect class="st2" x="71.5" y="102.8" width="3.9" height="3.9" transform="translate(-15.6 12.9) rotate(-9.1)"/>
    <rect class="st2" x="56.3" y="105.3" width="3.9" height="3.9" transform="translate(-16.2 10.5) rotate(-9.1)"/>
    <rect class="st2" x="33.4" y="108.9" width="3.9" height="3.9" transform="translate(-17 6.9) rotate(-9.1)"/>
    <path class="st2" d="M79.5,105.7l1.9-.3c1-.2,1.8-1.2,1.6-2.2l-.3-1.9-3.8.6.6,3.8Z"/>
    <rect class="st2" x="78.3" y="95.9" width="3.9" height="3.9" transform="translate(-14.4 13.9) rotate(-9.1)"/>
    <rect class="st2" x="19" y="31" width="3.9" height="3.9" transform="translate(-4.9 3.7) rotate(-9.1)"/>
    <path class="st2" d="M92.9,18.9c0,0,0-.1,0-.2-.1-.2-.3-.3-.5-.5L68,.6c-.2-.1-.4-.2-.6-.3,0,0-.1,0-.2,0-.2,0-.4,0-.5,0,0,0,0,0-.1,0l-32.4,5.2c-1,.2-1.8,1.2-1.6,2.2l1.5,9.5-9.5,1.5c-1,.2-1.8,1.2-1.6,2.2l12.5,78.2c.2,1,1.2,1.8,2.2,1.6l53.4-8.5c1-.2,1.8-1.2,1.6-2.2l-1.5-9.5,9.5-1.5c1-.2,1.8-1.2,1.6-2.2l-9.1-57.2s0,0,0-.1c0-.2-.1-.3-.2-.5h0ZM69.5,6.4l16.8,12.2-14.5,2.3-2.3-14.5ZM88.5,88.7l-49.6,7.9L27,22.2l7.6-1.2,10.3,64.9c.2,1,1.2,1.8,2.2,1.6l40.1-6.4s1.2,7.6,1.2,7.6ZM98.1,75.4l-49.6,7.9L36.7,8.9l28.6-4.6,3,19.1c.2,1,1.2,1.8,2.2,1.6l19.1-3s8.5,53.4,8.5,53.4Z"/>
    <path class="st2" d="M54.8,49.1c1.2,7.4,8.1,12.4,15.5,11.2,7.4-1.2,12.4-8.1,11.2-15.5-1.2-7.4-8.1-12.4-15.5-11.2-7.4,1.2-12.4,8.1-11.2,15.5h0ZM77.7,45.4c.8,5.3-2.7,10.2-8,11.1s-10.2-2.7-11.1-8,2.7-10.2,8-11.1c5.3-.8,10.2,2.7,11.1,8h0Z"/>
    <path class="st2" d="M65.3,41.5l.6,3.8-3.8.6.6,3.8,3.8-.6.6,3.8,3.8-.6-.6-3.8,3.8-.6-.6-3.8-3.8.6-.6-3.8-3.8.6h0Z"/>
  </g>
  <g>
    <path class="st0" d="M78.6,49.5l.3,1.8,3.5-.6-.6-3.5-1.8.3c-1,.2-1.6,1.1-1.5,2h0Z"/>
    <rect class="st0" x="84.3" y="83.3" width="3.6" height="3.6" transform="translate(-12.3 14.6) rotate(-9.1)"/>
    <rect class="st0" x="83.2" y="76.1" width="3.6" height="3.6" transform="translate(-11.2 14.4) rotate(-9.1)"/>
    <rect class="st0" x="86.6" y="97.8" width="3.6" height="3.6" transform="translate(-14.6 15.2) rotate(-9.1)"/>
    <rect class="st0" x="85.5" y="90.5" width="3.6" height="3.6" transform="translate(-13.5 14.9) rotate(-9.1)"/>
    <rect class="st0" x="82" y="68.9" width="3.6" height="3.6" transform="translate(-10.1 14.1) rotate(-9.1)"/>
    <rect class="st0" x="88.9" y="112.2" width="3.6" height="3.6" transform="translate(-16.8 15.7) rotate(-9.1)"/>
    <rect class="st0" x="80.9" y="61.7" width="3.6" height="3.6" transform="translate(-9 13.8) rotate(-9.1)"/>
    <rect class="st0" x="87.8" y="105" width="3.6" height="3.6" transform="translate(-15.7 15.4) rotate(-9.1)"/>
    <rect class="st0" x="79.7" y="54.5" width="3.6" height="3.6" transform="translate(-7.9 13.5) rotate(-9.1)"/>
    <path class="st0" d="M90.1,121.4c.2,1,1.1,1.6,2,1.5l1.8-.3-.6-3.5-3.5.6.3,1.8h0Z"/>
    <rect class="st0" x="104.1" y="117.1" width="3.6" height="3.6" transform="translate(-17.4 18.2) rotate(-9.1)"/>
    <rect class="st0" x="111.1" y="116" width="3.6" height="3.6" transform="translate(-17.1 19.3) rotate(-9.1)"/>
    <rect class="st0" x="125.2" y="113.8" width="3.6" height="3.6" transform="translate(-16.6 21.4) rotate(-9.1)"/>
    <rect class="st0" x="132.2" y="112.6" width="3.6" height="3.6" transform="translate(-16.4 22.5) rotate(-9.1)"/>
    <rect class="st0" x="118.1" y="114.9" width="3.6" height="3.6" transform="translate(-16.9 20.3) rotate(-9.1)"/>
    <rect class="st0" x="97.1" y="118.2" width="3.6" height="3.6" transform="translate(-17.7 17.1) rotate(-9.1)"/>
    <path class="st0" d="M139.5,115.3l1.8-.3c1-.2,1.6-1.1,1.5-2l-.3-1.8-3.5.6.6,3.5Z"/>
    <rect class="st0" x="138.4" y="106.3" width="3.6" height="3.6" transform="translate(-15.3 23.4) rotate(-9.1)"/>
    <rect class="st0" x="83.9" y="46.6" width="3.6" height="3.6" transform="translate(-6.5 14.1) rotate(-9.1)"/>
    <path class="st0" d="M151.8,35.4c0,0,0-.1,0-.2-.1-.2-.2-.3-.4-.4l-22.4-16.2c-.2-.1-.4-.2-.6-.3,0,0-.1,0-.2,0-.2,0-.3,0-.5,0,0,0,0,0-.1,0l-29.8,4.8c-1,.2-1.6,1.1-1.5,2l1.4,8.8-8.8,1.4c-1,.2-1.6,1.1-1.5,2l11.5,71.9c.2,1,1.1,1.6,2,1.5l49.1-7.8c1-.2,1.6-1.1,1.5-2l-1.4-8.8,8.8-1.4c1-.2,1.6-1.1,1.5-2l-8.4-52.6s0,0,0-.1c0-.2,0-.3-.2-.4h0ZM130.3,24l15.4,11.2-13.3,2.1-2.1-13.3ZM147.8,99.6l-45.6,7.3-10.9-68.4,7-1.1,9.5,59.7c.2,1,1.1,1.6,2,1.5l36.9-5.9s1.1,7,1.1,7ZM156.6,87.4l-45.6,7.3-10.9-68.4,26.3-4.2,2.8,17.6c.2,1,1.1,1.6,2,1.5l17.6-2.8s7.8,49.1,7.8,49.1Z"/>
    <path class="st0" d="M116.8,63.2c1.1,6.8,7.5,11.4,14.2,10.3s11.4-7.5,10.3-14.2-7.5-11.4-14.2-10.3c-6.8,1.1-11.4,7.5-10.3,14.2h0ZM137.8,59.8c.8,4.8-2.5,9.4-7.4,10.2s-9.4-2.5-10.2-7.4,2.5-9.4,7.4-10.2c4.9-.8,9.4,2.5,10.2,7.4h0Z"/>
    <path class="st0" d="M126.5,56.2l.6,3.5-3.5.6.6,3.5,3.5-.6.6,3.5,3.5-.6-.6-3.5,3.5-.6-.6-3.5-3.5.6-.6-3.5-3.5.6h0Z"/>
  </g>
</svg>