<?xml version="1.0" encoding="UTF-8"?>
<svg id="icons" xmlns="http://www.w3.org/2000/svg" version="1.1" viewBox="0 0 100 100">
  <!-- Generator: Adobe Illustrator 29.6.1, SVG Export Plug-In . SVG Version: 2.1.1 Build 9)  -->
  <defs>
    <style>
      .st0 {
        fill: #ac599c;
      }

      .st1 {
        fill: #46bc93;
      }

      .st2 {
        display: none;
      }
    </style>
  </defs>
  <g id="ic1" class="st2">
    <path class="st1" d="M74.4,55.2c-.5-1.3-1.2-2.5-1.9-3.6v-21.1c0-6-2.3-11.6-6.6-15.9-4.2-4.2-9.8-6.6-15.8-6.6h0c-6,0-11.6,2.3-15.9,6.6-4.2,4.2-6.6,9.9-6.6,15.9v3.1h9v-3.1c0-3.6,1.4-7,3.9-9.5s5.9-3.9,9.5-3.9h0c7.4,0,13.5,6,13.5,13.5v12.3c-1-.6-2.1-1.2-3.2-1.6-3.3-1.6-6.7-2.3-10.3-2.3s-7,.7-10.3,2.1c-3.2,1.3-6,3.2-8.4,5.7-2.4,2.4-4.3,5.3-5.7,8.4-1.4,3.3-2.1,6.7-2.1,10.3s.7,7,2.1,10.3c1.3,3.2,3.2,6,5.7,8.4,2.4,2.4,5.3,4.3,8.4,5.7,3.3,1.4,6.7,2.1,10.3,2.1s7-.7,10.3-2.1c3.2-1.3,6-3.2,8.4-5.7,2.4-2.4,4.3-5.3,5.7-8.4,1.4-3.3,2.1-6.7,2.1-10.3s-.7-7-2.1-10.3ZM50,83c-9.6,0-17.5-7.8-17.5-17.5s7.9-17.5,17.5-17.5,17.5,7.8,17.5,17.5-7.9,17.5-17.5,17.5Z"/>
    <circle class="st1" cx="50.1" cy="65.6" r="7.4"/>
  </g>
  <g id="ic2" class="st2">
    <path class="st1" d="M81.5,32.1c-1.2-6.4-6.8-11.1-13.5-11.1s-1.4.1-2.1.2c-4.3-7-11.8-11.3-20-11.3s-21.2,8.3-23.1,19.5c-.6-.1-1.2-.1-1.8-.1-8.4,0-15.2,6.8-15.2,15.2s6.8,15.2,15.2,15.2h11c.7,0,1.3-.6,1.3-1.3s-.6-1.4-1.3-1.4h-11.1c-6.9,0-12.6-5.6-12.6-12.5s5.6-12.6,12.6-12.6,1.8.1,2.6.3c.4,0,.7,0,1-.2s.5-.5.5-.9c1.2-10.6,10.1-18.6,20.7-18.6s14.6,4.1,18.2,10.7c.3.5.9.8,1.4.6.8-.2,1.7-.3,2.5-.3,5.7,0,10.5,4.3,11.1,9.9,0,.7.6,1.2,1.3,1.2h0c6.1,0,11.1,5,11.1,11.2s-5,11.2-11.2,11.2h-22v-5.9c1.6-.5,2.8-2.1,2.8-3.9v-16.6c0-2.2-1.8-4.1-4.1-4.1h-16.6c-2.2,0-4.1,1.8-4.1,4.1v16.6c0,1.8,1.2,3.3,2.8,3.9v5.9h-1.5c-.7,0-1.3.6-1.3,1.3s.6,1.3,1.3,1.3h1.5v5.7h-8.7c-.5-1.6-2.1-2.8-3.9-2.8s-4.1,1.8-4.1,4.1,1.8,4.1,4.1,4.1,3.3-1.2,3.9-2.8h8.7v5.9c-1.6.5-2.8,2.1-2.8,3.9s1.8,4.1,4.1,4.1,4.1-1.8,4.1-4.1-1.2-3.3-2.8-3.9v-14.2h5.7v22.6c-1.6.5-2.8,2.1-2.8,3.9s1.8,4.1,4.1,4.1,4.1-1.8,4.1-4.1-1.2-3.3-2.8-3.9v-22.6h5.7v14.2c-1.6.5-2.8,2.1-2.8,3.9s1.8,4.1,4.1,4.1,4.1-1.8,4.1-4.1-1.2-3.3-2.8-3.9v-5.9h8.7c.5,1.6,2.1,2.8,3.9,2.8s4.1-1.8,4.1-4.1-1.8-4.1-4.1-4.1-3.3,1.2-3.9,2.8h-8.7v-5.7h22.3c7.6,0,13.8-6.2,13.8-13.8,0-7.2-5.7-13.2-12.8-13.7h0ZM26.4,68.1c-.8,0-1.5-.7-1.5-1.5s.7-1.5,1.5-1.5,1.5.7,1.5,1.5-.6,1.5-1.5,1.5ZM41.8,77.7c0,.8-.7,1.5-1.5,1.5s-1.5-.7-1.5-1.5.7-1.5,1.5-1.5,1.5.7,1.5,1.5ZM47.3,57h-5.7v-5.7h5.7v5.7ZM50.1,86c0,.8-.7,1.5-1.5,1.5s-1.5-.7-1.5-1.5.7-1.5,1.5-1.5,1.5.7,1.5,1.5ZM55.6,57h-5.7v-5.7h5.7v5.7ZM49.9,48.7v-2.9h4.2c.7,0,1.3-.6,1.3-1.3v-5.5c0-.7-.6-1.3-1.3-1.3s-1.3.6-1.3,1.3v4.2h-8.5v-8.5h9.8c.7,0,1.3-.6,1.3-1.3s-.6-1.3-1.3-1.3h-11c-.7,0-1.3.6-1.3,1.3v11.1c0,.7.6,1.3,1.3,1.3h4.2v2.9h-7c-.8,0-1.5-.7-1.5-1.5v-16.6h0c0-.8.7-1.5,1.5-1.5h16.6c.8,0,1.5.7,1.5,1.5v16.6c0,.8-.7,1.5-1.5,1.5h-7ZM58.4,77.7c0,.8-.7,1.5-1.5,1.5s-1.5-.7-1.5-1.5.7-1.5,1.5-1.5,1.5.7,1.5,1.5ZM70.8,65.2c.8,0,1.5.7,1.5,1.5s-.7,1.5-1.5,1.5-1.5-.7-1.5-1.5.7-1.5,1.5-1.5Z"/>
  </g>
  <g id="ic3" class="st2">
    <g>
      <path class="st1" d="M32.1,35.1v29.9c0,.9.6,1.5,1.5,1.5h32.9c.9,0,1.5-.6,1.5-1.5v-29.9c0-.9-.6-1.5-1.5-1.5h-32.9c-.9,0-1.5.6-1.5,1.5ZM35.1,36.6h29.9v26.9h-29.9v-26.9Z"/>
      <rect class="st1" x="39.5" y="50" width="7.5" height="3"/>
      <rect class="st1" x="39.5" y="56" width="17.9" height="3"/>
      <path class="st1" d="M79.9,41c.9,0,1.5-.6,1.5-1.5v-4.5h11.9v-3h-11.9v-4.5c0-.9-.6-1.5-1.5-1.5h-4.5v-4.5c0-.9-.6-1.5-1.5-1.5h-4.5V6.7h-3v13.4h-4.5c-.9,0-1.5.6-1.5,1.5v4.5h-3v-4.5c0-.9-.6-1.5-1.5-1.5h-4.5V6.7h-3v13.4h-4.4c-.9,0-1.5.6-1.5,1.5v4.5h-3v-4.5c0-.9-.6-1.5-1.5-1.5h-4.5V6.7h-3v13.4h-4.5c-.9,0-1.5.6-1.5,1.5v4.5h-4.5c-.9,0-1.5.6-1.5,1.5v4.5H6.7v3h11.9v4.5c0,.9.6,1.5,1.5,1.5h4.5v1.5h-4.5c-.9,0-1.5.6-1.5,1.5v4.5H6.7v3h11.9v4.4c0,.9.6,1.5,1.5,1.5h4.5v1.5h-4.5c-.9,0-1.5.6-1.5,1.5v4.5H6.7v3h11.9v4.5c0,.9.6,1.5,1.5,1.5h4.5v4.5c0,.9.6,1.5,1.5,1.5h4.5v13.4h3v-13.5h4.5c.9,0,1.5-.6,1.5-1.5v-4.5h3v4.5c0,.9.6,1.5,1.5,1.5h4.5v13.4h3v-13.4h4.4c.9,0,1.5-.6,1.5-1.5v-4.5h3v4.5c0,.9.6,1.5,1.5,1.5h4.5v13.4h3v-13.4h4.5c.9,0,1.5-.6,1.5-1.5v-4.5h4.5c.9,0,1.5-.6,1.5-1.5v-4.5h11.9v-3h-12v-4.5c0-.9-.6-1.5-1.5-1.5h-4.5v-1.5h4.5c.9,0,1.5-.6,1.5-1.5v-4.5h11.9v-3h-11.9v-4.4c0-.9-.6-1.5-1.5-1.5h-4.5v-1.5h4.5ZM78.4,38.1h-3v-9h3v9ZM72.4,39.5v31.5H27.6V29.1h44.9v10.4h0ZM63.4,23.1h9v3h-9v-3ZM45.5,23.1h9v3h-9v-3ZM27.6,23.1h9v3h-9s0-3,0-3ZM21.6,38.1v-9h3v9h-3ZM21.6,54.5v-9h3v9h-3ZM21.6,61.9h3v9h-3v-9ZM36.6,76.9h-9v-3h9v3ZM54.5,76.9h-9v-3h9v3ZM72.4,76.9h-9v-3h9v3ZM78.4,61.9v9h-3v-9h3ZM78.4,45.5v9h-3v-9h3Z"/>
    </g>
  </g>
  <g>
    <path class="st0" d="M90.4,8.6H9.6c-3.1,0-5.6,2.5-5.6,5.6v53.6c0,3.1,2.5,5.6,5.6,5.6h29.5v8.5h-1.1c-3.7,0-6.8,3-6.8,6.8v.9c0,1.4,1.2,2.6,2.6,2.6h32.2c1.4,0,2.6-1.2,2.6-2.6v-.9c0-3.7-3-6.8-6.8-6.8h-1.1v-8.5h29.5c3.1,0,5.6-2.5,5.6-5.6V14.3c0-3.1-2.5-5.6-5.6-5.6h0ZM9.6,10.5h80.7c2.1,0,3.8,1.7,3.8,3.8v49.1H5.9V14.3c0-2.1,1.7-3.8,3.8-3.8h0ZM66.8,88.7v.9c0,.4-.3.7-.7.7h-32.2c-.4,0-.7-.3-.7-.7v-.9c0-2.7,2.2-4.9,4.9-4.9h23.9c2.7,0,4.9,2.2,4.9,4.9h0ZM59,81.9h-17.9v-8.5h17.9v8.5ZM90.4,71.6H9.6c-2.1,0-3.8-1.7-3.8-3.8v-2.5h88.2v2.5c0,2.1-1.7,3.8-3.7,3.8h0ZM39.9,56.9h20.1c2.2,0,4-1.8,4-4v-15.1c0-2.2-1.8-4-4-4h-14v-7.2c0-1,.4-2,1.1-2.8.7-.7,1.7-1.1,2.8-1.1s2,.4,2.8,1.1c.7.7,1.1,1.7,1.1,2.8v3.3c0,1,.8,1.9,1.9,1.9h1.9c1,0,1.9-.8,1.9-1.9v-3.3c0-2.6-1-4.9-2.8-6.8-1.8-1.8-4.2-2.8-6.8-2.8s-4.9,1-6.8,2.8c-1.8,1.8-2.8,4.2-2.8,6.8v7.2h-.5c-2.2,0-4,1.8-4,4v15.1c0,2.2,1.8,4,4,4h0ZM42.3,26.6c0-2,.8-4,2.3-5.4,1.5-1.5,3.4-2.3,5.4-2.3s4,.8,5.4,2.3c1.5,1.5,2.3,3.4,2.3,5.4v3.3h-1.9v-3.3c0-1.5-.6-3-1.7-4.1-1.1-1.1-2.6-1.7-4.1-1.7s-3,.6-4.1,1.7c-1.1,1.1-1.7,2.6-1.7,4.1v7.2h-1.9v-7.2s0,0,0,0ZM37.8,37.8c0-1.2,1-2.1,2.1-2.1h20.1c1.2,0,2.1,1,2.1,2.1v15.1c0,1.2-1,2.1-2.1,2.1h-20.1c-1.2,0-2.1-1-2.1-2.1v-15.1ZM54.7,48.9l3.5-3.5-3.5-3.5c-.4-.4-.4-1,0-1.3.4-.4,1-.4,1.3,0l4.2,4.2c.2.2.3.4.3.7s-.1.5-.3.7l-4.2,4.2c-.2.2-.4.3-.7.3s-.5,0-.7-.3c-.4-.4-.4-.9,0-1.3h0ZM39.8,46c-.2-.2-.3-.4-.3-.7s.1-.5.3-.7l4.2-4.2c.4-.4,1-.4,1.3,0,.4.4.4,1,0,1.3l-3.5,3.5,3.5,3.5c.4.4.4,1,0,1.3-.2.2-.4.3-.7.3s-.5,0-.7-.3l-4.2-4.2ZM47.7,50.3l2.8-10.3c.1-.5.6-.8,1.1-.7.5.1.8.6.7,1.1l-2.8,10.3c-.1.4-.5.7-.9.7s-.2,0-.2,0c-.5-.1-.8-.7-.7-1.2h0Z"/>
    <path class="st0" d="M66.1,92.6h-32.2c-1.7,0-3.1-1.4-3.1-3.1v-.9c0-4,3.3-7.3,7.3-7.3h.6v-7.5H9.6c-3.4,0-6.1-2.7-6.1-6.1V14.3c0-3.4,2.7-6.1,6.1-6.1h80.7c1.6,0,3.2.6,4.3,1.8,1.2,1.2,1.8,2.7,1.8,4.3v53.5c0,3.4-2.7,6.1-6.1,6.1h-29v7.5h.6c4,0,7.3,3.3,7.3,7.3v.9c0,1.7-1.4,3.1-3.1,3.1ZM38,82.4c-3.5,0-6.3,2.8-6.3,6.3v.9c0,1.2.9,2.1,2.1,2.1h32.2c1.2,0,2.1-.9,2.1-2.1v-.9c0-3.5-2.8-6.3-6.3-6.3h-1.6v-9.5h30c2.8,0,5.1-2.3,5.1-5.1V14.3c0-1.4-.5-2.6-1.5-3.6-1-1-2.3-1.5-3.6-1.5H9.6c-2.8,0-5.1,2.3-5.1,5.1v53.6c0,2.8,2.3,5.1,5.1,5.1h30v9.5h-1.6ZM66.1,90.8h-32.2c-.7,0-1.2-.5-1.2-1.2v-.9c0-3,2.4-5.4,5.4-5.4h23.9c1.4,0,2.8.6,3.8,1.6,1,1,1.6,2.4,1.6,3.8v.9c0,.7-.5,1.2-1.2,1.2ZM38.1,84.3c-2.4,0-4.4,2-4.4,4.4v.9c0,.1.1.2.2.2h32.2c.1,0,.2-.1.2-.2v-.9c0-1.2-.5-2.3-1.3-3.1-.8-.8-1.9-1.3-3.1-1.3h-23.9ZM59.5,82.4h-18.9v-9.5h18.9v9.5ZM41.5,81.4h16.9v-7.5h-16.9v7.5ZM90.4,72.1H9.6c-2.4,0-4.3-1.9-4.3-4.3v-3h89.2v3c0,1.1-.4,2.2-1.2,3-.8.8-1.9,1.3-3,1.3ZM6.4,65.8v2c0,1.8,1.5,3.3,3.3,3.3h80.7c.9,0,1.7-.3,2.3-1,.6-.6.9-1.4.9-2.3v-2H6.4ZM94.6,63.9H5.4V14.3c0-2.3,1.9-4.2,4.2-4.2h0s80.7,0,80.7,0c2.3,0,4.3,1.9,4.3,4.3v49.6ZM6.4,62.9h87.2V14.3c0-1.8-1.5-3.3-3.3-3.3H9.6c-1.8,0-3.3,1.5-3.3,3.3v48.7ZM60.1,57.4h-20.1c-2.5,0-4.5-2-4.5-4.5v-15.1c0-2.5,2-4.5,4.5-4.5h0v-6.7c0-2.7,1-5.2,3-7.1,1.9-1.9,4.4-3,7.1-3s5.2,1,7.1,3c1.9,1.9,3,4.4,3,7.1v3.3c0,1.3-1.1,2.4-2.4,2.4h-1.9c-1.3,0-2.4-1.1-2.4-2.4v-3.3c0-.9-.4-1.8-1-2.4-1.3-1.3-3.5-1.3-4.8,0-.6.6-1,1.5-1,2.4v6.7h13.5c2.5,0,4.5,2,4.5,4.5v15.1c0,2.5-2,4.5-4.5,4.5ZM39.9,34.3c-1.9,0-3.5,1.6-3.5,3.5v15.1c0,1.9,1.6,3.5,3.5,3.5h20.1c1.9,0,3.5-1.6,3.5-3.5v-15.1c0-1.9-1.6-3.5-3.5-3.5h-14.5v-7.7c0-1.2.5-2.3,1.3-3.1.8-.8,1.9-1.3,3.1-1.3s2.3.5,3.1,1.3c.8.8,1.3,1.9,1.3,3.1v3.3c0,.8.6,1.4,1.4,1.4h1.9c.8,0,1.4-.6,1.4-1.4v-3.3c0-2.4-.9-4.7-2.7-6.4-1.7-1.7-4-2.7-6.4-2.7s-4.7.9-6.4,2.7c-1.7,1.7-2.7,4-2.7,6.4v7.7h-1ZM60.1,55.5h-20.1c-1.5,0-2.6-1.2-2.6-2.6v-15.1c0-1.5,1.2-2.6,2.6-2.6h20.1c1.5,0,2.6,1.2,2.6,2.6v15.1c0,1.5-1.2,2.6-2.6,2.6ZM38.3,37.8v15.1c0,.9.7,1.6,1.7,1.6h20.1c.9,0,1.6-.7,1.6-1.6v-15.1c0-.9-.7-1.6-1.7-1.6h-20.1c-.9,0-1.6.7-1.6,1.6h0ZM48.6,52c-.1,0-.2,0-.4,0-.4-.1-.7-.3-.9-.7-.2-.3-.2-.7-.1-1.1l2.8-10.3c0-.4.3-.7.7-.9.3-.2.7-.2,1.1-.1.4,0,.7.3.9.7s.2.7.1,1.1l-2.8,10.3c-.2.6-.7,1.1-1.4,1.1ZM51.4,39.7c0,0-.1,0-.2,0-.1,0-.2.2-.2.3l-2.8,10.3c0,.1,0,.2,0,.3,0,.1.2.2.3.2.2,0,.5,0,.5-.3l2.8-10.3c0-.1,0-.2,0-.3,0-.1-.2-.2-.3-.2,0,0,0,0-.1,0ZM44.6,51c-.4,0-.8-.2-1-.4l-4.2-4.2c-.3-.3-.4-.6-.4-1s.1-.7.4-1l4.2-4.2c.3-.3.6-.4,1-.4h0c.4,0,.7.2,1,.4.3.3.4.6.4,1,0,.4-.2.7-.4,1l-3.2,3.2,3.2,3.2c.3.3.4.6.4,1,0,.4-.2.7-.4,1-.3.3-.6.4-1,.4ZM44.6,40.7c-.1,0-.2,0-.3.1l-4.2,4.2c0,0-.1.2-.1.3s0,.2.1.3l4.2,4.2c.3.3.5.1.6,0,0,0,.1-.2.1-.3,0-.1,0-.2-.1-.3l-3.9-3.9,3.9-3.9c0,0,.1-.2.1-.3,0-.1,0-.2-.1-.3,0,0-.2-.1-.3-.1h0ZM55.4,51c-.4,0-.8-.2-1-.4-.3-.2-.4-.6-.4-1,0-.4.1-.8.4-1l3.2-3.2-3.2-3.2c-.3-.3-.4-.6-.4-1,0-.4.2-.7.4-1,.3-.3.6-.4,1-.4h0c.4,0,.7.2,1,.4l4.2,4.2c.3.3.4.6.4,1s-.2.7-.4,1l-4.2,4.2c-.3.3-.6.4-1,.4ZM55.1,49.2c0,0-.1.2-.1.3,0,.1,0,.2.1.3.1.1.2.1.3.1.1,0,.2,0,.3-.1l4.2-4.2c0,0,.1-.2.1-.3s0-.2-.1-.3l-4.2-4.2c0,0-.2-.1-.3-.1h0c-.1,0-.2,0-.3.1,0,0-.1.2-.1.3s0,.2.1.3l3.9,3.9-3.9,3.9ZM44.7,34.3h-2.9v-7.7c0-2.2.8-4.2,2.4-5.8s3.6-2.4,5.8-2.4,4.2.9,5.8,2.4,2.4,3.6,2.4,5.8v3.8h-2.9v-3.8c0-1.4-.6-2.7-1.6-3.7-1-1-2.3-1.6-3.7-1.6s-2.7.6-3.7,1.6c-1,1-1.6,2.3-1.6,3.7v7.7ZM42.8,33.3h.9v-6.7c0-1.7.7-3.3,1.8-4.4,1.2-1.2,2.8-1.8,4.4-1.8s3.3.7,4.4,1.8c1.2,1.2,1.8,2.8,1.8,4.4v2.8h.9v-2.8c0-1.9-.8-3.7-2.1-5.1s-3.2-2.1-5.1-2.1-3.7.8-5.1,2.1-2,2.9-2.1,4.6h0v7.2Z"/>
  </g>
</svg>