<?xml version="1.0" encoding="UTF-8"?>
<svg id="Camada_1" xmlns="http://www.w3.org/2000/svg" version="1.1" viewBox="0 0 120 120">
  <!-- Generator: Adobe Illustrator 29.6.0, SVG Export Plug-In . SVG Version: 2.1.1 Build 207)  -->
  <defs>
    <style>
      .st0 {
        fill: #985998;
      }
    </style>
  </defs>
  <g id="_x31_">
    <rect class="st0" x="58.2" y="65.2" width="3.5" height="35.4"/>
    <path class="st0" d="M56.5,93.2h-10.9c-3.1,0-5.7-2.6-5.7-5.7v-5.7h10.9c3.1,0,5.7,2.6,5.7,5.7v5.7ZM43.4,85.4v2.2c0,1.2,1,2.2,2.2,2.2h7.4v-2.2c0-1.2-1-2.2-2.2-2.2h-7.4ZM74.4,86.7h-10.9v-5.7c0-3.1,2.6-5.7,5.7-5.7h10.9v5.7c0,3.1-2.6,5.7-5.7,5.7ZM67,83.2h7.4c1.2,0,2.2-1,2.2-2.2v-2.2h-7.4c-1.2,0-2.2,1-2.2,2.2v2.2Z"/>
    <path class="st0" d="M91.5,73.6h-26.2c-.5,0-.9-.2-1.2-.5l-4-4-4,4c-.3.3-.8.5-1.2.5h-26.2c-1,0-1.8-.8-1.8-1.8V23.3h3.5v46.8h23.8l1.8-1.8h-22c-1,0-1.8-.8-1.8-1.8V19.3c0-1,.8-1.8,1.8-1.8h52.5c1,0,1.8.8,1.8,1.8v47.2c0,1-.8,1.8-1.8,1.8h-22l1.8,1.8h23.8V23.3h3.5v48.6c0,1-.8,1.8-1.8,1.8ZM35.5,64.8h49V21.1h-49v43.8ZM61.8,60h-3.5V25.9h3.5v34.1ZM82.3,57.8h-18.4v-3.5h18.4v3.5ZM56.1,57.8h-18.4v-3.5h18.4v3.5ZM82.3,52.6h-18.4v-3.5h18.4v3.5ZM56.1,52.6h-18.4v-3.5h18.4v3.5ZM82.3,47.3h-18.4v-3.5h18.4v3.5ZM56.1,47.3h-18.4v-3.5h18.4v3.5ZM79.7,40.8h-2.6v-3.5h2.6v3.5ZM74.4,40.8h-2.6v-3.5h2.6v3.5ZM69.2,40.8h-2.6v-3.5h2.6v3.5ZM82.3,34.2h-18.4v-3.5h18.4v3.5ZM82.3,28.9h-18.4v-3.5h18.4v3.5Z"/>
    <path class="st0" d="M92.8,102.4H27.2v-3.5h65.6v3.5ZM56.5,42.1h-19.2v-16.6h19.2v16.6ZM40.8,38.6h12.2v-9.6h-12.2v9.6Z"/>
  </g>
</svg>