<?xml version="1.0" encoding="UTF-8"?>
<svg id="Camada_1" xmlns="http://www.w3.org/2000/svg" version="1.1" viewBox="0 0 120 120">
  <!-- Generator: Adobe Illustrator 29.6.0, SVG Export Plug-In . SVG Version: 2.1.1 Build 207)  -->
  <defs>
    <style>
      .st0 {
        fill: #985998;
      }
    </style>
  </defs>
  <path id="_x35_" class="st0" d="M100.7,102.4h-5.2c-.5,0-.9-.2-1.2-.5l-8.3-8.3c-7.2,5.5-16.1,8.8-25.9,8.8s-18.7-3.3-25.9-8.8l-8.3,8.3c-.3.3-.8.5-1.2.5h-5.2c-.6,0-1.2-.3-1.5-.8s-.3-1.2,0-1.7l7.7-15.3c-4.9-6.9-7.9-15.4-7.9-24.6,0-23.4,19-42.4,42.4-42.4s10.2.9,15.1,2.7l-1.2,3.3c-4.4-1.7-9.1-2.5-13.8-2.5-21.5,0-38.9,17.5-38.9,38.9s17.5,38.9,38.9,38.9,38.9-17.5,38.9-38.9-.8-9.4-2.5-13.8l3.3-1.2c1.8,4.8,2.7,9.9,2.7,15.1,0,9.1-2.9,17.6-7.9,24.6l7.7,15.3c.3.5.2,1.2,0,1.7s-.9.8-1.5.8ZM96.2,98.9h1.7l-5.7-11.3c-1.1,1.3-2.3,2.6-3.6,3.7l7.6,7.6ZM22.1,98.9h1.7l7.6-7.6c-1.3-1.2-2.5-2.4-3.6-3.7l-5.7,11.3ZM60,94.6c-19.1,0-34.6-15.5-34.6-34.6s15.5-34.6,34.6-34.6,17,3.4,23.2,8.9l2.7-2.7v-8.5h3.5v5l1.8-1.8v-8.5h3.5v5l4.9-4.9,2.5,2.5-4.9,4.9h5v3.5h-8.5l-1.8,1.8h5v3.5h-8.5l-2.7,2.7c5.5,6.1,8.9,14.3,8.9,23.2,0,19.1-15.5,34.6-34.6,34.6ZM60,28.9c-17.1,0-31.1,13.9-31.1,31.1s13.9,31.1,31.1,31.1,31.1-13.9,31.1-31.1-3-15.2-7.9-20.7l-3.1,3.1c4.1,4.7,6.6,10.9,6.6,17.6,0,14.7-12,26.7-26.7,26.7s-26.7-12-26.7-26.7,12-26.7,26.7-26.7,12.9,2.5,17.6,6.6l3.1-3.1c-5.5-4.9-12.7-7.9-20.7-7.9ZM60,36.8c-12.8,0-23.2,10.4-23.2,23.2s10.4,23.2,23.2,23.2,23.2-10.4,23.2-23.2-2.1-11-5.6-15.1l-3.1,3.1c2.7,3.3,4.3,7.4,4.3,12,0,10.4-8.4,18.8-18.8,18.8s-18.8-8.4-18.8-18.8,8.4-18.8,18.8-18.8,8.7,1.6,12,4.3l3.1-3.1c-4.1-3.5-9.3-5.6-15.1-5.6ZM60,44.7c-8.4,0-15.3,6.9-15.3,15.3s6.9,15.3,15.3,15.3,15.3-6.9,15.3-15.3-1.2-6.9-3.3-9.5l-3.1,3.1c1.3,1.8,2.1,4,2.1,6.4,0,6-4.9,10.9-10.9,10.9s-10.9-4.9-10.9-10.9,4.9-10.9,10.9-10.9,4.6.8,6.4,2.1l3.1-3.1c-2.6-2.1-5.9-3.3-9.5-3.3ZM60,52.6c-4.1,0-7.4,3.3-7.4,7.4s3.3,7.4,7.4,7.4,7.4-3.3,7.4-7.4-.4-2.7-1.1-3.9l-3.3,3.3c0,.2,0,.4,0,.5,0,1.7-1.4,3.1-3.1,3.1s-3.1-1.4-3.1-3.1,1.4-3.1,3.1-3.1.4,0,.5,0l3.3-3.3c-1.1-.7-2.5-1.1-3.9-1.1ZM59.7,59.7c0,0-.1.2-.1.3,0,.4.5.5.7.3l-.6-.6Z"/>
</svg>