<?xml version="1.0" encoding="UTF-8"?>
<svg id="Camada_1" xmlns="http://www.w3.org/2000/svg" version="1.1" viewBox="0 0 120 120">
  <!-- Generator: Adobe Illustrator 29.6.0, SVG Export Plug-In . SVG Version: 2.1.1 Build 207)  -->
  <defs>
    <style>
      .st0 {
        fill: #985998;
      }
    </style>
  </defs>
  <g id="_x39_">
    <rect class="st0" x="27.8" y="88.4" width="4.5" height="3.5"/>
    <path class="st0" d="M62.5,108.1h-3.5v-18c0-7.6,3-14,5.8-20.1,3-6.5,6.2-13.2,6.2-21.9h3.5c0,9.4-3.3,16.5-6.5,23.4-2.8,6.1-5.5,11.8-5.5,18.6v18Z"/>
    <rect class="st0" x="65.2" y="88.4" width="4.5" height="3.5"/>
    <path class="st0" d="M71.5,108.1h-3.5v-18c0-1,.8-1.8,1.8-1.8h9c4,0,7.2-3.3,7.2-7.2v-13.5c0-1,.8-1.8,1.8-1.8h5.8v-.9l-7.4-19.2c0-.2-.1-.4-.1-.6,0-16.4-13.3-29.8-29.8-29.8s-29.8,13.3-29.8,29.8h-3.5c0-18.3,14.9-33.2,33.2-33.2s33.1,14.7,33.2,32.9l7.4,19.2c0,.2.1.4.1.6v3c0,1-.8,1.8-1.8,1.8h-5.8v11.8c0,5.9-4.8,10.8-10.8,10.8h-7.2v16.2ZM53.2,65.8c-.3,0-.7-.1-1-.3-.4-.3-.7-.7-.8-1.2-.2-1.4-1.3-2.4-2.7-2.4s-2.5,1-2.7,2.4c0,.5-.3.9-.8,1.2-.4.3-.9.4-1.4.2-1.5-.4-2.9-.9-4.2-1.6-.4-.2-.8-.6-.9-1.1-.1-.5,0-1,.2-1.4.3-.5.5-1,.5-1.5,0-1.5-1.2-2.8-2.8-2.8s-1.4.4-1.8.7c-.4.3-.9.5-1.4.4-.5,0-.9-.3-1.2-.8-1.3-1.9-2.2-4-2.8-6.2-.1-.5,0-1,.2-1.4.3-.4.7-.7,1.2-.8,1.4-.2,2.4-1.3,2.4-2.7s-1-2.5-2.4-2.7c-.5,0-.9-.3-1.2-.8-.3-.4-.4-.9-.2-1.4.5-1.8,1.2-3.6,2.1-5.2.3-.5.8-.8,1.4-.9.6,0,1.1.2,1.5.6.5.7,1.3,1,2.1,1,1.5,0,2.8-1.2,2.8-2.8s-.4-1.6-1-2.1c-.4-.4-.7-.9-.6-1.5s.4-1.1.9-1.4c1.6-1,3.4-1.7,5.2-2.1.5-.1,1,0,1.4.2.4.3.7.7.8,1.2.2,1.4,1.3,2.4,2.7,2.4s2.5-1,2.7-2.4c0-.5.3-.9.8-1.2.4-.3.9-.4,1.4-.2,1.8.5,3.6,1.2,5.2,2.1.5.3.8.8.9,1.4s-.2,1.1-.6,1.5c-.7.5-1,1.3-1,2.1,0,1.5,1.2,2.8,2.8,2.8s1.6-.4,2.1-1c.4-.4.9-.7,1.5-.6.6,0,1.1.4,1.4.9,1,1.6,1.7,3.4,2.1,5.2.1.5,0,1-.2,1.4-.3.4-.7.7-1.2.8-1.4.2-2.4,1.3-2.4,2.7s1,2.5,2.4,2.7c.5,0,.9.3,1.2.8.3.4.4.9.2,1.4-.6,2.3-1.5,4.3-2.8,6.2-.3.4-.7.7-1.2.8-.5,0-1,0-1.4-.4-.4-.3-1-.7-1.8-.7-1.5,0-2.8,1.2-2.8,2.8s.2,1.1.5,1.5c.3.4.4.9.2,1.4-.1.5-.4.9-.9,1.1-1.3.7-2.7,1.2-4.2,1.6-.1,0-.3,0-.4,0ZM48.8,58.4c2.4,0,4.6,1.4,5.6,3.5.1,0,.2,0,.4-.1-.1-.5-.2-1.1-.2-1.6,0-3.4,2.8-6.2,6.2-6.2s1.6.2,2.3.5c.4-.7.7-1.4.9-2.1-2.1-1-3.5-3.2-3.5-5.6s1.4-4.6,3.5-5.6c-.1-.3-.2-.6-.4-.9-.9.5-1.9.7-2.9.7-3.4,0-6.2-2.8-6.2-6.2s.3-2,.7-2.9c-.3-.1-.6-.2-.9-.4-1,2.1-3.2,3.5-5.6,3.5s-4.6-1.4-5.6-3.5c-.3.1-.6.2-.9.4.5.9.7,1.9.7,2.9,0,3.4-2.8,6.2-6.2,6.2s-2-.3-2.9-.7c-.1.3-.2.6-.4.9,2.1,1,3.5,3.2,3.5,5.6s-1.4,4.6-3.5,5.6c.3.7.6,1.4.9,2.1.7-.3,1.5-.5,2.3-.5,3.4,0,6.2,2.8,6.2,6.2s0,1.1-.2,1.6c.1,0,.2,0,.4.1,1-2.1,3.2-3.5,5.6-3.5ZM48.8,54.4c-4.3,0-7.8-3.5-7.8-7.8s3.5-7.8,7.8-7.8,7.8,3.5,7.8,7.8-3.5,7.8-7.8,7.8ZM48.8,42.4c-2.3,0-4.2,1.9-4.2,4.2s1.9,4.2,4.2,4.2,4.2-1.9,4.2-4.2-1.9-4.2-4.2-4.2Z"/>
  </g>
</svg>