<?xml version="1.0" encoding="UTF-8"?>
<svg id="Layer_1" xmlns="http://www.w3.org/2000/svg" xmlns:xlink="http://www.w3.org/1999/xlink" version="1.1" viewBox="0 0 200 120">
  <!-- Generator: Adobe Illustrator 29.6.0, SVG Export Plug-In . SVG Version: 2.1.1 Build 207)  -->
  <defs>
    <style>
      .st0 {
        fill: #ac599c;
      }

      .st1 {
        opacity: .2;
      }

      .st1, .st2 {
        isolation: isolate;
      }

      .st3 {
        fill: #46bc93;
      }

      .st4 {
        fill: #fff;
      }

      .st2 {
        fill: url(#Gradiente_sem_nome);
        opacity: .3;
      }

      .st5 {
        display: none;
      }
    </style>
    <linearGradient id="Gradiente_sem_nome" data-name="Gradiente sem nome" x1="721.1" y1="1264.9" x2="721.1" y2="1466.2" gradientTransform="translate(-1266.5 781.5) rotate(-90)" gradientUnits="userSpaceOnUse">
      <stop offset="0" stop-color="#c8645e"/>
      <stop offset=".2" stop-color="#b6606f"/>
      <stop offset=".5" stop-color="#a05b85"/>
      <stop offset=".7" stop-color="#935892"/>
      <stop offset="1" stop-color="#8f5797"/>
    </linearGradient>
  </defs>
  <rect class="st2" x="-1.6" y=".2" width="201.3" height="120.5"/>
  <g class="st5">
    <g>
      <path class="st3" d="M110.4,29.7c.2.2.5.2.8.2s.8-.2,1.1-.6c.4-.6.3-1.4-.3-1.8h0c-.6-.5-1.4-.4-1.8.2s-.3,1.4.3,1.8v.2h0Z"/>
      <path class="st3" d="M101.3,35.1c-1,.7-1.5,1.8-1.5,3v11.8c0,1.6,1,3,2.5,3.5l12.9,4.3h.8l12.9-4.3c1.5-.5,2.5-1.9,2.5-3.5v-11.8c0-1.2-.6-2.3-1.5-3-1-.7-2.2-.9-3.4-.5l-10.9,3.6-10.9-3.6c-1.2-.4-2.4-.2-3.4.5ZM116.9,40.5l10.4-3.5c.3,0,.7,0,1,.2.3.2.5.5.5.9v11.8c0,.5-.3.9-.8,1.1l-11.1,3.7v-14.2ZM114.2,54.7l-11.1-3.7c-.5-.2-.8-.6-.8-1.1v-11.8c0-.4.2-.7.5-.9s.7-.3,1-.2l10.4,3.5v14.2Z"/>
      <path class="st3" d="M117.1,28c.2.2.5.2.8.2s.8-.2,1.1-.6c.4-.6.3-1.4-.3-1.8h0c-.6-.5-1.4-.4-1.8.2s-.3,1.4.3,1.8v.2h0Z"/>
      <path class="st3" d="M114.1,32.3c.2.2.5.2.8.2s.8-.2,1.1-.6c.4-.6.3-1.4-.3-1.8h-.3c-.6-.5-1.4-.4-1.8.2s-.3,1.4.3,1.8c0,0,.2.2.2.2Z"/>
      <path class="st3" d="M99.5,64h-.2c-.7,0-1.3.6-1.3,1.3s.6,1.3,1.3,1.3h.2c.7,0,1.3-.6,1.3-1.3s-.6-1.3-1.3-1.3Z"/>
      <path class="st3" d="M69.9,59c-4.9-4.1-7.7-10.1-7.7-16.5,0-11.8,9.6-21.4,21.4-21.4s15.3,4.4,19,11.5c.3.6,1.1.9,1.8.6.6-.3.9-1.1.6-1.8-4.2-8-12.3-12.9-21.3-12.9-13.2,0-24,10.8-24,24s3.2,13.9,8.7,18.5c.2.2.5.3.8.3s.7-.2,1-.5c.3-.5.3-1.3-.3-1.8Z"/>
      <path class="st3" d="M81.8,42.1h.2c.7,0,1.3-.6,1.3-1.3s-.6-1.3-1.3-1.3h-.2c-.7,0-1.3.6-1.3,1.3s.6,1.3,1.3,1.3Z"/>
      <path class="st3" d="M110.4,71.9c-.7-.3-1.4,0-1.7.7-2.9,6.5-9.3,10.6-16.4,10.6s-17.9-8-17.9-17.9,1-6.9,2.9-9.8c.4-.6.2-1.4-.4-1.8-.6-.4-1.4-.2-1.8.4-2.2,3.3-3.3,7.2-3.3,11.2,0,11.3,9.2,20.5,20.5,20.5s15.5-4.8,18.8-12.2c.3-.6,0-1.4-.7-1.7Z"/>
      <path class="st3" d="M78.3,88.4c-3.6,0-6.6,2.9-6.6,6.6s2.9,6.6,6.6,6.6,6.6-2.9,6.6-6.6-3-6.6-6.6-6.6ZM78.3,98.9c-2.2,0-3.9-1.8-3.9-3.9s1.8-3.9,3.9-3.9,3.9,1.8,3.9,3.9-1.7,3.9-3.9,3.9Z"/>
      <path class="st3" d="M116.8,18.5c-4.6,0-9.2,1.2-13.2,3.6-.6.4-.8,1.2-.5,1.8.4.6,1.2.8,1.8.5,3.6-2.1,7.7-3.2,11.8-3.2,12.8,0,23.2,10.4,23.2,23.2s-10.4,23-23.1,23-8.1-1.1-11.6-3.1c-.6-.4-1.4,0-1.8.5-.4.6,0,1.4.5,1.8,3.9,2.3,8.4,3.4,12.9,3.4,14.2,0,25.8-11.6,25.8-25.8s-11.6-25.7-25.8-25.7Z"/>
      <path class="st3" d="M99.5,69.2h-.2c-.7,0-1.3.6-1.3,1.3s.6,1.3,1.3,1.3h.2c.7,0,1.3-.6,1.3-1.3s-.6-1.3-1.3-1.3Z"/>
      <path class="st3" d="M73.3,49.4c1.2,1.2,2.8,1.8,4.3,1.8s3.1-.6,4.3-1.7c1.2,1.2,2.7,1.7,4.3,1.7s3.2-.6,4.3-1.8c2.4-2.4,2.4-6.2,0-8.6,2.3-2.4,2.3-6.3,0-8.6-2.4-2.4-6.2-2.4-8.6,0-2.4-2.3-6.3-2.3-8.6,0-2.4,2.4-2.4,6.2,0,8.6-2.3,2.4-2.3,6.3,0,8.6h0ZM75.1,47.6c-1.4-1.4-1.4-3.5,0-4.9l5,5c-1.3,1.2-3.5,1.2-4.9,0h0ZM88.7,47.6c-1.4,1.4-3.5,1.4-4.9,0l5-5c1.3,1.3,1.2,3.5,0,4.9h0ZM88.7,34c1.4,1.4,1.4,3.5,0,4.9l-5-5c1.4-1.2,3.5-1.2,4.9,0h0ZM86.9,40.8l-5,5-5-5,5-5,5,5ZM75.1,34c.7-.7,1.6-1,2.5-1s1.7.3,2.4,1l-5,5c-1.2-1.4-1.2-3.6,0-5Z"/>
      <path class="st3" d="M102.4,58.3c0-.7-.6-1.3-1.3-1.3h-5.1c-1.7,0-3.2,1.1-3.7,2.7l-4,12.1c-.2.5-.7.9-1.3.9s-.9-.3-1.2-.7l-4.5-8.6c-.3-.6-1.1-.9-1.8-.6-.6.3-.9,1.1-.6,1.8l4.5,8.6c.7,1.3,2,2.1,3.5,2.1s3.2-1.1,3.7-2.7l4-12.1c.2-.5.7-.9,1.3-.9h5.1c.8,0,1.4-.6,1.4-1.3h0Z"/>
      <path class="st3" d="M69.8,51.7h-.2c-.7,0-1.3.6-1.3,1.3s.6,1.3,1.3,1.3h.2c.7,0,1.3-.6,1.3-1.3s-.6-1.3-1.3-1.3Z"/>
      <path class="st3" d="M85.5,61.3c.7,0,1.3-.6,1.3-1.3s-.6-1.3-1.3-1.3h-.2c-.7,0-1.3.6-1.3,1.3s.6,1.3,1.3,1.3h.2Z"/>
    </g>
  </g>
  <g class="st1">
    <path class="st4" d="M120.9,85.9c1.5-1.9,2.3-4.4,1.8-7.1l-.6-3.6c-.8-5-5.6-8.4-10.5-7.5s-7.5,4.4-7.7,8.7l-6,1c-1.1-1.9-3.3-3.1-5.7-2.7s-4.1,2.2-4.5,4.4l-5.7.9c-1.4-3.4-4.6-5.8-8.2-5.8l-.7-4.1c2.9-1.3,4.9-4.5,4.3-7.9l1.8-.3c1-.2,1.7-1.1,1.5-2.1l-.9-5.5,3.6-.6-.6-3.6-3.6.6h0c-.6-3.4.5-7.1,2.9-10,4.5-5.3,6.3-12.3,5.2-19.2s-4.6-12.1-10.1-15.7-12-5.1-18.3-3.8c-12.1,2.5-20.5,14.5-18.7,26.8,1,6.9,5,13,11,16.8,3.3,2.1,5.6,5.2,6.1,8.7l-3.6.6.6,3.6,3.6-.6.9,5.5c.2,1,1.1,1.7,2.1,1.5l1.8-.3c.5,3.3,3.3,5.7,6.6,6.1l.7,4.1c-3.4,1.4-5.8,4.6-5.8,8.2l-6,1c-1.1-1.9-3.3-3.1-5.7-2.7s-4.1,2.2-4.5,4.4l-6,1c-1.6-3.9-5.7-6.5-10.1-5.8-5,.8-8.4,5.6-7.5,10.5l.6,3.6c.4,2.7,2,4.8,4,6.1-5.6,3.4-8.8,10-7.7,16.7l.6,3.6c.3,1.3,1.4,1.9,2.4,1.7l28.9-4.8c1-.2,1.7-1.1,1.5-2.1l-.6-3.6c-1.1-6.7-6.3-11.9-12.7-13.3,1.5-1.9,2.3-4.4,1.8-7.1l-.3-1.8,5.7-.9c1.1,1.9,3.3,3.1,5.7,2.7s4.1-2.2,4.5-4.4l5.7-.9.3,1.8c.4,2.7,2,4.8,4,6.1-5.6,3.4-8.8,10-7.7,16.7l.6,3.6c.2,1,1.1,1.7,2.1,1.5l28.9-4.8c1-.2,1.7-1.1,1.5-2.1l-.6-3.6c-1.1-6.7-6.3-11.9-12.7-13.3,1.5-1.9,2.3-4.4,1.8-7.1l-.3-1.8,5.7-.9c1.1,1.9,3.3,3.1,5.7,2.7s4.1-2.2,4.5-4.4l5.7-.9.3,1.8c.4,2.7,2,4.8,4,6.1-5.6,3.4-8.8,10-7.7,16.7l.6,3.6c.2,1,1.1,1.7,2.1,1.5l28.9-4.8c1-.2,1.7-1.1,1.5-2.1l-.6-3.6c-.9-6.9-6.1-12.1-12.4-13.5l.2-.2ZM50.5,113l.3,1.8-3.6.6-.6-3.6-3.6.6.6,3.6-10.8,1.8-.6-3.6-3.6.6.6,3.6-3.7.6-.3-1.8c-1.2-7,3.6-13.6,10.5-14.7,7-1.2,13.6,3.6,14.7,10.5h0ZM28.8,94.4l-.6-3.6c-.5-2.9,1.5-5.9,4.6-6.4,3.1-.5,5.9,1.5,6.4,4.6l.6,3.6c.5,2.9-1.5,5.9-4.6,6.4s-5.9-1.5-6.4-4.6ZM53.9,88.4c-1,.2-1.9-.5-2.1-1.5s.5-1.9,1.5-2.1,1.9.5,2.1,1.5c.2,1-.5,1.9-1.5,2.1ZM53.2,42.6c-5.1-3.1-8.4-8.3-9.3-14.2-1.6-10.3,5.6-20.5,15.9-22.6,5.4-1.2,11,0,15.5,3.1,4.6,3.2,7.6,7.9,8.5,13.4s-.7,11.6-4.4,16.2c-3.2,3.8-4.5,8.5-3.7,13h0l-14.6,2.4c-.9-4.6-3.7-8.7-7.9-11.3ZM76.2,55l.6,3.6-14.5,2.4-.6-3.6,14.5-2.4ZM66.6,64.1l7.3-1.2c.3,2-1.1,3.8-3,4.2s-4-1-4.3-3ZM90.2,106.5l.3,1.8-3.6.6-.6-3.6-3.6.6.6,3.6-10.8,1.8-.6-3.6-3.6.6.6,3.6-3.6.6-.3-1.8c-1.2-7,3.6-13.6,10.5-14.7s13.4,3.7,14.6,10.5h0ZM68.7,87.8l-.6-3.6c-.5-2.9,1.5-5.9,4.6-6.4s5.9,1.5,6.4,4.6l.6,3.6c.5,2.9-1.5,5.9-4.6,6.4s-5.9-1.5-6.4-4.6ZM93.6,81.8c-1,.2-1.9-.5-2.1-1.5s.5-1.9,1.5-2.1,1.9.5,2.1,1.5-.5,1.9-1.5,2.1ZM108.4,81.2l-.6-3.6c-.5-2.9,1.5-5.9,4.6-6.4s5.9,1.5,6.4,4.6l.6,3.6c.5,2.9-1.5,5.9-4.6,6.4s-5.9-1.5-6.4-4.6ZM130.4,101.8l-3.6.6-.6-3.6-3.6.6.6,3.6-10.9,1.8-.6-3.6-3.6.6.6,3.6-3.6.6-.3-1.8c-1.2-7,3.6-13.6,10.5-14.7,7-1.2,13.6,3.6,14.7,10.5l.3,1.8h0Z"/>
    <path class="st4" d="M63.6,46l7.3-1.2.6,3.6-7.3,1.2-.6-3.6Z"/>
    <path class="st4" d="M63.5,34.6l.6,3.8,3.6-.6-.6-3.8c1.1-.4,2.1-1,3-1.8l3.3,2.3,2.1-3-3.3-2.3c.5-1,.8-2.2.7-3.4l3.8-.6-.6-3.6-3.8.6c-.4-1.1-1-2.1-1.8-3l2.3-3.3-3-2.1-2.3,3.3c-1-.5-2.2-.8-3.4-.7l-.6-3.8-3.6.6.6,3.8c-1.1.4-2.1,1-3,1.8l-3.3-2.3-2.1,3,3.3,2.3c-.5,1-.8,2.2-.7,3.4l-3.8.6.6,3.6,3.8-.6c.4,1.1,1,2.1,1.8,3l-2.3,3.3,3,2.1,2.3-3.3c1.1.5,2.2.7,3.4.7ZM63,20.1c2.9-.5,5.9,1.5,6.4,4.6s-1.5,5.9-4.6,6.4-5.9-1.5-6.4-4.6,1.6-5.9,4.6-6.4Z"/>
  </g>
  <g>
    <path class="st0" d="M172.3,84.9c1.2-1.6,1.9-3.6,1.5-5.8l-.5-2.9c-.7-4.1-4.5-6.8-8.6-6.2s-6.1,3.6-6.3,7.1l-4.9.8c-.9-1.6-2.7-2.6-4.6-2.2s-3.3,1.8-3.7,3.6l-4.7.8c-1.1-2.8-3.8-4.7-6.7-4.8l-.6-3.3c2.4-1,4-3.7,3.5-6.5l1.5-.2c.8,0,1.4-.9,1.2-1.7l-.7-4.5,2.9-.5-.5-2.9-2.9.5h0c-.5-2.8.4-5.8,2.4-8.2,3.7-4.3,5.2-10,4.2-15.7s-3.8-9.8-8.2-12.8-9.8-4.2-14.9-3.1c-9.9,2.1-16.7,11.8-15.3,21.9.8,5.6,4.1,10.6,9,13.7,2.7,1.7,4.6,4.3,5,7.1l-2.9.5.5,2.9,2.9-.5.7,4.5c0,.8.9,1.4,1.7,1.2l1.5-.2c.4,2.7,2.7,4.7,5.4,5l.6,3.3c-2.8,1.1-4.7,3.8-4.8,6.7l-4.9.8c-.9-1.6-2.7-2.6-4.6-2.2s-3.3,1.8-3.7,3.6l-4.9.8c-1.3-3.2-4.6-5.3-8.3-4.7s-6.8,4.5-6.2,8.6l.5,2.9c.4,2.2,1.6,3.9,3.3,5-4.6,2.8-7.2,8.1-6.3,13.6l.5,2.9c.3,1,1.1,1.5,1.9,1.4l23.6-3.9c.8,0,1.4-.9,1.2-1.7l-.5-2.9c-.9-5.5-5.1-9.7-10.3-10.9,1.2-1.6,1.9-3.6,1.5-5.8l-.2-1.5,4.7-.8c.9,1.6,2.7,2.6,4.6,2.2s3.3-1.8,3.7-3.6l4.7-.8.2,1.5c.4,2.2,1.6,3.9,3.3,5-4.6,2.8-7.2,8.1-6.3,13.6l.5,2.9c0,.8.9,1.4,1.7,1.2l23.6-3.9c.8,0,1.4-.9,1.2-1.7l-.5-2.9c-.9-5.5-5.1-9.7-10.3-10.9,1.2-1.6,1.9-3.6,1.5-5.8l-.2-1.5,4.7-.8c.9,1.6,2.7,2.6,4.6,2.2s3.3-1.8,3.7-3.6l4.7-.8.2,1.5c.4,2.2,1.6,3.9,3.3,5-4.6,2.8-7.2,8.1-6.3,13.6l.5,2.9c.1.8.9,1.4,1.7,1.2l23.6-3.9c.8,0,1.4-.9,1.2-1.7l-.5-2.9c-.7-5.6-4.9-9.9-10.2-11v.2ZM114.7,107.1l.2,1.5-2.9.5-.5-2.9-2.9.5.5,2.9-8.8,1.5-.5-2.9-2.9.5.5,2.9-3,.5-.2-1.5c-.9-5.7,3-11.1,8.6-12,5.7-.9,11.1,3,12,8.6h0ZM97,91.8l-.5-2.9c-.4-2.4,1.2-4.8,3.7-5.2s4.8,1.2,5.2,3.7l.5,2.9c.4,2.4-1.2,4.8-3.7,5.2s-4.8-1.2-5.2-3.7ZM117.5,87c-.8,0-1.6-.4-1.7-1.2s.4-1.6,1.2-1.7,1.6.4,1.7,1.2c0,.8-.4,1.6-1.2,1.7ZM117,49.5c-4.2-2.5-6.9-6.8-7.6-11.6-1.3-8.4,4.6-16.8,13-18.5,4.4-.9,9,0,12.7,2.5,3.7,2.6,6.2,6.5,6.9,10.9s-.6,9.5-3.6,13.2c-2.6,3.1-3.7,6.9-3,10.7h0l-12,2c-.7-3.7-3-7.1-6.4-9.2ZM135.7,59.7l.5,2.9-11.9,2-.5-2.9s11.9-2,11.9-2ZM127.9,67.1l5.9-1c.3,1.7-.9,3.1-2.4,3.4s-3.2-.9-3.5-2.4ZM147.2,101.7l.2,1.5-2.9.5-.5-2.9-2.9.5.5,2.9-8.8,1.5-.5-2.9-2.9.5.5,2.9-2.9.5-.2-1.5c-.9-5.7,3-11.1,8.6-12,5.6-.9,11,3,11.9,8.6h-.1ZM129.6,86.4l-.5-2.9c-.4-2.4,1.2-4.8,3.7-5.2s4.8,1.2,5.2,3.7l.5,2.9c.4,2.4-1.2,4.8-3.7,5.2s-4.8-1.2-5.2-3.7ZM149.9,81.6c-.8,0-1.6-.4-1.7-1.2s.4-1.6,1.2-1.7,1.6.4,1.7,1.2-.4,1.6-1.2,1.7ZM162,81.1l-.5-2.9c-.4-2.4,1.2-4.8,3.7-5.2s4.8,1.2,5.2,3.7l.5,2.9c.4,2.4-1.2,4.8-3.7,5.2s-4.8-1.2-5.2-3.7ZM180,97.9l-2.9.5-.5-2.9-2.9.5.5,2.9-8.9,1.5-.5-2.9-2.9.5.5,2.9-2.9.5-.2-1.5c-.9-5.7,3-11.1,8.6-12s11.1,3,12,8.6l.2,1.5h-.1Z"/>
    <path class="st0" d="M125.4,52.3l5.9-1,.5,2.9-5.9,1-.5-2.9Z"/>
    <path class="st0" d="M125.4,43l.5,3.1,2.9-.5-.5-3.1c.9-.4,1.7-.8,2.4-1.5l2.7,1.9,1.7-2.4-2.7-1.9c.4-.8.7-1.8.6-2.8l3.1-.5-.5-2.9-3.1.5c-.4-.9-.8-1.7-1.5-2.4l1.9-2.7-2.4-1.7-1.9,2.7c-.8-.4-1.8-.7-2.8-.6l-.5-3.1-2.9.5.5,3.1c-.9.4-1.7.8-2.4,1.5l-2.7-1.9-1.7,2.4,2.7,1.9c-.4.8-.7,1.8-.6,2.8l-3.1.5.5,2.9,3.1-.5c.4.9.8,1.7,1.5,2.4l-1.9,2.7,2.4,1.7,1.9-2.7c.9.4,1.8.6,2.8.6ZM124.9,31.1c2.4-.4,4.8,1.2,5.2,3.7s-1.2,4.8-3.7,5.2-4.8-1.2-5.2-3.7,1.3-4.8,3.7-5.2Z"/>
  </g>
</svg>