<?xml version="1.0" encoding="UTF-8"?>
<svg id="icons" xmlns="http://www.w3.org/2000/svg" version="1.1" viewBox="0 0 100 100">
  <!-- Generator: Adobe Illustrator 29.6.0, SVG Export Plug-In . SVG Version: 2.1.1 Build 207)  -->
  <defs>
    <style>
      .st0 {
        fill: #ac599c;
      }

      .st1 {
        fill: #46bc93;
      }

      .st2 {
        display: none;
      }
    </style>
  </defs>
  <g id="ic1" class="st2">
    <path class="st1" d="M74.4,55.2c-.5-1.3-1.2-2.5-1.9-3.6v-21.1c0-6-2.3-11.6-6.6-15.9-4.2-4.2-9.8-6.6-15.8-6.6h0c-6,0-11.6,2.3-15.9,6.6-4.2,4.2-6.6,9.9-6.6,15.9v3.1h9v-3.1c0-3.6,1.4-7,3.9-9.5s5.9-3.9,9.5-3.9h0c7.4,0,13.5,6,13.5,13.5v12.3c-1-.6-2.1-1.2-3.2-1.6-3.3-1.6-6.7-2.3-10.3-2.3s-7,.7-10.3,2.1c-3.2,1.3-6,3.2-8.4,5.7-2.4,2.4-4.3,5.3-5.7,8.4-1.4,3.3-2.1,6.7-2.1,10.3s.7,7,2.1,10.3c1.3,3.2,3.2,6,5.7,8.4,2.4,2.4,5.3,4.3,8.4,5.7,3.3,1.4,6.7,2.1,10.3,2.1s7-.7,10.3-2.1c3.2-1.3,6-3.2,8.4-5.7,2.4-2.4,4.3-5.3,5.7-8.4,1.4-3.3,2.1-6.7,2.1-10.3,0-3.6-.7-7-2.1-10.3ZM50,83c-9.6,0-17.5-7.8-17.5-17.5s7.9-17.5,17.5-17.5,17.5,7.8,17.5,17.5-7.9,17.5-17.5,17.5Z"/>
    <circle class="st1" cx="50.1" cy="65.6" r="7.4"/>
  </g>
  <g id="ic2" class="st2">
    <path class="st1" d="M81.5,32.1c-1.2-6.4-6.8-11.1-13.5-11.1s-1.4.1-2.1.2c-4.3-7-11.8-11.3-20-11.3s-21.2,8.3-23.1,19.5c-.6-.1-1.2-.1-1.8-.1-8.4,0-15.2,6.8-15.2,15.2s6.8,15.2,15.2,15.2h11c.7,0,1.3-.6,1.3-1.3s-.6-1.4-1.3-1.4h-11.1c-6.9,0-12.6-5.6-12.6-12.5s5.6-12.6,12.6-12.6,1.8.1,2.6.3c.4,0,.7,0,1-.2s.5-.5.5-.9c1.2-10.6,10.1-18.6,20.7-18.6s14.6,4.1,18.2,10.7c.3.5.9.8,1.4.6.8-.2,1.7-.3,2.5-.3,5.7,0,10.5,4.3,11.1,9.9,0,.7.6,1.2,1.3,1.2h0c6.1,0,11.1,5,11.1,11.2s-5,11.2-11.2,11.2h-22v-5.9c1.6-.5,2.8-2.1,2.8-3.9v-16.6c0-2.2-1.8-4.1-4.1-4.1h-16.6c-2.2,0-4.1,1.8-4.1,4.1v16.6c0,1.8,1.2,3.3,2.8,3.9v5.9h-1.5c-.7,0-1.3.6-1.3,1.3s.6,1.3,1.3,1.3h1.5v5.7h-8.7c-.5-1.6-2.1-2.8-3.9-2.8s-4.1,1.8-4.1,4.1,1.8,4.1,4.1,4.1,3.3-1.2,3.9-2.8h8.7v5.9c-1.6.5-2.8,2.1-2.8,3.9s1.8,4.1,4.1,4.1,4.1-1.8,4.1-4.1-1.2-3.3-2.8-3.9v-14.2h5.7v22.6c-1.6.5-2.8,2.1-2.8,3.9s1.8,4.1,4.1,4.1,4.1-1.8,4.1-4.1-1.2-3.3-2.8-3.9v-22.6h5.7v14.2c-1.6.5-2.8,2.1-2.8,3.9s1.8,4.1,4.1,4.1,4.1-1.8,4.1-4.1-1.2-3.3-2.8-3.9v-5.9h8.7c.5,1.6,2.1,2.8,3.9,2.8s4.1-1.8,4.1-4.1-1.8-4.1-4.1-4.1-3.3,1.2-3.9,2.8h-8.7v-5.7h22.3c7.6,0,13.8-6.2,13.8-13.8-.1-7.2-5.7-13.2-12.8-13.7ZM26.4,68.1c-.8,0-1.5-.7-1.5-1.5s.7-1.5,1.5-1.5,1.5.7,1.5,1.5-.6,1.5-1.5,1.5ZM41.8,77.7c0,.8-.7,1.5-1.5,1.5s-1.5-.7-1.5-1.5.7-1.5,1.5-1.5,1.5.7,1.5,1.5ZM47.3,57h-5.7v-5.7h5.7v5.7ZM50.1,86c0,.8-.7,1.5-1.5,1.5s-1.5-.7-1.5-1.5.7-1.5,1.5-1.5,1.5.7,1.5,1.5ZM55.6,57h-5.7v-5.7h5.7v5.7ZM49.9,48.7v-2.9h4.2c.7,0,1.3-.6,1.3-1.3v-5.5c0-.7-.6-1.3-1.3-1.3s-1.3.6-1.3,1.3v4.2h-8.5v-8.5h9.8c.7,0,1.3-.6,1.3-1.3s-.6-1.3-1.3-1.3h-11c-.7,0-1.3.6-1.3,1.3v11.1c0,.7.6,1.3,1.3,1.3h4.2v2.9h-7c-.8,0-1.5-.7-1.5-1.5v-16.6h0c0-.8.7-1.5,1.5-1.5h16.6c.8,0,1.5.7,1.5,1.5v16.6c0,.8-.7,1.5-1.5,1.5h-7ZM58.4,77.7c0,.8-.7,1.5-1.5,1.5s-1.5-.7-1.5-1.5.7-1.5,1.5-1.5,1.5.7,1.5,1.5ZM70.8,65.2c.8,0,1.5.7,1.5,1.5s-.7,1.5-1.5,1.5-1.5-.7-1.5-1.5.7-1.5,1.5-1.5Z"/>
  </g>
  <g id="ic3" class="st2">
    <g>
      <path class="st1" d="M32.1,35.1v29.9c0,.9.6,1.5,1.5,1.5h32.9c.9,0,1.5-.6,1.5-1.5v-29.9c0-.9-.6-1.5-1.5-1.5h-32.9c-.9,0-1.5.6-1.5,1.5ZM35.1,36.6h29.9v26.9h-29.9v-26.9Z"/>
      <rect class="st1" x="39.5" y="50" width="7.5" height="3"/>
      <rect class="st1" x="39.5" y="56" width="17.9" height="3"/>
      <path class="st1" d="M79.9,41c.9,0,1.5-.6,1.5-1.5v-4.5h11.9v-3h-11.9v-4.5c0-.9-.6-1.5-1.5-1.5h-4.5v-4.5c0-.9-.6-1.5-1.5-1.5h-4.5V6.7h-3v13.4h-4.5c-.9,0-1.5.6-1.5,1.5v4.5h-3v-4.5c0-.9-.6-1.5-1.5-1.5h-4.5V6.7h-3v13.4h-4.4c-.9,0-1.5.6-1.5,1.5v4.5h-3v-4.5c0-.9-.6-1.5-1.5-1.5h-4.5V6.7h-3v13.4h-4.5c-.9,0-1.5.6-1.5,1.5v4.5h-4.5c-.9,0-1.5.6-1.5,1.5v4.5H6.7v3h11.9v4.5c0,.9.6,1.5,1.5,1.5h4.5v1.5h-4.5c-.9,0-1.5.6-1.5,1.5v4.5H6.7v3h11.9v4.4c0,.9.6,1.5,1.5,1.5h4.5v1.5h-4.5c-.9,0-1.5.6-1.5,1.5v4.5H6.7v3h11.9v4.5c0,.9.6,1.5,1.5,1.5h4.5v4.5c0,.9.6,1.5,1.5,1.5h4.5v13.4h3v-13.5h4.5c.9,0,1.5-.6,1.5-1.5v-4.5h3v4.5c0,.9.6,1.5,1.5,1.5h4.5v13.4h3v-13.4h4.4c.9,0,1.5-.6,1.5-1.5v-4.5h3v4.5c0,.9.6,1.5,1.5,1.5h4.5v13.4h3v-13.4h4.5c.9,0,1.5-.6,1.5-1.5v-4.5h4.5c.9,0,1.5-.6,1.5-1.5v-4.5h11.9v-3h-12v-4.5c0-.9-.6-1.5-1.5-1.5h-4.5v-1.5h4.5c.9,0,1.5-.6,1.5-1.5v-4.5h11.9v-3h-11.9v-4.4c0-.9-.6-1.5-1.5-1.5h-4.5v-1.5h4.5ZM78.4,38.1h-3v-9h3v9ZM72.4,39.5v31.5H27.6V29.1h44.9v10.4h0ZM63.4,23.1h9v3h-9v-3ZM45.5,23.1h9v3h-9v-3ZM27.6,23.1h9v3h-9s0-3,0-3ZM21.6,38.1v-9h3v9h-3ZM21.6,54.5v-9h3v9h-3ZM21.6,61.9h3v9h-3v-9ZM36.6,76.9h-9v-3h9v3ZM54.5,76.9h-9v-3h9v3ZM72.4,76.9h-9v-3h9v3ZM78.4,61.9v9h-3v-9h3ZM78.4,45.5v9h-3v-9h3Z"/>
    </g>
  </g>
  <g id="ic4" class="st2">
    <path class="st1" d="M87.3,60.9c-.6-.4-1.3-.6-2-.6h0c-1.4,0-2.8.6-3.9,1.6l-2.8,2.8c-1.5,1.5-3.4,2.5-5.5,2.8l-5.1.9,2.6-1.7c1.7-1.2,2.1-3.5,1-5.2,0,0-.2-.2-.3-.4-1.2-1.4-3.3-1.6-4.9-.6l-8.2,4.9c-2,1.2-3.4,3.1-4,5.3l-4.4,16.3-4.4-16.7c-.5-2-1.8-3.7-3.6-4.8l-8.5-5.1c-1.6-1-3.6-.7-4.9.6-1.4,1.5-1.2,3.9.3,5.2.1,0,.2.2.4.3l2.6,1.7-5.2-.9c-2.1-.4-4-1.4-5.5-2.8l-3.4-3.4c-.7-.6-1.5-1-2.5-1-2.2,0-4,1.8-4,4s.2,1.6.7,2.2l2.1,3.2c.9,1.3,2,2.5,3.3,3.4l1.9,1.4c.9.6,1.8,1.1,2.8,1.5l15,6v5.5c0,.7.6,1.3,1.4,1.4h10.2c.4,0,.8-.2,1.1-.6,0,0,.2-.3.2-.5,0,.2,0,.4.3.6.2.3.6.5,1,.5h10.2c.7,0,1.3-.6,1.4-1.4v-5.3l15-6c1-.4,1.9-.9,2.8-1.5l1.9-1.4c1.3-.9,2.4-2.1,3.3-3.4l2.6-3.8c1.1-1.7.7-3.9-1-5ZM39.5,86.3v-5.2c0-.3,0-.5-.2-.7-.2-.2-.4-.4-.6-.5h0l-15.8-6.3c-.8-.3-1.6-.7-2.3-1.2l-1.9-1.4c-1-.7-1.9-1.7-2.6-2.7l-2.1-3.2c-.4-.7-.3-1.6.4-2,.2-.2.5-.2.8-.2s.5,0,.6.3l3.4,3.4c1.9,1.9,4.2,3.1,6.8,3.6l10.8,1.8c.6,0,1.3-.2,1.5-.8.2-.6,0-1.3-.5-1.6l-7.3-5c-.5-.3-.6-1-.3-1.5h.1c.4-.5,1.1-.5,1.6-.2l8.5,5.1c1.2.7,2.1,1.9,2.4,3.2l4.1,15.2h-7.4ZM86.2,64.4l-2.6,3.8c-.7,1.1-1.6,2-2.6,2.7l-2,1.5c-.7.5-1.5.9-2.3,1.2l-15.7,6.3c-.3,0-.5.3-.6.5s-.2.5-.2.7v5.1h-7.4l4-14.8c.4-1.6,1.4-2.9,2.9-3.8l8.2-4.9c.5-.3,1.1-.3,1.6,0,.2.2.3.6.3.9s-.2.6-.5.8l-7.3,5c-.5.4-.7,1-.5,1.6.3.6.9.9,1.5.8l10.8-1.9c2.6-.5,5-1.7,6.8-3.6l2.8-2.8c.6-.5,1.3-.8,2-.8s1,.4,1,1c-.1.2-.1.4-.2.6h0Z"/>
    <path class="st1" d="M83.8,46.1c-1.7,0-3.4.9-4.3,2.3l-4.8-1.9v-.4c0-3.1-2.2-5.7-5.2-6.4v-5.5c3-.6,5.2-3.3,5.2-6.4v-.3l5.3-1.5c1.9,2.1,5.1,2.3,7.2.3,2.1-1.9,2.3-5.1.3-7.2-1.9-2.1-5.1-2.3-7.2-.3-1.4,1.2-2,3.1-1.6,4.9l-4.7,1.4c-1.5-3.2-5.4-4.6-8.6-3-.6.3-1.2.7-1.7,1.2l-7.2-5.2c0-.2,0-.4,0-.6,0-3.6-2.9-6.5-6.5-6.5s-6.5,2.9-6.5,6.5,0,.4,0,.6l-7.2,5.2c-2.5-2.5-6.6-2.5-9.1.1l-.3.3-5.6-1.9v-.4c0-2.9-2.3-5.2-5.2-5.2s-5.3,2.3-5.3,5.2,2.3,5.2,5.2,5.2,3.4-.9,4.4-2.4l5.1,1.7c-.2.6-.3,1.3-.3,2,0,3.1,2.2,5.7,5.2,6.4v5.5c-3,.6-5.2,3.3-5.2,6.4v.4l-4.8,1.9c-1-1.5-2.6-2.3-4.3-2.3-2.9,0-5.2,2.3-5.2,5.2s2.3,5.2,5.2,5.2,5.2-2.3,5.2-5.2v-.4l4.7-1.9c1.3,2.8,4.4,4.2,7.4,3.3l10.1,6.2c0,.2,0,.4,0,.5,0,3.6,2.8,6.5,6.4,6.6,3.6,0,6.5-2.8,6.6-6.4,0-.4,0-.9,0-1.3l8.8-6.2c.9.5,1.9.7,3,.8,2.4,0,4.7-1.4,5.8-3.6l4.7,1.9v.4c0,2.9,2.3,5.2,5.2,5.2s5.2-2.3,5.2-5.2c-.2-2.9-2.5-5.2-5.4-5.2ZM83.8,20.1c1.4,0,2.6,1.2,2.6,2.6s-1.2,2.6-2.6,2.6-2.6-1.2-2.6-2.6c0-1.4,1.1-2.6,2.6-2.6ZM16.3,24c-1.4,0-2.6-1.2-2.6-2.6s1.2-2.6,2.6-2.6,2.6,1.2,2.6,2.6-1.2,2.6-2.6,2.6ZM16.3,53.9c-1.4,0-2.6-1.2-2.6-2.6s1.2-2.6,2.6-2.6,2.6,1.2,2.6,2.6-1.2,2.6-2.6,2.6ZM68.2,24c2.2,0,3.9,1.7,3.9,3.9s-1.7,3.9-3.9,3.9-3.9-1.7-3.9-3.9c0-2.1,1.7-3.9,3.9-3.9ZM50,13.7c2.2,0,3.9,1.7,3.9,3.9s-1.7,3.9-3.9,3.9-3.9-1.7-3.9-3.9,1.8-3.9,3.9-3.9ZM27.9,27.9c0-2.2,1.7-3.9,3.9-3.9s3.9,1.7,3.9,3.9-1.7,3.9-3.9,3.9-3.9-1.7-3.9-3.9ZM31.8,50c-2.2,0-3.9-1.7-3.9-3.9s1.7-3.9,3.9-3.9,3.9,1.7,3.9,3.9-1.7,3.9-3.9,3.9ZM50,63c-2.2,0-3.9-1.7-3.9-3.9s1.7-3.9,3.9-3.9,3.9,1.7,3.9,3.9-1.7,3.9-3.9,3.9ZM63.1,50.1l-7.7,5.4c-1.9-3-5.9-3.9-8.9-1.9-.9.6-1.7,1.4-2.2,2.4l-8.2-5c2.7-2.3,3-6.4.6-9.1-.9-1.1-2.2-1.8-3.6-2.1v-5.5c3.5-.7,5.8-4.1,5.1-7.6,0-.4-.2-.8-.4-1.2l6.6-4.7c1.1,2,3.3,3.3,5.6,3.3s4.5-1.3,5.6-3.3l6.6,4.7c-1.4,3.3.2,7.1,3.5,8.5.4.2.8.3,1.2.4v5.5c-3,.6-5.2,3.3-5.2,6.4,0,1.3.5,2.7,1.4,3.8ZM68.2,50c-2.2,0-3.9-1.7-3.9-3.9s1.7-3.9,3.9-3.9,3.9,1.7,3.9,3.9-1.8,3.9-3.9,3.9ZM83.8,53.9c-1.4,0-2.6-1.2-2.6-2.6s1.2-2.6,2.6-2.6,2.6,1.2,2.6,2.6-1.2,2.6-2.6,2.6Z"/>
  </g>
  <g id="ic5" class="st2">
    <path class="st1" d="M14,59.6c-.6,0-1,.6-1,1.2s.5,1.2,1.2,1.2,1.1-.4,1.2-1c.2-.9-.6-1.6-1.4-1.4Z"/>
    <path class="st1" d="M14.2,52.2c-.7,0-1.2.5-1.2,1.2v3.2c0,.7.5,1.2,1.2,1.2s1.2-.5,1.2-1.2v-3.2c0-.6-.5-1.2-1.2-1.2Z"/>
    <path class="st1" d="M69.1,54.8c-1.8,0-3.2,1.4-3.2,3.2s1.4,3.2,3.2,3.2,3.2-1.4,3.2-3.2-1.5-3.2-3.2-3.2ZM69.1,58.8c-.4,0-.8-.3-.8-.8s.3-.8.8-.8.8.3.8.8c0,.5-.4.8-.8.8Z"/>
    <path class="st1" d="M90.1,17.2c-1.5-1.5-4-1.5-5.5,0-1.7,1.7-13.1,13.1-15.1,15.1-.6,0-1.2-.2-1.8-.2H16.2c-4.1,0-7.5,3.4-7.5,7.5v36.9c0,4.1,3.4,7.5,7.5,7.5h22.9c.7,0,1.2-.5,1.2-1.2s-.5-1.2-1.2-1.2h-22.9c-2.8,0-5.1-2.3-5.1-5.1v-36.9c0-2.8,2.3-5.1,5.1-5.1h51.1l-3,3c-.4-.3-.9-.5-1.5-.5H19.8c-1.4,0-2.5,1.1-2.5,2.5v36.9c0,1.4,1.1,2.5,2.5,2.5h43c1.4,0,2.5-1.1,2.5-2.5v-29l7.5-7.5v15.6c0,.7.5,1.2,1.2,1.2s1.2-.5,1.2-1.2v-15.9c0-.6,0-1.2-.2-1.7l15.2-15.2c1.5-1.5,1.5-4,0-5.5ZM62.9,76.5h0c0,0,0,0,0,0H19.8c-.1,0-.1,0-.1,0v-36.9c0,0,.1,0,.1,0h42.6l-9.1,9.1h0c0,.2,0,.3-.2.4l-1.7,4.2h0q0,0,0,.2h-4.8c-.6-4.8-4.7-8.6-9.7-8.6s-9.8,4.4-9.8,9.8,3.7,9.1,8.6,9.7v5.3c0,1.1.9,2,2,2h14.2c1.1,0,2-.9,2-2v-13.5h0c0,0,.2,0,.3,0h0l4.3-1.7c.2,0,.3-.2.4-.3l4.1-4.1v26.6h0ZM37.5,53.3c-1.1,0-2,.9-2,2v6.5c-3.5-.6-6.1-3.6-6.1-7.2s3.3-7.3,7.3-7.3,6.7,2.7,7.2,6.1h-6.4ZM44,55.7c-.5,3.1-3,5.5-6,6v-6h6ZM37.9,64.2h0c4.4-.5,7.9-4.1,8.5-8.5h4.9v13.3h-13.4v-4.8h0ZM57.3,52.1l-3.5,1.4,1.4-3.5c0,0,22.2-22.2,23.1-23.1l2.1,2.1c-1.1,1.1-22.1,22.1-23.1,23.1ZM82.1,27.3l-2.1-2.1c.7-.7,1.3-1.3,1.9-1.9l2.1,2.1c-.7.7-.4.4-1.9,1.9ZM88.4,21l-2.7,2.7-2.1-2.1c1.6-1.6,2.7-2.7,2.7-2.7.6-.6,1.5-.6,2.1,0s.6,1.5,0,2.1Z"/>
    <path class="st1" d="M74,60.1c-.7,0-1.2.5-1.2,1.2v15.2c0,2.8-2.3,5.1-5.1,5.1h-22.9c-.7,0-1.2.5-1.2,1.2s.5,1.2,1.2,1.2h22.9c4.1,0,7.5-3.4,7.5-7.5v-15.2c0-.7-.5-1.2-1.2-1.2Z"/>
  </g>
  <g id="ic6" class="st2">
    <path class="st1" d="M39.5,72.4c-1.7-1.7-3.7-3-5.8-3.8,2.8-2,4.6-5.2,4.6-8.9,0-6-4.8-10.8-10.8-10.8s-10.8,4.8-10.8,10.8,1.8,6.9,4.6,8.9c-6.3,2.5-10.8,8.6-10.8,15.8v3.6c0,.9.7,1.5,1.5,1.5h30.9c.9,0,1.5-.7,1.5-1.5v-3.5c0-4.6-1.7-8.9-4.9-12.1ZM19.8,59.7c0-4.3,3.5-7.7,7.7-7.7s7.7,3.5,7.7,7.7-3.5,7.7-7.7,7.7-7.7-3.4-7.7-7.7ZM41.4,86.4H13.6v-2c0-7.7,6.2-13.9,13.9-13.9s7.2,1.4,9.8,4.1c2.6,2.6,4.1,6.1,4.1,9.8,0,0,0,2,0,2Z"/>
    <path class="st1" d="M84.5,72.4c-1.7-1.7-3.7-3-5.8-3.8,2.8-2,4.6-5.2,4.6-8.9,0-6-4.8-10.8-10.8-10.8s-10.8,4.8-10.8,10.8,1.8,6.9,4.6,8.9c-6.3,2.5-10.8,8.6-10.8,15.8v3.6c0,.9.7,1.5,1.5,1.5h31c.9,0,1.5-.7,1.5-1.5v-3.5c0-4.6-1.8-8.9-5-12.1ZM64.8,59.7c0-4.3,3.5-7.7,7.7-7.7s7.7,3.5,7.7,7.7-3.5,7.7-7.7,7.7-7.7-3.4-7.7-7.7ZM86.4,86.4h-27.8v-2c0-7.7,6.2-13.9,13.9-13.9s7.2,1.4,9.8,4.1c2.6,2.6,4.1,6.1,4.1,9.8v2Z"/>
    <path class="st1" d="M29.7,24.8l2-2c.6-.6.6-1.6,0-2.2-.6-.6-1.6-.6-2.2,0l-2,2-2-2c-.6-.6-1.6-.6-2.2,0s-.6,1.6,0,2.2l2,2-2,2c-.6.6-.6,1.6,0,2.2s.7.5,1.1.5.8-.2,1.1-.5l2-2,2,2c.3.3.7.5,1.1.5s.8-.2,1.1-.5c.6-.6.6-1.6,0-2.2l-2-2Z"/>
    <path class="st1" d="M39.8,10.5H15.1c-2.6,0-4.6,2.1-4.6,4.6v19.4c0,2.6,2.1,4.6,4.6,4.6h8.3l2.7,5.7c.3.5.8.9,1.4.9s1.1-.3,1.4-.9l2.7-5.7h8.3c2.6,0,4.6-2.1,4.6-4.6V15.1c0-2.5-2.1-4.6-4.7-4.6ZM41.4,34.6c0,.9-.7,1.5-1.5,1.5h-9.3c-.6,0-1.1.3-1.4.9l-1.7,3.6-1.7-3.6c-.3-.5-.8-.9-1.4-.9h-9.3c-.9,0-1.5-.7-1.5-1.5V15.1c0-.9.7-1.5,1.5-1.5h24.7c.9,0,1.5.7,1.5,1.5v19.5h.1Z"/>
    <path class="st1" d="M84.9,10.5h-24.7c-2.6,0-4.6,2.1-4.6,4.6v19.4c0,2.6,2.1,4.6,4.6,4.6h8.3l2.7,5.7c.3.5.8.9,1.4.9s1.1-.3,1.4-.9l2.7-5.7h8.3c2.6,0,4.6-2.1,4.6-4.6V15.1c0-2.5-2.2-4.6-4.7-4.6ZM86.4,34.6c0,.9-.7,1.5-1.5,1.5h-9.3c-.6,0-1.1.3-1.4.9l-1.7,3.6-1.7-3.6c-.3-.5-.8-.9-1.4-.9h-9.3c-.9,0-1.5-.7-1.5-1.5V15.1c0-.9.7-1.5,1.5-1.5h24.7c.9,0,1.5.7,1.5,1.5v19.5h0Z"/>
    <path class="st1" d="M79.8,20.7c-.6-.6-1.6-.6-2.2,0l-5.1,5.1-2-2c-.6-.6-1.6-.6-2.2,0s-.6,1.6,0,2.2l3.1,3.1c.3.3.7.5,1.1.5s.8-.2,1.1-.5l6.2-6.2c.6-.6.6-1.6,0-2.2Z"/>
  </g>
  <g id="ic7">
    <g>
      <path class="st0" d="M36.7,68c-.3-.3-.6-.6-.9-.9,4.6-4.5,9.2-10,9.2-17.4s-4.6-13-9.2-17.4c.3-.3.6-.6.9-.9,3.9-3.7,7.3-6.9,7.3-10.6v-1h-1.9v1c0,.6-.2,1.3-.4,1.9h-14.6c-.3-.7-.4-1.3-.4-1.9v-1h-1.9v1c0,3.7,3.4,6.9,7.3,10.6.3.3.6.6.9.9-4.6,4.5-9.2,10-9.2,17.4s4.6,13,9.2,17.4c-.3.3-.6.6-.9.9-3.9,3.7-7.3,6.9-7.3,10.6v1h1.9v-1c0-.6.2-1.3.4-1.9h14.5c.3.7.4,1.3.4,1.9v1h2v-1c0-3.6-3.4-6.9-7.3-10.6ZM28.3,24.7h12.2c-.5.6-1,1.3-1.6,1.9h-8.9c-.7-.7-1.3-1.3-1.7-1.9ZM31.8,28.5h5.1c-.5.5-1,1-1.6,1.5-.3.3-.6.6-1,.9-.3-.3-.7-.6-1-.9-.4-.5-1-1-1.5-1.5ZM34.4,33.6c1.2,1.1,2.3,2.3,3.4,3.6h-6.8c1.1-1.3,2.2-2.4,3.4-3.6ZM27.2,43h9.1v-2h-8.1c.4-.7.9-1.4,1.3-2h0c0,0,9.6,0,9.6,0h0c.5.6.9,1.2,1.3,1.9h-2.3v2h3.3c.3.6.5,1.3.7,1.9h-15.6c.2-.7.4-1.3.7-1.9ZM26,46.8h16.8c0,.6.2,1.3.2,1.9h-17.3c0-.6.2-1.2.3-1.9ZM26.5,54.5h3.1v-1.9h-3.6c-.1-.6-.2-1.3-.2-1.9h17.2c0,.7,0,1.3-.2,1.9h-11.3v1.9h10.8c-.2.7-.4,1.3-.7,1.9h-14.4c-.3-.6-.5-1.2-.7-1.9ZM29.6,60.4c-.5-.7-.9-1.3-1.3-2h12.3c-.4.7-.9,1.4-1.3,2h0c0,0-9.6,0-9.6,0-.1,0-.1,0-.1,0ZM31,62.2h6.8c-1.1,1.3-2.2,2.4-3.4,3.6-1.2-1.1-2.3-2.3-3.4-3.6ZM33.4,69.4c.3-.3.6-.6,1-.9.3.3.7.6,1,.9.5.5,1.1,1,1.6,1.5h-5.1c.4-.5,1-1,1.5-1.5ZM28.3,74.8c.5-.6,1-1.3,1.6-1.9h8.9c.6.7,1.2,1.3,1.6,1.9h-12.1Z"/>
      <path class="st0" d="M78.7,71.9h-1.6c2.3-4.1,3.5-8.8,3.5-13.5,0-7.8-3.3-15.2-8.9-20.5l2.6-2.6-1.9-1.9,3.5-3.5,1,1,4.2-4.3-7.1-7.2-4.2,4.3,1,1-3.5,3.4-1.9-1.9-13.7,13.5-1.9-1.9-4.3,4.2,13,13,4.3-4.3-1.9-1.9,5.4-5.4c2.8,2.5,4.8,5.8,5.9,9.3-1.7.4-3,1.9-3,3.8s1.7,3.8,3.8,3.8c0,.8-.2,1.6-.4,2.4-.8-.3-1.6-.5-2.4-.5h-14.6c-2.7,0-4.8,2.2-4.8,4.8v1h12.6c0,.3,0,.6,0,1v2.9h-13.5c-2.7,0-4.8,2.2-4.8,4.8v2.9h38.5v-2.9c0-2.7-2.1-4.8-4.8-4.8ZM73.9,22.2l4.4,4.4-1.5,1.5-4.4-4.4,1.5-1.5ZM72,26.1l2.5,2.5-3.5,3.4-2.5-2.5,3.5-3.4ZM58.5,52.2l-10.2-10.2,1.5-1.5,10.2,10.2-1.5,1.5ZM59.4,47.4l-6.3-6.3,12.1-12.1,6.3,6.3-12.1,12.1ZM67.6,42l2.7-2.7c5.3,4.9,8.4,11.9,8.4,19.1s-.7,6.8-2,9.9c-.2-1.9-1.1-3.5-2.5-4.6.3-1.3.5-2.6.6-3.9,1.2-.7,2-1.9,2-3.3s-1.1-3.1-2.7-3.6c-1.1-4.2-3.4-8-6.5-10.9ZM71,56.5c0-1.1.9-1.9,1.9-1.9s1.9.9,1.9,1.9-.9,1.9-1.9,1.9-1.9-.9-1.9-1.9ZM52.8,66.1c.4-1.1,1.5-1.9,2.7-1.9h9.7c-.6.6-1,1.2-1.4,1.9h-11ZM81.6,77.7h-34.7v-1c0-1.6,1.3-2.9,2.9-2.9h17.3v-1.9h-1.9v-2.9c0-2.7,2.2-4.8,4.8-4.8s4.8,2.2,4.8,4.8v2.9h-5.8v1.9h9.6c1.6,0,2.9,1.3,2.9,2.9v1h0Z"/>
    </g>
    <path class="st0" d="M91,91.5H13c-.8,0-1.5-.7-1.5-1.5V7c0-.8.7-1.5,1.5-1.5h78c.8,0,1.5.7,1.5,1.5v83c0,.8-.7,1.5-1.5,1.5ZM14.5,88.5h75V8.5H14.5v80Z"/>
    <g>
      <path class="st0" d="M11.3,22.5c-4.7,0-8.5-3.1-8.5-6.8s3.8-6.8,8.5-6.8.9,0,1.4.1c.8.1,1.4.9,1.3,1.7-.1.8-.9,1.4-1.7,1.3-.3,0-.7-.1-1-.1-3,0-5.5,1.8-5.5,3.8s2.5,3.8,5.5,3.8.8,0,1.2-.1c.8-.1,1.6.4,1.7,1.2.1.8-.4,1.6-1.2,1.7-.5.2-1.1.2-1.7.2Z"/>
      <path class="st0" d="M11.3,39.6c-4.7,0-8.5-3.1-8.5-6.8s3.8-6.8,8.5-6.8.9,0,1.4.1c.8.1,1.4.9,1.3,1.7-.1.8-.9,1.4-1.7,1.3-.3,0-.7-.1-1-.1-3,0-5.5,1.8-5.5,3.8s2.5,3.8,5.5,3.8.8,0,1.2,0c.8,0,1.6.4,1.7,1.2.1.8-.4,1.6-1.2,1.7-.5.2-1.1.2-1.7.2Z"/>
      <path class="st0" d="M11.3,56.8c-4.7,0-8.5-3.1-8.5-6.8s3.8-6.8,8.5-6.8.9,0,1.4,0c.8,0,1.4.9,1.3,1.7-.1.8-.9,1.4-1.7,1.3-.3,0-.7,0-1,0-3,0-5.5,1.8-5.5,3.8s2.5,3.8,5.5,3.8.8,0,1.2,0c.8,0,1.6.4,1.7,1.2s-.4,1.6-1.2,1.7c-.5,0-1.1.2-1.7.2Z"/>
      <path class="st0" d="M11.3,73.9c-4.7,0-8.5-3.1-8.5-6.8s3.8-6.8,8.5-6.8.9,0,1.4,0c.8,0,1.4.9,1.3,1.7-.1.8-.9,1.4-1.7,1.3-.3,0-.7,0-1,0-3,0-5.5,1.8-5.5,3.8s2.5,3.8,5.5,3.8.8,0,1.2,0c.8,0,1.6.4,1.7,1.2s-.4,1.6-1.2,1.7c-.5.1-1.1.2-1.7.2Z"/>
      <path class="st0" d="M11.3,91c-4.7,0-8.5-3.1-8.5-6.8s3.8-6.8,8.5-6.8.9,0,1.4,0c.8,0,1.4.9,1.3,1.7s-.9,1.4-1.7,1.3c-.3,0-.7,0-1,0-3,0-5.5,1.8-5.5,3.8s2.6,3.8,5.5,3.8.8,0,1.2,0c.8,0,1.6.4,1.7,1.2s-.4,1.6-1.2,1.7c-.5.2-1.1.2-1.7.2Z"/>
    </g>
  </g>
</svg>