<?xml version="1.0" encoding="UTF-8"?>
<svg id="Camada_1" xmlns="http://www.w3.org/2000/svg" version="1.1" viewBox="0 0 120 120">
  <!-- Generator: Adobe Illustrator 29.6.0, SVG Export Plug-In . SVG Version: 2.1.1 Build 207)  -->
  <defs>
    <style>
      .st0 {
        fill: #985998;
      }
    </style>
  </defs>
  <g id="_x34_">
    <path class="st0" d="M78.2,88.2h-3.9v-3.5h3.9v3.5ZM49.7,27.4h-3.5v-7.9h3.5v7.9Z"/>
    <path class="st0" d="M55,102.2h-3.5v-31.1h-5.2v-15.8h-2.6v-8.8h8.8v8.8h-2.6v12.2h5.2v34.6ZM47.1,51.9h1.8v-1.8h-1.8v1.8ZM83.4,68.5h-21.4v-5.2h-5.2v-7.9h-2.6v-8.8h8.8v2.6h4.4v-7h-4.4v2.6h-8.8v-8.8h8.8v2.6h7.9v14h-7.9v2.6h-2.6v4.4h5.2v5.2h17.9v3.5ZM57.6,51.9h1.8v-1.8h-1.8v1.8ZM57.6,41.4h1.8v-1.8h-1.8v1.8ZM41.8,55.4h-8.8v-8.8h8.8v8.8ZM36.6,51.9h1.8v-1.8h-1.8v1.8ZM83.4,47.5h-2.6v-3.5h2.6v3.5ZM41.8,44.9h-8.8v-2.6h-12.7v-3.5h12.7v-2.6h8.8v8.8ZM36.6,41.4h1.8v-1.8h-1.8v1.8ZM75.5,42.3h-2.6v-3.5h2.6v3.5ZM80.8,37h-2.6v-3.5h2.6v3.5ZM75.5,37h-2.6v-3.5h2.6v3.5ZM62.8,34.4h-8.8v-8.8h8.8v8.8ZM57.6,30.9h1.8v-1.8h-1.8v1.8ZM52.3,34.4h-8.8v-8.8h8.8v8.8ZM47.1,30.9h1.8v-1.8h-1.8v1.8ZM41.8,34.4h-8.8v-8.8h8.8v8.8ZM36.6,30.9h1.8v-1.8h-1.8v1.8ZM75.5,31.8h-2.6v-3.5h2.6v3.5Z"/>
    <rect class="st0" x="56.7" y="19.5" width="3.5" height="7.9"/>
    <polygon class="st0" points="34.8 52.8 25.2 52.8 25.2 28.3 34.8 28.3 34.8 31.8 28.7 31.8 28.7 49.3 34.8 49.3 34.8 52.8"/>
    <path class="st0" d="M47.1,102.2h-3.5v-19.3l-7.7-15.4c-.1-.2-.2-.5-.2-.8v-13.1h3.5v12.7l7.7,15.4c.1.2.2.5.2.8v19.7Z"/>
    <path class="st0" d="M60.2,102.2h-3.5v-23.2h-3.5v-3.5h7v26.7ZM65,73.8h-2.6v-3.5h2.6v3.5ZM60.2,73.3h-3.5v-2.6h3.5v2.6ZM60.2,68.1h-3.5v-2.6h3.5v2.6ZM55,65.5h-3.5v-2.6h3.5v2.6ZM55,60.2h-3.5v-2.6h3.5v2.6ZM78.2,47.5h-9.2v-3.5h9.2v3.5ZM52.3,44.9h-8.8v-8.8h8.8v8.8ZM47.1,41.4h1.8v-1.8h-1.8v1.8ZM70.7,36.6h-3.5v-4.8h-6.1v-3.5h9.6v8.3Z"/>
    <path class="st0" d="M76,102.2h-3.5v-15.8c0-1,.8-1.8,1.8-1.8h7.9c3.4,0,6.1-2.7,6.1-6.1v-11.8c0-1,.8-1.8,1.8-1.8h6.1v-.5l-7.7-16.7c-.1-.2-.2-.5-.2-.7,0-14.2-11.6-25.8-25.8-25.8h-21v-3.5h21c16,0,29.1,12.9,29.3,28.9l7.7,16.7c.1.2.2.5.2.7v2.6c0,1-.8,1.8-1.8,1.8h-6.1v10.1c0,5.3-4.3,9.6-9.6,9.6h-6.1v14Z"/>
  </g>
</svg>