<?xml version="1.0" encoding="UTF-8"?>
<svg id="Camada_1" xmlns="http://www.w3.org/2000/svg" version="1.1" viewBox="0 0 120 120">
  <!-- Generator: Adobe Illustrator 29.6.0, SVG Export Plug-In . SVG Version: 2.1.1 Build 207)  -->
  <defs>
    <style>
      .st0 {
        fill: #985998;
      }
    </style>
  </defs>
  <path id="_x38_" class="st0" d="M60,102.4c-.4,0-.9-.2-1.2-.5l-5.2-5.2,2.5-2.5,2.3,2.3v-18.1h3.5v18.1l2.3-2.3,2.5,2.5-5.2,5.2c-.3.3-.8.5-1.2.5ZM102,94.6h-30.2c-1,0-1.8-.8-1.8-1.8v-8.9l-2.3,2.3-2.5-2.5,5.2-5.2c.7-.7,1.8-.7,2.5,0l5.2,5.2-2.5,2.5-2.3-2.3v7.2h28.4v3.5ZM48.2,94.6h-30.2v-3.5h28.4v-7.2l-2.3,2.3-2.5-2.5,5.2-5.2c.7-.7,1.8-.7,2.5,0l5.2,5.2-2.5,2.5-2.3-2.3v8.9c0,1-.8,1.8-1.8,1.8ZM84.9,81.4h-3.9v-3.5h3.9c7.7,0,14-6.3,14-14s-4.9-12.7-11.4-12.7-1.8-.8-1.8-1.8c0-4.5-2.1-7.9-5.7-9.3v23.8c0,1-.8,1.8-1.8,1.8h-33.7v.9c0,.5.4.9.9.9h34.1v3.5h-34.1c-2.4,0-4.4-2-4.4-4.4v-30.6c-2.8,3.4-4.4,7.7-4.4,12.2s-.8,1.8-1.8,1.8c-7.7,0-14,6.3-14,14s6.3,14,14,14h3.9v3.5h-3.9c-9.6,0-17.5-7.9-17.5-17.5s7-16.6,15.8-17.4c.4-6,3.2-11.6,7.8-15.5v-9c0-2.4,2-4.4,4.4-4.4h32.8c1,0,1.8.8,1.8,1.8v17.2c5.2,1.4,8.6,5.6,9.1,11.3,7.6.8,13.2,7.5,13.2,16.1s-7.9,17.5-17.5,17.5ZM44.7,62.2h31.9V21.1h-31.1c-.5,0-.9.4-.9.9v40.2ZM69.2,48.6h-17.1v-3.5h17.1v3.5ZM69.2,43.4h-17.1v-3.5h17.1v3.5ZM69.2,38.1h-17.1v-3.5h17.1v3.5Z"/>
</svg>