<?xml version="1.0" encoding="UTF-8"?>
<svg id="icons" xmlns="http://www.w3.org/2000/svg" xmlns:xlink="http://www.w3.org/1999/xlink" version="1.1" viewBox="0 0 200 120">
  <!-- Generator: Adobe Illustrator 29.6.0, SVG Export Plug-In . SVG Version: 2.1.1 Build 207)  -->
  <defs>
    <style>
      .st0 {
        fill: #ac599c;
      }

      .st1 {
        fill: #46bc93;
      }

      .st2 {
        fill: #fff;
      }

      .st3 {
        opacity: .2;
      }

      .st4 {
        fill: url(#Gradiente_sem_nome_2);
        opacity: .3;
      }

      .st5 {
        display: none;
      }
    </style>
    <linearGradient id="Gradiente_sem_nome_2" data-name="Gradiente sem nome 2" x1="569" y1="1380.9" x2="569" y2="1582.2" gradientTransform="translate(1580.5 -508.5) rotate(90)" gradientUnits="userSpaceOnUse">
      <stop offset="0" stop-color="#c8645e"/>
      <stop offset=".2" stop-color="#b6606f"/>
      <stop offset=".5" stop-color="#a05b85"/>
      <stop offset=".7" stop-color="#935892"/>
      <stop offset="1" stop-color="#8f5797"/>
    </linearGradient>
  </defs>
  <rect class="st4" x="-1.7" y=".3" width="201.3" height="120.5" transform="translate(198 121) rotate(180)"/>
  <g id="ic1" class="st5">
    <path class="st1" d="M124.4,65.2c-.5-1.3-1.2-2.5-1.9-3.6v-21.1c0-6-2.3-11.6-6.6-15.9-4.2-4.2-9.8-6.6-15.8-6.6h0c-6,0-11.6,2.3-15.9,6.6-4.2,4.2-6.6,9.9-6.6,15.9v3.1h9v-3.1c0-3.6,1.4-7,3.9-9.5s5.9-3.9,9.5-3.9h0c7.4,0,13.5,6,13.5,13.5v12.3c-1-.6-2.1-1.2-3.2-1.6-3.3-1.6-6.7-2.3-10.3-2.3s-7,.7-10.3,2.1c-3.2,1.3-6,3.2-8.4,5.7-2.4,2.4-4.3,5.3-5.7,8.4-1.4,3.3-2.1,6.7-2.1,10.3s.7,7,2.1,10.3c1.3,3.2,3.2,6,5.7,8.4,2.4,2.4,5.3,4.3,8.4,5.7,3.3,1.4,6.7,2.1,10.3,2.1s7-.7,10.3-2.1c3.2-1.3,6-3.2,8.4-5.7,2.4-2.4,4.3-5.3,5.7-8.4,1.4-3.3,2.1-6.7,2.1-10.3,0-3.6-.7-7-2.1-10.3ZM100,93c-9.6,0-17.5-7.8-17.5-17.5s7.9-17.5,17.5-17.5,17.5,7.8,17.5,17.5-7.9,17.5-17.5,17.5Z"/>
    <circle class="st1" cx="100.1" cy="75.6" r="7.4"/>
  </g>
  <g class="st3">
    <path class="st2" d="M62.7,36.7c-13.6,0-24.7,11.1-24.7,24.7s11.1,24.7,24.7,24.7,24.7-11.1,24.7-24.7-11.1-24.7-24.7-24.7h0ZM62.7,82.6c-11.7,0-21.2-9.5-21.2-21.2s9.5-21.2,21.2-21.2,21.2,9.5,21.2,21.2-9.5,21.2-21.2,21.2h0Z"/>
    <path class="st2" d="M105.5,50.8h-3.6c-.9-3.4-2.2-6.6-4-9.6l2.5-2.5c.9-.9,1.4-2.2,1.4-3.5s-.5-2.6-1.4-3.5l-8-8c-1.9-1.9-5.1-1.9-6.9,0l-2.5,2.5c-3-1.7-6.3-3.1-9.6-4v-3.6c0-2.7-2.2-4.9-4.9-4.9h-11.4c-2.7,0-4.9,2.2-4.9,4.9v3.6c-3.4.9-6.6,2.2-9.6,4l-2.5-2.5c-1.9-1.9-5.1-1.9-6.9,0l-8,8c-.9.9-1.4,2.2-1.4,3.5s.5,2.6,1.4,3.5l2.5,2.5c-1.7,3-3.1,6.3-4,9.6h-3.6c-2.7,0-4.9,2.2-4.9,4.9v11.4c0,2.7,2.2,4.9,4.9,4.9h3.6c.9,3.4,2.2,6.6,4,9.6l-2.5,2.5c-.9.9-1.4,2.2-1.4,3.5s.5,2.6,1.4,3.5l8,8c1.9,1.9,5.1,1.9,6.9,0l2.5-2.5c3,1.7,6.3,3.1,9.6,4v3.6c0,2.7,2.2,4.9,4.9,4.9h11.4c2.7,0,4.9-2.2,4.9-4.9v-3.6c3.4-.9,6.6-2.2,9.6-4l2.5,2.5c1.9,1.9,5.1,1.9,6.9,0l8-8c.9-.9,1.4-2.2,1.4-3.5s-.5-2.5-1.4-3.5l-2.5-2.5c1.7-3,3.1-6.3,4-9.6h3.6c2.7,0,4.9-2.2,4.9-4.9v-11.4c0-2.7-2.2-4.9-4.9-4.9h0ZM106.9,67.1c0,.8-.6,1.4-1.4,1.4h-6.3l-.3,1.4c-.9,4-2.5,7.7-4.6,11.1l-.7,1.2,4.5,4.5c.5.5.5,1.4,0,1.9l-8,8c-.5.5-1.4.5-1.9,0l-4.5-4.5-1.2.7c-3.4,2.1-7.2,3.7-11.1,4.6l-1.4.3v6.3c0,.8-.6,1.4-1.4,1.4h-11.4c-.8,0-1.4-.6-1.4-1.4v-6.3l-1.4-.3c-4-.9-7.7-2.5-11.1-4.6l-1.2-.7-4.5,4.5c-.5.5-1.4.5-1.9,0l-8-8c-.5-.5-.5-1.4,0-1.9l4.5-4.5-.7-1.2c-2.1-3.4-3.7-7.2-4.6-11.1l-.3-1.4h-6.3c-.8,0-1.4-.6-1.4-1.4v-11.4c0-.8.6-1.4,1.4-1.4h6.3l.3-1.4c.9-4,2.5-7.7,4.6-11.1l.7-1.2-4.5-4.5c-.5-.5-.5-1.4,0-1.9l8-8c.5-.5,1.4-.5,1.9,0l4.5,4.5,1.2-.7c3.4-2.1,7.2-3.7,11.1-4.6l1.4-.3v-6.3c0-.8.6-1.4,1.4-1.4h11.4c.8,0,1.4.6,1.4,1.4v6.3l1.4.3c4,.9,7.7,2.5,11.1,4.6l1.2.7,4.5-4.5c.5-.5,1.4-.5,1.9,0l8,8c.5.5.5,1.4,0,1.9l-4.5,4.5.7,1.2c2.1,3.4,3.7,7.2,4.6,11.1l.3,1.4h6.3c.8,0,1.4.6,1.4,1.4v11.4Z"/>
    <path class="st2" d="M62.7,43.7c-9.7,0-17.7,7.9-17.7,17.7s7.9,17.7,17.7,17.7,17.7-7.9,17.7-17.7-7.9-17.7-17.7-17.7h0ZM62.7,75.5c-7.8,0-14.1-6.3-14.1-14.1s6.3-14.1,14.1-14.1,14.1,6.3,14.1,14.1-6.3,14.1-14.1,14.1h0Z"/>
  </g>
  <g>
    <path class="st0" d="M133.5,54.7c-11.7,0-21.2,9.5-21.2,21.2s9.5,21.2,21.2,21.2,21.2-9.5,21.2-21.2-9.5-21.2-21.2-21.2h0ZM133.5,94.1c-10,0-18.2-8.2-18.2-18.2s8.2-18.2,18.2-18.2,18.2,8.2,18.2,18.2-8.2,18.2-18.2,18.2h0Z"/>
    <path class="st0" d="M170.2,66.8h-3.1c-.8-2.9-1.9-5.7-3.4-8.3l2.2-2.2c.8-.8,1.2-1.9,1.2-3s-.4-2.2-1.2-3l-6.9-6.9c-1.6-1.6-4.4-1.6-6,0l-2.2,2.2c-2.6-1.5-5.4-2.6-8.3-3.4v-3.1c0-2.3-1.9-4.2-4.2-4.2h-9.7c-2.3,0-4.2,1.9-4.2,4.2v3.1c-2.9.8-5.7,1.9-8.3,3.4l-2.2-2.2c-1.6-1.6-4.4-1.6-6,0l-6.9,6.9c-.8.8-1.2,1.9-1.2,3s.4,2.2,1.2,3l2.2,2.2c-1.5,2.6-2.6,5.4-3.4,8.3h-3.1c-2.3,0-4.2,1.9-4.2,4.2v9.7c0,2.3,1.9,4.2,4.2,4.2h3.1c.8,2.9,1.9,5.7,3.4,8.3l-2.2,2.2c-.8.8-1.2,1.9-1.2,3s.4,2.2,1.2,3l6.9,6.9c1.6,1.6,4.4,1.6,6,0l2.2-2.2c2.6,1.5,5.4,2.6,8.3,3.4v3.1c0,2.3,1.9,4.2,4.2,4.2h9.7c2.3,0,4.2-1.9,4.2-4.2v-3.1c2.9-.8,5.7-1.9,8.3-3.4l2.2,2.2c1.6,1.6,4.4,1.6,6,0l6.9-6.9c.8-.8,1.2-1.9,1.2-3s-.4-2.2-1.2-3l-2.2-2.2c1.5-2.6,2.6-5.4,3.4-8.3h3.1c2.3,0,4.2-1.9,4.2-4.2v-9.7c0-2.3-1.9-4.2-4.2-4.2h0ZM171.4,80.8c0,.7-.5,1.2-1.2,1.2h-5.4l-.3,1.2c-.8,3.4-2.1,6.6-4,9.6l-.6,1,3.8,3.8c.5.5.5,1.2,0,1.7l-6.9,6.9c-.5.5-1.2.5-1.7,0l-3.8-3.8-1,.6c-2.9,1.8-6.2,3.2-9.6,4l-1.2.3v5.4c0,.7-.5,1.2-1.2,1.2h-9.7c-.7,0-1.2-.5-1.2-1.2v-5.4l-1.2-.3c-3.4-.8-6.6-2.1-9.6-4l-1-.6-3.8,3.8c-.5.5-1.2.5-1.7,0l-6.9-6.9c-.5-.5-.5-1.2,0-1.7l3.8-3.8-.6-1c-1.8-2.9-3.2-6.2-4-9.6l-.3-1.2h-5.4c-.7,0-1.2-.5-1.2-1.2v-9.7c0-.7.5-1.2,1.2-1.2h5.4l.3-1.2c.8-3.4,2.1-6.6,4-9.6l.6-1-3.8-3.8c-.5-.5-.5-1.2,0-1.7l6.9-6.9c.5-.5,1.2-.5,1.7,0l3.8,3.8,1-.6c2.9-1.8,6.2-3.2,9.6-4l1.2-.3v-5.4c0-.7.5-1.2,1.2-1.2h9.7c.7,0,1.2.5,1.2,1.2v5.4l1.2.3c3.4.8,6.6,2.1,9.6,4l1,.6,3.8-3.8c.5-.5,1.2-.5,1.7,0l6.9,6.9c.5.5.5,1.2,0,1.7l-3.8,3.8.6,1c1.8,2.9,3.2,6.2,4,9.6l.3,1.2h5.4c.7,0,1.2.5,1.2,1.2v9.7Z"/>
    <path class="st0" d="M133.5,60.7c-8.3,0-15.1,6.8-15.1,15.1s6.8,15.1,15.1,15.1,15.1-6.8,15.1-15.1-6.8-15.1-15.1-15.1h0ZM133.5,88c-6.7,0-12.1-5.4-12.1-12.1s5.4-12.1,12.1-12.1,12.1,5.4,12.1,12.1-5.4,12.1-12.1,12.1h0Z"/>
  </g>
</svg>