<?xml version="1.0" encoding="UTF-8"?>
<svg id="Layer_1" xmlns="http://www.w3.org/2000/svg" xmlns:xlink="http://www.w3.org/1999/xlink" version="1.1" viewBox="0 0 200 120">
  <!-- Generator: Adobe Illustrator 29.6.1, SVG Export Plug-In . SVG Version: 2.1.1 Build 9)  -->
  <defs>
    <style>
      .st0 {
        fill: #ac599c;
      }

      .st1 {
        fill: url(#Gradiente_sem_nome_16);
      }

      .st2 {
        fill: #fff;
      }

      .st3 {
        opacity: .2;
      }

      .st4 {
        opacity: .2;
      }

      .st5 {
        fill: url(#linear-gradient);
        isolation: isolate;
        opacity: .3;
      }

      .st6 {
        fill: #6494ba;
      }
    </style>
    <linearGradient id="linear-gradient" x1="111" y1="1965.2" x2="111" y2="2166.5" gradientTransform="translate(-2166.5 -118.5) rotate(-90)" gradientUnits="userSpaceOnUse">
      <stop offset="0" stop-color="#c8645e"/>
      <stop offset=".2" stop-color="#b6606f"/>
      <stop offset=".5" stop-color="#a05b85"/>
      <stop offset=".7" stop-color="#935892"/>
      <stop offset="1" stop-color="#8f5797"/>
    </linearGradient>
    <linearGradient id="Gradiente_sem_nome_16" data-name="Gradiente sem nome 16" x1="0" y1="59.8" x2="200" y2="59.8" gradientTransform="translate(159.8 -40.2) rotate(90)" gradientUnits="userSpaceOnUse">
      <stop offset="0" stop-color="#ac599c"/>
      <stop offset=".4" stop-color="#8877ab"/>
      <stop offset=".8" stop-color="#6d8db7"/>
      <stop offset="1" stop-color="#6496bc"/>
    </linearGradient>
  </defs>
  <rect class="st5" x="-201.3" y="-289.7" width="201.3" height="120.5"/>
  <g class="st4">
    <g>
      <path class="st2" d="M-93.5-265.2c.3.2.7.1,1.1,0s1-.5,1.3-1.1c.4-.9,0-2-.9-2.4h-.2c-.9-.5-2-.2-2.4.8-.4.9,0,2,.9,2.4v.3h.2Z"/>
      <path class="st2" d="M-104.5-255.5c-1.2,1.2-1.6,2.8-1.3,4.5l3.1,16.1c.4,2.2,2.1,3.8,4.3,4.1l18.7,2.5h.7c0,0,.2,0,.3,0h0l16.5-9.2c1.9-1.1,2.9-3.2,2.5-5.4l-3.1-16.1c-.3-1.6-1.4-3-2.8-3.7-1.5-.7-3.2-.7-4.8.2l-13.9,7.7-15.8-2.1c-1.7-.2-3.3.3-4.5,1.6h.1ZM-81.9-252.2l13.3-7.5c.4-.2.9-.3,1.4,0,.5.2.8.6.9,1.1l3.1,16.1c0,.7-.2,1.3-.8,1.7l-14.2,7.9s-3.7-19.3-3.7-19.3ZM-81.9-232.1l-16.1-2.2c-.7,0-1.2-.6-1.4-1.3l-3.1-16.1c0-.5,0-1,.4-1.4s.9-.6,1.3-.5l15.1,2.1,3.7,19.3h0Z"/>
      <path class="st2" d="M-84.8-269.3c.3.2.7.1,1.1,0s1-.5,1.3-1.1c.4-.9,0-2-.9-2.4h-.2c-.9-.5-2-.2-2.4.8s0,2,.9,2.4v.3h.2Z"/>
      <path class="st2" d="M-87.8-262.6c.3.2.7.1,1.1,0s1-.5,1.3-1.1c.4-.9,0-2-.9-2.4h-.4c-.9-.4-2-.1-2.4.8s0,2,.9,2.4l.3.2h0Z"/>
      <path class="st2" d="M-99.5-215.7h-.3c-1,.2-1.6,1.2-1.4,2.2s1.2,1.6,2.1,1.4h.3c1-.2,1.6-1.2,1.4-2.2s-1.2-1.6-2.1-1.4Z"/>
      <path class="st2" d="M-141.1-214.8c-7.7-4.3-13.1-11.8-14.8-20.5-3.1-16.1,7.5-31.6,23.6-34.7s22,2,28.9,10.8c.6.7,1.7.9,2.6.4.7-.6.9-1.7.4-2.6-7.8-9.8-20.1-14.4-32.4-12.1-18,3.4-29.9,20.9-26.5,38.9,1.9,9.8,8,18.1,16.6,23,.3.2.8.3,1.2.2s.9-.5,1.2-.9c.3-.8,0-1.8-.9-2.4h0Z"/>
      <path class="st2" d="M-129.3-240.9h.3c1-.2,1.6-1.2,1.4-2.2s-1.2-1.6-2.1-1.4h-.3c-1,.2-1.6,1.2-1.4,2.2s1.2,1.6,2.1,1.4Z"/>
      <path class="st2" d="M-82.6-207.7c-1-.2-1.9.4-2.1,1.4-2.3,9.6-9.9,16.8-19.6,18.7-13.5,2.6-26.5-6.3-29-19.8s-.4-9.7,1.4-14.1c.4-.9,0-2-1-2.3-.9-.4-2,0-2.3,1-2.1,5.1-2.6,10.7-1.6,16.1,2.9,15.4,17.8,25.6,33.2,22.6,11-2.1,19.9-10.5,22.5-21.5.3-.9-.4-1.9-1.4-2.1h-.1Z"/>
      <path class="st2" d="M-122.1-176.9c-4.9.9-8.2,5.7-7.3,10.7s5.7,8.2,10.7,7.3,8.2-5.7,7.3-10.7c-.9-4.9-5.8-8.2-10.7-7.3ZM-119.3-162.6c-3,.6-5.8-1.4-6.3-4.3s1.4-5.8,4.3-6.3,5.8,1.4,6.3,4.3-1.3,5.8-4.3,6.3Z"/>
      <path class="st2" d="M-87.7-282.1c-6.3,1.2-12.2,4-17.1,8.3-.7.7-.8,1.8-.2,2.6.7.7,1.8.8,2.6.2,4.4-3.8,9.7-6.4,15.3-7.4,17.4-3.3,34.3,8.2,37.6,25.6s-8.2,34-25.5,37.3c-5.6,1.1-11.3.6-16.6-1.2-.9-.4-1.9.2-2.3,1.1s.2,1.9,1.1,2.3c5.9,2.1,12.3,2.5,18.5,1.3,19.3-3.7,32.2-22.5,28.5-41.8s-22.5-32-41.8-28.3h0Z"/>
      <path class="st2" d="M-98.1-208.6h-.3c-1,.2-1.6,1.2-1.4,2.2s1.2,1.6,2.1,1.4h.3c1-.2,1.6-1.2,1.4-2.2s-1.2-1.6-2.1-1.4Z"/>
      <path class="st2" d="M-139-228.8c1.9,1.3,4.3,1.7,6.3,1.3s4.1-1.6,5.4-3.4c1.9,1.3,4.1,1.6,6.3,1.2s4.2-1.6,5.4-3.6c2.6-3.9,1.7-9.1-2.1-11.7,2.5-3.9,1.5-9.2-2.4-11.7-3.9-2.6-9.1-1.7-11.7,2.1-3.9-2.5-9.2-1.5-11.7,2.4-2.6,3.9-1.7,9.1,2.1,11.7-2.5,3.9-1.5,9.2,2.4,11.7ZM-137-231.7c-2.3-1.5-2.8-4.4-1.4-6.7l8.1,5.5c-1.5,2-4.5,2.5-6.7,1.1h0ZM-118.4-235.2c-1.5,2.3-4.4,2.8-6.7,1.4l5.5-8.1c2.1,1.4,2.5,4.5,1.1,6.7h.1ZM-122-253.7c2.3,1.5,2.8,4.4,1.4,6.7l-8.1-5.5c1.6-2,4.5-2.5,6.7-1.1h0ZM-122.7-244l-5.5,8.1-8.1-5.5,5.5-8.1s8.1,5.5,8.1,5.5ZM-140.5-250.2c.8-1.1,1.9-1.8,3.1-2s2.4,0,3.5.7l-5.5,8.1c-2-1.6-2.6-4.6-1.2-6.8h.1Z"/>
      <path class="st2" d="M-97-224.2c-.2-1-1.2-1.6-2.1-1.4l-6.9,1.3c-2.3.4-4.1,2.3-4.3,4.6l-2.3,17.5c0,.7-.7,1.4-1.5,1.6s-1.3-.2-1.8-.6l-8.4-10.6c-.6-.7-1.7-.9-2.6-.4-.7.6-.9,1.7-.4,2.6l8.4,10.6c1.3,1.6,3.3,2.3,5.3,2,2-.3,4.1-2.3,4.3-4.6l2.3-17.5c0-.7.7-1.4,1.5-1.6l6.9-1.3c1.1-.2,1.8-1.2,1.6-2.1h0Z"/>
      <path class="st2" d="M-143.1-224.7h-.3c-1,.2-1.6,1.2-1.4,2.2s1.2,1.6,2.1,1.4h.3c1-.2,1.6-1.2,1.4-2.2-.2-1-1.2-1.6-2.1-1.4Z"/>
      <path class="st2" d="M-119.3-215.7c1-.2,1.6-1.2,1.4-2.1s-1.2-1.6-2.1-1.4h-.3c-1,.2-1.6,1.2-1.4,2.2.2,1,1.2,1.6,2.1,1.4h.3Z"/>
    </g>
  </g>
  <g>
    <path class="st0" d="M-36.3-249.6c.2.2.5.1.8,0s.7-.3,1-.8c.3-.7,0-1.4-.6-1.7h-.1c-.7-.4-1.4-.1-1.7.6s0,1.4.6,1.7c0,0,0,.2,0,.2Z"/>
    <path class="st0" d="M-44.3-242.6c-.9.9-1.1,2-.9,3.2l2.2,11.6c.3,1.6,1.5,2.8,3.1,3l13.5,1.8h.4l11.9-6.6c1.4-.8,2.1-2.3,1.8-3.9l-2.2-11.6c-.2-1.2-1-2.1-2-2.7-1.1-.5-2.3-.5-3.4,0l-10,5.6-11.4-1.5c-1.3-.2-2.4.3-3.2,1.1h.2ZM-27.9-240.2l9.6-5.4c.3-.2.7-.2,1,0,.3,0,.6.4.7.8l2.2,11.6c0,.5-.1.9-.6,1.2l-10.2,5.7-2.6-14h0ZM-27.9-225.7l-11.6-1.6c-.5,0-.9-.4-1-.9l-2.2-11.6c0-.4,0-.7.3-1s.6-.4.9-.4l10.9,1.5,2.6,14h.1Z"/>
    <path class="st0" d="M-30.1-252.5c.2.2.5.1.8,0s.7-.3,1-.8c.3-.7,0-1.4-.6-1.7h-.1c-.7-.4-1.4-.1-1.7.6s0,1.4.6,1.7c0,0,0,.2,0,.2Z"/>
    <path class="st0" d="M-32.2-247.7c.2.2.5,0,.8,0s.7-.3,1-.8c.3-.7,0-1.4-.6-1.7h-.3c-.7-.3-1.4,0-1.7.6-.3.7,0,1.4.6,1.7l.2.2Z"/>
    <path class="st0" d="M-40.6-213.9h-.2c-.7.2-1.2.9-1,1.6s.8,1.2,1.5,1h.2c.7-.2,1.2-.9,1-1.6s-.8-1.2-1.5-1Z"/>
    <path class="st0" d="M-70.6-213.3c-5.6-3.1-9.4-8.5-10.6-14.8-2.2-11.6,5.4-22.8,17-25s15.9,1.5,20.8,7.8c.4.5,1.2.7,1.9.3.5-.4.7-1.2.3-1.9-5.6-7.1-14.5-10.4-23.3-8.7-13,2.5-21.6,15.1-19.1,28.1,1.3,7.1,5.7,13.1,12,16.6.2.2.5.2.8,0s.7-.3.9-.7c.2-.5,0-1.3-.6-1.7h0Z"/>
    <path class="st0" d="M-62.1-232.1h.2c.7-.2,1.2-.9,1-1.6s-.8-1.2-1.5-1h-.2c-.7.2-1.2.9-1,1.6s.8,1.2,1.5,1Z"/>
    <path class="st0" d="M-28.5-208.1c-.7-.2-1.4.3-1.5,1-1.6,6.9-7.2,12.1-14.1,13.5-9.7,1.8-19.1-4.5-20.9-14.2s-.3-7,1-10.2c.3-.7,0-1.4-.7-1.7s-1.4,0-1.7.7c-1.5,3.7-1.9,7.7-1.2,11.6,2.1,11.1,12.9,18.4,24,16.3,8-1.5,14.3-7.6,16.2-15.5.2-.6-.3-1.4-1-1.5h0Z"/>
    <path class="st0" d="M-56.9-185.9c-3.5.7-5.9,4.1-5.3,7.7s4.1,5.9,7.7,5.3,5.9-4.1,5.3-7.7c-.7-3.5-4.2-5.9-7.7-5.3ZM-55-175.6c-2.2.4-4.2-1-4.6-3.1s1-4.2,3.1-4.6,4.2,1,4.6,3.1-.9,4.1-3.1,4.6Z"/>
    <path class="st0" d="M-32.1-261.8c-4.5.9-8.8,2.9-12.3,6-.5.5-.6,1.3-.2,1.9.5.5,1.3.6,1.9.2,3.1-2.7,7-4.6,11-5.3,12.6-2.4,24.7,5.9,27.1,18.5,2.4,12.6-5.9,24.5-18.4,26.9s-8.2.4-12-.9c-.7-.3-1.4.2-1.7.8-.3.7.2,1.4.8,1.7,4.3,1.5,8.9,1.8,13.3.9,14-2.6,23.2-16.2,20.5-30.2-2.6-14-16.2-23.1-30.1-20.4h0Z"/>
    <path class="st0" d="M-39.7-208.8h-.2c-.7.2-1.2.9-1,1.6s.8,1.2,1.5,1h.2c.7-.2,1.2-.9,1-1.6s-.8-1.2-1.5-1Z"/>
    <path class="st0" d="M-69.1-223.3c1.4,1,3.1,1.2,4.6,1s2.9-1.2,3.9-2.5c1.4,1,3,1.2,4.5.9s3-1.2,3.9-2.6c1.9-2.8,1.2-6.5-1.5-8.5,1.8-2.8,1.1-6.6-1.7-8.4-2.8-1.9-6.5-1.2-8.5,1.5-2.8-1.8-6.6-1.1-8.4,1.7-1.9,2.8-1.2,6.5,1.5,8.5-1.8,2.8-1.1,6.6,1.7,8.4ZM-67.7-225.4c-1.6-1.1-2-3.2-1-4.8l5.8,4c-1.1,1.4-3.2,1.8-4.8.8ZM-54.3-228c-1.1,1.6-3.2,2-4.8,1l4-5.8c1.5,1,1.8,3.2.8,4.8ZM-56.8-241.3c1.6,1.1,2,3.2,1,4.8l-5.8-4c1.2-1.4,3.2-1.8,4.8-.8ZM-57.3-234.3l-4,5.8-5.8-4,4-5.8,5.8,4ZM-70.2-238.8c.6-.8,1.4-1.3,2.3-1.4s1.7,0,2.5.5l-4,5.8c-1.4-1.2-1.9-3.3-.8-4.9Z"/>
    <path class="st0" d="M-38.8-220c-.1-.7-.8-1.2-1.5-1l-5,1c-1.7.3-2.9,1.7-3.1,3.3l-1.7,12.6c0,.5-.5,1-1.1,1.1s-.9,0-1.3-.5l-6-7.6c-.4-.5-1.2-.7-1.9-.3-.5.4-.7,1.2-.3,1.9l6,7.6c.9,1.1,2.4,1.7,3.8,1.4,1.4-.3,2.9-1.7,3.1-3.3l1.7-12.6c.1-.5.5-1,1.1-1.1l5-1c.8,0,1.3-.9,1.1-1.5h0Z"/>
    <path class="st0" d="M-72.1-220.4h-.2c-.7.2-1.2.9-1,1.6s.8,1.2,1.5,1h.2c.7-.2,1.2-.9,1-1.6,0-.7-.8-1.2-1.5-1Z"/>
    <path class="st0" d="M-54.9-213.9c.7,0,1.2-.8,1-1.5s-.8-1.2-1.5-1h-.2c-.7.2-1.2.9-1,1.6s.8,1.2,1.5,1h.2Z"/>
  </g>
  <rect class="st1" x="39.8" y="-40.2" width="120.4" height="200" transform="translate(40.2 159.8) rotate(-90)"/>
  <g class="st3">
    <path class="st2" d="M35.5,46.4c-.7,0-1.3-.5-1.4-1.2l-1.3-7.3c0-.4,0-.7.2-1.1.2-.3.5-.5.9-.6l7.6-1.3c.8-.1,1.5.4,1.6,1.1l1.3,7.3c0,.4,0,.7-.2,1.1-.2.3-.5.5-.9.6l-7.6,1.3c0,0-.2,0-.2,0ZM35.8,38.8l.8,4.6,4.8-.8-.8-4.6-4.8.8Z"/>
    <path class="st2" d="M37,50.2l11.1-1.9.5,2.8-11.1,1.9-.5-2.8Z"/>
    <path class="st2" d="M33.4,64.1c-.7,0-1.3-.5-1.4-1.2l-5.9-32.8c0-.4,0-.8.3-1.1.2-.3.6-.5,1-.6l20.8-2.3c.4,0,.8,0,1.1.3.3.3.5.6.5,1v35.1c0,.8-.6,1.4-1.4,1.4s-1.4-.6-1.4-1.4V29.1l-17.8,2,5.6,31.3c.1.8-.4,1.5-1.1,1.6,0,0-.2,0-.2,0Z"/>
    <path class="st2" d="M69.8,47.7h-15.5c-.8,0-1.4-.6-1.4-1.4v-15.4c0-.8.6-1.4,1.4-1.4h15.5c.8,0,1.4.6,1.4,1.4v15.4c0,.8-.6,1.4-1.4,1.4ZM55.7,44.9h12.7v-12.6h-12.7v12.6Z"/>
    <path class="st2" d="M76.5,32.5h10.3v2.8h-10.3v-2.8Z"/>
    <path class="st2" d="M76.5,40h10.3v2.8h-10.3v-2.8Z"/>
    <path class="st2" d="M53.7,52.9h17v2.8h-17v-2.8Z"/>
    <path class="st2" d="M48.3,64.1c-.8,0-1.4-.6-1.4-1.4V25c0-.8.6-1.4,1.4-1.4h42.9c.8,0,1.4.6,1.4,1.4v29.8c0,.8-.6,1.4-1.4,1.4s-1.4-.6-1.4-1.4v-28.3h-40.1v36.3c0,.8-.6,1.4-1.4,1.4Z"/>
    <path class="st2" d="M105,102H34.5c-1.2,0-2.2-.9-2.3-2.2l-2.6-36.2c0-.6.2-1.3.6-1.7.4-.5,1-.7,1.7-.7h37.2l7.1-6.6c.9-.9,2.1-1.3,3.4-1.3h27.9c.6,0,1.2.3,1.7.7.4.5.7,1.1.6,1.7l-2.6,44.2c0,1.2-1.1,2.2-2.3,2.2ZM104.5,99.7h0s0,0,0,0ZM35,99.7h0s0,0,0,0ZM35,99.2h69.5l2.5-43.1h-27.4c-.6,0-1.1.2-1.5.6l-7.9,7.4h-37.8l2.5,35.2Z"/>
    <path class="st2" d="M82,88.2h-25.3c-.9,0-1.7-.8-1.8-1.8l-.7-10.6c0-.6.2-1.1.5-1.5.3-.4.8-.6,1.3-.6h26.7c.5,0,.9.2,1.3.6.4.4.6,1,.5,1.5l-.7,10.6c0,1-.8,1.8-1.8,1.8ZM57.6,85.4h23.4l.6-8.9h-24.6l.6,8.9Z"/>
  </g>
  <g>
    <path class="st6" d="M107.5,49.2c-.7,0-1.3-.5-1.4-1.2l-1.3-7.3c0-.4,0-.7.2-1.1.2-.3.5-.5.9-.6l7.6-1.3c.8-.1,1.5.4,1.6,1.1l1.3,7.3c0,.4,0,.7-.2,1.1-.2.3-.5.5-.9.6l-7.6,1.3c0,0-.2,0-.2,0ZM107.9,41.6l.8,4.6,4.8-.8-.8-4.6-4.8.8Z"/>
    <path class="st6" d="M109.1,53l11.1-1.9.5,2.8-11.1,1.9-.5-2.8Z"/>
    <path class="st6" d="M105.4,66.9c-.7,0-1.3-.5-1.4-1.2l-5.9-32.8c0-.4,0-.8.3-1.1.2-.3.6-.5,1-.6l20.8-2.3c.4,0,.8,0,1.1.3.3.3.5.6.5,1v35.1c0,.8-.6,1.4-1.4,1.4s-1.4-.6-1.4-1.4V31.9l-17.8,2,5.6,31.3c.1.8-.4,1.5-1.1,1.6,0,0-.2,0-.2,0Z"/>
    <path class="st6" d="M141.8,50.5h-15.5c-.8,0-1.4-.6-1.4-1.4v-15.4c0-.8.6-1.4,1.4-1.4h15.5c.8,0,1.4.6,1.4,1.4v15.4c0,.8-.6,1.4-1.4,1.4ZM127.7,47.7h12.7v-12.6h-12.7v12.6Z"/>
    <path class="st6" d="M148.6,35.3h10.3v2.8h-10.3v-2.8Z"/>
    <path class="st6" d="M148.6,42.8h10.3v2.8h-10.3v-2.8Z"/>
    <path class="st6" d="M125.7,55.7h17v2.8h-17v-2.8Z"/>
    <path class="st6" d="M120.4,66.9c-.8,0-1.4-.6-1.4-1.4V27.8c0-.8.6-1.4,1.4-1.4h42.9c.8,0,1.4.6,1.4,1.4v29.8c0,.8-.6,1.4-1.4,1.4s-1.4-.6-1.4-1.4v-28.3h-40.1v36.3c0,.8-.6,1.4-1.4,1.4Z"/>
    <path class="st6" d="M177,104.9h-70.5c-1.2,0-2.2-.9-2.3-2.2l-2.6-36.2c0-.6.2-1.3.6-1.7.4-.5,1-.7,1.7-.7h37.2l7.1-6.6c.9-.9,2.1-1.3,3.4-1.3h27.9c.6,0,1.2.3,1.7.7.4.5.7,1.1.6,1.7l-2.6,44.2c0,1.2-1.1,2.2-2.3,2.2ZM176.5,102.5h0s0,0,0,0ZM107.1,102.5h0s0,0,0,0ZM107,102h69.5l2.5-43.1h-27.4c-.6,0-1.1.2-1.5.6l-7.9,7.4h-37.8l2.5,35.2Z"/>
    <path class="st6" d="M154,91h-25.3c-.9,0-1.7-.8-1.8-1.8l-.7-10.6c0-.6.2-1.1.5-1.5.3-.4.8-.6,1.3-.6h26.7c.5,0,.9.2,1.3.6.4.4.6,1,.5,1.5l-.7,10.6c0,1-.8,1.8-1.8,1.8ZM129.6,88.2h23.4l.6-8.9h-24.6l.6,8.9Z"/>
  </g>
  <rect class="st6" x="77.5" y="-166.7" width="95.2" height="158.4" transform="translate(212.6 37.6) rotate(-90)"/>
</svg>